<?xml version="1.0" encoding="us-ascii" standalone="no"?><svg xmlns="http://www.w3.org/2000/svg" xmlns:xlink="http://www.w3.org/1999/xlink" contentStyleType="text/css" height="526px" preserveAspectRatio="none" style="width:3277px;height:526px;background:#FFFFFF;" version="1.1" viewBox="0 0 3277 526" width="3277px" zoomAndPan="magnify"><defs/><g><ellipse cx="16" cy="416" fill="#222222" rx="10" ry="10" style="stroke:#222222;stroke-width:1.0;"/><g id="SISTEMA_CERRADO"><rect fill="#F1F1F1" height="50" rx="12.5" ry="12.5" style="stroke:#181818;stroke-width:0.5;" width="156" x="87" y="391"/><line style="stroke:#181818;stroke-width:0.5;" x1="87" x2="243" y1="418.6094" y2="418.6094"/><text fill="#000000" font-family="sans-serif" font-size="14" lengthAdjust="spacing" textLength="136" x="97" y="410.5332">SISTEMA_CERRADO</text></g><g id="SESIONES_ABIERTAS"><rect fill="#F1F1F1" height="50" rx="12.5" ry="12.5" style="stroke:#181818;stroke-width:0.5;" width="163" x="387" y="391"/><line style="stroke:#181818;stroke-width:0.5;" x1="387" x2="550" y1="418.6094" y2="418.6094"/><text fill="#000000" font-family="sans-serif" font-size="14" lengthAdjust="spacing" textLength="143" x="397" y="410.5332">SESIONES_ABIERTAS</text></g><g id="DOCUMENTACION_ABIERTA"><rect fill="#F1F1F1" height="50" rx="12.5" ry="12.5" style="stroke:#181818;stroke-width:0.5;" width="206" x="740" y="391"/><line style="stroke:#181818;stroke-width:0.5;" x1="740" x2="946" y1="418.6094" y2="418.6094"/><text fill="#000000" font-family="sans-serif" font-size="14" lengthAdjust="spacing" textLength="186" x="750" y="410.5332">DOCUMENTACION_ABIERTA</text></g><g id="CASOS_USO_ABIERTO"><rect fill="#F1F1F1" height="50" rx="12.5" ry="12.5" style="stroke:#181818;stroke-width:0.5;" width="173" x="1118" y="246"/><line style="stroke:#181818;stroke-width:0.5;" x1="1118" x2="1291" y1="273.6094" y2="273.6094"/><text fill="#000000" font-family="sans-serif" font-size="14" lengthAdjust="spacing" textLength="153" x="1128" y="265.5332">CASOS_USO_ABIERTO</text></g><g id="CASO_USO_ABIERTO"><rect fill="#F1F1F1" height="50" rx="12.5" ry="12.5" style="stroke:#181818;stroke-width:0.5;" width="164" x="1572" y="246"/><line style="stroke:#181818;stroke-width:0.5;" x1="1572" x2="1736" y1="273.6094" y2="273.6094"/><text fill="#000000" font-family="sans-serif" font-size="14" lengthAdjust="spacing" textLength="144" x="1582" y="265.5332">CASO_USO_ABIERTO</text></g><g id="REQUISITOS_FUNCIONALES_ABIERTO"><rect fill="#F1F1F1" height="50" rx="12.5" ry="12.5" style="stroke:#181818;stroke-width:0.5;" width="274" x="1999" y="413"/><line style="stroke:#181818;stroke-width:0.5;" x1="1999" x2="2273" y1="440.6094" y2="440.6094"/><text fill="#000000" font-family="sans-serif" font-size="14" lengthAdjust="spacing" textLength="254" x="2009" y="432.5332">REQUISITOS_FUNCIONALES_ABIERTO</text></g><g id="REQUISITO_FUNCIONAL_ABIERTO"><rect fill="#F1F1F1" height="50" rx="12.5" ry="12.5" style="stroke:#181818;stroke-width:0.5;" width="247" x="2509" y="413"/><line style="stroke:#181818;stroke-width:0.5;" x1="2509" x2="2756" y1="440.6094" y2="440.6094"/><text fill="#000000" font-family="sans-serif" font-size="14" lengthAdjust="spacing" textLength="227" x="2519" y="432.5332">REQUISITO_FUNCIONAL_ABIERTO</text></g><g id="ESCENARIOS_GHERKIN_ABIERTO"><rect fill="#F1F1F1" height="50" rx="12.5" ry="12.5" style="stroke:#181818;stroke-width:0.5;" width="244" x="1532" y="148"/><line style="stroke:#181818;stroke-width:0.5;" x1="1532" x2="1776" y1="175.6094" y2="175.6094"/><text fill="#000000" font-family="sans-serif" font-size="14" lengthAdjust="spacing" textLength="224" x="1542" y="167.5332">ESCENARIOS_GHERKIN_ABIERTO</text></g><g id="BORRADORES_ABIERTO"><rect fill="#F1F1F1" height="50" rx="12.5" ry="12.5" style="stroke:#181818;stroke-width:0.5;" width="186" x="2043" y="165"/><line style="stroke:#181818;stroke-width:0.5;" x1="2043" x2="2229" y1="192.6094" y2="192.6094"/><text fill="#000000" font-family="sans-serif" font-size="14" lengthAdjust="spacing" textLength="166" x="2053" y="184.5332">BORRADORES_ABIERTO</text></g><g id="BORRADOR_ABIERTO"><rect fill="#F1F1F1" height="50" rx="12.5" ry="12.5" style="stroke:#181818;stroke-width:0.5;" width="168" x="2548.5" y="139"/><line style="stroke:#181818;stroke-width:0.5;" x1="2548.5" x2="2716.5" y1="166.6094" y2="166.6094"/><text fill="#000000" font-family="sans-serif" font-size="14" lengthAdjust="spacing" textLength="148" x="2558.5" y="158.5332">BORRADOR_ABIERTO</text></g><g id="KIWI_TCMS_ABIERTO"><rect fill="#F1F1F1" height="50" rx="12.5" ry="12.5" style="stroke:#181818;stroke-width:0.5;" width="163" x="3082" y="139"/><line style="stroke:#181818;stroke-width:0.5;" x1="3082" x2="3245" y1="166.6094" y2="166.6094"/><text fill="#000000" font-family="sans-serif" font-size="14" lengthAdjust="spacing" textLength="143" x="3092" y="158.5332">KIWI_TCMS_ABIERTO</text></g><!--link *start* to SISTEMA_CERRADO--><g id="link_*start*_SISTEMA_CERRADO"><path d="M26.2,416 C38.77,416 56.54,416 80.85,416 " fill="none" id="*start*-to-SISTEMA_CERRADO" style="stroke:#181818;stroke-width:1.0;"/><polygon fill="#181818" points="86.85,416,77.85,412,81.85,416,77.85,420,86.85,416" style="stroke:#181818;stroke-width:1.0;"/></g><!--link SISTEMA_CERRADO to SESIONES_ABIERTAS--><g id="link_SISTEMA_CERRADO_SESIONES_ABIERTAS"><path d="M243.25,416 C287.22,416 336.23,416 380.76,416 " fill="none" id="SISTEMA_CERRADO-to-SESIONES_ABIERTAS" style="stroke:#181818;stroke-width:1.0;"/><polygon fill="#181818" points="386.76,416,377.76,412,381.76,416,377.76,420,386.76,416" style="stroke:#181818;stroke-width:1.0;"/><text fill="#000000" font-family="sans-serif" font-size="13" lengthAdjust="spacing" textLength="82" x="274" y="412.4951">iniciarSesion()</text></g><!--link SESIONES_ABIERTAS to SISTEMA_CERRADO--><g id="link_SESIONES_ABIERTAS_SISTEMA_CERRADO"><path d="M386.71,437.27 C376.76,439.22 366.69,440.88 357,442 C319.92,446.31 310.07,446.44 273,442 C263.22,440.83 258.928,440.2838 248.918,438.2338 " fill="none" id="SESIONES_ABIERTAS-to-SISTEMA_CERRADO" style="stroke:#181818;stroke-width:1.0;"/><polygon fill="#181818" points="243.04,437.03,251.0545,442.7543,247.9383,438.0332,252.6595,434.917,243.04,437.03" style="stroke:#181818;stroke-width:1.0;"/><text fill="#000000" font-family="sans-serif" font-size="13" lengthAdjust="spacing" textLength="81" x="274.5" y="438.4951">cerrarSesion()</text></g><!--link SESIONES_ABIERTAS to DOCUMENTACION_ABIERTA--><g id="link_SESIONES_ABIERTAS_DOCUMENTACION_ABIERTA"><path d="M550.33,416 C605.85,416 674.02,416 733.67,416 " fill="none" id="SESIONES_ABIERTAS-to-DOCUMENTACION_ABIERTA" style="stroke:#181818;stroke-width:1.0;"/><polygon fill="#181818" points="739.67,416,730.67,412,734.67,416,730.67,420,739.67,416" style="stroke:#181818;stroke-width:1.0;"/><text fill="#000000" font-family="sans-serif" font-size="13" lengthAdjust="spacing" textLength="128" x="581" y="412.4951">seleccionarSesiones()</text></g><!--link SESIONES_ABIERTAS to DOCUMENTACION_ABIERTA--><g id="link_SESIONES_ABIERTAS_DOCUMENTACION_ABIERTA"><path d="M550.29,437.27 C560.24,439.22 570.31,440.88 580,442 C637.39,448.66 652.5,447.61 710,442 C719.76,441.05 723.9515,440.6334 734.0315,439.0634 " fill="none" id="SESIONES_ABIERTAS-to-DOCUMENTACION_ABIERTA-1" style="stroke:#181818;stroke-width:1.0;"/><polygon fill="#181818" points="739.96,438.14,730.4516,435.5727,735.0196,438.9095,731.6828,443.4774,739.96,438.14" style="stroke:#181818;stroke-width:1.0;"/><text fill="#000000" font-family="sans-serif" font-size="13" lengthAdjust="spacing" textLength="112" x="589" y="438.4951">crearNuevaSesion()</text></g><!--link DOCUMENTACION_ABIERTA to DOCUMENTACION_ABIERTA--><g id="link_DOCUMENTACION_ABIERTA_DOCUMENTACION_ABIERTA"><path d="M832.4,390.72 C829.18,373.23 832.72,356 843,356 C853.28,356 857.9064,367.3292 854.6864,384.8192 " fill="none" id="DOCUMENTACION_ABIERTA-to-DOCUMENTACION_ABIERTA" style="stroke:#181818;stroke-width:1.0;"/><polygon fill="#181818" points="853.6,390.72,859.1634,382.593,854.5053,385.8026,851.2957,381.1445,853.6,390.72" style="stroke:#181818;stroke-width:1.0;"/><text fill="#000000" font-family="sans-serif" font-size="13" lengthAdjust="spacing" textLength="207" x="739.5" y="347.4951">introducirDocumentacionFuncional()</text></g><!--link DOCUMENTACION_ABIERTA to DOCUMENTACION_ABIERTA--><g id="link_DOCUMENTACION_ABIERTA_DOCUMENTACION_ABIERTA"><path d="M826.53,390.71 C813.28,358.89 818.77,321 843,321 C867.23,321 875.0265,353.351 861.7765,385.171 " fill="none" id="DOCUMENTACION_ABIERTA-to-DOCUMENTACION_ABIERTA-1" style="stroke:#181818;stroke-width:1.0;"/><polygon fill="#181818" points="859.47,390.71,866.6223,383.9392,861.392,386.0942,859.237,380.8639,859.47,390.71" style="stroke:#181818;stroke-width:1.0;"/><text fill="#000000" font-family="sans-serif" font-size="13" lengthAdjust="spacing" textLength="201" x="742.5" y="312.4951">asociarDocumentacionAProyecto()</text></g><!--link DOCUMENTACION_ABIERTA to DOCUMENTACION_ABIERTA--><g id="link_DOCUMENTACION_ABIERTA_DOCUMENTACION_ABIERTA"><path d="M823.11,390.8 C797.36,345.72 803.99,286 843,286 C882.01,286 891.616,340.51 865.866,385.59 " fill="none" id="DOCUMENTACION_ABIERTA-to-DOCUMENTACION_ABIERTA-2" style="stroke:#181818;stroke-width:1.0;"/><polygon fill="#181818" points="862.89,390.8,870.8272,384.969,865.37,386.4584,863.8806,381.0011,862.89,390.8" style="stroke:#181818;stroke-width:1.0;"/><text fill="#000000" font-family="sans-serif" font-size="13" lengthAdjust="spacing" textLength="271" x="707.5" y="277.4951">consultarReferenciasDocumentacionProyecto()</text></g><!--link DOCUMENTACION_ABIERTA to CASOS_USO_ABIERTO--><g id="link_DOCUMENTACION_ABIERTA_CASOS_USO_ABIERTO"><path d="M877.13,390.88 C902.9,372.36 940.19,347.75 976,332 C1021.2,312.12 1068.5218,298.7709 1112.0918,288.7809 " fill="none" id="DOCUMENTACION_ABIERTA-to-CASOS_USO_ABIERTO" style="stroke:#181818;stroke-width:1.0;"/><polygon fill="#181818" points="1117.94,287.44,1108.2737,285.5526,1113.0665,288.5574,1110.0616,293.3502,1117.94,287.44" style="stroke:#181818;stroke-width:1.0;"/><text fill="#000000" font-family="sans-serif" font-size="13" lengthAdjust="spacing" textLength="108" x="978" y="292.4951">extraerCasosUso()</text></g><!--link CASOS_USO_ABIERTO to DOCUMENTACION_ABIERTA--><g id="link_CASOS_USO_ABIERTO_DOCUMENTACION_ABIERTA"><path d="M1176.68,296.35 C1154.52,315.95 1121.4,342.3 1088,358 C1043.67,378.84 997.067,391.4112 952.157,400.2512 " fill="none" id="CASOS_USO_ABIERTO-to-DOCUMENTACION_ABIERTA" style="stroke:#181818;stroke-width:1.0;"/><polygon fill="#181818" points="946.27,401.41,955.8731,403.5965,951.1759,400.4443,954.328,395.7471,946.27,401.41" style="stroke:#181818;stroke-width:1.0;"/><text fill="#000000" font-family="sans-serif" font-size="13" lengthAdjust="spacing" textLength="110" x="977" y="354.4951">completarGestion()</text></g><!--link CASOS_USO_ABIERTO to CASOS_USO_ABIERTO--><g id="link_CASOS_USO_ABIERTO_CASOS_USO_ABIERTO"><path d="M1189.95,245.72 C1185.54,228.23 1190.39,211 1204.5,211 C1218.61,211 1224.927,222.4121 1220.517,239.9021 " fill="none" id="CASOS_USO_ABIERTO-to-CASOS_USO_ABIERTO" style="stroke:#181818;stroke-width:1.0;"/><polygon fill="#181818" points="1219.05,245.72,1225.129,237.9711,1220.2725,240.8717,1217.3718,236.0152,1219.05,245.72" style="stroke:#181818;stroke-width:1.0;"/><text fill="#000000" font-family="sans-serif" font-size="13" lengthAdjust="spacing" textLength="96" x="1156.5" y="202.4951">listarCasosUso()</text></g><!--link CASOS_USO_ABIERTO to CASOS_USO_ABIERTO--><g id="link_CASOS_USO_ABIERTO_CASOS_USO_ABIERTO"><path d="M1181.9,245.71 C1163.71,213.89 1171.24,176 1204.5,176 C1237.76,176 1248.2677,208.681 1230.0777,240.501 " fill="none" id="CASOS_USO_ABIERTO-to-CASOS_USO_ABIERTO-1" style="stroke:#181818;stroke-width:1.0;"/><polygon fill="#181818" points="1227.1,245.71,1235.0392,239.8817,1229.5814,241.3692,1228.0939,235.9114,1227.1,245.71" style="stroke:#181818;stroke-width:1.0;"/><text fill="#000000" font-family="sans-serif" font-size="13" lengthAdjust="spacing" textLength="116" x="1146.5" y="167.4951">guardarResultados()</text></g><!--link CASOS_USO_ABIERTO to CASO_USO_ABIERTO--><g id="link_CASOS_USO_ABIERTO_CASO_USO_ABIERTO"><path d="M1232.95,245.84 C1254.94,227.49 1287.55,204.13 1321,194 C1397.99,170.69 1425.28,169.82 1502,194 C1517.52,198.89 1517.89,206.89 1532,215 C1551.46,226.2 1568.0863,234.4705 1588.0063,243.5105 " fill="none" id="CASOS_USO_ABIERTO-to-CASO_USO_ABIERTO" style="stroke:#181818;stroke-width:1.0;"/><polygon fill="#181818" points="1593.47,245.99,1586.9275,238.6283,1588.9169,243.9237,1583.6214,245.9132,1593.47,245.99" style="stroke:#181818;stroke-width:1.0;"/><text fill="#000000" font-family="sans-serif" font-size="13" lengthAdjust="spacing" textLength="114" x="1354.5" y="173.4951">consultarCasoUso()</text></g><!--link CASOS_USO_ABIERTO to CASO_USO_ABIERTO--><g id="link_CASOS_USO_ABIERTO_CASO_USO_ABIERTO"><path d="M1291.09,255.33 C1301.14,253.96 1311.28,252.8 1321,252 C1401.18,245.45 1421.71,246.97 1502,252 C1524.68,253.42 1543.2071,255.2793 1565.7271,258.1193 " fill="none" id="CASOS_USO_ABIERTO-to-CASO_USO_ABIERTO-1" style="stroke:#181818;stroke-width:1.0;"/><polygon fill="#181818" points="1571.68,258.87,1563.2512,253.7754,1566.7193,258.2444,1562.2502,261.7125,1571.68,258.87" style="stroke:#181818;stroke-width:1.0;"/><text fill="#000000" font-family="sans-serif" font-size="13" lengthAdjust="spacing" textLength="90" x="1366.5" y="244.4951">crearCasoUso()</text></g><!--link CASOS_USO_ABIERTO to CASO_USO_ABIERTO--><g id="link_CASOS_USO_ABIERTO_CASO_USO_ABIERTO"><path d="M1291.25,276.78 C1301.28,277.28 1311.36,277.71 1321,278 C1401.41,280.44 1421.58,279.86 1502,278 C1524.69,277.48 1543.2966,276.7907 1565.9266,275.7307 " fill="none" id="CASOS_USO_ABIERTO-to-CASO_USO_ABIERTO-2" style="stroke:#181818;stroke-width:1.0;"/><polygon fill="#181818" points="1571.92,275.45,1562.7427,271.8755,1566.9255,275.6839,1563.117,279.8667,1571.92,275.45" style="stroke:#181818;stroke-width:1.0;"/><text fill="#000000" font-family="sans-serif" font-size="13" lengthAdjust="spacing" textLength="117" x="1353" y="274.4951">actualizarCasoUso()</text></g><!--link CASOS_USO_ABIERTO to CASO_USO_ABIERTO--><g id="link_CASOS_USO_ABIERTO_CASO_USO_ABIERTO"><path d="M1276.22,296 C1290.85,300.16 1306.28,303.82 1321,306 C1400.58,317.79 1422.08,315.14 1502,306 C1524.86,303.39 1543.4447,299.9637 1565.8547,294.7737 " fill="none" id="CASOS_USO_ABIERTO-to-CASO_USO_ABIERTO-3" style="stroke:#181818;stroke-width:1.0;"/><polygon fill="#181818" points="1571.7,293.42,1562.0296,291.5537,1566.8289,294.5481,1563.8346,299.3475,1571.7,293.42" style="stroke:#181818;stroke-width:1.0;"/><text fill="#000000" font-family="sans-serif" font-size="13" lengthAdjust="spacing" textLength="106" x="1358.5" y="302.4951">eliminarCasoUso()</text></g><!--link CASO_USO_ABIERTO to CASOS_USO_ABIERTO--><g id="link_CASO_USO_ABIERTO_CASOS_USO_ABIERTO"><path d="M1611.1,296.08 C1581.71,312.15 1540.87,331.54 1502,340 C1423.4,357.11 1398.55,361.4 1321,340 C1290.15,331.49 1264.0998,315.8488 1242.0298,299.8688 " fill="none" id="CASO_USO_ABIERTO-to-CASOS_USO_ABIERTO" style="stroke:#181818;stroke-width:1.0;"/><polygon fill="#181818" points="1237.17,296.35,1242.1139,304.8681,1241.2199,299.2823,1246.8056,298.3883,1237.17,296.35" style="stroke:#181818;stroke-width:1.0;"/><text fill="#000000" font-family="sans-serif" font-size="13" lengthAdjust="spacing" textLength="110" x="1356.5" y="336.4951">completarGestion()</text></g><!--link DOCUMENTACION_ABIERTA to REQUISITOS_FUNCIONALES_ABIERTO--><g id="link_DOCUMENTACION_ABIERTA_REQUISITOS_FUNCIONALES_ABIERTO"><path d="M946.11,417.74 C1176.87,421.67 1732.6809,431.1478 1992.7509,435.5778 " fill="none" id="DOCUMENTACION_ABIERTA-to-REQUISITOS_FUNCIONALES_ABIERTO" style="stroke:#181818;stroke-width:1.0;"/><polygon fill="#181818" points="1998.75,435.68,1989.8194,431.5273,1993.7507,435.5948,1989.6832,439.5261,1998.75,435.68" style="stroke:#181818;stroke-width:1.0;"/><text fill="#000000" font-family="sans-serif" font-size="13" lengthAdjust="spacing" textLength="179" x="1322" y="420.4951">extraerRequisitosFuncionales()</text></g><!--link REQUISITOS_FUNCIONALES_ABIERTO to DOCUMENTACION_ABIERTA--><g id="link_REQUISITOS_FUNCIONALES_ABIERTO_DOCUMENTACION_ABIERTA"><path d="M1998.67,442.2 C1988.63,442.48 1978.66,442.75 1969,443 C1945.99,443.59 1488.58,459.07 1321,453 C1167.37,447.44 1129.23,440.52 976,428 C966.37,427.22 962.3176,426.8785 952.2876,426.0085 " fill="none" id="REQUISITOS_FUNCIONALES_ABIERTO-to-DOCUMENTACION_ABIERTA" style="stroke:#181818;stroke-width:1.0;"/><polygon fill="#181818" points="946.31,425.49,954.9307,430.2528,951.2913,425.9221,955.622,422.2827,946.31,425.49" style="stroke:#181818;stroke-width:1.0;"/><text fill="#000000" font-family="sans-serif" font-size="13" lengthAdjust="spacing" textLength="110" x="1356.5" y="449.4951">completarGestion()</text></g><!--link REQUISITOS_FUNCIONALES_ABIERTO to REQUISITOS_FUNCIONALES_ABIERTO--><g id="link_REQUISITOS_FUNCIONALES_ABIERTO_REQUISITOS_FUNCIONALES_ABIERTO"><path d="M2115.02,412.72 C2108.66,395.23 2115.66,378 2136,378 C2156.34,378 2165.3905,389.5912 2159.0305,407.0812 " fill="none" id="REQUISITOS_FUNCIONALES_ABIERTO-to-REQUISITOS_FUNCIONALES_ABIERTO" style="stroke:#181818;stroke-width:1.0;"/><polygon fill="#181818" points="2156.98,412.72,2163.8149,405.6288,2158.6887,408.021,2156.2965,402.8949,2156.98,412.72" style="stroke:#181818;stroke-width:1.0;"/><text fill="#000000" font-family="sans-serif" font-size="13" lengthAdjust="spacing" textLength="167" x="2052.5" y="369.4951">listarRequisitosFuncionales()</text></g><!--link REQUISITOS_FUNCIONALES_ABIERTO to REQUISITOS_FUNCIONALES_ABIERTO--><g id="link_REQUISITOS_FUNCIONALES_ABIERTO_REQUISITOS_FUNCIONALES_ABIERTO"><path d="M2103.41,412.71 C2077.18,380.89 2088.05,343 2136,343 C2183.95,343 2198.6364,376.2602 2172.4064,408.0802 " fill="none" id="REQUISITOS_FUNCIONALES_ABIERTO-to-REQUISITOS_FUNCIONALES_ABIERTO-1" style="stroke:#181818;stroke-width:1.0;"/><polygon fill="#181818" points="2168.59,412.71,2177.4012,408.3096,2171.7704,408.8519,2171.2281,403.221,2168.59,412.71" style="stroke:#181818;stroke-width:1.0;"/><text fill="#000000" font-family="sans-serif" font-size="13" lengthAdjust="spacing" textLength="116" x="2078" y="334.4951">guardarResultados()</text></g><!--link REQUISITOS_FUNCIONALES_ABIERTO to REQUISITO_FUNCIONAL_ABIERTO--><g id="link_REQUISITOS_FUNCIONALES_ABIERTO_REQUISITO_FUNCIONAL_ABIERTO"><path d="M2177.85,412.91 C2210.41,394.47 2257.86,370.96 2303,361 C2379.39,344.15 2402.91,342.88 2479,361 C2520.98,371 2559.3994,391.3502 2589.1494,409.7802 " fill="none" id="REQUISITOS_FUNCIONALES_ABIERTO-to-REQUISITO_FUNCIONAL_ABIERTO" style="stroke:#181818;stroke-width:1.0;"/><polygon fill="#181818" points="2594.25,412.94,2588.7057,404.8,2589.9995,410.3068,2584.4926,411.6007,2594.25,412.94" style="stroke:#181818;stroke-width:1.0;"/><text fill="#000000" font-family="sans-serif" font-size="13" lengthAdjust="spacing" textLength="171" x="2305.5" y="344.4951">consultarRequisitoFuncional()</text></g><!--link REQUISITOS_FUNCIONALES_ABIERTO to REQUISITO_FUNCIONAL_ABIERTO--><g id="link_REQUISITOS_FUNCIONALES_ABIERTO_REQUISITO_FUNCIONAL_ABIERTO"><path d="M2273.23,421.15 C2283.29,420.29 2293.3,419.56 2303,419 C2381.1,414.55 2400.93,414.16 2479,419 C2488.72,419.6 2492.797,419.8511 2502.877,420.8111 " fill="none" id="REQUISITOS_FUNCIONALES_ABIERTO-to-REQUISITO_FUNCIONAL_ABIERTO-1" style="stroke:#181818;stroke-width:1.0;"/><polygon fill="#181818" points="2508.85,421.38,2500.2698,416.5447,2503.8725,420.906,2499.5113,424.5087,2508.85,421.38" style="stroke:#181818;stroke-width:1.0;"/><text fill="#000000" font-family="sans-serif" font-size="13" lengthAdjust="spacing" textLength="147" x="2317.5" y="412.4951">crearRequisitoFuncional()</text></g><!--link REQUISITOS_FUNCIONALES_ABIERTO to REQUISITO_FUNCIONAL_ABIERTO--><g id="link_REQUISITOS_FUNCIONALES_ABIERTO_REQUISITO_FUNCIONAL_ABIERTO"><path d="M2273.32,444.21 C2283.36,444.53 2293.34,444.8 2303,445 C2381.2,446.65 2400.8,446.8 2479,445 C2488.67,444.78 2492.6836,444.6884 2502.7536,444.3384 " fill="none" id="REQUISITOS_FUNCIONALES_ABIERTO-to-REQUISITO_FUNCIONAL_ABIERTO-2" style="stroke:#181818;stroke-width:1.0;"/><polygon fill="#181818" points="2508.75,444.13,2499.6165,440.445,2503.753,444.3037,2499.8944,448.4402,2508.75,444.13" style="stroke:#181818;stroke-width:1.0;"/><text fill="#000000" font-family="sans-serif" font-size="13" lengthAdjust="spacing" textLength="174" x="2304" y="441.4951">actualizarRequisitoFuncional()</text></g><!--link REQUISITOS_FUNCIONALES_ABIERTO to REQUISITO_FUNCIONAL_ABIERTO--><g id="link_REQUISITOS_FUNCIONALES_ABIERTO_REQUISITO_FUNCIONAL_ABIERTO"><path d="M2243.22,463.07 C2262.98,466.79 2283.54,470.03 2303,472 C2380.82,479.89 2401.25,480.56 2479,472 C2496.93,470.03 2509.9614,467.981 2528.1214,464.271 " fill="none" id="REQUISITOS_FUNCIONALES_ABIERTO-to-REQUISITO_FUNCIONAL_ABIERTO-3" style="stroke:#181818;stroke-width:1.0;"/><polygon fill="#181818" points="2534,463.07,2524.3815,460.9524,2529.1012,464.0708,2525.9828,468.7905,2534,463.07" style="stroke:#181818;stroke-width:1.0;"/><text fill="#000000" font-family="sans-serif" font-size="13" lengthAdjust="spacing" textLength="163" x="2309.5" y="468.4951">eliminarRequisitoFuncional()</text></g><!--link REQUISITO_FUNCIONAL_ABIERTO to REQUISITOS_FUNCIONALES_ABIERTO--><g id="link_REQUISITO_FUNCIONAL_ABIERTO_REQUISITOS_FUNCIONALES_ABIERTO"><path d="M2587.06,463 C2557.46,478.18 2517.14,496.1 2479,504 C2402.4,519.87 2379.83,518.71 2303,504 C2261.88,496.13 2223.3908,480.7507 2191.0708,465.5707 " fill="none" id="REQUISITO_FUNCIONAL_ABIERTO-to-REQUISITOS_FUNCIONALES_ABIERTO" style="stroke:#181818;stroke-width:1.0;"/><polygon fill="#181818" points="2185.64,463.02,2192.0857,470.4666,2190.1657,465.1456,2195.4867,463.2256,2185.64,463.02" style="stroke:#181818;stroke-width:1.0;"/><text fill="#000000" font-family="sans-serif" font-size="13" lengthAdjust="spacing" textLength="110" x="2336" y="500.4951">completarGestion()</text></g><!--link CASOS_USO_ABIERTO to ESCENARIOS_GHERKIN_ABIERTO--><g id="link_CASOS_USO_ABIERTO_ESCENARIOS_GHERKIN_ABIERTO"><path d="M1211.9,245.74 C1224.44,202.25 1256.8,114.4 1321,78 C1390.98,38.33 1424.71,55.71 1502,78 C1549.02,91.56 1590.8604,120.7901 1619.5704,144.0801 " fill="none" id="CASOS_USO_ABIERTO-to-ESCENARIOS_GHERKIN_ABIERTO" style="stroke:#181818;stroke-width:1.0;"/><polygon fill="#181818" points="1624.23,147.86,1619.7605,139.0837,1620.347,144.71,1614.7206,145.2965,1624.23,147.86" style="stroke:#181818;stroke-width:1.0;"/><text fill="#000000" font-family="sans-serif" font-size="13" lengthAdjust="spacing" textLength="161" x="1331" y="51.4951">generarEscenariosGherkin()</text></g><!--link ESCENARIOS_GHERKIN_ABIERTO to CASOS_USO_ABIERTO--><g id="link_ESCENARIOS_GHERKIN_ABIERTO_CASOS_USO_ABIERTO"><path d="M1572.8,147.96 C1503.35,130.78 1401.66,116.68 1321,151 C1275.77,170.25 1242.9752,211.8358 1223.8252,240.9758 " fill="none" id="ESCENARIOS_GHERKIN_ABIERTO-to-CASOS_USO_ABIERTO" style="stroke:#181818;stroke-width:1.0;"/><polygon fill="#181818" points="1220.53,245.99,1228.8155,240.6655,1223.276,241.8115,1222.13,236.272,1220.53,245.99" style="stroke:#181818;stroke-width:1.0;"/><text fill="#000000" font-family="sans-serif" font-size="13" lengthAdjust="spacing" textLength="131" x="1346" y="126.4951">completarGeneracion()</text></g><!--link REQUISITOS_FUNCIONALES_ABIERTO to ESCENARIOS_GHERKIN_ABIERTO--><g id="link_REQUISITOS_FUNCIONALES_ABIERTO_ESCENARIOS_GHERKIN_ABIERTO"><path d="M1998.76,415.49 C1920.92,399.96 1833.48,377.07 1806,349 C1767.24,309.41 1811.42,270.61 1776,228 C1765.6,215.49 1757.0699,208.4746 1742.4599,200.8546 " fill="none" id="REQUISITOS_FUNCIONALES_ABIERTO-to-ESCENARIOS_GHERKIN_ABIERTO" style="stroke:#181818;stroke-width:1.0;"/><polygon fill="#181818" points="1737.14,198.08,1743.2701,205.7886,1741.5732,200.3922,1746.9696,198.6954,1737.14,198.08" style="stroke:#181818;stroke-width:1.0;"/><text fill="#000000" font-family="sans-serif" font-size="13" lengthAdjust="spacing" textLength="161" x="1807" y="345.4951">generarEscenariosGherkin()</text></g><!--link ESCENARIOS_GHERKIN_ABIERTO to REQUISITOS_FUNCIONALES_ABIERTO--><g id="link_ESCENARIOS_GHERKIN_ABIERTO_REQUISITOS_FUNCIONALES_ABIERTO"><path d="M1711.59,198.06 C1731.99,207.26 1755.12,217.91 1776,228 C1862.79,269.96 1885.9,278.13 1969,327 C2015.62,354.42 2062.1568,386.1819 2095.2368,409.5119 " fill="none" id="ESCENARIOS_GHERKIN_ABIERTO-to-REQUISITOS_FUNCIONALES_ABIERTO" style="stroke:#181818;stroke-width:1.0;"/><polygon fill="#181818" points="2100.14,412.97,2095.0905,404.5141,2096.054,410.0883,2090.4798,411.0517,2100.14,412.97" style="stroke:#181818;stroke-width:1.0;"/><text fill="#000000" font-family="sans-serif" font-size="13" lengthAdjust="spacing" textLength="131" x="1822" y="240.4951">completarGeneracion()</text></g><!--link ESCENARIOS_GHERKIN_ABIERTO to ESCENARIOS_GHERKIN_ABIERTO--><g id="link_ESCENARIOS_GHERKIN_ABIERTO_ESCENARIOS_GHERKIN_ABIERTO"><path d="M1614.75,147.72 C1602.85,130.23 1615.94,113 1654,113 C1692.06,113 1708.5252,125.2693 1696.6252,142.7593 " fill="none" id="ESCENARIOS_GHERKIN_ABIERTO-to-ESCENARIOS_GHERKIN_ABIERTO" style="stroke:#181818;stroke-width:1.0;"/><polygon fill="#181818" points="1693.25,147.72,1701.6199,142.5291,1696.0626,143.5861,1695.0057,138.0289,1693.25,147.72" style="stroke:#181818;stroke-width:1.0;"/><text fill="#000000" font-family="sans-serif" font-size="13" lengthAdjust="spacing" textLength="146" x="1581" y="104.4951">listarEscenariosGherkin()</text></g><!--link ESCENARIOS_GHERKIN_ABIERTO to BORRADORES_ABIERTO--><g id="link_ESCENARIOS_GHERKIN_ABIERTO_BORRADORES_ABIERTO"><path d="M1776.12,177.29 C1858.89,180.22 1960.8837,183.8381 2036.7037,186.5181 " fill="none" id="ESCENARIOS_GHERKIN_ABIERTO-to-BORRADORES_ABIERTO" style="stroke:#181818;stroke-width:1.0;"/><polygon fill="#181818" points="2042.7,186.73,2033.8469,182.4146,2037.7031,186.5534,2033.5643,190.4096,2042.7,186.73" style="stroke:#181818;stroke-width:1.0;"/><text fill="#000000" font-family="sans-serif" font-size="13" lengthAdjust="spacing" textLength="157" x="1809" y="175.4951">crearBorradorCasoPrueba()</text></g><!--link BORRADORES_ABIERTO to ESCENARIOS_GHERKIN_ABIERTO--><g id="link_BORRADORES_ABIERTO_ESCENARIOS_GHERKIN_ABIERTO"><path d="M2042.9,205.05 C1976.78,213.62 1885.66,220.87 1806,211 C1784,208.28 1766.4234,204.8451 1744.7834,199.4751 " fill="none" id="BORRADORES_ABIERTO-to-ESCENARIOS_GHERKIN_ABIERTO" style="stroke:#181818;stroke-width:1.0;"/><polygon fill="#181818" points="1738.96,198.03,1746.7317,204.0799,1743.8128,199.2342,1748.6585,196.3154,1738.96,198.03" style="stroke:#181818;stroke-width:1.0;"/><text fill="#000000" font-family="sans-serif" font-size="13" lengthAdjust="spacing" textLength="131" x="1822" y="207.4951">completarGeneracion()</text></g><!--link BORRADORES_ABIERTO to BORRADORES_ABIERTO--><g id="link_BORRADORES_ABIERTO_BORRADORES_ABIERTO"><path d="M2115.02,164.72 C2108.66,147.23 2115.66,130 2136,130 C2156.34,130 2165.3905,141.5912 2159.0305,159.0812 " fill="none" id="BORRADORES_ABIERTO-to-BORRADORES_ABIERTO" style="stroke:#181818;stroke-width:1.0;"/><polygon fill="#181818" points="2156.98,164.72,2163.8149,157.6288,2158.6887,160.021,2156.2965,154.8949,2156.98,164.72" style="stroke:#181818;stroke-width:1.0;"/><text fill="#000000" font-family="sans-serif" font-size="13" lengthAdjust="spacing" textLength="99" x="2086.5" y="121.4951">listarBorradores()</text></g><!--link BORRADORES_ABIERTO to BORRADORES_ABIERTO--><g id="link_BORRADORES_ABIERTO_BORRADORES_ABIERTO"><path d="M2103.41,164.71 C2077.18,132.89 2088.05,95 2136,95 C2183.95,95 2198.6364,128.2602 2172.4064,160.0802 " fill="none" id="BORRADORES_ABIERTO-to-BORRADORES_ABIERTO-1" style="stroke:#181818;stroke-width:1.0;"/><polygon fill="#181818" points="2168.59,164.71,2177.4012,160.3096,2171.7704,160.8519,2171.2281,155.221,2168.59,164.71" style="stroke:#181818;stroke-width:1.0;"/><text fill="#000000" font-family="sans-serif" font-size="13" lengthAdjust="spacing" textLength="116" x="2078" y="86.4951">guardarResultados()</text></g><!--link BORRADORES_ABIERTO to BORRADOR_ABIERTO--><g id="link_BORRADORES_ABIERTO_BORRADOR_ABIERTO"><path d="M2229.11,180.04 C2253.14,177.74 2279.02,175.52 2303,174 C2386.42,168.72 2475.941,166.3174 2542.401,165.1274 " fill="none" id="BORRADORES_ABIERTO-to-BORRADOR_ABIERTO" style="stroke:#181818;stroke-width:1.0;"/><polygon fill="#181818" points="2548.4,165.02,2539.3298,161.1818,2543.4008,165.1095,2539.4731,169.1805,2548.4,165.02" style="stroke:#181818;stroke-width:1.0;"/><text fill="#000000" font-family="sans-serif" font-size="13" lengthAdjust="spacing" textLength="110" x="2336" y="163.4951">consultarBorrador()</text></g><!--link BORRADORES_ABIERTO to BORRADOR_ABIERTO--><g id="link_BORRADORES_ABIERTO_BORRADOR_ABIERTO"><path d="M2229.12,199.9 C2298.14,205.57 2394.77,209.81 2479,200 C2501.7,197.36 2520.0785,193.94 2542.3785,188.71 " fill="none" id="BORRADORES_ABIERTO-to-BORRADOR_ABIERTO-1" style="stroke:#181818;stroke-width:1.0;"/><polygon fill="#181818" points="2548.22,187.34,2538.5444,185.5007,2543.3521,188.4817,2540.3711,193.2893,2548.22,187.34" style="stroke:#181818;stroke-width:1.0;"/><text fill="#000000" font-family="sans-serif" font-size="13" lengthAdjust="spacing" textLength="149" x="2316.5" y="196.4951">anadirFeedbackBorrador()</text></g><!--link BORRADORES_ABIERTO to BORRADOR_ABIERTO--><g id="link_BORRADORES_ABIERTO_BORRADOR_ABIERTO"><path d="M2218.51,215.07 C2288.22,232.93 2390.94,250.74 2479,232 C2517.84,223.73 2553.4926,207.6574 2583.1626,191.8774 " fill="none" id="BORRADORES_ABIERTO-to-BORRADOR_ABIERTO-2" style="stroke:#181818;stroke-width:1.0;"/><polygon fill="#181818" points="2588.46,189.06,2578.6357,189.7545,2584.0455,191.4078,2582.3922,196.8177,2588.46,189.06" style="stroke:#181818;stroke-width:1.0;"/><text fill="#000000" font-family="sans-serif" font-size="13" lengthAdjust="spacing" textLength="107" x="2337.5" y="228.4951">rechazarBorrador()</text></g><!--link BORRADOR_ABIERTO to BORRADORES_ABIERTO--><g id="link_BORRADOR_ABIERTO_BORRADORES_ABIERTO"><path d="M2548.45,148.45 C2481.82,138.32 2386.04,129 2303,141 C2270.29,145.73 2240.7502,153.5978 2211.1802,163.1378 " fill="none" id="BORRADOR_ABIERTO-to-BORRADORES_ABIERTO" style="stroke:#181818;stroke-width:1.0;"/><polygon fill="#181818" points="2205.47,164.98,2215.2634,166.0234,2210.2285,163.4448,2212.8071,158.4099,2205.47,164.98" style="stroke:#181818;stroke-width:1.0;"/><text fill="#000000" font-family="sans-serif" font-size="13" lengthAdjust="spacing" textLength="110" x="2336" y="132.4951">completarGestion()</text></g><!--link BORRADOR_ABIERTO to BORRADOR_ABIERTO--><g id="link_BORRADOR_ABIERTO_BORRADOR_ABIERTO"><path d="M2591.89,138.72 C2579.59,121.23 2593.12,104 2632.5,104 C2671.88,104 2688.8615,116.3221 2676.5615,133.8121 " fill="none" id="BORRADOR_ABIERTO-to-BORRADOR_ABIERTO" style="stroke:#181818;stroke-width:1.0;"/><polygon fill="#181818" points="2673.11,138.72,2681.5592,133.6592,2675.9863,134.6301,2675.0153,129.0572,2673.11,138.72" style="stroke:#181818;stroke-width:1.0;"/><text fill="#000000" font-family="sans-serif" font-size="13" lengthAdjust="spacing" textLength="116" x="2574.5" y="95.4951">guardarResultados()</text></g><!--link BORRADOR_ABIERTO to KIWI_TCMS_ABIERTO--><g id="link_BORRADOR_ABIERTO_KIWI_TCMS_ABIERTO"><path d="M2716.74,164 C2816.68,164 2977.16,164 3075.91,164 " fill="none" id="BORRADOR_ABIERTO-to-KIWI_TCMS_ABIERTO" style="stroke:#181818;stroke-width:1.0;"/><polygon fill="#181818" points="3081.91,164,3072.91,160,3076.91,164,3072.91,168,3081.91,164" style="stroke:#181818;stroke-width:1.0;"/><text fill="#000000" font-family="sans-serif" font-size="13" lengthAdjust="spacing" textLength="264" x="2787" y="160.4951">aceptarYPublicarCasoPruebaDesdeBorrador()</text></g><!--link KIWI_TCMS_ABIERTO to BORRADOR_ABIERTO--><g id="link_KIWI_TCMS_ABIERTO_BORRADOR_ABIERTO"><path d="M3081.71,185.27 C3071.76,187.22 3061.69,188.88 3052,190 C2934.57,203.63 2903.8,199.97 2786,190 C2763.39,188.09 2745.0056,185.6031 2722.5956,181.8031 " fill="none" id="KIWI_TCMS_ABIERTO-to-BORRADOR_ABIERTO" style="stroke:#181818;stroke-width:1.0;"/><polygon fill="#181818" points="2716.68,180.8,2724.8846,186.2483,2721.6096,181.6359,2726.2221,178.3609,2716.68,180.8" style="stroke:#181818;stroke-width:1.0;"/><text fill="#000000" font-family="sans-serif" font-size="13" lengthAdjust="spacing" textLength="132" x="2853" y="186.4951">completarPublicacion()</text></g><!--link KIWI_TCMS_ABIERTO to KIWI_TCMS_ABIERTO--><g id="link_KIWI_TCMS_ABIERTO_KIWI_TCMS_ABIERTO"><path d="M3149.74,138.72 C3145.57,121.23 3150.16,104 3163.5,104 C3176.84,104 3182.8215,115.3936 3178.6515,132.8836 " fill="none" id="KIWI_TCMS_ABIERTO-to-KIWI_TCMS_ABIERTO" style="stroke:#181818;stroke-width:1.0;"/><polygon fill="#181818" points="3177.26,138.72,3183.2382,130.8931,3178.4196,133.8563,3175.4564,129.0377,3177.26,138.72" style="stroke:#181818;stroke-width:1.0;"/><text fill="#000000" font-family="sans-serif" font-size="13" lengthAdjust="spacing" textLength="126" x="3100.5" y="95.4951">registrarCasoPrueba()</text></g><!--link KIWI_TCMS_ABIERTO to KIWI_TCMS_ABIERTO--><g id="link_KIWI_TCMS_ABIERTO_KIWI_TCMS_ABIERTO"><path d="M3142.12,138.71 C3124.92,106.89 3132.05,69 3163.5,69 C3194.95,69 3204.9331,101.6118 3187.7331,133.4318 " fill="none" id="KIWI_TCMS_ABIERTO-to-KIWI_TCMS_ABIERTO-1" style="stroke:#181818;stroke-width:1.0;"/><polygon fill="#181818" points="3184.88,138.71,3192.6785,132.6947,3187.2576,134.3115,3185.6408,128.8906,3184.88,138.71" style="stroke:#181818;stroke-width:1.0;"/><text fill="#000000" font-family="sans-serif" font-size="13" lengthAdjust="spacing" textLength="201" x="3063" y="60.4951">buscarCasosPruebaEnKiwiTCMS()</text></g><!--link KIWI_TCMS_ABIERTO to KIWI_TCMS_ABIERTO--><g id="link_KIWI_TCMS_ABIERTO_KIWI_TCMS_ABIERTO"><path d="M3137.69,138.8 C3104.26,93.72 3112.87,34 3163.5,34 C3214.13,34 3226.3139,88.9006 3192.8839,133.9806 " fill="none" id="KIWI_TCMS_ABIERTO-to-KIWI_TCMS_ABIERTO-2" style="stroke:#181818;stroke-width:1.0;"/><polygon fill="#181818" points="3189.31,138.8,3197.8839,133.9535,3192.2883,134.7838,3191.458,129.1882,3189.31,138.8" style="stroke:#181818;stroke-width:1.0;"/><text fill="#000000" font-family="sans-serif" font-size="13" lengthAdjust="spacing" textLength="171" x="3078" y="25.4951">verCasoPruebaEnKiwiTCMS()</text></g><!--SRC=[jPRHRjem58RlynIvt2hr1NOnAGJ38aR2Oj0qJHKopYbO3N5hEztMfv-T04t0ZHEgtcB_t_cF_H-J7EwLhxWls7Qd_8m9e8hnmlD-tzpvjxTVVHpX9Pe7wn2bQJ1EFE_iXteJmb4I8xmEHX5Abm7sl_YiO9GHWK5gtgVFtkKU2rxhA0ZXb8sJS3L7yJ88zU9nIOibv42fLXu980Spg00YuXAUoSc4Pz_RHM654ZmhAHDZJiiz58eONvEogEpbcZeSIYGtPzeY1Wl1_-bRurSHAIzacIiYKhW70TeSaIryWzw13mESuFKA9uTVpKN2NoK8Y52RbYjf09Uxkgtj7tFGrgOWLNqFTe2jUCwaLZfhswJRaeZC74XrC1at2UgGdwbF1sfgkqgVQqtohj0HgagIivUhn92pFIlEfRrEod937Hb9qOzLXAEbnanMiLaElfzciX6O59vA9fdYyZGirHGxz0EZr8FcD5o7x1r-dHMiMHm2VjrXo-Z9UlDPUZ_UnFXZqAz9_nZ-SHYwwHPfhzkqpOjzJX4EKHoaaLwQVaFfB8gReO02z5yaaXIqLSRbT0VYWVLCzRNe3bsFzy5WQTso0pJa5FjJExkkvzZMj0ixIghFbhHjqEH_nFLdJCQhPtKXIjWGZRDiTvgpj_i6oUgdRkzeg7gRXiYjRv03O7jiZWRSvPi3Nn3zKJe1o3Q4Fbo5q9-qE_9YhU-Isbhlr3h7tQgUHJ-ZzJASuzPB1uzQ-cjHRd96IID7Ov0PD9gvLB_55B3LKH2a7KgxtdgJXtuEdWvH761WKyf3Ax8kZueP-yFCha6DF4EZXHRZFm00]--></g></svg>