<svg xmlns="http://www.w3.org/2000/svg" xmlns:xlink="http://www.w3.org/1999/xlink" contentStyleType="text/css" data-diagram-type="CLASS" height="272px" preserveAspectRatio="none" style="width:1404px;height:272px;background:#FFFFFF;" version="1.1" viewBox="0 0 1404 272" width="1404px" zoomAndPan="magnify"><title>Controladores - app</title><defs/><g><g class="title" data-source-line="5"><text fill="#000000" font-family="sans-serif" font-size="14" font-weight="bold" lengthAdjust="spacing" textLength="156.7412" x="616.6294" y="22.9951">Controladores - app</text></g><!--cluster controllers--><g class="cluster" data-entity="controllers" data-source-line="7" data-uid="ent0002" id="cluster_controllers"><rect fill="none" height="99" rx="2.5" ry="2.5" style="stroke:#000000;stroke-width:1.5;" width="1390" x="8" y="44.2969"/><text fill="#000000" font-family="sans-serif" font-size="14" font-weight="bold" lengthAdjust="spacing" textLength="85.4287" x="660.2856" y="59.292">controllers</text></g><!--cluster services--><g class="cluster" data-entity="services" data-source-line="18" data-uid="ent0010" id="cluster_services"><rect fill="none" height="99" rx="2.5" ry="2.5" style="stroke:#000000;stroke-width:1.5;" width="1306" x="7" y="167.2969"/><text fill="#000000" font-family="sans-serif" font-size="14" font-weight="bold" lengthAdjust="spacing" textLength="64.7842" x="627.6079" y="182.292">services</text></g><!--class AuthController--><g class="entity" data-entity="AuthController" data-source-line="9" data-uid="ent0003" id="entity_AuthController"><rect fill="#F1F1F1" height="48" rx="2.5" ry="2.5" style="stroke:#181818;stroke-width:0.5;" width="133.9854" x="1248" y="79.2969"/><ellipse cx="1263" cy="95.2969" fill="#ADD1B2" rx="11" ry="11" style="stroke:#181818;stroke-width:1;"/><path d="M1265.9688,100.9375 Q1265.3906,101.2344 1264.75,101.375 Q1264.1094,101.5313 1263.4063,101.5313 Q1260.9063,101.5313 1259.5781,99.8906 Q1258.2656,98.2344 1258.2656,95.1094 Q1258.2656,91.9844 1259.5781,90.3281 Q1260.9063,88.6719 1263.4063,88.6719 Q1264.1094,88.6719 1264.75,88.8281 Q1265.4063,88.9844 1265.9688,89.2813 L1265.9688,92 Q1265.3438,91.4219 1264.75,91.1563 Q1264.1563,90.875 1263.5313,90.875 Q1262.1875,90.875 1261.5,91.9531 Q1260.8125,93.0156 1260.8125,95.1094 Q1260.8125,97.2031 1261.5,98.2813 Q1262.1875,99.3438 1263.5313,99.3438 Q1264.1563,99.3438 1264.75,99.0781 Q1265.3438,98.7969 1265.9688,98.2188 L1265.9688,100.9375 Z " fill="#000000"/><text fill="#000000" font-family="sans-serif" font-size="14" lengthAdjust="spacing" textLength="101.9854" x="1277" y="100.1436">AuthController</text><line style="stroke:#181818;stroke-width:0.5;" x1="1249" x2="1380.9854" y1="111.2969" y2="111.2969"/><line style="stroke:#181818;stroke-width:0.5;" x1="1249" x2="1380.9854" y1="119.2969" y2="119.2969"/></g><!--class SessionController--><g class="entity" data-entity="SessionController" data-source-line="10" data-uid="ent0004" id="entity_SessionController"><rect fill="#F1F1F1" height="48" rx="2.5" ry="2.5" style="stroke:#181818;stroke-width:0.5;" width="154.5889" x="615.5" y="79.2969"/><ellipse cx="630.5" cy="95.2969" fill="#ADD1B2" rx="11" ry="11" style="stroke:#181818;stroke-width:1;"/><path d="M633.4688,100.9375 Q632.8906,101.2344 632.25,101.375 Q631.6094,101.5313 630.9063,101.5313 Q628.4063,101.5313 627.0781,99.8906 Q625.7656,98.2344 625.7656,95.1094 Q625.7656,91.9844 627.0781,90.3281 Q628.4063,88.6719 630.9063,88.6719 Q631.6094,88.6719 632.25,88.8281 Q632.9063,88.9844 633.4688,89.2813 L633.4688,92 Q632.8438,91.4219 632.25,91.1563 Q631.6563,90.875 631.0313,90.875 Q629.6875,90.875 629,91.9531 Q628.3125,93.0156 628.3125,95.1094 Q628.3125,97.2031 629,98.2813 Q629.6875,99.3438 631.0313,99.3438 Q631.6563,99.3438 632.25,99.0781 Q632.8438,98.7969 633.4688,98.2188 L633.4688,100.9375 Z " fill="#000000"/><text fill="#000000" font-family="sans-serif" font-size="14" lengthAdjust="spacing" textLength="122.5889" x="644.5" y="100.1436">SessionController</text><line style="stroke:#181818;stroke-width:0.5;" x1="616.5" x2="769.0889" y1="111.2969" y2="111.2969"/><line style="stroke:#181818;stroke-width:0.5;" x1="616.5" x2="769.0889" y1="119.2969" y2="119.2969"/></g><!--class DocumentationController--><g class="entity" data-entity="DocumentationController" data-source-line="11" data-uid="ent0005" id="entity_DocumentationController"><rect fill="#F1F1F1" height="48" rx="2.5" ry="2.5" style="stroke:#181818;stroke-width:0.5;" width="209.0986" x="1003.5" y="79.2969"/><ellipse cx="1018.5" cy="95.2969" fill="#ADD1B2" rx="11" ry="11" style="stroke:#181818;stroke-width:1;"/><path d="M1021.4688,100.9375 Q1020.8906,101.2344 1020.25,101.375 Q1019.6094,101.5313 1018.9063,101.5313 Q1016.4063,101.5313 1015.0781,99.8906 Q1013.7656,98.2344 1013.7656,95.1094 Q1013.7656,91.9844 1015.0781,90.3281 Q1016.4063,88.6719 1018.9063,88.6719 Q1019.6094,88.6719 1020.25,88.8281 Q1020.9063,88.9844 1021.4688,89.2813 L1021.4688,92 Q1020.8438,91.4219 1020.25,91.1563 Q1019.6563,90.875 1019.0313,90.875 Q1017.6875,90.875 1017,91.9531 Q1016.3125,93.0156 1016.3125,95.1094 Q1016.3125,97.2031 1017,98.2813 Q1017.6875,99.3438 1019.0313,99.3438 Q1019.6563,99.3438 1020.25,99.0781 Q1020.8438,98.7969 1021.4688,98.2188 L1021.4688,100.9375 Z " fill="#000000"/><text fill="#000000" font-family="sans-serif" font-size="14" lengthAdjust="spacing" textLength="177.0986" x="1032.5" y="100.1436">DocumentationController</text><line style="stroke:#181818;stroke-width:0.5;" x1="1004.5" x2="1211.5986" y1="111.2969" y2="111.2969"/><line style="stroke:#181818;stroke-width:0.5;" x1="1004.5" x2="1211.5986" y1="119.2969" y2="119.2969"/></g><!--class UseCaseController--><g class="entity" data-entity="UseCaseController" data-source-line="12" data-uid="ent0006" id="entity_UseCaseController"><rect fill="#F1F1F1" height="48" rx="2.5" ry="2.5" style="stroke:#181818;stroke-width:0.5;" width="161.5889" x="806" y="79.2969"/><ellipse cx="821" cy="95.2969" fill="#ADD1B2" rx="11" ry="11" style="stroke:#181818;stroke-width:1;"/><path d="M823.9688,100.9375 Q823.3906,101.2344 822.75,101.375 Q822.1094,101.5313 821.4063,101.5313 Q818.9063,101.5313 817.5781,99.8906 Q816.2656,98.2344 816.2656,95.1094 Q816.2656,91.9844 817.5781,90.3281 Q818.9063,88.6719 821.4063,88.6719 Q822.1094,88.6719 822.75,88.8281 Q823.4063,88.9844 823.9688,89.2813 L823.9688,92 Q823.3438,91.4219 822.75,91.1563 Q822.1563,90.875 821.5313,90.875 Q820.1875,90.875 819.5,91.9531 Q818.8125,93.0156 818.8125,95.1094 Q818.8125,97.2031 819.5,98.2813 Q820.1875,99.3438 821.5313,99.3438 Q822.1563,99.3438 822.75,99.0781 Q823.3438,98.7969 823.9688,98.2188 L823.9688,100.9375 Z " fill="#000000"/><text fill="#000000" font-family="sans-serif" font-size="14" lengthAdjust="spacing" textLength="129.5889" x="835" y="100.1436">UseCaseController</text><line style="stroke:#181818;stroke-width:0.5;" x1="807" x2="966.5889" y1="111.2969" y2="111.2969"/><line style="stroke:#181818;stroke-width:0.5;" x1="807" x2="966.5889" y1="119.2969" y2="119.2969"/></g><!--class RequirementController--><g class="entity" data-entity="RequirementController" data-source-line="13" data-uid="ent0007" id="entity_RequirementController"><rect fill="#F1F1F1" height="48" rx="2.5" ry="2.5" style="stroke:#181818;stroke-width:0.5;" width="192.1455" x="388" y="79.2969"/><ellipse cx="403" cy="95.2969" fill="#ADD1B2" rx="11" ry="11" style="stroke:#181818;stroke-width:1;"/><path d="M405.9688,100.9375 Q405.3906,101.2344 404.75,101.375 Q404.1094,101.5313 403.4063,101.5313 Q400.9063,101.5313 399.5781,99.8906 Q398.2656,98.2344 398.2656,95.1094 Q398.2656,91.9844 399.5781,90.3281 Q400.9063,88.6719 403.4063,88.6719 Q404.1094,88.6719 404.75,88.8281 Q405.4063,88.9844 405.9688,89.2813 L405.9688,92 Q405.3438,91.4219 404.75,91.1563 Q404.1563,90.875 403.5313,90.875 Q402.1875,90.875 401.5,91.9531 Q400.8125,93.0156 400.8125,95.1094 Q400.8125,97.2031 401.5,98.2813 Q402.1875,99.3438 403.5313,99.3438 Q404.1563,99.3438 404.75,99.0781 Q405.3438,98.7969 405.9688,98.2188 L405.9688,100.9375 Z " fill="#000000"/><text fill="#000000" font-family="sans-serif" font-size="14" lengthAdjust="spacing" textLength="160.1455" x="417" y="100.1436">RequirementController</text><line style="stroke:#181818;stroke-width:0.5;" x1="389" x2="579.1455" y1="111.2969" y2="111.2969"/><line style="stroke:#181818;stroke-width:0.5;" x1="389" x2="579.1455" y1="119.2969" y2="119.2969"/></g><!--class GherkinController--><g class="entity" data-entity="GherkinController" data-source-line="14" data-uid="ent0008" id="entity_GherkinController"><rect fill="#F1F1F1" height="48" rx="2.5" ry="2.5" style="stroke:#181818;stroke-width:0.5;" width="156.1338" x="197" y="79.2969"/><ellipse cx="212" cy="95.2969" fill="#ADD1B2" rx="11" ry="11" style="stroke:#181818;stroke-width:1;"/><path d="M214.9688,100.9375 Q214.3906,101.2344 213.75,101.375 Q213.1094,101.5313 212.4063,101.5313 Q209.9063,101.5313 208.5781,99.8906 Q207.2656,98.2344 207.2656,95.1094 Q207.2656,91.9844 208.5781,90.3281 Q209.9063,88.6719 212.4063,88.6719 Q213.1094,88.6719 213.75,88.8281 Q214.4063,88.9844 214.9688,89.2813 L214.9688,92 Q214.3438,91.4219 213.75,91.1563 Q213.1563,90.875 212.5313,90.875 Q211.1875,90.875 210.5,91.9531 Q209.8125,93.0156 209.8125,95.1094 Q209.8125,97.2031 210.5,98.2813 Q211.1875,99.3438 212.5313,99.3438 Q213.1563,99.3438 213.75,99.0781 Q214.3438,98.7969 214.9688,98.2188 L214.9688,100.9375 Z " fill="#000000"/><text fill="#000000" font-family="sans-serif" font-size="14" lengthAdjust="spacing" textLength="124.1338" x="226" y="100.1436">GherkinController</text><line style="stroke:#181818;stroke-width:0.5;" x1="198" x2="352.1338" y1="111.2969" y2="111.2969"/><line style="stroke:#181818;stroke-width:0.5;" x1="198" x2="352.1338" y1="119.2969" y2="119.2969"/></g><!--class DraftController--><g class="entity" data-entity="DraftController" data-source-line="15" data-uid="ent0009" id="entity_DraftController"><rect fill="#F1F1F1" height="48" rx="2.5" ry="2.5" style="stroke:#181818;stroke-width:0.5;" width="136.7061" x="24.5" y="79.2969"/><ellipse cx="39.5" cy="95.2969" fill="#ADD1B2" rx="11" ry="11" style="stroke:#181818;stroke-width:1;"/><path d="M42.4688,100.9375 Q41.8906,101.2344 41.25,101.375 Q40.6094,101.5313 39.9063,101.5313 Q37.4063,101.5313 36.0781,99.8906 Q34.7656,98.2344 34.7656,95.1094 Q34.7656,91.9844 36.0781,90.3281 Q37.4063,88.6719 39.9063,88.6719 Q40.6094,88.6719 41.25,88.8281 Q41.9063,88.9844 42.4688,89.2813 L42.4688,92 Q41.8438,91.4219 41.25,91.1563 Q40.6563,90.875 40.0313,90.875 Q38.6875,90.875 38,91.9531 Q37.3125,93.0156 37.3125,95.1094 Q37.3125,97.2031 38,98.2813 Q38.6875,99.3438 40.0313,99.3438 Q40.6563,99.3438 41.25,99.0781 Q41.8438,98.7969 42.4688,98.2188 L42.4688,100.9375 Z " fill="#000000"/><text fill="#000000" font-family="sans-serif" font-size="14" lengthAdjust="spacing" textLength="104.7061" x="53.5" y="100.1436">DraftController</text><line style="stroke:#181818;stroke-width:0.5;" x1="25.5" x2="160.2061" y1="111.2969" y2="111.2969"/><line style="stroke:#181818;stroke-width:0.5;" x1="25.5" x2="160.2061" y1="119.2969" y2="119.2969"/></g><!--class AuthService--><g class="entity" data-entity="AuthService" data-source-line="20" data-uid="ent0011" id="entity_AuthService"><rect fill="#F1F1F1" height="48" rx="2.5" ry="2.5" style="stroke:#181818;stroke-width:0.5;" width="116.5537" x="1179.5" y="202.2969"/><ellipse cx="1194.5" cy="218.2969" fill="#ADD1B2" rx="11" ry="11" style="stroke:#181818;stroke-width:1;"/><path d="M1197.4688,223.9375 Q1196.8906,224.2344 1196.25,224.375 Q1195.6094,224.5313 1194.9063,224.5313 Q1192.4063,224.5313 1191.0781,222.8906 Q1189.7656,221.2344 1189.7656,218.1094 Q1189.7656,214.9844 1191.0781,213.3281 Q1192.4063,211.6719 1194.9063,211.6719 Q1195.6094,211.6719 1196.25,211.8281 Q1196.9063,211.9844 1197.4688,212.2813 L1197.4688,215 Q1196.8438,214.4219 1196.25,214.1563 Q1195.6563,213.875 1195.0313,213.875 Q1193.6875,213.875 1193,214.9531 Q1192.3125,216.0156 1192.3125,218.1094 Q1192.3125,220.2031 1193,221.2813 Q1193.6875,222.3438 1195.0313,222.3438 Q1195.6563,222.3438 1196.25,222.0781 Q1196.8438,221.7969 1197.4688,221.2188 L1197.4688,223.9375 Z " fill="#000000"/><text fill="#000000" font-family="sans-serif" font-size="14" lengthAdjust="spacing" textLength="84.5537" x="1208.5" y="223.1436">AuthService</text><line style="stroke:#181818;stroke-width:0.5;" x1="1180.5" x2="1295.0537" y1="234.2969" y2="234.2969"/><line style="stroke:#181818;stroke-width:0.5;" x1="1180.5" x2="1295.0537" y1="242.2969" y2="242.2969"/></g><!--class SessionService--><g class="entity" data-entity="SessionService" data-source-line="21" data-uid="ent0012" id="entity_SessionService"><rect fill="#F1F1F1" height="48" rx="2.5" ry="2.5" style="stroke:#181818;stroke-width:0.5;" width="137.1572" x="597.5" y="202.2969"/><ellipse cx="612.5" cy="218.2969" fill="#ADD1B2" rx="11" ry="11" style="stroke:#181818;stroke-width:1;"/><path d="M615.4688,223.9375 Q614.8906,224.2344 614.25,224.375 Q613.6094,224.5313 612.9063,224.5313 Q610.4063,224.5313 609.0781,222.8906 Q607.7656,221.2344 607.7656,218.1094 Q607.7656,214.9844 609.0781,213.3281 Q610.4063,211.6719 612.9063,211.6719 Q613.6094,211.6719 614.25,211.8281 Q614.9063,211.9844 615.4688,212.2813 L615.4688,215 Q614.8438,214.4219 614.25,214.1563 Q613.6563,213.875 613.0313,213.875 Q611.6875,213.875 611,214.9531 Q610.3125,216.0156 610.3125,218.1094 Q610.3125,220.2031 611,221.2813 Q611.6875,222.3438 613.0313,222.3438 Q613.6563,222.3438 614.25,222.0781 Q614.8438,221.7969 615.4688,221.2188 L615.4688,223.9375 Z " fill="#000000"/><text fill="#000000" font-family="sans-serif" font-size="14" lengthAdjust="spacing" textLength="105.1572" x="626.5" y="223.1436">SessionService</text><line style="stroke:#181818;stroke-width:0.5;" x1="598.5" x2="733.6572" y1="234.2969" y2="234.2969"/><line style="stroke:#181818;stroke-width:0.5;" x1="598.5" x2="733.6572" y1="242.2969" y2="242.2969"/></g><!--class DocumentationService--><g class="entity" data-entity="DocumentationService" data-source-line="22" data-uid="ent0013" id="entity_DocumentationService"><rect fill="#F1F1F1" height="48" rx="2.5" ry="2.5" style="stroke:#181818;stroke-width:0.5;" width="191.667" x="952" y="202.2969"/><ellipse cx="967" cy="218.2969" fill="#ADD1B2" rx="11" ry="11" style="stroke:#181818;stroke-width:1;"/><path d="M969.9688,223.9375 Q969.3906,224.2344 968.75,224.375 Q968.1094,224.5313 967.4063,224.5313 Q964.9063,224.5313 963.5781,222.8906 Q962.2656,221.2344 962.2656,218.1094 Q962.2656,214.9844 963.5781,213.3281 Q964.9063,211.6719 967.4063,211.6719 Q968.1094,211.6719 968.75,211.8281 Q969.4063,211.9844 969.9688,212.2813 L969.9688,215 Q969.3438,214.4219 968.75,214.1563 Q968.1563,213.875 967.5313,213.875 Q966.1875,213.875 965.5,214.9531 Q964.8125,216.0156 964.8125,218.1094 Q964.8125,220.2031 965.5,221.2813 Q966.1875,222.3438 967.5313,222.3438 Q968.1563,222.3438 968.75,222.0781 Q969.3438,221.7969 969.9688,221.2188 L969.9688,223.9375 Z " fill="#000000"/><text fill="#000000" font-family="sans-serif" font-size="14" lengthAdjust="spacing" textLength="159.667" x="981" y="223.1436">DocumentationService</text><line style="stroke:#181818;stroke-width:0.5;" x1="953" x2="1142.667" y1="234.2969" y2="234.2969"/><line style="stroke:#181818;stroke-width:0.5;" x1="953" x2="1142.667" y1="242.2969" y2="242.2969"/></g><!--class GherkinService--><g class="entity" data-entity="GherkinService" data-source-line="23" data-uid="ent0014" id="entity_GherkinService"><rect fill="#F1F1F1" height="48" rx="2.5" ry="2.5" style="stroke:#181818;stroke-width:0.5;" width="138.7021" x="221.5" y="202.2969"/><ellipse cx="236.5" cy="218.2969" fill="#ADD1B2" rx="11" ry="11" style="stroke:#181818;stroke-width:1;"/><path d="M239.4688,223.9375 Q238.8906,224.2344 238.25,224.375 Q237.6094,224.5313 236.9063,224.5313 Q234.4063,224.5313 233.0781,222.8906 Q231.7656,221.2344 231.7656,218.1094 Q231.7656,214.9844 233.0781,213.3281 Q234.4063,211.6719 236.9063,211.6719 Q237.6094,211.6719 238.25,211.8281 Q238.9063,211.9844 239.4688,212.2813 L239.4688,215 Q238.8438,214.4219 238.25,214.1563 Q237.6563,213.875 237.0313,213.875 Q235.6875,213.875 235,214.9531 Q234.3125,216.0156 234.3125,218.1094 Q234.3125,220.2031 235,221.2813 Q235.6875,222.3438 237.0313,222.3438 Q237.6563,222.3438 238.25,222.0781 Q238.8438,221.7969 239.4688,221.2188 L239.4688,223.9375 Z " fill="#000000"/><text fill="#000000" font-family="sans-serif" font-size="14" lengthAdjust="spacing" textLength="106.7021" x="250.5" y="223.1436">GherkinService</text><line style="stroke:#181818;stroke-width:0.5;" x1="222.5" x2="359.2021" y1="234.2969" y2="234.2969"/><line style="stroke:#181818;stroke-width:0.5;" x1="222.5" x2="359.2021" y1="242.2969" y2="242.2969"/></g><!--class IdentifierService--><g class="entity" data-entity="IdentifierService" data-source-line="24" data-uid="ent0015" id="entity_IdentifierService"><rect fill="#F1F1F1" height="48" rx="2.5" ry="2.5" style="stroke:#181818;stroke-width:0.5;" width="146.8096" x="769.5" y="202.2969"/><ellipse cx="784.5" cy="218.2969" fill="#ADD1B2" rx="11" ry="11" style="stroke:#181818;stroke-width:1;"/><path d="M787.4688,223.9375 Q786.8906,224.2344 786.25,224.375 Q785.6094,224.5313 784.9063,224.5313 Q782.4063,224.5313 781.0781,222.8906 Q779.7656,221.2344 779.7656,218.1094 Q779.7656,214.9844 781.0781,213.3281 Q782.4063,211.6719 784.9063,211.6719 Q785.6094,211.6719 786.25,211.8281 Q786.9063,211.9844 787.4688,212.2813 L787.4688,215 Q786.8438,214.4219 786.25,214.1563 Q785.6563,213.875 785.0313,213.875 Q783.6875,213.875 783,214.9531 Q782.3125,216.0156 782.3125,218.1094 Q782.3125,220.2031 783,221.2813 Q783.6875,222.3438 785.0313,222.3438 Q785.6563,222.3438 786.25,222.0781 Q786.8438,221.7969 787.4688,221.2188 L787.4688,223.9375 Z " fill="#000000"/><text fill="#000000" font-family="sans-serif" font-size="14" lengthAdjust="spacing" textLength="114.8096" x="798.5" y="223.1436">IdentifierService</text><line style="stroke:#181818;stroke-width:0.5;" x1="770.5" x2="915.3096" y1="234.2969" y2="234.2969"/><line style="stroke:#181818;stroke-width:0.5;" x1="770.5" x2="915.3096" y1="242.2969" y2="242.2969"/></g><!--class TraceabilityService--><g class="entity" data-entity="TraceabilityService" data-source-line="25" data-uid="ent0016" id="entity_TraceabilityService"><rect fill="#F1F1F1" height="48" rx="2.5" ry="2.5" style="stroke:#181818;stroke-width:0.5;" width="165.8477" x="396" y="202.2969"/><ellipse cx="411" cy="218.2969" fill="#ADD1B2" rx="11" ry="11" style="stroke:#181818;stroke-width:1;"/><path d="M413.9688,223.9375 Q413.3906,224.2344 412.75,224.375 Q412.1094,224.5313 411.4063,224.5313 Q408.9063,224.5313 407.5781,222.8906 Q406.2656,221.2344 406.2656,218.1094 Q406.2656,214.9844 407.5781,213.3281 Q408.9063,211.6719 411.4063,211.6719 Q412.1094,211.6719 412.75,211.8281 Q413.4063,211.9844 413.9688,212.2813 L413.9688,215 Q413.3438,214.4219 412.75,214.1563 Q412.1563,213.875 411.5313,213.875 Q410.1875,213.875 409.5,214.9531 Q408.8125,216.0156 408.8125,218.1094 Q408.8125,220.2031 409.5,221.2813 Q410.1875,222.3438 411.5313,222.3438 Q412.1563,222.3438 412.75,222.0781 Q413.3438,221.7969 413.9688,221.2188 L413.9688,223.9375 Z " fill="#000000"/><text fill="#000000" font-family="sans-serif" font-size="14" lengthAdjust="spacing" textLength="133.8477" x="425" y="223.1436">TraceabilityService</text><line style="stroke:#181818;stroke-width:0.5;" x1="397" x2="560.8477" y1="234.2969" y2="234.2969"/><line style="stroke:#181818;stroke-width:0.5;" x1="397" x2="560.8477" y1="242.2969" y2="242.2969"/></g><!--class ManualKiwiService--><g class="entity" data-entity="ManualKiwiService" data-source-line="26" data-uid="ent0017" id="entity_ManualKiwiService"><rect fill="#F1F1F1" height="48" rx="2.5" ry="2.5" style="stroke:#181818;stroke-width:0.5;" width="163.0244" x="23.5" y="202.2969"/><ellipse cx="38.5" cy="218.2969" fill="#ADD1B2" rx="11" ry="11" style="stroke:#181818;stroke-width:1;"/><path d="M41.4688,223.9375 Q40.8906,224.2344 40.25,224.375 Q39.6094,224.5313 38.9063,224.5313 Q36.4063,224.5313 35.0781,222.8906 Q33.7656,221.2344 33.7656,218.1094 Q33.7656,214.9844 35.0781,213.3281 Q36.4063,211.6719 38.9063,211.6719 Q39.6094,211.6719 40.25,211.8281 Q40.9063,211.9844 41.4688,212.2813 L41.4688,215 Q40.8438,214.4219 40.25,214.1563 Q39.6563,213.875 39.0313,213.875 Q37.6875,213.875 37,214.9531 Q36.3125,216.0156 36.3125,218.1094 Q36.3125,220.2031 37,221.2813 Q37.6875,222.3438 39.0313,222.3438 Q39.6563,222.3438 40.25,222.0781 Q40.8438,221.7969 41.4688,221.2188 L41.4688,223.9375 Z " fill="#000000"/><text fill="#000000" font-family="sans-serif" font-size="14" lengthAdjust="spacing" textLength="131.0244" x="52.5" y="223.1436">ManualKiwiService</text><line style="stroke:#181818;stroke-width:0.5;" x1="24.5" x2="185.5244" y1="234.2969" y2="234.2969"/><line style="stroke:#181818;stroke-width:0.5;" x1="24.5" x2="185.5244" y1="242.2969" y2="242.2969"/></g><!--link AuthController to AuthService--><g class="link" data-entity-1="AuthController" data-entity-2="AuthService" data-source-line="29" data-uid="lnk18" id="link_AuthController_AuthService"><path codeLine="29" d="M1300.34,127.3369 C1286.72,148.7369 1269.7709,175.3647 1256.0909,196.8647" fill="none" id="AuthController-to-AuthService" style="stroke:#181818;stroke-width:1;"/><polygon fill="#181818" points="1252.87,201.9269,1261.0762,196.4809,1255.5541,197.7084,1254.3266,192.1863,1252.87,201.9269" style="stroke:#181818;stroke-width:1;"/></g><!--link SessionController to SessionService--><g class="link" data-entity-1="SessionController" data-entity-2="SessionService" data-source-line="31" data-uid="lnk19" id="link_SessionController_SessionService"><path codeLine="31" d="M687.86,127.3369 C683.08,148.7369 677.3173,174.571 672.5173,196.071" fill="none" id="SessionController-to-SessionService" style="stroke:#181818;stroke-width:1;"/><polygon fill="#181818" points="671.21,201.9269,677.0749,194.0147,672.2995,197.047,669.2671,192.2716,671.21,201.9269" style="stroke:#181818;stroke-width:1;"/></g><!--link DocumentationController to DocumentationService--><g class="link" data-entity-1="DocumentationController" data-entity-2="DocumentationService" data-source-line="33" data-uid="lnk20" id="link_DocumentationController_DocumentationService"><path codeLine="33" d="M1096.57,127.3369 C1085.96,148.7369 1072.9153,175.0513 1062.2553,196.5513" fill="none" id="DocumentationController-to-DocumentationService" style="stroke:#181818;stroke-width:1;"/><polygon fill="#181818" points="1059.59,201.9269,1067.1716,195.6404,1061.8111,197.4473,1060.0042,192.0867,1059.59,201.9269" style="stroke:#181818;stroke-width:1;"/></g><!--link DocumentationController to SessionService--><g class="link" data-entity-1="DocumentationController" data-entity-2="SessionService" data-source-line="34" data-uid="lnk21" id="link_DocumentationController_SessionService"><path codeLine="34" d="M1059.27,127.3669 C1037.38,136.5969 1010.91,146.2269 986,151.2969 C935.02,161.6869 800.98,141.7269 752,159.2969 C727.38,168.1269 708.4961,182.7008 692.3961,197.9508" fill="none" id="DocumentationController-to-SessionService" style="stroke:#181818;stroke-width:1;"/><polygon fill="#181818" points="688.04,202.0769,697.3248,198.7918,691.6701,198.6385,691.8234,192.9837,688.04,202.0769" style="stroke:#181818;stroke-width:1;"/></g><!--link UseCaseController to SessionService--><g class="link" data-entity-1="UseCaseController" data-entity-2="SessionService" data-source-line="36" data-uid="lnk22" id="link_UseCaseController_SessionService"><path codeLine="36" d="M843.53,127.5269 C826.56,135.9069 806.71,144.8669 788,151.2969 C772.5,156.6269 766.85,152.3669 752,159.2969 C728.98,170.0369 710.813,183.8303 694.543,198.2303" fill="none" id="UseCaseController-to-SessionService" style="stroke:#181818;stroke-width:1;"/><polygon fill="#181818" points="690.05,202.2069,699.4405,199.2373,693.7941,198.8931,694.1384,193.2467,690.05,202.2069" style="stroke:#181818;stroke-width:1;"/></g><!--link UseCaseController to IdentifierService--><g class="link" data-entity-1="UseCaseController" data-entity-2="IdentifierService" data-source-line="37" data-uid="lnk23" id="link_UseCaseController_IdentifierService"><path codeLine="37" d="M878.62,127.3369 C870.84,148.7369 861.3709,174.7883 853.5509,196.2883" fill="none" id="UseCaseController-to-IdentifierService" style="stroke:#181818;stroke-width:1;"/><polygon fill="#181818" points="851.5,201.9269,858.3354,194.8362,853.2091,197.228,850.8172,192.1017,851.5,201.9269" style="stroke:#181818;stroke-width:1;"/></g><!--link RequirementController to SessionService--><g class="link" data-entity-1="RequirementController" data-entity-2="SessionService" data-source-line="39" data-uid="lnk24" id="link_RequirementController_SessionService"><path codeLine="39" d="M527.28,127.4669 C544.05,136.8569 563.21,148.1169 580,159.2969 C599.9,172.5469 616.5301,185.1446 632.9601,198.2546" fill="none" id="RequirementController-to-SessionService" style="stroke:#181818;stroke-width:1;"/><polygon fill="#181818" points="637.65,201.9969,633.1099,193.2569,633.7417,198.8783,628.1203,199.5101,637.65,201.9969" style="stroke:#181818;stroke-width:1;"/></g><!--link RequirementController to IdentifierService--><g class="link" data-entity-1="RequirementController" data-entity-2="IdentifierService" data-source-line="40" data-uid="lnk25" id="link_RequirementController_IdentifierService"><path codeLine="40" d="M529.7,127.3069 C550.09,136.4569 574.71,146.0569 598,151.2969 C631.43,158.8269 719.69,147.8769 752,159.2969 C777.58,168.3369 797.7162,183.0413 814.8862,198.2313" fill="none" id="RequirementController-to-IdentifierService" style="stroke:#181818;stroke-width:1;"/><polygon fill="#181818" points="819.38,202.2069,815.2897,193.2476,815.6351,198.8939,809.9888,199.2393,819.38,202.2069" style="stroke:#181818;stroke-width:1;"/></g><!--link RequirementController to TraceabilityService--><g class="link" data-entity-1="RequirementController" data-entity-2="TraceabilityService" data-source-line="41" data-uid="lnk26" id="link_RequirementController_TraceabilityService"><path codeLine="41" d="M483.05,127.3369 C482.16,148.7369 481.0954,174.4319 480.2154,195.9319" fill="none" id="RequirementController-to-TraceabilityService" style="stroke:#181818;stroke-width:1;"/><polygon fill="#181818" points="479.97,201.9269,484.3347,193.098,480.1745,196.9311,476.3414,192.7708,479.97,201.9269" style="stroke:#181818;stroke-width:1;"/></g><!--link GherkinController to GherkinService--><g class="link" data-entity-1="GherkinController" data-entity-2="GherkinService" data-source-line="43" data-uid="lnk27" id="link_GherkinController_GherkinService"><path codeLine="43" d="M278.05,127.3369 C280.88,148.7369 284.2843,174.4785 287.1243,195.9785" fill="none" id="GherkinController-to-GherkinService" style="stroke:#181818;stroke-width:1;"/><polygon fill="#181818" points="287.91,201.9269,290.697,192.4806,287.2552,196.9699,282.7658,193.5282,287.91,201.9269" style="stroke:#181818;stroke-width:1;"/></g><!--link GherkinController to SessionService--><g class="link" data-entity-1="GherkinController" data-entity-2="SessionService" data-source-line="44" data-uid="lnk28" id="link_GherkinController_SessionService"><path codeLine="44" d="M312.82,127.3569 C329.95,136.5869 350.85,146.2169 371,151.2969 C416.07,162.6469 536.28,143.5169 580,159.2969 C604.61,168.1769 623.4912,182.7536 639.5912,197.9836" fill="none" id="GherkinController-to-SessionService" style="stroke:#181818;stroke-width:1;"/><polygon fill="#181818" points="643.95,202.1069,640.1607,193.0162,640.3177,198.6708,634.663,198.8279,643.95,202.1069" style="stroke:#181818;stroke-width:1;"/></g><!--link GherkinController to TraceabilityService--><g class="link" data-entity-1="GherkinController" data-entity-2="TraceabilityService" data-source-line="45" data-uid="lnk29" id="link_GherkinController_TraceabilityService"><path codeLine="45" d="M320.35,127.4069 C338.48,136.9269 359.42,148.2969 378,159.2969 C400.89,172.8469 420.9496,185.8509 440.3596,198.8909" fill="none" id="GherkinController-to-TraceabilityService" style="stroke:#181818;stroke-width:1;"/><polygon fill="#181818" points="445.34,202.2369,440.1,193.8977,441.1896,199.4486,435.6387,200.5382,445.34,202.2369" style="stroke:#181818;stroke-width:1;"/></g><!--link DraftController to SessionService--><g class="link" data-entity-1="DraftController" data-entity-2="SessionService" data-source-line="47" data-uid="lnk30" id="link_DraftController_SessionService"><path codeLine="47" d="M126.97,127.5269 C142.43,136.7869 161.41,146.3969 180,151.2969 C222.99,162.6269 538.05,144.5869 580,159.2969 C604.86,168.0169 623.9101,182.7938 640.0001,198.1538" fill="none" id="DraftController-to-SessionService" style="stroke:#181818;stroke-width:1;"/><polygon fill="#181818" points="644.34,202.2969,640.5921,193.189,640.7234,198.8443,635.068,198.9756,644.34,202.2969" style="stroke:#181818;stroke-width:1;"/></g><!--link DraftController to ManualKiwiService--><g class="link" data-entity-1="DraftController" data-entity-2="ManualKiwiService" data-source-line="48" data-uid="lnk31" id="link_DraftController_ManualKiwiService"><path codeLine="48" d="M95.29,127.3369 C97.41,148.7369 99.9585,174.4561 102.0885,195.9561" fill="none" id="DraftController-to-ManualKiwiService" style="stroke:#181818;stroke-width:1;"/><polygon fill="#181818" points="102.68,201.9269,105.7732,192.5764,102.1871,196.9512,97.8122,193.3651,102.68,201.9269" style="stroke:#181818;stroke-width:1;"/></g><!--SRC=[VPBFJiCm3CRlUOfezqey0T9K93GXBXGUmClSrbgMbiHb6eXt9xIZQXEFGox-VVxpnGv7SZruEEaUp14QhFXYKNiq3AwngC8i22qSkZEvHjTWmv8O2o5icJtj1yQTwLn5dwZlb6BYMAti7FlEndIFGHSQ-bwfQp-zCHErwCD6VocbftfwEt1RpcmELnW2TKuW3vqPJkWOMEPl0Kk8BoSl-3wGnzzaWJwswADNgQE7UfdnlR0Lq7-GmTnJDO7KK1fUkKdXTQGql3l41Ae9VKfUFHY4FLdYIygUmGrWd-XCVoJwMF- -BehxrV0gMyCeIRoe6oiPjQB1_nBIuja-9PKioZzAYJSWLRmjpAlUraeBKTcbZT9asR8e6L8MYKsJ8vQgIPBiQdu0]--></g></svg>