<svg xmlns="http://www.w3.org/2000/svg" xmlns:xlink="http://www.w3.org/1999/xlink" contentStyleType="text/css" data-diagram-type="CLASS" height="647px" preserveAspectRatio="none" style="width:480px;height:647px;background:#FFFFFF;" version="1.1" viewBox="0 0 480 647" width="480px" zoomAndPan="magnify"><title>CONTROLADORES</title><defs/><g><g class="title" data-source-line="1"><text fill="#000000" font-family="sans-serif" font-size="14" font-weight="bold" lengthAdjust="spacing" textLength="139.8291" x="163.0854" y="22.9951">CONTROLADORES</text></g><!--cluster Controllers--><g class="cluster" data-entity="Controllers" data-source-line="6" data-uid="ent0002" id="cluster_Controllers"><path d="M8.5,43.2969 L96.9043,43.2969 A3.75,3.75 0 0 1 99.4043,45.7969 L106.4043,65.5938 L244.5,65.5938 A2.5,2.5 0 0 1 247,68.0938 L247,637.7969 A2.5,2.5 0 0 1 244.5,640.2969 L8.5,640.2969 A2.5,2.5 0 0 1 6,637.7969 L6,45.7969 A2.5,2.5 0 0 1 8.5,43.2969" fill="none" style="stroke:#000000;stroke-width:1.5;"/><line style="stroke:#000000;stroke-width:1.5;" x1="6" x2="106.4043" y1="65.5938" y2="65.5938"/><text fill="#000000" font-family="sans-serif" font-size="14" font-weight="bold" lengthAdjust="spacing" textLength="87.4043" x="10" y="58.292">Controllers</text></g><!--cluster Auxiliary Services--><g class="cluster" data-entity="Auxiliary Services" data-source-line="16" data-uid="ent0010" id="cluster_Auxiliary Services"><path d="M277.5,292.2969 L419.6143,292.2969 A3.75,3.75 0 0 1 422.1143,294.7969 L429.1143,314.5938 L470.5,314.5938 A2.5,2.5 0 0 1 473,317.0938 L473,637.7969 A2.5,2.5 0 0 1 470.5,640.2969 L277.5,640.2969 A2.5,2.5 0 0 1 275,637.7969 L275,294.7969 A2.5,2.5 0 0 1 277.5,292.2969" fill="none" style="stroke:#000000;stroke-width:1.5;"/><line style="stroke:#000000;stroke-width:1.5;" x1="275" x2="429.1143" y1="314.5938" y2="314.5938"/><text fill="#000000" font-family="sans-serif" font-size="14" font-weight="bold" lengthAdjust="spacing" textLength="141.1143" x="279" y="307.292">Auxiliary Services</text></g><!--class AuthController--><g class="entity" data-entity="AuthController" data-source-line="7" data-uid="ent0003" id="entity_AuthController"><rect fill="#F1F1F1" height="48" rx="2.5" ry="2.5" style="stroke:#181818;stroke-width:0.5;" width="133.9854" x="59.5" y="327.2969"/><ellipse cx="74.5" cy="343.2969" fill="#ADD1B2" rx="11" ry="11" style="stroke:#181818;stroke-width:1;"/><path d="M77.4688,348.9375 Q76.8906,349.2344 76.25,349.375 Q75.6094,349.5313 74.9063,349.5313 Q72.4063,349.5313 71.0781,347.8906 Q69.7656,346.2344 69.7656,343.1094 Q69.7656,339.9844 71.0781,338.3281 Q72.4063,336.6719 74.9063,336.6719 Q75.6094,336.6719 76.25,336.8281 Q76.9063,336.9844 77.4688,337.2813 L77.4688,340 Q76.8438,339.4219 76.25,339.1563 Q75.6563,338.875 75.0313,338.875 Q73.6875,338.875 73,339.9531 Q72.3125,341.0156 72.3125,343.1094 Q72.3125,345.2031 73,346.2813 Q73.6875,347.3438 75.0313,347.3438 Q75.6563,347.3438 76.25,347.0781 Q76.8438,346.7969 77.4688,346.2188 L77.4688,348.9375 Z " fill="#000000"/><text fill="#000000" font-family="sans-serif" font-size="14" lengthAdjust="spacing" textLength="101.9854" x="88.5" y="348.1436">AuthController</text><line style="stroke:#181818;stroke-width:0.5;" x1="60.5" x2="192.4854" y1="359.2969" y2="359.2969"/><line style="stroke:#181818;stroke-width:0.5;" x1="60.5" x2="192.4854" y1="367.2969" y2="367.2969"/></g><!--class SessionController--><g class="entity" data-entity="SessionController" data-source-line="8" data-uid="ent0004" id="entity_SessionController"><rect fill="#F1F1F1" height="48" rx="2.5" ry="2.5" style="stroke:#181818;stroke-width:0.5;" width="154.5889" x="49" y="493.2969"/><ellipse cx="64" cy="509.2969" fill="#ADD1B2" rx="11" ry="11" style="stroke:#181818;stroke-width:1;"/><path d="M66.9688,514.9375 Q66.3906,515.2344 65.75,515.375 Q65.1094,515.5313 64.4063,515.5313 Q61.9063,515.5313 60.5781,513.8906 Q59.2656,512.2344 59.2656,509.1094 Q59.2656,505.9844 60.5781,504.3281 Q61.9063,502.6719 64.4063,502.6719 Q65.1094,502.6719 65.75,502.8281 Q66.4063,502.9844 66.9688,503.2813 L66.9688,506 Q66.3438,505.4219 65.75,505.1563 Q65.1563,504.875 64.5313,504.875 Q63.1875,504.875 62.5,505.9531 Q61.8125,507.0156 61.8125,509.1094 Q61.8125,511.2031 62.5,512.2813 Q63.1875,513.3438 64.5313,513.3438 Q65.1563,513.3438 65.75,513.0781 Q66.3438,512.7969 66.9688,512.2188 L66.9688,514.9375 Z " fill="#000000"/><text fill="#000000" font-family="sans-serif" font-size="14" lengthAdjust="spacing" textLength="122.5889" x="78" y="514.1436">SessionController</text><line style="stroke:#181818;stroke-width:0.5;" x1="50" x2="202.5889" y1="525.2969" y2="525.2969"/><line style="stroke:#181818;stroke-width:0.5;" x1="50" x2="202.5889" y1="533.2969" y2="533.2969"/></g><!--class DocumentationController--><g class="entity" data-entity="DocumentationController" data-source-line="9" data-uid="ent0005" id="entity_DocumentationController"><rect fill="#F1F1F1" height="48" rx="2.5" ry="2.5" style="stroke:#181818;stroke-width:0.5;" width="209.0986" x="22" y="244.2969"/><ellipse cx="37" cy="260.2969" fill="#ADD1B2" rx="11" ry="11" style="stroke:#181818;stroke-width:1;"/><path d="M39.9688,265.9375 Q39.3906,266.2344 38.75,266.375 Q38.1094,266.5313 37.4063,266.5313 Q34.9063,266.5313 33.5781,264.8906 Q32.2656,263.2344 32.2656,260.1094 Q32.2656,256.9844 33.5781,255.3281 Q34.9063,253.6719 37.4063,253.6719 Q38.1094,253.6719 38.75,253.8281 Q39.4063,253.9844 39.9688,254.2813 L39.9688,257 Q39.3438,256.4219 38.75,256.1563 Q38.1563,255.875 37.5313,255.875 Q36.1875,255.875 35.5,256.9531 Q34.8125,258.0156 34.8125,260.1094 Q34.8125,262.2031 35.5,263.2813 Q36.1875,264.3438 37.5313,264.3438 Q38.1563,264.3438 38.75,264.0781 Q39.3438,263.7969 39.9688,263.2188 L39.9688,265.9375 Z " fill="#000000"/><text fill="#000000" font-family="sans-serif" font-size="14" lengthAdjust="spacing" textLength="177.0986" x="51" y="265.1436">DocumentationController</text><line style="stroke:#181818;stroke-width:0.5;" x1="23" x2="230.0986" y1="276.2969" y2="276.2969"/><line style="stroke:#181818;stroke-width:0.5;" x1="23" x2="230.0986" y1="284.2969" y2="284.2969"/></g><!--class UseCaseController--><g class="entity" data-entity="UseCaseController" data-source-line="10" data-uid="ent0006" id="entity_UseCaseController"><rect fill="#F1F1F1" height="48" rx="2.5" ry="2.5" style="stroke:#181818;stroke-width:0.5;" width="161.5889" x="45.5" y="78.2969"/><ellipse cx="60.5" cy="94.2969" fill="#ADD1B2" rx="11" ry="11" style="stroke:#181818;stroke-width:1;"/><path d="M63.4688,99.9375 Q62.8906,100.2344 62.25,100.375 Q61.6094,100.5313 60.9063,100.5313 Q58.4063,100.5313 57.0781,98.8906 Q55.7656,97.2344 55.7656,94.1094 Q55.7656,90.9844 57.0781,89.3281 Q58.4063,87.6719 60.9063,87.6719 Q61.6094,87.6719 62.25,87.8281 Q62.9063,87.9844 63.4688,88.2813 L63.4688,91 Q62.8438,90.4219 62.25,90.1563 Q61.6563,89.875 61.0313,89.875 Q59.6875,89.875 59,90.9531 Q58.3125,92.0156 58.3125,94.1094 Q58.3125,96.2031 59,97.2813 Q59.6875,98.3438 61.0313,98.3438 Q61.6563,98.3438 62.25,98.0781 Q62.8438,97.7969 63.4688,97.2188 L63.4688,99.9375 Z " fill="#000000"/><text fill="#000000" font-family="sans-serif" font-size="14" lengthAdjust="spacing" textLength="129.5889" x="74.5" y="99.1436">UseCaseController</text><line style="stroke:#181818;stroke-width:0.5;" x1="46.5" x2="206.0889" y1="110.2969" y2="110.2969"/><line style="stroke:#181818;stroke-width:0.5;" x1="46.5" x2="206.0889" y1="118.2969" y2="118.2969"/></g><!--class RequirementController--><g class="entity" data-entity="RequirementController" data-source-line="11" data-uid="ent0007" id="entity_RequirementController"><rect fill="#F1F1F1" height="48" rx="2.5" ry="2.5" style="stroke:#181818;stroke-width:0.5;" width="192.1455" x="30.5" y="161.2969"/><ellipse cx="45.5" cy="177.2969" fill="#ADD1B2" rx="11" ry="11" style="stroke:#181818;stroke-width:1;"/><path d="M48.4688,182.9375 Q47.8906,183.2344 47.25,183.375 Q46.6094,183.5313 45.9063,183.5313 Q43.4063,183.5313 42.0781,181.8906 Q40.7656,180.2344 40.7656,177.1094 Q40.7656,173.9844 42.0781,172.3281 Q43.4063,170.6719 45.9063,170.6719 Q46.6094,170.6719 47.25,170.8281 Q47.9063,170.9844 48.4688,171.2813 L48.4688,174 Q47.8438,173.4219 47.25,173.1563 Q46.6563,172.875 46.0313,172.875 Q44.6875,172.875 44,173.9531 Q43.3125,175.0156 43.3125,177.1094 Q43.3125,179.2031 44,180.2813 Q44.6875,181.3438 46.0313,181.3438 Q46.6563,181.3438 47.25,181.0781 Q47.8438,180.7969 48.4688,180.2188 L48.4688,182.9375 Z " fill="#000000"/><text fill="#000000" font-family="sans-serif" font-size="14" lengthAdjust="spacing" textLength="160.1455" x="59.5" y="182.1436">RequirementController</text><line style="stroke:#181818;stroke-width:0.5;" x1="31.5" x2="221.6455" y1="193.2969" y2="193.2969"/><line style="stroke:#181818;stroke-width:0.5;" x1="31.5" x2="221.6455" y1="201.2969" y2="201.2969"/></g><!--class GherkinController--><g class="entity" data-entity="GherkinController" data-source-line="12" data-uid="ent0008" id="entity_GherkinController"><rect fill="#F1F1F1" height="48" rx="2.5" ry="2.5" style="stroke:#181818;stroke-width:0.5;" width="156.1338" x="48.5" y="410.2969"/><ellipse cx="63.5" cy="426.2969" fill="#ADD1B2" rx="11" ry="11" style="stroke:#181818;stroke-width:1;"/><path d="M66.4688,431.9375 Q65.8906,432.2344 65.25,432.375 Q64.6094,432.5313 63.9063,432.5313 Q61.4063,432.5313 60.0781,430.8906 Q58.7656,429.2344 58.7656,426.1094 Q58.7656,422.9844 60.0781,421.3281 Q61.4063,419.6719 63.9063,419.6719 Q64.6094,419.6719 65.25,419.8281 Q65.9063,419.9844 66.4688,420.2813 L66.4688,423 Q65.8438,422.4219 65.25,422.1563 Q64.6563,421.875 64.0313,421.875 Q62.6875,421.875 62,422.9531 Q61.3125,424.0156 61.3125,426.1094 Q61.3125,428.2031 62,429.2813 Q62.6875,430.3438 64.0313,430.3438 Q64.6563,430.3438 65.25,430.0781 Q65.8438,429.7969 66.4688,429.2188 L66.4688,431.9375 Z " fill="#000000"/><text fill="#000000" font-family="sans-serif" font-size="14" lengthAdjust="spacing" textLength="124.1338" x="77.5" y="431.1436">GherkinController</text><line style="stroke:#181818;stroke-width:0.5;" x1="49.5" x2="203.6338" y1="442.2969" y2="442.2969"/><line style="stroke:#181818;stroke-width:0.5;" x1="49.5" x2="203.6338" y1="450.2969" y2="450.2969"/></g><!--class DraftController--><g class="entity" data-entity="DraftController" data-source-line="13" data-uid="ent0009" id="entity_DraftController"><rect fill="#F1F1F1" height="48" rx="2.5" ry="2.5" style="stroke:#181818;stroke-width:0.5;" width="136.7061" x="58" y="576.2969"/><ellipse cx="73" cy="592.2969" fill="#ADD1B2" rx="11" ry="11" style="stroke:#181818;stroke-width:1;"/><path d="M75.9688,597.9375 Q75.3906,598.2344 74.75,598.375 Q74.1094,598.5313 73.4063,598.5313 Q70.9063,598.5313 69.5781,596.8906 Q68.2656,595.2344 68.2656,592.1094 Q68.2656,588.9844 69.5781,587.3281 Q70.9063,585.6719 73.4063,585.6719 Q74.1094,585.6719 74.75,585.8281 Q75.4063,585.9844 75.9688,586.2813 L75.9688,589 Q75.3438,588.4219 74.75,588.1563 Q74.1563,587.875 73.5313,587.875 Q72.1875,587.875 71.5,588.9531 Q70.8125,590.0156 70.8125,592.1094 Q70.8125,594.2031 71.5,595.2813 Q72.1875,596.3438 73.5313,596.3438 Q74.1563,596.3438 74.75,596.0781 Q75.3438,595.7969 75.9688,595.2188 L75.9688,597.9375 Z " fill="#000000"/><text fill="#000000" font-family="sans-serif" font-size="14" lengthAdjust="spacing" textLength="104.7061" x="87" y="597.1436">DraftController</text><line style="stroke:#181818;stroke-width:0.5;" x1="59" x2="193.7061" y1="608.2969" y2="608.2969"/><line style="stroke:#181818;stroke-width:0.5;" x1="59" x2="193.7061" y1="616.2969" y2="616.2969"/></g><!--class SessionService--><g class="entity" data-entity="SessionService" data-source-line="17" data-uid="ent0011" id="entity_SessionService"><rect fill="#F1F1F1" height="48" rx="2.5" ry="2.5" style="stroke:#181818;stroke-width:0.5;" width="137.1572" x="305.5" y="410.2969"/><ellipse cx="320.5" cy="426.2969" fill="#ADD1B2" rx="11" ry="11" style="stroke:#181818;stroke-width:1;"/><path d="M323.4688,431.9375 Q322.8906,432.2344 322.25,432.375 Q321.6094,432.5313 320.9063,432.5313 Q318.4063,432.5313 317.0781,430.8906 Q315.7656,429.2344 315.7656,426.1094 Q315.7656,422.9844 317.0781,421.3281 Q318.4063,419.6719 320.9063,419.6719 Q321.6094,419.6719 322.25,419.8281 Q322.9063,419.9844 323.4688,420.2813 L323.4688,423 Q322.8438,422.4219 322.25,422.1563 Q321.6563,421.875 321.0313,421.875 Q319.6875,421.875 319,422.9531 Q318.3125,424.0156 318.3125,426.1094 Q318.3125,428.2031 319,429.2813 Q319.6875,430.3438 321.0313,430.3438 Q321.6563,430.3438 322.25,430.0781 Q322.8438,429.7969 323.4688,429.2188 L323.4688,431.9375 Z " fill="#000000"/><text fill="#000000" font-family="sans-serif" font-size="14" lengthAdjust="spacing" textLength="105.1572" x="334.5" y="431.1436">SessionService</text><line style="stroke:#181818;stroke-width:0.5;" x1="306.5" x2="441.6572" y1="442.2969" y2="442.2969"/><line style="stroke:#181818;stroke-width:0.5;" x1="306.5" x2="441.6572" y1="450.2969" y2="450.2969"/></g><!--class IdentifierService--><g class="entity" data-entity="IdentifierService" data-source-line="18" data-uid="ent0012" id="entity_IdentifierService"><rect fill="#F1F1F1" height="48" rx="2.5" ry="2.5" style="stroke:#181818;stroke-width:0.5;" width="146.8096" x="300.5" y="327.2969"/><ellipse cx="315.5" cy="343.2969" fill="#ADD1B2" rx="11" ry="11" style="stroke:#181818;stroke-width:1;"/><path d="M318.4688,348.9375 Q317.8906,349.2344 317.25,349.375 Q316.6094,349.5313 315.9063,349.5313 Q313.4063,349.5313 312.0781,347.8906 Q310.7656,346.2344 310.7656,343.1094 Q310.7656,339.9844 312.0781,338.3281 Q313.4063,336.6719 315.9063,336.6719 Q316.6094,336.6719 317.25,336.8281 Q317.9063,336.9844 318.4688,337.2813 L318.4688,340 Q317.8438,339.4219 317.25,339.1563 Q316.6563,338.875 316.0313,338.875 Q314.6875,338.875 314,339.9531 Q313.3125,341.0156 313.3125,343.1094 Q313.3125,345.2031 314,346.2813 Q314.6875,347.3438 316.0313,347.3438 Q316.6563,347.3438 317.25,347.0781 Q317.8438,346.7969 318.4688,346.2188 L318.4688,348.9375 Z " fill="#000000"/><text fill="#000000" font-family="sans-serif" font-size="14" lengthAdjust="spacing" textLength="114.8096" x="329.5" y="348.1436">IdentifierService</text><line style="stroke:#181818;stroke-width:0.5;" x1="301.5" x2="446.3096" y1="359.2969" y2="359.2969"/><line style="stroke:#181818;stroke-width:0.5;" x1="301.5" x2="446.3096" y1="367.2969" y2="367.2969"/></g><!--class TraceabilityService--><g class="entity" data-entity="TraceabilityService" data-source-line="19" data-uid="ent0013" id="entity_TraceabilityService"><rect fill="#F1F1F1" height="48" rx="2.5" ry="2.5" style="stroke:#181818;stroke-width:0.5;" width="165.8477" x="291" y="493.2969"/><ellipse cx="306" cy="509.2969" fill="#ADD1B2" rx="11" ry="11" style="stroke:#181818;stroke-width:1;"/><path d="M308.9688,514.9375 Q308.3906,515.2344 307.75,515.375 Q307.1094,515.5313 306.4063,515.5313 Q303.9063,515.5313 302.5781,513.8906 Q301.2656,512.2344 301.2656,509.1094 Q301.2656,505.9844 302.5781,504.3281 Q303.9063,502.6719 306.4063,502.6719 Q307.1094,502.6719 307.75,502.8281 Q308.4063,502.9844 308.9688,503.2813 L308.9688,506 Q308.3438,505.4219 307.75,505.1563 Q307.1563,504.875 306.5313,504.875 Q305.1875,504.875 304.5,505.9531 Q303.8125,507.0156 303.8125,509.1094 Q303.8125,511.2031 304.5,512.2813 Q305.1875,513.3438 306.5313,513.3438 Q307.1563,513.3438 307.75,513.0781 Q308.3438,512.7969 308.9688,512.2188 L308.9688,514.9375 Z " fill="#000000"/><text fill="#000000" font-family="sans-serif" font-size="14" lengthAdjust="spacing" textLength="133.8477" x="320" y="514.1436">TraceabilityService</text><line style="stroke:#181818;stroke-width:0.5;" x1="292" x2="455.8477" y1="525.2969" y2="525.2969"/><line style="stroke:#181818;stroke-width:0.5;" x1="292" x2="455.8477" y1="533.2969" y2="533.2969"/></g><!--class ManualKiwiService--><g class="entity" data-entity="ManualKiwiService" data-source-line="20" data-uid="ent0014" id="entity_ManualKiwiService"><rect fill="#F1F1F1" height="48" rx="2.5" ry="2.5" style="stroke:#181818;stroke-width:0.5;" width="163.0244" x="292.5" y="576.2969"/><ellipse cx="307.5" cy="592.2969" fill="#ADD1B2" rx="11" ry="11" style="stroke:#181818;stroke-width:1;"/><path d="M310.4688,597.9375 Q309.8906,598.2344 309.25,598.375 Q308.6094,598.5313 307.9063,598.5313 Q305.4063,598.5313 304.0781,596.8906 Q302.7656,595.2344 302.7656,592.1094 Q302.7656,588.9844 304.0781,587.3281 Q305.4063,585.6719 307.9063,585.6719 Q308.6094,585.6719 309.25,585.8281 Q309.9063,585.9844 310.4688,586.2813 L310.4688,589 Q309.8438,588.4219 309.25,588.1563 Q308.6563,587.875 308.0313,587.875 Q306.6875,587.875 306,588.9531 Q305.3125,590.0156 305.3125,592.1094 Q305.3125,594.2031 306,595.2813 Q306.6875,596.3438 308.0313,596.3438 Q308.6563,596.3438 309.25,596.0781 Q309.8438,595.7969 310.4688,595.2188 L310.4688,597.9375 Z " fill="#000000"/><text fill="#000000" font-family="sans-serif" font-size="14" lengthAdjust="spacing" textLength="131.0244" x="321.5" y="597.1436">ManualKiwiService</text><line style="stroke:#181818;stroke-width:0.5;" x1="293.5" x2="454.5244" y1="608.2969" y2="608.2969"/><line style="stroke:#181818;stroke-width:0.5;" x1="293.5" x2="454.5244" y1="616.2969" y2="616.2969"/></g><!--link AuthController to SessionService--><g class="link" data-entity-1="AuthController" data-entity-2="SessionService" data-source-line="23" data-uid="lnk15" id="link_AuthController_SessionService"><path codeLine="23" d="M193.8,372.1869 C213.54,378.5269 235.18,385.5869 255,392.2969 C271.79,397.9769 284.1856,402.2999 301.0056,408.2699" fill="none" id="AuthController-to-SessionService" style="stroke:#181818;stroke-width:1;"/><polygon fill="#181818" points="306.66,410.2769,299.5164,403.4969,301.948,408.6044,296.8404,411.0361,306.66,410.2769" style="stroke:#181818;stroke-width:1;"/></g><!--link SessionController to SessionService--><g class="link" data-entity-1="SessionController" data-entity-2="SessionService" data-source-line="24" data-uid="lnk16" id="link_SessionController_SessionService"><path codeLine="24" d="M201.06,493.2869 C218.74,487.4569 237.56,481.1969 255,475.2969 C271.33,469.7669 283.2325,465.6964 299.6925,459.9764" fill="none" id="SessionController-to-SessionService" style="stroke:#181818;stroke-width:1;"/><polygon fill="#181818" points="305.36,458.0069,295.5457,457.1828,300.6371,459.6481,298.1717,464.7395,305.36,458.0069" style="stroke:#181818;stroke-width:1;"/></g><!--link DocumentationController to SessionService--><g class="link" data-entity-1="DocumentationController" data-entity-2="SessionService" data-source-line="25" data-uid="lnk17" id="link_DocumentationController_SessionService"><path codeLine="25" d="M231.11,289.8269 C240.11,294.9969 248.32,301.3969 255,309.2969 C279.06,337.7669 243.9,363.0469 267,392.2969 C276.75,404.6469 285.1456,411.0358 299.7056,417.2058" fill="none" id="DocumentationController-to-SessionService" style="stroke:#181818;stroke-width:1;"/><polygon fill="#181818" points="305.23,419.5469,298.504,412.3523,300.6263,417.596,295.3826,419.7182,305.23,419.5469" style="stroke:#181818;stroke-width:1;"/></g><!--link UseCaseController to IdentifierService--><g class="link" data-entity-1="UseCaseController" data-entity-2="IdentifierService" data-source-line="26" data-uid="lnk18" id="link_UseCaseController_IdentifierService"><path codeLine="26" d="M207.63,118.0569 C224.49,123.9969 241.29,132.1469 255,143.2969 C316.35,193.2069 349.8795,278.3126 363.9695,321.5126" fill="none" id="UseCaseController-to-IdentifierService" style="stroke:#181818;stroke-width:1;"/><polygon fill="#181818" points="365.83,327.2169,366.8421,317.4202,364.2796,322.4633,359.2364,319.9008,365.83,327.2169" style="stroke:#181818;stroke-width:1;"/></g><!--link RequirementController to IdentifierService--><g class="link" data-entity-1="RequirementController" data-entity-2="IdentifierService" data-source-line="27" data-uid="lnk19" id="link_RequirementController_IdentifierService"><path codeLine="27" d="M221.21,209.3469 C233,214.1169 244.58,219.7269 255,226.2969 C297.66,253.1969 331.8537,294.2318 352.5937,322.2918" fill="none" id="RequirementController-to-IdentifierService" style="stroke:#181818;stroke-width:1;"/><polygon fill="#181818" points="356.16,327.1169,354.0272,317.5017,353.188,323.096,347.5938,322.2569,356.16,327.1169" style="stroke:#181818;stroke-width:1;"/></g><!--link GherkinController to TraceabilityService--><g class="link" data-entity-1="GherkinController" data-entity-2="TraceabilityService" data-source-line="28" data-uid="lnk20" id="link_GherkinController_TraceabilityService"><path codeLine="28" d="M203.47,458.3069 C220.46,463.7869 238.37,469.6669 255,475.2969 C271.79,480.9769 284.1856,485.2999 301.0056,491.2699" fill="none" id="GherkinController-to-TraceabilityService" style="stroke:#181818;stroke-width:1;"/><polygon fill="#181818" points="306.66,493.2769,299.5164,486.4969,301.948,491.6044,296.8404,494.0361,306.66,493.2769" style="stroke:#181818;stroke-width:1;"/></g><!--link GherkinController to SessionService--><g class="link" data-entity-1="GherkinController" data-entity-2="SessionService" data-source-line="29" data-uid="lnk21" id="link_GherkinController_SessionService"><path codeLine="29" d="M204.5,434.2969 C236.85,434.2969 268.13,434.2969 299.4,434.2969" fill="none" id="GherkinController-to-SessionService" style="stroke:#181818;stroke-width:1;"/><polygon fill="#181818" points="305.4,434.2969,296.4,430.2969,300.4,434.2969,296.4,438.2969,305.4,434.2969" style="stroke:#181818;stroke-width:1;"/></g><!--link DraftController to ManualKiwiService--><g class="link" data-entity-1="DraftController" data-entity-2="ManualKiwiService" data-source-line="30" data-uid="lnk22" id="link_DraftController_ManualKiwiService"><path codeLine="30" d="M195.23,600.2969 C225.32,600.2969 254.97,600.2969 286.42,600.2969" fill="none" id="DraftController-to-ManualKiwiService" style="stroke:#181818;stroke-width:1;"/><polygon fill="#181818" points="292.42,600.2969,283.42,596.2969,287.42,600.2969,283.42,604.2969,292.42,600.2969" style="stroke:#181818;stroke-width:1;"/></g><!--link DraftController to TraceabilityService--><g class="link" data-entity-1="DraftController" data-entity-2="TraceabilityService" data-source-line="31" data-uid="lnk23" id="link_DraftController_TraceabilityService"><path codeLine="31" d="M195.06,578.2669 C214.44,571.8869 235.57,564.8669 255,558.2969 C271.02,552.8769 282.5707,548.9113 298.7607,543.3013" fill="none" id="DraftController-to-TraceabilityService" style="stroke:#181818;stroke-width:1;"/><polygon fill="#181818" points="304.43,541.3369,294.6164,540.504,299.7056,542.9739,297.2357,548.0631,304.43,541.3369" style="stroke:#181818;stroke-width:1;"/></g><!--link DraftController to SessionService--><g class="link" data-entity-1="DraftController" data-entity-2="SessionService" data-source-line="32" data-uid="lnk24" id="link_DraftController_SessionService"><path codeLine="32" d="M195.15,592.4069 C217.29,586.4669 240.02,576.1469 255,558.2969 C278.96,529.7469 243.78,504.4469 267,475.2969 C276.77,463.0269 285.1566,456.7227 299.7166,450.6927" fill="none" id="DraftController-to-SessionService" style="stroke:#181818;stroke-width:1;"/><polygon fill="#181818" points="305.26,448.3969,295.4144,448.145,300.6405,450.31,298.4754,455.5362,305.26,448.3969" style="stroke:#181818;stroke-width:1;"/></g><!--link SessionController to TraceabilityService--><g class="link" data-entity-1="SessionController" data-entity-2="TraceabilityService" data-source-line="33" data-uid="lnk25" id="link_SessionController_TraceabilityService"><path codeLine="33" d="M204.17,517.2969 C231.74,517.2969 256.95,517.2969 284.96,517.2969" fill="none" id="SessionController-to-TraceabilityService" style="stroke:#181818;stroke-width:1;"/><polygon fill="#181818" points="290.96,517.2969,281.96,513.2969,285.96,517.2969,281.96,521.2969,290.96,517.2969" style="stroke:#181818;stroke-width:1;"/></g><!--SRC=[TP5DRi8m48NtFiM8FL9FK2aALONwWqJe0GOpIKOOczgJKbhrxdKffP0C2s_ylV6RzomiZg2SFI_ciyTYCflVLSPHBI018ZUjm8eZMU7WJLgptsB43QGMLs77le4QNQ8pOXscL8X4NdP2KnjynHy4DyPiqQwn8HYLmKiCpb5C8_Wqy3i3HIVjFpfTLvHIDbV89DXkGrvGTFwIgCHyXcHEhrrEzJEiqFkMOiwZEKQipoU-pb8LtJixnhZF6yStjdGHxfZYY4xNqrLUWMkcs2UBY9PmcP-KVPyzeU_GFV2E_qXUvB8-68zlUwPW1bKgAdEbLKqwAFWW6cPIwxwY7PH_q6bjwCf-ciiVEqY6zMagpLBJzGprZfN7lW40]--></g></svg>