<svg xmlns="http://www.w3.org/2000/svg" xmlns:xlink="http://www.w3.org/1999/xlink" contentStyleType="text/css" data-diagram-type="ACTIVITY" height="640px" preserveAspectRatio="none" style="width:657px;height:640px;background:#FFFFFF;" version="1.1" viewBox="0 0 657 640" width="657px" zoomAndPan="magnify"><?plantuml 1.2026.7beta1?><defs/><g><ellipse cx="189.1416" cy="25" fill="#222222" rx="10" ry="10" style="stroke:#222222;stroke-width:1;"/><rect fill="#F1F1F1" height="47.9375" rx="12.5" ry="12.5" style="stroke:#181818;stroke-width:0.5;" width="160.4199" x="108.9316" y="55"/><text fill="#000000" font-family="sans-serif" font-size="12" lengthAdjust="spacing" textLength="74.959" x="118.9316" y="76.1387">Cliente llega</text><text fill="#000000" font-family="sans-serif" font-size="12" lengthAdjust="spacing" textLength="140.4199" x="118.9316" y="90.1074">Solicita mesa o reserva</text><polygon fill="#F1F1F1" points="189.1416,126.8364,201.1416,138.8364,189.1416,150.8364,177.1416,138.8364,189.1416,126.8364" style="stroke:#181818;stroke-width:0.5;stroke-linejoin:miter;stroke-miterlimit:10;"/><text fill="#000000" font-family="sans-serif" font-size="11" lengthAdjust="spacing" textLength="87.0171" x="195.1416" y="124.2422">&#191;Tiene reserva?</text><text fill="#000000" font-family="sans-serif" font-size="11" lengthAdjust="spacing" textLength="10.0386" x="167.103" y="136.2422">S&#237;</text><text fill="#000000" font-family="sans-serif" font-size="11" lengthAdjust="spacing" textLength="14.9585" x="201.1416" y="136.2422">No</text><rect fill="#F1F1F1" height="47.9375" rx="12.5" ry="12.5" style="stroke:#181818;stroke-width:0.5;" width="140.7324" x="16" y="160.8364"/><text fill="#000000" font-family="sans-serif" font-size="12" lengthAdjust="spacing" textLength="89.6426" x="26" y="181.9751">Mesa asignada</text><text fill="#000000" font-family="sans-serif" font-size="12" lengthAdjust="spacing" textLength="120.7324" x="26" y="195.9438">Libro f&#237;sico en papel</text><rect fill="#F1F1F1" height="33.9688" rx="12.5" ry="12.5" style="stroke:#181818;stroke-width:0.5;" width="230.3691" x="176.7324" y="160.8364"/><text fill="#000000" font-family="sans-serif" font-size="12" lengthAdjust="spacing" textLength="210.3691" x="186.7324" y="181.9751">Espera o posible reserva duplicada</text><polygon fill="#F1F1F1" points="189.1416,214.7739,201.1416,226.7739,189.1416,238.7739,177.1416,226.7739,189.1416,214.7739" style="stroke:#181818;stroke-width:0.5;stroke-linejoin:miter;stroke-miterlimit:10;"/><path d="M295.9639,270.1763 L295.9639,278.7427 L275.9639,282.7427 L295.9639,286.7427 L295.9639,295.3091 A0,0 0 0 0 295.9639,295.3091 L590.3384,295.3091 A0,0 0 0 0 590.3384,295.3091 L590.3384,280.1763 L580.3384,270.1763 L295.9639,270.1763 A0,0 0 0 0 295.9639,270.1763" fill="#FFFDD0" style="stroke:#A0A0A0;stroke-width:0.5;"/><path d="M580.3384,270.1763 L580.3384,280.1763 L590.3384,280.1763 L580.3384,270.1763" fill="#FFFDD0" style="stroke:#A0A0A0;stroke-width:0.5;"/><text fill="#FF0000" font-family="sans-serif" font-size="13" lengthAdjust="spacing" textLength="273.3745" x="301.9639" y="287.2432">Riesgo: ilegibilidad o p&#233;rdida de comanda</text><rect fill="#F1F1F1" height="47.9375" rx="12.5" ry="12.5" style="stroke:#181818;stroke-width:0.5;" width="173.6445" x="102.3193" y="258.7739"/><text fill="#000000" font-family="sans-serif" font-size="12" lengthAdjust="spacing" textLength="153.6445" x="112.3193" y="279.9126">Camarero toma comanda</text><text fill="#000000" font-family="sans-serif" font-size="12" lengthAdjust="spacing" textLength="109.8398" x="112.3193" y="293.8813">Libreta y bol&#237;grafo</text><path d="M313.3721,338.1138 L313.3721,346.6802 L293.3721,350.6802 L313.3721,354.6802 L313.3721,363.2466 A0,0 0 0 0 313.3721,363.2466 L636.8379,363.2466 A0,0 0 0 0 636.8379,363.2466 L636.8379,348.1138 L626.8379,338.1138 L313.3721,338.1138 A0,0 0 0 0 313.3721,338.1138" fill="#FFFDD0" style="stroke:#A0A0A0;stroke-width:0.5;"/><path d="M626.8379,338.1138 L626.8379,348.1138 L636.8379,348.1138 L626.8379,338.1138" fill="#FFFDD0" style="stroke:#A0A0A0;stroke-width:0.5;"/><text fill="#FF0000" font-family="sans-serif" font-size="13" lengthAdjust="spacing" textLength="302.4658" x="319.3721" y="355.1807">Sin control de al&#233;rgenos ni registro obligatorio</text><rect fill="#F1F1F1" height="47.9375" rx="12.5" ry="12.5" style="stroke:#181818;stroke-width:0.5;" width="208.4609" x="84.9111" y="326.7114"/><text fill="#000000" font-family="sans-serif" font-size="12" lengthAdjust="spacing" textLength="173.7363" x="94.9111" y="347.8501">Comunicaci&#243;n sala -&gt; cocina</text><text fill="#000000" font-family="sans-serif" font-size="12" lengthAdjust="spacing" textLength="188.4609" x="94.9111" y="361.8188">Telefonillo: "sube nota mesa 4"</text><rect fill="#F1F1F1" height="47.9375" rx="12.5" ry="12.5" style="stroke:#181818;stroke-width:0.5;" width="172.7773" x="102.7529" y="394.6489"/><text fill="#000000" font-family="sans-serif" font-size="12" lengthAdjust="spacing" textLength="152.7773" x="112.7529" y="415.7876">Cocina prepara los platos</text><text fill="#000000" font-family="sans-serif" font-size="12" lengthAdjust="spacing" textLength="141.4395" x="112.7529" y="429.7563">Sin confirmaci&#243;n digital</text><rect fill="#F1F1F1" height="47.9375" rx="12.5" ry="12.5" style="stroke:#181818;stroke-width:0.5;" width="165.1777" x="106.5527" y="462.5864"/><text fill="#000000" font-family="sans-serif" font-size="12" lengthAdjust="spacing" textLength="108.1406" x="116.5527" y="483.7251">Aviso al camarero</text><text fill="#000000" font-family="sans-serif" font-size="12" lengthAdjust="spacing" textLength="145.1777" x="116.5527" y="497.6938">Telefonillo o de viva voz</text><rect fill="#F1F1F1" height="47.9375" rx="12.5" ry="12.5" style="stroke:#181818;stroke-width:0.5;" width="161.1172" x="108.583" y="530.5239"/><text fill="#000000" font-family="sans-serif" font-size="12" lengthAdjust="spacing" textLength="141.1172" x="118.583" y="551.6626">Ticket a mano -&gt; cobro</text><text fill="#000000" font-family="sans-serif" font-size="12" lengthAdjust="spacing" textLength="141.0176" x="118.583" y="565.6313">Sin auditor&#237;a ni registro</text><ellipse cx="189.1416" cy="609.4614" fill="none" rx="11" ry="11" style="stroke:#222222;stroke-width:1;"/><ellipse cx="189.1416" cy="609.4614" fill="#222222" rx="6" ry="6" style="stroke:#222222;stroke-width:1;"/><line style="stroke:#181818;stroke-width:1;" x1="189.1416" x2="189.1416" y1="35" y2="55"/><polygon fill="#181818" points="185.1416,45,189.1416,55,193.1416,45,189.1416,49" style="stroke:#181818;stroke-width:1;stroke-linejoin:miter;stroke-miterlimit:10;"/><line style="stroke:#181818;stroke-width:1;" x1="177.1416" x2="86.3662" y1="138.8364" y2="138.8364"/><line style="stroke:#181818;stroke-width:1;" x1="86.3662" x2="86.3662" y1="138.8364" y2="160.8364"/><polygon fill="#181818" points="82.3662,150.8364,86.3662,160.8364,90.3662,150.8364,86.3662,154.8364" style="stroke:#181818;stroke-width:1;stroke-linejoin:miter;stroke-miterlimit:10;"/><line style="stroke:#181818;stroke-width:1;" x1="201.1416" x2="291.917" y1="138.8364" y2="138.8364"/><line style="stroke:#181818;stroke-width:1;" x1="291.917" x2="291.917" y1="138.8364" y2="160.8364"/><polygon fill="#181818" points="287.917,150.8364,291.917,160.8364,295.917,150.8364,291.917,154.8364" style="stroke:#181818;stroke-width:1;stroke-linejoin:miter;stroke-miterlimit:10;"/><line style="stroke:#181818;stroke-width:1;" x1="86.3662" x2="86.3662" y1="208.7739" y2="226.7739"/><line style="stroke:#181818;stroke-width:1;" x1="86.3662" x2="177.1416" y1="226.7739" y2="226.7739"/><polygon fill="#181818" points="167.1416,222.7739,177.1416,226.7739,167.1416,230.7739,171.1416,226.7739" style="stroke:#181818;stroke-width:1;stroke-linejoin:miter;stroke-miterlimit:10;"/><line style="stroke:#181818;stroke-width:1;" x1="291.917" x2="291.917" y1="194.8052" y2="226.7739"/><line style="stroke:#181818;stroke-width:1;" x1="291.917" x2="201.1416" y1="226.7739" y2="226.7739"/><polygon fill="#181818" points="211.1416,222.7739,201.1416,226.7739,211.1416,230.7739,207.1416,226.7739" style="stroke:#181818;stroke-width:1;stroke-linejoin:miter;stroke-miterlimit:10;"/><line style="stroke:#181818;stroke-width:1;" x1="189.1416" x2="189.1416" y1="102.9375" y2="126.8364"/><polygon fill="#181818" points="185.1416,116.8364,189.1416,126.8364,193.1416,116.8364,189.1416,120.8364" style="stroke:#181818;stroke-width:1;stroke-linejoin:miter;stroke-miterlimit:10;"/><line style="stroke:#181818;stroke-width:1;" x1="189.1416" x2="189.1416" y1="238.7739" y2="258.7739"/><polygon fill="#181818" points="185.1416,248.7739,189.1416,258.7739,193.1416,248.7739,189.1416,252.7739" style="stroke:#181818;stroke-width:1;stroke-linejoin:miter;stroke-miterlimit:10;"/><line style="stroke:#181818;stroke-width:1;" x1="189.1416" x2="189.1416" y1="306.7114" y2="326.7114"/><polygon fill="#181818" points="185.1416,316.7114,189.1416,326.7114,193.1416,316.7114,189.1416,320.7114" style="stroke:#181818;stroke-width:1;stroke-linejoin:miter;stroke-miterlimit:10;"/><line style="stroke:#181818;stroke-width:1;" x1="189.1416" x2="189.1416" y1="374.6489" y2="394.6489"/><polygon fill="#181818" points="185.1416,384.6489,189.1416,394.6489,193.1416,384.6489,189.1416,388.6489" style="stroke:#181818;stroke-width:1;stroke-linejoin:miter;stroke-miterlimit:10;"/><line style="stroke:#181818;stroke-width:1;" x1="189.1416" x2="189.1416" y1="442.5864" y2="462.5864"/><polygon fill="#181818" points="185.1416,452.5864,189.1416,462.5864,193.1416,452.5864,189.1416,456.5864" style="stroke:#181818;stroke-width:1;stroke-linejoin:miter;stroke-miterlimit:10;"/><line style="stroke:#181818;stroke-width:1;" x1="189.1416" x2="189.1416" y1="510.5239" y2="530.5239"/><polygon fill="#181818" points="185.1416,520.5239,189.1416,530.5239,193.1416,520.5239,189.1416,524.5239" style="stroke:#181818;stroke-width:1;stroke-linejoin:miter;stroke-miterlimit:10;"/><line style="stroke:#181818;stroke-width:1;" x1="189.1416" x2="189.1416" y1="578.4614" y2="598.4614"/><polygon fill="#181818" points="185.1416,588.4614,189.1416,598.4614,193.1416,588.4614,189.1416,592.4614" style="stroke:#181818;stroke-width:1;stroke-linejoin:miter;stroke-miterlimit:10;"/><?plantuml-src xLF1RjD04BtlLupAWVIGAgqGI8a4bBOv0GUI8vUnT-oCijwnTjT11V5177BY0v3mZp5hfrKgJZrMgYDPqUoRUM_VFCSj-nO3Db2AjvnO_2hTEWBBs6Z5n7j0tA2LR-nhgD15CkObJATJk8c9dKJ8870OmKlIjoK8JB6M33gQegS4Fmpeym7BRHsay_PAd0HuiLmkhwzduva4I-5Glvpbtr1VYazZDP0rFus92KCoPdxbcBoETevg_EfNuhZaXD1GH115HmexN1Z35Kp-_bahckwgxquXRSZ3PDNlJmUQ-QVSXf5hZrR7VUGY25JzFd8feD0MMt8BGse4J3xBeUicjXGoNIkH2tTF0BPhLO-EqXQrkSg2iS50EZL9W-f-W_wEYLJtBHJY-dqTi9A56LmBN6_IGFHbS7OEh9VbWXrRj9cr_nMi_i_c7mPcki7pp2XDvrL5oVrl3n4TmlIj0alsIhmcHvLuTau7dyIke66Jeu6lJlxJi6AVCvE2kCo7Jibhyfe4pthlcgCUWHIEQqmIM1vAoQJG1XfZa_FZ51PrS-FSYaDpK6gvrasgssP-kUCeoWNbmRq7kjK2LR9ZDNmdtpD-pUMM4kWjqCjuso8tPHBiDEyI-ZqUArxaI4bhtgjQrpMjEShkup-Hvzm_v_wfvlxyx69syVhiJQ5hEVy7?></g></svg>