<svg xmlns="http://www.w3.org/2000/svg" xmlns:xlink="http://www.w3.org/1999/xlink" contentStyleType="text/css" data-diagram-type="CLASS" height="593px" preserveAspectRatio="none" style="width:775px;height:593px;background:#FFFFFF;" version="1.1" viewBox="0 0 775 593" width="775px" zoomAndPan="magnify"><title>CU-25 - Crear borrador</title><defs/><g><g class="title" data-source-line="5"><text fill="#000000" font-family="sans-serif" font-size="14" font-weight="bold" lengthAdjust="spacing" textLength="179.833" x="290.5835" y="22.9951">CU-25 - Crear borrador</text></g><!--cluster Vista--><g class="cluster" data-entity="Vista" data-source-line="7" data-uid="ent0002" id="cluster_Vista"><rect fill="none" height="99" rx="2.5" ry="2.5" style="stroke:#000000;stroke-width:1.5;" width="140" x="281" y="44.2969"/><text fill="#000000" font-family="sans-serif" font-size="14" font-weight="bold" lengthAdjust="spacing" textLength="40.1064" x="330.9468" y="59.292">Vista</text></g><!--cluster Controlador--><g class="cluster" data-entity="Controlador" data-source-line="11" data-uid="ent0004" id="cluster_Controlador"><rect fill="none" height="99" rx="2.5" ry="2.5" style="stroke:#000000;stroke-width:1.5;" width="170" x="266" y="192.2969"/><text fill="#000000" font-family="sans-serif" font-size="14" font-weight="bold" lengthAdjust="spacing" textLength="93.8643" x="304.0679" y="207.292">Controlador</text></g><!--cluster Servicio--><g class="cluster" data-entity="Servicio" data-source-line="15" data-uid="ent0006" id="cluster_Servicio"><rect fill="none" height="99" rx="2.5" ry="2.5" style="stroke:#000000;stroke-width:1.5;" width="170" x="266" y="340.2969"/><text fill="#000000" font-family="sans-serif" font-size="14" font-weight="bold" lengthAdjust="spacing" textLength="63.123" x="319.4385" y="355.292">Servicio</text></g><!--cluster Modelo--><g class="cluster" data-entity="Modelo" data-source-line="19" data-uid="ent0008" id="cluster_Modelo"><rect fill="none" height="99" rx="2.5" ry="2.5" style="stroke:#000000;stroke-width:1.5;" width="762" x="7" y="488.2969"/><text fill="#000000" font-family="sans-serif" font-size="14" font-weight="bold" lengthAdjust="spacing" textLength="57.4834" x="359.2583" y="503.292">Modelo</text></g><!--class DraftsView--><g class="entity" data-entity="DraftsView" data-source-line="8" data-uid="ent0003" id="entity_DraftsView"><rect fill="#F1F1F1" height="48" rx="2.5" ry="2.5" style="stroke:#181818;stroke-width:0.5;" width="108.3574" x="297" y="79.2969"/><ellipse cx="312" cy="95.2969" fill="#ADD1B2" rx="11" ry="11" style="stroke:#181818;stroke-width:1;"/><path d="M314.9688,100.9375 Q314.3906,101.2344 313.75,101.375 Q313.1094,101.5313 312.4063,101.5313 Q309.9063,101.5313 308.5781,99.8906 Q307.2656,98.2344 307.2656,95.1094 Q307.2656,91.9844 308.5781,90.3281 Q309.9063,88.6719 312.4063,88.6719 Q313.1094,88.6719 313.75,88.8281 Q314.4063,88.9844 314.9688,89.2813 L314.9688,92 Q314.3438,91.4219 313.75,91.1563 Q313.1563,90.875 312.5313,90.875 Q311.1875,90.875 310.5,91.9531 Q309.8125,93.0156 309.8125,95.1094 Q309.8125,97.2031 310.5,98.2813 Q311.1875,99.3438 312.5313,99.3438 Q313.1563,99.3438 313.75,99.0781 Q314.3438,98.7969 314.9688,98.2188 L314.9688,100.9375 Z " fill="#000000"/><text fill="#000000" font-family="sans-serif" font-size="14" lengthAdjust="spacing" textLength="76.3574" x="326" y="100.1436">DraftsView</text><line style="stroke:#181818;stroke-width:0.5;" x1="298" x2="404.3574" y1="111.2969" y2="111.2969"/><line style="stroke:#181818;stroke-width:0.5;" x1="298" x2="404.3574" y1="119.2969" y2="119.2969"/></g><!--class DraftController--><g class="entity" data-entity="DraftController" data-source-line="12" data-uid="ent0005" id="entity_DraftController"><rect fill="#F1F1F1" height="48" rx="2.5" ry="2.5" style="stroke:#181818;stroke-width:0.5;" width="136.7061" x="282.5" y="227.2969"/><ellipse cx="297.5" cy="243.2969" fill="#ADD1B2" rx="11" ry="11" style="stroke:#181818;stroke-width:1;"/><path d="M300.4688,248.9375 Q299.8906,249.2344 299.25,249.375 Q298.6094,249.5313 297.9063,249.5313 Q295.4063,249.5313 294.0781,247.8906 Q292.7656,246.2344 292.7656,243.1094 Q292.7656,239.9844 294.0781,238.3281 Q295.4063,236.6719 297.9063,236.6719 Q298.6094,236.6719 299.25,236.8281 Q299.9063,236.9844 300.4688,237.2813 L300.4688,240 Q299.8438,239.4219 299.25,239.1563 Q298.6563,238.875 298.0313,238.875 Q296.6875,238.875 296,239.9531 Q295.3125,241.0156 295.3125,243.1094 Q295.3125,245.2031 296,246.2813 Q296.6875,247.3438 298.0313,247.3438 Q298.6563,247.3438 299.25,247.0781 Q299.8438,246.7969 300.4688,246.2188 L300.4688,248.9375 Z " fill="#000000"/><text fill="#000000" font-family="sans-serif" font-size="14" lengthAdjust="spacing" textLength="104.7061" x="311.5" y="248.1436">DraftController</text><line style="stroke:#181818;stroke-width:0.5;" x1="283.5" x2="418.2061" y1="259.2969" y2="259.2969"/><line style="stroke:#181818;stroke-width:0.5;" x1="283.5" x2="418.2061" y1="267.2969" y2="267.2969"/></g><!--class SessionService--><g class="entity" data-entity="SessionService" data-source-line="16" data-uid="ent0007" id="entity_SessionService"><rect fill="#F1F1F1" height="48" rx="2.5" ry="2.5" style="stroke:#181818;stroke-width:0.5;" width="137.1572" x="282.5" y="375.2969"/><ellipse cx="297.5" cy="391.2969" fill="#ADD1B2" rx="11" ry="11" style="stroke:#181818;stroke-width:1;"/><path d="M300.4688,396.9375 Q299.8906,397.2344 299.25,397.375 Q298.6094,397.5313 297.9063,397.5313 Q295.4063,397.5313 294.0781,395.8906 Q292.7656,394.2344 292.7656,391.1094 Q292.7656,387.9844 294.0781,386.3281 Q295.4063,384.6719 297.9063,384.6719 Q298.6094,384.6719 299.25,384.8281 Q299.9063,384.9844 300.4688,385.2813 L300.4688,388 Q299.8438,387.4219 299.25,387.1563 Q298.6563,386.875 298.0313,386.875 Q296.6875,386.875 296,387.9531 Q295.3125,389.0156 295.3125,391.1094 Q295.3125,393.2031 296,394.2813 Q296.6875,395.3438 298.0313,395.3438 Q298.6563,395.3438 299.25,395.0781 Q299.8438,394.7969 300.4688,394.2188 L300.4688,396.9375 Z " fill="#000000"/><text fill="#000000" font-family="sans-serif" font-size="14" lengthAdjust="spacing" textLength="105.1572" x="311.5" y="396.1436">SessionService</text><line style="stroke:#181818;stroke-width:0.5;" x1="283.5" x2="418.6572" y1="407.2969" y2="407.2969"/><line style="stroke:#181818;stroke-width:0.5;" x1="283.5" x2="418.6572" y1="415.2969" y2="415.2969"/></g><!--class Draft--><g class="entity" data-entity="Draft" data-source-line="20" data-uid="ent0009" id="entity_Draft"><rect fill="#F1F1F1" height="48" rx="2.5" ry="2.5" style="stroke:#181818;stroke-width:0.5;" width="67.5332" x="23" y="523.2969"/><ellipse cx="38" cy="539.2969" fill="#ADD1B2" rx="11" ry="11" style="stroke:#181818;stroke-width:1;"/><path d="M40.9688,544.9375 Q40.3906,545.2344 39.75,545.375 Q39.1094,545.5313 38.4063,545.5313 Q35.9063,545.5313 34.5781,543.8906 Q33.2656,542.2344 33.2656,539.1094 Q33.2656,535.9844 34.5781,534.3281 Q35.9063,532.6719 38.4063,532.6719 Q39.1094,532.6719 39.75,532.8281 Q40.4063,532.9844 40.9688,533.2813 L40.9688,536 Q40.3438,535.4219 39.75,535.1563 Q39.1563,534.875 38.5313,534.875 Q37.1875,534.875 36.5,535.9531 Q35.8125,537.0156 35.8125,539.1094 Q35.8125,541.2031 36.5,542.2813 Q37.1875,543.3438 38.5313,543.3438 Q39.1563,543.3438 39.75,543.0781 Q40.3438,542.7969 40.9688,542.2188 L40.9688,544.9375 Z " fill="#000000"/><text fill="#000000" font-family="sans-serif" font-size="14" lengthAdjust="spacing" textLength="35.5332" x="52" y="544.1436">Draft</text><line style="stroke:#181818;stroke-width:0.5;" x1="24" x2="89.5332" y1="555.2969" y2="555.2969"/><line style="stroke:#181818;stroke-width:0.5;" x1="24" x2="89.5332" y1="563.2969" y2="563.2969"/></g><!--class UseCase--><g class="entity" data-entity="UseCase" data-source-line="21" data-uid="ent0010" id="entity_UseCase"><rect fill="#F1F1F1" height="48" rx="2.5" ry="2.5" style="stroke:#181818;stroke-width:0.5;" width="92.416" x="126" y="523.2969"/><ellipse cx="141" cy="539.2969" fill="#ADD1B2" rx="11" ry="11" style="stroke:#181818;stroke-width:1;"/><path d="M143.9688,544.9375 Q143.3906,545.2344 142.75,545.375 Q142.1094,545.5313 141.4063,545.5313 Q138.9063,545.5313 137.5781,543.8906 Q136.2656,542.2344 136.2656,539.1094 Q136.2656,535.9844 137.5781,534.3281 Q138.9063,532.6719 141.4063,532.6719 Q142.1094,532.6719 142.75,532.8281 Q143.4063,532.9844 143.9688,533.2813 L143.9688,536 Q143.3438,535.4219 142.75,535.1563 Q142.1563,534.875 141.5313,534.875 Q140.1875,534.875 139.5,535.9531 Q138.8125,537.0156 138.8125,539.1094 Q138.8125,541.2031 139.5,542.2813 Q140.1875,543.3438 141.5313,543.3438 Q142.1563,543.3438 142.75,543.0781 Q143.3438,542.7969 143.9688,542.2188 L143.9688,544.9375 Z " fill="#000000"/><text fill="#000000" font-family="sans-serif" font-size="14" lengthAdjust="spacing" textLength="60.416" x="155" y="544.1436">UseCase</text><line style="stroke:#181818;stroke-width:0.5;" x1="127" x2="217.416" y1="555.2969" y2="555.2969"/><line style="stroke:#181818;stroke-width:0.5;" x1="127" x2="217.416" y1="563.2969" y2="563.2969"/></g><!--class FunctionalRequirement--><g class="entity" data-entity="FunctionalRequirement" data-source-line="22" data-uid="ent0011" id="entity_FunctionalRequirement"><rect fill="#F1F1F1" height="48" rx="2.5" ry="2.5" style="stroke:#181818;stroke-width:0.5;" width="195.7549" x="253" y="523.2969"/><ellipse cx="268" cy="539.2969" fill="#ADD1B2" rx="11" ry="11" style="stroke:#181818;stroke-width:1;"/><path d="M270.9688,544.9375 Q270.3906,545.2344 269.75,545.375 Q269.1094,545.5313 268.4063,545.5313 Q265.9063,545.5313 264.5781,543.8906 Q263.2656,542.2344 263.2656,539.1094 Q263.2656,535.9844 264.5781,534.3281 Q265.9063,532.6719 268.4063,532.6719 Q269.1094,532.6719 269.75,532.8281 Q270.4063,532.9844 270.9688,533.2813 L270.9688,536 Q270.3438,535.4219 269.75,535.1563 Q269.1563,534.875 268.5313,534.875 Q267.1875,534.875 266.5,535.9531 Q265.8125,537.0156 265.8125,539.1094 Q265.8125,541.2031 266.5,542.2813 Q267.1875,543.3438 268.5313,543.3438 Q269.1563,543.3438 269.75,543.0781 Q270.3438,542.7969 270.9688,542.2188 L270.9688,544.9375 Z " fill="#000000"/><text fill="#000000" font-family="sans-serif" font-size="14" lengthAdjust="spacing" textLength="163.7549" x="282" y="544.1436">FunctionalRequirement</text><line style="stroke:#181818;stroke-width:0.5;" x1="254" x2="447.7549" y1="555.2969" y2="555.2969"/><line style="stroke:#181818;stroke-width:0.5;" x1="254" x2="447.7549" y1="563.2969" y2="563.2969"/></g><!--class GherkinScenario--><g class="entity" data-entity="GherkinScenario" data-source-line="23" data-uid="ent0012" id="entity_GherkinScenario"><rect fill="#F1F1F1" height="48" rx="2.5" ry="2.5" style="stroke:#181818;stroke-width:0.5;" width="147.8213" x="484" y="523.2969"/><ellipse cx="499" cy="539.2969" fill="#ADD1B2" rx="11" ry="11" style="stroke:#181818;stroke-width:1;"/><path d="M501.9688,544.9375 Q501.3906,545.2344 500.75,545.375 Q500.1094,545.5313 499.4063,545.5313 Q496.9063,545.5313 495.5781,543.8906 Q494.2656,542.2344 494.2656,539.1094 Q494.2656,535.9844 495.5781,534.3281 Q496.9063,532.6719 499.4063,532.6719 Q500.1094,532.6719 500.75,532.8281 Q501.4063,532.9844 501.9688,533.2813 L501.9688,536 Q501.3438,535.4219 500.75,535.1563 Q500.1563,534.875 499.5313,534.875 Q498.1875,534.875 497.5,535.9531 Q496.8125,537.0156 496.8125,539.1094 Q496.8125,541.2031 497.5,542.2813 Q498.1875,543.3438 499.5313,543.3438 Q500.1563,543.3438 500.75,543.0781 Q501.3438,542.7969 501.9688,542.2188 L501.9688,544.9375 Z " fill="#000000"/><text fill="#000000" font-family="sans-serif" font-size="14" lengthAdjust="spacing" textLength="115.8213" x="513" y="544.1436">GherkinScenario</text><line style="stroke:#181818;stroke-width:0.5;" x1="485" x2="630.8213" y1="555.2969" y2="555.2969"/><line style="stroke:#181818;stroke-width:0.5;" x1="485" x2="630.8213" y1="563.2969" y2="563.2969"/></g><!--class Session--><g class="entity" data-entity="Session" data-source-line="24" data-uid="ent0013" id="entity_Session"><rect fill="#F1F1F1" height="48" rx="2.5" ry="2.5" style="stroke:#181818;stroke-width:0.5;" width="85.416" x="667.5" y="523.2969"/><ellipse cx="682.5" cy="539.2969" fill="#ADD1B2" rx="11" ry="11" style="stroke:#181818;stroke-width:1;"/><path d="M685.4688,544.9375 Q684.8906,545.2344 684.25,545.375 Q683.6094,545.5313 682.9063,545.5313 Q680.4063,545.5313 679.0781,543.8906 Q677.7656,542.2344 677.7656,539.1094 Q677.7656,535.9844 679.0781,534.3281 Q680.4063,532.6719 682.9063,532.6719 Q683.6094,532.6719 684.25,532.8281 Q684.9063,532.9844 685.4688,533.2813 L685.4688,536 Q684.8438,535.4219 684.25,535.1563 Q683.6563,534.875 683.0313,534.875 Q681.6875,534.875 681,535.9531 Q680.3125,537.0156 680.3125,539.1094 Q680.3125,541.2031 681,542.2813 Q681.6875,543.3438 683.0313,543.3438 Q683.6563,543.3438 684.25,543.0781 Q684.8438,542.7969 685.4688,542.2188 L685.4688,544.9375 Z " fill="#000000"/><text fill="#000000" font-family="sans-serif" font-size="14" lengthAdjust="spacing" textLength="53.416" x="696.5" y="544.1436">Session</text><line style="stroke:#181818;stroke-width:0.5;" x1="668.5" x2="751.916" y1="555.2969" y2="555.2969"/><line style="stroke:#181818;stroke-width:0.5;" x1="668.5" x2="751.916" y1="563.2969" y2="563.2969"/></g><!--link DraftsView to DraftController--><g class="link" data-entity-1="DraftsView" data-entity-2="DraftController" data-source-line="27" data-uid="lnk14" id="link_DraftsView_DraftController"><path codeLine="27" d="M351,127.4269 C351,154.7669 351,193.9769 351,221.2669" fill="none" id="DraftsView-to-DraftController" style="stroke:#181818;stroke-width:1;"/><polygon fill="#181818" points="351,227.2669,355,218.2669,351,222.2669,347,218.2669,351,227.2669" style="stroke:#181818;stroke-width:1;"/><text fill="#000000" font-family="sans-serif" font-size="13" lengthAdjust="spacing" textLength="171.4121" x="352" y="172.3638">POST /api/drafts/assemble</text></g><!--link DraftController to SessionService--><g class="link" data-entity-1="DraftController" data-entity-2="SessionService" data-source-line="28" data-uid="lnk15" id="link_DraftController_SessionService"><path codeLine="28" d="M351,275.4269 C351,302.7669 351,341.9769 351,369.2669" fill="none" id="DraftController-to-SessionService" style="stroke:#181818;stroke-width:1;"/><polygon fill="#181818" points="351,375.2669,355,366.2669,351,370.2669,347,366.2669,351,375.2669" style="stroke:#181818;stroke-width:1;"/><text fill="#000000" font-family="sans-serif" font-size="13" lengthAdjust="spacing" textLength="126.8071" x="352" y="320.3638">buildDraftContent()</text></g><!--link SessionService to UseCase--><g class="link" data-entity-1="SessionService" data-entity-2="UseCase" data-source-line="29" data-uid="lnk16" id="link_SessionService_UseCase"><path codeLine="29" d="M313.54,423.3269 C290.1,438.4169 259.76,459.1869 235,480.2969 C219.57,493.4569 207.834,505.4973 195.944,518.7073" fill="none" id="SessionService-to-UseCase" style="stroke:#181818;stroke-width:1;"/><polygon fill="#181818" points="191.93,523.1669,200.924,519.1535,195.275,519.4505,194.9779,513.8015,191.93,523.1669" style="stroke:#181818;stroke-width:1;"/><text fill="#000000" font-family="sans-serif" font-size="13" lengthAdjust="spacing" textLength="47.6772" x="267" y="468.3638">leer UC</text></g><!--link SessionService to FunctionalRequirement--><g class="link" data-entity-1="SessionService" data-entity-2="FunctionalRequirement" data-source-line="30" data-uid="lnk17" id="link_SessionService_FunctionalRequirement"><path codeLine="30" d="M351,423.4269 C351,450.7669 351,489.9769 351,517.2669" fill="none" id="SessionService-to-FunctionalRequirement" style="stroke:#181818;stroke-width:1;"/><polygon fill="#181818" points="351,523.2669,355,514.2669,351,518.2669,347,514.2669,351,523.2669" style="stroke:#181818;stroke-width:1;"/><text fill="#000000" font-family="sans-serif" font-size="13" lengthAdjust="spacing" textLength="45.5952" x="352" y="468.3638">leer RF</text></g><!--link SessionService to GherkinScenario--><g class="link" data-entity-1="SessionService" data-entity-2="GherkinScenario" data-source-line="31" data-uid="lnk18" id="link_SessionService_GherkinScenario"><path codeLine="31" d="M384.55,423.4469 C407.54,439.3569 438.69,460.9969 466,480.2969 C486.07,494.4769 503.6008,507.041 521.2808,519.771" fill="none" id="SessionService-to-GherkinScenario" style="stroke:#181818;stroke-width:1;"/><polygon fill="#181818" points="526.15,523.2769,521.1835,514.7719,522.0924,520.3553,516.509,521.2641,526.15,523.2769" style="stroke:#181818;stroke-width:1;"/><text fill="#000000" font-family="sans-serif" font-size="13" lengthAdjust="spacing" textLength="98.8901" x="455" y="468.3638">leer escenarios</text></g><!--link SessionService to Draft--><g class="link" data-entity-1="SessionService" data-entity-2="Draft" data-source-line="32" data-uid="lnk19" id="link_SessionService_Draft"><path codeLine="32" d="M282.29,405.3669 C210.23,412.1269 103.53,426.7269 75,455.2969 C57.36,472.9569 54.3404,496.5985 54.8204,517.2285" fill="none" id="SessionService-to-Draft" style="stroke:#181818;stroke-width:1;"/><polygon fill="#181818" points="54.96,523.2269,58.7496,514.1363,54.8437,518.2282,50.7517,514.3224,54.96,523.2269" style="stroke:#181818;stroke-width:1;"/><text fill="#000000" font-family="sans-serif" font-size="13" lengthAdjust="spacing" textLength="162.5" x="76" y="468.3638">crear/actualizar borrador</text></g><!--link SessionService to Session--><g class="link" data-entity-1="SessionService" data-entity-2="Session" data-source-line="33" data-uid="lnk20" id="link_SessionService_Session"><path codeLine="33" d="M419.61,407.1669 C483.31,416.0869 578.75,436.1369 650,480.2969 C667.64,491.2269 679.6142,504.0239 690.4842,518.2939" fill="none" id="SessionService-to-Session" style="stroke:#181818;stroke-width:1;"/><polygon fill="#181818" points="694.12,523.0669,691.8483,513.4836,691.0902,519.0894,685.4844,518.3313,694.12,523.0669" style="stroke:#181818;stroke-width:1;"/><text fill="#000000" font-family="sans-serif" font-size="13" lengthAdjust="spacing" textLength="111.7441" x="636" y="468.3638">actualizar results</text></g><!--SRC=[RPB1JiCm38RlVGfh9pXKHKXSE22XeY4E2BIotTtKswnboR1J9ePuTzBHRLtNO-Bl-sCdqHMx3GgkOODcXGigmhSb4381tS9IeaT0brZvBRi5pD5gjs8igZw685pMWLwCTmNl26wI9728QVaqlRs3578X52YzI4oI96cFXD6CDU08VXBupu8dmNdG6TCs-UrmkNT1l6ti2xgjMP8pfI3vOiE-onUaoh79VOdEy5TVaVKNuSVLL2d7EFnXFQwT2J4BxOG-QnPQaplHpqkIU4k58OV2ljz0S_9fKaZJX_ueS0_lRyK7PBZXhDgZMGoWTHcVfiys_lbeKIzhjjMHZCrTNISzgF7QkQ9WAKPDyo5eSDY3CXaFARqREC2axOOEIVjs8sgQ_vAX2JLQtdM_pe3KRaMj8mXfROF-0G00]--></g></svg>