<svg xmlns="http://www.w3.org/2000/svg" xmlns:xlink="http://www.w3.org/1999/xlink" contentStyleType="text/css" data-diagram-type="CLASS" height="566px" preserveAspectRatio="none" style="width:543px;height:566px;background:#FFFFFF;" version="1.1" viewBox="0 0 543 566" width="543px" zoomAndPan="magnify"><title>CU02 - Esquema MongoDB para Extraer Casos de Uso</title><defs/><g><g class="title" data-source-line="1"><text fill="#000000" font-family="sans-serif" font-size="14" font-weight="bold" lengthAdjust="spacing" textLength="421.4902" x="54.0522" y="22.9951">CU02 - Esquema MongoDB para Extraer Casos de Uso</text></g><!--class Documentation--><g class="entity" data-entity="Documentation" data-source-line="6" data-uid="ent0002" id="entity_Documentation"><rect fill="#F1F1F1" height="129.4844" rx="2.5" ry="2.5" style="stroke:#181818;stroke-width:0.5;" width="166.3281" x="7" y="430.2969"/><ellipse cx="33.8811" cy="446.2969" fill="#ADD1B2" rx="11" ry="11" style="stroke:#181818;stroke-width:1;"/><path d="M37.9904,452.2969 L30.2717,452.2969 L30.2717,439.9063 L37.9904,439.9063 L37.9904,442.0625 L32.7248,442.0625 L32.7248,444.7344 L37.4904,444.7344 L37.4904,446.8906 L32.7248,446.8906 L32.7248,450.1406 L37.9904,450.1406 L37.9904,452.2969 Z " fill="#000000"/><text fill="#000000" font-family="sans-serif" font-size="14" lengthAdjust="spacing" textLength="107.9258" x="50.5213" y="451.1436">Documentation</text><line style="stroke:#181818;stroke-width:0.5;" x1="8" x2="172.3281" y1="462.2969" y2="462.2969"/><text fill="#000000" font-family="sans-serif" font-size="14" lengthAdjust="spacing" textLength="87.5547" x="13" y="479.292">_id: ObjectId</text><text fill="#000000" font-family="sans-serif" font-size="14" lengthAdjust="spacing" textLength="139.5557" x="13" y="495.5889">projectName: string</text><text fill="#000000" font-family="sans-serif" font-size="14" lengthAdjust="spacing" textLength="154.3281" x="13" y="511.8857">documentType: string</text><text fill="#000000" font-family="sans-serif" font-size="14" lengthAdjust="spacing" textLength="83.2139" x="13" y="528.1826">label: string</text><text fill="#000000" font-family="sans-serif" font-size="14" lengthAdjust="spacing" textLength="76.7266" x="13" y="544.4795">title: string</text><line style="stroke:#181818;stroke-width:0.5;" x1="8" x2="172.3281" y1="551.7813" y2="551.7813"/></g><!--class Session--><g class="entity" data-entity="Session" data-source-line="14" data-uid="ent0003" id="entity_Session"><rect fill="#F1F1F1" height="96.8906" rx="2.5" ry="2.5" style="stroke:#181818;stroke-width:0.5;" width="162.2129" x="208" y="446.2969"/><ellipse cx="258.1484" cy="462.2969" fill="#ADD1B2" rx="11" ry="11" style="stroke:#181818;stroke-width:1;"/><path d="M262.2578,468.2969 L254.5391,468.2969 L254.5391,455.9063 L262.2578,455.9063 L262.2578,458.0625 L256.9922,458.0625 L256.9922,460.7344 L261.7578,460.7344 L261.7578,462.8906 L256.9922,462.8906 L256.9922,466.1406 L262.2578,466.1406 L262.2578,468.2969 Z " fill="#000000"/><text fill="#000000" font-family="sans-serif" font-size="14" lengthAdjust="spacing" textLength="53.416" x="278.6484" y="467.1436">Session</text><line style="stroke:#181818;stroke-width:0.5;" x1="209" x2="369.2129" y1="478.2969" y2="478.2969"/><text fill="#000000" font-family="sans-serif" font-size="14" lengthAdjust="spacing" textLength="87.5547" x="214" y="495.292">_id: ObjectId</text><text fill="#000000" font-family="sans-serif" font-size="14" lengthAdjust="spacing" textLength="139.5557" x="214" y="511.5889">projectName: string</text><text fill="#000000" font-family="sans-serif" font-size="14" lengthAdjust="spacing" textLength="150.2129" x="214" y="527.8857">workflowMode: string</text><line style="stroke:#181818;stroke-width:0.5;" x1="209" x2="369.2129" y1="535.1875" y2="535.1875"/></g><!--class User--><g class="entity" data-entity="User" data-source-line="20" data-uid="ent0004" id="entity_User"><rect fill="#F1F1F1" height="96.8906" rx="2.5" ry="2.5" style="stroke:#181818;stroke-width:0.5;" width="131.5947" x="405" y="446.2969"/><ellipse cx="450.5923" cy="462.2969" fill="#ADD1B2" rx="11" ry="11" style="stroke:#181818;stroke-width:1;"/><path d="M454.7017,468.2969 L446.9829,468.2969 L446.9829,455.9063 L454.7017,455.9063 L454.7017,458.0625 L449.436,458.0625 L449.436,460.7344 L454.2017,460.7344 L454.2017,462.8906 L449.436,462.8906 L449.436,466.1406 L454.7017,466.1406 L454.7017,468.2969 Z " fill="#000000"/><text fill="#000000" font-family="sans-serif" font-size="14" lengthAdjust="spacing" textLength="31.9102" x="471.0923" y="467.1436">User</text><line style="stroke:#181818;stroke-width:0.5;" x1="406" x2="535.5947" y1="478.2969" y2="478.2969"/><text fill="#000000" font-family="sans-serif" font-size="14" lengthAdjust="spacing" textLength="87.5547" x="411" y="495.292">_id: ObjectId</text><text fill="#000000" font-family="sans-serif" font-size="14" lengthAdjust="spacing" textLength="119.5947" x="411" y="511.5889">username: string</text><text fill="#000000" font-family="sans-serif" font-size="14" lengthAdjust="spacing" textLength="76.1797" x="411" y="527.8857">role: string</text><line style="stroke:#181818;stroke-width:0.5;" x1="406" x2="535.5947" y1="535.1875" y2="535.1875"/></g><!--class UseCase--><g class="entity" data-entity="UseCase" data-source-line="26" data-uid="ent0005" id="entity_UseCase"><rect fill="#F1F1F1" height="308.75" rx="2.5" ry="2.5" style="stroke:#181818;stroke-width:0.5;" width="198.8262" x="189.5" y="44.2969"/><ellipse cx="254.4551" cy="60.2969" fill="#ADD1B2" rx="11" ry="11" style="stroke:#181818;stroke-width:1;"/><path d="M258.5645,66.2969 L250.8457,66.2969 L250.8457,53.9063 L258.5645,53.9063 L258.5645,56.0625 L253.2988,56.0625 L253.2988,58.7344 L258.0645,58.7344 L258.0645,60.8906 L253.2988,60.8906 L253.2988,64.1406 L258.5645,64.1406 L258.5645,66.2969 Z " fill="#000000"/><text fill="#000000" font-family="sans-serif" font-size="14" lengthAdjust="spacing" textLength="60.416" x="274.9551" y="65.1436">UseCase</text><line style="stroke:#181818;stroke-width:0.5;" x1="190.5" x2="387.3262" y1="76.2969" y2="76.2969"/><text fill="#000000" font-family="sans-serif" font-size="14" lengthAdjust="spacing" textLength="87.5547" x="195.5" y="93.292">_id: ObjectId</text><text fill="#000000" font-family="sans-serif" font-size="14" lengthAdjust="spacing" textLength="132.6172" x="195.5" y="109.5889">sessionId: ObjectId</text><text fill="#000000" font-family="sans-serif" font-size="14" lengthAdjust="spacing" textLength="78.9414" x="195.5" y="125.8857">ucId: string</text><text fill="#000000" font-family="sans-serif" font-size="14" lengthAdjust="spacing" textLength="89.0586" x="195.5" y="142.1826">name: string</text><text fill="#000000" font-family="sans-serif" font-size="14" lengthAdjust="spacing" textLength="127.1963" x="195.5" y="158.4795">description: string</text><text fill="#000000" font-family="sans-serif" font-size="14" lengthAdjust="spacing" textLength="139.5557" x="195.5" y="174.7764">projectName: string</text><text fill="#000000" font-family="sans-serif" font-size="14" lengthAdjust="spacing" textLength="157.7598" x="195.5" y="191.0732">documentLabel: string</text><text fill="#000000" font-family="sans-serif" font-size="14" lengthAdjust="spacing" textLength="186.8262" x="195.5" y="207.3701">documentationId: ObjectId</text><text fill="#000000" font-family="sans-serif" font-size="14" lengthAdjust="spacing" textLength="105.2529" x="195.5" y="223.667">actors: [String]</text><text fill="#000000" font-family="sans-serif" font-size="14" lengthAdjust="spacing" textLength="144.6348" x="195.5" y="239.9639">preconditions: string</text><text fill="#000000" font-family="sans-serif" font-size="14" lengthAdjust="spacing" textLength="151.6143" x="195.5" y="256.2607">postconditions: string</text><text fill="#000000" font-family="sans-serif" font-size="14" lengthAdjust="spacing" textLength="128.8096" x="195.5" y="272.5576">mainFlow: [String]</text><text fill="#000000" font-family="sans-serif" font-size="14" lengthAdjust="spacing" textLength="177.1807" x="195.5" y="288.8545">alternativeFlows: [String]</text><text fill="#000000" font-family="sans-serif" font-size="14" lengthAdjust="spacing" textLength="139.3027" x="195.5" y="305.1514">createdBy: ObjectId</text><text fill="#000000" font-family="sans-serif" font-size="14" lengthAdjust="spacing" textLength="111.3301" x="195.5" y="321.4482">createdAt: Date</text><text fill="#000000" font-family="sans-serif" font-size="14" lengthAdjust="spacing" textLength="115.9102" x="195.5" y="337.7451">updatedAt: Date</text><line style="stroke:#181818;stroke-width:0.5;" x1="190.5" x2="387.3262" y1="345.0469" y2="345.0469"/></g><!--link UseCase to Session--><g class="link" data-entity-1="UseCase" data-entity-2="Session" data-source-line="45" data-uid="lnk6" id="link_UseCase_Session"><path codeLine="45" d="M289,353.6869 C289,387.3069 289,414.4469 289,440.0469" fill="none" id="UseCase-to-Session" style="stroke:#181818;stroke-width:1;"/><polygon fill="#181818" points="289,446.0469,293,437.0469,289,441.0469,285,437.0469,289,446.0469" style="stroke:#181818;stroke-width:1;"/><text fill="#000000" font-family="sans-serif" font-size="13" lengthAdjust="spacing" textLength="60.2075" x="290" y="396.3638">sessionId</text></g><!--link UseCase to Documentation--><g class="link" data-entity-1="UseCase" data-entity-2="Documentation" data-source-line="46" data-uid="lnk7" id="link_UseCase_Documentation"><path codeLine="46" d="M189.21,347.2269 C169.43,376.4569 153.0241,400.6887 136.3941,425.2487" fill="none" id="UseCase-to-Documentation" style="stroke:#181818;stroke-width:1;"/><polygon fill="#181818" points="133.03,430.2169,141.3882,425.0073,135.8334,426.0767,134.764,420.5219,133.03,430.2169" style="stroke:#181818;stroke-width:1;"/><text fill="#000000" font-family="sans-serif" font-size="13" lengthAdjust="spacing" textLength="110.5444" x="162" y="396.3638">documentationId</text></g><!--link UseCase to User--><g class="link" data-entity-1="UseCase" data-entity-2="User" data-source-line="47" data-uid="lnk8" id="link_UseCase_User"><path codeLine="47" d="M384.26,353.6869 C405.08,387.3069 422.4315,415.3455 438.2815,440.9455" fill="none" id="UseCase-to-User" style="stroke:#181818;stroke-width:1;"/><polygon fill="#181818" points="441.44,446.0469,440.1032,436.2892,438.8079,441.7957,433.3014,440.5005,441.44,446.0469" style="stroke:#181818;stroke-width:1;"/><text fill="#000000" font-family="sans-serif" font-size="13" lengthAdjust="spacing" textLength="66.4155" x="413" y="396.3638">createdBy</text></g><!--SRC=[bL9DJyCm3BttLrYxJveuze2qBwH930vZ9uHGsfWHriObTXa3yTz9oZwQgY1niv-TzvndYv42OReUNS0GvlnQOwbWINP3imbKoYcOlujJw62gc1Wqmfef4Qf0238IeHAqSPYB8PlmrjZmgWH-LffsncxWIHMChKfUAEQnY3DPBRZ8oQxC1y8eIT2AaJqCPfJNfKzKu1o0OeWG-4m07erEuJPxyS8BxVFAKOXlL8afi2Ut6u_gmxkxVTM62vLXqSebk73AlywJh93vECCX_eVwZjpsgQ3TadGl-vhHDTGXwEMjVS76f8wAtyZyYl385-9UIlxvng8Zb0VW9DBHrCYvCrKmluN-RVbrnsFTNc57NUL2ZbEuNpNT3mqv-ilG9dHpMvHOUWkbClRAcnsng4A2WMBUCDHYYToX4jIJVJJB0HrB2ZCV16yg7I7UzAF1m-7bwIxIixLHFRxTj6j4rDiSGdgUx1i0]--></g></svg>