<svg xmlns="http://www.w3.org/2000/svg" xmlns:xlink="http://www.w3.org/1999/xlink" contentStyleType="text/css" data-diagram-type="CLASS" height="453px" preserveAspectRatio="none" style="width:748px;height:453px;background:#FFFFFF;" version="1.1" viewBox="0 0 748 453" width="748px" zoomAndPan="magnify"><?plantuml 1.2026.3beta6?><defs/><g><g class="title" data-source-line="1"><text fill="#000000" font-family="sans-serif" font-size="14" font-weight="700" lengthAdjust="spacing" textLength="148.6953" x="296.419" y="22.9951">CU-04 - Abrir mesa</text></g><!--cluster Vista--><g class="cluster" data-qualified-name="Vista" data-source-line="4" id="ent0002"><path d="M187.96,43.2969 L229.0664,43.2969 A3.75,3.75 0 0 1 231.5664,45.7969 L238.5664,65.5938 L324.96,65.5938 A2.5,2.5 0 0 1 327.46,68.0938 L327.46,139.7969 A2.5,2.5 0 0 1 324.96,142.2969 L187.96,142.2969 A2.5,2.5 0 0 1 185.46,139.7969 L185.46,45.7969 A2.5,2.5 0 0 1 187.96,43.2969" fill="none" style="stroke:#000000;stroke-width:1.5;"/><line style="stroke:#000000;stroke-width:1.5;" x1="185.46" x2="238.5664" y1="65.5938" y2="65.5938"/><text fill="#000000" font-family="sans-serif" font-size="14" font-weight="700" lengthAdjust="spacing" textLength="40.1064" x="189.46" y="58.292">Vista</text></g><!--cluster Controladores--><g class="cluster" data-qualified-name="Controladores" data-source-line="8" id="ent0004"><path d="M173.96,191.2969 L286.6524,191.2969 A3.75,3.75 0 0 1 289.1524,193.7969 L296.1524,213.5938 L338.96,213.5938 A2.5,2.5 0 0 1 341.46,216.0938 L341.46,287.7969 A2.5,2.5 0 0 1 338.96,290.2969 L173.96,290.2969 A2.5,2.5 0 0 1 171.46,287.7969 L171.46,193.7969 A2.5,2.5 0 0 1 173.96,191.2969" fill="none" style="stroke:#000000;stroke-width:1.5;"/><line style="stroke:#000000;stroke-width:1.5;" x1="171.46" x2="296.1524" y1="213.5938" y2="213.5938"/><text fill="#000000" font-family="sans-serif" font-size="14" font-weight="700" lengthAdjust="spacing" textLength="111.6924" x="175.46" y="206.292">Controladores</text></g><!--cluster Modelos--><g class="cluster" data-qualified-name="Modelos" data-source-line="12" id="ent0006"><path d="M252.96,339.2969 L319.7764,339.2969 A3.75,3.75 0 0 1 322.2764,341.7969 L329.2764,361.5938 L605.96,361.5938 A2.5,2.5 0 0 1 608.46,364.0938 L608.46,435.7969 A2.5,2.5 0 0 1 605.96,438.2969 L252.96,438.2969 A2.5,2.5 0 0 1 250.46,435.7969 L250.46,341.7969 A2.5,2.5 0 0 1 252.96,339.2969" fill="none" style="stroke:#000000;stroke-width:1.5;"/><line style="stroke:#000000;stroke-width:1.5;" x1="250.46" x2="329.2764" y1="361.5938" y2="361.5938"/><text fill="#000000" font-family="sans-serif" font-size="14" font-weight="700" lengthAdjust="spacing" textLength="65.8164" x="254.46" y="354.292">Modelos</text></g><!--class MesasView--><g class="entity" data-qualified-name="Vista.MesasView" data-source-line="5" id="ent0003"><rect fill="#F1F1F1" height="48" rx="2.5" ry="2.5" style="stroke:#181818;stroke-width:0.5;" width="109.3896" x="201.76" y="78.2969"/><ellipse cx="216.76" cy="94.2969" fill="#ADD1B2" rx="11" ry="11" style="stroke:#181818;stroke-width:1;"/><path d="M219.7288,99.9375 Q219.1506,100.2344 218.51,100.375 Q217.8694,100.5313 217.1663,100.5313 Q214.6663,100.5313 213.3381,98.8906 Q212.0256,97.2344 212.0256,94.1094 Q212.0256,90.9844 213.3381,89.3281 Q214.6663,87.6719 217.1663,87.6719 Q217.8694,87.6719 218.51,87.8281 Q219.1663,87.9844 219.7288,88.2813 L219.7288,91 Q219.1038,90.4219 218.51,90.1563 Q217.9163,89.875 217.2913,89.875 Q215.9475,89.875 215.26,90.9531 Q214.5725,92.0156 214.5725,94.1094 Q214.5725,96.2031 215.26,97.2813 Q215.9475,98.3438 217.2913,98.3438 Q217.9163,98.3438 218.51,98.0781 Q219.1038,97.7969 219.7288,97.2188 L219.7288,99.9375 Z " fill="#000000"/><text fill="#000000" font-family="sans-serif" font-size="14" lengthAdjust="spacing" textLength="77.3896" x="230.76" y="99.1436">MesasView</text><line style="stroke:#181818;stroke-width:0.5;" x1="202.76" x2="310.1496" y1="110.2969" y2="110.2969"/><line style="stroke:#181818;stroke-width:0.5;" x1="202.76" x2="310.1496" y1="118.2969" y2="118.2969"/></g><!--class MesaController--><g class="entity" data-qualified-name="Controladores.MesaController" data-source-line="9" id="ent0005"><rect fill="#F1F1F1" height="48" rx="2.5" ry="2.5" style="stroke:#181818;stroke-width:0.5;" width="137.7383" x="187.59" y="226.2969"/><ellipse cx="202.59" cy="242.2969" fill="#ADD1B2" rx="11" ry="11" style="stroke:#181818;stroke-width:1;"/><path d="M205.5588,247.9375 Q204.9806,248.2344 204.34,248.375 Q203.6994,248.5313 202.9963,248.5313 Q200.4963,248.5313 199.1681,246.8906 Q197.8556,245.2344 197.8556,242.1094 Q197.8556,238.9844 199.1681,237.3281 Q200.4963,235.6719 202.9963,235.6719 Q203.6994,235.6719 204.34,235.8281 Q204.9963,235.9844 205.5588,236.2813 L205.5588,239 Q204.9338,238.4219 204.34,238.1563 Q203.7463,237.875 203.1213,237.875 Q201.7775,237.875 201.09,238.9531 Q200.4025,240.0156 200.4025,242.1094 Q200.4025,244.2031 201.09,245.2813 Q201.7775,246.3438 203.1213,246.3438 Q203.7463,246.3438 204.34,246.0781 Q204.9338,245.7969 205.5588,245.2188 L205.5588,247.9375 Z " fill="#000000"/><text fill="#000000" font-family="sans-serif" font-size="14" lengthAdjust="spacing" textLength="105.7383" x="216.59" y="247.1436">MesaController</text><line style="stroke:#181818;stroke-width:0.5;" x1="188.59" x2="324.3283" y1="258.2969" y2="258.2969"/><line style="stroke:#181818;stroke-width:0.5;" x1="188.59" x2="324.3283" y1="266.2969" y2="266.2969"/></g><!--class Mesa--><g class="entity" data-qualified-name="Modelos.Mesa" data-source-line="13" id="ent0007"><rect fill="#F1F1F1" height="48" rx="2.5" ry="2.5" style="stroke:#181818;stroke-width:0.5;" width="68.5654" x="266.17" y="374.2969"/><ellipse cx="281.17" cy="390.2969" fill="#ADD1B2" rx="11" ry="11" style="stroke:#181818;stroke-width:1;"/><path d="M284.1387,395.9375 Q283.5606,396.2344 282.92,396.375 Q282.2794,396.5313 281.5762,396.5313 Q279.0762,396.5313 277.7481,394.8906 Q276.4356,393.2344 276.4356,390.1094 Q276.4356,386.9844 277.7481,385.3281 Q279.0762,383.6719 281.5762,383.6719 Q282.2794,383.6719 282.92,383.8281 Q283.5762,383.9844 284.1387,384.2813 L284.1387,387 Q283.5137,386.4219 282.92,386.1563 Q282.3262,385.875 281.7012,385.875 Q280.3575,385.875 279.67,386.9531 Q278.9825,388.0156 278.9825,390.1094 Q278.9825,392.2031 279.67,393.2813 Q280.3575,394.3438 281.7012,394.3438 Q282.3262,394.3438 282.92,394.0781 Q283.5137,393.7969 284.1387,393.2188 L284.1387,395.9375 Z " fill="#000000"/><text fill="#000000" font-family="sans-serif" font-size="14" lengthAdjust="spacing" textLength="36.5654" x="295.17" y="395.1436">Mesa</text><line style="stroke:#181818;stroke-width:0.5;" x1="267.17" x2="333.7354" y1="406.2969" y2="406.2969"/><line style="stroke:#181818;stroke-width:0.5;" x1="267.17" x2="333.7354" y1="414.2969" y2="414.2969"/></g><!--class Zona--><g class="entity" data-qualified-name="Modelos.Zona" data-source-line="14" id="ent0008"><rect fill="#F1F1F1" height="48" rx="2.5" ry="2.5" style="stroke:#181818;stroke-width:0.5;" width="67.6084" x="369.65" y="374.2969"/><ellipse cx="384.65" cy="390.2969" fill="#ADD1B2" rx="11" ry="11" style="stroke:#181818;stroke-width:1;"/><path d="M387.6188,395.9375 Q387.0406,396.2344 386.4,396.375 Q385.7594,396.5313 385.0563,396.5313 Q382.5563,396.5313 381.2281,394.8906 Q379.9156,393.2344 379.9156,390.1094 Q379.9156,386.9844 381.2281,385.3281 Q382.5563,383.6719 385.0563,383.6719 Q385.7594,383.6719 386.4,383.8281 Q387.0563,383.9844 387.6188,384.2813 L387.6188,387 Q386.9938,386.4219 386.4,386.1563 Q385.8063,385.875 385.1813,385.875 Q383.8375,385.875 383.15,386.9531 Q382.4625,388.0156 382.4625,390.1094 Q382.4625,392.2031 383.15,393.2813 Q383.8375,394.3438 385.1813,394.3438 Q385.8063,394.3438 386.4,394.0781 Q386.9938,393.7969 387.6188,393.2188 L387.6188,395.9375 Z " fill="#000000"/><text fill="#000000" font-family="sans-serif" font-size="14" lengthAdjust="spacing" textLength="35.6084" x="398.65" y="395.1436">Zona</text><line style="stroke:#181818;stroke-width:0.5;" x1="370.65" x2="436.2584" y1="406.2969" y2="406.2969"/><line style="stroke:#181818;stroke-width:0.5;" x1="370.65" x2="436.2584" y1="414.2969" y2="414.2969"/></g><!--class LogAuditoria--><g class="entity" data-qualified-name="Modelos.LogAuditoria" data-source-line="15" id="ent0009"><rect fill="#F1F1F1" height="48" rx="2.5" ry="2.5" style="stroke:#181818;stroke-width:0.5;" width="120.7578" x="472.08" y="374.2969"/><ellipse cx="487.08" cy="390.2969" fill="#ADD1B2" rx="11" ry="11" style="stroke:#181818;stroke-width:1;"/><path d="M490.0488,395.9375 Q489.4706,396.2344 488.83,396.375 Q488.1894,396.5313 487.4863,396.5313 Q484.9863,396.5313 483.6581,394.8906 Q482.3456,393.2344 482.3456,390.1094 Q482.3456,386.9844 483.6581,385.3281 Q484.9863,383.6719 487.4863,383.6719 Q488.1894,383.6719 488.83,383.8281 Q489.4863,383.9844 490.0488,384.2813 L490.0488,387 Q489.4238,386.4219 488.83,386.1563 Q488.2363,385.875 487.6113,385.875 Q486.2675,385.875 485.58,386.9531 Q484.8925,388.0156 484.8925,390.1094 Q484.8925,392.2031 485.58,393.2813 Q486.2675,394.3438 487.6113,394.3438 Q488.2363,394.3438 488.83,394.0781 Q489.4238,393.7969 490.0488,393.2188 L490.0488,395.9375 Z " fill="#000000"/><text fill="#000000" font-family="sans-serif" font-size="14" lengthAdjust="spacing" textLength="88.7578" x="501.08" y="395.1436">LogAuditoria</text><line style="stroke:#181818;stroke-width:0.5;" x1="473.08" x2="591.8378" y1="406.2969" y2="406.2969"/><line style="stroke:#181818;stroke-width:0.5;" x1="473.08" x2="591.8378" y1="414.2969" y2="414.2969"/></g><!--link MesasView to MesaController--><g class="link" data-entity-1="ent0003" data-entity-2="ent0005" data-link-type="dependency" data-source-line="18" id="lnk10"><path codeLine="18" d="M256.46,126.7569 C256.46,153.9969 256.46,192.6769 256.46,219.8969" fill="none" id="MesasView-to-MesaController" style="stroke:#181818;stroke-width:1;"/><polygon fill="#181818" points="256.46,225.8969,260.46,216.8969,256.46,220.8969,252.46,216.8969,256.46,225.8969" style="stroke:#181818;stroke-width:1;"/><text fill="#000000" font-family="sans-serif" font-size="13" lengthAdjust="spacing" textLength="171.374" x="257.46" y="171.3638">solicitar apertura de mesa</text></g><!--link MesaController to Mesa--><g class="link" data-entity-1="ent0005" data-entity-2="ent0007" data-link-type="dependency" data-source-line="19" id="lnk11"><path codeLine="19" d="M187.31,252.4169 C111.64,256.2369 6,270.7569 45.46,323.2969 C72.1,358.7769 196.9295,381.8262 260.1595,391.5362" fill="none" id="MesaController-to-Mesa" style="stroke:#181818;stroke-width:1;"/><polygon fill="#181818" points="266.09,392.4469,257.8014,387.1271,261.1479,391.6879,256.5871,395.0344,266.09,392.4469" style="stroke:#181818;stroke-width:1;"/><text fill="#000000" font-family="sans-serif" font-size="13" lengthAdjust="spacing" textLength="149.4429" x="46.46" y="319.3638">verificar estado = libre</text></g><!--link MesaController to Mesa--><g class="link" data-entity-1="ent0005" data-entity-2="ent0007" data-link-type="dependency" data-source-line="20" id="lnk12"><path codeLine="20" d="M242.57,274.6369 C235.9,288.8869 230.53,307.3669 236.46,323.2969 C243.75,342.8769 254.5017,356.5509 268.1817,369.8109" fill="none" id="MesaController-to-Mesa-1" style="stroke:#181818;stroke-width:1;"/><polygon fill="#181818" points="272.49,373.9869,268.8116,364.8507,268.8998,370.5069,263.2436,370.5951,272.49,373.9869" style="stroke:#181818;stroke-width:1;"/><text fill="#000000" font-family="sans-serif" font-size="13" lengthAdjust="spacing" textLength="183.9551" x="237.46" y="319.3638">actualizar estado a ocupada</text></g><!--link MesaController to Zona--><g class="link" data-entity-1="ent0005" data-entity-2="ent0008" data-link-type="dependency" data-source-line="21" id="lnk13"><path codeLine="21" d="M325.69,255.1769 C361.64,261.1369 402.7,274.9669 425.46,306.2969 C439.88,326.1569 432.5205,348.989 421.6905,368.689" fill="none" id="MesaController-to-Zona" style="stroke:#181818;stroke-width:1;"/><polygon fill="#181818" points="418.8,373.9469,426.641,367.9871,421.2087,369.5653,419.6305,364.1331,418.8,373.9469" style="stroke:#181818;stroke-width:1;"/><text fill="#000000" font-family="sans-serif" font-size="13" lengthAdjust="spacing" textLength="167.6924" x="433.46" y="319.3638">obtener contexto de zona</text></g><!--link MesaController to LogAuditoria--><g class="link" data-entity-1="ent0005" data-entity-2="ent0009" data-link-type="dependency" data-source-line="22" id="lnk14"><path codeLine="22" d="M325.58,251.8469 C417.8,254.2169 573.65,264.4869 609.46,306.2969 C629.04,329.1669 606.4711,352.0919 579.0411,370.5119" fill="none" id="MesaController-to-LogAuditoria" style="stroke:#181818;stroke-width:1;"/><polygon fill="#181818" points="574.06,373.8569,583.7616,372.1602,578.2109,371.0694,579.3017,365.5187,574.06,373.8569" style="stroke:#181818;stroke-width:1;"/><text fill="#000000" font-family="sans-serif" font-size="13" lengthAdjust="spacing" textLength="116.0732" x="616.46" y="319.3638">registrar apertura</text></g><?plantuml-src VP6nRi9038RtUmgBFL87faeW8TOobe7DkNCZgqSS-HnQWVhkTGI5D216d__lx4ysjaomVgzUvb31gbPMs5F144A7yHCRWjcMY-4CJW4WPYm5DXueMwQly3EAhQKrbOn9bCeqVcbcqd_CHX9bkKjVYvsqj-9DcbMVs4GPXr-kQq1LBITJu1MAP8vig80TgVMAaEWiDyd-uGuTIFc3eqFaqabW0PbhfIS8Hkiny_7684ZiEqmF1mrAJabjrFfJz2vzcmox7GVR1yXOt56bnY-Y8x5V?></g></svg>