<svg xmlns="http://www.w3.org/2000/svg" xmlns:xlink="http://www.w3.org/1999/xlink" contentStyleType="text/css" data-diagram-type="CLASS" height="453px" preserveAspectRatio="none" style="width:991px;height:453px;background:#FFFFFF;" version="1.1" viewBox="0 0 991 453" width="991px" zoomAndPan="magnify"><?plantuml 1.2026.3beta6?><defs/><g><g class="title" data-source-line="1"><text fill="#000000" font-family="sans-serif" font-size="14" font-weight="700" lengthAdjust="spacing" textLength="159.1611" x="412.8642" y="22.9951">CU-05 - Cerrar mesa</text></g><!--cluster Vista--><g class="cluster" data-qualified-name="Vista" data-source-line="4" id="ent0002"><path d="M330.08,43.2969 L371.1864,43.2969 A3.75,3.75 0 0 1 373.6864,45.7969 L380.6864,65.5938 L598.08,65.5938 A2.5,2.5 0 0 1 600.58,68.0938 L600.58,139.7969 A2.5,2.5 0 0 1 598.08,142.2969 L330.08,142.2969 A2.5,2.5 0 0 1 327.58,139.7969 L327.58,45.7969 A2.5,2.5 0 0 1 330.08,43.2969" fill="none" style="stroke:#000000;stroke-width:1.5;"/><line style="stroke:#000000;stroke-width:1.5;" x1="327.58" x2="380.6864" y1="65.5938" y2="65.5938"/><text fill="#000000" font-family="sans-serif" font-size="14" font-weight="700" lengthAdjust="spacing" textLength="40.1064" x="331.58" y="58.292">Vista</text></g><!--cluster Controladores--><g class="cluster" data-qualified-name="Controladores" data-source-line="9" id="ent0005"><path d="M381.08,191.2969 L493.7724,191.2969 A3.75,3.75 0 0 1 496.2724,193.7969 L503.2724,213.5938 L546.08,213.5938 A2.5,2.5 0 0 1 548.58,216.0938 L548.58,287.7969 A2.5,2.5 0 0 1 546.08,290.2969 L381.08,290.2969 A2.5,2.5 0 0 1 378.58,287.7969 L378.58,193.7969 A2.5,2.5 0 0 1 381.08,191.2969" fill="none" style="stroke:#000000;stroke-width:1.5;"/><line style="stroke:#000000;stroke-width:1.5;" x1="378.58" x2="503.2724" y1="213.5938" y2="213.5938"/><text fill="#000000" font-family="sans-serif" font-size="14" font-weight="700" lengthAdjust="spacing" textLength="111.6924" x="382.58" y="206.292">Controladores</text></g><!--cluster Modelos--><g class="cluster" data-qualified-name="Modelos" data-source-line="13" id="ent0007"><path d="M310.08,339.2969 L376.8964,339.2969 A3.75,3.75 0 0 1 379.3964,341.7969 L386.3964,361.5938 L772.08,361.5938 A2.5,2.5 0 0 1 774.58,364.0938 L774.58,435.7969 A2.5,2.5 0 0 1 772.08,438.2969 L310.08,438.2969 A2.5,2.5 0 0 1 307.58,435.7969 L307.58,341.7969 A2.5,2.5 0 0 1 310.08,339.2969" fill="none" style="stroke:#000000;stroke-width:1.5;"/><line style="stroke:#000000;stroke-width:1.5;" x1="307.58" x2="386.3964" y1="361.5938" y2="361.5938"/><text fill="#000000" font-family="sans-serif" font-size="14" font-weight="700" lengthAdjust="spacing" textLength="65.8164" x="311.58" y="354.292">Modelos</text></g><!--class CajaView--><g class="entity" data-qualified-name="Vista.CajaView" data-source-line="5" id="ent0003"><rect fill="#F1F1F1" height="48" rx="2.5" ry="2.5" style="stroke:#181818;stroke-width:0.5;" width="96.3535" x="343.4" y="78.2969"/><ellipse cx="358.4" cy="94.2969" fill="#ADD1B2" rx="11" ry="11" style="stroke:#181818;stroke-width:1;"/><path d="M361.3688,99.9375 Q360.7906,100.2344 360.15,100.375 Q359.5094,100.5313 358.8063,100.5313 Q356.3063,100.5313 354.9781,98.8906 Q353.6656,97.2344 353.6656,94.1094 Q353.6656,90.9844 354.9781,89.3281 Q356.3063,87.6719 358.8063,87.6719 Q359.5094,87.6719 360.15,87.8281 Q360.8063,87.9844 361.3688,88.2813 L361.3688,91 Q360.7438,90.4219 360.15,90.1563 Q359.5563,89.875 358.9313,89.875 Q357.5875,89.875 356.9,90.9531 Q356.2125,92.0156 356.2125,94.1094 Q356.2125,96.2031 356.9,97.2813 Q357.5875,98.3438 358.9313,98.3438 Q359.5563,98.3438 360.15,98.0781 Q360.7438,97.7969 361.3688,97.2188 L361.3688,99.9375 Z " fill="#000000"/><text fill="#000000" font-family="sans-serif" font-size="14" lengthAdjust="spacing" textLength="64.3535" x="372.4" y="99.1436">CajaView</text><line style="stroke:#181818;stroke-width:0.5;" x1="344.4" x2="438.7535" y1="110.2969" y2="110.2969"/><line style="stroke:#181818;stroke-width:0.5;" x1="344.4" x2="438.7535" y1="118.2969" y2="118.2969"/></g><!--class MesasView--><g class="entity" data-qualified-name="Vista.MesasView" data-source-line="6" id="ent0004"><rect fill="#F1F1F1" height="48" rx="2.5" ry="2.5" style="stroke:#181818;stroke-width:0.5;" width="109.3896" x="474.88" y="78.2969"/><ellipse cx="489.88" cy="94.2969" fill="#ADD1B2" rx="11" ry="11" style="stroke:#181818;stroke-width:1;"/><path d="M492.8488,99.9375 Q492.2706,100.2344 491.63,100.375 Q490.9894,100.5313 490.2863,100.5313 Q487.7863,100.5313 486.4581,98.8906 Q485.1456,97.2344 485.1456,94.1094 Q485.1456,90.9844 486.4581,89.3281 Q487.7863,87.6719 490.2863,87.6719 Q490.9894,87.6719 491.63,87.8281 Q492.2863,87.9844 492.8488,88.2813 L492.8488,91 Q492.2238,90.4219 491.63,90.1563 Q491.0363,89.875 490.4113,89.875 Q489.0675,89.875 488.38,90.9531 Q487.6925,92.0156 487.6925,94.1094 Q487.6925,96.2031 488.38,97.2813 Q489.0675,98.3438 490.4113,98.3438 Q491.0363,98.3438 491.63,98.0781 Q492.2238,97.7969 492.8488,97.2188 L492.8488,99.9375 Z " fill="#000000"/><text fill="#000000" font-family="sans-serif" font-size="14" lengthAdjust="spacing" textLength="77.3896" x="503.88" y="99.1436">MesasView</text><line style="stroke:#181818;stroke-width:0.5;" x1="475.88" x2="583.2696" y1="110.2969" y2="110.2969"/><line style="stroke:#181818;stroke-width:0.5;" x1="475.88" x2="583.2696" y1="118.2969" y2="118.2969"/></g><!--class MesaController--><g class="entity" data-qualified-name="Controladores.MesaController" data-source-line="10" id="ent0006"><rect fill="#F1F1F1" height="48" rx="2.5" ry="2.5" style="stroke:#181818;stroke-width:0.5;" width="137.7383" x="394.71" y="226.2969"/><ellipse cx="409.71" cy="242.2969" fill="#ADD1B2" rx="11" ry="11" style="stroke:#181818;stroke-width:1;"/><path d="M412.6788,247.9375 Q412.1006,248.2344 411.46,248.375 Q410.8194,248.5313 410.1163,248.5313 Q407.6163,248.5313 406.2881,246.8906 Q404.9756,245.2344 404.9756,242.1094 Q404.9756,238.9844 406.2881,237.3281 Q407.6163,235.6719 410.1163,235.6719 Q410.8194,235.6719 411.46,235.8281 Q412.1163,235.9844 412.6788,236.2813 L412.6788,239 Q412.0538,238.4219 411.46,238.1563 Q410.8663,237.875 410.2413,237.875 Q408.8975,237.875 408.21,238.9531 Q407.5225,240.0156 407.5225,242.1094 Q407.5225,244.2031 408.21,245.2813 Q408.8975,246.3438 410.2413,246.3438 Q410.8663,246.3438 411.46,246.0781 Q412.0538,245.7969 412.6788,245.2188 L412.6788,247.9375 Z " fill="#000000"/><text fill="#000000" font-family="sans-serif" font-size="14" lengthAdjust="spacing" textLength="105.7383" x="423.71" y="247.1436">MesaController</text><line style="stroke:#181818;stroke-width:0.5;" x1="395.71" x2="531.4483" y1="258.2969" y2="258.2969"/><line style="stroke:#181818;stroke-width:0.5;" x1="395.71" x2="531.4483" y1="266.2969" y2="266.2969"/></g><!--class Mesa--><g class="entity" data-qualified-name="Modelos.Mesa" data-source-line="14" id="ent0008"><rect fill="#F1F1F1" height="48" rx="2.5" ry="2.5" style="stroke:#181818;stroke-width:0.5;" width="68.5654" x="323.3" y="374.2969"/><ellipse cx="338.3" cy="390.2969" fill="#ADD1B2" rx="11" ry="11" style="stroke:#181818;stroke-width:1;"/><path d="M341.2688,395.9375 Q340.6906,396.2344 340.05,396.375 Q339.4094,396.5313 338.7063,396.5313 Q336.2063,396.5313 334.8781,394.8906 Q333.5656,393.2344 333.5656,390.1094 Q333.5656,386.9844 334.8781,385.3281 Q336.2063,383.6719 338.7063,383.6719 Q339.4094,383.6719 340.05,383.8281 Q340.7063,383.9844 341.2688,384.2813 L341.2688,387 Q340.6438,386.4219 340.05,386.1563 Q339.4563,385.875 338.8313,385.875 Q337.4875,385.875 336.8,386.9531 Q336.1125,388.0156 336.1125,390.1094 Q336.1125,392.2031 336.8,393.2813 Q337.4875,394.3438 338.8313,394.3438 Q339.4563,394.3438 340.05,394.0781 Q340.6438,393.7969 341.2688,393.2188 L341.2688,395.9375 Z " fill="#000000"/><text fill="#000000" font-family="sans-serif" font-size="14" lengthAdjust="spacing" textLength="36.5654" x="352.3" y="395.1436">Mesa</text><line style="stroke:#181818;stroke-width:0.5;" x1="324.3" x2="390.8654" y1="406.2969" y2="406.2969"/><line style="stroke:#181818;stroke-width:0.5;" x1="324.3" x2="390.8654" y1="414.2969" y2="414.2969"/></g><!--class Ticket--><g class="entity" data-qualified-name="Modelos.Ticket" data-source-line="15" id="ent0009"><rect fill="#F1F1F1" height="48" rx="2.5" ry="2.5" style="stroke:#181818;stroke-width:0.5;" width="74.3486" x="426.4" y="374.2969"/><ellipse cx="441.4" cy="390.2969" fill="#ADD1B2" rx="11" ry="11" style="stroke:#181818;stroke-width:1;"/><path d="M444.3688,395.9375 Q443.7906,396.2344 443.15,396.375 Q442.5094,396.5313 441.8063,396.5313 Q439.3063,396.5313 437.9781,394.8906 Q436.6656,393.2344 436.6656,390.1094 Q436.6656,386.9844 437.9781,385.3281 Q439.3063,383.6719 441.8063,383.6719 Q442.5094,383.6719 443.15,383.8281 Q443.8063,383.9844 444.3688,384.2813 L444.3688,387 Q443.7438,386.4219 443.15,386.1563 Q442.5563,385.875 441.9313,385.875 Q440.5875,385.875 439.9,386.9531 Q439.2125,388.0156 439.2125,390.1094 Q439.2125,392.2031 439.9,393.2813 Q440.5875,394.3438 441.9313,394.3438 Q442.5563,394.3438 443.15,394.0781 Q443.7438,393.7969 444.3688,393.2188 L444.3688,395.9375 Z " fill="#000000"/><text fill="#000000" font-family="sans-serif" font-size="14" lengthAdjust="spacing" textLength="42.3486" x="455.4" y="395.1436">Ticket</text><line style="stroke:#181818;stroke-width:0.5;" x1="427.4" x2="499.7486" y1="406.2969" y2="406.2969"/><line style="stroke:#181818;stroke-width:0.5;" x1="427.4" x2="499.7486" y1="414.2969" y2="414.2969"/></g><!--class Zona--><g class="entity" data-qualified-name="Modelos.Zona" data-source-line="16" id="ent0010"><rect fill="#F1F1F1" height="48" rx="2.5" ry="2.5" style="stroke:#181818;stroke-width:0.5;" width="67.6084" x="535.77" y="374.2969"/><ellipse cx="550.77" cy="390.2969" fill="#ADD1B2" rx="11" ry="11" style="stroke:#181818;stroke-width:1;"/><path d="M553.7388,395.9375 Q553.1606,396.2344 552.52,396.375 Q551.8794,396.5313 551.1763,396.5313 Q548.6763,396.5313 547.3481,394.8906 Q546.0356,393.2344 546.0356,390.1094 Q546.0356,386.9844 547.3481,385.3281 Q548.6763,383.6719 551.1763,383.6719 Q551.8794,383.6719 552.52,383.8281 Q553.1763,383.9844 553.7388,384.2813 L553.7388,387 Q553.1138,386.4219 552.52,386.1563 Q551.9263,385.875 551.3013,385.875 Q549.9575,385.875 549.27,386.9531 Q548.5825,388.0156 548.5825,390.1094 Q548.5825,392.2031 549.27,393.2813 Q549.9575,394.3438 551.3013,394.3438 Q551.9263,394.3438 552.52,394.0781 Q553.1138,393.7969 553.7388,393.2188 L553.7388,395.9375 Z " fill="#000000"/><text fill="#000000" font-family="sans-serif" font-size="14" lengthAdjust="spacing" textLength="35.6084" x="564.77" y="395.1436">Zona</text><line style="stroke:#181818;stroke-width:0.5;" x1="536.77" x2="602.3784" y1="406.2969" y2="406.2969"/><line style="stroke:#181818;stroke-width:0.5;" x1="536.77" x2="602.3784" y1="414.2969" y2="414.2969"/></g><!--class LogAuditoria--><g class="entity" data-qualified-name="Modelos.LogAuditoria" data-source-line="17" id="ent0011"><rect fill="#F1F1F1" height="48" rx="2.5" ry="2.5" style="stroke:#181818;stroke-width:0.5;" width="120.7578" x="638.2" y="374.2969"/><ellipse cx="653.2" cy="390.2969" fill="#ADD1B2" rx="11" ry="11" style="stroke:#181818;stroke-width:1;"/><path d="M656.1688,395.9375 Q655.5906,396.2344 654.95,396.375 Q654.3094,396.5313 653.6063,396.5313 Q651.1063,396.5313 649.7781,394.8906 Q648.4656,393.2344 648.4656,390.1094 Q648.4656,386.9844 649.7781,385.3281 Q651.1063,383.6719 653.6063,383.6719 Q654.3094,383.6719 654.95,383.8281 Q655.6063,383.9844 656.1688,384.2813 L656.1688,387 Q655.5438,386.4219 654.95,386.1563 Q654.3563,385.875 653.7313,385.875 Q652.3875,385.875 651.7,386.9531 Q651.0125,388.0156 651.0125,390.1094 Q651.0125,392.2031 651.7,393.2813 Q652.3875,394.3438 653.7313,394.3438 Q654.3563,394.3438 654.95,394.0781 Q655.5438,393.7969 656.1688,393.2188 L656.1688,395.9375 Z " fill="#000000"/><text fill="#000000" font-family="sans-serif" font-size="14" lengthAdjust="spacing" textLength="88.7578" x="667.2" y="395.1436">LogAuditoria</text><line style="stroke:#181818;stroke-width:0.5;" x1="639.2" x2="757.9578" y1="406.2969" y2="406.2969"/><line style="stroke:#181818;stroke-width:0.5;" x1="639.2" x2="757.9578" y1="414.2969" y2="414.2969"/></g><!--link CajaView to MesaController--><g class="link" data-entity-1="ent0003" data-entity-2="ent0006" data-link-type="dependency" data-source-line="20" id="lnk12"><path codeLine="20" d="M368.65,126.4969 C357.49,140.6969 348.12,159.1669 356.58,175.2969 C368.06,197.1969 384.1128,210.8915 404.6528,222.8315" fill="none" id="CajaView-to-MesaController" style="stroke:#181818;stroke-width:1;"/><polygon fill="#181818" points="409.84,225.8469,404.0694,217.8657,405.5173,223.3341,400.0489,224.782,409.84,225.8469" style="stroke:#181818;stroke-width:1;"/><text fill="#000000" font-family="sans-serif" font-size="13" lengthAdjust="spacing" textLength="152.6104" x="357.58" y="171.3638">solicitar cierre de mesa</text></g><!--link MesaController to Mesa--><g class="link" data-entity-1="ent0006" data-entity-2="ent0008" data-link-type="dependency" data-source-line="21" id="lnk13"><path codeLine="21" d="M394.51,255.4469 C281.49,262.9569 67.26,280.4469 44.58,306.2969 C6,350.2769 227.9336,381.845 317.0436,392.645" fill="none" id="MesaController-to-Mesa" style="stroke:#181818;stroke-width:1;"/><polygon fill="#181818" points="323,393.3669,314.5467,388.3131,318.0363,392.7653,313.5841,396.255,323,393.3669" style="stroke:#181818;stroke-width:1;"/><text fill="#000000" font-family="sans-serif" font-size="13" lengthAdjust="spacing" textLength="176.4014" x="45.58" y="319.3638">verificar estado = ocupada</text></g><!--link MesaController to Mesa--><g class="link" data-entity-1="ent0006" data-entity-2="ent0008" data-link-type="dependency" data-source-line="23" id="lnk15"><path codeLine="23" d="M394.37,254.9869 C358.11,260.8769 316.57,274.6869 293.58,306.2969 C276.99,329.0969 295.4649,351.7261 318.4249,370.1961" fill="none" id="MesaController-to-Mesa-1" style="stroke:#181818;stroke-width:1;"/><polygon fill="#181818" points="323.1,373.9569,318.5946,365.1989,319.2041,370.8229,313.5802,371.4324,323.1,373.9569" style="stroke:#181818;stroke-width:1;"/><text fill="#000000" font-family="sans-serif" font-size="13" lengthAdjust="spacing" textLength="156.9966" x="294.58" y="319.3638">actualizar estado a libre</text></g><!--link MesaController to Ticket--><g class="link" data-entity-1="ent0006" data-entity-2="ent0009" data-link-type="dependency" data-source-line="22" id="lnk14"><path codeLine="22" d="M462.03,274.5669 C461.45,284.3569 460.86,295.8769 460.58,306.2969 C459.95,329.3669 460.6745,349.7263 461.7045,368.1163" fill="none" id="MesaController-to-Ticket" style="stroke:#181818;stroke-width:1;"/><polygon fill="#181818" points="462.04,374.1069,465.5305,364.8973,461.7604,369.1147,457.543,365.3446,462.04,374.1069" style="stroke:#181818;stroke-width:1;"/><text fill="#000000" font-family="sans-serif" font-size="13" lengthAdjust="spacing" textLength="168.4922" x="461.58" y="319.3638">comprobar ticket cobrado</text></g><!--link MesaController to Zona--><g class="link" data-entity-1="ent0006" data-entity-2="ent0010" data-link-type="dependency" data-source-line="24" id="lnk16"><path codeLine="24" d="M532.74,254.8069 C569.32,260.6169 611.34,274.4169 634.58,306.2969 C639.03,312.4069 638.37,316.7669 634.58,323.2969 C630.98,329.4969 625.98,326.5969 620.58,331.2969 C606.38,343.6569 596.8394,355.5259 587.5494,369.0959" fill="none" id="MesaController-to-Zona" style="stroke:#181818;stroke-width:1;"/><polygon fill="#181818" points="584.16,374.0469,592.5447,368.8801,586.9845,369.9211,585.9435,364.3608,584.16,374.0469" style="stroke:#181818;stroke-width:1;"/><text fill="#000000" font-family="sans-serif" font-size="13" lengthAdjust="spacing" textLength="222.6123" x="638.58" y="319.3638">actualizar contexto visual de zona</text></g><!--link MesaController to LogAuditoria--><g class="link" data-entity-1="ent0006" data-entity-2="ent0011" data-link-type="dependency" data-source-line="25" id="lnk17"><path codeLine="25" d="M532.72,255.7669 C642.8,263.5969 847.79,281.3569 869.58,306.2969 C906.58,348.6569 828.129,373.3081 765.209,386.1381" fill="none" id="MesaController-to-LogAuditoria" style="stroke:#181818;stroke-width:1;"/><polygon fill="#181818" points="759.33,387.3369,768.9477,389.458,764.2292,386.3379,767.3493,381.6193,759.33,387.3369" style="stroke:#181818;stroke-width:1;"/><text fill="#000000" font-family="sans-serif" font-size="13" lengthAdjust="spacing" textLength="97.3096" x="878.58" y="319.3638">registrar cierre</text></g><!--link MesaController to MesasView--><g class="link" data-entity-1="ent0006" data-entity-2="ent0004" data-link-type="dependency" data-source-line="26" id="lnk18"><path codeLine="26" d="M485.71,225.8269 C497.37,212.1269 510.81,193.9069 518.58,175.2969 C525.01,159.8969 527.2629,147.2187 528.3929,132.7487" fill="none" id="MesaController-to-MesasView" style="stroke:#181818;stroke-width:1;"/><polygon fill="#181818" points="528.86,126.7669,524.1714,135.4281,528.4707,131.7517,532.1472,136.051,528.86,126.7669" style="stroke:#181818;stroke-width:1;"/><text fill="#000000" font-family="sans-serif" font-size="13" lengthAdjust="spacing" textLength="203.0615" x="523.58" y="171.3638">actualizar plano en tiempo real</text></g><?plantuml-src VP6zJiDG38NtF8NLFH8B2n98A2lTe4CtvrvJcTx4aQzJK17lZjFID2c5qSV-_7DiR8cWUYblRg64YbHHeQ6CXKa79b2BcJGGMIaOIriK7OOjRWWMAyw62_Wi04B2dA72DrmnlO_2qXlbW_8ruIffJILX5AKyvOVodsGYdJ5BYPJaL_KOF7FOaetXMjfpxaasZtra4sKScfxMXB9yk9W9Tv0bSM1p6mAx7GIHZePSL9vWHtQa_Ch14N97ei0zIEWxZ5UXuwgE1MawbTenEqf1QdNydqaOhCV4-_CeXCIrqZLcC67E12-W3__gZhDhmsdxmQahyDGqRwAqyM_hwCfVEnw-FH_Q9Mm5gFKhgUd4Ms7w1W00?></g></svg>