<svg xmlns="http://www.w3.org/2000/svg" xmlns:xlink="http://www.w3.org/1999/xlink" contentStyleType="text/css" data-diagram-type="CLASS" height="578px" preserveAspectRatio="none" style="width:969px;height:578px;background:#FFFFFF;" version="1.1" viewBox="0 0 969 578" width="969px" zoomAndPan="magnify"><?plantuml 1.2026.3beta6?><defs/><g><g class="title" data-source-line="1"><text fill="#000000" font-family="sans-serif" font-size="14" font-weight="700" lengthAdjust="spacing" textLength="227.0283" x="367.7439" y="22.9951">CU-17 - Cobrar ticket en caja</text></g><!--cluster Vista--><g class="cluster" data-qualified-name="Vista" data-source-line="4" id="ent0002"><path d="M83.5,43.2969 L124.6064,43.2969 A3.75,3.75 0 0 1 127.1064,45.7969 L134.1064,65.5938 L206.5,65.5938 A2.5,2.5 0 0 1 209,68.0938 L209,139.7969 A2.5,2.5 0 0 1 206.5,142.2969 L83.5,142.2969 A2.5,2.5 0 0 1 81,139.7969 L81,45.7969 A2.5,2.5 0 0 1 83.5,43.2969" fill="none" style="stroke:#000000;stroke-width:1.5;"/><line style="stroke:#000000;stroke-width:1.5;" x1="81" x2="134.1064" y1="65.5938" y2="65.5938"/><text fill="#000000" font-family="sans-serif" font-size="14" font-weight="700" lengthAdjust="spacing" textLength="40.1064" x="85" y="58.292">Vista</text></g><!--cluster Controladores--><g class="cluster" data-qualified-name="Controladores" data-source-line="8" id="ent0004"><path d="M8.5,191.2969 L121.1924,191.2969 A3.75,3.75 0 0 1 123.6924,193.7969 L130.6924,213.5938 L224.5,213.5938 A2.5,2.5 0 0 1 227,216.0938 L227,412.7969 A2.5,2.5 0 0 1 224.5,415.2969 L8.5,415.2969 A2.5,2.5 0 0 1 6,412.7969 L6,193.7969 A2.5,2.5 0 0 1 8.5,191.2969" fill="none" style="stroke:#000000;stroke-width:1.5;"/><line style="stroke:#000000;stroke-width:1.5;" x1="6" x2="130.6924" y1="213.5938" y2="213.5938"/><text fill="#000000" font-family="sans-serif" font-size="14" font-weight="700" lengthAdjust="spacing" textLength="111.6924" x="10" y="206.292">Controladores</text></g><!--cluster Modelos--><g class="cluster" data-qualified-name="Modelos" data-source-line="13" id="ent0007"><path d="M313.5,464.2969 L380.3164,464.2969 A3.75,3.75 0 0 1 382.8164,466.7969 L389.8164,486.5938 L793.5,486.5938 A2.5,2.5 0 0 1 796,489.0938 L796,560.7969 A2.5,2.5 0 0 1 793.5,563.2969 L313.5,563.2969 A2.5,2.5 0 0 1 311,560.7969 L311,466.7969 A2.5,2.5 0 0 1 313.5,464.2969" fill="none" style="stroke:#000000;stroke-width:1.5;"/><line style="stroke:#000000;stroke-width:1.5;" x1="311" x2="389.8164" y1="486.5938" y2="486.5938"/><text fill="#000000" font-family="sans-serif" font-size="14" font-weight="700" lengthAdjust="spacing" textLength="65.8164" x="315" y="479.292">Modelos</text></g><!--class CajaView--><g class="entity" data-qualified-name="Vista.CajaView" data-source-line="5" id="ent0003"><rect fill="#F1F1F1" height="48" rx="2.5" ry="2.5" style="stroke:#181818;stroke-width:0.5;" width="96.3535" x="96.82" y="78.2969"/><ellipse cx="111.82" cy="94.2969" fill="#ADD1B2" rx="11" ry="11" style="stroke:#181818;stroke-width:1;"/><path d="M114.7888,99.9375 Q114.2106,100.2344 113.57,100.375 Q112.9294,100.5313 112.2263,100.5313 Q109.7263,100.5313 108.3981,98.8906 Q107.0856,97.2344 107.0856,94.1094 Q107.0856,90.9844 108.3981,89.3281 Q109.7263,87.6719 112.2263,87.6719 Q112.9294,87.6719 113.57,87.8281 Q114.2263,87.9844 114.7888,88.2813 L114.7888,91 Q114.1638,90.4219 113.57,90.1563 Q112.9763,89.875 112.3513,89.875 Q111.0075,89.875 110.32,90.9531 Q109.6325,92.0156 109.6325,94.1094 Q109.6325,96.2031 110.32,97.2813 Q111.0075,98.3438 112.3513,98.3438 Q112.9763,98.3438 113.57,98.0781 Q114.1638,97.7969 114.7888,97.2188 L114.7888,99.9375 Z " fill="#000000"/><text fill="#000000" font-family="sans-serif" font-size="14" lengthAdjust="spacing" textLength="64.3535" x="125.82" y="99.1436">CajaView</text><line style="stroke:#181818;stroke-width:0.5;" x1="97.82" x2="192.1735" y1="110.2969" y2="110.2969"/><line style="stroke:#181818;stroke-width:0.5;" x1="97.82" x2="192.1735" y1="118.2969" y2="118.2969"/></g><!--class CajaController--><g class="entity" data-qualified-name="Controladores.CajaController" data-source-line="9" id="ent0005"><rect fill="#F1F1F1" height="48" rx="2.5" ry="2.5" style="stroke:#181818;stroke-width:0.5;" width="131.9961" x="79" y="226.2969"/><ellipse cx="94" cy="242.2969" fill="#ADD1B2" rx="11" ry="11" style="stroke:#181818;stroke-width:1;"/><path d="M96.9688,247.9375 Q96.3906,248.2344 95.75,248.375 Q95.1094,248.5313 94.4063,248.5313 Q91.9063,248.5313 90.5781,246.8906 Q89.2656,245.2344 89.2656,242.1094 Q89.2656,238.9844 90.5781,237.3281 Q91.9063,235.6719 94.4063,235.6719 Q95.1094,235.6719 95.75,235.8281 Q96.4063,235.9844 96.9688,236.2813 L96.9688,239 Q96.3438,238.4219 95.75,238.1563 Q95.1563,237.875 94.5313,237.875 Q93.1875,237.875 92.5,238.9531 Q91.8125,240.0156 91.8125,242.1094 Q91.8125,244.2031 92.5,245.2813 Q93.1875,246.3438 94.5313,246.3438 Q95.1563,246.3438 95.75,246.0781 Q96.3438,245.7969 96.9688,245.2188 L96.9688,247.9375 Z " fill="#000000"/><text fill="#000000" font-family="sans-serif" font-size="14" lengthAdjust="spacing" textLength="99.9961" x="108" y="247.1436">CajaController</text><line style="stroke:#181818;stroke-width:0.5;" x1="80" x2="209.9961" y1="258.2969" y2="258.2969"/><line style="stroke:#181818;stroke-width:0.5;" x1="80" x2="209.9961" y1="266.2969" y2="266.2969"/></g><!--class MesaController--><g class="entity" data-qualified-name="Controladores.MesaController" data-source-line="10" id="ent0006"><rect fill="#F1F1F1" height="48" rx="2.5" ry="2.5" style="stroke:#181818;stroke-width:0.5;" width="137.7383" x="22.13" y="351.2969"/><ellipse cx="37.13" cy="367.2969" fill="#ADD1B2" rx="11" ry="11" style="stroke:#181818;stroke-width:1;"/><path d="M40.0988,372.9375 Q39.5206,373.2344 38.88,373.375 Q38.2394,373.5313 37.5363,373.5313 Q35.0363,373.5313 33.7081,371.8906 Q32.3956,370.2344 32.3956,367.1094 Q32.3956,363.9844 33.7081,362.3281 Q35.0363,360.6719 37.5363,360.6719 Q38.2394,360.6719 38.88,360.8281 Q39.5363,360.9844 40.0988,361.2813 L40.0988,364 Q39.4738,363.4219 38.88,363.1563 Q38.2863,362.875 37.6613,362.875 Q36.3175,362.875 35.63,363.9531 Q34.9425,365.0156 34.9425,367.1094 Q34.9425,369.2031 35.63,370.2813 Q36.3175,371.3438 37.6613,371.3438 Q38.2863,371.3438 38.88,371.0781 Q39.4738,370.7969 40.0988,370.2188 L40.0988,372.9375 Z " fill="#000000"/><text fill="#000000" font-family="sans-serif" font-size="14" lengthAdjust="spacing" textLength="105.7383" x="51.13" y="372.1436">MesaController</text><line style="stroke:#181818;stroke-width:0.5;" x1="23.13" x2="158.8683" y1="383.2969" y2="383.2969"/><line style="stroke:#181818;stroke-width:0.5;" x1="23.13" x2="158.8683" y1="391.2969" y2="391.2969"/></g><!--class Ticket--><g class="entity" data-qualified-name="Modelos.Ticket" data-source-line="14" id="ent0008"><rect fill="#F1F1F1" height="48" rx="2.5" ry="2.5" style="stroke:#181818;stroke-width:0.5;" width="74.3486" x="429.83" y="499.2969"/><ellipse cx="444.83" cy="515.2969" fill="#ADD1B2" rx="11" ry="11" style="stroke:#181818;stroke-width:1;"/><path d="M447.7988,520.9375 Q447.2206,521.2344 446.58,521.375 Q445.9394,521.5313 445.2363,521.5313 Q442.7363,521.5313 441.4081,519.8906 Q440.0956,518.2344 440.0956,515.1094 Q440.0956,511.9844 441.4081,510.3281 Q442.7363,508.6719 445.2363,508.6719 Q445.9394,508.6719 446.58,508.8281 Q447.2363,508.9844 447.7988,509.2813 L447.7988,512 Q447.1738,511.4219 446.58,511.1563 Q445.9863,510.875 445.3613,510.875 Q444.0175,510.875 443.33,511.9531 Q442.6425,513.0156 442.6425,515.1094 Q442.6425,517.2031 443.33,518.2813 Q444.0175,519.3438 445.3613,519.3438 Q445.9863,519.3438 446.58,519.0781 Q447.1738,518.7969 447.7988,518.2188 L447.7988,520.9375 Z " fill="#000000"/><text fill="#000000" font-family="sans-serif" font-size="14" lengthAdjust="spacing" textLength="42.3486" x="458.83" y="520.1436">Ticket</text><line style="stroke:#181818;stroke-width:0.5;" x1="430.83" x2="503.1786" y1="531.2969" y2="531.2969"/><line style="stroke:#181818;stroke-width:0.5;" x1="430.83" x2="503.1786" y1="539.2969" y2="539.2969"/></g><!--class Mesa--><g class="entity" data-qualified-name="Modelos.Mesa" data-source-line="15" id="ent0009"><rect fill="#F1F1F1" height="48" rx="2.5" ry="2.5" style="stroke:#181818;stroke-width:0.5;" width="68.5654" x="326.72" y="499.2969"/><ellipse cx="341.72" cy="515.2969" fill="#ADD1B2" rx="11" ry="11" style="stroke:#181818;stroke-width:1;"/><path d="M344.6888,520.9375 Q344.1106,521.2344 343.47,521.375 Q342.8294,521.5313 342.1263,521.5313 Q339.6263,521.5313 338.2981,519.8906 Q336.9856,518.2344 336.9856,515.1094 Q336.9856,511.9844 338.2981,510.3281 Q339.6263,508.6719 342.1263,508.6719 Q342.8294,508.6719 343.47,508.8281 Q344.1263,508.9844 344.6888,509.2813 L344.6888,512 Q344.0638,511.4219 343.47,511.1563 Q342.8763,510.875 342.2513,510.875 Q340.9075,510.875 340.22,511.9531 Q339.5325,513.0156 339.5325,515.1094 Q339.5325,517.2031 340.22,518.2813 Q340.9075,519.3438 342.2513,519.3438 Q342.8763,519.3438 343.47,519.0781 Q344.0638,518.7969 344.6888,518.2188 L344.6888,520.9375 Z " fill="#000000"/><text fill="#000000" font-family="sans-serif" font-size="14" lengthAdjust="spacing" textLength="36.5654" x="355.72" y="520.1436">Mesa</text><line style="stroke:#181818;stroke-width:0.5;" x1="327.72" x2="394.2854" y1="531.2969" y2="531.2969"/><line style="stroke:#181818;stroke-width:0.5;" x1="327.72" x2="394.2854" y1="539.2969" y2="539.2969"/></g><!--class Usuario--><g class="entity" data-qualified-name="Modelos.Usuario" data-source-line="16" id="ent0010"><rect fill="#F1F1F1" height="48" rx="2.5" ry="2.5" style="stroke:#181818;stroke-width:0.5;" width="85.2041" x="539.4" y="499.2969"/><ellipse cx="554.4" cy="515.2969" fill="#ADD1B2" rx="11" ry="11" style="stroke:#181818;stroke-width:1;"/><path d="M557.3688,520.9375 Q556.7906,521.2344 556.15,521.375 Q555.5094,521.5313 554.8063,521.5313 Q552.3063,521.5313 550.9781,519.8906 Q549.6656,518.2344 549.6656,515.1094 Q549.6656,511.9844 550.9781,510.3281 Q552.3063,508.6719 554.8063,508.6719 Q555.5094,508.6719 556.15,508.8281 Q556.8063,508.9844 557.3688,509.2813 L557.3688,512 Q556.7438,511.4219 556.15,511.1563 Q555.5563,510.875 554.9313,510.875 Q553.5875,510.875 552.9,511.9531 Q552.2125,513.0156 552.2125,515.1094 Q552.2125,517.2031 552.9,518.2813 Q553.5875,519.3438 554.9313,519.3438 Q555.5563,519.3438 556.15,519.0781 Q556.7438,518.7969 557.3688,518.2188 L557.3688,520.9375 Z " fill="#000000"/><text fill="#000000" font-family="sans-serif" font-size="14" lengthAdjust="spacing" textLength="53.2041" x="568.4" y="520.1436">Usuario</text><line style="stroke:#181818;stroke-width:0.5;" x1="540.4" x2="623.6041" y1="531.2969" y2="531.2969"/><line style="stroke:#181818;stroke-width:0.5;" x1="540.4" x2="623.6041" y1="539.2969" y2="539.2969"/></g><!--class LogAuditoria--><g class="entity" data-qualified-name="Modelos.LogAuditoria" data-source-line="17" id="ent0011"><rect fill="#F1F1F1" height="48" rx="2.5" ry="2.5" style="stroke:#181818;stroke-width:0.5;" width="120.7578" x="659.62" y="499.2969"/><ellipse cx="674.62" cy="515.2969" fill="#ADD1B2" rx="11" ry="11" style="stroke:#181818;stroke-width:1;"/><path d="M677.5888,520.9375 Q677.0106,521.2344 676.37,521.375 Q675.7294,521.5313 675.0263,521.5313 Q672.5263,521.5313 671.1981,519.8906 Q669.8856,518.2344 669.8856,515.1094 Q669.8856,511.9844 671.1981,510.3281 Q672.5263,508.6719 675.0263,508.6719 Q675.7294,508.6719 676.37,508.8281 Q677.0263,508.9844 677.5888,509.2813 L677.5888,512 Q676.9638,511.4219 676.37,511.1563 Q675.7763,510.875 675.1513,510.875 Q673.8075,510.875 673.12,511.9531 Q672.4325,513.0156 672.4325,515.1094 Q672.4325,517.2031 673.12,518.2813 Q673.8075,519.3438 675.1513,519.3438 Q675.7763,519.3438 676.37,519.0781 Q676.9638,518.7969 677.5888,518.2188 L677.5888,520.9375 Z " fill="#000000"/><text fill="#000000" font-family="sans-serif" font-size="14" lengthAdjust="spacing" textLength="88.7578" x="688.62" y="520.1436">LogAuditoria</text><line style="stroke:#181818;stroke-width:0.5;" x1="660.62" x2="779.3778" y1="531.2969" y2="531.2969"/><line style="stroke:#181818;stroke-width:0.5;" x1="660.62" x2="779.3778" y1="539.2969" y2="539.2969"/></g><!--link CajaView to CajaController--><g class="link" data-entity-1="ent0003" data-entity-2="ent0005" data-link-type="dependency" data-source-line="20" id="lnk12"><path codeLine="20" d="M145,126.7569 C145,153.9969 145,192.6769 145,219.8969" fill="none" id="CajaView-to-CajaController" style="stroke:#181818;stroke-width:1;"/><polygon fill="#181818" points="145,225.8969,149,216.8969,145,220.8969,141,216.8969,145,225.8969" style="stroke:#181818;stroke-width:1;"/><text fill="#000000" font-family="sans-serif" font-size="13" lengthAdjust="spacing" textLength="103.6318" x="146" y="171.3638">confirmar cobro</text></g><!--link CajaController to Usuario--><g class="link" data-entity-1="ent0005" data-entity-2="ent0010" data-link-type="dependency" data-source-line="21" id="lnk13"><path codeLine="21" d="M211.18,254.2569 C335.8,261.3669 597.76,284.1269 653,351.2969 C690.16,396.4869 642.7002,459.4664 609.7802,494.6364" fill="none" id="CajaController-to-Usuario" style="stroke:#181818;stroke-width:1;"/><polygon fill="#181818" points="605.68,499.0169,614.7506,495.1797,609.0968,495.3665,608.91,489.7127,605.68,499.0169" style="stroke:#181818;stroke-width:1;"/><text fill="#000000" font-family="sans-serif" font-size="13" lengthAdjust="spacing" textLength="169.5459" x="666" y="379.8638">verificar rol administrador</text></g><!--link CajaController to Ticket--><g class="link" data-entity-1="ent0005" data-entity-2="ent0008" data-link-type="dependency" data-source-line="22" id="lnk14"><path codeLine="22" d="M181.45,274.7369 C192.34,283.0669 203.61,293.1669 212,304.2969 C246.44,349.9669 217.14,386.5769 261,423.2969 C314.01,467.6669 354.04,420.1969 413,456.2969 C430.05,466.7369 440.8362,479.5018 450.3462,493.9818" fill="none" id="CajaController-to-Ticket" style="stroke:#181818;stroke-width:1;"/><polygon fill="#181818" points="453.64,498.9969,452.0428,489.2784,450.8952,494.8176,445.356,493.6701,453.64,498.9969" style="stroke:#181818;stroke-width:1;"/><text fill="#000000" font-family="sans-serif" font-size="13" lengthAdjust="spacing" textLength="161.313" x="262" y="379.8638">obtener ticket pendiente</text></g><!--link CajaController to Ticket--><g class="link" data-entity-1="ent0005" data-entity-2="ent0008" data-link-type="dependency" data-source-line="23" id="lnk15"><path codeLine="23" d="M211.45,256.7169 C276.16,265.6169 372.63,289.1369 428,351.2969 C465.17,393.0169 469.216,456.7882 468.456,492.9582" fill="none" id="CajaController-to-Ticket-1" style="stroke:#181818;stroke-width:1;"/><polygon fill="#181818" points="468.33,498.9569,472.5182,490.0429,468.435,493.958,464.5199,489.8748,468.33,498.9569" style="stroke:#181818;stroke-width:1;"/><text fill="#000000" font-family="sans-serif" font-size="13" lengthAdjust="spacing" textLength="181.0479" x="463" y="379.8638">actualizar estado a cobrado</text></g><!--link CajaController to LogAuditoria--><g class="link" data-entity-1="ent0005" data-entity-2="ent0011" data-link-type="dependency" data-source-line="24" id="lnk16"><path codeLine="24" d="M211.22,255.7469 C377.86,267.6169 804.15,302.5269 844,351.2969 C864.25,376.0769 857.88,394.4669 844,423.2969 C827.99,456.5569 799.9156,479.041 771.8856,495.851" fill="none" id="CajaController-to-LogAuditoria" style="stroke:#181818;stroke-width:1;"/><polygon fill="#181818" points="766.74,498.9369,776.5157,497.7384,771.028,496.3653,772.4011,490.8776,766.74,498.9369" style="stroke:#181818;stroke-width:1;"/><text fill="#000000" font-family="sans-serif" font-size="13" lengthAdjust="spacing" textLength="96.5161" x="857" y="379.8638">registrar cobro</text></g><!--link CajaController to MesaController--><g class="link" data-entity-1="ent0005" data-entity-2="ent0006" data-link-type="dependency" data-source-line="25" id="lnk17"><path codeLine="25" d="M84.5,274.6069 C72.33,282.1869 61.11,291.9369 54,304.2969 C45.16,319.6669 50.7656,332.7371 62.3256,346.4671" fill="none" id="CajaController-to-MesaController" style="stroke:#181818;stroke-width:1;"/><polygon fill="#181818" points="66.19,351.0569,63.4533,341.5959,62.9697,347.232,57.3335,346.7484,66.19,351.0569" style="stroke:#181818;stroke-width:1;"/><text fill="#000000" font-family="sans-serif" font-size="13" lengthAdjust="spacing" textLength="152.6104" x="55" y="317.3638">solicitar cierre de mesa</text></g><!--link MesaController to Mesa--><g class="link" data-entity-1="ent0006" data-entity-2="ent0009" data-link-type="dependency" data-source-line="26" id="lnk18"><path codeLine="26" d="M70.67,399.7869 C60.24,414.7869 51.85,434.0369 63,448.2969 C95.39,489.7069 248.8145,510.5941 320.2745,518.2941" fill="none" id="MesaController-to-Mesa" style="stroke:#181818;stroke-width:1;"/><polygon fill="#181818" points="326.24,518.9369,317.7203,513.9957,321.2688,518.4012,316.8633,521.9497,326.24,518.9369" style="stroke:#181818;stroke-width:1;"/><text fill="#000000" font-family="sans-serif" font-size="13" lengthAdjust="spacing" textLength="143.4316" x="64" y="444.3638">liberar mesa asociada</text></g><?plantuml-src VP6nRiCm34HtVGMHtKEd0XqA55wRhSbEIqp0HXO3Iaw15lttKcvYs4QGJHBlaSTJuH89sbtpz0mDjD8fAXJs9of02Jn-edFkZFw4HuBDddF13Vmu01ynPsXDi6VwShypLIkfg4GCefJNwcinaaxFMyhpvtchhGIAicZoCRfRmDDbbmTKbkd-BiUt8N0HPQnzRtQXQLvNRk05lAG3Qsy9U0j2t4fGcUi04rz8-S3Un5O633qd2qVhqlV0VzV6ILSeqHJocL9WIeKUGkZBW96_RHhP3mG173tQwHutNzjefUDexS5Uooym9ajapwKoJAe4WQ2lKQ-KDzYGo1tL8LK6cCKp1lm3?></g></svg>