<svg xmlns="http://www.w3.org/2000/svg" xmlns:xlink="http://www.w3.org/1999/xlink" contentStyleType="text/css" data-diagram-type="CLASS" height="243px" preserveAspectRatio="none" style="width:1464px;height:243px;background:#FFFFFF;" version="1.1" viewBox="0 0 1464 243" width="1464px" zoomAndPan="magnify"><?plantuml 1.2026.3beta6?><defs/><g><!--cluster controllers--><g class="cluster" data-qualified-name="controllers" data-source-line="1" id="ent0002"><path d="M8.5,6 L94.9287,6 A3.75,3.75 0 0 1 97.4287,8.5 L104.4287,28.2969 L1446.5,28.2969 A2.5,2.5 0 0 1 1449,30.7969 L1449,102.5 A2.5,2.5 0 0 1 1446.5,105 L8.5,105 A2.5,2.5 0 0 1 6,102.5 L6,8.5 A2.5,2.5 0 0 1 8.5,6" fill="none" style="stroke:#000000;stroke-width:1.5;"/><line style="stroke:#000000;stroke-width:1.5;" x1="6" x2="104.4287" y1="28.2969" y2="28.2969"/><text fill="#000000" font-family="sans-serif" font-size="14" font-weight="700" lengthAdjust="spacing" textLength="85.4287" x="10" y="20.9951">controllers</text></g><!--cluster services--><g class="cluster" data-qualified-name="services" data-source-line="12" id="ent0011"><path d="M80.5,129 L146.2842,129 A3.75,3.75 0 0 1 148.7842,131.5 L155.7842,151.2969 L1376.5,151.2969 A2.5,2.5 0 0 1 1379,153.7969 L1379,225.5 A2.5,2.5 0 0 1 1376.5,228 L80.5,228 A2.5,2.5 0 0 1 78,225.5 L78,131.5 A2.5,2.5 0 0 1 80.5,129" fill="none" style="stroke:#000000;stroke-width:1.5;"/><line style="stroke:#000000;stroke-width:1.5;" x1="78" x2="155.7842" y1="151.2969" y2="151.2969"/><text fill="#000000" font-family="sans-serif" font-size="14" font-weight="700" lengthAdjust="spacing" textLength="64.7842" x="82" y="143.9951">services</text></g><!--class AuthController--><g class="entity" data-qualified-name="controllers.AuthController" data-source-line="2" id="ent0003"><rect fill="#F1F1F1" height="48" rx="2.5" ry="2.5" style="stroke:#181818;stroke-width:0.5;" width="133.9854" x="22.01" y="41"/><ellipse cx="37.01" cy="57" fill="#ADD1B2" rx="11" ry="11" style="stroke:#181818;stroke-width:1;"/><path d="M39.9788,62.6406 Q39.4006,62.9375 38.76,63.0781 Q38.1194,63.2344 37.4163,63.2344 Q34.9163,63.2344 33.5881,61.5938 Q32.2756,59.9375 32.2756,56.8125 Q32.2756,53.6875 33.5881,52.0313 Q34.9163,50.375 37.4163,50.375 Q38.1194,50.375 38.76,50.5313 Q39.4163,50.6875 39.9788,50.9844 L39.9788,53.7031 Q39.3538,53.125 38.76,52.8594 Q38.1663,52.5781 37.5413,52.5781 Q36.1975,52.5781 35.51,53.6563 Q34.8225,54.7188 34.8225,56.8125 Q34.8225,58.9063 35.51,59.9844 Q36.1975,61.0469 37.5413,61.0469 Q38.1663,61.0469 38.76,60.7813 Q39.3538,60.5 39.9788,59.9219 L39.9788,62.6406 Z " fill="#000000"/><text fill="#000000" font-family="sans-serif" font-size="14" lengthAdjust="spacing" textLength="101.9854" x="51.01" y="61.8467">AuthController</text><line style="stroke:#181818;stroke-width:0.5;" x1="23.01" x2="154.9954" y1="73" y2="73"/><line style="stroke:#181818;stroke-width:0.5;" x1="23.01" x2="154.9954" y1="81" y2="81"/></g><!--class MesaController--><g class="entity" data-qualified-name="controllers.MesaController" data-source-line="3" id="ent0004"><rect fill="#F1F1F1" height="48" rx="2.5" ry="2.5" style="stroke:#181818;stroke-width:0.5;" width="137.7383" x="191.13" y="41"/><ellipse cx="206.13" cy="57" fill="#ADD1B2" rx="11" ry="11" style="stroke:#181818;stroke-width:1;"/><path d="M209.0988,62.6406 Q208.5206,62.9375 207.88,63.0781 Q207.2394,63.2344 206.5363,63.2344 Q204.0363,63.2344 202.7081,61.5938 Q201.3956,59.9375 201.3956,56.8125 Q201.3956,53.6875 202.7081,52.0313 Q204.0363,50.375 206.5363,50.375 Q207.2394,50.375 207.88,50.5313 Q208.5363,50.6875 209.0988,50.9844 L209.0988,53.7031 Q208.4738,53.125 207.88,52.8594 Q207.2863,52.5781 206.6613,52.5781 Q205.3175,52.5781 204.63,53.6563 Q203.9425,54.7188 203.9425,56.8125 Q203.9425,58.9063 204.63,59.9844 Q205.3175,61.0469 206.6613,61.0469 Q207.2863,61.0469 207.88,60.7813 Q208.4738,60.5 209.0988,59.9219 L209.0988,62.6406 Z " fill="#000000"/><text fill="#000000" font-family="sans-serif" font-size="14" lengthAdjust="spacing" textLength="105.7383" x="220.13" y="61.8467">MesaController</text><line style="stroke:#181818;stroke-width:0.5;" x1="192.13" x2="327.8683" y1="73" y2="73"/><line style="stroke:#181818;stroke-width:0.5;" x1="192.13" x2="327.8683" y1="81" y2="81"/></g><!--class ComandaController--><g class="entity" data-qualified-name="controllers.ComandaController" data-source-line="4" id="ent0005"><rect fill="#F1F1F1" height="48" rx="2.5" ry="2.5" style="stroke:#181818;stroke-width:0.5;" width="168.0693" x="363.97" y="41"/><ellipse cx="378.97" cy="57" fill="#ADD1B2" rx="11" ry="11" style="stroke:#181818;stroke-width:1;"/><path d="M381.9388,62.6406 Q381.3606,62.9375 380.72,63.0781 Q380.0794,63.2344 379.3763,63.2344 Q376.8763,63.2344 375.5481,61.5938 Q374.2356,59.9375 374.2356,56.8125 Q374.2356,53.6875 375.5481,52.0313 Q376.8763,50.375 379.3763,50.375 Q380.0794,50.375 380.72,50.5313 Q381.3763,50.6875 381.9388,50.9844 L381.9388,53.7031 Q381.3138,53.125 380.72,52.8594 Q380.1263,52.5781 379.5013,52.5781 Q378.1575,52.5781 377.47,53.6563 Q376.7825,54.7188 376.7825,56.8125 Q376.7825,58.9063 377.47,59.9844 Q378.1575,61.0469 379.5013,61.0469 Q380.1263,61.0469 380.72,60.7813 Q381.3138,60.5 381.9388,59.9219 L381.9388,62.6406 Z " fill="#000000"/><text fill="#000000" font-family="sans-serif" font-size="14" lengthAdjust="spacing" textLength="136.0693" x="392.97" y="61.8467">ComandaController</text><line style="stroke:#181818;stroke-width:0.5;" x1="364.97" x2="531.0393" y1="73" y2="73"/><line style="stroke:#181818;stroke-width:0.5;" x1="364.97" x2="531.0393" y1="81" y2="81"/></g><!--class TicketController--><g class="entity" data-qualified-name="controllers.TicketController" data-source-line="5" id="ent0006"><rect fill="#F1F1F1" height="48" rx="2.5" ry="2.5" style="stroke:#181818;stroke-width:0.5;" width="143.5215" x="567.24" y="41"/><ellipse cx="582.24" cy="57" fill="#ADD1B2" rx="11" ry="11" style="stroke:#181818;stroke-width:1;"/><path d="M585.2088,62.6406 Q584.6306,62.9375 583.99,63.0781 Q583.3494,63.2344 582.6463,63.2344 Q580.1463,63.2344 578.8181,61.5938 Q577.5056,59.9375 577.5056,56.8125 Q577.5056,53.6875 578.8181,52.0313 Q580.1463,50.375 582.6463,50.375 Q583.3494,50.375 583.99,50.5313 Q584.6463,50.6875 585.2088,50.9844 L585.2088,53.7031 Q584.5838,53.125 583.99,52.8594 Q583.3963,52.5781 582.7713,52.5781 Q581.4275,52.5781 580.74,53.6563 Q580.0525,54.7188 580.0525,56.8125 Q580.0525,58.9063 580.74,59.9844 Q581.4275,61.0469 582.7713,61.0469 Q583.3963,61.0469 583.99,60.7813 Q584.5838,60.5 585.2088,59.9219 L585.2088,62.6406 Z " fill="#000000"/><text fill="#000000" font-family="sans-serif" font-size="14" lengthAdjust="spacing" textLength="111.5215" x="596.24" y="61.8467">TicketController</text><line style="stroke:#181818;stroke-width:0.5;" x1="568.24" x2="709.7615" y1="73" y2="73"/><line style="stroke:#181818;stroke-width:0.5;" x1="568.24" x2="709.7615" y1="81" y2="81"/></g><!--class KDSController--><g class="entity" data-qualified-name="controllers.KDSController" data-source-line="6" id="ent0007"><rect fill="#F1F1F1" height="48" rx="2.5" ry="2.5" style="stroke:#181818;stroke-width:0.5;" width="130.0205" x="745.99" y="41"/><ellipse cx="760.99" cy="57" fill="#ADD1B2" rx="11" ry="11" style="stroke:#181818;stroke-width:1;"/><path d="M763.9588,62.6406 Q763.3806,62.9375 762.74,63.0781 Q762.0994,63.2344 761.3963,63.2344 Q758.8963,63.2344 757.5681,61.5938 Q756.2556,59.9375 756.2556,56.8125 Q756.2556,53.6875 757.5681,52.0313 Q758.8963,50.375 761.3963,50.375 Q762.0994,50.375 762.74,50.5313 Q763.3963,50.6875 763.9588,50.9844 L763.9588,53.7031 Q763.3338,53.125 762.74,52.8594 Q762.1463,52.5781 761.5213,52.5781 Q760.1775,52.5781 759.49,53.6563 Q758.8025,54.7188 758.8025,56.8125 Q758.8025,58.9063 759.49,59.9844 Q760.1775,61.0469 761.5213,61.0469 Q762.1463,61.0469 762.74,60.7813 Q763.3338,60.5 763.9588,59.9219 L763.9588,62.6406 Z " fill="#000000"/><text fill="#000000" font-family="sans-serif" font-size="14" lengthAdjust="spacing" textLength="98.0205" x="774.99" y="61.8467">KDSController</text><line style="stroke:#181818;stroke-width:0.5;" x1="746.99" x2="875.0105" y1="73" y2="73"/><line style="stroke:#181818;stroke-width:0.5;" x1="746.99" x2="875.0105" y1="81" y2="81"/></g><!--class ReservaController--><g class="entity" data-qualified-name="controllers.ReservaController" data-source-line="7" id="ent0008"><rect fill="#F1F1F1" height="48" rx="2.5" ry="2.5" style="stroke:#181818;stroke-width:0.5;" width="158.041" x="910.98" y="41"/><ellipse cx="925.98" cy="57" fill="#ADD1B2" rx="11" ry="11" style="stroke:#181818;stroke-width:1;"/><path d="M928.9488,62.6406 Q928.3706,62.9375 927.73,63.0781 Q927.0894,63.2344 926.3863,63.2344 Q923.8863,63.2344 922.5581,61.5938 Q921.2456,59.9375 921.2456,56.8125 Q921.2456,53.6875 922.5581,52.0313 Q923.8863,50.375 926.3863,50.375 Q927.0894,50.375 927.73,50.5313 Q928.3863,50.6875 928.9488,50.9844 L928.9488,53.7031 Q928.3238,53.125 927.73,52.8594 Q927.1363,52.5781 926.5113,52.5781 Q925.1675,52.5781 924.48,53.6563 Q923.7925,54.7188 923.7925,56.8125 Q923.7925,58.9063 924.48,59.9844 Q925.1675,61.0469 926.5113,61.0469 Q927.1363,61.0469 927.73,60.7813 Q928.3238,60.5 928.9488,59.9219 L928.9488,62.6406 Z " fill="#000000"/><text fill="#000000" font-family="sans-serif" font-size="14" lengthAdjust="spacing" textLength="126.041" x="939.98" y="61.8467">ReservaController</text><line style="stroke:#181818;stroke-width:0.5;" x1="911.98" x2="1068.021" y1="73" y2="73"/><line style="stroke:#181818;stroke-width:0.5;" x1="911.98" x2="1068.021" y1="81" y2="81"/></g><!--class UsuarioController--><g class="entity" data-qualified-name="controllers.UsuarioController" data-source-line="8" id="ent0009"><rect fill="#F1F1F1" height="48" rx="2.5" ry="2.5" style="stroke:#181818;stroke-width:0.5;" width="154.377" x="1103.81" y="41"/><ellipse cx="1118.81" cy="57" fill="#ADD1B2" rx="11" ry="11" style="stroke:#181818;stroke-width:1;"/><path d="M1121.7788,62.6406 Q1121.2006,62.9375 1120.56,63.0781 Q1119.9194,63.2344 1119.2163,63.2344 Q1116.7163,63.2344 1115.3881,61.5938 Q1114.0756,59.9375 1114.0756,56.8125 Q1114.0756,53.6875 1115.3881,52.0313 Q1116.7163,50.375 1119.2163,50.375 Q1119.9194,50.375 1120.56,50.5313 Q1121.2163,50.6875 1121.7788,50.9844 L1121.7788,53.7031 Q1121.1538,53.125 1120.56,52.8594 Q1119.9663,52.5781 1119.3413,52.5781 Q1117.9975,52.5781 1117.31,53.6563 Q1116.6225,54.7188 1116.6225,56.8125 Q1116.6225,58.9063 1117.31,59.9844 Q1117.9975,61.0469 1119.3413,61.0469 Q1119.9663,61.0469 1120.56,60.7813 Q1121.1538,60.5 1121.7788,59.9219 L1121.7788,62.6406 Z " fill="#000000"/><text fill="#000000" font-family="sans-serif" font-size="14" lengthAdjust="spacing" textLength="122.377" x="1132.81" y="61.8467">UsuarioController</text><line style="stroke:#181818;stroke-width:0.5;" x1="1104.81" x2="1257.187" y1="73" y2="73"/><line style="stroke:#181818;stroke-width:0.5;" x1="1104.81" x2="1257.187" y1="81" y2="81"/></g><!--class CartaController--><g class="entity" data-qualified-name="controllers.CartaController" data-source-line="9" id="ent0010"><rect fill="#F1F1F1" height="48" rx="2.5" ry="2.5" style="stroke:#181818;stroke-width:0.5;" width="139.3516" x="1293.32" y="41"/><ellipse cx="1308.32" cy="57" fill="#ADD1B2" rx="11" ry="11" style="stroke:#181818;stroke-width:1;"/><path d="M1311.2888,62.6406 Q1310.7106,62.9375 1310.07,63.0781 Q1309.4294,63.2344 1308.7263,63.2344 Q1306.2263,63.2344 1304.8981,61.5938 Q1303.5856,59.9375 1303.5856,56.8125 Q1303.5856,53.6875 1304.8981,52.0313 Q1306.2263,50.375 1308.7263,50.375 Q1309.4294,50.375 1310.07,50.5313 Q1310.7263,50.6875 1311.2888,50.9844 L1311.2888,53.7031 Q1310.6638,53.125 1310.07,52.8594 Q1309.4763,52.5781 1308.8513,52.5781 Q1307.5075,52.5781 1306.82,53.6563 Q1306.1325,54.7188 1306.1325,56.8125 Q1306.1325,58.9063 1306.82,59.9844 Q1307.5075,61.0469 1308.8513,61.0469 Q1309.4763,61.0469 1310.07,60.7813 Q1310.6638,60.5 1311.2888,59.9219 L1311.2888,62.6406 Z " fill="#000000"/><text fill="#000000" font-family="sans-serif" font-size="14" lengthAdjust="spacing" textLength="107.3516" x="1322.32" y="61.8467">CartaController</text><line style="stroke:#181818;stroke-width:0.5;" x1="1294.32" x2="1431.6716" y1="73" y2="73"/><line style="stroke:#181818;stroke-width:0.5;" x1="1294.32" x2="1431.6716" y1="81" y2="81"/></g><!--class AuthService--><g class="entity" data-qualified-name="services.AuthService" data-source-line="13" id="ent0012"><rect fill="#F1F1F1" height="48" rx="2.5" ry="2.5" style="stroke:#181818;stroke-width:0.5;" width="116.5537" x="93.72" y="164"/><ellipse cx="108.72" cy="180" fill="#ADD1B2" rx="11" ry="11" style="stroke:#181818;stroke-width:1;"/><path d="M111.6888,185.6406 Q111.1106,185.9375 110.47,186.0781 Q109.8294,186.2344 109.1263,186.2344 Q106.6263,186.2344 105.2981,184.5938 Q103.9856,182.9375 103.9856,179.8125 Q103.9856,176.6875 105.2981,175.0313 Q106.6263,173.375 109.1263,173.375 Q109.8294,173.375 110.47,173.5313 Q111.1263,173.6875 111.6888,173.9844 L111.6888,176.7031 Q111.0638,176.125 110.47,175.8594 Q109.8763,175.5781 109.2513,175.5781 Q107.9075,175.5781 107.22,176.6563 Q106.5325,177.7188 106.5325,179.8125 Q106.5325,181.9063 107.22,182.9844 Q107.9075,184.0469 109.2513,184.0469 Q109.8763,184.0469 110.47,183.7813 Q111.0638,183.5 111.6888,182.9219 L111.6888,185.6406 Z " fill="#000000"/><text fill="#000000" font-family="sans-serif" font-size="14" lengthAdjust="spacing" textLength="84.5537" x="122.72" y="184.8467">AuthService</text><line style="stroke:#181818;stroke-width:0.5;" x1="94.72" x2="209.2737" y1="196" y2="196"/><line style="stroke:#181818;stroke-width:0.5;" x1="94.72" x2="209.2737" y1="204" y2="204"/></g><!--class MesaService--><g class="entity" data-qualified-name="services.MesaService" data-source-line="14" id="ent0013"><rect fill="#F1F1F1" height="48" rx="2.5" ry="2.5" style="stroke:#181818;stroke-width:0.5;" width="120.3066" x="244.85" y="164"/><ellipse cx="259.85" cy="180" fill="#ADD1B2" rx="11" ry="11" style="stroke:#181818;stroke-width:1;"/><path d="M262.8188,185.6406 Q262.2406,185.9375 261.6,186.0781 Q260.9594,186.2344 260.2563,186.2344 Q257.7563,186.2344 256.4281,184.5938 Q255.1156,182.9375 255.1156,179.8125 Q255.1156,176.6875 256.4281,175.0313 Q257.7563,173.375 260.2563,173.375 Q260.9594,173.375 261.6,173.5313 Q262.2563,173.6875 262.8188,173.9844 L262.8188,176.7031 Q262.1938,176.125 261.6,175.8594 Q261.0063,175.5781 260.3813,175.5781 Q259.0375,175.5781 258.35,176.6563 Q257.6625,177.7188 257.6625,179.8125 Q257.6625,181.9063 258.35,182.9844 Q259.0375,184.0469 260.3813,184.0469 Q261.0063,184.0469 261.6,183.7813 Q262.1938,183.5 262.8188,182.9219 L262.8188,185.6406 Z " fill="#000000"/><text fill="#000000" font-family="sans-serif" font-size="14" lengthAdjust="spacing" textLength="88.3066" x="273.85" y="184.8467">MesaService</text><line style="stroke:#181818;stroke-width:0.5;" x1="245.85" x2="364.1566" y1="196" y2="196"/><line style="stroke:#181818;stroke-width:0.5;" x1="245.85" x2="364.1566" y1="204" y2="204"/></g><!--class ComandaService--><g class="entity" data-qualified-name="services.ComandaService" data-source-line="15" id="ent0014"><rect fill="#F1F1F1" height="48" rx="2.5" ry="2.5" style="stroke:#181818;stroke-width:0.5;" width="150.6377" x="399.68" y="164"/><ellipse cx="414.68" cy="180" fill="#ADD1B2" rx="11" ry="11" style="stroke:#181818;stroke-width:1;"/><path d="M417.6488,185.6406 Q417.0706,185.9375 416.43,186.0781 Q415.7894,186.2344 415.0863,186.2344 Q412.5863,186.2344 411.2581,184.5938 Q409.9456,182.9375 409.9456,179.8125 Q409.9456,176.6875 411.2581,175.0313 Q412.5863,173.375 415.0863,173.375 Q415.7894,173.375 416.43,173.5313 Q417.0863,173.6875 417.6488,173.9844 L417.6488,176.7031 Q417.0238,176.125 416.43,175.8594 Q415.8363,175.5781 415.2113,175.5781 Q413.8675,175.5781 413.18,176.6563 Q412.4925,177.7188 412.4925,179.8125 Q412.4925,181.9063 413.18,182.9844 Q413.8675,184.0469 415.2113,184.0469 Q415.8363,184.0469 416.43,183.7813 Q417.0238,183.5 417.6488,182.9219 L417.6488,185.6406 Z " fill="#000000"/><text fill="#000000" font-family="sans-serif" font-size="14" lengthAdjust="spacing" textLength="118.6377" x="428.68" y="184.8467">ComandaService</text><line style="stroke:#181818;stroke-width:0.5;" x1="400.68" x2="549.3177" y1="196" y2="196"/><line style="stroke:#181818;stroke-width:0.5;" x1="400.68" x2="549.3177" y1="204" y2="204"/></g><!--class TicketService--><g class="entity" data-qualified-name="services.TicketService" data-source-line="16" id="ent0015"><rect fill="#F1F1F1" height="48" rx="2.5" ry="2.5" style="stroke:#181818;stroke-width:0.5;" width="126.0898" x="584.96" y="164"/><ellipse cx="599.96" cy="180" fill="#ADD1B2" rx="11" ry="11" style="stroke:#181818;stroke-width:1;"/><path d="M602.9288,185.6406 Q602.3506,185.9375 601.71,186.0781 Q601.0694,186.2344 600.3663,186.2344 Q597.8663,186.2344 596.5381,184.5938 Q595.2256,182.9375 595.2256,179.8125 Q595.2256,176.6875 596.5381,175.0313 Q597.8663,173.375 600.3663,173.375 Q601.0694,173.375 601.71,173.5313 Q602.3663,173.6875 602.9288,173.9844 L602.9288,176.7031 Q602.3038,176.125 601.71,175.8594 Q601.1163,175.5781 600.4913,175.5781 Q599.1475,175.5781 598.46,176.6563 Q597.7725,177.7188 597.7725,179.8125 Q597.7725,181.9063 598.46,182.9844 Q599.1475,184.0469 600.4913,184.0469 Q601.1163,184.0469 601.71,183.7813 Q602.3038,183.5 602.9288,182.9219 L602.9288,185.6406 Z " fill="#000000"/><text fill="#000000" font-family="sans-serif" font-size="14" lengthAdjust="spacing" textLength="94.0898" x="613.96" y="184.8467">TicketService</text><line style="stroke:#181818;stroke-width:0.5;" x1="585.96" x2="710.0498" y1="196" y2="196"/><line style="stroke:#181818;stroke-width:0.5;" x1="585.96" x2="710.0498" y1="204" y2="204"/></g><!--class KDSService--><g class="entity" data-qualified-name="services.KDSService" data-source-line="17" id="ent0016"><rect fill="#F1F1F1" height="48" rx="2.5" ry="2.5" style="stroke:#181818;stroke-width:0.5;" width="112.5889" x="745.71" y="164"/><ellipse cx="760.71" cy="180" fill="#ADD1B2" rx="11" ry="11" style="stroke:#181818;stroke-width:1;"/><path d="M763.6788,185.6406 Q763.1006,185.9375 762.46,186.0781 Q761.8194,186.2344 761.1163,186.2344 Q758.6163,186.2344 757.2881,184.5938 Q755.9756,182.9375 755.9756,179.8125 Q755.9756,176.6875 757.2881,175.0313 Q758.6163,173.375 761.1163,173.375 Q761.8194,173.375 762.46,173.5313 Q763.1163,173.6875 763.6788,173.9844 L763.6788,176.7031 Q763.0538,176.125 762.46,175.8594 Q761.8663,175.5781 761.2413,175.5781 Q759.8975,175.5781 759.21,176.6563 Q758.5225,177.7188 758.5225,179.8125 Q758.5225,181.9063 759.21,182.9844 Q759.8975,184.0469 761.2413,184.0469 Q761.8663,184.0469 762.46,183.7813 Q763.0538,183.5 763.6788,182.9219 L763.6788,185.6406 Z " fill="#000000"/><text fill="#000000" font-family="sans-serif" font-size="14" lengthAdjust="spacing" textLength="80.5889" x="774.71" y="184.8467">KDSService</text><line style="stroke:#181818;stroke-width:0.5;" x1="746.71" x2="857.2989" y1="196" y2="196"/><line style="stroke:#181818;stroke-width:0.5;" x1="746.71" x2="857.2989" y1="204" y2="204"/></g><!--class ReservaService--><g class="entity" data-qualified-name="services.ReservaService" data-source-line="18" id="ent0017"><rect fill="#F1F1F1" height="48" rx="2.5" ry="2.5" style="stroke:#181818;stroke-width:0.5;" width="140.6094" x="893.7" y="164"/><ellipse cx="908.7" cy="180" fill="#ADD1B2" rx="11" ry="11" style="stroke:#181818;stroke-width:1;"/><path d="M911.6688,185.6406 Q911.0906,185.9375 910.45,186.0781 Q909.8094,186.2344 909.1063,186.2344 Q906.6063,186.2344 905.2781,184.5938 Q903.9656,182.9375 903.9656,179.8125 Q903.9656,176.6875 905.2781,175.0313 Q906.6063,173.375 909.1063,173.375 Q909.8094,173.375 910.45,173.5313 Q911.1063,173.6875 911.6688,173.9844 L911.6688,176.7031 Q911.0438,176.125 910.45,175.8594 Q909.8563,175.5781 909.2313,175.5781 Q907.8875,175.5781 907.2,176.6563 Q906.5125,177.7188 906.5125,179.8125 Q906.5125,181.9063 907.2,182.9844 Q907.8875,184.0469 909.2313,184.0469 Q909.8563,184.0469 910.45,183.7813 Q911.0438,183.5 911.6688,182.9219 L911.6688,185.6406 Z " fill="#000000"/><text fill="#000000" font-family="sans-serif" font-size="14" lengthAdjust="spacing" textLength="108.6094" x="922.7" y="184.8467">ReservaService</text><line style="stroke:#181818;stroke-width:0.5;" x1="894.7" x2="1033.3094" y1="196" y2="196"/><line style="stroke:#181818;stroke-width:0.5;" x1="894.7" x2="1033.3094" y1="204" y2="204"/></g><!--class UsuarioService--><g class="entity" data-qualified-name="services.UsuarioService" data-source-line="19" id="ent0018"><rect fill="#F1F1F1" height="48" rx="2.5" ry="2.5" style="stroke:#181818;stroke-width:0.5;" width="136.9453" x="1069.53" y="164"/><ellipse cx="1084.53" cy="180" fill="#ADD1B2" rx="11" ry="11" style="stroke:#181818;stroke-width:1;"/><path d="M1087.4988,185.6406 Q1086.9206,185.9375 1086.28,186.0781 Q1085.6394,186.2344 1084.9363,186.2344 Q1082.4363,186.2344 1081.1081,184.5938 Q1079.7956,182.9375 1079.7956,179.8125 Q1079.7956,176.6875 1081.1081,175.0313 Q1082.4363,173.375 1084.9363,173.375 Q1085.6394,173.375 1086.28,173.5313 Q1086.9363,173.6875 1087.4988,173.9844 L1087.4988,176.7031 Q1086.8738,176.125 1086.28,175.8594 Q1085.6863,175.5781 1085.0613,175.5781 Q1083.7175,175.5781 1083.03,176.6563 Q1082.3425,177.7188 1082.3425,179.8125 Q1082.3425,181.9063 1083.03,182.9844 Q1083.7175,184.0469 1085.0613,184.0469 Q1085.6863,184.0469 1086.28,183.7813 Q1086.8738,183.5 1087.4988,182.9219 L1087.4988,185.6406 Z " fill="#000000"/><text fill="#000000" font-family="sans-serif" font-size="14" lengthAdjust="spacing" textLength="104.9453" x="1098.53" y="184.8467">UsuarioService</text><line style="stroke:#181818;stroke-width:0.5;" x1="1070.53" x2="1205.4753" y1="196" y2="196"/><line style="stroke:#181818;stroke-width:0.5;" x1="1070.53" x2="1205.4753" y1="204" y2="204"/></g><!--class CartaService--><g class="entity" data-qualified-name="services.CartaService" data-source-line="20" id="ent0019"><rect fill="#F1F1F1" height="48" rx="2.5" ry="2.5" style="stroke:#181818;stroke-width:0.5;" width="121.9199" x="1241.04" y="164"/><ellipse cx="1256.04" cy="180" fill="#ADD1B2" rx="11" ry="11" style="stroke:#181818;stroke-width:1;"/><path d="M1259.0088,185.6406 Q1258.4306,185.9375 1257.79,186.0781 Q1257.1494,186.2344 1256.4463,186.2344 Q1253.9463,186.2344 1252.6181,184.5938 Q1251.3056,182.9375 1251.3056,179.8125 Q1251.3056,176.6875 1252.6181,175.0313 Q1253.9463,173.375 1256.4463,173.375 Q1257.1494,173.375 1257.79,173.5313 Q1258.4463,173.6875 1259.0088,173.9844 L1259.0088,176.7031 Q1258.3838,176.125 1257.79,175.8594 Q1257.1963,175.5781 1256.5713,175.5781 Q1255.2275,175.5781 1254.54,176.6563 Q1253.8525,177.7188 1253.8525,179.8125 Q1253.8525,181.9063 1254.54,182.9844 Q1255.2275,184.0469 1256.5713,184.0469 Q1257.1963,184.0469 1257.79,183.7813 Q1258.3838,183.5 1259.0088,182.9219 L1259.0088,185.6406 Z " fill="#000000"/><text fill="#000000" font-family="sans-serif" font-size="14" lengthAdjust="spacing" textLength="89.9199" x="1270.04" y="184.8467">CartaService</text><line style="stroke:#181818;stroke-width:0.5;" x1="1242.04" x2="1361.9599" y1="196" y2="196"/><line style="stroke:#181818;stroke-width:0.5;" x1="1242.04" x2="1361.9599" y1="204" y2="204"/></g><!--link AuthController to AuthService--><g class="link" data-entity-1="ent0003" data-entity-2="ent0012" data-link-type="dependency" data-source-line="23" id="lnk20"><path codeLine="23" d="M101.15,89.33 C112.3,110.76 125.9795,137.0179 137.1195,158.4179" fill="none" id="AuthController-to-AuthService" style="stroke:#181818;stroke-width:1;"/><polygon fill="#181818" points="139.89,163.74,139.2824,153.9099,137.5813,159.3049,132.1862,157.6039,139.89,163.74" style="stroke:#181818;stroke-width:1;"/></g><!--link MesaController to MesaService--><g class="link" data-entity-1="ent0004" data-entity-2="ent0013" data-link-type="dependency" data-source-line="24" id="lnk21"><path codeLine="24" d="M268.68,89.33 C276.64,110.76 286.2982,136.7164 294.2582,158.1164" fill="none" id="MesaController-to-MesaService" style="stroke:#181818;stroke-width:1;"/><polygon fill="#181818" points="296.35,163.74,296.9614,153.9101,294.6069,159.0537,289.4633,156.6991,296.35,163.74" style="stroke:#181818;stroke-width:1;"/></g><!--link ComandaController to ComandaService--><g class="link" data-entity-1="ent0005" data-entity-2="ent0014" data-link-type="dependency" data-source-line="25" id="lnk22"><path codeLine="25" d="M453.21,89.33 C457.99,110.76 463.722,136.4843 468.502,157.8843" fill="none" id="ComandaController-to-ComandaService" style="stroke:#181818;stroke-width:1;"/><polygon fill="#181818" points="469.81,163.74,471.7519,154.0845,468.72,158.8602,463.9443,155.8284,469.81,163.74" style="stroke:#181818;stroke-width:1;"/></g><!--link TicketController to TicketService--><g class="link" data-entity-1="ent0006" data-entity-2="ent0015" data-link-type="dependency" data-source-line="26" id="lnk23"><path codeLine="26" d="M640.74,89.33 C642.33,110.76 644.2354,136.3565 645.8254,157.7565" fill="none" id="TicketController-to-TicketService" style="stroke:#181818;stroke-width:1;"/><polygon fill="#181818" points="646.27,163.74,649.5922,154.4684,645.8995,158.7537,641.6141,155.0611,646.27,163.74" style="stroke:#181818;stroke-width:1;"/></g><!--link KDSController to KDSService--><g class="link" data-entity-1="ent0007" data-entity-2="ent0016" data-link-type="dependency" data-source-line="27" id="lnk24"><path codeLine="27" d="M809.26,89.33 C807.67,110.76 805.7646,136.3565 804.1746,157.7565" fill="none" id="KDSController-to-KDSService" style="stroke:#181818;stroke-width:1;"/><polygon fill="#181818" points="803.73,163.74,808.3859,155.0611,804.1005,158.7537,800.4078,154.4684,803.73,163.74" style="stroke:#181818;stroke-width:1;"/></g><!--link ReservaController to ReservaService--><g class="link" data-entity-1="ent0008" data-entity-2="ent0017" data-link-type="dependency" data-source-line="28" id="lnk25"><path codeLine="28" d="M984.99,89.33 C980.38,110.76 974.8609,136.474 970.2609,157.874" fill="none" id="ReservaController-to-ReservaService" style="stroke:#181818;stroke-width:1;"/><polygon fill="#181818" points="969,163.74,974.8021,155.7816,970.0508,158.8517,966.9807,154.1004,969,163.74" style="stroke:#181818;stroke-width:1;"/></g><!--link UsuarioController to UsuarioService--><g class="link" data-entity-1="ent0009" data-entity-2="ent0018" data-link-type="dependency" data-source-line="29" id="lnk26"><path codeLine="29" d="M1172.71,89.33 C1165.09,110.76 1155.878,136.686 1148.278,158.086" fill="none" id="UsuarioController-to-UsuarioService" style="stroke:#181818;stroke-width:1;"/><polygon fill="#181818" points="1146.27,163.74,1153.0513,156.5976,1147.9433,159.0283,1145.5126,153.9203,1146.27,163.74" style="stroke:#181818;stroke-width:1;"/></g><!--link CartaController to CartaService--><g class="link" data-entity-1="ent0010" data-entity-2="ent0019" data-link-type="dependency" data-source-line="30" id="lnk27"><path codeLine="30" d="M1351.24,89.33 C1340.44,110.76 1327.2213,136.9825 1316.4313,158.3825" fill="none" id="CartaController-to-CartaService" style="stroke:#181818;stroke-width:1;"/><polygon fill="#181818" points="1313.73,163.74,1321.3536,157.5046,1315.9811,159.2754,1314.2103,153.9029,1313.73,163.74" style="stroke:#181818;stroke-width:1;"/></g><?plantuml-src RP5D3e8m44RtdA9XpnLC3EwC6z43JEf46v2IjhWndiWZkEDaGa5ifxDzt_JdpTU1hE6A8X_UKhVEwAP1OuTFBfwP4B81QyMsTxTo3LTyG0iCBlKTsWkNd9IiqJ71VbSnz8WMpOExw6nxC4fpZuDnuObNbdL_m-a-9P7Hg-OaSgDi4QDujg9qLA9eyQ5uaKbUcqn-SDI8In15iOa-7fVXuz0XASLF42FQZv-9zQAcV1w89eNv0QATTEU7o198ZVDdWuLy0G00?></g></svg>