<svg xmlns="http://www.w3.org/2000/svg" xmlns:xlink="http://www.w3.org/1999/xlink" contentStyleType="text/css" data-diagram-type="CLASS" height="403px" preserveAspectRatio="none" style="width:1874px;height:403px;background:#FFFFFF;" version="1.1" viewBox="0 0 1874 403" width="1874px" zoomAndPan="magnify"><?plantuml 1.2026.3beta6?><defs/><g><g class="title" data-source-line="1"><text fill="#000000" font-family="sans-serif" font-size="14" font-weight="700" lengthAdjust="spacing" textLength="351.668" x="757.666" y="22.9951">Diagrama de clases - Arquitectura por capas</text></g><!--cluster Controllers--><g class="cluster" data-qualified-name="Controllers" data-source-line="9" id="ent0002"><rect fill="#D9ECFF" height="99" rx="5" ry="5" style="stroke:#000000;stroke-width:1.5;" width="1442" x="7" y="44.2969"/><text fill="#000000" font-family="sans-serif" font-size="14" font-weight="700" lengthAdjust="spacing" textLength="87.4043" x="684.2979" y="59.292">Controllers</text></g><!--cluster Services--><g class="cluster" data-qualified-name="Services" data-source-line="20" id="ent0011"><rect fill="#D8F3DC" height="99" rx="5" ry="5" style="stroke:#000000;stroke-width:1.5;" width="1702" x="158" y="167.2969"/><text fill="#000000" font-family="sans-serif" font-size="14" font-weight="700" lengthAdjust="spacing" textLength="66.5342" x="975.7329" y="182.292">Services</text></g><!--cluster Models--><g class="cluster" data-qualified-name="Models" data-source-line="33" id="ent0022"><rect fill="#FFF3BF" height="99" rx="5" ry="5" style="stroke:#000000;stroke-width:1.5;" width="1266" x="180" y="290.2969"/><text fill="#000000" font-family="sans-serif" font-size="14" font-weight="700" lengthAdjust="spacing" textLength="56.1982" x="784.9009" y="305.292">Models</text></g><!--class AuthController--><g class="entity" data-qualified-name="Controllers.AuthController" data-source-line="10" id="ent0003"><rect fill="#F1F1F1" height="48" rx="5" ry="5" style="stroke:#181818;stroke-width:0.5;" width="133.9854" x="385.01" y="79.2969"/><ellipse cx="400.01" cy="95.2969" fill="#ADD1B2" rx="11" ry="11" style="stroke:#181818;stroke-width:1;"/><path d="M402.9788,100.9375 Q402.4006,101.2344 401.76,101.375 Q401.1194,101.5313 400.4163,101.5313 Q397.9163,101.5313 396.5881,99.8906 Q395.2756,98.2344 395.2756,95.1094 Q395.2756,91.9844 396.5881,90.3281 Q397.9163,88.6719 400.4163,88.6719 Q401.1194,88.6719 401.76,88.8281 Q402.4163,88.9844 402.9788,89.2813 L402.9788,92 Q402.3538,91.4219 401.76,91.1563 Q401.1663,90.875 400.5413,90.875 Q399.1975,90.875 398.51,91.9531 Q397.8225,93.0156 397.8225,95.1094 Q397.8225,97.2031 398.51,98.2813 Q399.1975,99.3438 400.5413,99.3438 Q401.1663,99.3438 401.76,99.0781 Q402.3538,98.7969 402.9788,98.2188 L402.9788,100.9375 Z " fill="#000000"/><text fill="#000000" font-family="sans-serif" font-size="14" lengthAdjust="spacing" textLength="101.9854" x="414.01" y="100.1436">AuthController</text><line style="stroke:#181818;stroke-width:0.5;" x1="386.01" x2="517.9954" y1="111.2969" y2="111.2969"/><line style="stroke:#181818;stroke-width:0.5;" x1="386.01" x2="517.9954" y1="119.2969" y2="119.2969"/></g><!--class MesaController--><g class="entity" data-qualified-name="Controllers.MesaController" data-source-line="11" id="ent0004"><rect fill="#F1F1F1" height="48" rx="5" ry="5" style="stroke:#181818;stroke-width:0.5;" width="137.7383" x="23.13" y="79.2969"/><ellipse cx="38.13" cy="95.2969" fill="#ADD1B2" rx="11" ry="11" style="stroke:#181818;stroke-width:1;"/><path d="M41.0988,100.9375 Q40.5206,101.2344 39.88,101.375 Q39.2394,101.5313 38.5363,101.5313 Q36.0363,101.5313 34.7081,99.8906 Q33.3956,98.2344 33.3956,95.1094 Q33.3956,91.9844 34.7081,90.3281 Q36.0363,88.6719 38.5363,88.6719 Q39.2394,88.6719 39.88,88.8281 Q40.5363,88.9844 41.0988,89.2813 L41.0988,92 Q40.4738,91.4219 39.88,91.1563 Q39.2863,90.875 38.6613,90.875 Q37.3175,90.875 36.63,91.9531 Q35.9425,93.0156 35.9425,95.1094 Q35.9425,97.2031 36.63,98.2813 Q37.3175,99.3438 38.6613,99.3438 Q39.2863,99.3438 39.88,99.0781 Q40.4738,98.7969 41.0988,98.2188 L41.0988,100.9375 Z " fill="#000000"/><text fill="#000000" font-family="sans-serif" font-size="14" lengthAdjust="spacing" textLength="105.7383" x="52.13" y="100.1436">MesaController</text><line style="stroke:#181818;stroke-width:0.5;" x1="24.13" x2="159.8683" y1="111.2969" y2="111.2969"/><line style="stroke:#181818;stroke-width:0.5;" x1="24.13" x2="159.8683" y1="119.2969" y2="119.2969"/></g><!--class ComandaController--><g class="entity" data-qualified-name="Controllers.ComandaController" data-source-line="12" id="ent0005"><rect fill="#F1F1F1" height="48" rx="5" ry="5" style="stroke:#181818;stroke-width:0.5;" width="168.0693" x="553.97" y="79.2969"/><ellipse cx="568.97" cy="95.2969" fill="#ADD1B2" rx="11" ry="11" style="stroke:#181818;stroke-width:1;"/><path d="M571.9388,100.9375 Q571.3606,101.2344 570.72,101.375 Q570.0794,101.5313 569.3763,101.5313 Q566.8763,101.5313 565.5481,99.8906 Q564.2356,98.2344 564.2356,95.1094 Q564.2356,91.9844 565.5481,90.3281 Q566.8763,88.6719 569.3763,88.6719 Q570.0794,88.6719 570.72,88.8281 Q571.3763,88.9844 571.9388,89.2813 L571.9388,92 Q571.3138,91.4219 570.72,91.1563 Q570.1263,90.875 569.5013,90.875 Q568.1575,90.875 567.47,91.9531 Q566.7825,93.0156 566.7825,95.1094 Q566.7825,97.2031 567.47,98.2813 Q568.1575,99.3438 569.5013,99.3438 Q570.1263,99.3438 570.72,99.0781 Q571.3138,98.7969 571.9388,98.2188 L571.9388,100.9375 Z " fill="#000000"/><text fill="#000000" font-family="sans-serif" font-size="14" lengthAdjust="spacing" textLength="136.0693" x="582.97" y="100.1436">ComandaController</text><line style="stroke:#181818;stroke-width:0.5;" x1="554.97" x2="721.0393" y1="111.2969" y2="111.2969"/><line style="stroke:#181818;stroke-width:0.5;" x1="554.97" x2="721.0393" y1="119.2969" y2="119.2969"/></g><!--class KDSController--><g class="entity" data-qualified-name="Controllers.KDSController" data-source-line="13" id="ent0006"><rect fill="#F1F1F1" height="48" rx="5" ry="5" style="stroke:#181818;stroke-width:0.5;" width="130.0205" x="756.99" y="79.2969"/><ellipse cx="771.99" cy="95.2969" fill="#ADD1B2" rx="11" ry="11" style="stroke:#181818;stroke-width:1;"/><path d="M774.9588,100.9375 Q774.3806,101.2344 773.74,101.375 Q773.0994,101.5313 772.3963,101.5313 Q769.8963,101.5313 768.5681,99.8906 Q767.2556,98.2344 767.2556,95.1094 Q767.2556,91.9844 768.5681,90.3281 Q769.8963,88.6719 772.3963,88.6719 Q773.0994,88.6719 773.74,88.8281 Q774.3963,88.9844 774.9588,89.2813 L774.9588,92 Q774.3338,91.4219 773.74,91.1563 Q773.1463,90.875 772.5213,90.875 Q771.1775,90.875 770.49,91.9531 Q769.8025,93.0156 769.8025,95.1094 Q769.8025,97.2031 770.49,98.2813 Q771.1775,99.3438 772.5213,99.3438 Q773.1463,99.3438 773.74,99.0781 Q774.3338,98.7969 774.9588,98.2188 L774.9588,100.9375 Z " fill="#000000"/><text fill="#000000" font-family="sans-serif" font-size="14" lengthAdjust="spacing" textLength="98.0205" x="785.99" y="100.1436">KDSController</text><line style="stroke:#181818;stroke-width:0.5;" x1="757.99" x2="886.0105" y1="111.2969" y2="111.2969"/><line style="stroke:#181818;stroke-width:0.5;" x1="757.99" x2="886.0105" y1="119.2969" y2="119.2969"/></g><!--class TicketController--><g class="entity" data-qualified-name="Controllers.TicketController" data-source-line="14" id="ent0007"><rect fill="#F1F1F1" height="48" rx="5" ry="5" style="stroke:#181818;stroke-width:0.5;" width="143.5215" x="1096.24" y="79.2969"/><ellipse cx="1111.24" cy="95.2969" fill="#ADD1B2" rx="11" ry="11" style="stroke:#181818;stroke-width:1;"/><path d="M1114.2088,100.9375 Q1113.6306,101.2344 1112.99,101.375 Q1112.3494,101.5313 1111.6463,101.5313 Q1109.1463,101.5313 1107.8181,99.8906 Q1106.5056,98.2344 1106.5056,95.1094 Q1106.5056,91.9844 1107.8181,90.3281 Q1109.1463,88.6719 1111.6463,88.6719 Q1112.3494,88.6719 1112.99,88.8281 Q1113.6463,88.9844 1114.2088,89.2813 L1114.2088,92 Q1113.5838,91.4219 1112.99,91.1563 Q1112.3963,90.875 1111.7713,90.875 Q1110.4275,90.875 1109.74,91.9531 Q1109.0525,93.0156 1109.0525,95.1094 Q1109.0525,97.2031 1109.74,98.2813 Q1110.4275,99.3438 1111.7713,99.3438 Q1112.3963,99.3438 1112.99,99.0781 Q1113.5838,98.7969 1114.2088,98.2188 L1114.2088,100.9375 Z " fill="#000000"/><text fill="#000000" font-family="sans-serif" font-size="14" lengthAdjust="spacing" textLength="111.5215" x="1125.24" y="100.1436">TicketController</text><line style="stroke:#181818;stroke-width:0.5;" x1="1097.24" x2="1238.7615" y1="111.2969" y2="111.2969"/><line style="stroke:#181818;stroke-width:0.5;" x1="1097.24" x2="1238.7615" y1="119.2969" y2="119.2969"/></g><!--class ReservaController--><g class="entity" data-qualified-name="Controllers.ReservaController" data-source-line="15" id="ent0008"><rect fill="#F1F1F1" height="48" rx="5" ry="5" style="stroke:#181818;stroke-width:0.5;" width="158.041" x="1274.98" y="79.2969"/><ellipse cx="1289.98" cy="95.2969" fill="#ADD1B2" rx="11" ry="11" style="stroke:#181818;stroke-width:1;"/><path d="M1292.9488,100.9375 Q1292.3706,101.2344 1291.73,101.375 Q1291.0894,101.5313 1290.3863,101.5313 Q1287.8863,101.5313 1286.5581,99.8906 Q1285.2456,98.2344 1285.2456,95.1094 Q1285.2456,91.9844 1286.5581,90.3281 Q1287.8863,88.6719 1290.3863,88.6719 Q1291.0894,88.6719 1291.73,88.8281 Q1292.3863,88.9844 1292.9488,89.2813 L1292.9488,92 Q1292.3238,91.4219 1291.73,91.1563 Q1291.1363,90.875 1290.5113,90.875 Q1289.1675,90.875 1288.48,91.9531 Q1287.7925,93.0156 1287.7925,95.1094 Q1287.7925,97.2031 1288.48,98.2813 Q1289.1675,99.3438 1290.5113,99.3438 Q1291.1363,99.3438 1291.73,99.0781 Q1292.3238,98.7969 1292.9488,98.2188 L1292.9488,100.9375 Z " fill="#000000"/><text fill="#000000" font-family="sans-serif" font-size="14" lengthAdjust="spacing" textLength="126.041" x="1303.98" y="100.1436">ReservaController</text><line style="stroke:#181818;stroke-width:0.5;" x1="1275.98" x2="1432.021" y1="111.2969" y2="111.2969"/><line style="stroke:#181818;stroke-width:0.5;" x1="1275.98" x2="1432.021" y1="119.2969" y2="119.2969"/></g><!--class UsuarioController--><g class="entity" data-qualified-name="Controllers.UsuarioController" data-source-line="16" id="ent0009"><rect fill="#F1F1F1" height="48" rx="5" ry="5" style="stroke:#181818;stroke-width:0.5;" width="154.377" x="195.81" y="79.2969"/><ellipse cx="210.81" cy="95.2969" fill="#ADD1B2" rx="11" ry="11" style="stroke:#181818;stroke-width:1;"/><path d="M213.7788,100.9375 Q213.2006,101.2344 212.56,101.375 Q211.9194,101.5313 211.2163,101.5313 Q208.7163,101.5313 207.3881,99.8906 Q206.0756,98.2344 206.0756,95.1094 Q206.0756,91.9844 207.3881,90.3281 Q208.7163,88.6719 211.2163,88.6719 Q211.9194,88.6719 212.56,88.8281 Q213.2163,88.9844 213.7788,89.2813 L213.7788,92 Q213.1538,91.4219 212.56,91.1563 Q211.9663,90.875 211.3413,90.875 Q209.9975,90.875 209.31,91.9531 Q208.6225,93.0156 208.6225,95.1094 Q208.6225,97.2031 209.31,98.2813 Q209.9975,99.3438 211.3413,99.3438 Q211.9663,99.3438 212.56,99.0781 Q213.1538,98.7969 213.7788,98.2188 L213.7788,100.9375 Z " fill="#000000"/><text fill="#000000" font-family="sans-serif" font-size="14" lengthAdjust="spacing" textLength="122.377" x="224.81" y="100.1436">UsuarioController</text><line style="stroke:#181818;stroke-width:0.5;" x1="196.81" x2="349.187" y1="111.2969" y2="111.2969"/><line style="stroke:#181818;stroke-width:0.5;" x1="196.81" x2="349.187" y1="119.2969" y2="119.2969"/></g><!--class CartaController--><g class="entity" data-qualified-name="Controllers.CartaController" data-source-line="17" id="ent0010"><rect fill="#F1F1F1" height="48" rx="5" ry="5" style="stroke:#181818;stroke-width:0.5;" width="139.3516" x="922.32" y="79.2969"/><ellipse cx="937.32" cy="95.2969" fill="#ADD1B2" rx="11" ry="11" style="stroke:#181818;stroke-width:1;"/><path d="M940.2888,100.9375 Q939.7106,101.2344 939.07,101.375 Q938.4294,101.5313 937.7263,101.5313 Q935.2263,101.5313 933.8981,99.8906 Q932.5856,98.2344 932.5856,95.1094 Q932.5856,91.9844 933.8981,90.3281 Q935.2263,88.6719 937.7263,88.6719 Q938.4294,88.6719 939.07,88.8281 Q939.7263,88.9844 940.2888,89.2813 L940.2888,92 Q939.6638,91.4219 939.07,91.1563 Q938.4763,90.875 937.8513,90.875 Q936.5075,90.875 935.82,91.9531 Q935.1325,93.0156 935.1325,95.1094 Q935.1325,97.2031 935.82,98.2813 Q936.5075,99.3438 937.8513,99.3438 Q938.4763,99.3438 939.07,99.0781 Q939.6638,98.7969 940.2888,98.2188 L940.2888,100.9375 Z " fill="#000000"/><text fill="#000000" font-family="sans-serif" font-size="14" lengthAdjust="spacing" textLength="107.3516" x="951.32" y="100.1436">CartaController</text><line style="stroke:#181818;stroke-width:0.5;" x1="923.32" x2="1060.6716" y1="111.2969" y2="111.2969"/><line style="stroke:#181818;stroke-width:0.5;" x1="923.32" x2="1060.6716" y1="119.2969" y2="119.2969"/></g><!--class AuthService--><g class="entity" data-qualified-name="Services.AuthService" data-source-line="21" id="ent0012"><rect fill="#F1F1F1" height="48" rx="5" ry="5" style="stroke:#181818;stroke-width:0.5;" width="116.5537" x="501.72" y="202.2969"/><ellipse cx="516.72" cy="218.2969" fill="#ADD1B2" rx="11" ry="11" style="stroke:#181818;stroke-width:1;"/><path d="M519.6888,223.9375 Q519.1106,224.2344 518.47,224.375 Q517.8294,224.5313 517.1263,224.5313 Q514.6263,224.5313 513.2981,222.8906 Q511.9856,221.2344 511.9856,218.1094 Q511.9856,214.9844 513.2981,213.3281 Q514.6263,211.6719 517.1263,211.6719 Q517.8294,211.6719 518.47,211.8281 Q519.1263,211.9844 519.6888,212.2813 L519.6888,215 Q519.0638,214.4219 518.47,214.1563 Q517.8763,213.875 517.2513,213.875 Q515.9075,213.875 515.22,214.9531 Q514.5325,216.0156 514.5325,218.1094 Q514.5325,220.2031 515.22,221.2813 Q515.9075,222.3438 517.2513,222.3438 Q517.8763,222.3438 518.47,222.0781 Q519.0638,221.7969 519.6888,221.2188 L519.6888,223.9375 Z " fill="#000000"/><text fill="#000000" font-family="sans-serif" font-size="14" lengthAdjust="spacing" textLength="84.5537" x="530.72" y="223.1436">AuthService</text><line style="stroke:#181818;stroke-width:0.5;" x1="502.72" x2="617.2737" y1="234.2969" y2="234.2969"/><line style="stroke:#181818;stroke-width:0.5;" x1="502.72" x2="617.2737" y1="242.2969" y2="242.2969"/></g><!--class MesaService--><g class="entity" data-qualified-name="Services.MesaService" data-source-line="22" id="ent0013"><rect fill="#F1F1F1" height="48" rx="5" ry="5" style="stroke:#181818;stroke-width:0.5;" width="120.3066" x="173.85" y="202.2969"/><ellipse cx="188.85" cy="218.2969" fill="#ADD1B2" rx="11" ry="11" style="stroke:#181818;stroke-width:1;"/><path d="M191.8188,223.9375 Q191.2406,224.2344 190.6,224.375 Q189.9594,224.5313 189.2563,224.5313 Q186.7563,224.5313 185.4281,222.8906 Q184.1156,221.2344 184.1156,218.1094 Q184.1156,214.9844 185.4281,213.3281 Q186.7563,211.6719 189.2563,211.6719 Q189.9594,211.6719 190.6,211.8281 Q191.2563,211.9844 191.8188,212.2813 L191.8188,215 Q191.1938,214.4219 190.6,214.1563 Q190.0063,213.875 189.3813,213.875 Q188.0375,213.875 187.35,214.9531 Q186.6625,216.0156 186.6625,218.1094 Q186.6625,220.2031 187.35,221.2813 Q188.0375,222.3438 189.3813,222.3438 Q190.0063,222.3438 190.6,222.0781 Q191.1938,221.7969 191.8188,221.2188 L191.8188,223.9375 Z " fill="#000000"/><text fill="#000000" font-family="sans-serif" font-size="14" lengthAdjust="spacing" textLength="88.3066" x="202.85" y="223.1436">MesaService</text><line style="stroke:#181818;stroke-width:0.5;" x1="174.85" x2="293.1566" y1="234.2969" y2="234.2969"/><line style="stroke:#181818;stroke-width:0.5;" x1="174.85" x2="293.1566" y1="242.2969" y2="242.2969"/></g><!--class ComandaService--><g class="entity" data-qualified-name="Services.ComandaService" data-source-line="23" id="ent0014"><rect fill="#F1F1F1" height="48" rx="5" ry="5" style="stroke:#181818;stroke-width:0.5;" width="150.6377" x="653.68" y="202.2969"/><ellipse cx="668.68" cy="218.2969" fill="#ADD1B2" rx="11" ry="11" style="stroke:#181818;stroke-width:1;"/><path d="M671.6488,223.9375 Q671.0706,224.2344 670.43,224.375 Q669.7894,224.5313 669.0863,224.5313 Q666.5863,224.5313 665.2581,222.8906 Q663.9456,221.2344 663.9456,218.1094 Q663.9456,214.9844 665.2581,213.3281 Q666.5863,211.6719 669.0863,211.6719 Q669.7894,211.6719 670.43,211.8281 Q671.0863,211.9844 671.6488,212.2813 L671.6488,215 Q671.0238,214.4219 670.43,214.1563 Q669.8363,213.875 669.2113,213.875 Q667.8675,213.875 667.18,214.9531 Q666.4925,216.0156 666.4925,218.1094 Q666.4925,220.2031 667.18,221.2813 Q667.8675,222.3438 669.2113,222.3438 Q669.8363,222.3438 670.43,222.0781 Q671.0238,221.7969 671.6488,221.2188 L671.6488,223.9375 Z " fill="#000000"/><text fill="#000000" font-family="sans-serif" font-size="14" lengthAdjust="spacing" textLength="118.6377" x="682.68" y="223.1436">ComandaService</text><line style="stroke:#181818;stroke-width:0.5;" x1="654.68" x2="803.3177" y1="234.2969" y2="234.2969"/><line style="stroke:#181818;stroke-width:0.5;" x1="654.68" x2="803.3177" y1="242.2969" y2="242.2969"/></g><!--class TicketService--><g class="entity" data-qualified-name="Services.TicketService" data-source-line="24" id="ent0015"><rect fill="#F1F1F1" height="48" rx="5" ry="5" style="stroke:#181818;stroke-width:0.5;" width="126.0898" x="995.96" y="202.2969"/><ellipse cx="1010.96" cy="218.2969" fill="#ADD1B2" rx="11" ry="11" style="stroke:#181818;stroke-width:1;"/><path d="M1013.9288,223.9375 Q1013.3506,224.2344 1012.71,224.375 Q1012.0694,224.5313 1011.3663,224.5313 Q1008.8663,224.5313 1007.5381,222.8906 Q1006.2256,221.2344 1006.2256,218.1094 Q1006.2256,214.9844 1007.5381,213.3281 Q1008.8663,211.6719 1011.3663,211.6719 Q1012.0694,211.6719 1012.71,211.8281 Q1013.3663,211.9844 1013.9288,212.2813 L1013.9288,215 Q1013.3038,214.4219 1012.71,214.1563 Q1012.1163,213.875 1011.4913,213.875 Q1010.1475,213.875 1009.46,214.9531 Q1008.7725,216.0156 1008.7725,218.1094 Q1008.7725,220.2031 1009.46,221.2813 Q1010.1475,222.3438 1011.4913,222.3438 Q1012.1163,222.3438 1012.71,222.0781 Q1013.3038,221.7969 1013.9288,221.2188 L1013.9288,223.9375 Z " fill="#000000"/><text fill="#000000" font-family="sans-serif" font-size="14" lengthAdjust="spacing" textLength="94.0898" x="1024.96" y="223.1436">TicketService</text><line style="stroke:#181818;stroke-width:0.5;" x1="996.96" x2="1121.0498" y1="234.2969" y2="234.2969"/><line style="stroke:#181818;stroke-width:0.5;" x1="996.96" x2="1121.0498" y1="242.2969" y2="242.2969"/></g><!--class ReservaService--><g class="entity" data-qualified-name="Services.ReservaService" data-source-line="25" id="ent0016"><rect fill="#F1F1F1" height="48" rx="5" ry="5" style="stroke:#181818;stroke-width:0.5;" width="140.6094" x="1156.7" y="202.2969"/><ellipse cx="1171.7" cy="218.2969" fill="#ADD1B2" rx="11" ry="11" style="stroke:#181818;stroke-width:1;"/><path d="M1174.6688,223.9375 Q1174.0906,224.2344 1173.45,224.375 Q1172.8094,224.5313 1172.1063,224.5313 Q1169.6063,224.5313 1168.2781,222.8906 Q1166.9656,221.2344 1166.9656,218.1094 Q1166.9656,214.9844 1168.2781,213.3281 Q1169.6063,211.6719 1172.1063,211.6719 Q1172.8094,211.6719 1173.45,211.8281 Q1174.1063,211.9844 1174.6688,212.2813 L1174.6688,215 Q1174.0438,214.4219 1173.45,214.1563 Q1172.8563,213.875 1172.2313,213.875 Q1170.8875,213.875 1170.2,214.9531 Q1169.5125,216.0156 1169.5125,218.1094 Q1169.5125,220.2031 1170.2,221.2813 Q1170.8875,222.3438 1172.2313,222.3438 Q1172.8563,222.3438 1173.45,222.0781 Q1174.0438,221.7969 1174.6688,221.2188 L1174.6688,223.9375 Z " fill="#000000"/><text fill="#000000" font-family="sans-serif" font-size="14" lengthAdjust="spacing" textLength="108.6094" x="1185.7" y="223.1436">ReservaService</text><line style="stroke:#181818;stroke-width:0.5;" x1="1157.7" x2="1296.3094" y1="234.2969" y2="234.2969"/><line style="stroke:#181818;stroke-width:0.5;" x1="1157.7" x2="1296.3094" y1="242.2969" y2="242.2969"/></g><!--class UsuarioService--><g class="entity" data-qualified-name="Services.UsuarioService" data-source-line="26" id="ent0017"><rect fill="#F1F1F1" height="48" rx="5" ry="5" style="stroke:#181818;stroke-width:0.5;" width="136.9453" x="329.53" y="202.2969"/><ellipse cx="344.53" cy="218.2969" fill="#ADD1B2" rx="11" ry="11" style="stroke:#181818;stroke-width:1;"/><path d="M347.4988,223.9375 Q346.9206,224.2344 346.28,224.375 Q345.6394,224.5313 344.9363,224.5313 Q342.4363,224.5313 341.1081,222.8906 Q339.7956,221.2344 339.7956,218.1094 Q339.7956,214.9844 341.1081,213.3281 Q342.4363,211.6719 344.9363,211.6719 Q345.6394,211.6719 346.28,211.8281 Q346.9363,211.9844 347.4988,212.2813 L347.4988,215 Q346.8738,214.4219 346.28,214.1563 Q345.6863,213.875 345.0613,213.875 Q343.7175,213.875 343.03,214.9531 Q342.3425,216.0156 342.3425,218.1094 Q342.3425,220.2031 343.03,221.2813 Q343.7175,222.3438 345.0613,222.3438 Q345.6863,222.3438 346.28,222.0781 Q346.8738,221.7969 347.4988,221.2188 L347.4988,223.9375 Z " fill="#000000"/><text fill="#000000" font-family="sans-serif" font-size="14" lengthAdjust="spacing" textLength="104.9453" x="358.53" y="223.1436">UsuarioService</text><line style="stroke:#181818;stroke-width:0.5;" x1="330.53" x2="465.4753" y1="234.2969" y2="234.2969"/><line style="stroke:#181818;stroke-width:0.5;" x1="330.53" x2="465.4753" y1="242.2969" y2="242.2969"/></g><!--class CartaService--><g class="entity" data-qualified-name="Services.CartaService" data-source-line="27" id="ent0018"><rect fill="#F1F1F1" height="48" rx="5" ry="5" style="stroke:#181818;stroke-width:0.5;" width="121.9199" x="839.04" y="202.2969"/><ellipse cx="854.04" cy="218.2969" fill="#ADD1B2" rx="11" ry="11" style="stroke:#181818;stroke-width:1;"/><path d="M857.0088,223.9375 Q856.4306,224.2344 855.79,224.375 Q855.1494,224.5313 854.4463,224.5313 Q851.9463,224.5313 850.6181,222.8906 Q849.3056,221.2344 849.3056,218.1094 Q849.3056,214.9844 850.6181,213.3281 Q851.9463,211.6719 854.4463,211.6719 Q855.1494,211.6719 855.79,211.8281 Q856.4463,211.9844 857.0088,212.2813 L857.0088,215 Q856.3838,214.4219 855.79,214.1563 Q855.1963,213.875 854.5713,213.875 Q853.2275,213.875 852.54,214.9531 Q851.8525,216.0156 851.8525,218.1094 Q851.8525,220.2031 852.54,221.2813 Q853.2275,222.3438 854.5713,222.3438 Q855.1963,222.3438 855.79,222.0781 Q856.3838,221.7969 857.0088,221.2188 L857.0088,223.9375 Z " fill="#000000"/><text fill="#000000" font-family="sans-serif" font-size="14" lengthAdjust="spacing" textLength="89.9199" x="868.04" y="223.1436">CartaService</text><line style="stroke:#181818;stroke-width:0.5;" x1="840.04" x2="959.9599" y1="234.2969" y2="234.2969"/><line style="stroke:#181818;stroke-width:0.5;" x1="840.04" x2="959.9599" y1="242.2969" y2="242.2969"/></g><!--class SocketService--><g class="entity" data-qualified-name="Services.SocketService" data-source-line="28" id="ent0019"><rect fill="#F1F1F1" height="48" rx="5" ry="5" style="stroke:#181818;stroke-width:0.5;" width="131.1006" x="1332.45" y="202.2969"/><ellipse cx="1347.45" cy="218.2969" fill="#ADD1B2" rx="11" ry="11" style="stroke:#181818;stroke-width:1;"/><path d="M1350.4188,223.9375 Q1349.8406,224.2344 1349.2,224.375 Q1348.5594,224.5313 1347.8563,224.5313 Q1345.3563,224.5313 1344.0281,222.8906 Q1342.7156,221.2344 1342.7156,218.1094 Q1342.7156,214.9844 1344.0281,213.3281 Q1345.3563,211.6719 1347.8563,211.6719 Q1348.5594,211.6719 1349.2,211.8281 Q1349.8563,211.9844 1350.4188,212.2813 L1350.4188,215 Q1349.7938,214.4219 1349.2,214.1563 Q1348.6063,213.875 1347.9813,213.875 Q1346.6375,213.875 1345.95,214.9531 Q1345.2625,216.0156 1345.2625,218.1094 Q1345.2625,220.2031 1345.95,221.2813 Q1346.6375,222.3438 1347.9813,222.3438 Q1348.6063,222.3438 1349.2,222.0781 Q1349.7938,221.7969 1350.4188,221.2188 L1350.4188,223.9375 Z " fill="#000000"/><text fill="#000000" font-family="sans-serif" font-size="14" lengthAdjust="spacing" textLength="99.1006" x="1361.45" y="223.1436">SocketService</text><line style="stroke:#181818;stroke-width:0.5;" x1="1333.45" x2="1462.5506" y1="234.2969" y2="234.2969"/><line style="stroke:#181818;stroke-width:0.5;" x1="1333.45" x2="1462.5506" y1="242.2969" y2="242.2969"/></g><!--class OfflineSyncService--><g class="entity" data-qualified-name="Services.OfflineSyncService" data-source-line="29" id="ent0020"><rect fill="#F1F1F1" height="48" rx="5" ry="5" style="stroke:#181818;stroke-width:0.5;" width="163.626" x="1498.19" y="202.2969"/><ellipse cx="1513.19" cy="218.2969" fill="#ADD1B2" rx="11" ry="11" style="stroke:#181818;stroke-width:1;"/><path d="M1516.1588,223.9375 Q1515.5806,224.2344 1514.94,224.375 Q1514.2994,224.5313 1513.5963,224.5313 Q1511.0963,224.5313 1509.7681,222.8906 Q1508.4556,221.2344 1508.4556,218.1094 Q1508.4556,214.9844 1509.7681,213.3281 Q1511.0963,211.6719 1513.5963,211.6719 Q1514.2994,211.6719 1514.94,211.8281 Q1515.5963,211.9844 1516.1588,212.2813 L1516.1588,215 Q1515.5338,214.4219 1514.94,214.1563 Q1514.3463,213.875 1513.7213,213.875 Q1512.3775,213.875 1511.69,214.9531 Q1511.0025,216.0156 1511.0025,218.1094 Q1511.0025,220.2031 1511.69,221.2813 Q1512.3775,222.3438 1513.7213,222.3438 Q1514.3463,222.3438 1514.94,222.0781 Q1515.5338,221.7969 1516.1588,221.2188 L1516.1588,223.9375 Z " fill="#000000"/><text fill="#000000" font-family="sans-serif" font-size="14" lengthAdjust="spacing" textLength="131.626" x="1527.19" y="223.1436">OfflineSyncService</text><line style="stroke:#181818;stroke-width:0.5;" x1="1499.19" x2="1660.816" y1="234.2969" y2="234.2969"/><line style="stroke:#181818;stroke-width:0.5;" x1="1499.19" x2="1660.816" y1="242.2969" y2="242.2969"/></g><!--class AuditoriaService--><g class="entity" data-qualified-name="Services.AuditoriaService" data-source-line="30" id="ent0021"><rect fill="#F1F1F1" height="48" rx="5" ry="5" style="stroke:#181818;stroke-width:0.5;" width="147.2471" x="1696.38" y="202.2969"/><ellipse cx="1711.38" cy="218.2969" fill="#ADD1B2" rx="11" ry="11" style="stroke:#181818;stroke-width:1;"/><path d="M1714.3488,223.9375 Q1713.7706,224.2344 1713.13,224.375 Q1712.4894,224.5313 1711.7863,224.5313 Q1709.2863,224.5313 1707.9581,222.8906 Q1706.6456,221.2344 1706.6456,218.1094 Q1706.6456,214.9844 1707.9581,213.3281 Q1709.2863,211.6719 1711.7863,211.6719 Q1712.4894,211.6719 1713.13,211.8281 Q1713.7863,211.9844 1714.3488,212.2813 L1714.3488,215 Q1713.7238,214.4219 1713.13,214.1563 Q1712.5363,213.875 1711.9113,213.875 Q1710.5675,213.875 1709.88,214.9531 Q1709.1925,216.0156 1709.1925,218.1094 Q1709.1925,220.2031 1709.88,221.2813 Q1710.5675,222.3438 1711.9113,222.3438 Q1712.5363,222.3438 1713.13,222.0781 Q1713.7238,221.7969 1714.3488,221.2188 L1714.3488,223.9375 Z " fill="#000000"/><text fill="#000000" font-family="sans-serif" font-size="14" lengthAdjust="spacing" textLength="115.2471" x="1725.38" y="223.1436">AuditoriaService</text><line style="stroke:#181818;stroke-width:0.5;" x1="1697.38" x2="1842.6271" y1="234.2969" y2="234.2969"/><line style="stroke:#181818;stroke-width:0.5;" x1="1697.38" x2="1842.6271" y1="242.2969" y2="242.2969"/></g><!--class Usuario--><g class="entity" data-qualified-name="Models.Usuario" data-source-line="34" id="ent0023"><rect fill="#F1F1F1" height="48" rx="5" ry="5" style="stroke:#181818;stroke-width:0.5;" width="85.2041" x="401.4" y="325.2969"/><ellipse cx="416.4" cy="341.2969" fill="#ADD1B2" rx="11" ry="11" style="stroke:#181818;stroke-width:1;"/><path d="M419.3688,346.9375 Q418.7906,347.2344 418.15,347.375 Q417.5094,347.5313 416.8063,347.5313 Q414.3063,347.5313 412.9781,345.8906 Q411.6656,344.2344 411.6656,341.1094 Q411.6656,337.9844 412.9781,336.3281 Q414.3063,334.6719 416.8063,334.6719 Q417.5094,334.6719 418.15,334.8281 Q418.8063,334.9844 419.3688,335.2813 L419.3688,338 Q418.7438,337.4219 418.15,337.1563 Q417.5563,336.875 416.9313,336.875 Q415.5875,336.875 414.9,337.9531 Q414.2125,339.0156 414.2125,341.1094 Q414.2125,343.2031 414.9,344.2813 Q415.5875,345.3438 416.9313,345.3438 Q417.5563,345.3438 418.15,345.0781 Q418.7438,344.7969 419.3688,344.2188 L419.3688,346.9375 Z " fill="#000000"/><text fill="#000000" font-family="sans-serif" font-size="14" lengthAdjust="spacing" textLength="53.2041" x="430.4" y="346.1436">Usuario</text><line style="stroke:#181818;stroke-width:0.5;" x1="402.4" x2="485.6041" y1="357.2969" y2="357.2969"/><line style="stroke:#181818;stroke-width:0.5;" x1="402.4" x2="485.6041" y1="365.2969" y2="365.2969"/></g><!--class Zona--><g class="entity" data-qualified-name="Models.Zona" data-source-line="35" id="ent0024"><rect fill="#F1F1F1" height="48" rx="5" ry="5" style="stroke:#181818;stroke-width:0.5;" width="67.6084" x="299.2" y="325.2969"/><ellipse cx="314.2" cy="341.2969" fill="#ADD1B2" rx="11" ry="11" style="stroke:#181818;stroke-width:1;"/><path d="M317.1688,346.9375 Q316.5906,347.2344 315.95,347.375 Q315.3094,347.5313 314.6063,347.5313 Q312.1063,347.5313 310.7781,345.8906 Q309.4656,344.2344 309.4656,341.1094 Q309.4656,337.9844 310.7781,336.3281 Q312.1063,334.6719 314.6063,334.6719 Q315.3094,334.6719 315.95,334.8281 Q316.6063,334.9844 317.1688,335.2813 L317.1688,338 Q316.5438,337.4219 315.95,337.1563 Q315.3563,336.875 314.7313,336.875 Q313.3875,336.875 312.7,337.9531 Q312.0125,339.0156 312.0125,341.1094 Q312.0125,343.2031 312.7,344.2813 Q313.3875,345.3438 314.7313,345.3438 Q315.3563,345.3438 315.95,345.0781 Q316.5438,344.7969 317.1688,344.2188 L317.1688,346.9375 Z " fill="#000000"/><text fill="#000000" font-family="sans-serif" font-size="14" lengthAdjust="spacing" textLength="35.6084" x="328.2" y="346.1436">Zona</text><line style="stroke:#181818;stroke-width:0.5;" x1="300.2" x2="365.8084" y1="357.2969" y2="357.2969"/><line style="stroke:#181818;stroke-width:0.5;" x1="300.2" x2="365.8084" y1="365.2969" y2="365.2969"/></g><!--class Mesa--><g class="entity" data-qualified-name="Models.Mesa" data-source-line="36" id="ent0025"><rect fill="#F1F1F1" height="48" rx="5" ry="5" style="stroke:#181818;stroke-width:0.5;" width="68.5654" x="195.72" y="325.2969"/><ellipse cx="210.72" cy="341.2969" fill="#ADD1B2" rx="11" ry="11" style="stroke:#181818;stroke-width:1;"/><path d="M213.6888,346.9375 Q213.1106,347.2344 212.47,347.375 Q211.8294,347.5313 211.1263,347.5313 Q208.6263,347.5313 207.2981,345.8906 Q205.9856,344.2344 205.9856,341.1094 Q205.9856,337.9844 207.2981,336.3281 Q208.6263,334.6719 211.1263,334.6719 Q211.8294,334.6719 212.47,334.8281 Q213.1263,334.9844 213.6888,335.2813 L213.6888,338 Q213.0638,337.4219 212.47,337.1563 Q211.8763,336.875 211.2513,336.875 Q209.9075,336.875 209.22,337.9531 Q208.5325,339.0156 208.5325,341.1094 Q208.5325,343.2031 209.22,344.2813 Q209.9075,345.3438 211.2513,345.3438 Q211.8763,345.3438 212.47,345.0781 Q213.0638,344.7969 213.6888,344.2188 L213.6888,346.9375 Z " fill="#000000"/><text fill="#000000" font-family="sans-serif" font-size="14" lengthAdjust="spacing" textLength="36.5654" x="224.72" y="346.1436">Mesa</text><line style="stroke:#181818;stroke-width:0.5;" x1="196.72" x2="263.2854" y1="357.2969" y2="357.2969"/><line style="stroke:#181818;stroke-width:0.5;" x1="196.72" x2="263.2854" y1="365.2969" y2="365.2969"/></g><!--class Comanda--><g class="entity" data-qualified-name="Models.Comanda" data-source-line="37" id="ent0026"><rect fill="#F1F1F1" height="48" rx="5" ry="5" style="stroke:#181818;stroke-width:0.5;" width="98.8965" x="521.55" y="325.2969"/><ellipse cx="536.55" cy="341.2969" fill="#ADD1B2" rx="11" ry="11" style="stroke:#181818;stroke-width:1;"/><path d="M539.5188,346.9375 Q538.9406,347.2344 538.3,347.375 Q537.6594,347.5313 536.9563,347.5313 Q534.4563,347.5313 533.1281,345.8906 Q531.8156,344.2344 531.8156,341.1094 Q531.8156,337.9844 533.1281,336.3281 Q534.4563,334.6719 536.9563,334.6719 Q537.6594,334.6719 538.3,334.8281 Q538.9563,334.9844 539.5188,335.2813 L539.5188,338 Q538.8938,337.4219 538.3,337.1563 Q537.7063,336.875 537.0813,336.875 Q535.7375,336.875 535.05,337.9531 Q534.3625,339.0156 534.3625,341.1094 Q534.3625,343.2031 535.05,344.2813 Q535.7375,345.3438 537.0813,345.3438 Q537.7063,345.3438 538.3,345.0781 Q538.8938,344.7969 539.5188,344.2188 L539.5188,346.9375 Z " fill="#000000"/><text fill="#000000" font-family="sans-serif" font-size="14" lengthAdjust="spacing" textLength="66.8965" x="550.55" y="346.1436">Comanda</text><line style="stroke:#181818;stroke-width:0.5;" x1="522.55" x2="619.4465" y1="357.2969" y2="357.2969"/><line style="stroke:#181818;stroke-width:0.5;" x1="522.55" x2="619.4465" y1="365.2969" y2="365.2969"/></g><!--class LineaComanda--><g class="entity" data-qualified-name="Models.LineaComanda" data-source-line="38" id="ent0027"><rect fill="#F1F1F1" height="48" rx="5" ry="5" style="stroke:#181818;stroke-width:0.5;" width="136.6514" x="655.67" y="325.2969"/><ellipse cx="670.67" cy="341.2969" fill="#ADD1B2" rx="11" ry="11" style="stroke:#181818;stroke-width:1;"/><path d="M673.6388,346.9375 Q673.0606,347.2344 672.42,347.375 Q671.7794,347.5313 671.0763,347.5313 Q668.5763,347.5313 667.2481,345.8906 Q665.9356,344.2344 665.9356,341.1094 Q665.9356,337.9844 667.2481,336.3281 Q668.5763,334.6719 671.0763,334.6719 Q671.7794,334.6719 672.42,334.8281 Q673.0763,334.9844 673.6388,335.2813 L673.6388,338 Q673.0138,337.4219 672.42,337.1563 Q671.8263,336.875 671.2013,336.875 Q669.8575,336.875 669.17,337.9531 Q668.4825,339.0156 668.4825,341.1094 Q668.4825,343.2031 669.17,344.2813 Q669.8575,345.3438 671.2013,345.3438 Q671.8263,345.3438 672.42,345.0781 Q673.0138,344.7969 673.6388,344.2188 L673.6388,346.9375 Z " fill="#000000"/><text fill="#000000" font-family="sans-serif" font-size="14" lengthAdjust="spacing" textLength="104.6514" x="684.67" y="346.1436">LineaComanda</text><line style="stroke:#181818;stroke-width:0.5;" x1="656.67" x2="791.3214" y1="357.2969" y2="357.2969"/><line style="stroke:#181818;stroke-width:0.5;" x1="656.67" x2="791.3214" y1="365.2969" y2="365.2969"/></g><!--class Plato--><g class="entity" data-qualified-name="Models.Plato" data-source-line="39" id="ent0028"><rect fill="#F1F1F1" height="48" rx="5" ry="5" style="stroke:#181818;stroke-width:0.5;" width="66.9658" x="973.52" y="325.2969"/><ellipse cx="988.52" cy="341.2969" fill="#ADD1B2" rx="11" ry="11" style="stroke:#181818;stroke-width:1;"/><path d="M991.4888,346.9375 Q990.9106,347.2344 990.27,347.375 Q989.6294,347.5313 988.9263,347.5313 Q986.4263,347.5313 985.0981,345.8906 Q983.7856,344.2344 983.7856,341.1094 Q983.7856,337.9844 985.0981,336.3281 Q986.4263,334.6719 988.9263,334.6719 Q989.6294,334.6719 990.27,334.8281 Q990.9263,334.9844 991.4888,335.2813 L991.4888,338 Q990.8638,337.4219 990.27,337.1563 Q989.6763,336.875 989.0513,336.875 Q987.7075,336.875 987.02,337.9531 Q986.3325,339.0156 986.3325,341.1094 Q986.3325,343.2031 987.02,344.2813 Q987.7075,345.3438 989.0513,345.3438 Q989.6763,345.3438 990.27,345.0781 Q990.8638,344.7969 991.4888,344.2188 L991.4888,346.9375 Z " fill="#000000"/><text fill="#000000" font-family="sans-serif" font-size="14" lengthAdjust="spacing" textLength="34.9658" x="1002.52" y="346.1436">Plato</text><line style="stroke:#181818;stroke-width:0.5;" x1="974.52" x2="1039.4858" y1="357.2969" y2="357.2969"/><line style="stroke:#181818;stroke-width:0.5;" x1="974.52" x2="1039.4858" y1="365.2969" y2="365.2969"/></g><!--class TarifaMenu--><g class="entity" data-qualified-name="Models.TarifaMenu" data-source-line="40" id="ent0029"><rect fill="#F1F1F1" height="48" rx="5" ry="5" style="stroke:#181818;stroke-width:0.5;" width="110.7227" x="827.64" y="325.2969"/><ellipse cx="842.64" cy="341.2969" fill="#ADD1B2" rx="11" ry="11" style="stroke:#181818;stroke-width:1;"/><path d="M845.6088,346.9375 Q845.0306,347.2344 844.39,347.375 Q843.7494,347.5313 843.0463,347.5313 Q840.5463,347.5313 839.2181,345.8906 Q837.9056,344.2344 837.9056,341.1094 Q837.9056,337.9844 839.2181,336.3281 Q840.5463,334.6719 843.0463,334.6719 Q843.7494,334.6719 844.39,334.8281 Q845.0463,334.9844 845.6088,335.2813 L845.6088,338 Q844.9838,337.4219 844.39,337.1563 Q843.7963,336.875 843.1713,336.875 Q841.8275,336.875 841.14,337.9531 Q840.4525,339.0156 840.4525,341.1094 Q840.4525,343.2031 841.14,344.2813 Q841.8275,345.3438 843.1713,345.3438 Q843.7963,345.3438 844.39,345.0781 Q844.9838,344.7969 845.6088,344.2188 L845.6088,346.9375 Z " fill="#000000"/><text fill="#000000" font-family="sans-serif" font-size="14" lengthAdjust="spacing" textLength="78.7227" x="856.64" y="346.1436">TarifaMenu</text><line style="stroke:#181818;stroke-width:0.5;" x1="828.64" x2="937.3627" y1="357.2969" y2="357.2969"/><line style="stroke:#181818;stroke-width:0.5;" x1="828.64" x2="937.3627" y1="365.2969" y2="365.2969"/></g><!--class Ticket--><g class="entity" data-qualified-name="Models.Ticket" data-source-line="41" id="ent0030"><rect fill="#F1F1F1" height="48" rx="5" ry="5" style="stroke:#181818;stroke-width:0.5;" width="74.3486" x="1075.83" y="325.2969"/><ellipse cx="1090.83" cy="341.2969" fill="#ADD1B2" rx="11" ry="11" style="stroke:#181818;stroke-width:1;"/><path d="M1093.7988,346.9375 Q1093.2206,347.2344 1092.58,347.375 Q1091.9394,347.5313 1091.2363,347.5313 Q1088.7363,347.5313 1087.4081,345.8906 Q1086.0956,344.2344 1086.0956,341.1094 Q1086.0956,337.9844 1087.4081,336.3281 Q1088.7363,334.6719 1091.2363,334.6719 Q1091.9394,334.6719 1092.58,334.8281 Q1093.2363,334.9844 1093.7988,335.2813 L1093.7988,338 Q1093.1738,337.4219 1092.58,337.1563 Q1091.9863,336.875 1091.3613,336.875 Q1090.0175,336.875 1089.33,337.9531 Q1088.6425,339.0156 1088.6425,341.1094 Q1088.6425,343.2031 1089.33,344.2813 Q1090.0175,345.3438 1091.3613,345.3438 Q1091.9863,345.3438 1092.58,345.0781 Q1093.1738,344.7969 1093.7988,344.2188 L1093.7988,346.9375 Z " fill="#000000"/><text fill="#000000" font-family="sans-serif" font-size="14" lengthAdjust="spacing" textLength="42.3486" x="1104.83" y="346.1436">Ticket</text><line style="stroke:#181818;stroke-width:0.5;" x1="1076.83" x2="1149.1786" y1="357.2969" y2="357.2969"/><line style="stroke:#181818;stroke-width:0.5;" x1="1076.83" x2="1149.1786" y1="365.2969" y2="365.2969"/></g><!--class Reserva--><g class="entity" data-qualified-name="Models.Reserva" data-source-line="42" id="ent0031"><rect fill="#F1F1F1" height="48" rx="5" ry="5" style="stroke:#181818;stroke-width:0.5;" width="88.8682" x="1185.57" y="325.2969"/><ellipse cx="1200.57" cy="341.2969" fill="#ADD1B2" rx="11" ry="11" style="stroke:#181818;stroke-width:1;"/><path d="M1203.5388,346.9375 Q1202.9606,347.2344 1202.32,347.375 Q1201.6794,347.5313 1200.9763,347.5313 Q1198.4763,347.5313 1197.1481,345.8906 Q1195.8356,344.2344 1195.8356,341.1094 Q1195.8356,337.9844 1197.1481,336.3281 Q1198.4763,334.6719 1200.9763,334.6719 Q1201.6794,334.6719 1202.32,334.8281 Q1202.9763,334.9844 1203.5388,335.2813 L1203.5388,338 Q1202.9138,337.4219 1202.32,337.1563 Q1201.7263,336.875 1201.1013,336.875 Q1199.7575,336.875 1199.07,337.9531 Q1198.3825,339.0156 1198.3825,341.1094 Q1198.3825,343.2031 1199.07,344.2813 Q1199.7575,345.3438 1201.1013,345.3438 Q1201.7263,345.3438 1202.32,345.0781 Q1202.9138,344.7969 1203.5388,344.2188 L1203.5388,346.9375 Z " fill="#000000"/><text fill="#000000" font-family="sans-serif" font-size="14" lengthAdjust="spacing" textLength="56.8682" x="1214.57" y="346.1436">Reserva</text><line style="stroke:#181818;stroke-width:0.5;" x1="1186.57" x2="1273.4382" y1="357.2969" y2="357.2969"/><line style="stroke:#181818;stroke-width:0.5;" x1="1186.57" x2="1273.4382" y1="365.2969" y2="365.2969"/></g><!--class LogAuditoria--><g class="entity" data-qualified-name="Models.LogAuditoria" data-source-line="43" id="ent0032"><rect fill="#F1F1F1" height="48" rx="5" ry="5" style="stroke:#181818;stroke-width:0.5;" width="120.7578" x="1309.62" y="325.2969"/><ellipse cx="1324.62" cy="341.2969" fill="#ADD1B2" rx="11" ry="11" style="stroke:#181818;stroke-width:1;"/><path d="M1327.5888,346.9375 Q1327.0106,347.2344 1326.37,347.375 Q1325.7294,347.5313 1325.0263,347.5313 Q1322.5263,347.5313 1321.1981,345.8906 Q1319.8856,344.2344 1319.8856,341.1094 Q1319.8856,337.9844 1321.1981,336.3281 Q1322.5263,334.6719 1325.0263,334.6719 Q1325.7294,334.6719 1326.37,334.8281 Q1327.0263,334.9844 1327.5888,335.2813 L1327.5888,338 Q1326.9638,337.4219 1326.37,337.1563 Q1325.7763,336.875 1325.1513,336.875 Q1323.8075,336.875 1323.12,337.9531 Q1322.4325,339.0156 1322.4325,341.1094 Q1322.4325,343.2031 1323.12,344.2813 Q1323.8075,345.3438 1325.1513,345.3438 Q1325.7763,345.3438 1326.37,345.0781 Q1326.9638,344.7969 1327.5888,344.2188 L1327.5888,346.9375 Z " fill="#000000"/><text fill="#000000" font-family="sans-serif" font-size="14" lengthAdjust="spacing" textLength="88.7578" x="1338.62" y="346.1436">LogAuditoria</text><line style="stroke:#181818;stroke-width:0.5;" x1="1310.62" x2="1429.3778" y1="357.2969" y2="357.2969"/><line style="stroke:#181818;stroke-width:0.5;" x1="1310.62" x2="1429.3778" y1="365.2969" y2="365.2969"/></g><!--link AuthController to AuthService--><g class="link" data-entity-1="ent0003" data-entity-2="ent0012" data-link-type="dependency" data-source-line="46" id="lnk33"><path codeLine="46" d="M472.82,127.6269 C491.95,149.0569 516.1447,176.1605 535.2447,197.5605" fill="none" id="AuthController-to-AuthService" style="stroke:#181818;stroke-width:1;"/><polygon fill="#181818" points="539.24,202.0369,536.2314,192.6588,535.9106,198.3066,530.2629,197.9858,539.24,202.0369" style="stroke:#181818;stroke-width:1;"/></g><!--link MesaController to MesaService--><g class="link" data-entity-1="ent0004" data-entity-2="ent0013" data-link-type="dependency" data-source-line="47" id="lnk34"><path codeLine="47" d="M119.38,127.6269 C144.52,149.0569 177.0227,176.7459 202.1427,198.1459" fill="none" id="MesaController-to-MesaService" style="stroke:#181818;stroke-width:1;"/><polygon fill="#181818" points="206.71,202.0369,202.453,193.1556,202.9039,198.7944,197.265,199.2453,206.71,202.0369" style="stroke:#181818;stroke-width:1;"/></g><!--link ComandaController to ComandaService--><g class="link" data-entity-1="ent0005" data-entity-2="ent0014" data-link-type="dependency" data-source-line="48" id="lnk35"><path codeLine="48" d="M655.55,127.6269 C671.66,149.0569 691.8028,175.8423 707.9028,197.2423" fill="none" id="ComandaController-to-ComandaService" style="stroke:#181818;stroke-width:1;"/><polygon fill="#181818" points="711.51,202.0369,709.2957,192.4402,708.504,198.0414,702.9028,197.2497,711.51,202.0369" style="stroke:#181818;stroke-width:1;"/></g><!--link KDSController to ComandaService--><g class="link" data-entity-1="ent0006" data-entity-2="ent0014" data-link-type="dependency" data-source-line="49" id="lnk36"><path codeLine="49" d="M804.07,127.6269 C787.6,149.0569 766.9867,175.8799 750.5367,197.2799" fill="none" id="KDSController-to-ComandaService" style="stroke:#181818;stroke-width:1;"/><polygon fill="#181818" points="746.88,202.0369,755.5363,197.3392,749.9272,198.0727,749.1937,192.4636,746.88,202.0369" style="stroke:#181818;stroke-width:1;"/></g><!--link TicketController to TicketService--><g class="link" data-entity-1="ent0007" data-entity-2="ent0015" data-link-type="dependency" data-source-line="50" id="lnk37"><path codeLine="50" d="M1146.98,127.6269 C1127.68,149.0569 1103.2461,176.1792 1083.9661,197.5792" fill="none" id="TicketController-to-TicketService" style="stroke:#181818;stroke-width:1;"/><polygon fill="#181818" points="1079.95,202.0369,1088.9459,198.0277,1083.2967,198.3221,1083.0023,192.6729,1079.95,202.0369" style="stroke:#181818;stroke-width:1;"/></g><!--link ReservaController to ReservaService--><g class="link" data-entity-1="ent0008" data-entity-2="ent0016" data-link-type="dependency" data-source-line="51" id="lnk38"><path codeLine="51" d="M1329.51,127.6269 C1307.02,149.0569 1278.2248,176.4989 1255.7548,197.8989" fill="none" id="ReservaController-to-ReservaService" style="stroke:#181818;stroke-width:1;"/><polygon fill="#181818" points="1251.41,202.0369,1260.6859,198.7265,1255.0307,198.5886,1255.1686,192.9334,1251.41,202.0369" style="stroke:#181818;stroke-width:1;"/></g><!--link UsuarioController to UsuarioService--><g class="link" data-entity-1="ent0009" data-entity-2="ent0017" data-link-type="dependency" data-source-line="52" id="lnk39"><path codeLine="52" d="M297.1,127.6269 C319.24,149.0569 347.5487,176.464 369.6587,197.864" fill="none" id="UsuarioController-to-UsuarioService" style="stroke:#181818;stroke-width:1;"/><polygon fill="#181818" points="373.97,202.0369,370.285,192.9034,370.3773,198.5595,364.7212,198.6518,373.97,202.0369" style="stroke:#181818;stroke-width:1;"/></g><!--link CartaController to CartaService--><g class="link" data-entity-1="ent0010" data-entity-2="ent0018" data-link-type="dependency" data-source-line="53" id="lnk40"><path codeLine="53" d="M974.26,127.6269 C957.97,149.0569 937.5928,175.8616 921.3128,197.2616" fill="none" id="CartaController-to-CartaService" style="stroke:#181818;stroke-width:1;"/><polygon fill="#181818" points="917.68,202.0369,926.3126,197.2958,920.7073,198.0575,919.9456,192.4522,917.68,202.0369" style="stroke:#181818;stroke-width:1;"/></g><!--link AuthService to Usuario--><g class="link" data-entity-1="ent0012" data-entity-2="ent0023" data-link-type="dependency" data-source-line="55" id="lnk41"><path codeLine="55" d="M535.72,250.5569 C525.77,260.2469 514.2,271.6869 504,282.2969 C490.58,296.2469 479.962,307.8365 468.512,320.6265" fill="none" id="AuthService-to-Usuario" style="stroke:#181818;stroke-width:1;"/><polygon fill="#181818" points="464.51,325.0969,473.4932,321.0593,467.845,321.3716,467.5328,315.7234,464.51,325.0969" style="stroke:#181818;stroke-width:1;"/></g><!--link MesaService to Mesa--><g class="link" data-entity-1="ent0013" data-entity-2="ent0025" data-link-type="dependency" data-source-line="56" id="lnk42"><path codeLine="56" d="M233.23,250.6269 C232.52,272.0569 231.679,297.6402 230.969,319.0402" fill="none" id="MesaService-to-Mesa" style="stroke:#181818;stroke-width:1;"/><polygon fill="#181818" points="230.77,325.0369,235.0662,316.1745,230.9358,320.0396,227.0706,315.9092,230.77,325.0369" style="stroke:#181818;stroke-width:1;"/></g><!--link ComandaService to Comanda--><g class="link" data-entity-1="ent0014" data-entity-2="ent0026" data-link-type="dependency" data-source-line="57" id="lnk43"><path codeLine="57" d="M685.51,250.7869 C669.99,259.8769 652.72,270.8569 638,282.2969 C621.5,295.1269 608.8833,307.2776 596.2533,320.5676" fill="none" id="ComandaService-to-Comanda" style="stroke:#181818;stroke-width:1;"/><polygon fill="#181818" points="592.12,324.9169,601.2194,321.1485,595.5644,321.2925,595.4204,315.6375,592.12,324.9169" style="stroke:#181818;stroke-width:1;"/></g><!--link ComandaService to LineaComanda--><g class="link" data-entity-1="ent0014" data-entity-2="ent0027" data-link-type="dependency" data-source-line="58" id="lnk44"><path codeLine="58" d="M728.04,250.6269 C727.15,272.0569 726.0993,297.6421 725.2093,319.0421" fill="none" id="ComandaService-to-LineaComanda" style="stroke:#181818;stroke-width:1;"/><polygon fill="#181818" points="724.96,325.0369,729.3305,316.2109,725.1678,320.0412,721.3374,315.8784,724.96,325.0369" style="stroke:#181818;stroke-width:1;"/></g><!--link ComandaService to Plato--><g class="link" data-entity-1="ent0014" data-entity-2="ent0028" data-link-type="dependency" data-source-line="59" id="lnk45"><path codeLine="59" d="M766.5,250.6569 C782.92,259.6969 802.79,269.1069 822,274.2969 C850.8,282.0769 929.63,268.3569 956,282.2969 C973.67,291.6369 984.1209,304.8845 992.7509,319.9045" fill="none" id="ComandaService-to-Plato" style="stroke:#181818;stroke-width:1;"/><polygon fill="#181818" points="995.74,325.1069,994.7246,315.3105,993.2491,320.7715,987.788,319.296,995.74,325.1069" style="stroke:#181818;stroke-width:1;"/></g><!--link ComandaService to TarifaMenu--><g class="link" data-entity-1="ent0014" data-entity-2="ent0029" data-link-type="dependency" data-source-line="60" id="lnk46"><path codeLine="60" d="M765.65,250.6269 C779.82,260.0369 795.96,271.2769 810,282.2969 C826.93,295.5969 840.5069,307.6788 854.3669,320.6988" fill="none" id="ComandaService-to-TarifaMenu" style="stroke:#181818;stroke-width:1;"/><polygon fill="#181818" points="858.74,324.8069,854.9191,315.7294,855.0958,321.3835,849.4417,321.5602,858.74,324.8069" style="stroke:#181818;stroke-width:1;"/></g><!--link TicketService to Ticket--><g class="link" data-entity-1="ent0015" data-entity-2="ent0030" data-link-type="dependency" data-source-line="61" id="lnk47"><path codeLine="61" d="M1069.41,250.6269 C1078.97,272.0569 1090.6249,298.1577 1100.1749,319.5577" fill="none" id="TicketService-to-Ticket" style="stroke:#181818;stroke-width:1;"/><polygon fill="#181818" points="1102.62,325.0369,1102.6051,315.188,1100.5824,320.4709,1095.2995,318.4482,1102.62,325.0369" style="stroke:#181818;stroke-width:1;"/></g><!--link ReservaService to Reserva--><g class="link" data-entity-1="ent0016" data-entity-2="ent0031" data-link-type="dependency" data-source-line="62" id="lnk48"><path codeLine="62" d="M1227.58,250.6269 C1228.11,272.0569 1228.7414,297.6387 1229.2714,319.0387" fill="none" id="ReservaService-to-Reserva" style="stroke:#181818;stroke-width:1;"/><polygon fill="#181818" points="1229.42,325.0369,1233.1959,315.9406,1229.2962,320.0384,1225.1984,316.1387,1229.42,325.0369" style="stroke:#181818;stroke-width:1;"/></g><!--link UsuarioService to Usuario--><g class="link" data-entity-1="ent0017" data-entity-2="ent0023" data-link-type="dependency" data-source-line="63" id="lnk49"><path codeLine="63" d="M406.87,250.6269 C415.01,272.0569 424.8869,298.0289 433.0269,319.4289" fill="none" id="UsuarioService-to-Usuario" style="stroke:#181818;stroke-width:1;"/><polygon fill="#181818" points="435.16,325.0369,435.699,315.2028,433.3824,320.3635,428.2216,318.047,435.16,325.0369" style="stroke:#181818;stroke-width:1;"/></g><!--link CartaService to Plato--><g class="link" data-entity-1="ent0018" data-entity-2="ent0028" data-link-type="dependency" data-source-line="64" id="lnk50"><path codeLine="64" d="M925.27,250.6969 C935.16,260.2069 946.41,271.4969 956,282.2969 C968.11,295.9369 977.0827,307.32 986.6927,320.26" fill="none" id="CartaService-to-Plato" style="stroke:#181818;stroke-width:1;"/><polygon fill="#181818" points="990.27,325.0769,988.1153,315.4666,987.2889,321.0628,981.6927,320.2364,990.27,325.0769" style="stroke:#181818;stroke-width:1;"/></g><!--link CartaService to TarifaMenu--><g class="link" data-entity-1="ent0018" data-entity-2="ent0029" data-link-type="dependency" data-source-line="65" id="lnk51"><path codeLine="65" d="M896.72,250.6269 C893.71,272.0569 890.103,297.695 887.103,319.095" fill="none" id="CartaService-to-TarifaMenu" style="stroke:#181818;stroke-width:1;"/><polygon fill="#181818" points="886.27,325.0369,891.4807,316.6793,886.9641,320.0853,883.5582,315.5687,886.27,325.0369" style="stroke:#181818;stroke-width:1;"/></g><!--link AuditoriaService to LogAuditoria--><g class="link" data-entity-1="ent0021" data-entity-2="ent0032" data-link-type="dependency" data-source-line="66" id="lnk52"><path codeLine="66" d="M1729.74,250.7569 C1714.25,259.0569 1696.17,267.9169 1679,274.2969 C1595.37,305.3869 1499.9631,325.6528 1436.7031,337.1628" fill="none" id="AuditoriaService-to-LogAuditoria" style="stroke:#181818;stroke-width:1;"/><polygon fill="#181818" points="1430.8,338.2369,1440.3707,340.5612,1435.7192,337.3418,1438.9386,332.6904,1430.8,338.2369" style="stroke:#181818;stroke-width:1;"/></g><?plantuml-src RLF1ZjCm4BtxAqRBkH9eBt11Akr6Gb21o7BXDfjCirPTJx0de0NnxwH9b8vT7_DcylBUcnUnuWZs5hk0PuIMe74OAS86jk7dO8KQ6G92pm4Qx34Q8zo3C3on29-XjM5SiUnDF5dVuqWpKSIjIB1FWz37Xdrj_n2yLYln6Ll-RNq7HtIHr2JmuDk6WwS0R_GhFJOdxAYMbr7nvQFeEqV6B3ZSxTXBOESen3jujN_tiAig-6jWrWFRGPwlAojye8W5UCTdz6rfycbV5z17svn82eDl52dyAX5zZmC6owMFOn3znZ_biXxPR4EJnRVL_NwNMLpcYRySMypbyEmXHnS3ERoelw6-IC_1cal4Nuv7PptLBxx9HzkXjSB1hamwWGEtv2x-gwgw_w1Fl6XQdt-mnoI8F87r-VCe17FmgqEvaZsEr4Sya1-omFAahgJShKOk3j86mcRpFhbOsiHfh8ztqyXf8pjbKixIGjxJQISz_4rZfvsi1ZVbdPQoKcGzdlNeWXZbNnCOPNmDmgHMjBlIA3bfOJvVjp1GXqw2KL6PD0qTa4apI5nfxrf33Yi5-PymMrF5-Wy0?></g></svg>