<svg xmlns="http://www.w3.org/2000/svg" xmlns:xlink="http://www.w3.org/1999/xlink" contentStyleType="text/css" data-diagram-type="DESCRIPTION" height="838px" preserveAspectRatio="none" style="width:1476px;height:838px;background:#FFFFFF;" version="1.1" viewBox="0 0 1476 838" width="1476px" zoomAndPan="magnify"><?plantuml 1.2026.7beta1?><defs/><g><g class="title" data-source-line="1"><text fill="#000000" font-family="sans-serif" font-size="14" font-weight="700" lengthAdjust="spacing" textLength="213.6504" x="627.9848" y="22.9951">CU-14 - Enviar ticket a caja</text></g><!--cluster Vista--><g class="cluster" data-qualified-name="Vista" data-source-line="10" id="ent0002"><path d="M1291.69,184.0969 L1332.7964,184.0969 A3.75,3.75 0 0 1 1335.2964,186.5969 L1342.2964,206.3938 L1459.12,206.3938 A2.5,2.5 0 0 1 1461.62,208.8938 L1461.62,359.5969 A2.5,2.5 0 0 1 1459.12,362.0969 L1291.69,362.0969 A2.5,2.5 0 0 1 1289.19,359.5969 L1289.19,186.5969 A2.5,2.5 0 0 1 1291.69,184.0969" fill="none" style="stroke:#000000;stroke-width:1.5;"/><line style="stroke:#000000;stroke-width:1.5;" x1="1289.19" x2="1342.2964" y1="206.3938" y2="206.3938"/><text fill="#000000" font-family="sans-serif" font-size="14" font-weight="700" lengthAdjust="spacing" textLength="40.1064" x="1293.19" y="199.092">Vista</text></g><!--cluster Controlador--><g class="cluster" data-qualified-name="Controlador" data-source-line="15" id="ent0005"><path d="M8.5,373.0969 L103.3643,373.0969 A3.75,3.75 0 0 1 105.8643,375.5969 L112.8643,395.3938 L267.95,395.3938 A2.5,2.5 0 0 1 270.45,397.8938 L270.45,483.5969 A2.5,2.5 0 0 1 267.95,486.0969 L8.5,486.0969 A2.5,2.5 0 0 1 6,483.5969 L6,375.5969 A2.5,2.5 0 0 1 8.5,373.0969" fill="none" style="stroke:#000000;stroke-width:1.5;"/><line style="stroke:#000000;stroke-width:1.5;" x1="6" x2="112.8643" y1="395.3938" y2="395.3938"/><text fill="#000000" font-family="sans-serif" font-size="14" font-weight="700" lengthAdjust="spacing" textLength="93.8643" x="10" y="388.092">Controlador</text></g><!--cluster Servicio--><g class="cluster" data-qualified-name="Servicio" data-source-line="19" id="ent0007"><path d="M485.95,151.0969 L550.073,151.0969 A3.75,3.75 0 0 1 552.573,153.5969 L559.573,173.3938 L1085.92,173.3938 A2.5,2.5 0 0 1 1088.42,175.8938 L1088.42,290.5969 A2.5,2.5 0 0 1 1085.92,293.0969 L485.95,293.0969 A2.5,2.5 0 0 1 483.45,290.5969 L483.45,153.5969 A2.5,2.5 0 0 1 485.95,151.0969" fill="none" style="stroke:#000000;stroke-width:1.5;"/><line style="stroke:#000000;stroke-width:1.5;" x1="483.45" x2="559.573" y1="173.3938" y2="173.3938"/><text fill="#000000" font-family="sans-serif" font-size="14" font-weight="700" lengthAdjust="spacing" textLength="63.123" x="487.45" y="166.092">Servicio</text></g><!--cluster Modelos--><g class="cluster" data-qualified-name="Modelos" data-source-line="24" id="ent0010"><path d="M917.04,317.0969 L983.8564,317.0969 A3.75,3.75 0 0 1 986.3564,319.5969 L993.3564,339.3938 L1088.69,339.3938 A2.5,2.5 0 0 1 1091.19,341.8938 L1091.19,654.5969 A2.5,2.5 0 0 1 1088.69,657.0969 L917.04,657.0969 A2.5,2.5 0 0 1 914.54,654.5969 L914.54,319.5969 A2.5,2.5 0 0 1 917.04,317.0969" fill="none" style="stroke:#000000;stroke-width:1.5;"/><line style="stroke:#000000;stroke-width:1.5;" x1="914.54" x2="993.3564" y1="339.3938" y2="339.3938"/><text fill="#000000" font-family="sans-serif" font-size="14" font-weight="700" lengthAdjust="spacing" textLength="65.8164" x="918.54" y="332.092">Modelos</text></g><!--entity ComandaView--><g class="entity" data-qualified-name="Vista.ComandaView" data-source-line="11" id="ent0003"><rect fill="#F1F1F1" height="46.2969" rx="2.5" ry="2.5" style="stroke:#181818;stroke-width:0.5;" width="140.4268" x="1305.19" y="299.9469"/><rect fill="#F1F1F1" height="10" style="stroke:#181818;stroke-width:0.5;" width="15" x="1425.6168" y="304.9469"/><rect fill="#F1F1F1" height="2" style="stroke:#181818;stroke-width:0.5;" width="4" x="1423.6168" y="306.9469"/><rect fill="#F1F1F1" height="2" style="stroke:#181818;stroke-width:0.5;" width="4" x="1423.6168" y="310.9469"/><text fill="#000000" font-family="sans-serif" font-size="14" lengthAdjust="spacing" textLength="100.4268" x="1320.19" y="332.942">ComandaView</text></g><!--entity CajaView--><g class="entity" data-qualified-name="Vista.CajaView" data-source-line="12" id="ent0004"><rect fill="#F1F1F1" height="46.2969" rx="2.5" ry="2.5" style="stroke:#181818;stroke-width:0.5;" width="104.3535" x="1323.23" y="218.9469"/><rect fill="#F1F1F1" height="10" style="stroke:#181818;stroke-width:0.5;" width="15" x="1407.5835" y="223.9469"/><rect fill="#F1F1F1" height="2" style="stroke:#181818;stroke-width:0.5;" width="4" x="1405.5835" y="225.9469"/><rect fill="#F1F1F1" height="2" style="stroke:#181818;stroke-width:0.5;" width="4" x="1405.5835" y="229.9469"/><text fill="#000000" font-family="sans-serif" font-size="14" lengthAdjust="spacing" textLength="64.3535" x="1338.23" y="251.942">CajaView</text></g><!--entity Controller--><g class="entity" data-qualified-name="Controlador.Controller" data-source-line="16" id="ent0006"><rect fill="#F1F1F1" height="62.5938" rx="2.5" ry="2.5" style="stroke:#181818;stroke-width:0.5;" width="232.4521" x="22" y="407.7969"/><rect fill="#F1F1F1" height="10" style="stroke:#181818;stroke-width:0.5;" width="15" x="234.4521" y="412.7969"/><rect fill="#F1F1F1" height="2" style="stroke:#181818;stroke-width:0.5;" width="4" x="232.4521" y="414.7969"/><rect fill="#F1F1F1" height="2" style="stroke:#181818;stroke-width:0.5;" width="4" x="232.4521" y="418.7969"/><text fill="#000000" font-family="sans-serif" font-size="14" lengthAdjust="spacing" textLength="111.5215" x="37" y="440.792">TicketController</text><text fill="#000000" font-family="sans-serif" font-size="14" lengthAdjust="spacing" textLength="192.4521" x="37" y="457.0889">(CU-14 Enviar ticket a caja)</text></g><!--entity Service--><g class="entity" data-qualified-name="Servicio.Service" data-source-line="20" id="ent0008"><rect fill="#F1F1F1" height="46.2969" rx="2.5" ry="2.5" style="stroke:#181818;stroke-width:0.5;" width="134.0898" x="499.45" y="230.9469"/><rect fill="#F1F1F1" height="10" style="stroke:#181818;stroke-width:0.5;" width="15" x="613.5398" y="235.9469"/><rect fill="#F1F1F1" height="2" style="stroke:#181818;stroke-width:0.5;" width="4" x="611.5398" y="237.9469"/><rect fill="#F1F1F1" height="2" style="stroke:#181818;stroke-width:0.5;" width="4" x="611.5398" y="241.9469"/><text fill="#000000" font-family="sans-serif" font-size="14" lengthAdjust="spacing" textLength="94.0898" x="514.45" y="263.942">TicketService</text></g><!--entity Socket--><g class="entity" data-qualified-name="Servicio.Socket" data-source-line="21" id="ent0009"><rect fill="#F1F1F1" height="46.2969" rx="2.5" ry="2.5" style="stroke:#181818;stroke-width:0.5;" width="139.1006" x="933.32" y="218.9469"/><rect fill="#F1F1F1" height="10" style="stroke:#181818;stroke-width:0.5;" width="15" x="1052.4206" y="223.9469"/><rect fill="#F1F1F1" height="2" style="stroke:#181818;stroke-width:0.5;" width="4" x="1050.4206" y="225.9469"/><rect fill="#F1F1F1" height="2" style="stroke:#181818;stroke-width:0.5;" width="4" x="1050.4206" y="229.9469"/><text fill="#000000" font-family="sans-serif" font-size="14" lengthAdjust="spacing" textLength="99.1006" x="948.32" y="251.942">SocketService</text></g><!--entity Comanda--><g class="entity" data-qualified-name="Modelos.Comanda" data-source-line="25" id="ent0011"><rect fill="#F1F1F1" height="46.2969" rx="2.5" ry="2.5" style="stroke:#181818;stroke-width:0.5;" width="106.8965" x="949.42" y="351.9469"/><rect fill="#F1F1F1" height="10" style="stroke:#181818;stroke-width:0.5;" width="15" x="1036.3165" y="356.9469"/><rect fill="#F1F1F1" height="2" style="stroke:#181818;stroke-width:0.5;" width="4" x="1034.3165" y="358.9469"/><rect fill="#F1F1F1" height="2" style="stroke:#181818;stroke-width:0.5;" width="4" x="1034.3165" y="362.9469"/><text fill="#000000" font-family="sans-serif" font-size="14" lengthAdjust="spacing" textLength="66.8965" x="964.42" y="384.942">Comanda</text></g><!--entity Linea--><g class="entity" data-qualified-name="Modelos.Linea" data-source-line="26" id="ent0012"><rect fill="#F1F1F1" height="46.2969" rx="2.5" ry="2.5" style="stroke:#181818;stroke-width:0.5;" width="144.6514" x="930.54" y="432.9469"/><rect fill="#F1F1F1" height="10" style="stroke:#181818;stroke-width:0.5;" width="15" x="1055.1914" y="437.9469"/><rect fill="#F1F1F1" height="2" style="stroke:#181818;stroke-width:0.5;" width="4" x="1053.1914" y="439.9469"/><rect fill="#F1F1F1" height="2" style="stroke:#181818;stroke-width:0.5;" width="4" x="1053.1914" y="443.9469"/><text fill="#000000" font-family="sans-serif" font-size="14" lengthAdjust="spacing" textLength="104.6514" x="945.54" y="465.942">LineaComanda</text></g><!--entity Ticket--><g class="entity" data-qualified-name="Modelos.Ticket" data-source-line="27" id="ent0013"><rect fill="#F1F1F1" height="46.2969" rx="2.5" ry="2.5" style="stroke:#181818;stroke-width:0.5;" width="82.3486" x="961.69" y="513.9469"/><rect fill="#F1F1F1" height="10" style="stroke:#181818;stroke-width:0.5;" width="15" x="1024.0386" y="518.9469"/><rect fill="#F1F1F1" height="2" style="stroke:#181818;stroke-width:0.5;" width="4" x="1022.0386" y="520.9469"/><rect fill="#F1F1F1" height="2" style="stroke:#181818;stroke-width:0.5;" width="4" x="1022.0386" y="524.9469"/><text fill="#000000" font-family="sans-serif" font-size="14" lengthAdjust="spacing" textLength="42.3486" x="976.69" y="546.942">Ticket</text></g><!--entity Log--><g class="entity" data-qualified-name="Modelos.Log" data-source-line="28" id="ent0014"><rect fill="#F1F1F1" height="46.2969" rx="2.5" ry="2.5" style="stroke:#181818;stroke-width:0.5;" width="128.7578" x="938.49" y="594.9469"/><rect fill="#F1F1F1" height="10" style="stroke:#181818;stroke-width:0.5;" width="15" x="1047.2478" y="599.9469"/><rect fill="#F1F1F1" height="2" style="stroke:#181818;stroke-width:0.5;" width="4" x="1045.2478" y="601.9469"/><rect fill="#F1F1F1" height="2" style="stroke:#181818;stroke-width:0.5;" width="4" x="1045.2478" y="605.9469"/><text fill="#000000" font-family="sans-serif" font-size="14" lengthAdjust="spacing" textLength="88.7578" x="953.49" y="627.942">LogAuditoria</text></g><!--entity Actor--><g class="entity" data-qualified-name="Actor" data-source-line="8" id="ent0001"><ellipse cx="1002.87" cy="51.2969" fill="#F1F1F1" rx="8" ry="8" style="stroke:#181818;stroke-width:0.5;"/><path d="M1002.87,59.2969 L1002.87,86.2969 M989.87,67.2969 L1015.87,67.2969 M1002.87,86.2969 L989.87,101.2969 M1002.87,86.2969 L1015.87,101.2969" fill="none" style="stroke:#181818;stroke-width:0.5;"/><text fill="#000000" font-family="sans-serif" font-size="14" lengthAdjust="spacing" textLength="78.4287" x="953.33" y="115.792">Camarero /</text><text fill="#000000" font-family="sans-serif" font-size="14" lengthAdjust="spacing" textLength="99.0801" x="953.33" y="132.0889">Administrador</text></g><!--link Actor to ComandaView--><g class="link" data-entity-1="ent0001" data-entity-2="ent0003" data-link-type="dependency" data-source-line="31" id="lnk15"><path d="M1052.87,97.5769 C1115.06,111.1269 1220.57,143.9869 1273.19,217.0969 C1290.45,241.0769 1263.48,259.4469 1281.19,283.0969 C1287.42,291.4169 1291.3991,295.5183 1300.4991,300.7683" fill="none" id="Actor-to-ComandaView" style="stroke:#181818;stroke-width:1;"/><polygon fill="#181818" points="1304.83,303.2669,1299.0332,295.3046,1300.4991,300.7683,1295.0354,302.2341,1304.83,303.2669" style="stroke:#181818;stroke-width:1;stroke-linejoin:miter;stroke-miterlimit:10;"/><text fill="#000000" font-family="sans-serif" font-size="13" lengthAdjust="spacing" textLength="131.3711" x="1124.69" y="109.1638">solicita enviar ticket</text></g><!--link ComandaView to Controller--><g class="link" data-entity-1="ent0003" data-entity-2="ent0006" data-link-type="dependency" data-source-line="32" id="lnk16"><path d="M1363.64,346.3369 C1332.91,409.6369 1237.95,585.1969 1099.19,657.0969 C777.31,823.8969 333.9393,567.3262 189.9793,473.5362" fill="none" id="ComandaView-to-Controller" style="stroke:#181818;stroke-width:1;"/><polygon fill="#181818" points="185.79,470.8069,191.1473,479.0712,189.9793,473.5362,195.5143,472.3682,185.79,470.8069" style="stroke:#181818;stroke-width:1;stroke-linejoin:miter;stroke-miterlimit:10;"/><text fill="#000000" font-family="sans-serif" font-size="13" lengthAdjust="spacing" textLength="110.2397" x="726.04" y="685.1638">POST /api/tickets</text></g><!--link Controller to Service--><g class="link" data-entity-1="ent0006" data-entity-2="ent0008" data-link-type="dependency" data-source-line="33" id="lnk17"><path d="M212.02,407.5069 C296.91,370.6669 430.6832,312.6073 506.6832,279.6273" fill="none" id="Controller-to-Service" style="stroke:#181818;stroke-width:1;"/><polygon fill="#181818" points="511.27,277.6369,501.4215,277.5502,506.6832,279.6273,504.6062,284.889,511.27,277.6369" style="stroke:#181818;stroke-width:1;stroke-linejoin:miter;stroke-miterlimit:10;"/><text fill="#000000" font-family="sans-serif" font-size="13" lengthAdjust="spacing" textLength="179.1626" x="287.45" y="295.1638">generarTicket(comanda_id)</text></g><!--link Service to Comanda--><g class="link" data-entity-1="ent0008" data-entity-2="ent0011" data-link-type="dependency" data-source-line="34" id="lnk18"><path d="M633.9,271.6069 C700.84,289.3869 807.06,317.9469 898.54,344.0969 C915.02,348.8069 928.1325,352.6647 944.3325,357.5447" fill="none" id="Service-to-Comanda" style="stroke:#181818;stroke-width:1;"/><polygon fill="#181818" points="949.12,358.9869,941.6562,352.561,944.3325,357.5447,939.3488,360.221,949.12,358.9869" style="stroke:#181818;stroke-width:1;stroke-linejoin:miter;stroke-miterlimit:10;"/><text fill="#000000" font-family="sans-serif" font-size="13" lengthAdjust="spacing" textLength="157.0854" x="702.54" y="278.1638">obtiene comanda activa</text></g><!--link Service to Linea--><g class="link" data-entity-1="ent0008" data-entity-2="ent0012" data-link-type="dependency" data-source-line="35" id="lnk19"><path d="M580.46,277.5569 C596.41,304.1169 626.07,346.6169 663.54,369.0969 C755.04,423.9769 795.98,388.7169 898.54,418.0969 C912.87,422.2069 923.3596,425.6321 937.5596,430.7821" fill="none" id="Service-to-Linea" style="stroke:#181818;stroke-width:1;"/><polygon fill="#181818" points="942.26,432.4869,935.163,425.658,937.5596,430.7821,932.4355,433.1787,942.26,432.4869" style="stroke:#181818;stroke-width:1;stroke-linejoin:miter;stroke-miterlimit:10;"/><text fill="#000000" font-family="sans-serif" font-size="13" lengthAdjust="spacing" textLength="150.0269" x="706.04" y="365.1638">obtiene l&#237;neas servidas</text></g><!--link Service to Ticket--><g class="link" data-entity-1="ent0008" data-entity-2="ent0013" data-link-type="dependency" data-source-line="36" id="lnk20"><path d="M572.8,277.4269 C583.14,317.4669 609.82,399.1869 663.54,443.0969 C747.45,511.6769 794.15,479.0069 898.54,508.0969 C919.36,513.8969 937.7164,519.0442 956.8264,524.4142" fill="none" id="Service-to-Ticket" style="stroke:#181818;stroke-width:1;"/><polygon fill="#181818" points="961.64,525.7669,954.0577,519.4813,956.8264,524.4142,951.8935,527.183,961.64,525.7669" style="stroke:#181818;stroke-width:1;stroke-linejoin:miter;stroke-miterlimit:10;"/><text fill="#000000" font-family="sans-serif" font-size="13" lengthAdjust="spacing" textLength="233.4541" x="664.54" y="439.1638">comprueba que no exista duplicado</text></g><!--link Service to Ticket--><g class="link" data-entity-1="ent0008" data-entity-2="ent0013" data-link-type="dependency" data-source-line="38" id="lnk22"><path d="M567.31,277.5969 C568.3,333.1369 579.45,472.3569 663.54,533.0969 C752.83,597.5869 888.0111,571.1261 956.5311,551.6161" fill="none" id="Service-to-Ticket-1" style="stroke:#181818;stroke-width:1;"/><polygon fill="#181818" points="961.34,550.2469,951.5886,548.8644,956.5311,551.6161,953.7794,556.5586,961.34,550.2469" style="stroke:#181818;stroke-width:1;stroke-linejoin:miter;stroke-miterlimit:10;"/><text fill="#000000" font-family="sans-serif" font-size="13" lengthAdjust="spacing" textLength="146.9165" x="708.04" y="529.1638">crea ticket PENDIENTE</text></g><!--link Service to Service--><g class="link" data-entity-1="ent0008" data-entity-2="ent0008" data-link-type="dependency" data-source-line="37" id="lnk21"><path d="M534.97,230.5069 C524.33,213.2469 534.84,195.9469 566.5,195.9469 C598.15,195.9469 611.282,208.9895 600.652,226.2495" fill="none" id="Service-to-Service" style="stroke:#181818;stroke-width:1;"/><polygon fill="#181818" points="598.03,230.5069,606.1555,224.9412,600.652,226.2495,599.3437,220.746,598.03,230.5069" style="stroke:#181818;stroke-width:1;stroke-linejoin:miter;stroke-miterlimit:10;"/><text fill="#000000" font-family="sans-serif" font-size="13" lengthAdjust="spacing" textLength="143.2158" x="495" y="187.0138">calcula carta y men&#250;s</text></g><!--link Service to Log--><g class="link" data-entity-1="ent0008" data-entity-2="ent0014" data-link-type="dependency" data-source-line="39" id="lnk23"><path d="M570.48,277.5069 C580.03,348.2969 612.2,557.7769 663.54,599.0969 C740.99,661.4369 858.7304,650.7438 933.1404,635.6038" fill="none" id="Service-to-Log" style="stroke:#181818;stroke-width:1;"/><polygon fill="#181818" points="938.04,634.6069,928.4232,632.4816,933.1404,635.6038,930.0182,640.321,938.04,634.6069" style="stroke:#181818;stroke-width:1;stroke-linejoin:miter;stroke-miterlimit:10;"/><text fill="#000000" font-family="sans-serif" font-size="13" lengthAdjust="spacing" textLength="127.2705" x="717.54" y="595.1638">registra generaci&#243;n</text></g><!--link Service to Socket--><g class="link" data-entity-1="ent0008" data-entity-2="ent0009" data-link-type="dependency" data-source-line="40" id="lnk24"><path d="M633.94,252.2569 C714.86,250.0269 845.8819,246.4046 927.9219,244.1446" fill="none" id="Service-to-Socket" style="stroke:#181818;stroke-width:1;"/><polygon fill="#181818" points="932.92,244.0069,923.8133,240.2562,927.9219,244.1446,924.0336,248.2532,932.92,244.0069" style="stroke:#181818;stroke-width:1;stroke-linejoin:miter;stroke-miterlimit:10;"/><text fill="#000000" font-family="sans-serif" font-size="13" lengthAdjust="spacing" textLength="144.3647" x="709.04" y="241.1638">emite ticket:generado</text></g><!--link Socket to CajaView--><g class="link" data-entity-1="ent0009" data-entity-2="ent0004" data-link-type="dependency" data-source-line="41" id="lnk25"><path d="M1072.69,242.0969 C1145.21,242.0969 1252.76,242.0969 1317.94,242.0969" fill="none" id="Socket-to-CajaView" style="stroke:#181818;stroke-width:1;"/><polygon fill="#181818" points="1322.94,242.0969,1313.94,238.0969,1317.94,242.0969,1313.94,246.0969,1322.94,242.0969" style="stroke:#181818;stroke-width:1;stroke-linejoin:miter;stroke-miterlimit:10;"/><text fill="#000000" font-family="sans-serif" font-size="13" lengthAdjust="spacing" textLength="164.5122" x="1108.19" y="238.1638">muestra ticket pendiente</text></g><?plantuml-src TPEnRjim48PtFiN1Kp8OHejE6GeOheS2RHh0RgO0nLcyoAmfdafHTeEYZzIfMrU_M4ya3LDEiacyx-x_-PCC9bY2nTVfctSmXQNR6_GGJBMZ00WLVaUbB3q620pUrDi0sdYgWc6dkfrnBNfieDkYveDnDJoYxQYeRB3QrPvxfnTisSDXQq9PhxXfsP4Bg_0aHlh6lbKAgo3eP84DUl8CimStrurnfWjUXFm4i8Fv02dLYW3M19DxgU84VYau3vKPtA3JU6_e4BkA_mjGjdgcye_wNGWis0NFDXcua5d7n39XoJ-ugvJfIubUPoSdUAIo8hytbU5N95APueJyFSPM_0oBAoEHpwp9SlTQMcLIO-2JSOGb5HTUCXghwVDY1DVpNXivF9D7S3sOY-S9q-dxyepW1ZgsaaT0e39ALKAfwHIdzDnzMQrXXgsP9RfJHNcWSpw2rkJ8eqzEhweqzPlHr-h459Q4vqqmqWAP1BchPeyZE6PIeFRuHnOww0P6OpU2ax3GGqI-fmt2Zvx0CT3FuKQ3xbi9G6xTgEsyWGfjrTlXPdcXdw0XT_ptceONO_aktYrlFtnStgwNO-zS2-UfZcyjfrEPurytbkSyaHfvptdaJQ87fwaSayjFITYcfpWq6sZ9QSadq7y0?></g></svg>