<svg xmlns="http://www.w3.org/2000/svg" xmlns:xlink="http://www.w3.org/1999/xlink" contentStyleType="text/css" data-diagram-type="CLASS" height="568px" preserveAspectRatio="none" style="width:896px;height:568px;background:#FFFFFF;" version="1.1" viewBox="0 0 896 568" width="896px" zoomAndPan="magnify"><?plantuml 1.2026.3beta6?><defs/><g><g class="title" data-source-line="1"><text fill="#000000" font-family="sans-serif" font-size="14" font-weight="700" lengthAdjust="spacing" textLength="281.4971" x="303.7515" y="22.9951">Diagrama de clases - Controladores</text></g><!--cluster Controllers--><g class="cluster" data-qualified-name="Controllers" data-source-line="13" id="ent0002"><rect fill="none" height="510.56" rx="6" ry="6" style="stroke:#000000;stroke-width:1.5;" width="875" x="7" y="44.2969"/><text fill="#000000" font-family="sans-serif" font-size="14" font-weight="700" lengthAdjust="spacing" textLength="87.4043" x="400.7979" y="59.292">Controllers</text></g><!--class AuthController--><g class="entity" data-qualified-name="Controllers.AuthController" data-source-line="14" id="ent0003"><rect fill="#D9ECFF" height="96.8906" rx="6" ry="6" style="stroke:#5B7C99;stroke-width:0.5;" width="219.8125" x="50.09" y="87.4469"/><ellipse cx="104.7536" cy="103.4469" fill="#ADD1B2" rx="11" ry="11" style="stroke:#181818;stroke-width:1;"/><path d="M107.7223,109.0875 Q107.1442,109.3844 106.5036,109.525 Q105.8629,109.6812 105.1598,109.6812 Q102.6598,109.6812 101.3317,108.0406 Q100.0192,106.3844 100.0192,103.2594 Q100.0192,100.1344 101.3317,98.4781 Q102.6598,96.8219 105.1598,96.8219 Q105.8629,96.8219 106.5036,96.9781 Q107.1598,97.1344 107.7223,97.4312 L107.7223,100.15 Q107.0973,99.5719 106.5036,99.3062 Q105.9098,99.025 105.2848,99.025 Q103.9411,99.025 103.2536,100.1031 Q102.5661,101.1656 102.5661,103.2594 Q102.5661,105.3531 103.2536,106.4312 Q103.9411,107.4937 105.2848,107.4937 Q105.9098,107.4937 106.5036,107.2281 Q107.0973,106.9469 107.7223,106.3687 L107.7223,109.0875 Z " fill="#000000"/><text fill="#000000" font-family="sans-serif" font-size="14" lengthAdjust="spacing" textLength="101.9854" x="125.2536" y="108.2936">AuthController</text><line style="stroke:#5B7C99;stroke-width:0.5;" x1="51.09" x2="268.9025" y1="119.4469" y2="119.4469"/><line style="stroke:#5B7C99;stroke-width:0.5;" x1="51.09" x2="268.9025" y1="127.4469" y2="127.4469"/><text fill="#000000" font-family="sans-serif" font-size="14" lengthAdjust="spacing" textLength="149.3721" x="56.09" y="144.442">+login(req, res): void</text><text fill="#000000" font-family="sans-serif" font-size="14" lengthAdjust="spacing" textLength="207.8125" x="56.09" y="160.7389">+refreshToken(req, res): void</text><text fill="#000000" font-family="sans-serif" font-size="14" lengthAdjust="spacing" textLength="159.5371" x="56.09" y="177.0357">+logout(req, res): void</text></g><!--class MesaController--><g class="entity" data-qualified-name="Controllers.MesaController" data-source-line="20" id="ent0004"><rect fill="#D9ECFF" height="96.8906" rx="6" ry="6" style="stroke:#5B7C99;stroke-width:0.5;" width="195.5107" x="305.24" y="87.4469"/><ellipse cx="346.2376" cy="103.4469" fill="#ADD1B2" rx="11" ry="11" style="stroke:#181818;stroke-width:1;"/><path d="M349.2064,109.0875 Q348.6282,109.3844 347.9876,109.525 Q347.347,109.6812 346.6439,109.6812 Q344.1439,109.6812 342.8157,108.0406 Q341.5032,106.3844 341.5032,103.2594 Q341.5032,100.1344 342.8157,98.4781 Q344.1439,96.8219 346.6439,96.8219 Q347.347,96.8219 347.9876,96.9781 Q348.6439,97.1344 349.2064,97.4312 L349.2064,100.15 Q348.5814,99.5719 347.9876,99.3062 Q347.3939,99.025 346.7689,99.025 Q345.4251,99.025 344.7376,100.1031 Q344.0501,101.1656 344.0501,103.2594 Q344.0501,105.3531 344.7376,106.4312 Q345.4251,107.4937 346.7689,107.4937 Q347.3939,107.4937 347.9876,107.2281 Q348.5814,106.9469 349.2064,106.3687 L349.2064,109.0875 Z " fill="#000000"/><text fill="#000000" font-family="sans-serif" font-size="14" lengthAdjust="spacing" textLength="105.7383" x="366.0149" y="108.2936">MesaController</text><line style="stroke:#5B7C99;stroke-width:0.5;" x1="306.24" x2="499.7507" y1="119.4469" y2="119.4469"/><line style="stroke:#5B7C99;stroke-width:0.5;" x1="306.24" x2="499.7507" y1="127.4469" y2="127.4469"/><text fill="#000000" font-family="sans-serif" font-size="14" lengthAdjust="spacing" textLength="182.1162" x="311.24" y="144.442">+getMesas(req, res): void</text><text fill="#000000" font-family="sans-serif" font-size="14" lengthAdjust="spacing" textLength="174.2207" x="311.24" y="160.7389">+abrirMesa(id, res): void</text><text fill="#000000" font-family="sans-serif" font-size="14" lengthAdjust="spacing" textLength="183.5107" x="311.24" y="177.0357">+cerrarMesa(id, res): void</text></g><!--class ComandaController--><g class="entity" data-qualified-name="Controllers.ComandaController" data-source-line="26" id="ent0005"><rect fill="#D9ECFF" height="113.1875" rx="6" ry="6" style="stroke:#5B7C99;stroke-width:0.5;" width="306.9092" x="535.55" y="79.2969"/><ellipse cx="616.7199" cy="95.2969" fill="#ADD1B2" rx="11" ry="11" style="stroke:#181818;stroke-width:1;"/><path d="M619.6887,100.9375 Q619.1105,101.2344 618.4699,101.375 Q617.8293,101.5312 617.1262,101.5312 Q614.6262,101.5312 613.298,99.8906 Q611.9855,98.2344 611.9855,95.1094 Q611.9855,91.9844 613.298,90.3281 Q614.6262,88.6719 617.1262,88.6719 Q617.8293,88.6719 618.4699,88.8281 Q619.1262,88.9844 619.6887,89.2812 L619.6887,92 Q619.0637,91.4219 618.4699,91.1562 Q617.8762,90.875 617.2512,90.875 Q615.9074,90.875 615.2199,91.9531 Q614.5324,93.0156 614.5324,95.1094 Q614.5324,97.2031 615.2199,98.2812 Q615.9074,99.3437 617.2512,99.3437 Q617.8762,99.3437 618.4699,99.0781 Q619.0637,98.7969 619.6887,98.2187 L619.6887,100.9375 Z " fill="#000000"/><text fill="#000000" font-family="sans-serif" font-size="14" lengthAdjust="spacing" textLength="136.0693" x="637.2199" y="100.1436">ComandaController</text><line style="stroke:#5B7C99;stroke-width:0.5;" x1="536.55" x2="841.4592" y1="111.2969" y2="111.2969"/><line style="stroke:#5B7C99;stroke-width:0.5;" x1="536.55" x2="841.4592" y1="119.2969" y2="119.2969"/><text fill="#000000" font-family="sans-serif" font-size="14" lengthAdjust="spacing" textLength="226.8438" x="541.55" y="136.292">+crearComanda(data, res): void</text><text fill="#000000" font-family="sans-serif" font-size="14" lengthAdjust="spacing" textLength="294.9092" x="541.55" y="152.5889">+anadirLinea(comandaId, linea, res): void</text><text fill="#000000" font-family="sans-serif" font-size="14" lengthAdjust="spacing" textLength="265.5557" x="541.55" y="168.8857">+editarLinea(lineaId, datos, res): void</text><text fill="#000000" font-family="sans-serif" font-size="14" lengthAdjust="spacing" textLength="268.9873" x="541.55" y="185.1826">+getActivaPorMesa(mesaId, res): void</text></g><!--class KDSController--><g class="entity" data-qualified-name="Controllers.KDSController" data-source-line="33" id="ent0006"><rect fill="#D9ECFF" height="80.5938" rx="6" ry="6" style="stroke:#5B7C99;stroke-width:0.5;" width="274.459" x="22.77" y="268.7769"/><ellipse cx="106.7392" cy="284.7769" fill="#ADD1B2" rx="11" ry="11" style="stroke:#181818;stroke-width:1;"/><path d="M109.708,290.4175 Q109.1299,290.7144 108.4892,290.855 Q107.8486,291.0112 107.1455,291.0112 Q104.6455,291.0112 103.3174,289.3706 Q102.0049,287.7144 102.0049,284.5894 Q102.0049,281.4644 103.3174,279.8081 Q104.6455,278.1519 107.1455,278.1519 Q107.8486,278.1519 108.4892,278.3081 Q109.1455,278.4644 109.708,278.7612 L109.708,281.48 Q109.083,280.9019 108.4892,280.6362 Q107.8955,280.355 107.2705,280.355 Q105.9267,280.355 105.2392,281.4331 Q104.5517,282.4956 104.5517,284.5894 Q104.5517,286.6831 105.2392,287.7612 Q105.9267,288.8237 107.2705,288.8237 Q107.8955,288.8237 108.4892,288.5581 Q109.083,288.2769 109.708,287.6987 L109.708,290.4175 Z " fill="#000000"/><text fill="#000000" font-family="sans-serif" font-size="14" lengthAdjust="spacing" textLength="98.0205" x="127.2392" y="289.6236">KDSController</text><line style="stroke:#5B7C99;stroke-width:0.5;" x1="23.77" x2="296.229" y1="300.7769" y2="300.7769"/><line style="stroke:#5B7C99;stroke-width:0.5;" x1="23.77" x2="296.229" y1="308.7769" y2="308.7769"/><text fill="#000000" font-family="sans-serif" font-size="14" lengthAdjust="spacing" textLength="215.8447" x="28.77" y="325.772">+getPendientes(req, res): void</text><text fill="#000000" font-family="sans-serif" font-size="14" lengthAdjust="spacing" textLength="262.459" x="28.77" y="342.0689">+marcarComoListo(lineaId, res): void</text></g><!--class TicketController--><g class="entity" data-qualified-name="Controllers.TicketController" data-source-line="38" id="ent0007"><rect fill="#D9ECFF" height="80.5938" rx="6" ry="6" style="stroke:#5B7C99;stroke-width:0.5;" width="265.5449" x="332.23" y="268.7769"/><ellipse cx="404.9917" cy="284.7769" fill="#ADD1B2" rx="11" ry="11" style="stroke:#181818;stroke-width:1;"/><path d="M407.9605,290.4175 Q407.3823,290.7144 406.7417,290.855 Q406.1011,291.0112 405.398,291.0112 Q402.898,291.0112 401.5698,289.3706 Q400.2573,287.7144 400.2573,284.5894 Q400.2573,281.4644 401.5698,279.8081 Q402.898,278.1519 405.398,278.1519 Q406.1011,278.1519 406.7417,278.3081 Q407.398,278.4644 407.9605,278.7612 L407.9605,281.48 Q407.3355,280.9019 406.7417,280.6362 Q406.148,280.355 405.523,280.355 Q404.1792,280.355 403.4917,281.4331 Q402.8042,282.4956 402.8042,284.5894 Q402.8042,286.6831 403.4917,287.7612 Q404.1792,288.8237 405.523,288.8237 Q406.148,288.8237 406.7417,288.5581 Q407.3355,288.2769 407.9605,287.6987 L407.9605,290.4175 Z " fill="#000000"/><text fill="#000000" font-family="sans-serif" font-size="14" lengthAdjust="spacing" textLength="111.5215" x="425.4917" y="289.6236">TicketController</text><line style="stroke:#5B7C99;stroke-width:0.5;" x1="333.23" x2="596.7749" y1="300.7769" y2="300.7769"/><line style="stroke:#5B7C99;stroke-width:0.5;" x1="333.23" x2="596.7749" y1="308.7769" y2="308.7769"/><text fill="#000000" font-family="sans-serif" font-size="14" lengthAdjust="spacing" textLength="240.5771" x="338.23" y="325.772">+generarTicket(mesaId, res): void</text><text fill="#000000" font-family="sans-serif" font-size="14" lengthAdjust="spacing" textLength="253.5449" x="338.23" y="342.0689">+confirmarCobro(ticketId, res): void</text></g><!--class ReservaController--><g class="entity" data-qualified-name="Controllers.ReservaController" data-source-line="43" id="ent0008"><rect fill="#D9ECFF" height="113.1875" rx="6" ry="6" style="stroke:#5B7C99;stroke-width:0.5;" width="233.3408" x="632.33" y="252.4769"/><ellipse cx="681.7299" cy="268.4769" fill="#ADD1B2" rx="11" ry="11" style="stroke:#181818;stroke-width:1;"/><path d="M684.6987,274.1175 Q684.1205,274.4144 683.4799,274.555 Q682.8393,274.7112 682.1362,274.7112 Q679.6362,274.7112 678.308,273.0706 Q676.9955,271.4144 676.9955,268.2894 Q676.9955,265.1644 678.308,263.5081 Q679.6362,261.8519 682.1362,261.8519 Q682.8393,261.8519 683.4799,262.0081 Q684.1362,262.1644 684.6987,262.4612 L684.6987,265.18 Q684.0737,264.6019 683.4799,264.3362 Q682.8862,264.055 682.2612,264.055 Q680.9174,264.055 680.2299,265.1331 Q679.5424,266.1956 679.5424,268.2894 Q679.5424,270.3831 680.2299,271.4612 Q680.9174,272.5237 682.2612,272.5237 Q682.8862,272.5237 683.4799,272.2581 Q684.0737,271.9769 684.6987,271.3987 L684.6987,274.1175 Z " fill="#000000"/><text fill="#000000" font-family="sans-serif" font-size="14" lengthAdjust="spacing" textLength="126.041" x="702.2299" y="273.3236">ReservaController</text><line style="stroke:#5B7C99;stroke-width:0.5;" x1="633.33" x2="864.6708" y1="284.4769" y2="284.4769"/><line style="stroke:#5B7C99;stroke-width:0.5;" x1="633.33" x2="864.6708" y1="292.4769" y2="292.4769"/><text fill="#000000" font-family="sans-serif" font-size="14" lengthAdjust="spacing" textLength="202.4189" x="638.33" y="309.472">+getReservas(req, res): void</text><text fill="#000000" font-family="sans-serif" font-size="14" lengthAdjust="spacing" textLength="216.8154" x="638.33" y="325.7689">+crearReserva(data, res): void</text><text fill="#000000" font-family="sans-serif" font-size="14" lengthAdjust="spacing" textLength="202.8701" x="638.33" y="342.0657">+editarReserva(id, res): void</text><text fill="#000000" font-family="sans-serif" font-size="14" lengthAdjust="spacing" textLength="221.3408" x="638.33" y="358.3626">+cancelarReserva(id, res): void</text></g><!--class UsuarioController--><g class="entity" data-qualified-name="Controllers.UsuarioController" data-source-line="50" id="ent0009"><rect fill="#D9ECFF" height="113.1875" rx="6" ry="6" style="stroke:#5B7C99;stroke-width:0.5;" width="258.9209" x="30.54" y="425.6669"/><ellipse cx="94.562" cy="441.6669" fill="#ADD1B2" rx="11" ry="11" style="stroke:#181818;stroke-width:1;"/><path d="M97.5307,447.3075 Q96.9526,447.6044 96.312,447.745 Q95.6713,447.9012 94.9682,447.9012 Q92.4682,447.9012 91.1401,446.2606 Q89.8276,444.6044 89.8276,441.4794 Q89.8276,438.3544 91.1401,436.6981 Q92.4682,435.0419 94.9682,435.0419 Q95.6713,435.0419 96.312,435.1981 Q96.9682,435.3544 97.5307,435.6512 L97.5307,438.37 Q96.9057,437.7919 96.312,437.5262 Q95.7182,437.245 95.0932,437.245 Q93.7495,437.245 93.062,438.3231 Q92.3745,439.3856 92.3745,441.4794 Q92.3745,443.5731 93.062,444.6512 Q93.7495,445.7137 95.0932,445.7137 Q95.7182,445.7137 96.312,445.4481 Q96.9057,445.1669 97.5307,444.5887 L97.5307,447.3075 Z " fill="#000000"/><text fill="#000000" font-family="sans-serif" font-size="14" lengthAdjust="spacing" textLength="122.377" x="115.062" y="446.5136">UsuarioController</text><line style="stroke:#5B7C99;stroke-width:0.5;" x1="31.54" x2="288.4609" y1="457.6669" y2="457.6669"/><line style="stroke:#5B7C99;stroke-width:0.5;" x1="31.54" x2="288.4609" y1="465.6669" y2="465.6669"/><text fill="#000000" font-family="sans-serif" font-size="14" lengthAdjust="spacing" textLength="198.7549" x="36.54" y="482.662">+getUsuarios(req, res): void</text><text fill="#000000" font-family="sans-serif" font-size="14" lengthAdjust="spacing" textLength="213.1514" x="36.54" y="498.9589">+crearUsuario(data, res): void</text><text fill="#000000" font-family="sans-serif" font-size="14" lengthAdjust="spacing" textLength="246.9209" x="36.54" y="515.2557">+editarUsuario(id, datos, res): void</text><text fill="#000000" font-family="sans-serif" font-size="14" lengthAdjust="spacing" textLength="220.042" x="36.54" y="531.5526">+bloquearUsuario(id, res): void</text></g><!--class CartaController--><g class="entity" data-qualified-name="Controllers.CartaController" data-source-line="57" id="ent0010"><rect fill="#D9ECFF" height="113.1875" rx="6" ry="6" style="stroke:#5B7C99;stroke-width:0.5;" width="240.6826" x="324.66" y="425.6669"/><ellipse cx="387.0755" cy="441.6669" fill="#ADD1B2" rx="11" ry="11" style="stroke:#181818;stroke-width:1;"/><path d="M390.0443,447.3075 Q389.4662,447.6044 388.8255,447.745 Q388.1849,447.9012 387.4818,447.9012 Q384.9818,447.9012 383.6537,446.2606 Q382.3412,444.6044 382.3412,441.4794 Q382.3412,438.3544 383.6537,436.6981 Q384.9818,435.0419 387.4818,435.0419 Q388.1849,435.0419 388.8255,435.1981 Q389.4818,435.3544 390.0443,435.6512 L390.0443,438.37 Q389.4193,437.7919 388.8255,437.5262 Q388.2318,437.245 387.6068,437.245 Q386.263,437.245 385.5755,438.3231 Q384.888,439.3856 384.888,441.4794 Q384.888,443.5731 385.5755,444.6512 Q386.263,445.7137 387.6068,445.7137 Q388.2318,445.7137 388.8255,445.4481 Q389.4193,445.1669 390.0443,444.5887 L390.0443,447.3075 Z " fill="#000000"/><text fill="#000000" font-family="sans-serif" font-size="14" lengthAdjust="spacing" textLength="107.3516" x="407.5755" y="446.5136">CartaController</text><line style="stroke:#5B7C99;stroke-width:0.5;" x1="325.66" x2="564.3426" y1="457.6669" y2="457.6669"/><line style="stroke:#5B7C99;stroke-width:0.5;" x1="325.66" x2="564.3426" y1="465.6669" y2="465.6669"/><text fill="#000000" font-family="sans-serif" font-size="14" lengthAdjust="spacing" textLength="180.5166" x="330.66" y="482.662">+getPlatos(req, res): void</text><text fill="#000000" font-family="sans-serif" font-size="14" lengthAdjust="spacing" textLength="194.9131" x="330.66" y="498.9589">+crearPlato(data, res): void</text><text fill="#000000" font-family="sans-serif" font-size="14" lengthAdjust="spacing" textLength="228.6826" x="330.66" y="515.2557">+editarPlato(id, datos, res): void</text><text fill="#000000" font-family="sans-serif" font-size="14" lengthAdjust="spacing" textLength="222.6465" x="330.66" y="531.5526">+getTarifaActual(req, res): void</text></g><?plantuml-src VPJTRjim38Nl_HH2U-DXAx0E68RqBdLM86W714ls08p4E4HaiQNa5EtGTv_y4zHTPD_uWkSJpw54E52mg1O4fK05og3I5ZnwTQKATa7OWc51dsN-GEuH8jKIVXw2qBOEkDJirlIAwki0yVjux9bSgNPWFGuKuTePpU9GrFMtWV08-W0bhiDB32Ie0xZIul-swc-cr6r4oxPHmPP5NIvcFukxkqPXCIXzzVljZs8sYzMv23z_BBvbMM-eBlf1BOg_QFjtJlCwxD-bLb3gi-MIN2xuz2M6z9zkr979T9BWBfRs6pxW214FSnqIMenpils57ivjImoDuDDzOIiaZPwJELSrYi28F30kk09d4jvQ4AHNSmC14W4S6987SWYvxiXbjB9DuPn6Gm5wkaKQDZPcVyx6mUSwq15Mt8rGnSzoOepxnJfvVIjqXj057Bd32aItO_83-S3lmSQCDgGF659USRT1EZaTjxbKTZkIgd7S2kUXfQViVgD7EQPNezT69clVhqT6tgzxaHEJN29m6kq4CuZwnzSWnCcelJOLjKScevuO6j-ShUMd6Z-YexiF4j9Nkx9DzucqBJ2PjIDeSiStCU8EugRNO9F_XxT_?></g></svg>