<svg xmlns="http://www.w3.org/2000/svg" xmlns:xlink="http://www.w3.org/1999/xlink" contentStyleType="text/css" data-diagram-type="DESCRIPTION" height="826px" preserveAspectRatio="none" style="width:1432px;height:826px;background:#FFFFFF;" version="1.1" viewBox="0 0 1432 826" width="1432px" zoomAndPan="magnify"><?plantuml 1.2026.7beta1?><defs/><g><g class="title" data-source-line="1"><text fill="#000000" font-family="sans-serif" font-size="14" font-weight="700" lengthAdjust="spacing" textLength="248.9922" x="588.4389" y="22.9951">CU-12 - Marcar plato como listo</text></g><!--cluster Vista--><g class="cluster" data-qualified-name="Vista" data-source-line="10" id="ent0002"><path d="M1270.98,136.9469 L1312.0864,136.9469 A3.75,3.75 0 0 1 1314.5864,139.4469 L1321.5864,159.2437 L1415.37,159.2437 A2.5,2.5 0 0 1 1417.87,161.7437 L1417.87,312.4469 A2.5,2.5 0 0 1 1415.37,314.9469 L1270.98,314.9469 A2.5,2.5 0 0 1 1268.48,312.4469 L1268.48,139.4469 A2.5,2.5 0 0 1 1270.98,136.9469" fill="none" style="stroke:#000000;stroke-width:1.5;"/><line style="stroke:#000000;stroke-width:1.5;" x1="1268.48" x2="1321.5864" y1="159.2437" y2="159.2437"/><text fill="#000000" font-family="sans-serif" font-size="14" font-weight="700" lengthAdjust="spacing" textLength="40.1064" x="1272.48" y="151.942">Vista</text></g><!--cluster Controlador--><g class="cluster" data-qualified-name="Controlador" data-source-line="15" id="ent0005"><path d="M8.5,327.9469 L103.3643,327.9469 A3.75,3.75 0 0 1 105.8643,330.4469 L112.8643,350.2438 L255.65,350.2438 A2.5,2.5 0 0 1 258.15,352.7438 L258.15,438.4469 A2.5,2.5 0 0 1 255.65,440.9469 L8.5,440.9469 A2.5,2.5 0 0 1 6,438.4469 L6,330.4469 A2.5,2.5 0 0 1 8.5,327.9469" fill="none" style="stroke:#000000;stroke-width:1.5;"/><line style="stroke:#000000;stroke-width:1.5;" x1="6" x2="112.8643" y1="350.2438" y2="350.2438"/><text fill="#000000" font-family="sans-serif" font-size="14" font-weight="700" lengthAdjust="spacing" textLength="93.8643" x="10" y="342.942">Controlador</text></g><!--cluster Servicio--><g class="cluster" data-qualified-name="Servicio" data-source-line="19" id="ent0007"><path d="M462.65,134.9469 L526.773,134.9469 A3.75,3.75 0 0 1 529.273,137.4469 L536.273,157.2437 L1082.98,157.2437 A2.5,2.5 0 0 1 1085.48,159.7437 L1085.48,245.4469 A2.5,2.5 0 0 1 1082.98,247.9469 L462.65,247.9469 A2.5,2.5 0 0 1 460.15,245.4469 L460.15,137.4469 A2.5,2.5 0 0 1 462.65,134.9469" fill="none" style="stroke:#000000;stroke-width:1.5;"/><line style="stroke:#000000;stroke-width:1.5;" x1="460.15" x2="536.273" y1="157.2437" y2="157.2437"/><text fill="#000000" font-family="sans-serif" font-size="14" font-weight="700" lengthAdjust="spacing" textLength="63.123" x="464.15" y="149.942">Servicio</text></g><!--cluster Modelos--><g class="cluster" data-qualified-name="Modelos" data-source-line="24" id="ent0010"><path d="M873.04,271.9469 L939.8564,271.9469 A3.75,3.75 0 0 1 942.3564,274.4469 L949.3564,294.2438 L1044.69,294.2438 A2.5,2.5 0 0 1 1047.19,296.7438 L1047.19,609.4469 A2.5,2.5 0 0 1 1044.69,611.9469 L873.04,611.9469 A2.5,2.5 0 0 1 870.54,609.4469 L870.54,274.4469 A2.5,2.5 0 0 1 873.04,271.9469" fill="none" style="stroke:#000000;stroke-width:1.5;"/><line style="stroke:#000000;stroke-width:1.5;" x1="870.54" x2="949.3564" y1="294.2438" y2="294.2438"/><text fill="#000000" font-family="sans-serif" font-size="14" font-weight="700" lengthAdjust="spacing" textLength="65.8164" x="874.54" y="286.942">Modelos</text></g><!--entity KdsView--><g class="entity" data-qualified-name="Vista.KdsView" data-source-line="11" id="ent0003"><rect fill="#F1F1F1" height="46.2969" rx="2.5" ry="2.5" style="stroke:#181818;stroke-width:0.5;" width="98.8916" x="1293.73" y="171.7969"/><rect fill="#F1F1F1" height="10" style="stroke:#181818;stroke-width:0.5;" width="15" x="1372.6216" y="176.7969"/><rect fill="#F1F1F1" height="2" style="stroke:#181818;stroke-width:0.5;" width="4" x="1370.6216" y="178.7969"/><rect fill="#F1F1F1" height="2" style="stroke:#181818;stroke-width:0.5;" width="4" x="1370.6216" y="182.7969"/><text fill="#000000" font-family="sans-serif" font-size="14" lengthAdjust="spacing" textLength="58.8916" x="1308.73" y="204.792">KdsView</text></g><!--entity MesasView--><g class="entity" data-qualified-name="Vista.MesasView" data-source-line="12" id="ent0004"><rect fill="#F1F1F1" height="46.2969" rx="2.5" ry="2.5" style="stroke:#181818;stroke-width:0.5;" width="117.3896" x="1284.48" y="252.7969"/><rect fill="#F1F1F1" height="10" style="stroke:#181818;stroke-width:0.5;" width="15" x="1381.8696" y="257.7969"/><rect fill="#F1F1F1" height="2" style="stroke:#181818;stroke-width:0.5;" width="4" x="1379.8696" y="259.7969"/><rect fill="#F1F1F1" height="2" style="stroke:#181818;stroke-width:0.5;" width="4" x="1379.8696" y="263.7969"/><text fill="#000000" font-family="sans-serif" font-size="14" lengthAdjust="spacing" textLength="77.3896" x="1299.48" y="285.792">MesasView</text></g><!--entity Controller--><g class="entity" data-qualified-name="Controlador.Controller" data-source-line="16" id="ent0006"><rect fill="#F1F1F1" height="62.5938" rx="2.5" ry="2.5" style="stroke:#181818;stroke-width:0.5;" width="220.1475" x="22" y="362.6469"/><rect fill="#F1F1F1" height="10" style="stroke:#181818;stroke-width:0.5;" width="15" x="222.1475" y="367.6469"/><rect fill="#F1F1F1" height="2" style="stroke:#181818;stroke-width:0.5;" width="4" x="220.1475" y="369.6469"/><rect fill="#F1F1F1" height="2" style="stroke:#181818;stroke-width:0.5;" width="4" x="220.1475" y="373.6469"/><text fill="#000000" font-family="sans-serif" font-size="14" lengthAdjust="spacing" textLength="98.0205" x="37" y="395.642">KDSController</text><text fill="#000000" font-family="sans-serif" font-size="14" lengthAdjust="spacing" textLength="180.1475" x="37" y="411.9389">(CU-12 Marcar plato listo)</text></g><!--entity Service--><g class="entity" data-qualified-name="Servicio.Service" data-source-line="20" id="ent0008"><rect fill="#F1F1F1" height="46.2969" rx="2.5" ry="2.5" style="stroke:#181818;stroke-width:0.5;" width="117.1025" x="476.15" y="185.7969"/><rect fill="#F1F1F1" height="10" style="stroke:#181818;stroke-width:0.5;" width="15" x="573.2525" y="190.7969"/><rect fill="#F1F1F1" height="2" style="stroke:#181818;stroke-width:0.5;" width="4" x="571.2525" y="192.7969"/><rect fill="#F1F1F1" height="2" style="stroke:#181818;stroke-width:0.5;" width="4" x="571.2525" y="196.7969"/><text fill="#000000" font-family="sans-serif" font-size="14" lengthAdjust="spacing" textLength="77.1025" x="491.15" y="218.792">KdsService</text></g><!--entity Socket--><g class="entity" data-qualified-name="Servicio.Socket" data-source-line="21" id="ent0009"><rect fill="#F1F1F1" height="62.5938" rx="2.5" ry="2.5" style="stroke:#181818;stroke-width:0.5;" width="221.2344" x="848.25" y="169.6469"/><rect fill="#F1F1F1" height="10" style="stroke:#181818;stroke-width:0.5;" width="15" x="1049.4844" y="174.6469"/><rect fill="#F1F1F1" height="2" style="stroke:#181818;stroke-width:0.5;" width="4" x="1047.4844" y="176.6469"/><rect fill="#F1F1F1" height="2" style="stroke:#181818;stroke-width:0.5;" width="4" x="1047.4844" y="180.6469"/><text fill="#000000" font-family="sans-serif" font-size="14" lengthAdjust="spacing" textLength="108.2676" x="863.25" y="202.642">SocketService /</text><text fill="#000000" font-family="sans-serif" font-size="14" lengthAdjust="spacing" textLength="181.2344" x="863.25" y="218.9389">Sistema de Notificaciones</text></g><!--entity Linea--><g class="entity" data-qualified-name="Modelos.Linea" data-source-line="25" id="ent0011"><rect fill="#F1F1F1" height="46.2969" rx="2.5" ry="2.5" style="stroke:#181818;stroke-width:0.5;" width="144.6514" x="886.54" y="306.7969"/><rect fill="#F1F1F1" height="10" style="stroke:#181818;stroke-width:0.5;" width="15" x="1011.1914" y="311.7969"/><rect fill="#F1F1F1" height="2" style="stroke:#181818;stroke-width:0.5;" width="4" x="1009.1914" y="313.7969"/><rect fill="#F1F1F1" height="2" style="stroke:#181818;stroke-width:0.5;" width="4" x="1009.1914" y="317.7969"/><text fill="#000000" font-family="sans-serif" font-size="14" lengthAdjust="spacing" textLength="104.6514" x="901.54" y="339.792">LineaComanda</text></g><!--entity Comanda--><g class="entity" data-qualified-name="Modelos.Comanda" data-source-line="26" id="ent0012"><rect fill="#F1F1F1" height="46.2969" rx="2.5" ry="2.5" style="stroke:#181818;stroke-width:0.5;" width="106.8965" x="905.42" y="387.7969"/><rect fill="#F1F1F1" height="10" style="stroke:#181818;stroke-width:0.5;" width="15" x="992.3165" y="392.7969"/><rect fill="#F1F1F1" height="2" style="stroke:#181818;stroke-width:0.5;" width="4" x="990.3165" y="394.7969"/><rect fill="#F1F1F1" height="2" style="stroke:#181818;stroke-width:0.5;" width="4" x="990.3165" y="398.7969"/><text fill="#000000" font-family="sans-serif" font-size="14" lengthAdjust="spacing" textLength="66.8965" x="920.42" y="420.792">Comanda</text></g><!--entity Mesa--><g class="entity" data-qualified-name="Modelos.Mesa" data-source-line="27" id="ent0013"><rect fill="#F1F1F1" height="46.2969" rx="2.5" ry="2.5" style="stroke:#181818;stroke-width:0.5;" width="76.5654" x="920.58" y="468.7969"/><rect fill="#F1F1F1" height="10" style="stroke:#181818;stroke-width:0.5;" width="15" x="977.1454" y="473.7969"/><rect fill="#F1F1F1" height="2" style="stroke:#181818;stroke-width:0.5;" width="4" x="975.1454" y="475.7969"/><rect fill="#F1F1F1" height="2" style="stroke:#181818;stroke-width:0.5;" width="4" x="975.1454" y="479.7969"/><text fill="#000000" font-family="sans-serif" font-size="14" lengthAdjust="spacing" textLength="36.5654" x="935.58" y="501.792">Mesa</text></g><!--entity Log--><g class="entity" data-qualified-name="Modelos.Log" data-source-line="28" id="ent0014"><rect fill="#F1F1F1" height="46.2969" rx="2.5" ry="2.5" style="stroke:#181818;stroke-width:0.5;" width="128.7578" x="894.49" y="549.7969"/><rect fill="#F1F1F1" height="10" style="stroke:#181818;stroke-width:0.5;" width="15" x="1003.2478" y="554.7969"/><rect fill="#F1F1F1" height="2" style="stroke:#181818;stroke-width:0.5;" width="4" x="1001.2478" y="556.7969"/><rect fill="#F1F1F1" height="2" style="stroke:#181818;stroke-width:0.5;" width="4" x="1001.2478" y="560.7969"/><text fill="#000000" font-family="sans-serif" font-size="14" lengthAdjust="spacing" textLength="88.7578" x="909.49" y="582.792">LogAuditoria</text></g><!--entity Actor--><g class="entity" data-qualified-name="Actor" data-source-line="8" id="ent0001"><ellipse cx="958.8677" cy="51.2969" fill="#F1F1F1" rx="8" ry="8" style="stroke:#181818;stroke-width:0.5;"/><path d="M958.8677,59.2969 L958.8677,86.2969 M945.8677,67.2969 L971.8677,67.2969 M958.8677,86.2969 L945.8677,101.2969 M958.8677,86.2969 L971.8677,101.2969" fill="none" style="stroke:#181818;stroke-width:0.5;"/><text fill="#000000" font-family="sans-serif" font-size="14" lengthAdjust="spacing" textLength="61.7354" x="928" y="115.792">Cocinero</text></g><!--link Actor to KdsView--><g class="link" data-entity-1="ent0001" data-entity-2="ent0003" data-link-type="dependency" data-source-line="31" id="lnk15"><path d="M990.19,89.9869 C1056.15,109.6569 1208.3986,155.0478 1288.5286,178.9478" fill="none" id="Actor-to-KdsView" style="stroke:#181818;stroke-width:1;"/><polygon fill="#181818" points="1293.32,180.3769,1285.8387,173.9713,1288.5286,178.9478,1283.5522,181.6376,1293.32,180.3769" style="stroke:#181818;stroke-width:1;stroke-linejoin:miter;stroke-miterlimit:10;"/><text fill="#000000" font-family="sans-serif" font-size="13" lengthAdjust="spacing" textLength="149.1318" x="1102.48" y="121.0138">marca plato como listo</text></g><!--link KdsView to Controller--><g class="link" data-entity-1="ent0003" data-entity-2="ent0006" data-link-type="dependency" data-source-line="32" id="lnk16"><path d="M1293.3,210.5069 C1281.1,216.4469 1269.07,224.4169 1260.48,234.9469 C1251.49,245.9669 1257.25,252.5369 1252.48,265.9469 C1195.78,425.3969 1235.3,519.5769 1093.48,611.9469 C786.7,811.7469 325.3279,527.6329 181.2479,428.4029" fill="none" id="KdsView-to-Controller" style="stroke:#181818;stroke-width:1;"/><polygon fill="#181818" points="177.13,425.5669,182.2733,433.966,181.2479,428.4029,186.811,427.3774,177.13,425.5669" style="stroke:#181818;stroke-width:1;stroke-linejoin:miter;stroke-miterlimit:10;"/><text fill="#000000" font-family="sans-serif" font-size="13" lengthAdjust="spacing" textLength="193.4448" x="624.25" y="643.0138">PATCH /api/kds/lineas/:id/lista</text></g><!--link Controller to Service--><g class="link" data-entity-1="ent0006" data-entity-2="ent0008" data-link-type="dependency" data-source-line="33" id="lnk17"><path d="M201.49,362.3469 C281.27,325.5069 406.7706,267.5531 478.1906,234.5731" fill="none" id="Controller-to-Service" style="stroke:#181818;stroke-width:1;"/><polygon fill="#181818" points="482.73,232.4769,472.8822,232.6185,478.1906,234.5731,476.236,239.8815,482.73,232.4769" style="stroke:#181818;stroke-width:1;stroke-linejoin:miter;stroke-miterlimit:10;"/><text fill="#000000" font-family="sans-serif" font-size="13" lengthAdjust="spacing" textLength="168.4287" x="275.15" y="250.0138">marcarComoLista(lineaId)</text></g><!--link Service to Linea--><g class="link" data-entity-1="ent0008" data-entity-2="ent0011" data-link-type="dependency" data-source-line="34" id="lnk18"><path d="M584.62,232.5869 C597.05,238.0769 610.5,243.5769 623.25,247.9469 C712.1,278.3469 812.921,301.2969 881.411,315.2769" fill="none" id="Service-to-Linea" style="stroke:#181818;stroke-width:1;"/><polygon fill="#181818" points="886.31,316.2769,878.2918,310.5577,881.411,315.2769,876.6919,318.3961,886.31,316.2769" style="stroke:#181818;stroke-width:1;stroke-linejoin:miter;stroke-miterlimit:10;"/><text fill="#000000" font-family="sans-serif" font-size="13" lengthAdjust="spacing" textLength="107.2183" x="667.25" y="229.0138">valida transici&#243;n</text><text fill="#000000" font-family="sans-serif" font-size="13" lengthAdjust="spacing" textLength="49.6006" x="696.0588" y="244.1466">a LISTO</text></g><!--link Service to Linea--><g class="link" data-entity-1="ent0008" data-entity-2="ent0011" data-link-type="dependency" data-source-line="37" id="lnk21"><path d="M545.45,232.5769 C558.5,260.6869 584.57,306.2869 623.25,325.9469 C705.86,367.9269 810.4971,360.0214 881.3671,347.4314" fill="none" id="Service-to-Linea-1" style="stroke:#181818;stroke-width:1;"/><polygon fill="#181818" points="886.29,346.5569,876.7291,344.1927,881.3671,347.4314,878.1284,352.0694,886.29,346.5569" style="stroke:#181818;stroke-width:1;stroke-linejoin:miter;stroke-miterlimit:10;"/><text fill="#000000" font-family="sans-serif" font-size="13" lengthAdjust="spacing" textLength="148.2368" x="646.75" y="322.0138">actualiza estado LISTO</text></g><!--link Service to Comanda--><g class="link" data-entity-1="ent0008" data-entity-2="ent0012" data-link-type="dependency" data-source-line="35" id="lnk19"><path d="M539.93,232.3369 C548.29,271.0169 570.85,347.5469 623.25,382.9469 C708.27,440.3669 829.6074,432.8221 900.2274,422.0321" fill="none" id="Service-to-Comanda" style="stroke:#181818;stroke-width:1;"/><polygon fill="#181818" points="905.17,421.2769,895.6691,418.6821,900.2274,422.0321,896.8774,426.5903,905.17,421.2769" style="stroke:#181818;stroke-width:1;stroke-linejoin:miter;stroke-miterlimit:10;"/><text fill="#000000" font-family="sans-serif" font-size="13" lengthAdjust="spacing" textLength="175.2397" x="633.25" y="379.0138">obtiene comanda asociada</text></g><!--link Service to Mesa--><g class="link" data-entity-1="ent0008" data-entity-2="ent0013" data-link-type="dependency" data-source-line="36" id="lnk20"><path d="M536.31,232.5269 C538.98,282.5469 552.87,399.2369 623.25,454.9469 C710.44,523.9469 847.9088,511.6536 915.3088,500.3536" fill="none" id="Service-to-Mesa" style="stroke:#181818;stroke-width:1;"/><polygon fill="#181818" points="920.24,499.5269,910.7025,497.0701,915.3088,500.3536,912.0253,504.9599,920.24,499.5269" style="stroke:#181818;stroke-width:1;stroke-linejoin:miter;stroke-miterlimit:10;"/><text fill="#000000" font-family="sans-serif" font-size="13" lengthAdjust="spacing" textLength="149.7856" x="646.25" y="451.0138">obtiene mesa afectada</text></g><!--link Service to Log--><g class="link" data-entity-1="ent0008" data-entity-2="ent0014" data-link-type="dependency" data-source-line="38" id="lnk22"><path d="M538.6,232.2869 C547.5,299.9269 576.68,493.7669 623.25,533.9469 C698.09,598.5069 814.9945,595.4922 889.1745,585.5322" fill="none" id="Service-to-Log" style="stroke:#181818;stroke-width:1;"/><polygon fill="#181818" points="894.13,584.8669,884.6777,582.1001,889.1745,585.5322,885.7423,590.029,894.13,584.8669" style="stroke:#181818;stroke-width:1;stroke-linejoin:miter;stroke-miterlimit:10;"/><text fill="#000000" font-family="sans-serif" font-size="13" lengthAdjust="spacing" textLength="170.6694" x="635.75" y="530.0138">registra cambio de estado</text></g><!--link Service to Socket--><g class="link" data-entity-1="ent0008" data-entity-2="ent0009" data-link-type="dependency" data-source-line="39" id="lnk23"><path d="M593.51,207.8469 C658.78,206.6069 761.4509,204.6614 842.8609,203.1214" fill="none" id="Service-to-Socket" style="stroke:#181818;stroke-width:1;"/><polygon fill="#181818" points="847.86,203.0269,838.786,199.1978,842.8609,203.1214,838.9373,207.1964,847.86,203.0269" style="stroke:#181818;stroke-width:1;stroke-linejoin:miter;stroke-miterlimit:10;"/><text fill="#000000" font-family="sans-serif" font-size="13" lengthAdjust="spacing" textLength="37.3687" x="702.25" y="200.0138">emite</text><text fill="#000000" font-family="sans-serif" font-size="13" lengthAdjust="spacing" textLength="137.1411" x="703.29" y="215.5009">Platos listos - Mesa X</text></g><!--link Socket to KdsView--><g class="link" data-entity-1="ent0009" data-entity-2="ent0003" data-link-type="dependency" data-source-line="40" id="lnk24"><path d="M1069.93,199.2169 C1143.72,198.0569 1232.3006,196.6654 1288.3106,195.7854" fill="none" id="Socket-to-KdsView" style="stroke:#181818;stroke-width:1;"/><polygon fill="#181818" points="1293.31,195.7069,1284.2483,191.8488,1288.3106,195.7854,1284.3739,199.8478,1293.31,195.7069" style="stroke:#181818;stroke-width:1;stroke-linejoin:miter;stroke-miterlimit:10;"/><text fill="#000000" font-family="sans-serif" font-size="13" lengthAdjust="spacing" textLength="139.7056" x="1107.48" y="193.0138">actualiza tablero KDS</text></g><!--link Socket to MesasView--><g class="link" data-entity-1="ent0009" data-entity-2="ent0004" data-link-type="dependency" data-source-line="41" id="lnk25"><path d="M1069.93,222.5369 C1139.86,236.2569 1222.6536,252.494 1279.3136,263.614" fill="none" id="Socket-to-MesasView" style="stroke:#181818;stroke-width:1;"/><polygon fill="#181818" points="1284.22,264.5769,1276.1588,258.9185,1279.3136,263.614,1274.6181,266.7687,1284.22,264.5769" style="stroke:#181818;stroke-width:1;stroke-linejoin:miter;stroke-miterlimit:10;"/><text fill="#000000" font-family="sans-serif" font-size="13" lengthAdjust="spacing" textLength="76.5591" x="1138.98" y="226.0138">avisa a sala</text></g><?plantuml-src RPJ1Rjim38RlUWh2f_OG6EknXm61TrYnP2lWhjWX5yPI72Ao64XAWctOK-qHzcAZP2UnczvayIFvyvVaID4QgBxFFZp039Re6_ImjnWP6kuOB8N8IbcpYI1xdjfj14tUD97OgR0ZjqUF7OGjQZwHQs63DfXHP8tDhlLySBfYonvEMuhZkFJPipCkrl6dQ3bqza4fRAAWHSKDEUEv00mmJtjAxQKUjWQALz661VnMSAq1nHSTNicSSiQmdW9B4_2ANBxKdr7fYbtqR6KaVzlWKps4hV4hTzURDx4kktQVwr_HIOFQ-2CrnE_9xsCcfm_hALDpipDn246vShNqCns2Dl2L8sseGQdjJEXhP7pIVidQM0uttHVYDbRSeTEOS_F6b1c7X_MjmHTltzJdTdxG9ET8Gtrkax1yj32RVJmV6Jn2bnozlOjd8C5NSuL_dhzKdw74FPKx7KgRb8VoaNIP4b6Du9Hxjczev6KKNYJmBcS-wNjrHXAUZH3uY9OqGlJeWXpWlxzkvH0MJ_NBjma_E2CPl8vad4apv1qCSgbHJ1lZoQeHswLFtCWhUmkUTSW3EOYKNmX6D6j-Hu9uAw0thKpb4HhiriJfZlGP4xQ_8uARJbud5C_9zj1R7jAV8GdwKQY1cvxKLKl4jVZB86zaZ5uUMOAFb6Q3W1R_0m00?></g></svg>