<svg xmlns="http://www.w3.org/2000/svg" xmlns:xlink="http://www.w3.org/1999/xlink" contentStyleType="text/css" data-diagram-type="DESCRIPTION" height="1617px" preserveAspectRatio="none" style="width:974px;height:1617px;background:#FFFFFF;" version="1.1" viewBox="0 0 974 1617" width="974px" zoomAndPan="magnify"><?plantuml 1.2026.3beta6?><defs/><g><!--cluster Frontend ? Tablets del restaurante--><g class="cluster" data-qualified-name="Frontend . Tablets del restaurante" data-source-line="2" id="ent0002"><path d="M204.2,283.89 L486.9227,283.89 A3.75,3.75 0 0 1 489.4227,286.39 L496.4227,306.1869 L767.2,306.1869 A2.5,2.5 0 0 1 769.7,308.6869 L769.7,526.28 A2.5,2.5 0 0 1 767.2,528.78 L204.2,528.78 A2.5,2.5 0 0 1 201.7,526.28 L201.7,286.39 A2.5,2.5 0 0 1 204.2,283.89" fill="#EEF4FF" style="stroke:#000000;stroke-width:1.5;"/><line style="stroke:#000000;stroke-width:1.5;" x1="201.7" x2="496.4227" y1="306.1869" y2="306.1869"/><text fill="#000000" font-family="sans-serif" font-size="14" font-weight="700" lengthAdjust="spacing" textLength="281.7227" x="205.7" y="298.8851">Frontend &#8212; Tablets del restaurante</text></g><!--cluster FrontCamarero--><g class="cluster" data-qualified-name="Frontend . Tablets del restaurante.FrontCamarero" data-source-line="4" id="ent0003"><rect fill="none" height="161.89" rx="2.5" ry="2.5" style="stroke:#181818;stroke-width:1;" width="232" x="233.7" y="334.89"/><text fill="#000000" font-family="sans-serif" font-size="14" font-weight="700" lengthAdjust="spacing" textLength="204.4697" x="247.4651" y="349.8851">Camarero / Administrador</text><text fill="#000000" font-family="sans-serif" font-size="14" font-weight="700" lengthAdjust="spacing" textLength="216.0771" x="241.6614" y="366.182">(PWA - React + TypeScript)</text></g><!--cluster FrontCocinero--><g class="cluster" data-qualified-name="Frontend . Tablets del restaurante.FrontCocinero" data-source-line="8" id="ent0005"><rect fill="none" height="129.29" rx="2.5" ry="2.5" style="stroke:#181818;stroke-width:1;" width="232" x="505.7" y="351.19"/><text fill="#000000" font-family="sans-serif" font-size="14" font-weight="700" lengthAdjust="spacing" textLength="68.9746" x="587.2127" y="366.1851">Cocinero</text><text fill="#000000" font-family="sans-serif" font-size="14" font-weight="700" lengthAdjust="spacing" textLength="216.0771" x="513.6614" y="382.482">(PWA - React + TypeScript)</text></g><!--cluster Backend API (Express + TypeScript)--><g class="cluster" data-qualified-name="Backend API .Express . TypeScript." data-source-line="15" id="ent0007"><path d="M512.2,577.78 L797.4109,577.78 A3.75,3.75 0 0 1 799.9109,580.28 L806.9109,600.0769 L893.2,600.0769 A2.5,2.5 0 0 1 895.7,602.5769 L895.7,1339.59 A2.5,2.5 0 0 1 893.2,1342.09 L512.2,1342.09 A2.5,2.5 0 0 1 509.7,1339.59 L509.7,580.28 A2.5,2.5 0 0 1 512.2,577.78" fill="#E8F5E9" style="stroke:#000000;stroke-width:1.5;"/><line style="stroke:#000000;stroke-width:1.5;" x1="509.7" x2="806.9109" y1="600.0769" y2="600.0769"/><text fill="#000000" font-family="sans-serif" font-size="14" font-weight="700" lengthAdjust="spacing" textLength="284.2109" x="513.7" y="592.7751">Backend API (Express + TypeScript)</text></g><!--cluster Controladores--><g class="cluster" data-qualified-name="Backend API .Express . TypeScript..Controladores" data-source-line="17" id="ent0008"><rect fill="none" height="227.38" rx="2.5" ry="2.5" style="stroke:#181818;stroke-width:1;" width="243" x="541.7" y="855.52"/><text fill="#000000" font-family="sans-serif" font-size="14" font-weight="700" lengthAdjust="spacing" textLength="111.6924" x="607.3538" y="870.5151">Controladores</text></g><!--cluster Middleware--><g class="cluster" data-qualified-name="Backend API .Express . TypeScript..Middleware" data-source-line="21" id="ent0010"><rect fill="none" height="145.89" rx="2.5" ry="2.5" style="stroke:#181818;stroke-width:1;" width="201" x="541.7" y="628.78"/><text fill="#000000" font-family="sans-serif" font-size="14" font-weight="700" lengthAdjust="spacing" textLength="91.8477" x="596.2762" y="643.7751">Middleware</text></g><!--cluster Modelos--><g class="cluster" data-qualified-name="Backend API .Express . TypeScript..Modelos" data-source-line="25" id="ent0012"><rect fill="none" height="162.19" rx="2.5" ry="2.5" style="stroke:#181818;stroke-width:1;" width="322" x="541.7" y="1147.9"/><text fill="#000000" font-family="sans-serif" font-size="14" font-weight="700" lengthAdjust="spacing" textLength="151.293" x="627.0535" y="1162.8951">Modelos Mongoose</text></g><!--cluster Tiempo real (Socket.io)--><g class="cluster" data-qualified-name="Tiempo real .Socket.io." data-source-line="32" id="ent0014"><path d="M198.2,6 L383.6951,6 A3.75,3.75 0 0 1 386.1951,8.5 L393.1951,28.2969 L489.2,28.2969 A2.5,2.5 0 0 1 491.7,30.7969 L491.7,232.39 A2.5,2.5 0 0 1 489.2,234.89 L198.2,234.89 A2.5,2.5 0 0 1 195.7,232.39 L195.7,8.5 A2.5,2.5 0 0 1 198.2,6" fill="#FFF8E1" style="stroke:#000000;stroke-width:1.5;"/><line style="stroke:#000000;stroke-width:1.5;" x1="195.7" x2="393.1951" y1="28.2969" y2="28.2969"/><text fill="#000000" font-family="sans-serif" font-size="14" font-weight="700" lengthAdjust="spacing" textLength="184.4951" x="199.7" y="20.9951">Tiempo real (Socket.io)</text></g><!--cluster WS--><g class="cluster" data-qualified-name="Tiempo real .Socket.io..WS" data-source-line="33" id="ent0015"><rect fill="none" height="145.89" rx="2.5" ry="2.5" style="stroke:#181818;stroke-width:1;" width="232" x="227.7" y="57"/><text fill="#000000" font-family="sans-serif" font-size="14" font-weight="700" lengthAdjust="spacing" textLength="156.126" x="265.637" y="71.9951">Eventos WebSocket</text></g><!--cluster Soporte Offline (Service Worker)--><g class="cluster" data-qualified-name="Soporte Offline .Service Worker." data-source-line="39" id="ent0017"><path d="M131.2,585.93 L391.0701,585.93 A3.75,3.75 0 0 1 393.5701,588.43 L400.5701,608.2269 L483.2,608.2269 A2.5,2.5 0 0 1 485.7,610.7269 L485.7,796.02 A2.5,2.5 0 0 1 483.2,798.52 L131.2,798.52 A2.5,2.5 0 0 1 128.7,796.02 L128.7,588.43 A2.5,2.5 0 0 1 131.2,585.93" fill="#FFF3F3" style="stroke:#000000;stroke-width:1.5;"/><line style="stroke:#000000;stroke-width:1.5;" x1="128.7" x2="400.5701" y1="608.2269" y2="608.2269"/><text fill="#000000" font-family="sans-serif" font-size="14" font-weight="700" lengthAdjust="spacing" textLength="258.8701" x="132.7" y="600.9251">Soporte Offline (Service Worker)</text></g><!--cluster SW--><g class="cluster" data-qualified-name="Soporte Offline .Service Worker..SW" data-source-line="40" id="ent0018"><rect fill="none" height="129.59" rx="2.5" ry="2.5" style="stroke:#181818;stroke-width:1;" width="293" x="160.7" y="636.93"/><text fill="#000000" font-family="sans-serif" font-size="14" font-weight="700" lengthAdjust="spacing" textLength="243.585" x="185.4075" y="651.9251">IndexedDB + Background Sync</text></g><!--cluster MongoDB--><g class="cluster" data-qualified-name="MongoDB" data-source-line="46" id="ent0020"><path d="M562.7,1409.09 C562.7,1399.09 713.2,1399.09 713.2,1399.09 C713.2,1399.09 863.7,1399.09 863.7,1409.09 L863.7,1582.57 C863.7,1592.57 713.2,1592.57 713.2,1592.57 C713.2,1592.57 562.7,1592.57 562.7,1582.57 L562.7,1409.09" fill="none" style="stroke:#181818;stroke-width:1;"/><path d="M562.7,1409.09 C562.7,1419.09 713.2,1419.09 713.2,1419.09 C713.2,1419.09 863.7,1419.09 863.7,1409.09" fill="none" style="stroke:#181818;stroke-width:1;"/><text fill="#000000" font-family="sans-serif" font-size="14" font-weight="700" lengthAdjust="spacing" textLength="75.4482" x="675.4759" y="1434.0851">MongoDB</text></g><!--entity MesasView\nComandaView\nCajaView--><g class="entity" data-qualified-name="Frontend . Tablets del restaurante.FrontCamarero.MesasView.nComandaView.nCajaView" data-source-line="5" id="ent0004"><rect fill="#F1F1F1" height="78.8906" rx="2.5" ry="2.5" style="stroke:#181818;stroke-width:0.5;" width="140.4268" x="263.49" y="393.89"/><rect fill="#F1F1F1" height="10" style="stroke:#181818;stroke-width:0.5;" width="15" x="383.9168" y="398.89"/><rect fill="#F1F1F1" height="2" style="stroke:#181818;stroke-width:0.5;" width="4" x="381.9168" y="400.89"/><rect fill="#F1F1F1" height="2" style="stroke:#181818;stroke-width:0.5;" width="4" x="381.9168" y="404.89"/><text fill="#000000" font-family="sans-serif" font-size="14" lengthAdjust="spacing" textLength="77.3896" x="278.49" y="426.8851">MesasView</text><text fill="#000000" font-family="sans-serif" font-size="14" lengthAdjust="spacing" textLength="100.4268" x="278.49" y="443.182">ComandaView</text><text fill="#000000" font-family="sans-serif" font-size="14" lengthAdjust="spacing" textLength="64.3535" x="278.49" y="459.4789">CajaView</text></g><!--entity KDSView--><g class="entity" data-qualified-name="Frontend . Tablets del restaurante.FrontCocinero.KDSView" data-source-line="9" id="ent0006"><rect fill="#F1F1F1" height="46.2969" rx="2.5" ry="2.5" style="stroke:#181818;stroke-width:0.5;" width="102.3779" x="545.52" y="410.19"/><rect fill="#F1F1F1" height="10" style="stroke:#181818;stroke-width:0.5;" width="15" x="627.8979" y="415.19"/><rect fill="#F1F1F1" height="2" style="stroke:#181818;stroke-width:0.5;" width="4" x="625.8979" y="417.19"/><rect fill="#F1F1F1" height="2" style="stroke:#181818;stroke-width:0.5;" width="4" x="625.8979" y="421.19"/><text fill="#000000" font-family="sans-serif" font-size="14" lengthAdjust="spacing" textLength="62.3779" x="560.52" y="443.1851">KDSView</text></g><!--entity AuthController\nMesaController\nComandaController\nTicketController\nKDSController\nReservaController\nUsuarioController\nCartaController--><g class="entity" data-qualified-name="Backend API .Express . TypeScript..Controladores.AuthController.nMesaController.nComandaController.nTicketController.nKDSController.nReservaController.nUsuarioController.nCartaController" data-source-line="18" id="ent0009"><rect fill="#F1F1F1" height="160.375" rx="2.5" ry="2.5" style="stroke:#181818;stroke-width:0.5;" width="176.0693" x="565.67" y="898.52"/><rect fill="#F1F1F1" height="10" style="stroke:#181818;stroke-width:0.5;" width="15" x="721.7393" y="903.52"/><rect fill="#F1F1F1" height="2" style="stroke:#181818;stroke-width:0.5;" width="4" x="719.7393" y="905.52"/><rect fill="#F1F1F1" height="2" style="stroke:#181818;stroke-width:0.5;" width="4" x="719.7393" y="909.52"/><text fill="#000000" font-family="sans-serif" font-size="14" lengthAdjust="spacing" textLength="101.9854" x="580.67" y="931.5151">AuthController</text><text fill="#000000" font-family="sans-serif" font-size="14" lengthAdjust="spacing" textLength="105.7383" x="580.67" y="947.812">MesaController</text><text fill="#000000" font-family="sans-serif" font-size="14" lengthAdjust="spacing" textLength="136.0693" x="580.67" y="964.1089">ComandaController</text><text fill="#000000" font-family="sans-serif" font-size="14" lengthAdjust="spacing" textLength="111.5215" x="580.67" y="980.4057">TicketController</text><text fill="#000000" font-family="sans-serif" font-size="14" lengthAdjust="spacing" textLength="98.0205" x="580.67" y="996.7026">KDSController</text><text fill="#000000" font-family="sans-serif" font-size="14" lengthAdjust="spacing" textLength="126.041" x="580.67" y="1012.9995">ReservaController</text><text fill="#000000" font-family="sans-serif" font-size="14" lengthAdjust="spacing" textLength="122.377" x="580.67" y="1029.2964">UsuarioController</text><text fill="#000000" font-family="sans-serif" font-size="14" lengthAdjust="spacing" textLength="107.3516" x="580.67" y="1045.5932">CartaController</text></g><!--entity JWT Auth\nRole Guard\nError Handler--><g class="entity" data-qualified-name="Backend API .Express . TypeScript..Middleware.JWT Auth.nRole Guard.nError Handler" data-source-line="22" id="ent0011"><rect fill="#F1F1F1" height="78.8906" rx="2.5" ry="2.5" style="stroke:#181818;stroke-width:0.5;" width="134.2539" x="565.58" y="671.78"/><rect fill="#F1F1F1" height="10" style="stroke:#181818;stroke-width:0.5;" width="15" x="679.8339" y="676.78"/><rect fill="#F1F1F1" height="2" style="stroke:#181818;stroke-width:0.5;" width="4" x="677.8339" y="678.78"/><rect fill="#F1F1F1" height="2" style="stroke:#181818;stroke-width:0.5;" width="4" x="677.8339" y="682.78"/><text fill="#000000" font-family="sans-serif" font-size="14" lengthAdjust="spacing" textLength="63.7861" x="580.58" y="704.7751">JWT Auth</text><text fill="#000000" font-family="sans-serif" font-size="14" lengthAdjust="spacing" textLength="78.1895" x="580.58" y="721.072">Role Guard</text><text fill="#000000" font-family="sans-serif" font-size="14" lengthAdjust="spacing" textLength="94.2539" x="580.58" y="737.3689">Error Handler</text></g><!--entity Usuario ? Zona ? Mesa\nComanda ? LineaComanda\nPlato ? TarifaMenu\nTicket ? Reserva ? LogAuditoria--><g class="entity" data-qualified-name="Backend API .Express . TypeScript..Modelos.Usuario . Zona . Mesa.nComanda . LineaComanda.nPlato . TarifaMenu.nTicket . Reserva . LogAuditoria" data-source-line="26" id="ent0013"><rect fill="#F1F1F1" height="95.1875" rx="2.5" ry="2.5" style="stroke:#181818;stroke-width:0.5;" width="254.6758" x="565.37" y="1190.9"/><rect fill="#F1F1F1" height="10" style="stroke:#181818;stroke-width:0.5;" width="15" x="800.0458" y="1195.9"/><rect fill="#F1F1F1" height="2" style="stroke:#181818;stroke-width:0.5;" width="4" x="798.0458" y="1197.9"/><rect fill="#F1F1F1" height="2" style="stroke:#181818;stroke-width:0.5;" width="4" x="798.0458" y="1201.9"/><text fill="#000000" font-family="sans-serif" font-size="14" lengthAdjust="spacing" textLength="152.0791" x="580.37" y="1223.8951">Usuario &#183; Zona &#183; Mesa</text><text fill="#000000" font-family="sans-serif" font-size="14" lengthAdjust="spacing" textLength="184.8984" x="580.37" y="1240.192">Comanda &#183; LineaComanda</text><text fill="#000000" font-family="sans-serif" font-size="14" lengthAdjust="spacing" textLength="127.0391" x="580.37" y="1256.4889">Plato &#183; TarifaMenu</text><text fill="#000000" font-family="sans-serif" font-size="14" lengthAdjust="spacing" textLength="214.6758" x="580.37" y="1272.7857">Ticket &#183; Reserva &#183; LogAuditoria</text></g><!--entity PLATO_LISTO\nACTUALIZAR_KDS\nAVISO_RESERVA--><g class="entity" data-qualified-name="Tiempo real .Socket.io..WS.PLATO_LISTO.nACTUALIZAR_KDS.nAVISO_RESERVA" data-source-line="34" id="ent0016"><rect fill="#F1F1F1" height="78.8906" rx="2.5" ry="2.5" style="stroke:#181818;stroke-width:0.5;" width="164.4004" x="251.5" y="100"/><rect fill="#F1F1F1" height="10" style="stroke:#181818;stroke-width:0.5;" width="15" x="395.9004" y="105"/><rect fill="#F1F1F1" height="2" style="stroke:#181818;stroke-width:0.5;" width="4" x="393.9004" y="107"/><rect fill="#F1F1F1" height="2" style="stroke:#181818;stroke-width:0.5;" width="4" x="393.9004" y="111"/><text fill="#000000" font-family="sans-serif" font-size="14" lengthAdjust="spacing" textLength="92.7773" x="266.5" y="132.9951">PLATO_LISTO</text><text fill="#000000" font-family="sans-serif" font-size="14" lengthAdjust="spacing" textLength="124.4004" x="266.5" y="149.292">ACTUALIZAR_KDS</text><text fill="#000000" font-family="sans-serif" font-size="14" lengthAdjust="spacing" textLength="115.377" x="266.5" y="165.5889">AVISO_RESERVA</text></g><!--entity Comandas pendientes\nSincronizaci?n autom?tica--><g class="entity" data-qualified-name="Soporte Offline .Service Worker..SW.Comandas pendientes.nSincronizaci.n autom.tica" data-source-line="41" id="ent0019"><rect fill="#F1F1F1" height="62.5938" rx="2.5" ry="2.5" style="stroke:#181818;stroke-width:0.5;" width="225.2129" x="185.1" y="679.93"/><rect fill="#F1F1F1" height="10" style="stroke:#181818;stroke-width:0.5;" width="15" x="390.3129" y="684.93"/><rect fill="#F1F1F1" height="2" style="stroke:#181818;stroke-width:0.5;" width="4" x="388.3129" y="686.93"/><rect fill="#F1F1F1" height="2" style="stroke:#181818;stroke-width:0.5;" width="4" x="388.3129" y="690.93"/><text fill="#000000" font-family="sans-serif" font-size="14" lengthAdjust="spacing" textLength="156.6729" x="200.1" y="712.9251">Comandas pendientes</text><text fill="#000000" font-family="sans-serif" font-size="14" lengthAdjust="spacing" textLength="185.2129" x="200.1" y="729.222">Sincronizaci&#243;n autom&#225;tica</text></g><!--entity Colecciones:\nusers ? zonas ? mesas\ncomandas ? lineasComanda\nplatos ? tarifasMenu\ntickets ? reservas ? logs--><g class="entity" data-qualified-name="MongoDB.Colecciones..nusers . zonas . mesas.ncomandas . lineasComanda.nplatos . tarifasMenu.ntickets . reservas . logs" data-source-line="47" id="ent0021"><rect fill="#F1F1F1" height="111.4844" rx="2.5" ry="2.5" style="stroke:#181818;stroke-width:0.5;" width="233.498" x="586.96" y="1457.09"/><rect fill="#F1F1F1" height="10" style="stroke:#181818;stroke-width:0.5;" width="15" x="800.458" y="1462.09"/><rect fill="#F1F1F1" height="2" style="stroke:#181818;stroke-width:0.5;" width="4" x="798.458" y="1464.09"/><rect fill="#F1F1F1" height="2" style="stroke:#181818;stroke-width:0.5;" width="4" x="798.458" y="1468.09"/><text fill="#000000" font-family="sans-serif" font-size="14" lengthAdjust="spacing" textLength="88.1904" x="601.96" y="1490.0851">Colecciones:</text><text fill="#000000" font-family="sans-serif" font-size="14" lengthAdjust="spacing" textLength="150.6094" x="601.96" y="1506.382">users &#183; zonas &#183; mesas</text><text fill="#000000" font-family="sans-serif" font-size="14" lengthAdjust="spacing" textLength="193.498" x="601.96" y="1522.6789">comandas &#183; lineasComanda</text><text fill="#000000" font-family="sans-serif" font-size="14" lengthAdjust="spacing" textLength="139.0088" x="601.96" y="1538.9757">platos &#183; tarifasMenu</text><text fill="#000000" font-family="sans-serif" font-size="14" lengthAdjust="spacing" textLength="162.1074" x="601.96" y="1555.2726">tickets &#183; reservas &#183; logs</text></g><!--link FrontCamarero to Middleware--><g class="link" data-entity-1="ent0003" data-entity-2="ent0010" data-link-type="dependency" data-source-line="51" id="lnk22"><path d="M465.7829,460.7978 C466.1301,461.3899 466.4831,461.9885 466.842,462.5931 C467.5598,463.8023 468.3009,465.0357 469.0649,466.2902 C470.5928,468.7992 472.212,471.3927 473.9188,474.0462 C487.5725,495.275 506.825,520.35 529.7,536.78 C543.8,546.91 586.69,558.36 603.7,561.78 C615.94,564.24 706.61,561.24 715.7,569.78 C727.0025,580.39 733.8931,594.2838 737.8588,609.2025 C738.8502,612.9322 739.6587,616.7259 740.3078,620.5485 C740.6323,622.4597 740.9169,624.3782 741.1645,626.2994 C741.2264,626.7797 741.286,627.2602 741.3433,627.7408 C741.372,627.9811 740.7171,622.2604 740.7447,622.5007" fill="none" id="FrontCamarero-to-Middleware" style="stroke:#181818;stroke-width:1;"/><polygon fill="#181818" points="741.4276,628.4617,744.3772,619.0649,740.8585,623.4942,736.4292,619.9755,741.4276,628.4617" style="stroke:#181818;stroke-width:1;"/><text fill="#000000" font-family="sans-serif" font-size="13" lengthAdjust="spacing" textLength="109.9731" x="604.7" y="557.8469">HTTP REST (JWT)</text></g><!--link FrontCocinero to Middleware--><g class="link" data-entity-1="ent0005" data-entity-2="ent0010" data-link-type="dependency" data-source-line="52" id="lnk23"><path d="M718.0944,481.1061 C718.1538,481.9259 718.2138,482.7534 718.2743,483.5885 C718.3953,485.2586 718.5186,486.9588 718.6439,488.6872 C718.8944,492.1439 719.1532,495.713 719.4189,499.3786 C719.9503,506.7096 720.5097,514.4261 721.0877,522.3996 C722.2438,538.3466 723.4744,555.3216 724.705,572.2962 C725.9356,589.2709 727.1663,606.2454 728.3223,622.1915 C728.4668,624.1847 728.1763,620.1776 728.3183,622.1367" fill="none" id="FrontCocinero-to-Middleware" style="stroke:#181818;stroke-width:1;"/><polygon fill="#181818" points="728.7522,628.121,732.0909,618.8554,728.3906,623.1341,724.1119,619.4338,728.7522,628.121" style="stroke:#181818;stroke-width:1;"/><text fill="#000000" font-family="sans-serif" font-size="13" lengthAdjust="spacing" textLength="109.9731" x="723.7" y="557.8469">HTTP REST (JWT)</text></g><!--link Middleware to Controladores--><g class="link" data-entity-1="ent0010" data-entity-2="ent0008" data-link-type="dependency" data-source-line="53" id="lnk24"><path d="M742.7157,754.0322 C742.7511,754.2215 742.7866,754.4113 742.8222,754.6014 C742.8933,754.9818 742.9646,755.3638 743.0363,755.7475 C747.62,780.3025 753.26,811.575 757.7,839.52 C758.2994,843.2869 758.8969,847.1133 759.4906,850.9777 C759.639,851.9439 759.7872,852.9123 759.9351,853.8829 C760.009,854.3681 759.1824,848.9218 759.2562,849.4081" fill="none" id="Middleware-to-Controladores" style="stroke:#181818;stroke-width:1;"/><polygon fill="#181818" points="760.1567,855.3401,762.7607,845.8417,759.4063,850.3967,754.8513,847.0423,760.1567,855.3401" style="stroke:#181818;stroke-width:1;"/><text fill="#000000" font-family="sans-serif" font-size="13" lengthAdjust="spacing" textLength="97.9443" x="756.7" y="827.5869">valida y enruta</text></g><!--link Controladores to Modelos--><g class="link" data-entity-1="ent0008" data-entity-2="ent0012" data-link-type="dependency" data-source-line="54" id="lnk25"><path d="M784.8622,997.5703 C784.997,997.8721 785.1331,998.1771 785.2706,998.4854 C785.8203,999.7185 786.3909,1001.0033 786.9806,1002.3371 C788.1601,1005.0045 789.4163,1007.8676 790.7355,1010.9042 C793.3741,1016.9774 796.265,1023.7447 799.3,1031.0288 C811.44,1060.165 825.885,1097.57 835.7,1131.9 C836.5081,1134.725 837.2925,1137.6021 838.0531,1140.5141 C838.4334,1141.9701 838.8077,1143.4349 839.176,1144.9063 C839.3602,1145.6419 839.5429,1146.3793 839.7241,1147.118 C839.7693,1147.3027 838.3922,1141.6585 838.4373,1141.8433" fill="none" id="Controladores-to-Modelos" style="stroke:#181818;stroke-width:1;"/><polygon fill="#181818" points="839.8597,1147.6723,841.6121,1137.9806,838.6743,1142.8148,833.8401,1139.8771,839.8597,1147.6723" style="stroke:#181818;stroke-width:1;"/><text fill="#000000" font-family="sans-serif" font-size="13" lengthAdjust="spacing" textLength="37.6353" x="833.7" y="1119.9669">CRUD</text></g><!--link Modelos to MongoDB--><g class="link" data-entity-1="ent0012" data-entity-2="ent0020" data-link-type="dependency" data-source-line="55" id="lnk26"><path d="M855.7,1310.585 C855.7,1311.0514 855.7,1311.5191 855.7,1311.9881 C855.7,1312.9261 855.7,1313.8694 855.7,1314.8175 C855.7,1318.6102 855.7,1322.4822 855.7,1326.4176 C855.7,1342.1591 855.7,1358.9153 855.7,1375.6713 C855.7,1379.8602 855.7,1384.0492 855.7,1388.2223 C855.7,1390.3089 855.7,1392.3914 855.7,1394.4681 C855.7,1395.5064 855.7,1396.5432 855.7,1397.5783 C855.7,1397.8371 855.7,1392.0957 855.7,1392.3543" fill="none" id="Modelos-to-MongoDB" style="stroke:#181818;stroke-width:1;"/><polygon fill="#181818" points="855.7,1398.3543,859.7,1389.3543,855.7,1393.3543,851.7,1389.3543,855.7,1398.3543" style="stroke:#181818;stroke-width:1;"/><text fill="#000000" font-family="sans-serif" font-size="13" lengthAdjust="spacing" textLength="101.9307" x="856.7" y="1371.1569">Mongoose ODM</text></g><!--link Controladores to WS--><g class="link" data-entity-1="ent0008" data-entity-2="ent0015" data-link-type="dependency" data-source-line="56" id="lnk27"><path d="M770.5038,855.2696 C770.3847,855.0698 770.2648,854.8706 770.1439,854.6719 C769.6603,853.8772 769.162,853.0918 768.6486,852.316 C767.6219,850.7644 766.5348,849.2517 765.3844,847.7823 C763.0837,844.8434 760.53,842.0775 757.7,839.52 C748.38,831.1 544.25,832.18 531.7,831.52 C491.33,829.42 196.29,836.08 168.7,806.52 C6,632.23 72.08,437.16 247.7,275.89 C308.9,219.7 372.51,301.19 431.7,242.89 C439.835,234.88 445.1775,224.6081 448.6092,213.6728 C449.4671,210.939 450.2057,208.1637 450.8385,205.3719 C450.9967,204.674 449.9289,209.8498 450.0741,209.1501" fill="none" id="Controladores-to-WS" style="stroke:#181818;stroke-width:1;"/><polygon fill="#181818" points="451.2936,203.2754,445.5479,211.2745,450.2773,208.171,453.3809,212.9005,451.2936,203.2754" style="stroke:#181818;stroke-width:1;"/><text fill="#000000" font-family="sans-serif" font-size="13" lengthAdjust="spacing" textLength="93.2534" x="80.7" y="557.8469">emite eventos</text></g><!--link WS to FrontCamarero--><g class="link" data-entity-1="ent0015" data-entity-2="ent0003" data-link-type="dependency" data-source-line="57" id="lnk28"><path d="M451.7,203.5167 C451.7,205.4026 451.7,207.3162 451.7,209.2552 C451.7,217.0113 451.7,225.1753 451.7,233.6112 C451.7,250.4829 451.7,268.4422 451.7,286.4013 C451.7,295.3808 451.7,304.3603 451.7,313.2037 C451.7,317.6254 451.7,322.0131 451.7,326.3498 C451.7,328.5182 451.7,330.6738 451.7,332.8145 C451.7,333.3497 451.7,327.8839 451.7,328.4172" fill="none" id="WS-to-FrontCamarero" style="stroke:#181818;stroke-width:1;"/><polygon fill="#181818" points="451.7,334.4172,455.7,325.4172,451.7,329.4172,447.7,325.4172,451.7,334.4172" style="stroke:#181818;stroke-width:1;"/><text fill="#000000" font-family="sans-serif" font-size="13" lengthAdjust="spacing" textLength="147.3354" x="452.7" y="263.9569">notifica en tiempo real</text></g><!--link WS to FrontCocinero--><g class="link" data-entity-1="ent0015" data-entity-2="ent0005" data-link-type="dependency" data-source-line="58" id="lnk29"><path d="M459.8194,143.293 C459.9597,143.3441 460.1016,143.3959 460.2452,143.4484 C460.5323,143.5533 460.8261,143.6609 461.1263,143.7713 C461.7268,143.992 462.3533,144.2237 463.0049,144.4663 C464.3083,144.9514 465.7125,145.4801 467.211,146.0523 C470.2082,147.1967 473.583,148.5148 477.2847,150.0053 C492.0913,155.9675 512.1263,164.6887 534.13,176.085 C578.1375,198.8775 630.02,232.37 663.7,275.89 C674.7175,290.1225 683.4013,306.8244 690.2327,323.9183 C693.6484,332.4652 696.601,341.1102 699.1507,349.5935 C699.31,350.1237 697.7681,344.8991 697.9243,345.4279" fill="none" id="WS-to-FrontCocinero" style="stroke:#181818;stroke-width:1;"/><polygon fill="#181818" points="699.624,351.1822,700.9106,341.4177,698.2076,346.387,693.2383,343.684,699.624,351.1822" style="stroke:#181818;stroke-width:1;"/><text fill="#000000" font-family="sans-serif" font-size="13" lengthAdjust="spacing" textLength="147.3354" x="655.7" y="263.9569">notifica en tiempo real</text></g><!--link FrontCamarero to SW--><g class="link" data-entity-1="ent0003" data-entity-2="ent0018" data-link-type="dependency" data-source-line="59" id="lnk30"><path d="M448.4378,496.9825 C448.4208,497.3632 448.4039,497.7446 448.387,498.1266 C448.2517,501.1824 448.1185,504.2777 447.9889,507.3953 C447.4706,519.8656 447.01,532.6925 446.7,544.78 C446.2375,562.87 445.9425,582.0763 445.7605,600.7538 C445.6695,610.0925 445.6067,619.2991 445.5653,628.1678 C445.555,630.385 445.546,632.5811 445.5382,634.7528 C445.5363,635.2958 445.5543,629.8372 445.5525,630.3771" fill="none" id="FrontCamarero-to-SW" style="stroke:#181818;stroke-width:1;"/><polygon fill="#181818" points="445.5326,636.377,449.5624,627.3903,445.5492,631.377,441.5625,627.3638,445.5326,636.377" style="stroke:#181818;stroke-width:1;"/><text fill="#000000" font-family="sans-serif" font-size="13" lengthAdjust="spacing" textLength="90.7207" x="447.7" y="557.8469">guarda offline</text></g><!--link SW to Controladores--><g class="link" data-entity-1="ent0018" data-entity-2="ent0008" data-link-type="dependency" data-source-line="60" id="lnk31"><path d="M453.7474,724.6735 C454.4419,725.6976 455.1787,726.7738 455.9567,727.8977 C462.1809,736.8884 471.0444,748.9306 482.0087,761.8137 C503.9375,787.58 534.27,816.71 568.7,831.52 C588.01,839.83 742.16,825.38 757.7,839.52 C760.5212,842.0869 763.0673,844.861 765.3613,847.8071 C766.5084,849.2801 767.5924,850.7962 768.6163,852.3509 C769.1282,853.1282 769.6252,853.9152 770.1074,854.7113 C770.228,854.9103 767.2863,849.9496 767.4051,850.1498" fill="none" id="SW-to-Controladores" style="stroke:#181818;stroke-width:1;"/><polygon fill="#181818" points="770.4664,855.31,769.3146,845.5287,767.9153,851.0098,762.4342,849.6105,770.4664,855.31" style="stroke:#181818;stroke-width:1;"/><text fill="#000000" font-family="sans-serif" font-size="13" lengthAdjust="spacing" textLength="174.916" x="569.7" y="827.5869">sincroniza al recuperar red</text></g><?plantuml-src pLRTRjis5BxtKnoa5qqnPCFG3UXyCK2MgKMB7HkI4WETY-14OZokCYcGLDgq6D1tM5zWpx2BtIzlqYVP8IKvafTWkreZ431vU7x8xvplq4_XqySFpO0mM0OGpc9sch4xyUSQemhprxZXS11f9IsN1Npwy14ol2ovDL3m4ZGt5ckDj7i0JnYBleaYU3yQ0Uta5kMc9EiGjwYvLl0L1CLMI66inaBfjJnShW8uWeHZRk4Bo6ugdkPQLFRP0Q017tPd_Pwy0lmqvmRDkU1lrZ9KMvG5jWlynSzUaTgl-oTGkP3aupz6RBMxY2VJjEUOnjFzb4s2y8ITJZz_oWPPcz349IrOnd38tbQKBBD_voViHVGj--wVEICSj2fTchZnq0ma7JH1RNzkDqfE2NN9wQ_R3FL5cQ1JsRw4yEql4swulXxOd9aQjL03pwXjJ-U-hCz5KPJy3LMFly3TiZlzZwiCt0qefYA37oX8iPPCQwNXcCxza5z5fQ_8eP8RfKphlHMshjiJmrz_maibqVqwR7Q8EC6CgWpRzLekIxHUFoF3AvnpMNTWEMcBYhTJcw0kX5LQu0D5kPYVdSPX4CQtlvr25hFvSW492sRm_rLV9lYsKeGRbd2OAdUFBuLo9HT5qGlsjKUgXogxvj8IW2j-sMXxM5TfX-Xo5cIBYrcSPekr3CBiB9Z5BuFaWgg7rkTnkhX8MCgIyw31P0yIjnE735QBv8Gby5WucgfAQSjXSNLLKZaGKfHbaNDOAVsQwnQkvz7pVRXYMV2tl9XEYD6Ew1kjQk9wUYDp3rowwe1hAyn0HSr04CZSh6KgP4wzJhp3NDp-8G5hgxQtlrkHuxtmJOAKmPG69I5z77skG8kNQ3mXYOZJISj3F_UNfwkNFC-5ajoCrx8c1Xb7e7V4I3_PkhTaBVCE8HAvBA3PiR9ohFGRrjFIDBoqdfTUhXjYDiPgOrxjGnVDM7WSF0xGxe5n-CWU7NtVRvHZECwo9RMED8D3QfVFHiCNyj_rUvlkS_h3bsGCrrWAweWtmAMkBOw6-qs8jhkE8KpEfgDksNwDHfFtyQujms8wlyyNjPGnyAqWrl6cvun8rF-SrX2MCKXbnHMnWmu9zgwrFMpQGVImwJ24DoNMZc7ZtY44rRI44Sds8-mZQ7Pi1dH_olAwuXerpOg_0G00?></g></svg>