<svg xmlns="http://www.w3.org/2000/svg" xmlns:xlink="http://www.w3.org/1999/xlink" contentStyleType="text/css" data-diagram-type="DESCRIPTION" height="685px" preserveAspectRatio="none" style="width:1682px;height:685px;background:#FFFFFF;" version="1.1" viewBox="0 0 1682 685" width="1682px" zoomAndPan="magnify"><?plantuml 1.2026.7beta1?><defs/><g><g class="title" data-source-line="1"><text fill="#000000" font-family="sans-serif" font-size="14" font-weight="700" lengthAdjust="spacing" textLength="148.6953" x="763.4623" y="22.9951">CU-04 - Abrir mesa</text></g><!--cluster Vista--><g class="cluster" data-qualified-name="Vista" data-source-line="10" id="ent0002"><path d="M1150.31,151.0969 L1191.4164,151.0969 A3.75,3.75 0 0 1 1193.9164,153.5969 L1200.9164,173.3937 L1665.12,173.3937 A2.5,2.5 0 0 1 1667.62,175.8937 L1667.62,251.5969 A2.5,2.5 0 0 1 1665.12,254.0969 L1150.31,254.0969 A2.5,2.5 0 0 1 1147.81,251.5969 L1147.81,153.5969 A2.5,2.5 0 0 1 1150.31,151.0969" fill="none" style="stroke:#000000;stroke-width:1.5;"/><line style="stroke:#000000;stroke-width:1.5;" x1="1147.81" x2="1200.9164" y1="173.3937" y2="173.3937"/><text fill="#000000" font-family="sans-serif" font-size="14" font-weight="700" lengthAdjust="spacing" textLength="40.1064" x="1151.81" y="166.092">Vista</text></g><!--cluster Controlador--><g class="cluster" data-qualified-name="Controlador" data-source-line="15" id="ent0005"><path d="M8.5,294.0969 L103.3643,294.0969 A3.75,3.75 0 0 1 105.8643,296.5969 L112.8643,316.3937 L211.57,316.3937 A2.5,2.5 0 0 1 214.07,318.8937 L214.07,404.5969 A2.5,2.5 0 0 1 211.57,407.0969 L8.5,407.0969 A2.5,2.5 0 0 1 6,404.5969 L6,296.5969 A2.5,2.5 0 0 1 8.5,294.0969" fill="none" style="stroke:#000000;stroke-width:1.5;"/><line style="stroke:#000000;stroke-width:1.5;" x1="6" x2="112.8643" y1="316.3937" y2="316.3937"/><text fill="#000000" font-family="sans-serif" font-size="14" font-weight="700" lengthAdjust="spacing" textLength="93.8643" x="10" y="309.092">Controlador</text></g><!--cluster Servicio--><g class="cluster" data-qualified-name="Servicio" data-source-line="19" id="ent0007"><path d="M406.57,151.0969 L470.693,151.0969 A3.75,3.75 0 0 1 473.193,153.5969 L480.193,173.3937 L945.31,173.3937 A2.5,2.5 0 0 1 947.81,175.8937 L947.81,251.5969 A2.5,2.5 0 0 1 945.31,254.0969 L406.57,254.0969 A2.5,2.5 0 0 1 404.07,251.5969 L404.07,153.5969 A2.5,2.5 0 0 1 406.57,151.0969" fill="none" style="stroke:#000000;stroke-width:1.5;"/><line style="stroke:#000000;stroke-width:1.5;" x1="404.07" x2="480.193" y1="173.3937" y2="173.3937"/><text fill="#000000" font-family="sans-serif" font-size="14" font-weight="700" lengthAdjust="spacing" textLength="63.123" x="408.07" y="166.092">Servicio</text></g><!--cluster Modelos--><g class="cluster" data-qualified-name="Modelos" data-source-line="24" id="ent0010"><path d="M784.38,278.0969 L851.1964,278.0969 A3.75,3.75 0 0 1 853.6964,280.5969 L860.6964,300.3937 L940.14,300.3937 A2.5,2.5 0 0 1 942.64,302.8937 L942.64,534.5969 A2.5,2.5 0 0 1 940.14,537.0969 L784.38,537.0969 A2.5,2.5 0 0 1 781.88,534.5969 L781.88,280.5969 A2.5,2.5 0 0 1 784.38,278.0969" fill="none" style="stroke:#000000;stroke-width:1.5;"/><line style="stroke:#000000;stroke-width:1.5;" x1="781.88" x2="860.6964" y1="300.3937" y2="300.3937"/><text fill="#000000" font-family="sans-serif" font-size="14" font-weight="700" lengthAdjust="spacing" textLength="65.8164" x="785.88" y="293.092">Modelos</text></g><!--entity MesasView--><g class="entity" data-qualified-name="Vista.MesasView" data-source-line="11" id="ent0003"><rect fill="#F1F1F1" height="46.2969" rx="2.5" ry="2.5" style="stroke:#181818;stroke-width:0.5;" width="117.3896" x="1163.81" y="185.9469"/><rect fill="#F1F1F1" height="10" style="stroke:#181818;stroke-width:0.5;" width="15" x="1261.1996" y="190.9469"/><rect fill="#F1F1F1" height="2" style="stroke:#181818;stroke-width:0.5;" width="4" x="1259.1996" y="192.9469"/><rect fill="#F1F1F1" height="2" style="stroke:#181818;stroke-width:0.5;" width="4" x="1259.1996" y="196.9469"/><text fill="#000000" font-family="sans-serif" font-size="14" lengthAdjust="spacing" textLength="77.3896" x="1178.81" y="218.942">MesasView</text></g><!--entity ComandaView--><g class="entity" data-qualified-name="Vista.ComandaView" data-source-line="12" id="ent0004"><rect fill="#F1F1F1" height="46.2969" rx="2.5" ry="2.5" style="stroke:#181818;stroke-width:0.5;" width="140.4268" x="1511.2" y="185.9469"/><rect fill="#F1F1F1" height="10" style="stroke:#181818;stroke-width:0.5;" width="15" x="1631.6268" y="190.9469"/><rect fill="#F1F1F1" height="2" style="stroke:#181818;stroke-width:0.5;" width="4" x="1629.6268" y="192.9469"/><rect fill="#F1F1F1" height="2" style="stroke:#181818;stroke-width:0.5;" width="4" x="1629.6268" y="196.9469"/><text fill="#000000" font-family="sans-serif" font-size="14" lengthAdjust="spacing" textLength="100.4268" x="1526.2" y="218.942">ComandaView</text></g><!--entity Controller--><g class="entity" data-qualified-name="Controlador.Controller" data-source-line="16" id="ent0006"><rect fill="#F1F1F1" height="62.5938" rx="2.5" ry="2.5" style="stroke:#181818;stroke-width:0.5;" width="176.0693" x="22" y="328.7969"/><rect fill="#F1F1F1" height="10" style="stroke:#181818;stroke-width:0.5;" width="15" x="178.0693" y="333.7969"/><rect fill="#F1F1F1" height="2" style="stroke:#181818;stroke-width:0.5;" width="4" x="176.0693" y="335.7969"/><rect fill="#F1F1F1" height="2" style="stroke:#181818;stroke-width:0.5;" width="4" x="176.0693" y="339.7969"/><text fill="#000000" font-family="sans-serif" font-size="14" lengthAdjust="spacing" textLength="136.0693" x="37" y="361.792">ComandaController</text><text fill="#000000" font-family="sans-serif" font-size="14" lengthAdjust="spacing" textLength="134.7021" x="37" y="378.0889">(CU-04 Abrir mesa)</text></g><!--entity Service--><g class="entity" data-qualified-name="Servicio.Service" data-source-line="20" id="ent0008"><rect fill="#F1F1F1" height="46.2969" rx="2.5" ry="2.5" style="stroke:#181818;stroke-width:0.5;" width="158.6377" x="420.07" y="191.9469"/><rect fill="#F1F1F1" height="10" style="stroke:#181818;stroke-width:0.5;" width="15" x="558.7077" y="196.9469"/><rect fill="#F1F1F1" height="2" style="stroke:#181818;stroke-width:0.5;" width="4" x="556.7077" y="198.9469"/><rect fill="#F1F1F1" height="2" style="stroke:#181818;stroke-width:0.5;" width="4" x="556.7077" y="202.9469"/><text fill="#000000" font-family="sans-serif" font-size="14" lengthAdjust="spacing" textLength="118.6377" x="435.07" y="224.942">ComandaService</text></g><!--entity Socket--><g class="entity" data-qualified-name="Servicio.Socket" data-source-line="21" id="ent0009"><rect fill="#F1F1F1" height="46.2969" rx="2.5" ry="2.5" style="stroke:#181818;stroke-width:0.5;" width="139.1006" x="792.71" y="185.9469"/><rect fill="#F1F1F1" height="10" style="stroke:#181818;stroke-width:0.5;" width="15" x="911.8106" y="190.9469"/><rect fill="#F1F1F1" height="2" style="stroke:#181818;stroke-width:0.5;" width="4" x="909.8106" y="192.9469"/><rect fill="#F1F1F1" height="2" style="stroke:#181818;stroke-width:0.5;" width="4" x="909.8106" y="196.9469"/><text fill="#000000" font-family="sans-serif" font-size="14" lengthAdjust="spacing" textLength="99.1006" x="807.71" y="218.942">SocketService</text></g><!--entity Mesa--><g class="entity" data-qualified-name="Modelos.Mesa" data-source-line="25" id="ent0011"><rect fill="#F1F1F1" height="46.2969" rx="2.5" ry="2.5" style="stroke:#181818;stroke-width:0.5;" width="76.5654" x="823.97" y="393.9469"/><rect fill="#F1F1F1" height="10" style="stroke:#181818;stroke-width:0.5;" width="15" x="880.5354" y="398.9469"/><rect fill="#F1F1F1" height="2" style="stroke:#181818;stroke-width:0.5;" width="4" x="878.5354" y="400.9469"/><rect fill="#F1F1F1" height="2" style="stroke:#181818;stroke-width:0.5;" width="4" x="878.5354" y="404.9469"/><text fill="#000000" font-family="sans-serif" font-size="14" lengthAdjust="spacing" textLength="36.5654" x="838.97" y="426.942">Mesa</text></g><!--entity Comanda--><g class="entity" data-qualified-name="Modelos.Comanda" data-source-line="26" id="ent0012"><rect fill="#F1F1F1" height="46.2969" rx="2.5" ry="2.5" style="stroke:#181818;stroke-width:0.5;" width="106.8965" x="808.81" y="474.9469"/><rect fill="#F1F1F1" height="10" style="stroke:#181818;stroke-width:0.5;" width="15" x="895.7065" y="479.9469"/><rect fill="#F1F1F1" height="2" style="stroke:#181818;stroke-width:0.5;" width="4" x="893.7065" y="481.9469"/><rect fill="#F1F1F1" height="2" style="stroke:#181818;stroke-width:0.5;" width="4" x="893.7065" y="485.9469"/><text fill="#000000" font-family="sans-serif" font-size="14" lengthAdjust="spacing" textLength="66.8965" x="823.81" y="507.942">Comanda</text></g><!--entity Log--><g class="entity" data-qualified-name="Modelos.Log" data-source-line="27" id="ent0013"><rect fill="#F1F1F1" height="46.2969" rx="2.5" ry="2.5" style="stroke:#181818;stroke-width:0.5;" width="128.7578" x="797.88" y="312.9469"/><rect fill="#F1F1F1" height="10" style="stroke:#181818;stroke-width:0.5;" width="15" x="906.6378" y="317.9469"/><rect fill="#F1F1F1" height="2" style="stroke:#181818;stroke-width:0.5;" width="4" x="904.6378" y="319.9469"/><rect fill="#F1F1F1" height="2" style="stroke:#181818;stroke-width:0.5;" width="4" x="904.6378" y="323.9469"/><text fill="#000000" font-family="sans-serif" font-size="14" lengthAdjust="spacing" textLength="88.7578" x="812.88" y="345.942">LogAuditoria</text></g><!--entity Actor--><g class="entity" data-qualified-name="Actor" data-source-line="8" id="ent0001"><ellipse cx="862.26" cy="51.2969" fill="#F1F1F1" rx="8" ry="8" style="stroke:#181818;stroke-width:0.5;"/><path d="M862.26,59.2969 L862.26,86.2969 M849.26,67.2969 L875.26,67.2969 M862.26,86.2969 L849.26,101.2969 M862.26,86.2969 L875.26,101.2969" fill="none" style="stroke:#181818;stroke-width:0.5;"/><text fill="#000000" font-family="sans-serif" font-size="14" lengthAdjust="spacing" textLength="78.4287" x="812.72" y="115.792">Camarero /</text><text fill="#000000" font-family="sans-serif" font-size="14" lengthAdjust="spacing" textLength="99.0801" x="812.72" y="132.0889">Administrador</text></g><!--link Actor to MesasView--><g class="link" data-entity-1="ent0001" data-entity-2="ent0003" data-link-type="dependency" data-source-line="30" id="lnk14"><path d="M911.94,105.3969 C977.37,127.3169 1088.769,164.6286 1158.679,188.0486" fill="none" id="Actor-to-MesasView" style="stroke:#181818;stroke-width:1;"/><polygon fill="#181818" points="1163.42,189.6369,1156.1567,182.9852,1158.679,188.0486,1153.6155,190.5708,1163.42,189.6369" style="stroke:#181818;stroke-width:1;stroke-linejoin:miter;stroke-miterlimit:10;"/><text fill="#000000" font-family="sans-serif" font-size="13" lengthAdjust="spacing" textLength="119.958" x="988.31" y="121.1638">solicita abrir mesa</text></g><!--link MesasView to Controller--><g class="link" data-entity-1="ent0003" data-entity-2="ent0006" data-link-type="dependency" data-source-line="31" id="lnk15"><path d="M1211.49,232.4469 C1182.8,295.9569 1093.39,471.4769 955.81,537.0969 C675.83,670.6069 300.5914,475.0427 165.5514,394.3027" fill="none" id="MesasView-to-Controller" style="stroke:#181818;stroke-width:1;"/><polygon fill="#181818" points="161.26,391.7369,166.9319,399.7885,165.5514,394.3027,171.0373,392.9222,161.26,391.7369" style="stroke:#181818;stroke-width:1;stroke-linejoin:miter;stroke-miterlimit:10;"/><text fill="#000000" font-family="sans-serif" font-size="13" lengthAdjust="spacing" textLength="133.9482" x="619.21" y="567.1638">POST /api/comandas</text></g><!--link Controller to Service--><g class="link" data-entity-1="ent0006" data-entity-2="ent0008" data-link-type="dependency" data-source-line="32" id="lnk16"><path d="M195.56,328.4469 C267.8,301.4069 365.4272,264.8594 430.6772,240.4394" fill="none" id="Controller-to-Service" style="stroke:#181818;stroke-width:1;"/><polygon fill="#181818" points="435.36,238.6869,425.5289,238.0952,430.6772,240.4394,428.333,245.5877,435.36,238.6869" style="stroke:#181818;stroke-width:1;stroke-linejoin:miter;stroke-miterlimit:10;"/><text fill="#000000" font-family="sans-serif" font-size="13" lengthAdjust="spacing" textLength="156.5459" x="231.07" y="254.1638">abrirComanda(mesa_id)</text></g><!--link Service to Mesa--><g class="link" data-entity-1="ent0008" data-entity-2="ent0011" data-link-type="dependency" data-source-line="33" id="lnk17"><path d="M514.61,238.6469 C532.91,267.0169 567.35,314.2069 608.71,341.0969 C676.84,385.3969 766.9647,404.0592 818.8547,411.7992" fill="none" id="Service-to-Mesa" style="stroke:#181818;stroke-width:1;"/><polygon fill="#181818" points="823.8,412.5369,815.4886,407.2529,818.8547,411.7992,814.3084,415.1653,823.8,412.5369" style="stroke:#181818;stroke-width:1;stroke-linejoin:miter;stroke-miterlimit:10;"/><text fill="#000000" font-family="sans-serif" font-size="13" lengthAdjust="spacing" textLength="133.4849" x="619.0298" y="322.1638">valida disponibilidad</text><text fill="#000000" font-family="sans-serif" font-size="13" lengthAdjust="spacing" textLength="140.1245" x="615.71" y="337.2966">y cambia a OCUPADA</text></g><!--link Service to Comanda--><g class="link" data-entity-1="ent0008" data-entity-2="ent0012" data-link-type="dependency" data-source-line="34" id="lnk18"><path d="M505.85,238.6569 C517.22,282.3269 547.59,375.9469 608.71,426.0969 C666.25,473.3069 748.1253,489.0847 803.5053,494.6747" fill="none" id="Service-to-Comanda" style="stroke:#181818;stroke-width:1;"/><polygon fill="#181818" points="808.48,495.1769,799.9272,490.2932,803.5053,494.6747,799.1238,498.2528,808.48,495.1769" style="stroke:#181818;stroke-width:1;stroke-linejoin:miter;stroke-miterlimit:10;"/><text fill="#000000" font-family="sans-serif" font-size="13" lengthAdjust="spacing" textLength="152.6357" x="609.71" y="422.1638">crea comanda ABIERTA</text></g><!--link Service to Log--><g class="link" data-entity-1="ent0008" data-entity-2="ent0013" data-link-type="dependency" data-source-line="35" id="lnk19"><path d="M570.82,238.7069 C636.67,260.7869 729.3695,291.867 792.9095,313.177" fill="none" id="Service-to-Log" style="stroke:#181818;stroke-width:1;"/><polygon fill="#181818" points="797.65,314.7669,790.389,308.1127,792.9095,313.177,787.8452,315.6975,797.65,314.7669" style="stroke:#181818;stroke-width:1;stroke-linejoin:miter;stroke-miterlimit:10;"/><text fill="#000000" font-family="sans-serif" font-size="13" lengthAdjust="spacing" textLength="110.7285" x="630.71" y="251.1638">registra apertura</text></g><!--link Service to Socket--><g class="link" data-entity-1="ent0008" data-entity-2="ent0009" data-link-type="dependency" data-source-line="36" id="lnk20"><path d="M579.14,213.7869 C642.8,212.7269 726.5507,211.3298 787.4107,210.3198" fill="none" id="Service-to-Socket" style="stroke:#181818;stroke-width:1;"/><polygon fill="#181818" points="792.41,210.2369,783.3449,206.3868,787.4107,210.3198,783.4776,214.3857,792.41,210.2369" style="stroke:#181818;stroke-width:1;stroke-linejoin:miter;stroke-miterlimit:10;"/><text fill="#000000" font-family="sans-serif" font-size="13" lengthAdjust="spacing" textLength="126.8833" x="622.71" y="207.1638">emite actualizaci&#243;n</text></g><!--link Socket to MesasView--><g class="link" data-entity-1="ent0009" data-entity-2="ent0003" data-link-type="dependency" data-source-line="37" id="lnk21"><path d="M931.91,209.0969 C999.05,209.0969 1095.18,209.0969 1158.44,209.0969" fill="none" id="Socket-to-MesasView" style="stroke:#181818;stroke-width:1;"/><polygon fill="#181818" points="1163.44,209.0969,1154.44,205.0969,1158.44,209.0969,1154.44,213.0969,1163.44,209.0969" style="stroke:#181818;stroke-width:1;stroke-linejoin:miter;stroke-miterlimit:10;"/><text fill="#000000" font-family="sans-serif" font-size="13" lengthAdjust="spacing" textLength="166.5181" x="964.81" y="205.1638">actualiza estado de mesa</text></g><!--link MesasView to ComandaView--><g class="link" data-entity-1="ent0003" data-entity-2="ent0004" data-link-type="dependency" data-source-line="38" id="lnk22"><path d="M1281.64,209.0969 C1344.36,209.0969 1439.18,209.0969 1505.97,209.0969" fill="none" id="MesasView-to-ComandaView" style="stroke:#181818;stroke-width:1;"/><polygon fill="#181818" points="1510.97,209.0969,1501.97,205.0969,1505.97,209.0969,1501.97,213.0969,1510.97,209.0969" style="stroke:#181818;stroke-width:1;stroke-linejoin:miter;stroke-miterlimit:10;"/><text fill="#000000" font-family="sans-serif" font-size="13" lengthAdjust="spacing" textLength="168.4858" x="1312.2" y="205.1638">continuar toma de pedido</text></g><?plantuml-src TPDBRXin38RtEWNXLR8mN1HTTL5WEkcYG8C4TPALWOAMc35XFGQI9aOQz5GzGYzMpiFpADpTQFZn9_cBofmjGVcuVlS1rb3i8qTmb50fIyyPSe38rI63uKWwS_0g7TdN6D51Eg099_OLFADDD8liKH-h61floc13XDE1ypokWwk39v-t-LNADyw-Lmfr5dHLeiD8CS1cvmlZs7FAKGh55M22eeMKggK0LWIh9udY2juKJAAmkfK9qXFJgSiPJqke30wzmH6RdTMlMOao-1o3xLjukwWn89RYpb_rPavMNW_gPsGXlgNumfh3_vJxE7KIm_UIsmPzfBp0kZ-BAhV1a0tfea-ZHHVhpvrP0jz2LJI6vJguf-H7MxIx8LYlFqs-mqT8mSgO6G6d5PlYBJqP9FZztVO1DbZpHlUravh5MtoOMDXESMZngXN-mUPQdUFdHWHyGSi6PPMJpC1xRazcvrz1ezkpj0PtvUDzSLCiaWTboTUH48P-eFZyzSltXoKg3WWMgUfM5h2cc9k82wQ_7S78oPi0MVf6slg9cl_yzcg8_klUI079kfi0XYvRE6vmswuOnhx1AA_OOPjIas4J_W80?></g></svg>