<svg xmlns="http://www.w3.org/2000/svg" xmlns:xlink="http://www.w3.org/1999/xlink" contentStyleType="text/css" data-diagram-type="DESCRIPTION" height="848px" preserveAspectRatio="none" style="width:1436px;height:848px;background:#FFFFFF;" version="1.1" viewBox="0 0 1436 848" width="1436px" zoomAndPan="magnify"><?plantuml 1.2026.7beta1?><defs/><g><g class="title" data-source-line="1"><text fill="#000000" font-family="sans-serif" font-size="14" font-weight="700" lengthAdjust="spacing" textLength="186.1836" x="621.7532" y="22.9951">CU-08 - Editar comanda</text></g><!--cluster Vista--><g class="cluster" data-qualified-name="Vista" data-source-line="10" id="ent0002"><path d="M1251.77,151.0969 L1292.8764,151.0969 A3.75,3.75 0 0 1 1295.3764,153.5969 L1302.3764,173.3937 L1419.19,173.3937 A2.5,2.5 0 0 1 1421.69,175.8937 L1421.69,326.5969 A2.5,2.5 0 0 1 1419.19,329.0969 L1251.77,329.0969 A2.5,2.5 0 0 1 1249.27,326.5969 L1249.27,153.5969 A2.5,2.5 0 0 1 1251.77,151.0969" fill="none" style="stroke:#000000;stroke-width:1.5;"/><line style="stroke:#000000;stroke-width:1.5;" x1="1249.27" x2="1302.3764" y1="173.3937" y2="173.3937"/><text fill="#000000" font-family="sans-serif" font-size="14" font-weight="700" lengthAdjust="spacing" textLength="40.1064" x="1253.27" y="166.092">Vista</text></g><!--cluster Controlador--><g class="cluster" data-qualified-name="Controlador" data-source-line="15" id="ent0005"><path d="M8.5,335.0969 L103.3643,335.0969 A3.75,3.75 0 0 1 105.8643,337.5969 L112.8643,357.3937 L244.48,357.3937 A2.5,2.5 0 0 1 246.98,359.8937 L246.98,445.5969 A2.5,2.5 0 0 1 244.48,448.0969 L8.5,448.0969 A2.5,2.5 0 0 1 6,445.5969 L6,337.5969 A2.5,2.5 0 0 1 8.5,335.0969" fill="none" style="stroke:#000000;stroke-width:1.5;"/><line style="stroke:#000000;stroke-width:1.5;" x1="6" x2="112.8643" y1="357.3937" y2="357.3937"/><text fill="#000000" font-family="sans-serif" font-size="14" font-weight="700" lengthAdjust="spacing" textLength="93.8643" x="10" y="350.092">Controlador</text></g><!--cluster Servicio--><g class="cluster" data-qualified-name="Servicio" data-source-line="19" id="ent0007"><path d="M497.48,151.0969 L561.603,151.0969 A3.75,3.75 0 0 1 564.103,153.5969 L571.103,173.3937 L1087.99,173.3937 A2.5,2.5 0 0 1 1090.49,175.8937 L1090.49,251.5969 A2.5,2.5 0 0 1 1087.99,254.0969 L497.48,254.0969 A2.5,2.5 0 0 1 494.98,251.5969 L494.98,153.5969 A2.5,2.5 0 0 1 497.48,151.0969" fill="none" style="stroke:#000000;stroke-width:1.5;"/><line style="stroke:#000000;stroke-width:1.5;" x1="494.98" x2="571.103" y1="173.3937" y2="173.3937"/><text fill="#000000" font-family="sans-serif" font-size="14" font-weight="700" lengthAdjust="spacing" textLength="63.123" x="498.98" y="166.092">Servicio</text></g><!--cluster Modelos--><g class="cluster" data-qualified-name="Modelos" data-source-line="24" id="ent0010"><path d="M919.12,278.0969 L985.9364,278.0969 A3.75,3.75 0 0 1 988.4364,280.5969 L995.4364,300.3937 L1090.77,300.3937 A2.5,2.5 0 0 1 1093.27,302.8937 L1093.27,615.5969 A2.5,2.5 0 0 1 1090.77,618.0969 L919.12,618.0969 A2.5,2.5 0 0 1 916.62,615.5969 L916.62,280.5969 A2.5,2.5 0 0 1 919.12,278.0969" fill="none" style="stroke:#000000;stroke-width:1.5;"/><line style="stroke:#000000;stroke-width:1.5;" x1="916.62" x2="995.4364" y1="300.3937" y2="300.3937"/><text fill="#000000" font-family="sans-serif" font-size="14" font-weight="700" lengthAdjust="spacing" textLength="65.8164" x="920.62" y="293.092">Modelos</text></g><!--entity ComandaView--><g class="entity" data-qualified-name="Vista.ComandaView" data-source-line="11" id="ent0003"><rect fill="#F1F1F1" height="46.2969" rx="2.5" ry="2.5" style="stroke:#181818;stroke-width:0.5;" width="140.4268" x="1265.27" y="185.9469"/><rect fill="#F1F1F1" height="10" style="stroke:#181818;stroke-width:0.5;" width="15" x="1385.6968" y="190.9469"/><rect fill="#F1F1F1" height="2" style="stroke:#181818;stroke-width:0.5;" width="4" x="1383.6968" y="192.9469"/><rect fill="#F1F1F1" height="2" style="stroke:#181818;stroke-width:0.5;" width="4" x="1383.6968" y="196.9469"/><text fill="#000000" font-family="sans-serif" font-size="14" lengthAdjust="spacing" textLength="100.4268" x="1280.27" y="218.942">ComandaView</text></g><!--entity KdsView--><g class="entity" data-qualified-name="Vista.KdsView" data-source-line="12" id="ent0004"><rect fill="#F1F1F1" height="46.2969" rx="2.5" ry="2.5" style="stroke:#181818;stroke-width:0.5;" width="98.8916" x="1286.03" y="266.9469"/><rect fill="#F1F1F1" height="10" style="stroke:#181818;stroke-width:0.5;" width="15" x="1364.9216" y="271.9469"/><rect fill="#F1F1F1" height="2" style="stroke:#181818;stroke-width:0.5;" width="4" x="1362.9216" y="273.9469"/><rect fill="#F1F1F1" height="2" style="stroke:#181818;stroke-width:0.5;" width="4" x="1362.9216" y="277.9469"/><text fill="#000000" font-family="sans-serif" font-size="14" lengthAdjust="spacing" textLength="58.8916" x="1301.03" y="299.942">KdsView</text></g><!--entity Controller--><g class="entity" data-qualified-name="Controlador.Controller" data-source-line="16" id="ent0006"><rect fill="#F1F1F1" height="62.5938" rx="2.5" ry="2.5" style="stroke:#181818;stroke-width:0.5;" width="208.9775" x="22" y="369.7969"/><rect fill="#F1F1F1" height="10" style="stroke:#181818;stroke-width:0.5;" width="15" x="210.9775" y="374.7969"/><rect fill="#F1F1F1" height="2" style="stroke:#181818;stroke-width:0.5;" width="4" x="208.9775" y="376.7969"/><rect fill="#F1F1F1" height="2" style="stroke:#181818;stroke-width:0.5;" width="4" x="208.9775" y="380.7969"/><text fill="#000000" font-family="sans-serif" font-size="14" lengthAdjust="spacing" textLength="136.0693" x="37" y="402.792">ComandaController</text><text fill="#000000" font-family="sans-serif" font-size="14" lengthAdjust="spacing" textLength="168.9775" x="37" y="419.0889">(CU-08 Editar comanda)</text></g><!--entity Service--><g class="entity" data-qualified-name="Servicio.Service" data-source-line="20" id="ent0008"><rect fill="#F1F1F1" height="46.2969" rx="2.5" ry="2.5" style="stroke:#181818;stroke-width:0.5;" width="158.6377" x="510.98" y="191.9469"/><rect fill="#F1F1F1" height="10" style="stroke:#181818;stroke-width:0.5;" width="15" x="649.6177" y="196.9469"/><rect fill="#F1F1F1" height="2" style="stroke:#181818;stroke-width:0.5;" width="4" x="647.6177" y="198.9469"/><rect fill="#F1F1F1" height="2" style="stroke:#181818;stroke-width:0.5;" width="4" x="647.6177" y="202.9469"/><text fill="#000000" font-family="sans-serif" font-size="14" lengthAdjust="spacing" textLength="118.6377" x="525.98" y="224.942">ComandaService</text></g><!--entity Socket--><g class="entity" data-qualified-name="Servicio.Socket" data-source-line="21" id="ent0009"><rect fill="#F1F1F1" height="46.2969" rx="2.5" ry="2.5" style="stroke:#181818;stroke-width:0.5;" width="139.1006" x="935.39" y="185.9469"/><rect fill="#F1F1F1" height="10" style="stroke:#181818;stroke-width:0.5;" width="15" x="1054.4906" y="190.9469"/><rect fill="#F1F1F1" height="2" style="stroke:#181818;stroke-width:0.5;" width="4" x="1052.4906" y="192.9469"/><rect fill="#F1F1F1" height="2" style="stroke:#181818;stroke-width:0.5;" width="4" x="1052.4906" y="196.9469"/><text fill="#000000" font-family="sans-serif" font-size="14" lengthAdjust="spacing" textLength="99.1006" x="950.39" y="218.942">SocketService</text></g><!--entity Comanda--><g class="entity" data-qualified-name="Modelos.Comanda" data-source-line="25" id="ent0011"><rect fill="#F1F1F1" height="46.2969" rx="2.5" ry="2.5" style="stroke:#181818;stroke-width:0.5;" width="106.8965" x="951.49" y="312.9469"/><rect fill="#F1F1F1" height="10" style="stroke:#181818;stroke-width:0.5;" width="15" x="1038.3865" y="317.9469"/><rect fill="#F1F1F1" height="2" style="stroke:#181818;stroke-width:0.5;" width="4" x="1036.3865" y="319.9469"/><rect fill="#F1F1F1" height="2" style="stroke:#181818;stroke-width:0.5;" width="4" x="1036.3865" y="323.9469"/><text fill="#000000" font-family="sans-serif" font-size="14" lengthAdjust="spacing" textLength="66.8965" x="966.49" y="345.942">Comanda</text></g><!--entity Linea--><g class="entity" data-qualified-name="Modelos.Linea" data-source-line="26" id="ent0012"><rect fill="#F1F1F1" height="46.2969" rx="2.5" ry="2.5" style="stroke:#181818;stroke-width:0.5;" width="144.6514" x="932.62" y="474.9469"/><rect fill="#F1F1F1" height="10" style="stroke:#181818;stroke-width:0.5;" width="15" x="1057.2714" y="479.9469"/><rect fill="#F1F1F1" height="2" style="stroke:#181818;stroke-width:0.5;" width="4" x="1055.2714" y="481.9469"/><rect fill="#F1F1F1" height="2" style="stroke:#181818;stroke-width:0.5;" width="4" x="1055.2714" y="485.9469"/><text fill="#000000" font-family="sans-serif" font-size="14" lengthAdjust="spacing" textLength="104.6514" x="947.62" y="507.942">LineaComanda</text></g><!--entity Plato--><g class="entity" data-qualified-name="Modelos.Plato" data-source-line="27" id="ent0013"><rect fill="#F1F1F1" height="46.2969" rx="2.5" ry="2.5" style="stroke:#181818;stroke-width:0.5;" width="74.9658" x="967.46" y="393.9469"/><rect fill="#F1F1F1" height="10" style="stroke:#181818;stroke-width:0.5;" width="15" x="1022.4258" y="398.9469"/><rect fill="#F1F1F1" height="2" style="stroke:#181818;stroke-width:0.5;" width="4" x="1020.4258" y="400.9469"/><rect fill="#F1F1F1" height="2" style="stroke:#181818;stroke-width:0.5;" width="4" x="1020.4258" y="404.9469"/><text fill="#000000" font-family="sans-serif" font-size="14" lengthAdjust="spacing" textLength="34.9658" x="982.46" y="426.942">Plato</text></g><!--entity Log--><g class="entity" data-qualified-name="Modelos.Log" data-source-line="28" id="ent0014"><rect fill="#F1F1F1" height="46.2969" rx="2.5" ry="2.5" style="stroke:#181818;stroke-width:0.5;" width="128.7578" x="940.56" y="555.9469"/><rect fill="#F1F1F1" height="10" style="stroke:#181818;stroke-width:0.5;" width="15" x="1049.3178" y="560.9469"/><rect fill="#F1F1F1" height="2" style="stroke:#181818;stroke-width:0.5;" width="4" x="1047.3178" y="562.9469"/><rect fill="#F1F1F1" height="2" style="stroke:#181818;stroke-width:0.5;" width="4" x="1047.3178" y="566.9469"/><text fill="#000000" font-family="sans-serif" font-size="14" lengthAdjust="spacing" textLength="88.7578" x="955.56" y="588.942">LogAuditoria</text></g><!--entity Actor--><g class="entity" data-qualified-name="Actor" data-source-line="8" id="ent0001"><ellipse cx="1004.94" cy="51.2969" fill="#F1F1F1" rx="8" ry="8" style="stroke:#181818;stroke-width:0.5;"/><path d="M1004.94,59.2969 L1004.94,86.2969 M991.94,67.2969 L1017.94,67.2969 M1004.94,86.2969 L991.94,101.2969 M1004.94,86.2969 L1017.94,101.2969" fill="none" style="stroke:#181818;stroke-width:0.5;"/><text fill="#000000" font-family="sans-serif" font-size="14" lengthAdjust="spacing" textLength="78.4287" x="955.4" y="115.792">Camarero /</text><text fill="#000000" font-family="sans-serif" font-size="14" lengthAdjust="spacing" textLength="99.0801" x="955.4" y="132.0889">Administrador</text></g><!--link Actor to ComandaView--><g class="link" data-entity-1="ent0001" data-entity-2="ent0003" data-link-type="dependency" data-source-line="31" id="lnk15"><path d="M1054.77,106.9369 C1111.88,127.7969 1201.9434,160.6917 1265.1134,183.7617" fill="none" id="Actor-to-ComandaView" style="stroke:#181818;stroke-width:1;"/><polygon fill="#181818" points="1269.81,185.4769,1262.7283,178.6322,1265.1134,183.7617,1259.9839,186.1468,1269.81,185.4769" style="stroke:#181818;stroke-width:1;stroke-linejoin:miter;stroke-miterlimit:10;"/><text fill="#000000" font-family="sans-serif" font-size="13" lengthAdjust="spacing" textLength="122.0781" x="1110.27" y="109.1638">modifica o cancela</text><text fill="#000000" font-family="sans-serif" font-size="13" lengthAdjust="spacing" textLength="101.2451" x="1120.6865" y="124.2966">l&#237;nea pendiente</text></g><!--link ComandaView to Controller--><g class="link" data-entity-1="ent0003" data-entity-2="ent0006" data-link-type="dependency" data-source-line="32" id="lnk16"><path d="M1265.01,230.9769 C1256.23,235.9069 1247.99,241.8869 1241.27,249.0969 C1233.89,257.0169 1236.97,261.9269 1233.27,272.0969 C1176.89,426.7269 1235.4,522.7169 1101.27,618.0969 C797.95,833.7769 321.8767,537.359 175.4267,435.649" fill="none" id="ComandaView-to-Controller" style="stroke:#181818;stroke-width:1;"/><polygon fill="#181818" points="171.32,432.7969,176.4304,441.2161,175.4267,435.649,180.9938,434.6453,171.32,432.7969" style="stroke:#181818;stroke-width:1;stroke-linejoin:miter;stroke-miterlimit:10;"/><text fill="#000000" font-family="sans-serif" font-size="13" lengthAdjust="spacing" textLength="108.7607" x="746.12" y="674.1638">PUT/PATCH l&#237;nea</text></g><!--link Controller to Service--><g class="link" data-entity-1="ent0006" data-entity-2="ent0008" data-link-type="dependency" data-source-line="33" id="lnk17"><path d="M206.35,369.3369 C298.45,332.2369 444.0021,273.615 526.2521,240.485" fill="none" id="Controller-to-Service" style="stroke:#181818;stroke-width:1;"/><polygon fill="#181818" points="530.89,238.6169,521.0473,238.2692,526.2521,240.485,524.0363,245.6898,530.89,238.6169" style="stroke:#181818;stroke-width:1;stroke-linejoin:miter;stroke-miterlimit:10;"/><text fill="#000000" font-family="sans-serif" font-size="13" lengthAdjust="spacing" textLength="214.6079" x="263.98" y="256.1638">actualizarLineaComanda(lineaId)</text></g><!--link Service to Linea--><g class="link" data-entity-1="ent0008" data-entity-2="ent0012" data-link-type="dependency" data-source-line="34" id="lnk18"><path d="M598.41,238.6169 C611.71,278.5669 644.11,359.6669 699.62,404.0969 C708.98,411.5869 840.6294,450.7089 927.6094,476.0389" fill="none" id="Service-to-Linea" style="stroke:#181818;stroke-width:1;"/><polygon fill="#181818" points="932.41,477.4369,924.8874,471.08,927.6094,476.0389,922.6505,478.7609,932.41,477.4369" style="stroke:#181818;stroke-width:1;stroke-linejoin:miter;stroke-miterlimit:10;"/><text fill="#000000" font-family="sans-serif" font-size="13" lengthAdjust="spacing" textLength="199.8369" x="700.62" y="400.1638">comprueba estado PENDIENTE</text></g><!--link Service to Linea--><g class="link" data-entity-1="ent0008" data-entity-2="ent0012" data-link-type="dependency" data-source-line="37" id="lnk21"><path d="M592.32,238.3969 C596.13,293.4469 614.17,431.3969 699.62,491.0969 C767.3,538.3969 860.8272,531.5477 927.2572,518.2577" fill="none" id="Service-to-Linea-1" style="stroke:#181818;stroke-width:1;"/><polygon fill="#181818" points="932.16,517.2769,922.5502,515.1202,927.2572,518.2577,924.1196,522.9647,932.16,517.2769" style="stroke:#181818;stroke-width:1;stroke-linejoin:miter;stroke-miterlimit:10;"/><text fill="#000000" font-family="sans-serif" font-size="13" lengthAdjust="spacing" textLength="160.2847" x="720.12" y="487.1638">actualiza o cancela l&#237;nea</text></g><!--link Service to Comanda--><g class="link" data-entity-1="ent0008" data-entity-2="ent0011" data-link-type="dependency" data-source-line="35" id="lnk19"><path d="M669.85,237.7569 C732.4,255.8469 822.17,281.9169 900.62,305.0969 C917.05,309.9569 930.1517,313.8574 946.3517,318.7274" fill="none" id="Service-to-Comanda" style="stroke:#181818;stroke-width:1;"/><polygon fill="#181818" points="951.14,320.1669,943.6726,313.7452,946.3517,318.7274,941.3695,321.4065,951.14,320.1669" style="stroke:#181818;stroke-width:1;stroke-linejoin:miter;stroke-miterlimit:10;"/><text fill="#000000" font-family="sans-serif" font-size="13" lengthAdjust="spacing" textLength="163.2808" x="718.62" y="243.1638">valida comanda ABIERTA</text></g><!--link Service to Plato--><g class="link" data-entity-1="ent0008" data-entity-2="ent0013" data-link-type="dependency" data-source-line="36" id="lnk20"><path d="M606.78,238.3069 C625.59,264.6369 659.79,306.9169 699.62,330.0969 C779.08,376.3569 812.66,352.2969 900.62,379.0969 C922.92,385.8969 942.7617,393.056 962.3117,400.556" fill="none" id="Service-to-Plato" style="stroke:#181818;stroke-width:1;"/><polygon fill="#181818" points="966.98,402.3469,960.0098,395.3887,962.3117,400.556,957.1444,402.8579,966.98,402.3469" style="stroke:#181818;stroke-width:1;stroke-linejoin:miter;stroke-miterlimit:10;"/><text fill="#000000" font-family="sans-serif" font-size="13" lengthAdjust="spacing" textLength="178.9658" x="711.12" y="326.1638">valida al&#233;rgenos si procede</text></g><!--link Service to Log--><g class="link" data-entity-1="ent0008" data-entity-2="ent0014" data-link-type="dependency" data-source-line="38" id="lnk22"><path d="M590.72,238.3169 C590.57,300.8369 599.63,473.3969 699.62,553.0969 C767.52,607.2169 868.1271,603.4903 935.3771,593.2403" fill="none" id="Service-to-Log" style="stroke:#181818;stroke-width:1;"/><polygon fill="#181818" points="940.32,592.4869,930.82,589.8886,935.3771,593.2403,932.0255,597.7973,940.32,592.4869" style="stroke:#181818;stroke-width:1;stroke-linejoin:miter;stroke-miterlimit:10;"/><text fill="#000000" font-family="sans-serif" font-size="13" lengthAdjust="spacing" textLength="101.334" x="749.62" y="549.1638">registra edici&#243;n</text></g><!--link Service to Socket--><g class="link" data-entity-1="ent0008" data-entity-2="ent0009" data-link-type="dependency" data-source-line="39" id="lnk23"><path d="M669.88,213.9569 C746.46,212.8369 856.7605,211.24 929.9005,210.17" fill="none" id="Service-to-Socket" style="stroke:#181818;stroke-width:1;"/><polygon fill="#181818" points="934.9,210.0969,925.8425,206.229,929.9005,210.17,925.9595,214.2281,934.9,210.0969" style="stroke:#181818;stroke-width:1;stroke-linejoin:miter;stroke-miterlimit:10;"/><text fill="#000000" font-family="sans-serif" font-size="13" lengthAdjust="spacing" textLength="95.8687" x="752.62" y="207.1638">emite cambios</text></g><!--link Socket to ComandaView--><g class="link" data-entity-1="ent0009" data-entity-2="ent0003" data-link-type="dependency" data-source-line="40" id="lnk24"><path d="M1074.81,209.0969 C1130.6,209.0969 1203.86,209.0969 1259.85,209.0969" fill="none" id="Socket-to-ComandaView" style="stroke:#181818;stroke-width:1;"/><polygon fill="#181818" points="1264.85,209.0969,1255.85,205.0969,1259.85,209.0969,1255.85,213.0969,1264.85,209.0969" style="stroke:#181818;stroke-width:1;stroke-linejoin:miter;stroke-miterlimit:10;"/><text fill="#000000" font-family="sans-serif" font-size="13" lengthAdjust="spacing" textLength="117.4697" x="1112.77" y="205.1638">refresca comanda</text></g><!--link Socket to KdsView--><g class="link" data-entity-1="ent0009" data-entity-2="ent0004" data-link-type="dependency" data-source-line="41" id="lnk25"><path d="M1074.81,226.0769 C1137.94,241.6369 1224.9753,263.1002 1280.8353,276.8702" fill="none" id="Socket-to-KdsView" style="stroke:#181818;stroke-width:1;"/><polygon fill="#181818" points="1285.69,278.0669,1277.909,272.029,1280.8353,276.8702,1275.9942,279.7965,1285.69,278.0669" style="stroke:#181818;stroke-width:1;stroke-linejoin:miter;stroke-miterlimit:10;"/><text fill="#000000" font-family="sans-serif" font-size="13" lengthAdjust="spacing" textLength="99.3472" x="1121.77" y="232.1638">refresca cocina</text></g><?plantuml-src TPFDZbCn38NtUGghgvb5DOWLOe5qAPMeW555ExFgnatSswYvSPMaKm7YWLYmuX7wOlZ-j4rWPfV4dy-97IVPv0Wc3-DNRs0CKsCJ1j3Se3UebADDWiGGRBrDO6mWdInx5NVMxp5W0t6BXe_Mrx115ocBh57lwi07RoRiEC1nQrCU5vCzU_9faRx95GwDUwqKwYJeQ88D1WeCTojVcSPw6rCGep02Z52ra59xCS2QOFGeKHp13mLNKT7eYtYqTEooidq9VZBn0WrhzJEJdx1FWLrl_xp9W3WAAt_JDxDivUrmXJDM62meF5bj-INrFawTnB0kkGNh7QK2wquAbozio75yoIJlKGbyjfumfxg3afaxJDm5kzK_0bnN1sa71pi8SDrUhNj768_VvMy3Rw5XOpTM8p1ez9eShhmx_HPJs9CtLaH9vIcznBcteZ1_MDxDg-Na8_HvAeksyD0g8MNW3kZiTmnvcJUktSpChJgJRLP7I4vRMZZG6e5ay0p3V7h_OJQzNquBVD2IX2TnaCKm2r2zdqs_Bgi2xjfsHT6TVeMQF4U85lQ1DHbwzZAN0gxTEXTTu5mB7AZkVXAGaO4x_V45qm-DODJ8LnMrPcqvgk7u_tSAj0aKzQMmd1m-Kabfw_4l?></g></svg>