<svg xmlns="http://www.w3.org/2000/svg" xmlns:xlink="http://www.w3.org/1999/xlink" contentStyleType="text/css" data-diagram-type="CLASS" height="924px" preserveAspectRatio="none" style="width:739px;height:924px;background:#FFFFFF;" version="1.1" viewBox="0 0 739 924" width="739px" zoomAndPan="magnify"><?plantuml 1.2026.3beta6?><defs/><g><g class="title" data-source-line="1"><text fill="#000000" font-family="sans-serif" font-size="14" font-weight="700" lengthAdjust="spacing" textLength="325.9512" x="203.4944" y="22.9951">Diagrama de clases - Servicios y Modelos</text></g><!--cluster Services--><g class="cluster" data-qualified-name="Services" data-source-line="13" id="ent0002"><path d="M11,43.2969 L73.5342,43.2969 A7.5,7.5 0 0 1 78.5342,48.2969 L85.5342,65.5938 L183.64,65.5938 A5,5 0 0 1 188.64,70.5938 L188.64,801.2969 A5,5 0 0 1 183.64,806.2969 L11,806.2969 A5,5 0 0 1 6,801.2969 L6,48.2969 A5,5 0 0 1 11,43.2969" fill="none" style="stroke:#000000;stroke-width:1.5;"/><line style="stroke:#000000;stroke-width:1.5;" x1="6" x2="85.5342" y1="65.5938" y2="65.5938"/><text fill="#000000" font-family="sans-serif" font-size="14" font-weight="700" lengthAdjust="spacing" textLength="66.5342" x="10" y="58.292">Services</text></g><!--cluster Models (Mongoose)--><g class="cluster" data-qualified-name="Models .Mongoose." data-source-line="25" id="ent0012"><path d="M221.64,375.2969 L372.1117,375.2969 A7.5,7.5 0 0 1 377.1117,380.2969 L384.1117,397.5937 L719.94,397.5937 A5,5 0 0 1 724.94,402.5937 L724.94,801.2969 A5,5 0 0 1 719.94,806.2969 L221.64,806.2969 A5,5 0 0 1 216.64,801.2969 L216.64,380.2969 A5,5 0 0 1 221.64,375.2969" fill="none" style="stroke:#000000;stroke-width:1.5;"/><line style="stroke:#000000;stroke-width:1.5;" x1="216.64" x2="384.1117" y1="397.5937" y2="397.5937"/><text fill="#000000" font-family="sans-serif" font-size="14" font-weight="700" lengthAdjust="spacing" textLength="154.4717" x="220.64" y="390.292">Models (Mongoose)</text></g><!--class AuthService--><g class="entity" data-qualified-name="Services.AuthService" data-source-line="14" id="ent0003"><rect fill="#D8F3DC" height="48" rx="5" ry="5" style="stroke:#4F6B7A;stroke-width:0.5;" width="116.5537" x="39.04" y="78.2969"/><ellipse cx="54.04" cy="94.2969" fill="#ADD1B2" rx="11" ry="11" style="stroke:#181818;stroke-width:1;"/><path d="M57.0088,99.9375 Q56.4306,100.2344 55.79,100.375 Q55.1494,100.5313 54.4463,100.5313 Q51.9463,100.5313 50.6181,98.8906 Q49.3056,97.2344 49.3056,94.1094 Q49.3056,90.9844 50.6181,89.3281 Q51.9463,87.6719 54.4463,87.6719 Q55.1494,87.6719 55.79,87.8281 Q56.4463,87.9844 57.0088,88.2813 L57.0088,91 Q56.3838,90.4219 55.79,90.1563 Q55.1963,89.875 54.5713,89.875 Q53.2275,89.875 52.54,90.9531 Q51.8525,92.0156 51.8525,94.1094 Q51.8525,96.2031 52.54,97.2813 Q53.2275,98.3438 54.5713,98.3438 Q55.1963,98.3438 55.79,98.0781 Q56.3838,97.7969 57.0088,97.2188 L57.0088,99.9375 Z " fill="#000000"/><text fill="#000000" font-family="sans-serif" font-size="14" lengthAdjust="spacing" textLength="84.5537" x="68.04" y="99.1436">AuthService</text><line style="stroke:#4F6B7A;stroke-width:0.5;" x1="40.04" x2="154.5937" y1="110.2969" y2="110.2969"/><line style="stroke:#4F6B7A;stroke-width:0.5;" x1="40.04" x2="154.5937" y1="118.2969" y2="118.2969"/></g><!--class MesaService--><g class="entity" data-qualified-name="Services.MesaService" data-source-line="15" id="ent0004"><rect fill="#D8F3DC" height="48" rx="5" ry="5" style="stroke:#4F6B7A;stroke-width:0.5;" width="120.3066" x="37.17" y="244.2969"/><ellipse cx="52.17" cy="260.2969" fill="#ADD1B2" rx="11" ry="11" style="stroke:#181818;stroke-width:1;"/><path d="M55.1388,265.9375 Q54.5606,266.2344 53.92,266.375 Q53.2794,266.5313 52.5763,266.5313 Q50.0763,266.5313 48.7481,264.8906 Q47.4356,263.2344 47.4356,260.1094 Q47.4356,256.9844 48.7481,255.3281 Q50.0763,253.6719 52.5763,253.6719 Q53.2794,253.6719 53.92,253.8281 Q54.5763,253.9844 55.1388,254.2813 L55.1388,257 Q54.5138,256.4219 53.92,256.1563 Q53.3263,255.875 52.7013,255.875 Q51.3575,255.875 50.67,256.9531 Q49.9825,258.0156 49.9825,260.1094 Q49.9825,262.2031 50.67,263.2813 Q51.3575,264.3438 52.7013,264.3438 Q53.3263,264.3438 53.92,264.0781 Q54.5138,263.7969 55.1388,263.2188 L55.1388,265.9375 Z " fill="#000000"/><text fill="#000000" font-family="sans-serif" font-size="14" lengthAdjust="spacing" textLength="88.3066" x="66.17" y="265.1436">MesaService</text><line style="stroke:#4F6B7A;stroke-width:0.5;" x1="38.17" x2="156.4766" y1="276.2969" y2="276.2969"/><line style="stroke:#4F6B7A;stroke-width:0.5;" x1="38.17" x2="156.4766" y1="284.2969" y2="284.2969"/></g><!--class ComandaService--><g class="entity" data-qualified-name="Services.ComandaService" data-source-line="16" id="ent0005"><rect fill="#D8F3DC" height="48" rx="5" ry="5" style="stroke:#4F6B7A;stroke-width:0.5;" width="150.6377" x="22" y="410.2969"/><ellipse cx="37" cy="426.2969" fill="#ADD1B2" rx="11" ry="11" style="stroke:#181818;stroke-width:1;"/><path d="M39.9688,431.9375 Q39.3906,432.2344 38.75,432.375 Q38.1094,432.5312 37.4063,432.5312 Q34.9063,432.5312 33.5781,430.8906 Q32.2656,429.2344 32.2656,426.1094 Q32.2656,422.9844 33.5781,421.3281 Q34.9063,419.6719 37.4063,419.6719 Q38.1094,419.6719 38.75,419.8281 Q39.4063,419.9844 39.9688,420.2812 L39.9688,423 Q39.3438,422.4219 38.75,422.1562 Q38.1563,421.875 37.5313,421.875 Q36.1875,421.875 35.5,422.9531 Q34.8125,424.0156 34.8125,426.1094 Q34.8125,428.2031 35.5,429.2812 Q36.1875,430.3437 37.5313,430.3437 Q38.1563,430.3437 38.75,430.0781 Q39.3438,429.7969 39.9688,429.2187 L39.9688,431.9375 Z " fill="#000000"/><text fill="#000000" font-family="sans-serif" font-size="14" lengthAdjust="spacing" textLength="118.6377" x="51" y="431.1436">ComandaService</text><line style="stroke:#4F6B7A;stroke-width:0.5;" x1="23" x2="171.6377" y1="442.2969" y2="442.2969"/><line style="stroke:#4F6B7A;stroke-width:0.5;" x1="23" x2="171.6377" y1="450.2969" y2="450.2969"/></g><!--class TicketService--><g class="entity" data-qualified-name="Services.TicketService" data-source-line="17" id="ent0006"><rect fill="#D8F3DC" height="48" rx="5" ry="5" style="stroke:#4F6B7A;stroke-width:0.5;" width="126.0898" x="34.27" y="742.2969"/><ellipse cx="49.27" cy="758.2969" fill="#ADD1B2" rx="11" ry="11" style="stroke:#181818;stroke-width:1;"/><path d="M52.2388,763.9375 Q51.6606,764.2344 51.02,764.375 Q50.3794,764.5313 49.6763,764.5313 Q47.1763,764.5313 45.8481,762.8906 Q44.5356,761.2344 44.5356,758.1094 Q44.5356,754.9844 45.8481,753.3281 Q47.1763,751.6719 49.6763,751.6719 Q50.3794,751.6719 51.02,751.8281 Q51.6763,751.9844 52.2388,752.2813 L52.2388,755 Q51.6138,754.4219 51.02,754.1563 Q50.4263,753.875 49.8013,753.875 Q48.4575,753.875 47.77,754.9531 Q47.0825,756.0156 47.0825,758.1094 Q47.0825,760.2031 47.77,761.2813 Q48.4575,762.3438 49.8013,762.3438 Q50.4263,762.3438 51.02,762.0781 Q51.6138,761.7969 52.2388,761.2188 L52.2388,763.9375 Z " fill="#000000"/><text fill="#000000" font-family="sans-serif" font-size="14" lengthAdjust="spacing" textLength="94.0898" x="63.27" y="763.1436">TicketService</text><line style="stroke:#4F6B7A;stroke-width:0.5;" x1="35.27" x2="159.3598" y1="774.2969" y2="774.2969"/><line style="stroke:#4F6B7A;stroke-width:0.5;" x1="35.27" x2="159.3598" y1="782.2969" y2="782.2969"/></g><!--class ReservaService--><g class="entity" data-qualified-name="Services.ReservaService" data-source-line="18" id="ent0007"><rect fill="#D8F3DC" height="48" rx="5" ry="5" style="stroke:#4F6B7A;stroke-width:0.5;" width="140.6094" x="27.01" y="659.2969"/><ellipse cx="42.01" cy="675.2969" fill="#ADD1B2" rx="11" ry="11" style="stroke:#181818;stroke-width:1;"/><path d="M44.9788,680.9375 Q44.4006,681.2344 43.76,681.375 Q43.1194,681.5313 42.4163,681.5313 Q39.9163,681.5313 38.5881,679.8906 Q37.2756,678.2344 37.2756,675.1094 Q37.2756,671.9844 38.5881,670.3281 Q39.9163,668.6719 42.4163,668.6719 Q43.1194,668.6719 43.76,668.8281 Q44.4163,668.9844 44.9788,669.2813 L44.9788,672 Q44.3538,671.4219 43.76,671.1563 Q43.1663,670.875 42.5413,670.875 Q41.1975,670.875 40.51,671.9531 Q39.8225,673.0156 39.8225,675.1094 Q39.8225,677.2031 40.51,678.2813 Q41.1975,679.3438 42.5413,679.3438 Q43.1663,679.3438 43.76,679.0781 Q44.3538,678.7969 44.9788,678.2188 L44.9788,680.9375 Z " fill="#000000"/><text fill="#000000" font-family="sans-serif" font-size="14" lengthAdjust="spacing" textLength="108.6094" x="56.01" y="680.1436">ReservaService</text><line style="stroke:#4F6B7A;stroke-width:0.5;" x1="28.01" x2="166.6194" y1="691.2969" y2="691.2969"/><line style="stroke:#4F6B7A;stroke-width:0.5;" x1="28.01" x2="166.6194" y1="699.2969" y2="699.2969"/></g><!--class UsuarioService--><g class="entity" data-qualified-name="Services.UsuarioService" data-source-line="19" id="ent0008"><rect fill="#D8F3DC" height="48" rx="5" ry="5" style="stroke:#4F6B7A;stroke-width:0.5;" width="136.9453" x="28.85" y="327.2969"/><ellipse cx="43.85" cy="343.2969" fill="#ADD1B2" rx="11" ry="11" style="stroke:#181818;stroke-width:1;"/><path d="M46.8188,348.9375 Q46.2406,349.2344 45.6,349.375 Q44.9594,349.5313 44.2563,349.5313 Q41.7563,349.5313 40.4281,347.8906 Q39.1156,346.2344 39.1156,343.1094 Q39.1156,339.9844 40.4281,338.3281 Q41.7563,336.6719 44.2563,336.6719 Q44.9594,336.6719 45.6,336.8281 Q46.2563,336.9844 46.8188,337.2813 L46.8188,340 Q46.1938,339.4219 45.6,339.1563 Q45.0063,338.875 44.3813,338.875 Q43.0375,338.875 42.35,339.9531 Q41.6625,341.0156 41.6625,343.1094 Q41.6625,345.2031 42.35,346.2813 Q43.0375,347.3438 44.3813,347.3438 Q45.0063,347.3438 45.6,347.0781 Q46.1938,346.7969 46.8188,346.2188 L46.8188,348.9375 Z " fill="#000000"/><text fill="#000000" font-family="sans-serif" font-size="14" lengthAdjust="spacing" textLength="104.9453" x="57.85" y="348.1436">UsuarioService</text><line style="stroke:#4F6B7A;stroke-width:0.5;" x1="29.85" x2="164.7953" y1="359.2969" y2="359.2969"/><line style="stroke:#4F6B7A;stroke-width:0.5;" x1="29.85" x2="164.7953" y1="367.2969" y2="367.2969"/></g><!--class CartaService--><g class="entity" data-qualified-name="Services.CartaService" data-source-line="20" id="ent0009"><rect fill="#D8F3DC" height="48" rx="5" ry="5" style="stroke:#4F6B7A;stroke-width:0.5;" width="121.9199" x="36.36" y="493.2969"/><ellipse cx="51.36" cy="509.2969" fill="#ADD1B2" rx="11" ry="11" style="stroke:#181818;stroke-width:1;"/><path d="M54.3288,514.9375 Q53.7506,515.2344 53.11,515.375 Q52.4694,515.5313 51.7663,515.5313 Q49.2663,515.5313 47.9381,513.8906 Q46.6256,512.2344 46.6256,509.1094 Q46.6256,505.9844 47.9381,504.3281 Q49.2663,502.6719 51.7663,502.6719 Q52.4694,502.6719 53.11,502.8281 Q53.7663,502.9844 54.3288,503.2813 L54.3288,506 Q53.7038,505.4219 53.11,505.1563 Q52.5163,504.875 51.8913,504.875 Q50.5475,504.875 49.86,505.9531 Q49.1725,507.0156 49.1725,509.1094 Q49.1725,511.2031 49.86,512.2813 Q50.5475,513.3438 51.8913,513.3438 Q52.5163,513.3438 53.11,513.0781 Q53.7038,512.7969 54.3288,512.2188 L54.3288,514.9375 Z " fill="#000000"/><text fill="#000000" font-family="sans-serif" font-size="14" lengthAdjust="spacing" textLength="89.9199" x="65.36" y="514.1436">CartaService</text><line style="stroke:#4F6B7A;stroke-width:0.5;" x1="37.36" x2="157.2799" y1="525.2969" y2="525.2969"/><line style="stroke:#4F6B7A;stroke-width:0.5;" x1="37.36" x2="157.2799" y1="533.2969" y2="533.2969"/></g><!--class SocketService--><g class="entity" data-qualified-name="Services.SocketService" data-source-line="21" id="ent0010"><rect fill="#D8F3DC" height="48" rx="5" ry="5" style="stroke:#4F6B7A;stroke-width:0.5;" width="131.1006" x="31.77" y="161.2969"/><ellipse cx="46.77" cy="177.2969" fill="#ADD1B2" rx="11" ry="11" style="stroke:#181818;stroke-width:1;"/><path d="M49.7388,182.9375 Q49.1606,183.2344 48.52,183.375 Q47.8794,183.5313 47.1763,183.5313 Q44.6763,183.5313 43.3481,181.8906 Q42.0356,180.2344 42.0356,177.1094 Q42.0356,173.9844 43.3481,172.3281 Q44.6763,170.6719 47.1763,170.6719 Q47.8794,170.6719 48.52,170.8281 Q49.1763,170.9844 49.7388,171.2813 L49.7388,174 Q49.1138,173.4219 48.52,173.1563 Q47.9263,172.875 47.3013,172.875 Q45.9575,172.875 45.27,173.9531 Q44.5825,175.0156 44.5825,177.1094 Q44.5825,179.2031 45.27,180.2813 Q45.9575,181.3438 47.3013,181.3438 Q47.9263,181.3438 48.52,181.0781 Q49.1138,180.7969 49.7388,180.2188 L49.7388,182.9375 Z " fill="#000000"/><text fill="#000000" font-family="sans-serif" font-size="14" lengthAdjust="spacing" textLength="99.1006" x="60.77" y="182.1436">SocketService</text><line style="stroke:#4F6B7A;stroke-width:0.5;" x1="32.77" x2="161.8706" y1="193.2969" y2="193.2969"/><line style="stroke:#4F6B7A;stroke-width:0.5;" x1="32.77" x2="161.8706" y1="201.2969" y2="201.2969"/></g><!--class AuditoriaService--><g class="entity" data-qualified-name="Services.AuditoriaService" data-source-line="22" id="ent0011"><rect fill="#D8F3DC" height="48" rx="5" ry="5" style="stroke:#4F6B7A;stroke-width:0.5;" width="147.2471" x="23.7" y="576.2969"/><ellipse cx="38.7" cy="592.2969" fill="#ADD1B2" rx="11" ry="11" style="stroke:#181818;stroke-width:1;"/><path d="M41.6688,597.9375 Q41.0906,598.2344 40.45,598.375 Q39.8094,598.5313 39.1063,598.5313 Q36.6063,598.5313 35.2781,596.8906 Q33.9656,595.2344 33.9656,592.1094 Q33.9656,588.9844 35.2781,587.3281 Q36.6063,585.6719 39.1063,585.6719 Q39.8094,585.6719 40.45,585.8281 Q41.1063,585.9844 41.6688,586.2813 L41.6688,589 Q41.0438,588.4219 40.45,588.1563 Q39.8563,587.875 39.2313,587.875 Q37.8875,587.875 37.2,588.9531 Q36.5125,590.0156 36.5125,592.1094 Q36.5125,594.2031 37.2,595.2813 Q37.8875,596.3438 39.2313,596.3438 Q39.8563,596.3438 40.45,596.0781 Q41.0438,595.7969 41.6688,595.2188 L41.6688,597.9375 Z " fill="#000000"/><text fill="#000000" font-family="sans-serif" font-size="14" lengthAdjust="spacing" textLength="115.2471" x="52.7" y="597.1436">AuditoriaService</text><line style="stroke:#4F6B7A;stroke-width:0.5;" x1="24.7" x2="169.9471" y1="608.2969" y2="608.2969"/><line style="stroke:#4F6B7A;stroke-width:0.5;" x1="24.7" x2="169.9471" y1="616.2969" y2="616.2969"/></g><!--class Usuario--><g class="entity" data-qualified-name="Models .Mongoose..Usuario" data-source-line="26" id="ent0013"><rect fill="#FFF3BF" height="48" rx="5" ry="5" style="stroke:#4F6B7A;stroke-width:0.5;" width="85.2041" x="420.24" y="452.2969"/><ellipse cx="435.24" cy="468.2969" fill="#ADD1B2" rx="11" ry="11" style="stroke:#181818;stroke-width:1;"/><path d="M438.2088,473.9375 Q437.6306,474.2344 436.99,474.375 Q436.3494,474.5312 435.6463,474.5312 Q433.1463,474.5312 431.8181,472.8906 Q430.5056,471.2344 430.5056,468.1094 Q430.5056,464.9844 431.8181,463.3281 Q433.1463,461.6719 435.6463,461.6719 Q436.3494,461.6719 436.99,461.8281 Q437.6463,461.9844 438.2088,462.2812 L438.2088,465 Q437.5838,464.4219 436.99,464.1562 Q436.3963,463.875 435.7713,463.875 Q434.4275,463.875 433.74,464.9531 Q433.0525,466.0156 433.0525,468.1094 Q433.0525,470.2031 433.74,471.2812 Q434.4275,472.3437 435.7713,472.3437 Q436.3963,472.3437 436.99,472.0781 Q437.5838,471.7969 438.2088,471.2187 L438.2088,473.9375 Z " fill="#000000"/><text fill="#000000" font-family="sans-serif" font-size="14" lengthAdjust="spacing" textLength="53.2041" x="449.24" y="473.1436">Usuario</text><line style="stroke:#4F6B7A;stroke-width:0.5;" x1="421.24" x2="504.4441" y1="484.2969" y2="484.2969"/><line style="stroke:#4F6B7A;stroke-width:0.5;" x1="421.24" x2="504.4441" y1="492.2969" y2="492.2969"/></g><!--class Mesa--><g class="entity" data-qualified-name="Models .Mongoose..Mesa" data-source-line="27" id="ent0014"><rect fill="#FFF3BF" height="48" rx="5" ry="5" style="stroke:#4F6B7A;stroke-width:0.5;" width="68.5654" x="428.56" y="618.2969"/><ellipse cx="443.56" cy="634.2969" fill="#ADD1B2" rx="11" ry="11" style="stroke:#181818;stroke-width:1;"/><path d="M446.5288,639.9375 Q445.9506,640.2344 445.31,640.375 Q444.6694,640.5313 443.9663,640.5313 Q441.4663,640.5313 440.1381,638.8906 Q438.8256,637.2344 438.8256,634.1094 Q438.8256,630.9844 440.1381,629.3281 Q441.4663,627.6719 443.9663,627.6719 Q444.6694,627.6719 445.31,627.8281 Q445.9663,627.9844 446.5288,628.2813 L446.5288,631 Q445.9038,630.4219 445.31,630.1563 Q444.7163,629.875 444.0913,629.875 Q442.7475,629.875 442.06,630.9531 Q441.3725,632.0156 441.3725,634.1094 Q441.3725,636.2031 442.06,637.2813 Q442.7475,638.3438 444.0913,638.3438 Q444.7163,638.3438 445.31,638.0781 Q445.9038,637.7969 446.5288,637.2188 L446.5288,639.9375 Z " fill="#000000"/><text fill="#000000" font-family="sans-serif" font-size="14" lengthAdjust="spacing" textLength="36.5654" x="457.56" y="639.1436">Mesa</text><line style="stroke:#4F6B7A;stroke-width:0.5;" x1="429.56" x2="496.1254" y1="650.2969" y2="650.2969"/><line style="stroke:#4F6B7A;stroke-width:0.5;" x1="429.56" x2="496.1254" y1="658.2969" y2="658.2969"/></g><!--class Comanda--><g class="entity" data-qualified-name="Models .Mongoose..Comanda" data-source-line="28" id="ent0015"><rect fill="#FFF3BF" height="48" rx="5" ry="5" style="stroke:#4F6B7A;stroke-width:0.5;" width="98.8965" x="413.4" y="742.2969"/><ellipse cx="428.4" cy="758.2969" fill="#ADD1B2" rx="11" ry="11" style="stroke:#181818;stroke-width:1;"/><path d="M431.3688,763.9375 Q430.7906,764.2344 430.15,764.375 Q429.5094,764.5313 428.8063,764.5313 Q426.3063,764.5313 424.9781,762.8906 Q423.6656,761.2344 423.6656,758.1094 Q423.6656,754.9844 424.9781,753.3281 Q426.3063,751.6719 428.8063,751.6719 Q429.5094,751.6719 430.15,751.8281 Q430.8063,751.9844 431.3688,752.2813 L431.3688,755 Q430.7438,754.4219 430.15,754.1563 Q429.5563,753.875 428.9313,753.875 Q427.5875,753.875 426.9,754.9531 Q426.2125,756.0156 426.2125,758.1094 Q426.2125,760.2031 426.9,761.2813 Q427.5875,762.3438 428.9313,762.3438 Q429.5563,762.3438 430.15,762.0781 Q430.7438,761.7969 431.3688,761.2188 L431.3688,763.9375 Z " fill="#000000"/><text fill="#000000" font-family="sans-serif" font-size="14" lengthAdjust="spacing" textLength="66.8965" x="442.4" y="763.1436">Comanda</text><line style="stroke:#4F6B7A;stroke-width:0.5;" x1="414.4" x2="511.2965" y1="774.2969" y2="774.2969"/><line style="stroke:#4F6B7A;stroke-width:0.5;" x1="414.4" x2="511.2965" y1="782.2969" y2="782.2969"/></g><!--class LineaComanda--><g class="entity" data-qualified-name="Models .Mongoose..LineaComanda" data-source-line="29" id="ent0016"><rect fill="#FFF3BF" height="48" rx="5" ry="5" style="stroke:#4F6B7A;stroke-width:0.5;" width="136.6514" x="572.29" y="742.2969"/><ellipse cx="587.29" cy="758.2969" fill="#ADD1B2" rx="11" ry="11" style="stroke:#181818;stroke-width:1;"/><path d="M590.2588,763.9375 Q589.6806,764.2344 589.04,764.375 Q588.3994,764.5313 587.6963,764.5313 Q585.1963,764.5313 583.8681,762.8906 Q582.5556,761.2344 582.5556,758.1094 Q582.5556,754.9844 583.8681,753.3281 Q585.1963,751.6719 587.6963,751.6719 Q588.3994,751.6719 589.04,751.8281 Q589.6963,751.9844 590.2588,752.2813 L590.2588,755 Q589.6338,754.4219 589.04,754.1563 Q588.4463,753.875 587.8213,753.875 Q586.4775,753.875 585.79,754.9531 Q585.1025,756.0156 585.1025,758.1094 Q585.1025,760.2031 585.79,761.2813 Q586.4775,762.3438 587.8213,762.3438 Q588.4463,762.3438 589.04,762.0781 Q589.6338,761.7969 590.2588,761.2188 L590.2588,763.9375 Z " fill="#000000"/><text fill="#000000" font-family="sans-serif" font-size="14" lengthAdjust="spacing" textLength="104.6514" x="601.29" y="763.1436">LineaComanda</text><line style="stroke:#4F6B7A;stroke-width:0.5;" x1="573.29" x2="707.9414" y1="774.2969" y2="774.2969"/><line style="stroke:#4F6B7A;stroke-width:0.5;" x1="573.29" x2="707.9414" y1="782.2969" y2="782.2969"/></g><!--class Plato--><g class="entity" data-qualified-name="Models .Mongoose..Plato" data-source-line="30" id="ent0017"><rect fill="#FFF3BF" height="48" rx="5" ry="5" style="stroke:#4F6B7A;stroke-width:0.5;" width="66.9658" x="259.53" y="410.2969"/><ellipse cx="274.53" cy="426.2969" fill="#ADD1B2" rx="11" ry="11" style="stroke:#181818;stroke-width:1;"/><path d="M277.4988,431.9375 Q276.9206,432.2344 276.28,432.375 Q275.6394,432.5312 274.9363,432.5312 Q272.4363,432.5312 271.1081,430.8906 Q269.7956,429.2344 269.7956,426.1094 Q269.7956,422.9844 271.1081,421.3281 Q272.4363,419.6719 274.9363,419.6719 Q275.6394,419.6719 276.28,419.8281 Q276.9363,419.9844 277.4988,420.2812 L277.4988,423 Q276.8738,422.4219 276.28,422.1562 Q275.6863,421.875 275.0613,421.875 Q273.7175,421.875 273.03,422.9531 Q272.3425,424.0156 272.3425,426.1094 Q272.3425,428.2031 273.03,429.2812 Q273.7175,430.3437 275.0613,430.3437 Q275.6863,430.3437 276.28,430.0781 Q276.8738,429.7969 277.4988,429.2187 L277.4988,431.9375 Z " fill="#000000"/><text fill="#000000" font-family="sans-serif" font-size="14" lengthAdjust="spacing" textLength="34.9658" x="288.53" y="431.1436">Plato</text><line style="stroke:#4F6B7A;stroke-width:0.5;" x1="260.53" x2="325.4958" y1="442.2969" y2="442.2969"/><line style="stroke:#4F6B7A;stroke-width:0.5;" x1="260.53" x2="325.4958" y1="450.2969" y2="450.2969"/></g><!--class TarifaMenu--><g class="entity" data-qualified-name="Models .Mongoose..TarifaMenu" data-source-line="31" id="ent0018"><rect fill="#FFF3BF" height="48" rx="5" ry="5" style="stroke:#4F6B7A;stroke-width:0.5;" width="110.7227" x="237.66" y="493.2969"/><ellipse cx="252.66" cy="509.2969" fill="#ADD1B2" rx="11" ry="11" style="stroke:#181818;stroke-width:1;"/><path d="M255.6288,514.9375 Q255.0506,515.2344 254.41,515.375 Q253.7694,515.5313 253.0663,515.5313 Q250.5663,515.5313 249.2381,513.8906 Q247.9256,512.2344 247.9256,509.1094 Q247.9256,505.9844 249.2381,504.3281 Q250.5663,502.6719 253.0663,502.6719 Q253.7694,502.6719 254.41,502.8281 Q255.0663,502.9844 255.6288,503.2813 L255.6288,506 Q255.0038,505.4219 254.41,505.1563 Q253.8163,504.875 253.1913,504.875 Q251.8475,504.875 251.16,505.9531 Q250.4725,507.0156 250.4725,509.1094 Q250.4725,511.2031 251.16,512.2813 Q251.8475,513.3438 253.1913,513.3438 Q253.8163,513.3438 254.41,513.0781 Q255.0038,512.7969 255.6288,512.2188 L255.6288,514.9375 Z " fill="#000000"/><text fill="#000000" font-family="sans-serif" font-size="14" lengthAdjust="spacing" textLength="78.7227" x="266.66" y="514.1436">TarifaMenu</text><line style="stroke:#4F6B7A;stroke-width:0.5;" x1="238.66" x2="347.3827" y1="525.2969" y2="525.2969"/><line style="stroke:#4F6B7A;stroke-width:0.5;" x1="238.66" x2="347.3827" y1="533.2969" y2="533.2969"/></g><!--class Ticket--><g class="entity" data-qualified-name="Models .Mongoose..Ticket" data-source-line="32" id="ent0019"><rect fill="#FFF3BF" height="48" rx="5" ry="5" style="stroke:#4F6B7A;stroke-width:0.5;" width="74.3486" x="255.84" y="742.2969"/><ellipse cx="270.84" cy="758.2969" fill="#ADD1B2" rx="11" ry="11" style="stroke:#181818;stroke-width:1;"/><path d="M273.8088,763.9375 Q273.2306,764.2344 272.59,764.375 Q271.9494,764.5313 271.2463,764.5313 Q268.7463,764.5313 267.4181,762.8906 Q266.1056,761.2344 266.1056,758.1094 Q266.1056,754.9844 267.4181,753.3281 Q268.7463,751.6719 271.2463,751.6719 Q271.9494,751.6719 272.59,751.8281 Q273.2463,751.9844 273.8088,752.2813 L273.8088,755 Q273.1838,754.4219 272.59,754.1563 Q271.9963,753.875 271.3713,753.875 Q270.0275,753.875 269.34,754.9531 Q268.6525,756.0156 268.6525,758.1094 Q268.6525,760.2031 269.34,761.2813 Q270.0275,762.3438 271.3713,762.3438 Q271.9963,762.3438 272.59,762.0781 Q273.1838,761.7969 273.8088,761.2188 L273.8088,763.9375 Z " fill="#000000"/><text fill="#000000" font-family="sans-serif" font-size="14" lengthAdjust="spacing" textLength="42.3486" x="284.84" y="763.1436">Ticket</text><line style="stroke:#4F6B7A;stroke-width:0.5;" x1="256.84" x2="329.1886" y1="774.2969" y2="774.2969"/><line style="stroke:#4F6B7A;stroke-width:0.5;" x1="256.84" x2="329.1886" y1="782.2969" y2="782.2969"/></g><!--class Reserva--><g class="entity" data-qualified-name="Models .Mongoose..Reserva" data-source-line="33" id="ent0020"><rect fill="#FFF3BF" height="48" rx="5" ry="5" style="stroke:#4F6B7A;stroke-width:0.5;" width="88.8682" x="248.58" y="659.2969"/><ellipse cx="263.58" cy="675.2969" fill="#ADD1B2" rx="11" ry="11" style="stroke:#181818;stroke-width:1;"/><path d="M266.5488,680.9375 Q265.9706,681.2344 265.33,681.375 Q264.6894,681.5313 263.9863,681.5313 Q261.4863,681.5313 260.1581,679.8906 Q258.8456,678.2344 258.8456,675.1094 Q258.8456,671.9844 260.1581,670.3281 Q261.4863,668.6719 263.9863,668.6719 Q264.6894,668.6719 265.33,668.8281 Q265.9863,668.9844 266.5488,669.2813 L266.5488,672 Q265.9238,671.4219 265.33,671.1563 Q264.7363,670.875 264.1113,670.875 Q262.7675,670.875 262.08,671.9531 Q261.3925,673.0156 261.3925,675.1094 Q261.3925,677.2031 262.08,678.2813 Q262.7675,679.3438 264.1113,679.3438 Q264.7363,679.3438 265.33,679.0781 Q265.9238,678.7969 266.5488,678.2188 L266.5488,680.9375 Z " fill="#000000"/><text fill="#000000" font-family="sans-serif" font-size="14" lengthAdjust="spacing" textLength="56.8682" x="277.58" y="680.1436">Reserva</text><line style="stroke:#4F6B7A;stroke-width:0.5;" x1="249.58" x2="336.4482" y1="691.2969" y2="691.2969"/><line style="stroke:#4F6B7A;stroke-width:0.5;" x1="249.58" x2="336.4482" y1="699.2969" y2="699.2969"/></g><!--class LogAuditoria--><g class="entity" data-qualified-name="Models .Mongoose..LogAuditoria" data-source-line="34" id="ent0021"><rect fill="#FFF3BF" height="48" rx="5" ry="5" style="stroke:#4F6B7A;stroke-width:0.5;" width="120.7578" x="232.64" y="576.2969"/><ellipse cx="247.64" cy="592.2969" fill="#ADD1B2" rx="11" ry="11" style="stroke:#181818;stroke-width:1;"/><path d="M250.6088,597.9375 Q250.0306,598.2344 249.39,598.375 Q248.7494,598.5313 248.0463,598.5313 Q245.5463,598.5313 244.2181,596.8906 Q242.9056,595.2344 242.9056,592.1094 Q242.9056,588.9844 244.2181,587.3281 Q245.5463,585.6719 248.0463,585.6719 Q248.7494,585.6719 249.39,585.8281 Q250.0463,585.9844 250.6088,586.2813 L250.6088,589 Q249.9838,588.4219 249.39,588.1563 Q248.7963,587.875 248.1713,587.875 Q246.8275,587.875 246.14,588.9531 Q245.4525,590.0156 245.4525,592.1094 Q245.4525,594.2031 246.14,595.2813 Q246.8275,596.3438 248.1713,596.3438 Q248.7963,596.3438 249.39,596.0781 Q249.9838,595.7969 250.6088,595.2188 L250.6088,597.9375 Z " fill="#000000"/><text fill="#000000" font-family="sans-serif" font-size="14" lengthAdjust="spacing" textLength="88.7578" x="261.64" y="597.1436">LogAuditoria</text><line style="stroke:#4F6B7A;stroke-width:0.5;" x1="233.64" x2="352.3978" y1="608.2969" y2="608.2969"/><line style="stroke:#4F6B7A;stroke-width:0.5;" x1="233.64" x2="352.3978" y1="616.2969" y2="616.2969"/></g><!--class Zona--><g class="entity" data-qualified-name="Models .Mongoose..Zona" data-source-line="35" id="ent0022"><rect fill="#FFF3BF" height="48" rx="5" ry="5" style="stroke:#4F6B7A;stroke-width:0.5;" width="67.6084" x="606.81" y="494.2969"/><ellipse cx="621.81" cy="510.2969" fill="#ADD1B2" rx="11" ry="11" style="stroke:#181818;stroke-width:1;"/><path d="M624.7788,515.9375 Q624.2006,516.2344 623.56,516.375 Q622.9194,516.5313 622.2163,516.5313 Q619.7163,516.5313 618.3881,514.8906 Q617.0756,513.2344 617.0756,510.1094 Q617.0756,506.9844 618.3881,505.3281 Q619.7163,503.6719 622.2163,503.6719 Q622.9194,503.6719 623.56,503.8281 Q624.2163,503.9844 624.7788,504.2813 L624.7788,507 Q624.1538,506.4219 623.56,506.1563 Q622.9663,505.875 622.3413,505.875 Q620.9975,505.875 620.31,506.9531 Q619.6225,508.0156 619.6225,510.1094 Q619.6225,512.2031 620.31,513.2813 Q620.9975,514.3438 622.3413,514.3438 Q622.9663,514.3438 623.56,514.0781 Q624.1538,513.7969 624.7788,513.2188 L624.7788,515.9375 Z " fill="#000000"/><text fill="#000000" font-family="sans-serif" font-size="14" lengthAdjust="spacing" textLength="35.6084" x="635.81" y="515.1436">Zona</text><line style="stroke:#4F6B7A;stroke-width:0.5;" x1="607.81" x2="673.4184" y1="526.2969" y2="526.2969"/><line style="stroke:#4F6B7A;stroke-width:0.5;" x1="607.81" x2="673.4184" y1="534.2969" y2="534.2969"/></g><!--link AuthService to Usuario--><g class="link" data-entity-1="ent0003" data-entity-2="ent0013" data-link-type="dependency" data-source-line="39" id="lnk23"><path codeLine="39" d="M155.87,123.5069 C169.54,129.3069 183.86,136.0169 196.64,143.2969 C272.16,186.3569 297.56,193.6669 353.4,260.2969 C404.2,320.9269 437.0015,403.7125 451.8215,446.1425" fill="none" id="AuthService-to-Usuario" style="stroke:#808080;stroke-width:1;"/><polygon fill="#808080" points="453.8,451.8069,454.6086,441.9913,452.1513,447.0865,447.056,444.6292,453.8,451.8069" style="stroke:#808080;stroke-width:1;"/></g><!--link MesaService to Mesa--><g class="link" data-entity-1="ent0004" data-entity-2="ent0014" data-link-type="dependency" data-source-line="40" id="lnk24"><path codeLine="40" d="M157.76,274.2369 C214.91,282.9569 300.22,304.3069 353.4,356.2969 C408.29,409.9769 386.09,446.5369 413.4,518.2969 C426.63,553.0769 440.1729,587.5776 450.0429,612.5276" fill="none" id="MesaService-to-Mesa" style="stroke:#808080;stroke-width:1;"/><polygon fill="#808080" points="452.25,618.1069,452.6589,608.2665,450.4107,613.4575,445.2198,611.2093,452.25,618.1069" style="stroke:#808080;stroke-width:1;"/></g><!--link MesaService to Zona--><g class="link" data-entity-1="ent0004" data-entity-2="ent0022" data-link-type="dependency" data-source-line="41" id="lnk25"><path codeLine="41" d="M157.76,265.5069 C210.93,265.0969 290.01,269.7069 353.4,295.2969 C467.01,341.1569 569.1108,441.6661 613.5808,489.4161" fill="none" id="MesaService-to-Zona" style="stroke:#808080;stroke-width:1;"/><polygon fill="#808080" points="617.67,493.8069,614.4634,484.4946,614.2624,490.1479,608.6091,489.9468,617.67,493.8069" style="stroke:#808080;stroke-width:1;"/></g><!--link ComandaService to Comanda--><g class="link" data-entity-1="ent0005" data-entity-2="ent0015" data-link-type="dependency" data-source-line="42" id="lnk26"><path codeLine="42" d="M150.78,409.8669 C168.73,402.7269 189.19,395.8769 208.64,392.2969 C271.91,380.6569 303.53,351.6369 353.4,392.2969 C456.08,476.0269 365.71,560.6869 413.4,684.2969 C421.31,704.8169 430.7665,721.1448 441.2065,736.9048" fill="none" id="ComandaService-to-Comanda" style="stroke:#808080;stroke-width:1;"/><polygon fill="#808080" points="444.52,741.9069,442.8844,732.1948,441.7587,737.7385,436.215,736.6128,444.52,741.9069" style="stroke:#808080;stroke-width:1;"/></g><!--link ComandaService to LineaComanda--><g class="link" data-entity-1="ent0005" data-entity-2="ent0016" data-link-type="dependency" data-source-line="43" id="lnk27"><path codeLine="43" d="M172.82,454.1169 C182.14,459.5569 190.53,466.4769 196.64,475.2969 C217.72,505.7269 181.99,782.5969 208.64,808.2969 C313.34,909.2869 500.6004,836.2537 588.4304,793.2837" fill="none" id="ComandaService-to-LineaComanda" style="stroke:#808080;stroke-width:1;"/><polygon fill="#808080" points="593.82,790.6469,583.9778,791.009,589.3287,792.8442,587.4935,798.1951,593.82,790.6469" style="stroke:#808080;stroke-width:1;"/></g><!--link ComandaService to Plato--><g class="link" data-entity-1="ent0005" data-entity-2="ent0017" data-link-type="dependency" data-source-line="44" id="lnk28"><path codeLine="44" d="M172.93,434.2969 C202.77,434.2969 229.59,434.2969 253.2,434.2969" fill="none" id="ComandaService-to-Plato" style="stroke:#808080;stroke-width:1;"/><polygon fill="#808080" points="259.2,434.2969,250.2,430.2969,254.2,434.2969,250.2,438.2969,259.2,434.2969" style="stroke:#808080;stroke-width:1;"/></g><!--link ComandaService to TarifaMenu--><g class="link" data-entity-1="ent0005" data-entity-2="ent0018" data-link-type="dependency" data-source-line="45" id="lnk29"><path codeLine="45" d="M157.41,458.7169 C170.35,464.1269 183.97,469.8669 196.64,475.2969 C209.86,480.9669 218.5793,484.7377 231.8793,490.5977" fill="none" id="ComandaService-to-TarifaMenu" style="stroke:#808080;stroke-width:1;"/><polygon fill="#808080" points="237.37,493.0169,230.7468,485.7276,232.7944,491.0009,227.5212,493.0485,237.37,493.0169" style="stroke:#808080;stroke-width:1;"/></g><!--link TicketService to Ticket--><g class="link" data-entity-1="ent0006" data-entity-2="ent0019" data-link-type="dependency" data-source-line="46" id="lnk30"><path codeLine="46" d="M160.67,766.2969 C191.97,766.2969 222.8,766.2969 249.48,766.2969" fill="none" id="TicketService-to-Ticket" style="stroke:#808080;stroke-width:1;"/><polygon fill="#808080" points="255.48,766.2969,246.48,762.2969,250.48,766.2969,246.48,770.2969,255.48,766.2969" style="stroke:#808080;stroke-width:1;"/></g><!--link TicketService to Comanda--><g class="link" data-entity-1="ent0006" data-entity-2="ent0015" data-link-type="dependency" data-source-line="47" id="lnk31"><path codeLine="47" d="M115.33,790.5369 C134.63,815.6969 168.66,853.5369 208.64,869.2969 C268.49,892.8969 293.64,893.1469 353.4,869.2969 C392.95,853.5069 422.7266,820.4744 441.6166,795.3244" fill="none" id="TicketService-to-Comanda" style="stroke:#808080;stroke-width:1;"/><polygon fill="#808080" points="445.22,790.5269,436.6166,795.3209,442.2172,794.5248,443.0133,800.1253,445.22,790.5269" style="stroke:#808080;stroke-width:1;"/></g><!--link ReservaService to Reserva--><g class="link" data-entity-1="ent0007" data-entity-2="ent0020" data-link-type="dependency" data-source-line="48" id="lnk32"><path codeLine="48" d="M167.97,683.2969 C194.76,683.2969 218.57,683.2969 242.26,683.2969" fill="none" id="ReservaService-to-Reserva" style="stroke:#808080;stroke-width:1;"/><polygon fill="#808080" points="248.26,683.2969,239.26,679.2969,243.26,683.2969,239.26,687.2969,248.26,683.2969" style="stroke:#808080;stroke-width:1;"/></g><!--link ReservaService to Mesa--><g class="link" data-entity-1="ent0007" data-entity-2="ent0014" data-link-type="dependency" data-source-line="49" id="lnk33"><path codeLine="49" d="M168.05,701.5769 C179.01,707.2469 189.17,714.6469 196.64,724.2969 C219.72,754.1169 180.15,783.5869 208.64,808.2969 C257.24,850.4469 296.81,838.9169 353.4,808.2969 C367.93,800.4369 418.6229,716.1614 444.5829,671.9314" fill="none" id="ReservaService-to-Mesa" style="stroke:#808080;stroke-width:1;"/><polygon fill="#808080" points="447.62,666.7569,439.6146,672.494,445.0891,671.069,446.514,676.5434,447.62,666.7569" style="stroke:#808080;stroke-width:1;"/></g><!--link CartaService to Plato--><g class="link" data-entity-1="ent0009" data-entity-2="ent0017" data-link-type="dependency" data-source-line="50" id="lnk34"><path codeLine="50" d="M157.41,492.8769 C170.35,487.4669 183.97,481.7269 196.64,476.2969 C217.59,467.3169 235.5352,459.4293 253.9352,451.2693" fill="none" id="CartaService-to-Plato" style="stroke:#808080;stroke-width:1;"/><polygon fill="#808080" points="259.42,448.8369,249.5711,448.8289,254.8493,450.8639,252.8144,456.142,259.42,448.8369" style="stroke:#808080;stroke-width:1;"/></g><!--link CartaService to TarifaMenu--><g class="link" data-entity-1="ent0009" data-entity-2="ent0018" data-link-type="dependency" data-source-line="51" id="lnk35"><path codeLine="51" d="M158.54,517.2969 C183.75,517.2969 206.85,517.2969 231.42,517.2969" fill="none" id="CartaService-to-TarifaMenu" style="stroke:#808080;stroke-width:1;"/><polygon fill="#808080" points="237.42,517.2969,228.42,513.2969,232.42,517.2969,228.42,521.2969,237.42,517.2969" style="stroke:#808080;stroke-width:1;"/></g><!--link AuditoriaService to LogAuditoria--><g class="link" data-entity-1="ent0011" data-entity-2="ent0021" data-link-type="dependency" data-source-line="52" id="lnk36"><path codeLine="52" d="M171.27,600.2969 C191.43,600.2969 207.07,600.2969 226.38,600.2969" fill="none" id="AuditoriaService-to-LogAuditoria" style="stroke:#808080;stroke-width:1;"/><polygon fill="#808080" points="232.38,600.2969,223.38,596.2969,227.38,600.2969,223.38,604.2969,232.38,600.2969" style="stroke:#808080;stroke-width:1;"/></g><!--link Mesa to Zona--><g class="link" data-entity-1="ent0014" data-entity-2="ent0022" data-link-type="association" data-source-line="55" id="lnk37"><path codeLine="55" d="M497.32,618.6769 C528.7,596.5469 575.33,563.6469 606.56,541.6169" fill="none" id="Mesa-Zona" style="stroke:#808080;stroke-width:1;"/><text fill="#000000" font-family="sans-serif" font-size="13" lengthAdjust="spacing" textLength="8.271" x="505.2839" y="627.4327">1</text><text fill="#000000" font-family="sans-serif" font-size="13" lengthAdjust="spacing" textLength="23.0356" x="575.7334" y="558.9924">0..*</text></g><!--reverse link Comanda to LineaComanda--><g class="link" data-entity-1="ent0015" data-entity-2="ent0016" data-link-type="composition" data-source-line="56" id="lnk38"><path codeLine="56" d="M524.34,766.2969 C542.73,766.2969 552.03,766.2969 571.87,766.2969" fill="none" id="Comanda-backto-LineaComanda" style="stroke:#808080;stroke-width:1;"/><polygon fill="#808080" points="512.34,766.2969,518.34,770.2969,524.34,766.2969,518.34,762.2969,512.34,766.2969" style="stroke:#808080;stroke-width:1;"/><text fill="#000000" font-family="sans-serif" font-size="13" lengthAdjust="spacing" textLength="8.271" x="520.2165" y="779.4751">1</text><text fill="#000000" font-family="sans-serif" font-size="13" lengthAdjust="spacing" textLength="23.0356" x="541.2233" y="779.0849">1..*</text></g><!--link Ticket to Comanda--><g class="link" data-entity-1="ent0019" data-entity-2="ent0015" data-link-type="dependency" data-source-line="57" id="lnk39"><path codeLine="57" d="M330.43,766.2969 C354.63,766.2969 380.68,766.2969 407.08,766.2969" fill="none" id="Ticket-to-Comanda" style="stroke:#808080;stroke-width:1;"/><polygon fill="#808080" points="413.08,766.2969,404.08,762.2969,408.08,766.2969,404.08,770.2969,413.08,766.2969" style="stroke:#808080;stroke-width:1;"/></g><!--link Reserva to Mesa--><g class="link" data-entity-1="ent0020" data-entity-2="ent0014" data-link-type="dependency" data-source-line="58" id="lnk40"><path codeLine="58" d="M337.67,672.6269 C365.94,665.7269 396.3515,658.301 422.3815,651.941" fill="none" id="Reserva-to-Mesa" style="stroke:#808080;stroke-width:1;"/><polygon fill="#808080" points="428.21,650.5169,418.5178,648.7673,423.3529,651.7036,420.4166,656.5387,428.21,650.5169" style="stroke:#808080;stroke-width:1;"/></g><!--link LogAuditoria to Usuario--><g class="link" data-entity-1="ent0021" data-entity-2="ent0013" data-link-type="dependency" data-source-line="59" id="lnk41"><path codeLine="59" d="M330.01,575.8569 C337.77,570.4769 345.9,564.7469 353.4,559.2969 C379.86,540.0569 404.5654,521.1225 426.0954,504.3625" fill="none" id="LogAuditoria-to-Usuario" style="stroke:#808080;stroke-width:1;"/><polygon fill="#808080" points="430.83,500.6769,421.2711,503.0489,426.8845,503.7482,426.1852,509.3617,430.83,500.6769" style="stroke:#808080;stroke-width:1;"/></g><?plantuml-src VPJTYjim48NlzHI3Sz5a8Kl2bdQl2ld1K6YWDDkRtirQYZD4qGH9xjAMFaoVfIzMMUlTo7_5D_RvF3FIqR4zUQrWIrXQF2D81OL6fnpCOQ_iTog87Vo07KkbsGcXrS63Px1K7Zr8ighmn4Qu4vaBXXwntgsyj_HOUVMnOBEddmeMoIlkY9AVo9HmGErKGYnNHXPiZRAmN8XkM_Wb0DPifR8RrcnXyZP_jtw_2khAMdvgnFj5VOdVGbomE66f87lUZ79PRF7SR5NvOwF3P7kVtsqthsod78wn3P_Ho57yGCL9-J7wHRb0Hek_kWejyUXej7wqTi__6xog97csr2jFROhdx62wOrCoEpLB_MhM1fCyp-_MUSkhdjYOrDC_aL4u1ZzhzFt-3s7g0NVAL7qKlUx9ZSdzuLo-sj23tzXSnM3Acz16O_W0JFWSBfPCGHVKuNxgw7pHTA029RgPI7CqdtzuyKca6Qhr-hadrbD59r6rtaX3ABLmY4SNXy3LID4EQOHH6G0laph9hL4Z3Q6usLPSawLrvMHXlPZ67IVdrZcOyCUIV2OJSZc50gqaWveaIdZy-yU58vf5oo5RPg4LP8lRsvkivNf4DpLRHjQojmdOW0_NNRPIbGJW7m00?></g></svg>