<svg xmlns="http://www.w3.org/2000/svg" xmlns:xlink="http://www.w3.org/1999/xlink" contentStyleType="text/css" data-diagram-type="CLASS" height="451px" preserveAspectRatio="none" style="width:951px;height:451px;background:#FFFFFF;" version="1.1" viewBox="0 0 951 451" width="951px" zoomAndPan="magnify"><?plantuml 1.2026.3beta6?><defs/><g><g class="title" data-source-line="1"><text fill="#000000" font-family="sans-serif" font-size="14" font-weight="700" lengthAdjust="spacing" textLength="186.1836" x="379.2476" y="22.9951">CU-08 - Editar comanda</text></g><!--cluster Vista--><g class="cluster" data-qualified-name="Vista" data-source-line="3" id="ent0002"><path d="M26.5,43.2969 L67.6064,43.2969 A3.75,3.75 0 0 1 70.1064,45.7969 L77.1064,65.5938 L185.5,65.5938 A2.5,2.5 0 0 1 188,68.0938 L188,139.7969 A2.5,2.5 0 0 1 185.5,142.2969 L26.5,142.2969 A2.5,2.5 0 0 1 24,139.7969 L24,45.7969 A2.5,2.5 0 0 1 26.5,43.2969" fill="none" style="stroke:#000000;stroke-width:1.5;"/><line style="stroke:#000000;stroke-width:1.5;" x1="24" x2="77.1064" y1="65.5938" y2="65.5938"/><text fill="#000000" font-family="sans-serif" font-size="14" font-weight="700" lengthAdjust="spacing" textLength="40.1064" x="28" y="58.292">Vista</text></g><!--cluster Controladores--><g class="cluster" data-qualified-name="Controladores" data-source-line="7" id="ent0004"><path d="M8.5,191.2969 L121.1924,191.2969 A3.75,3.75 0 0 1 123.6924,193.7969 L130.6924,213.5938 L203.5,213.5938 A2.5,2.5 0 0 1 206,216.0938 L206,433.7969 A2.5,2.5 0 0 1 203.5,436.2969 L8.5,436.2969 A2.5,2.5 0 0 1 6,433.7969 L6,193.7969 A2.5,2.5 0 0 1 8.5,191.2969" fill="none" style="stroke:#000000;stroke-width:1.5;"/><line style="stroke:#000000;stroke-width:1.5;" x1="6" x2="130.6924" y1="213.5938" y2="213.5938"/><text fill="#000000" font-family="sans-serif" font-size="14" font-weight="700" lengthAdjust="spacing" textLength="111.6924" x="10" y="206.292">Controladores</text></g><!--cluster Modelos--><g class="cluster" data-qualified-name="Modelos" data-source-line="12" id="ent0007"><path d="M241.5,337.2969 L308.3164,337.2969 A3.75,3.75 0 0 1 310.8164,339.7969 L317.8164,359.5938 L900.5,359.5938 A2.5,2.5 0 0 1 903,362.0938 L903,433.7969 A2.5,2.5 0 0 1 900.5,436.2969 L241.5,436.2969 A2.5,2.5 0 0 1 239,433.7969 L239,339.7969 A2.5,2.5 0 0 1 241.5,337.2969" fill="none" style="stroke:#000000;stroke-width:1.5;"/><line style="stroke:#000000;stroke-width:1.5;" x1="239" x2="317.8164" y1="359.5938" y2="359.5938"/><text fill="#000000" font-family="sans-serif" font-size="14" font-weight="700" lengthAdjust="spacing" textLength="65.8164" x="243" y="352.292">Modelos</text></g><!--class ComandaView--><g class="entity" data-qualified-name="Vista.ComandaView" data-source-line="4" id="ent0003"><rect fill="#F1F1F1" height="48" rx="2.5" ry="2.5" style="stroke:#181818;stroke-width:0.5;" width="132.4268" x="39.79" y="78.2969"/><ellipse cx="54.79" cy="94.2969" fill="#ADD1B2" rx="11" ry="11" style="stroke:#181818;stroke-width:1;"/><path d="M57.7588,99.9375 Q57.1806,100.2344 56.54,100.375 Q55.8994,100.5313 55.1963,100.5313 Q52.6963,100.5313 51.3681,98.8906 Q50.0556,97.2344 50.0556,94.1094 Q50.0556,90.9844 51.3681,89.3281 Q52.6963,87.6719 55.1963,87.6719 Q55.8994,87.6719 56.54,87.8281 Q57.1963,87.9844 57.7588,88.2813 L57.7588,91 Q57.1338,90.4219 56.54,90.1563 Q55.9463,89.875 55.3213,89.875 Q53.9775,89.875 53.29,90.9531 Q52.6025,92.0156 52.6025,94.1094 Q52.6025,96.2031 53.29,97.2813 Q53.9775,98.3438 55.3213,98.3438 Q55.9463,98.3438 56.54,98.0781 Q57.1338,97.7969 57.7588,97.2188 L57.7588,99.9375 Z " fill="#000000"/><text fill="#000000" font-family="sans-serif" font-size="14" lengthAdjust="spacing" textLength="100.4268" x="68.79" y="99.1436">ComandaView</text><line style="stroke:#181818;stroke-width:0.5;" x1="40.79" x2="171.2168" y1="110.2969" y2="110.2969"/><line style="stroke:#181818;stroke-width:0.5;" x1="40.79" x2="171.2168" y1="118.2969" y2="118.2969"/></g><!--class ComandaController--><g class="entity" data-qualified-name="Controladores.ComandaController" data-source-line="8" id="ent0005"><rect fill="#F1F1F1" height="48" rx="2.5" ry="2.5" style="stroke:#181818;stroke-width:0.5;" width="168.0693" x="21.97" y="226.2969"/><ellipse cx="36.97" cy="242.2969" fill="#ADD1B2" rx="11" ry="11" style="stroke:#181818;stroke-width:1;"/><path d="M39.9388,247.9375 Q39.3606,248.2344 38.72,248.375 Q38.0794,248.5313 37.3763,248.5313 Q34.8763,248.5313 33.5481,246.8906 Q32.2356,245.2344 32.2356,242.1094 Q32.2356,238.9844 33.5481,237.3281 Q34.8763,235.6719 37.3763,235.6719 Q38.0794,235.6719 38.72,235.8281 Q39.3763,235.9844 39.9388,236.2813 L39.9388,239 Q39.3138,238.4219 38.72,238.1563 Q38.1263,237.875 37.5013,237.875 Q36.1575,237.875 35.47,238.9531 Q34.7825,240.0156 34.7825,242.1094 Q34.7825,244.2031 35.47,245.2813 Q36.1575,246.3438 37.5013,246.3438 Q38.1263,246.3438 38.72,246.0781 Q39.3138,245.7969 39.9388,245.2188 L39.9388,247.9375 Z " fill="#000000"/><text fill="#000000" font-family="sans-serif" font-size="14" lengthAdjust="spacing" textLength="136.0693" x="50.97" y="247.1436">ComandaController</text><line style="stroke:#181818;stroke-width:0.5;" x1="22.97" x2="189.0393" y1="258.2969" y2="258.2969"/><line style="stroke:#181818;stroke-width:0.5;" x1="22.97" x2="189.0393" y1="266.2969" y2="266.2969"/></g><!--class KDSController--><g class="entity" data-qualified-name="Controladores.KDSController" data-source-line="9" id="ent0006"><rect fill="#F1F1F1" height="48" rx="2.5" ry="2.5" style="stroke:#181818;stroke-width:0.5;" width="130.0205" x="21.99" y="372.2969"/><ellipse cx="36.99" cy="388.2969" fill="#ADD1B2" rx="11" ry="11" style="stroke:#181818;stroke-width:1;"/><path d="M39.9587,393.9375 Q39.3806,394.2344 38.74,394.375 Q38.0994,394.5313 37.3962,394.5313 Q34.8962,394.5313 33.5681,392.8906 Q32.2556,391.2344 32.2556,388.1094 Q32.2556,384.9844 33.5681,383.3281 Q34.8962,381.6719 37.3962,381.6719 Q38.0994,381.6719 38.74,381.8281 Q39.3962,381.9844 39.9587,382.2813 L39.9587,385 Q39.3337,384.4219 38.74,384.1563 Q38.1462,383.875 37.5212,383.875 Q36.1775,383.875 35.49,384.9531 Q34.8025,386.0156 34.8025,388.1094 Q34.8025,390.2031 35.49,391.2813 Q36.1775,392.3438 37.5212,392.3438 Q38.1462,392.3438 38.74,392.0781 Q39.3337,391.7969 39.9587,391.2188 L39.9587,393.9375 Z " fill="#000000"/><text fill="#000000" font-family="sans-serif" font-size="14" lengthAdjust="spacing" textLength="98.0205" x="50.99" y="393.1436">KDSController</text><line style="stroke:#181818;stroke-width:0.5;" x1="22.99" x2="151.0105" y1="404.2969" y2="404.2969"/><line style="stroke:#181818;stroke-width:0.5;" x1="22.99" x2="151.0105" y1="412.2969" y2="412.2969"/></g><!--class Mesa--><g class="entity" data-qualified-name="Modelos.Mesa" data-source-line="13" id="ent0008"><rect fill="#F1F1F1" height="48" rx="2.5" ry="2.5" style="stroke:#181818;stroke-width:0.5;" width="68.5654" x="254.72" y="372.2969"/><ellipse cx="269.72" cy="388.2969" fill="#ADD1B2" rx="11" ry="11" style="stroke:#181818;stroke-width:1;"/><path d="M272.6888,393.9375 Q272.1106,394.2344 271.47,394.375 Q270.8294,394.5313 270.1263,394.5313 Q267.6263,394.5313 266.2981,392.8906 Q264.9856,391.2344 264.9856,388.1094 Q264.9856,384.9844 266.2981,383.3281 Q267.6263,381.6719 270.1263,381.6719 Q270.8294,381.6719 271.47,381.8281 Q272.1263,381.9844 272.6888,382.2813 L272.6888,385 Q272.0638,384.4219 271.47,384.1563 Q270.8763,383.875 270.2513,383.875 Q268.9075,383.875 268.22,384.9531 Q267.5325,386.0156 267.5325,388.1094 Q267.5325,390.2031 268.22,391.2813 Q268.9075,392.3438 270.2513,392.3438 Q270.8763,392.3438 271.47,392.0781 Q272.0638,391.7969 272.6888,391.2188 L272.6888,393.9375 Z " fill="#000000"/><text fill="#000000" font-family="sans-serif" font-size="14" lengthAdjust="spacing" textLength="36.5654" x="283.72" y="393.1436">Mesa</text><line style="stroke:#181818;stroke-width:0.5;" x1="255.72" x2="322.2854" y1="404.2969" y2="404.2969"/><line style="stroke:#181818;stroke-width:0.5;" x1="255.72" x2="322.2854" y1="412.2969" y2="412.2969"/></g><!--class Comanda--><g class="entity" data-qualified-name="Modelos.Comanda" data-source-line="14" id="ent0009"><rect fill="#F1F1F1" height="48" rx="2.5" ry="2.5" style="stroke:#181818;stroke-width:0.5;" width="98.8965" x="358.55" y="372.2969"/><ellipse cx="373.55" cy="388.2969" fill="#ADD1B2" rx="11" ry="11" style="stroke:#181818;stroke-width:1;"/><path d="M376.5188,393.9375 Q375.9406,394.2344 375.3,394.375 Q374.6594,394.5313 373.9563,394.5313 Q371.4563,394.5313 370.1281,392.8906 Q368.8156,391.2344 368.8156,388.1094 Q368.8156,384.9844 370.1281,383.3281 Q371.4563,381.6719 373.9563,381.6719 Q374.6594,381.6719 375.3,381.8281 Q375.9563,381.9844 376.5188,382.2813 L376.5188,385 Q375.8938,384.4219 375.3,384.1563 Q374.7063,383.875 374.0813,383.875 Q372.7375,383.875 372.05,384.9531 Q371.3625,386.0156 371.3625,388.1094 Q371.3625,390.2031 372.05,391.2813 Q372.7375,392.3438 374.0813,392.3438 Q374.7063,392.3438 375.3,392.0781 Q375.8938,391.7969 376.5188,391.2188 L376.5188,393.9375 Z " fill="#000000"/><text fill="#000000" font-family="sans-serif" font-size="14" lengthAdjust="spacing" textLength="66.8965" x="387.55" y="393.1436">Comanda</text><line style="stroke:#181818;stroke-width:0.5;" x1="359.55" x2="456.4465" y1="404.2969" y2="404.2969"/><line style="stroke:#181818;stroke-width:0.5;" x1="359.55" x2="456.4465" y1="412.2969" y2="412.2969"/></g><!--class LineaComanda--><g class="entity" data-qualified-name="Modelos.LineaComanda" data-source-line="15" id="ent0010"><rect fill="#F1F1F1" height="48" rx="2.5" ry="2.5" style="stroke:#181818;stroke-width:0.5;" width="136.6514" x="492.67" y="372.2969"/><ellipse cx="507.67" cy="388.2969" fill="#ADD1B2" rx="11" ry="11" style="stroke:#181818;stroke-width:1;"/><path d="M510.6388,393.9375 Q510.0606,394.2344 509.42,394.375 Q508.7794,394.5313 508.0763,394.5313 Q505.5763,394.5313 504.2481,392.8906 Q502.9356,391.2344 502.9356,388.1094 Q502.9356,384.9844 504.2481,383.3281 Q505.5763,381.6719 508.0763,381.6719 Q508.7794,381.6719 509.42,381.8281 Q510.0763,381.9844 510.6388,382.2813 L510.6388,385 Q510.0138,384.4219 509.42,384.1563 Q508.8263,383.875 508.2013,383.875 Q506.8575,383.875 506.17,384.9531 Q505.4825,386.0156 505.4825,388.1094 Q505.4825,390.2031 506.17,391.2813 Q506.8575,392.3438 508.2013,392.3438 Q508.8263,392.3438 509.42,392.0781 Q510.0138,391.7969 510.6388,391.2188 L510.6388,393.9375 Z " fill="#000000"/><text fill="#000000" font-family="sans-serif" font-size="14" lengthAdjust="spacing" textLength="104.6514" x="521.67" y="393.1436">LineaComanda</text><line style="stroke:#181818;stroke-width:0.5;" x1="493.67" x2="628.3214" y1="404.2969" y2="404.2969"/><line style="stroke:#181818;stroke-width:0.5;" x1="493.67" x2="628.3214" y1="412.2969" y2="412.2969"/></g><!--class Plato--><g class="entity" data-qualified-name="Modelos.Plato" data-source-line="16" id="ent0011"><rect fill="#F1F1F1" height="48" rx="2.5" ry="2.5" style="stroke:#181818;stroke-width:0.5;" width="66.9658" x="664.52" y="372.2969"/><ellipse cx="679.52" cy="388.2969" fill="#ADD1B2" rx="11" ry="11" style="stroke:#181818;stroke-width:1;"/><path d="M682.4888,393.9375 Q681.9106,394.2344 681.27,394.375 Q680.6294,394.5313 679.9263,394.5313 Q677.4263,394.5313 676.0981,392.8906 Q674.7856,391.2344 674.7856,388.1094 Q674.7856,384.9844 676.0981,383.3281 Q677.4263,381.6719 679.9263,381.6719 Q680.6294,381.6719 681.27,381.8281 Q681.9263,381.9844 682.4888,382.2813 L682.4888,385 Q681.8638,384.4219 681.27,384.1563 Q680.6763,383.875 680.0513,383.875 Q678.7075,383.875 678.02,384.9531 Q677.3325,386.0156 677.3325,388.1094 Q677.3325,390.2031 678.02,391.2813 Q678.7075,392.3438 680.0513,392.3438 Q680.6763,392.3438 681.27,392.0781 Q681.8638,391.7969 682.4888,391.2188 L682.4888,393.9375 Z " fill="#000000"/><text fill="#000000" font-family="sans-serif" font-size="14" lengthAdjust="spacing" textLength="34.9658" x="693.52" y="393.1436">Plato</text><line style="stroke:#181818;stroke-width:0.5;" x1="665.52" x2="730.4858" y1="404.2969" y2="404.2969"/><line style="stroke:#181818;stroke-width:0.5;" x1="665.52" x2="730.4858" y1="412.2969" y2="412.2969"/></g><!--class LogAuditoria--><g class="entity" data-qualified-name="Modelos.LogAuditoria" data-source-line="17" id="ent0012"><rect fill="#F1F1F1" height="48" rx="2.5" ry="2.5" style="stroke:#181818;stroke-width:0.5;" width="120.7578" x="766.62" y="372.2969"/><ellipse cx="781.62" cy="388.2969" fill="#ADD1B2" rx="11" ry="11" style="stroke:#181818;stroke-width:1;"/><path d="M784.5888,393.9375 Q784.0106,394.2344 783.37,394.375 Q782.7294,394.5313 782.0263,394.5313 Q779.5263,394.5313 778.1981,392.8906 Q776.8856,391.2344 776.8856,388.1094 Q776.8856,384.9844 778.1981,383.3281 Q779.5263,381.6719 782.0263,381.6719 Q782.7294,381.6719 783.37,381.8281 Q784.0263,381.9844 784.5888,382.2813 L784.5888,385 Q783.9638,384.4219 783.37,384.1563 Q782.7763,383.875 782.1513,383.875 Q780.8075,383.875 780.12,384.9531 Q779.4325,386.0156 779.4325,388.1094 Q779.4325,390.2031 780.12,391.2813 Q780.8075,392.3438 782.1513,392.3438 Q782.7763,392.3438 783.37,392.0781 Q783.9638,391.7969 784.5888,391.2188 L784.5888,393.9375 Z " fill="#000000"/><text fill="#000000" font-family="sans-serif" font-size="14" lengthAdjust="spacing" textLength="88.7578" x="795.62" y="393.1436">LogAuditoria</text><line style="stroke:#181818;stroke-width:0.5;" x1="767.62" x2="886.3778" y1="404.2969" y2="404.2969"/><line style="stroke:#181818;stroke-width:0.5;" x1="767.62" x2="886.3778" y1="412.2969" y2="412.2969"/></g><!--link ComandaView to ComandaController--><g class="link" data-entity-1="ent0003" data-entity-2="ent0005" data-link-type="dependency" data-source-line="20" id="lnk13"><path codeLine="20" d="M106,126.7569 C106,153.9969 106,192.6769 106,219.8969" fill="none" id="ComandaView-to-ComandaController" style="stroke:#181818;stroke-width:1;"/><polygon fill="#181818" points="106,225.8969,110,216.8969,106,220.8969,102,216.8969,106,225.8969" style="stroke:#181818;stroke-width:1;"/><text fill="#000000" font-family="sans-serif" font-size="13" lengthAdjust="spacing" textLength="102.064" x="107" y="171.3638">solicitar edicion</text></g><!--link ComandaController to Comanda--><g class="link" data-entity-1="ent0005" data-entity-2="ent0009" data-link-type="dependency" data-source-line="21" id="lnk14"><path codeLine="21" d="M130.63,274.6969 C149.42,290.9569 176.79,311.4069 205,321.2969 C233.57,331.3069 313.34,316.9969 341,329.2969 C361.59,338.4469 375.6954,352.2368 387.7854,367.3068" fill="none" id="ComandaController-to-Comanda" style="stroke:#181818;stroke-width:1;"/><polygon fill="#181818" points="391.54,371.9869,389.0281,362.4637,388.4112,368.0868,382.7881,367.4699,391.54,371.9869" style="stroke:#181818;stroke-width:1;"/><text fill="#000000" font-family="sans-serif" font-size="13" lengthAdjust="spacing" textLength="158.8184" x="206" y="317.3638">obtener comanda activa</text></g><!--link ComandaController to Comanda--><g class="link" data-entity-1="ent0005" data-entity-2="ent0009" data-link-type="dependency" data-source-line="24" id="lnk17"><path codeLine="24" d="M190.32,259.7369 C256.54,267.9069 341.93,282.3069 369,304.2969 C389.68,321.0969 398.3155,345.0582 402.9355,365.9682" fill="none" id="ComandaController-to-Comanda-1" style="stroke:#181818;stroke-width:1;"/><polygon fill="#181818" points="404.23,371.8269,406.1941,362.1759,403.1513,366.9446,398.3825,363.9018,404.23,371.8269" style="stroke:#181818;stroke-width:1;"/><text fill="#000000" font-family="sans-serif" font-size="13" lengthAdjust="spacing" textLength="109.8652" x="385" y="317.3638">guardar cambios</text></g><!--link ComandaController to LineaComanda--><g class="link" data-entity-1="ent0005" data-entity-2="ent0010" data-link-type="dependency" data-source-line="22" id="lnk15"><path codeLine="22" d="M190.34,254.2969 C291.18,259.2969 452.66,272.1769 503,304.2969 C527.79,320.1169 541.6973,345.2222 550.5173,366.5522" fill="none" id="ComandaController-to-LineaComanda" style="stroke:#181818;stroke-width:1;"/><polygon fill="#181818" points="552.81,372.0969,553.0673,362.2514,550.8994,367.4763,545.6745,365.3084,552.81,372.0969" style="stroke:#181818;stroke-width:1;"/><text fill="#000000" font-family="sans-serif" font-size="13" lengthAdjust="spacing" textLength="163.084" x="522" y="317.3638">validar estados editables</text></g><!--link ComandaController to Plato--><g class="link" data-entity-1="ent0005" data-entity-2="ent0011" data-link-type="dependency" data-source-line="23" id="lnk16"><path codeLine="23" d="M190.3,252.8769 C344.62,256.6369 659.93,268.6269 694,304.2969 C710.82,321.9069 710.0602,345.3902 705.8202,365.9802" fill="none" id="ComandaController-to-Plato" style="stroke:#181818;stroke-width:1;"/><polygon fill="#181818" points="704.61,371.8569,710.343,363.8486,705.6185,366.9596,702.5074,362.2351,704.61,371.8569" style="stroke:#181818;stroke-width:1;"/><text fill="#000000" font-family="sans-serif" font-size="13" lengthAdjust="spacing" textLength="104.1587" x="705" y="317.3638">consultar platos</text></g><!--link ComandaController to LogAuditoria--><g class="link" data-entity-1="ent0005" data-entity-2="ent0012" data-link-type="dependency" data-source-line="25" id="lnk18"><path codeLine="25" d="M190.29,251.6069 C369.13,253.1069 773.92,261.2769 818,304.2969 C835.61,321.4869 836.0637,345.2808 833.0037,366.0708" fill="none" id="ComandaController-to-LogAuditoria" style="stroke:#181818;stroke-width:1;"/><polygon fill="#181818" points="832.13,372.0069,837.3979,363.6853,832.8581,367.0602,829.4832,362.5203,832.13,372.0069" style="stroke:#181818;stroke-width:1;"/><text fill="#000000" font-family="sans-serif" font-size="13" lengthAdjust="spacing" textLength="106.6787" x="829" y="317.3638">registrar edicion</text></g><!--link ComandaController to KDSController--><g class="link" data-entity-1="ent0005" data-entity-2="ent0006" data-link-type="dependency" data-source-line="26" id="lnk19"><path codeLine="26" d="M75.39,274.6269 C66.81,282.9569 58.58,293.0769 54,304.2969 C44.72,327.0069 53.4821,348.3914 65.5421,366.8814" fill="none" id="ComandaController-to-KDSController" style="stroke:#181818;stroke-width:1;"/><polygon fill="#181818" points="68.82,371.9069,67.2536,362.1834,66.0885,367.719,60.5529,366.5539,68.82,371.9069" style="stroke:#181818;stroke-width:1;"/><text fill="#000000" font-family="sans-serif" font-size="13" lengthAdjust="spacing" textLength="109.9731" x="55" y="317.3638">actualizar cocina</text></g><?plantuml-src XP9DImCn48Rl-ok6tXSyYWT1LazQ4CJUPvDX6Kmp9PDjeU9_TxBAchOklIKpxpCVRv8v1uBklRsvXHQUF6TCu6IBqMFJxD1zu42msh1cNC5d0-02gaBt8zam7PglIjX9p4a2Uaca_m2_-K1fpZm_lbNHkjXQF0KvARCcnVEQy_s58-5vy3LWbZ-930-ZRIc9iVIgze2slRyS4-v09R2RZ25l1udDfQfYZP0-KwJPI42NUOyBM3sriNiCx4ilSzoBbfuP-q2wW4_x6USawXZAbBiIqQj33YEcqiZXjkT5VMsOGOa6-mhfgXSdZsgSEJ3QOiVfTpcE-0q0?></g></svg>