<svg xmlns="http://www.w3.org/2000/svg" xmlns:xlink="http://www.w3.org/1999/xlink" contentStyleType="text/css" data-diagram-type="CLASS" height="286px" preserveAspectRatio="none" style="width:507px;height:286px;background:#FFFFFF;" version="1.1" viewBox="0 0 507 286" width="507px" zoomAndPan="magnify"><?plantuml 1.2026.3beta6?><defs/><g><!--class Zona--><g class="entity" data-qualified-name="Zona" data-source-line="1" id="ent0002"><rect fill="#F1F1F1" height="48" rx="2.5" ry="2.5" style="stroke:#181818;stroke-width:0.5;" width="67.6084" x="15.8" y="7"/><ellipse cx="30.8" cy="23" fill="#ADD1B2" rx="11" ry="11" style="stroke:#181818;stroke-width:1;"/><path d="M33.7688,28.6406 Q33.1906,28.9375 32.55,29.0781 Q31.9094,29.2344 31.2063,29.2344 Q28.7063,29.2344 27.3781,27.5938 Q26.0656,25.9375 26.0656,22.8125 Q26.0656,19.6875 27.3781,18.0313 Q28.7063,16.375 31.2063,16.375 Q31.9094,16.375 32.55,16.5313 Q33.2063,16.6875 33.7688,16.9844 L33.7688,19.7031 Q33.1438,19.125 32.55,18.8594 Q31.9563,18.5781 31.3313,18.5781 Q29.9875,18.5781 29.3,19.6563 Q28.6125,20.7188 28.6125,22.8125 Q28.6125,24.9063 29.3,25.9844 Q29.9875,27.0469 31.3313,27.0469 Q31.9563,27.0469 32.55,26.7813 Q33.1438,26.5 33.7688,25.9219 L33.7688,28.6406 Z " fill="#000000"/><text fill="#000000" font-family="sans-serif" font-size="14" lengthAdjust="spacing" textLength="35.6084" x="44.8" y="27.8467">Zona</text><line style="stroke:#181818;stroke-width:0.5;" x1="16.8" x2="82.4084" y1="39" y2="39"/><line style="stroke:#181818;stroke-width:0.5;" x1="16.8" x2="82.4084" y1="47" y2="47"/></g><!--class Mesa--><g class="entity" data-qualified-name="Mesa" data-source-line="2" id="ent0003"><rect fill="#F1F1F1" height="48" rx="2.5" ry="2.5" style="stroke:#181818;stroke-width:0.5;" width="68.5654" x="118.32" y="7"/><ellipse cx="133.32" cy="23" fill="#ADD1B2" rx="11" ry="11" style="stroke:#181818;stroke-width:1;"/><path d="M136.2888,28.6406 Q135.7106,28.9375 135.07,29.0781 Q134.4294,29.2344 133.7263,29.2344 Q131.2263,29.2344 129.8981,27.5938 Q128.5856,25.9375 128.5856,22.8125 Q128.5856,19.6875 129.8981,18.0313 Q131.2263,16.375 133.7263,16.375 Q134.4294,16.375 135.07,16.5313 Q135.7263,16.6875 136.2888,16.9844 L136.2888,19.7031 Q135.6638,19.125 135.07,18.8594 Q134.4763,18.5781 133.8513,18.5781 Q132.5075,18.5781 131.82,19.6563 Q131.1325,20.7188 131.1325,22.8125 Q131.1325,24.9063 131.82,25.9844 Q132.5075,27.0469 133.8513,27.0469 Q134.4763,27.0469 135.07,26.7813 Q135.6638,26.5 136.2888,25.9219 L136.2888,28.6406 Z " fill="#000000"/><text fill="#000000" font-family="sans-serif" font-size="14" lengthAdjust="spacing" textLength="36.5654" x="147.32" y="27.8467">Mesa</text><line style="stroke:#181818;stroke-width:0.5;" x1="119.32" x2="185.8854" y1="39" y2="39"/><line style="stroke:#181818;stroke-width:0.5;" x1="119.32" x2="185.8854" y1="47" y2="47"/></g><!--class Comanda--><g class="entity" data-qualified-name="Comanda" data-source-line="3" id="ent0004"><rect fill="#F1F1F1" height="48" rx="2.5" ry="2.5" style="stroke:#181818;stroke-width:0.5;" width="98.8965" x="222.15" y="7"/><ellipse cx="237.15" cy="23" fill="#ADD1B2" rx="11" ry="11" style="stroke:#181818;stroke-width:1;"/><path d="M240.1188,28.6406 Q239.5406,28.9375 238.9,29.0781 Q238.2594,29.2344 237.5563,29.2344 Q235.0563,29.2344 233.7281,27.5938 Q232.4156,25.9375 232.4156,22.8125 Q232.4156,19.6875 233.7281,18.0313 Q235.0563,16.375 237.5563,16.375 Q238.2594,16.375 238.9,16.5313 Q239.5563,16.6875 240.1188,16.9844 L240.1188,19.7031 Q239.4938,19.125 238.9,18.8594 Q238.3063,18.5781 237.6813,18.5781 Q236.3375,18.5781 235.65,19.6563 Q234.9625,20.7188 234.9625,22.8125 Q234.9625,24.9063 235.65,25.9844 Q236.3375,27.0469 237.6813,27.0469 Q238.3063,27.0469 238.9,26.7813 Q239.4938,26.5 240.1188,25.9219 L240.1188,28.6406 Z " fill="#000000"/><text fill="#000000" font-family="sans-serif" font-size="14" lengthAdjust="spacing" textLength="66.8965" x="251.15" y="27.8467">Comanda</text><line style="stroke:#181818;stroke-width:0.5;" x1="223.15" x2="320.0465" y1="39" y2="39"/><line style="stroke:#181818;stroke-width:0.5;" x1="223.15" x2="320.0465" y1="47" y2="47"/></g><!--class LineaComanda--><g class="entity" data-qualified-name="LineaComanda" data-source-line="4" id="ent0005"><rect fill="#F1F1F1" height="48" rx="2.5" ry="2.5" style="stroke:#181818;stroke-width:0.5;" width="136.6514" x="356.28" y="7"/><ellipse cx="371.28" cy="23" fill="#ADD1B2" rx="11" ry="11" style="stroke:#181818;stroke-width:1;"/><path d="M374.2488,28.6406 Q373.6706,28.9375 373.03,29.0781 Q372.3894,29.2344 371.6863,29.2344 Q369.1863,29.2344 367.8581,27.5938 Q366.5456,25.9375 366.5456,22.8125 Q366.5456,19.6875 367.8581,18.0313 Q369.1863,16.375 371.6863,16.375 Q372.3894,16.375 373.03,16.5313 Q373.6863,16.6875 374.2488,16.9844 L374.2488,19.7031 Q373.6238,19.125 373.03,18.8594 Q372.4363,18.5781 371.8113,18.5781 Q370.4675,18.5781 369.78,19.6563 Q369.0925,20.7188 369.0925,22.8125 Q369.0925,24.9063 369.78,25.9844 Q370.4675,27.0469 371.8113,27.0469 Q372.4363,27.0469 373.03,26.7813 Q373.6238,26.5 374.2488,25.9219 L374.2488,28.6406 Z " fill="#000000"/><text fill="#000000" font-family="sans-serif" font-size="14" lengthAdjust="spacing" textLength="104.6514" x="385.28" y="27.8467">LineaComanda</text><line style="stroke:#181818;stroke-width:0.5;" x1="357.28" x2="491.9314" y1="39" y2="39"/><line style="stroke:#181818;stroke-width:0.5;" x1="357.28" x2="491.9314" y1="47" y2="47"/></g><!--class Plato--><g class="entity" data-qualified-name="Plato" data-source-line="5" id="ent0006"><rect fill="#F1F1F1" height="48" rx="2.5" ry="2.5" style="stroke:#181818;stroke-width:0.5;" width="66.9658" x="16.12" y="115"/><ellipse cx="31.12" cy="131" fill="#ADD1B2" rx="11" ry="11" style="stroke:#181818;stroke-width:1;"/><path d="M34.0888,136.6406 Q33.5106,136.9375 32.87,137.0781 Q32.2294,137.2344 31.5262,137.2344 Q29.0262,137.2344 27.6981,135.5938 Q26.3856,133.9375 26.3856,130.8125 Q26.3856,127.6875 27.6981,126.0313 Q29.0262,124.375 31.5262,124.375 Q32.2294,124.375 32.87,124.5313 Q33.5263,124.6875 34.0888,124.9844 L34.0888,127.7031 Q33.4638,127.125 32.87,126.8594 Q32.2763,126.5781 31.6512,126.5781 Q30.3075,126.5781 29.62,127.6563 Q28.9325,128.7188 28.9325,130.8125 Q28.9325,132.9063 29.62,133.9844 Q30.3075,135.0469 31.6512,135.0469 Q32.2763,135.0469 32.87,134.7813 Q33.4638,134.5 34.0888,133.9219 L34.0888,136.6406 Z " fill="#000000"/><text fill="#000000" font-family="sans-serif" font-size="14" lengthAdjust="spacing" textLength="34.9658" x="45.12" y="135.8467">Plato</text><line style="stroke:#181818;stroke-width:0.5;" x1="17.12" x2="82.0858" y1="147" y2="147"/><line style="stroke:#181818;stroke-width:0.5;" x1="17.12" x2="82.0858" y1="155" y2="155"/></g><!--class TarifaMenu--><g class="entity" data-qualified-name="TarifaMenu" data-source-line="6" id="ent0007"><rect fill="#F1F1F1" height="48" rx="2.5" ry="2.5" style="stroke:#181818;stroke-width:0.5;" width="110.7227" x="118.24" y="115"/><ellipse cx="133.24" cy="131" fill="#ADD1B2" rx="11" ry="11" style="stroke:#181818;stroke-width:1;"/><path d="M136.2088,136.6406 Q135.6306,136.9375 134.99,137.0781 Q134.3494,137.2344 133.6463,137.2344 Q131.1463,137.2344 129.8181,135.5938 Q128.5056,133.9375 128.5056,130.8125 Q128.5056,127.6875 129.8181,126.0313 Q131.1463,124.375 133.6463,124.375 Q134.3494,124.375 134.99,124.5313 Q135.6463,124.6875 136.2088,124.9844 L136.2088,127.7031 Q135.5838,127.125 134.99,126.8594 Q134.3963,126.5781 133.7713,126.5781 Q132.4275,126.5781 131.74,127.6563 Q131.0525,128.7188 131.0525,130.8125 Q131.0525,132.9063 131.74,133.9844 Q132.4275,135.0469 133.7713,135.0469 Q134.3963,135.0469 134.99,134.7813 Q135.5838,134.5 136.2088,133.9219 L136.2088,136.6406 Z " fill="#000000"/><text fill="#000000" font-family="sans-serif" font-size="14" lengthAdjust="spacing" textLength="78.7227" x="147.24" y="135.8467">TarifaMenu</text><line style="stroke:#181818;stroke-width:0.5;" x1="119.24" x2="227.9627" y1="147" y2="147"/><line style="stroke:#181818;stroke-width:0.5;" x1="119.24" x2="227.9627" y1="155" y2="155"/></g><!--class Ticket--><g class="entity" data-qualified-name="Ticket" data-source-line="7" id="ent0008"><rect fill="#F1F1F1" height="48" rx="2.5" ry="2.5" style="stroke:#181818;stroke-width:0.5;" width="74.3486" x="264.43" y="115"/><ellipse cx="279.43" cy="131" fill="#ADD1B2" rx="11" ry="11" style="stroke:#181818;stroke-width:1;"/><path d="M282.3988,136.6406 Q281.8206,136.9375 281.18,137.0781 Q280.5394,137.2344 279.8363,137.2344 Q277.3363,137.2344 276.0081,135.5938 Q274.6956,133.9375 274.6956,130.8125 Q274.6956,127.6875 276.0081,126.0313 Q277.3363,124.375 279.8363,124.375 Q280.5394,124.375 281.18,124.5313 Q281.8363,124.6875 282.3988,124.9844 L282.3988,127.7031 Q281.7738,127.125 281.18,126.8594 Q280.5863,126.5781 279.9613,126.5781 Q278.6175,126.5781 277.93,127.6563 Q277.2425,128.7188 277.2425,130.8125 Q277.2425,132.9063 277.93,133.9844 Q278.6175,135.0469 279.9613,135.0469 Q280.5863,135.0469 281.18,134.7813 Q281.7738,134.5 282.3988,133.9219 L282.3988,136.6406 Z " fill="#000000"/><text fill="#000000" font-family="sans-serif" font-size="14" lengthAdjust="spacing" textLength="42.3486" x="293.43" y="135.8467">Ticket</text><line style="stroke:#181818;stroke-width:0.5;" x1="265.43" x2="337.7786" y1="147" y2="147"/><line style="stroke:#181818;stroke-width:0.5;" x1="265.43" x2="337.7786" y1="155" y2="155"/></g><!--class Reserva--><g class="entity" data-qualified-name="Reserva" data-source-line="8" id="ent0009"><rect fill="#F1F1F1" height="48" rx="2.5" ry="2.5" style="stroke:#181818;stroke-width:0.5;" width="88.8682" x="374.17" y="115"/><ellipse cx="389.17" cy="131" fill="#ADD1B2" rx="11" ry="11" style="stroke:#181818;stroke-width:1;"/><path d="M392.1388,136.6406 Q391.5606,136.9375 390.92,137.0781 Q390.2794,137.2344 389.5763,137.2344 Q387.0763,137.2344 385.7481,135.5938 Q384.4356,133.9375 384.4356,130.8125 Q384.4356,127.6875 385.7481,126.0313 Q387.0763,124.375 389.5763,124.375 Q390.2794,124.375 390.92,124.5313 Q391.5763,124.6875 392.1388,124.9844 L392.1388,127.7031 Q391.5138,127.125 390.92,126.8594 Q390.3263,126.5781 389.7013,126.5781 Q388.3575,126.5781 387.67,127.6563 Q386.9825,128.7188 386.9825,130.8125 Q386.9825,132.9063 387.67,133.9844 Q388.3575,135.0469 389.7013,135.0469 Q390.3263,135.0469 390.92,134.7813 Q391.5138,134.5 392.1388,133.9219 L392.1388,136.6406 Z " fill="#000000"/><text fill="#000000" font-family="sans-serif" font-size="14" lengthAdjust="spacing" textLength="56.8682" x="403.17" y="135.8467">Reserva</text><line style="stroke:#181818;stroke-width:0.5;" x1="375.17" x2="462.0382" y1="147" y2="147"/><line style="stroke:#181818;stroke-width:0.5;" x1="375.17" x2="462.0382" y1="155" y2="155"/></g><!--class Usuario--><g class="entity" data-qualified-name="Usuario" data-source-line="9" id="ent0010"><rect fill="#F1F1F1" height="48" rx="2.5" ry="2.5" style="stroke:#181818;stroke-width:0.5;" width="85.2041" x="7" y="223"/><ellipse cx="22" cy="239" fill="#ADD1B2" rx="11" ry="11" style="stroke:#181818;stroke-width:1;"/><path d="M24.9688,244.6406 Q24.3906,244.9375 23.75,245.0781 Q23.1094,245.2344 22.4063,245.2344 Q19.9063,245.2344 18.5781,243.5938 Q17.2656,241.9375 17.2656,238.8125 Q17.2656,235.6875 18.5781,234.0313 Q19.9063,232.375 22.4063,232.375 Q23.1094,232.375 23.75,232.5313 Q24.4063,232.6875 24.9688,232.9844 L24.9688,235.7031 Q24.3438,235.125 23.75,234.8594 Q23.1563,234.5781 22.5313,234.5781 Q21.1875,234.5781 20.5,235.6563 Q19.8125,236.7188 19.8125,238.8125 Q19.8125,240.9063 20.5,241.9844 Q21.1875,243.0469 22.5313,243.0469 Q23.1563,243.0469 23.75,242.7813 Q24.3438,242.5 24.9688,241.9219 L24.9688,244.6406 Z " fill="#000000"/><text fill="#000000" font-family="sans-serif" font-size="14" lengthAdjust="spacing" textLength="53.2041" x="36" y="243.8467">Usuario</text><line style="stroke:#181818;stroke-width:0.5;" x1="8" x2="91.2041" y1="255" y2="255"/><line style="stroke:#181818;stroke-width:0.5;" x1="8" x2="91.2041" y1="263" y2="263"/></g><!--class LogAuditoria--><g class="entity" data-qualified-name="LogAuditoria" data-source-line="10" id="ent0011"><rect fill="#F1F1F1" height="48" rx="2.5" ry="2.5" style="stroke:#181818;stroke-width:0.5;" width="120.7578" x="127.22" y="223"/><ellipse cx="142.22" cy="239" fill="#ADD1B2" rx="11" ry="11" style="stroke:#181818;stroke-width:1;"/><path d="M145.1888,244.6406 Q144.6106,244.9375 143.97,245.0781 Q143.3294,245.2344 142.6263,245.2344 Q140.1263,245.2344 138.7981,243.5938 Q137.4856,241.9375 137.4856,238.8125 Q137.4856,235.6875 138.7981,234.0313 Q140.1263,232.375 142.6263,232.375 Q143.3294,232.375 143.97,232.5313 Q144.6263,232.6875 145.1888,232.9844 L145.1888,235.7031 Q144.5638,235.125 143.97,234.8594 Q143.3763,234.5781 142.7513,234.5781 Q141.4075,234.5781 140.72,235.6563 Q140.0325,236.7188 140.0325,238.8125 Q140.0325,240.9063 140.72,241.9844 Q141.4075,243.0469 142.7513,243.0469 Q143.3763,243.0469 143.97,242.7813 Q144.5638,242.5 145.1888,241.9219 L145.1888,244.6406 Z " fill="#000000"/><text fill="#000000" font-family="sans-serif" font-size="14" lengthAdjust="spacing" textLength="88.7578" x="156.22" y="243.8467">LogAuditoria</text><line style="stroke:#181818;stroke-width:0.5;" x1="128.22" x2="246.9778" y1="255" y2="255"/><line style="stroke:#181818;stroke-width:0.5;" x1="128.22" x2="246.9778" y1="263" y2="263"/></g><?plantuml-src POmn2e0m34LtJz6hY6iB8hguXJPAi2RGj9xVuXJmR-_1Vp63gjk5ON1zySE0Qd6I6pXPuuaH_dhEKCNm2eKE2CZDIeeNLYCML2oFxMpQ-jEMl9nZIrIb4Bm0?></g></svg>