<svg xmlns="http://www.w3.org/2000/svg" xmlns:xlink="http://www.w3.org/1999/xlink" contentStyleType="text/css" data-diagram-type="CLASS" height="451px" preserveAspectRatio="none" style="width:1246px;height:451px;background:#FFFFFF;" version="1.1" viewBox="0 0 1246 451" width="1246px" zoomAndPan="magnify"><?plantuml 1.2026.3beta6?><defs/><g><g class="title" data-source-line="1"><text fill="#000000" font-family="sans-serif" font-size="14" font-weight="700" lengthAdjust="spacing" textLength="248.9922" x="495.011" y="22.9951">CU-12 - Marcar plato como listo</text></g><!--cluster Vista--><g class="cluster" data-qualified-name="Vista" data-source-line="3" id="ent0002"><path d="M80.5,43.2969 L121.6064,43.2969 A3.75,3.75 0 0 1 124.1064,45.7969 L131.1064,65.5938 L201.5,65.5938 A2.5,2.5 0 0 1 204,68.0938 L204,139.7969 A2.5,2.5 0 0 1 201.5,142.2969 L80.5,142.2969 A2.5,2.5 0 0 1 78,139.7969 L78,45.7969 A2.5,2.5 0 0 1 80.5,43.2969" fill="none" style="stroke:#000000;stroke-width:1.5;"/><line style="stroke:#000000;stroke-width:1.5;" x1="78" x2="131.1064" y1="65.5938" y2="65.5938"/><text fill="#000000" font-family="sans-serif" font-size="14" font-weight="700" lengthAdjust="spacing" textLength="40.1064" x="82" y="58.292">Vista</text></g><!--cluster Controladores--><g class="cluster" data-qualified-name="Controladores" data-source-line="7" id="ent0004"><path d="M8.5,191.2969 L121.1924,191.2969 A3.75,3.75 0 0 1 123.6924,193.7969 L130.6924,213.5938 L219.5,213.5938 A2.5,2.5 0 0 1 222,216.0938 L222,433.7969 A2.5,2.5 0 0 1 219.5,436.2969 L8.5,436.2969 A2.5,2.5 0 0 1 6,433.7969 L6,193.7969 A2.5,2.5 0 0 1 8.5,191.2969" fill="none" style="stroke:#000000;stroke-width:1.5;"/><line style="stroke:#000000;stroke-width:1.5;" x1="6" x2="130.6924" y1="213.5938" y2="213.5938"/><text fill="#000000" font-family="sans-serif" font-size="14" font-weight="700" lengthAdjust="spacing" textLength="111.6924" x="10" y="206.292">Controladores</text></g><!--cluster Modelos--><g class="cluster" data-qualified-name="Modelos" data-source-line="12" id="ent0007"><path d="M503.5,337.2969 L570.3164,337.2969 A3.75,3.75 0 0 1 572.8164,339.7969 L579.8164,359.5938 L1060.5,359.5938 A2.5,2.5 0 0 1 1063,362.0938 L1063,433.7969 A2.5,2.5 0 0 1 1060.5,436.2969 L503.5,436.2969 A2.5,2.5 0 0 1 501,433.7969 L501,339.7969 A2.5,2.5 0 0 1 503.5,337.2969" fill="none" style="stroke:#000000;stroke-width:1.5;"/><line style="stroke:#000000;stroke-width:1.5;" x1="501" x2="579.8164" y1="359.5938" y2="359.5938"/><text fill="#000000" font-family="sans-serif" font-size="14" font-weight="700" lengthAdjust="spacing" textLength="65.8164" x="505" y="352.292">Modelos</text></g><!--class KDSView--><g class="entity" data-qualified-name="Vista.KDSView" data-source-line="4" id="ent0003"><rect fill="#F1F1F1" height="48" rx="2.5" ry="2.5" style="stroke:#181818;stroke-width:0.5;" width="94.3779" x="93.81" y="78.2969"/><ellipse cx="108.81" cy="94.2969" fill="#ADD1B2" rx="11" ry="11" style="stroke:#181818;stroke-width:1;"/><path d="M111.7788,99.9375 Q111.2006,100.2344 110.56,100.375 Q109.9194,100.5313 109.2163,100.5313 Q106.7163,100.5313 105.3881,98.8906 Q104.0756,97.2344 104.0756,94.1094 Q104.0756,90.9844 105.3881,89.3281 Q106.7163,87.6719 109.2163,87.6719 Q109.9194,87.6719 110.56,87.8281 Q111.2163,87.9844 111.7788,88.2813 L111.7788,91 Q111.1538,90.4219 110.56,90.1563 Q109.9663,89.875 109.3413,89.875 Q107.9975,89.875 107.31,90.9531 Q106.6225,92.0156 106.6225,94.1094 Q106.6225,96.2031 107.31,97.2813 Q107.9975,98.3438 109.3413,98.3438 Q109.9663,98.3438 110.56,98.0781 Q111.1538,97.7969 111.7788,97.2188 L111.7788,99.9375 Z " fill="#000000"/><text fill="#000000" font-family="sans-serif" font-size="14" lengthAdjust="spacing" textLength="62.3779" x="122.81" y="99.1436">KDSView</text><line style="stroke:#181818;stroke-width:0.5;" x1="94.81" x2="187.1879" y1="110.2969" y2="110.2969"/><line style="stroke:#181818;stroke-width:0.5;" x1="94.81" x2="187.1879" y1="118.2969" y2="118.2969"/></g><!--class KDSController--><g class="entity" data-qualified-name="Controladores.KDSController" data-source-line="8" id="ent0005"><rect fill="#F1F1F1" height="48" rx="2.5" ry="2.5" style="stroke:#181818;stroke-width:0.5;" width="130.0205" x="75.99" y="226.2969"/><ellipse cx="90.99" cy="242.2969" fill="#ADD1B2" rx="11" ry="11" style="stroke:#181818;stroke-width:1;"/><path d="M93.9588,247.9375 Q93.3806,248.2344 92.74,248.375 Q92.0994,248.5313 91.3963,248.5313 Q88.8963,248.5313 87.5681,246.8906 Q86.2556,245.2344 86.2556,242.1094 Q86.2556,238.9844 87.5681,237.3281 Q88.8963,235.6719 91.3963,235.6719 Q92.0994,235.6719 92.74,235.8281 Q93.3963,235.9844 93.9588,236.2813 L93.9588,239 Q93.3338,238.4219 92.74,238.1563 Q92.1463,237.875 91.5213,237.875 Q90.1775,237.875 89.49,238.9531 Q88.8025,240.0156 88.8025,242.1094 Q88.8025,244.2031 89.49,245.2813 Q90.1775,246.3438 91.5213,246.3438 Q92.1463,246.3438 92.74,246.0781 Q93.3338,245.7969 93.9588,245.2188 L93.9588,247.9375 Z " fill="#000000"/><text fill="#000000" font-family="sans-serif" font-size="14" lengthAdjust="spacing" textLength="98.0205" x="104.99" y="247.1436">KDSController</text><line style="stroke:#181818;stroke-width:0.5;" x1="76.99" x2="205.0105" y1="258.2969" y2="258.2969"/><line style="stroke:#181818;stroke-width:0.5;" x1="76.99" x2="205.0105" y1="266.2969" y2="266.2969"/></g><!--class NotificacionController--><g class="entity" data-qualified-name="Controladores.NotificacionController" data-source-line="9" id="ent0006"><rect fill="#F1F1F1" height="48" rx="2.5" ry="2.5" style="stroke:#181818;stroke-width:0.5;" width="183.71" x="22.15" y="372.2969"/><ellipse cx="37.15" cy="388.2969" fill="#ADD1B2" rx="11" ry="11" style="stroke:#181818;stroke-width:1;"/><path d="M40.1188,393.9375 Q39.5406,394.2344 38.9,394.375 Q38.2594,394.5313 37.5563,394.5313 Q35.0563,394.5313 33.7281,392.8906 Q32.4156,391.2344 32.4156,388.1094 Q32.4156,384.9844 33.7281,383.3281 Q35.0563,381.6719 37.5563,381.6719 Q38.2594,381.6719 38.9,381.8281 Q39.5563,381.9844 40.1188,382.2813 L40.1188,385 Q39.4938,384.4219 38.9,384.1563 Q38.3063,383.875 37.6813,383.875 Q36.3375,383.875 35.65,384.9531 Q34.9625,386.0156 34.9625,388.1094 Q34.9625,390.2031 35.65,391.2813 Q36.3375,392.3438 37.6813,392.3438 Q38.3063,392.3438 38.9,392.0781 Q39.4938,391.7969 40.1188,391.2188 L40.1188,393.9375 Z " fill="#000000"/><text fill="#000000" font-family="sans-serif" font-size="14" lengthAdjust="spacing" textLength="151.71" x="51.15" y="393.1436">NotificacionController</text><line style="stroke:#181818;stroke-width:0.5;" x1="23.15" x2="204.86" y1="404.2969" y2="404.2969"/><line style="stroke:#181818;stroke-width:0.5;" x1="23.15" x2="204.86" y1="412.2969" y2="412.2969"/></g><!--class Comanda--><g class="entity" data-qualified-name="Modelos.Comanda" data-source-line="13" id="ent0008"><rect fill="#F1F1F1" height="48" rx="2.5" ry="2.5" style="stroke:#181818;stroke-width:0.5;" width="98.8965" x="516.55" y="372.2969"/><ellipse cx="531.55" cy="388.2969" fill="#ADD1B2" rx="11" ry="11" style="stroke:#181818;stroke-width:1;"/><path d="M534.5188,393.9375 Q533.9406,394.2344 533.3,394.375 Q532.6594,394.5313 531.9563,394.5313 Q529.4563,394.5313 528.1281,392.8906 Q526.8156,391.2344 526.8156,388.1094 Q526.8156,384.9844 528.1281,383.3281 Q529.4563,381.6719 531.9563,381.6719 Q532.6594,381.6719 533.3,381.8281 Q533.9563,381.9844 534.5188,382.2813 L534.5188,385 Q533.8938,384.4219 533.3,384.1563 Q532.7063,383.875 532.0813,383.875 Q530.7375,383.875 530.05,384.9531 Q529.3625,386.0156 529.3625,388.1094 Q529.3625,390.2031 530.05,391.2813 Q530.7375,392.3438 532.0813,392.3438 Q532.7063,392.3438 533.3,392.0781 Q533.8938,391.7969 534.5188,391.2188 L534.5188,393.9375 Z " fill="#000000"/><text fill="#000000" font-family="sans-serif" font-size="14" lengthAdjust="spacing" textLength="66.8965" x="545.55" y="393.1436">Comanda</text><line style="stroke:#181818;stroke-width:0.5;" x1="517.55" x2="614.4465" y1="404.2969" y2="404.2969"/><line style="stroke:#181818;stroke-width:0.5;" x1="517.55" x2="614.4465" y1="412.2969" y2="412.2969"/></g><!--class LineaComanda--><g class="entity" data-qualified-name="Modelos.LineaComanda" data-source-line="14" id="ent0009"><rect fill="#F1F1F1" height="48" rx="2.5" ry="2.5" style="stroke:#181818;stroke-width:0.5;" width="136.6514" x="650.67" y="372.2969"/><ellipse cx="665.67" cy="388.2969" fill="#ADD1B2" rx="11" ry="11" style="stroke:#181818;stroke-width:1;"/><path d="M668.6388,393.9375 Q668.0606,394.2344 667.42,394.375 Q666.7794,394.5313 666.0763,394.5313 Q663.5763,394.5313 662.2481,392.8906 Q660.9356,391.2344 660.9356,388.1094 Q660.9356,384.9844 662.2481,383.3281 Q663.5763,381.6719 666.0763,381.6719 Q666.7794,381.6719 667.42,381.8281 Q668.0763,381.9844 668.6388,382.2813 L668.6388,385 Q668.0138,384.4219 667.42,384.1563 Q666.8263,383.875 666.2013,383.875 Q664.8575,383.875 664.17,384.9531 Q663.4825,386.0156 663.4825,388.1094 Q663.4825,390.2031 664.17,391.2813 Q664.8575,392.3438 666.2013,392.3438 Q666.8263,392.3438 667.42,392.0781 Q668.0138,391.7969 668.6388,391.2188 L668.6388,393.9375 Z " fill="#000000"/><text fill="#000000" font-family="sans-serif" font-size="14" lengthAdjust="spacing" textLength="104.6514" x="679.67" y="393.1436">LineaComanda</text><line style="stroke:#181818;stroke-width:0.5;" x1="651.67" x2="786.3214" y1="404.2969" y2="404.2969"/><line style="stroke:#181818;stroke-width:0.5;" x1="651.67" x2="786.3214" y1="412.2969" y2="412.2969"/></g><!--class Mesa--><g class="entity" data-qualified-name="Modelos.Mesa" data-source-line="15" id="ent0010"><rect fill="#F1F1F1" height="48" rx="2.5" ry="2.5" style="stroke:#181818;stroke-width:0.5;" width="68.5654" x="822.72" y="372.2969"/><ellipse cx="837.72" cy="388.2969" fill="#ADD1B2" rx="11" ry="11" style="stroke:#181818;stroke-width:1;"/><path d="M840.6888,393.9375 Q840.1106,394.2344 839.47,394.375 Q838.8294,394.5313 838.1263,394.5313 Q835.6263,394.5313 834.2981,392.8906 Q832.9856,391.2344 832.9856,388.1094 Q832.9856,384.9844 834.2981,383.3281 Q835.6263,381.6719 838.1263,381.6719 Q838.8294,381.6719 839.47,381.8281 Q840.1263,381.9844 840.6888,382.2813 L840.6888,385 Q840.0638,384.4219 839.47,384.1563 Q838.8763,383.875 838.2513,383.875 Q836.9075,383.875 836.22,384.9531 Q835.5325,386.0156 835.5325,388.1094 Q835.5325,390.2031 836.22,391.2813 Q836.9075,392.3438 838.2513,392.3438 Q838.8763,392.3438 839.47,392.0781 Q840.0638,391.7969 840.6888,391.2188 L840.6888,393.9375 Z " fill="#000000"/><text fill="#000000" font-family="sans-serif" font-size="14" lengthAdjust="spacing" textLength="36.5654" x="851.72" y="393.1436">Mesa</text><line style="stroke:#181818;stroke-width:0.5;" x1="823.72" x2="890.2854" y1="404.2969" y2="404.2969"/><line style="stroke:#181818;stroke-width:0.5;" x1="823.72" x2="890.2854" y1="412.2969" y2="412.2969"/></g><!--class LogAuditoria--><g class="entity" data-qualified-name="Modelos.LogAuditoria" data-source-line="16" id="ent0011"><rect fill="#F1F1F1" height="48" rx="2.5" ry="2.5" style="stroke:#181818;stroke-width:0.5;" width="120.7578" x="926.62" y="372.2969"/><ellipse cx="941.62" cy="388.2969" fill="#ADD1B2" rx="11" ry="11" style="stroke:#181818;stroke-width:1;"/><path d="M944.5888,393.9375 Q944.0106,394.2344 943.37,394.375 Q942.7294,394.5313 942.0263,394.5313 Q939.5263,394.5313 938.1981,392.8906 Q936.8856,391.2344 936.8856,388.1094 Q936.8856,384.9844 938.1981,383.3281 Q939.5263,381.6719 942.0263,381.6719 Q942.7294,381.6719 943.37,381.8281 Q944.0263,381.9844 944.5888,382.2813 L944.5888,385 Q943.9638,384.4219 943.37,384.1563 Q942.7763,383.875 942.1513,383.875 Q940.8075,383.875 940.12,384.9531 Q939.4325,386.0156 939.4325,388.1094 Q939.4325,390.2031 940.12,391.2813 Q940.8075,392.3438 942.1513,392.3438 Q942.7763,392.3438 943.37,392.0781 Q943.9638,391.7969 944.5888,391.2188 L944.5888,393.9375 Z " fill="#000000"/><text fill="#000000" font-family="sans-serif" font-size="14" lengthAdjust="spacing" textLength="88.7578" x="955.62" y="393.1436">LogAuditoria</text><line style="stroke:#181818;stroke-width:0.5;" x1="927.62" x2="1046.3778" y1="404.2969" y2="404.2969"/><line style="stroke:#181818;stroke-width:0.5;" x1="927.62" x2="1046.3778" y1="412.2969" y2="412.2969"/></g><!--link KDSView to KDSController--><g class="link" data-entity-1="ent0003" data-entity-2="ent0005" data-link-type="dependency" data-source-line="19" id="lnk12"><path codeLine="19" d="M141,126.7569 C141,153.9969 141,192.6769 141,219.8969" fill="none" id="KDSView-to-KDSController" style="stroke:#181818;stroke-width:1;"/><polygon fill="#181818" points="141,225.8969,145,216.8969,141,220.8969,137,216.8969,141,225.8969" style="stroke:#181818;stroke-width:1;"/><text fill="#000000" font-family="sans-serif" font-size="13" lengthAdjust="spacing" textLength="154.4766" x="142" y="171.3638">marcar plato como listo</text></g><!--link KDSController to LineaComanda--><g class="link" data-entity-1="ent0005" data-entity-2="ent0009" data-link-type="dependency" data-source-line="20" id="lnk13"><path codeLine="20" d="M206.49,259.0169 C263.57,266.8769 348.1,281.2169 419,304.2969 C435.82,309.7769 437.83,317.0369 455,321.2969 C493.43,330.8269 595.8,315.7269 633,329.2969 C657.4,338.1969 676.1104,352.5651 692.2104,367.7151" fill="none" id="KDSController-to-LineaComanda" style="stroke:#181818;stroke-width:1;"/><polygon fill="#181818" points="696.58,371.8269,692.7668,362.7462,692.9387,368.4004,687.2844,368.5723,696.58,371.8269" style="stroke:#181818;stroke-width:1;"/><text fill="#000000" font-family="sans-serif" font-size="13" lengthAdjust="spacing" textLength="219.0703" x="456" y="317.3638">verificar estado = en preparacion</text></g><!--link KDSController to LineaComanda--><g class="link" data-entity-1="ent0005" data-entity-2="ent0009" data-link-type="dependency" data-source-line="21" id="lnk14"><path codeLine="21" d="M206.45,254.0269 C341.69,260.1969 642.52,276.8569 680,304.2969 C701.77,320.2369 710.3301,344.974 714.6001,366.264" fill="none" id="KDSController-to-LineaComanda-1" style="stroke:#181818;stroke-width:1;"/><polygon fill="#181818" points="715.78,372.1469,717.9321,362.536,714.7968,367.2445,710.0883,364.1092,715.78,372.1469" style="stroke:#181818;stroke-width:1;"/><text fill="#000000" font-family="sans-serif" font-size="13" lengthAdjust="spacing" textLength="155.2256" x="696" y="317.3638">actualizar estado a listo</text></g><!--link KDSController to Comanda--><g class="link" data-entity-1="ent0005" data-entity-2="ent0008" data-link-type="dependency" data-source-line="22" id="lnk15"><path codeLine="22" d="M160.23,274.6269 C174.34,290.2069 194.84,309.8569 217,321.2969 C315.1,371.9469 439.8054,387.5072 510.1354,392.5572" fill="none" id="KDSController-to-Comanda" style="stroke:#181818;stroke-width:1;"/><polygon fill="#181818" points="516.12,392.9869,507.4296,388.3526,511.1328,392.6288,506.8566,396.332,516.12,392.9869" style="stroke:#181818;stroke-width:1;"/><text fill="#000000" font-family="sans-serif" font-size="13" lengthAdjust="spacing" textLength="196.8979" x="218" y="317.3638">obtener contexto de comanda</text></g><!--link KDSController to Mesa--><g class="link" data-entity-1="ent0005" data-entity-2="ent0010" data-link-type="dependency" data-source-line="23" id="lnk16"><path codeLine="23" d="M206.32,251.1669 C375.16,251.5069 816.02,256.9569 860,304.2969 C876.57,322.1269 873.8495,345.6915 867.6695,366.2215" fill="none" id="KDSController-to-Mesa" style="stroke:#181818;stroke-width:1;"/><polygon fill="#181818" points="865.94,371.9669,872.3644,364.5019,867.3812,367.1791,864.704,362.1959,865.94,371.9669" style="stroke:#181818;stroke-width:1;"/><text fill="#000000" font-family="sans-serif" font-size="13" lengthAdjust="spacing" textLength="166.7593" x="871" y="317.3638">identificar mesa asociada</text></g><!--link KDSController to LogAuditoria--><g class="link" data-entity-1="ent0005" data-entity-2="ent0011" data-link-type="dependency" data-source-line="24" id="lnk17"><path codeLine="24" d="M206.23,252.6969 C409.12,257.3469 1017.23,273.7969 1046,304.2969 C1065.38,324.8469 1046.3619,348.6713 1023.5119,368.0913" fill="none" id="KDSController-to-LogAuditoria" style="stroke:#181818;stroke-width:1;"/><polygon fill="#181818" points="1018.94,371.9769,1028.3882,369.1964,1022.7499,368.7389,1023.2074,363.1006,1018.94,371.9769" style="stroke:#181818;stroke-width:1;"/><text fill="#000000" font-family="sans-serif" font-size="13" lengthAdjust="spacing" textLength="176.0142" x="1054" y="317.3638">registrar cambio de estado</text></g><!--link KDSController to NotificacionController--><g class="link" data-entity-1="ent0005" data-entity-2="ent0006" data-link-type="dependency" data-source-line="25" id="lnk18"><path codeLine="25" d="M84,274.5169 C72.02,282.1569 60.93,291.9569 54,304.2969 C40.65,328.0569 56.7954,349.9249 77.4154,367.9749" fill="none" id="KDSController-to-NotificacionController" style="stroke:#181818;stroke-width:1;"/><polygon fill="#181818" points="81.93,371.9269,77.7927,362.9892,78.1678,368.6336,72.5234,369.0087,81.93,371.9269" style="stroke:#181818;stroke-width:1;"/><text fill="#000000" font-family="sans-serif" font-size="13" lengthAdjust="spacing" textLength="121.583" x="55" y="317.3638">avisar al camarero</text></g><?plantuml-src XL71JiCm3BttAwpTUu0Z4fDGkK5tGUpk9QQoIEFAoSO4ujz9IhMbenD7lxpt_FmIEJg2vhM-kOKQMbI32eF3A62a5t0SebJLWEOTEuBLDisuWgyAm3WC0PuUNxPC7zLtGMh4HnM7LfJ21NbwSwGdT2EHtzYWOV75S-dOYYKdCwz6UlGMJ_CpUy9BiALGCAHxs5kEeepPVOeETRsU9uCxwAyqCUTbPRat2G-aup4Ab9go0lT07WQb0NMyy7yBD76FZZ_F7dXr-rabkqW-eIOHw9XIMyh1nph-wd8nISIMV9pozXd288PnKLBMbwHANSgaIMYmt_6uxpVkWdRvY_Ej1mx90brsGIML7m00?></g></svg>