<svg xmlns="http://www.w3.org/2000/svg" xmlns:xlink="http://www.w3.org/1999/xlink" contentStyleType="text/css" data-diagram-type="CLASS" height="453px" preserveAspectRatio="none" style="width:1009px;height:453px;background:#FFFFFF;" version="1.1" viewBox="0 0 1009 453" width="1009px" zoomAndPan="magnify"><?plantuml 1.2026.3beta6?><defs/><g><g class="title" data-source-line="1"><text fill="#000000" font-family="sans-serif" font-size="14" font-weight="700" lengthAdjust="spacing" textLength="213.6504" x="394.4552" y="22.9951">CU-14 - Enviar ticket a caja</text></g><!--cluster Vista--><g class="cluster" data-qualified-name="Vista" data-source-line="4" id="ent0002"><path d="M374.7,43.2969 L415.8064,43.2969 A3.75,3.75 0 0 1 418.3064,45.7969 L425.3064,65.5938 L664.7,65.5938 A2.5,2.5 0 0 1 667.2,68.0938 L667.2,139.7969 A2.5,2.5 0 0 1 664.7,142.2969 L374.7,142.2969 A2.5,2.5 0 0 1 372.2,139.7969 L372.2,45.7969 A2.5,2.5 0 0 1 374.7,43.2969" fill="none" style="stroke:#000000;stroke-width:1.5;"/><line style="stroke:#000000;stroke-width:1.5;" x1="372.2" x2="425.3064" y1="65.5938" y2="65.5938"/><text fill="#000000" font-family="sans-serif" font-size="14" font-weight="700" lengthAdjust="spacing" textLength="40.1064" x="376.2" y="58.292">Vista</text></g><!--cluster Controladores--><g class="cluster" data-qualified-name="Controladores" data-source-line="9" id="ent0005"><path d="M443.7,191.2969 L556.3924,191.2969 A3.75,3.75 0 0 1 558.8924,193.7969 L565.8924,213.5938 L614.7,213.5938 A2.5,2.5 0 0 1 617.2,216.0938 L617.2,287.7969 A2.5,2.5 0 0 1 614.7,290.2969 L443.7,290.2969 A2.5,2.5 0 0 1 441.2,287.7969 L441.2,193.7969 A2.5,2.5 0 0 1 443.7,191.2969" fill="none" style="stroke:#000000;stroke-width:1.5;"/><line style="stroke:#000000;stroke-width:1.5;" x1="441.2" x2="565.8924" y1="213.5938" y2="213.5938"/><text fill="#000000" font-family="sans-serif" font-size="14" font-weight="700" lengthAdjust="spacing" textLength="111.6924" x="445.2" y="206.292">Controladores</text></g><!--cluster Modelos--><g class="cluster" data-qualified-name="Modelos" data-source-line="13" id="ent0007"><path d="M183.7,339.2969 L250.5164,339.2969 A3.75,3.75 0 0 1 253.0164,341.7969 L260.0164,361.5938 L952.7,361.5938 A2.5,2.5 0 0 1 955.2,364.0938 L955.2,435.7969 A2.5,2.5 0 0 1 952.7,438.2969 L183.7,438.2969 A2.5,2.5 0 0 1 181.2,435.7969 L181.2,341.7969 A2.5,2.5 0 0 1 183.7,339.2969" fill="none" style="stroke:#000000;stroke-width:1.5;"/><line style="stroke:#000000;stroke-width:1.5;" x1="181.2" x2="260.0164" y1="361.5938" y2="361.5938"/><text fill="#000000" font-family="sans-serif" font-size="14" font-weight="700" lengthAdjust="spacing" textLength="65.8164" x="185.2" y="354.292">Modelos</text></g><!--class ComandaView--><g class="entity" data-qualified-name="Vista.ComandaView" data-source-line="5" id="ent0003"><rect fill="#F1F1F1" height="48" rx="2.5" ry="2.5" style="stroke:#181818;stroke-width:0.5;" width="132.4268" x="387.99" y="78.2969"/><ellipse cx="402.99" cy="94.2969" fill="#ADD1B2" rx="11" ry="11" style="stroke:#181818;stroke-width:1;"/><path d="M405.9588,99.9375 Q405.3806,100.2344 404.74,100.375 Q404.0994,100.5313 403.3963,100.5313 Q400.8963,100.5313 399.5681,98.8906 Q398.2556,97.2344 398.2556,94.1094 Q398.2556,90.9844 399.5681,89.3281 Q400.8963,87.6719 403.3963,87.6719 Q404.0994,87.6719 404.74,87.8281 Q405.3963,87.9844 405.9588,88.2813 L405.9588,91 Q405.3338,90.4219 404.74,90.1563 Q404.1463,89.875 403.5213,89.875 Q402.1775,89.875 401.49,90.9531 Q400.8025,92.0156 400.8025,94.1094 Q400.8025,96.2031 401.49,97.2813 Q402.1775,98.3438 403.5213,98.3438 Q404.1463,98.3438 404.74,98.0781 Q405.3338,97.7969 405.9588,97.2188 L405.9588,99.9375 Z " fill="#000000"/><text fill="#000000" font-family="sans-serif" font-size="14" lengthAdjust="spacing" textLength="100.4268" x="416.99" y="99.1436">ComandaView</text><line style="stroke:#181818;stroke-width:0.5;" x1="388.99" x2="519.4168" y1="110.2969" y2="110.2969"/><line style="stroke:#181818;stroke-width:0.5;" x1="388.99" x2="519.4168" y1="118.2969" y2="118.2969"/></g><!--class CajaView--><g class="entity" data-qualified-name="Vista.CajaView" data-source-line="6" id="ent0004"><rect fill="#F1F1F1" height="48" rx="2.5" ry="2.5" style="stroke:#181818;stroke-width:0.5;" width="96.3535" x="555.03" y="78.2969"/><ellipse cx="570.03" cy="94.2969" fill="#ADD1B2" rx="11" ry="11" style="stroke:#181818;stroke-width:1;"/><path d="M572.9988,99.9375 Q572.4206,100.2344 571.78,100.375 Q571.1394,100.5313 570.4363,100.5313 Q567.9363,100.5313 566.6081,98.8906 Q565.2956,97.2344 565.2956,94.1094 Q565.2956,90.9844 566.6081,89.3281 Q567.9363,87.6719 570.4363,87.6719 Q571.1394,87.6719 571.78,87.8281 Q572.4363,87.9844 572.9988,88.2813 L572.9988,91 Q572.3738,90.4219 571.78,90.1563 Q571.1863,89.875 570.5613,89.875 Q569.2175,89.875 568.53,90.9531 Q567.8425,92.0156 567.8425,94.1094 Q567.8425,96.2031 568.53,97.2813 Q569.2175,98.3438 570.5613,98.3438 Q571.1863,98.3438 571.78,98.0781 Q572.3738,97.7969 572.9988,97.2188 L572.9988,99.9375 Z " fill="#000000"/><text fill="#000000" font-family="sans-serif" font-size="14" lengthAdjust="spacing" textLength="64.3535" x="584.03" y="99.1436">CajaView</text><line style="stroke:#181818;stroke-width:0.5;" x1="556.03" x2="650.3835" y1="110.2969" y2="110.2969"/><line style="stroke:#181818;stroke-width:0.5;" x1="556.03" x2="650.3835" y1="118.2969" y2="118.2969"/></g><!--class TicketController--><g class="entity" data-qualified-name="Controladores.TicketController" data-source-line="10" id="ent0006"><rect fill="#F1F1F1" height="48" rx="2.5" ry="2.5" style="stroke:#181818;stroke-width:0.5;" width="143.5215" x="457.44" y="226.2969"/><ellipse cx="472.44" cy="242.2969" fill="#ADD1B2" rx="11" ry="11" style="stroke:#181818;stroke-width:1;"/><path d="M475.4088,247.9375 Q474.8306,248.2344 474.19,248.375 Q473.5494,248.5313 472.8463,248.5313 Q470.3463,248.5313 469.0181,246.8906 Q467.7056,245.2344 467.7056,242.1094 Q467.7056,238.9844 469.0181,237.3281 Q470.3463,235.6719 472.8463,235.6719 Q473.5494,235.6719 474.19,235.8281 Q474.8463,235.9844 475.4088,236.2813 L475.4088,239 Q474.7838,238.4219 474.19,238.1563 Q473.5963,237.875 472.9713,237.875 Q471.6275,237.875 470.94,238.9531 Q470.2525,240.0156 470.2525,242.1094 Q470.2525,244.2031 470.94,245.2813 Q471.6275,246.3438 472.9713,246.3438 Q473.5963,246.3438 474.19,246.0781 Q474.7838,245.7969 475.4088,245.2188 L475.4088,247.9375 Z " fill="#000000"/><text fill="#000000" font-family="sans-serif" font-size="14" lengthAdjust="spacing" textLength="111.5215" x="486.44" y="247.1436">TicketController</text><line style="stroke:#181818;stroke-width:0.5;" x1="458.44" x2="599.9615" y1="258.2969" y2="258.2969"/><line style="stroke:#181818;stroke-width:0.5;" x1="458.44" x2="599.9615" y1="266.2969" y2="266.2969"/></g><!--class Mesa--><g class="entity" data-qualified-name="Modelos.Mesa" data-source-line="14" id="ent0008"><rect fill="#F1F1F1" height="48" rx="2.5" ry="2.5" style="stroke:#181818;stroke-width:0.5;" width="68.5654" x="196.92" y="374.2969"/><ellipse cx="211.92" cy="390.2969" fill="#ADD1B2" rx="11" ry="11" style="stroke:#181818;stroke-width:1;"/><path d="M214.8888,395.9375 Q214.3106,396.2344 213.67,396.375 Q213.0294,396.5313 212.3263,396.5313 Q209.8263,396.5313 208.4981,394.8906 Q207.1856,393.2344 207.1856,390.1094 Q207.1856,386.9844 208.4981,385.3281 Q209.8263,383.6719 212.3263,383.6719 Q213.0294,383.6719 213.67,383.8281 Q214.3263,383.9844 214.8888,384.2813 L214.8888,387 Q214.2638,386.4219 213.67,386.1563 Q213.0763,385.875 212.4513,385.875 Q211.1075,385.875 210.42,386.9531 Q209.7325,388.0156 209.7325,390.1094 Q209.7325,392.2031 210.42,393.2813 Q211.1075,394.3438 212.4513,394.3438 Q213.0763,394.3438 213.67,394.0781 Q214.2638,393.7969 214.8888,393.2188 L214.8888,395.9375 Z " fill="#000000"/><text fill="#000000" font-family="sans-serif" font-size="14" lengthAdjust="spacing" textLength="36.5654" x="225.92" y="395.1436">Mesa</text><line style="stroke:#181818;stroke-width:0.5;" x1="197.92" x2="264.4854" y1="406.2969" y2="406.2969"/><line style="stroke:#181818;stroke-width:0.5;" x1="197.92" x2="264.4854" y1="414.2969" y2="414.2969"/></g><!--class Zona--><g class="entity" data-qualified-name="Modelos.Zona" data-source-line="15" id="ent0009"><rect fill="#F1F1F1" height="48" rx="2.5" ry="2.5" style="stroke:#181818;stroke-width:0.5;" width="67.6084" x="300.4" y="374.2969"/><ellipse cx="315.4" cy="390.2969" fill="#ADD1B2" rx="11" ry="11" style="stroke:#181818;stroke-width:1;"/><path d="M318.3688,395.9375 Q317.7906,396.2344 317.15,396.375 Q316.5094,396.5313 315.8063,396.5313 Q313.3063,396.5313 311.9781,394.8906 Q310.6656,393.2344 310.6656,390.1094 Q310.6656,386.9844 311.9781,385.3281 Q313.3063,383.6719 315.8063,383.6719 Q316.5094,383.6719 317.15,383.8281 Q317.8063,383.9844 318.3688,384.2813 L318.3688,387 Q317.7438,386.4219 317.15,386.1563 Q316.5563,385.875 315.9313,385.875 Q314.5875,385.875 313.9,386.9531 Q313.2125,388.0156 313.2125,390.1094 Q313.2125,392.2031 313.9,393.2813 Q314.5875,394.3438 315.9313,394.3438 Q316.5563,394.3438 317.15,394.0781 Q317.7438,393.7969 318.3688,393.2188 L318.3688,395.9375 Z " fill="#000000"/><text fill="#000000" font-family="sans-serif" font-size="14" lengthAdjust="spacing" textLength="35.6084" x="329.4" y="395.1436">Zona</text><line style="stroke:#181818;stroke-width:0.5;" x1="301.4" x2="367.0084" y1="406.2969" y2="406.2969"/><line style="stroke:#181818;stroke-width:0.5;" x1="301.4" x2="367.0084" y1="414.2969" y2="414.2969"/></g><!--class Comanda--><g class="entity" data-qualified-name="Modelos.Comanda" data-source-line="16" id="ent0010"><rect fill="#F1F1F1" height="48" rx="2.5" ry="2.5" style="stroke:#181818;stroke-width:0.5;" width="98.8965" x="402.75" y="374.2969"/><ellipse cx="417.75" cy="390.2969" fill="#ADD1B2" rx="11" ry="11" style="stroke:#181818;stroke-width:1;"/><path d="M420.7188,395.9375 Q420.1406,396.2344 419.5,396.375 Q418.8594,396.5313 418.1563,396.5313 Q415.6563,396.5313 414.3281,394.8906 Q413.0156,393.2344 413.0156,390.1094 Q413.0156,386.9844 414.3281,385.3281 Q415.6563,383.6719 418.1563,383.6719 Q418.8594,383.6719 419.5,383.8281 Q420.1563,383.9844 420.7188,384.2813 L420.7188,387 Q420.0938,386.4219 419.5,386.1563 Q418.9063,385.875 418.2813,385.875 Q416.9375,385.875 416.25,386.9531 Q415.5625,388.0156 415.5625,390.1094 Q415.5625,392.2031 416.25,393.2813 Q416.9375,394.3438 418.2813,394.3438 Q418.9063,394.3438 419.5,394.0781 Q420.0938,393.7969 420.7188,393.2188 L420.7188,395.9375 Z " fill="#000000"/><text fill="#000000" font-family="sans-serif" font-size="14" lengthAdjust="spacing" textLength="66.8965" x="431.75" y="395.1436">Comanda</text><line style="stroke:#181818;stroke-width:0.5;" x1="403.75" x2="500.6465" y1="406.2969" y2="406.2969"/><line style="stroke:#181818;stroke-width:0.5;" x1="403.75" x2="500.6465" y1="414.2969" y2="414.2969"/></g><!--class LineaComanda--><g class="entity" data-qualified-name="Modelos.LineaComanda" data-source-line="17" id="ent0011"><rect fill="#F1F1F1" height="48" rx="2.5" ry="2.5" style="stroke:#181818;stroke-width:0.5;" width="136.6514" x="536.88" y="374.2969"/><ellipse cx="551.88" cy="390.2969" fill="#ADD1B2" rx="11" ry="11" style="stroke:#181818;stroke-width:1;"/><path d="M554.8488,395.9375 Q554.2706,396.2344 553.63,396.375 Q552.9894,396.5313 552.2863,396.5313 Q549.7863,396.5313 548.4581,394.8906 Q547.1456,393.2344 547.1456,390.1094 Q547.1456,386.9844 548.4581,385.3281 Q549.7863,383.6719 552.2863,383.6719 Q552.9894,383.6719 553.63,383.8281 Q554.2863,383.9844 554.8488,384.2813 L554.8488,387 Q554.2238,386.4219 553.63,386.1563 Q553.0363,385.875 552.4113,385.875 Q551.0675,385.875 550.38,386.9531 Q549.6925,388.0156 549.6925,390.1094 Q549.6925,392.2031 550.38,393.2813 Q551.0675,394.3438 552.4113,394.3438 Q553.0363,394.3438 553.63,394.0781 Q554.2238,393.7969 554.8488,393.2188 L554.8488,395.9375 Z " fill="#000000"/><text fill="#000000" font-family="sans-serif" font-size="14" lengthAdjust="spacing" textLength="104.6514" x="565.88" y="395.1436">LineaComanda</text><line style="stroke:#181818;stroke-width:0.5;" x1="537.88" x2="672.5314" y1="406.2969" y2="406.2969"/><line style="stroke:#181818;stroke-width:0.5;" x1="537.88" x2="672.5314" y1="414.2969" y2="414.2969"/></g><!--class Ticket--><g class="entity" data-qualified-name="Modelos.Ticket" data-source-line="18" id="ent0012"><rect fill="#F1F1F1" height="48" rx="2.5" ry="2.5" style="stroke:#181818;stroke-width:0.5;" width="74.3486" x="709.03" y="374.2969"/><ellipse cx="724.03" cy="390.2969" fill="#ADD1B2" rx="11" ry="11" style="stroke:#181818;stroke-width:1;"/><path d="M726.9988,395.9375 Q726.4206,396.2344 725.78,396.375 Q725.1394,396.5313 724.4363,396.5313 Q721.9363,396.5313 720.6081,394.8906 Q719.2956,393.2344 719.2956,390.1094 Q719.2956,386.9844 720.6081,385.3281 Q721.9363,383.6719 724.4363,383.6719 Q725.1394,383.6719 725.78,383.8281 Q726.4363,383.9844 726.9988,384.2813 L726.9988,387 Q726.3738,386.4219 725.78,386.1563 Q725.1863,385.875 724.5613,385.875 Q723.2175,385.875 722.53,386.9531 Q721.8425,388.0156 721.8425,390.1094 Q721.8425,392.2031 722.53,393.2813 Q723.2175,394.3438 724.5613,394.3438 Q725.1863,394.3438 725.78,394.0781 Q726.3738,393.7969 726.9988,393.2188 L726.9988,395.9375 Z " fill="#000000"/><text fill="#000000" font-family="sans-serif" font-size="14" lengthAdjust="spacing" textLength="42.3486" x="738.03" y="395.1436">Ticket</text><line style="stroke:#181818;stroke-width:0.5;" x1="710.03" x2="782.3786" y1="406.2969" y2="406.2969"/><line style="stroke:#181818;stroke-width:0.5;" x1="710.03" x2="782.3786" y1="414.2969" y2="414.2969"/></g><!--class LogAuditoria--><g class="entity" data-qualified-name="Modelos.LogAuditoria" data-source-line="19" id="ent0013"><rect fill="#F1F1F1" height="48" rx="2.5" ry="2.5" style="stroke:#181818;stroke-width:0.5;" width="120.7578" x="818.82" y="374.2969"/><ellipse cx="833.82" cy="390.2969" fill="#ADD1B2" rx="11" ry="11" style="stroke:#181818;stroke-width:1;"/><path d="M836.7888,395.9375 Q836.2106,396.2344 835.57,396.375 Q834.9294,396.5313 834.2263,396.5313 Q831.7263,396.5313 830.3981,394.8906 Q829.0856,393.2344 829.0856,390.1094 Q829.0856,386.9844 830.3981,385.3281 Q831.7263,383.6719 834.2263,383.6719 Q834.9294,383.6719 835.57,383.8281 Q836.2263,383.9844 836.7888,384.2813 L836.7888,387 Q836.1638,386.4219 835.57,386.1563 Q834.9763,385.875 834.3513,385.875 Q833.0075,385.875 832.32,386.9531 Q831.6325,388.0156 831.6325,390.1094 Q831.6325,392.2031 832.32,393.2813 Q833.0075,394.3438 834.3513,394.3438 Q834.9763,394.3438 835.57,394.0781 Q836.1638,393.7969 836.7888,393.2188 L836.7888,395.9375 Z " fill="#000000"/><text fill="#000000" font-family="sans-serif" font-size="14" lengthAdjust="spacing" textLength="88.7578" x="847.82" y="395.1436">LogAuditoria</text><line style="stroke:#181818;stroke-width:0.5;" x1="819.82" x2="938.5778" y1="406.2969" y2="406.2969"/><line style="stroke:#181818;stroke-width:0.5;" x1="819.82" x2="938.5778" y1="414.2969" y2="414.2969"/></g><!--link ComandaView to TicketController--><g class="link" data-entity-1="ent0003" data-entity-2="ent0006" data-link-type="dependency" data-source-line="22" id="lnk14"><path codeLine="22" d="M439.38,126.7769 C432.24,141.2469 426.68,159.9069 434.2,175.2969 C444.67,196.7069 459.616,210.4621 478.566,222.7521" fill="none" id="ComandaView-to-TicketController" style="stroke:#181818;stroke-width:1;"/><polygon fill="#181818" points="483.6,226.0169,478.2255,217.7637,479.405,223.2962,473.8725,224.4757,483.6,226.0169" style="stroke:#181818;stroke-width:1;"/><text fill="#000000" font-family="sans-serif" font-size="13" lengthAdjust="spacing" textLength="133.6689" x="435.2" y="171.3638">solicitar envio a caja</text></g><!--link TicketController to Mesa--><g class="link" data-entity-1="ent0006" data-entity-2="ent0008" data-link-type="dependency" data-source-line="23" id="lnk15"><path codeLine="23" d="M457.04,254.3969 C330.1,260.6069 77.71,276.5669 51.2,306.2969 C6,357.0069 126.7475,382.2197 190.7575,391.8997" fill="none" id="TicketController-to-Mesa" style="stroke:#181818;stroke-width:1;"/><polygon fill="#181818" points="196.69,392.7969,188.3893,387.4961,191.7462,392.0492,187.1931,395.4062,196.69,392.7969" style="stroke:#181818;stroke-width:1;"/><text fill="#000000" font-family="sans-serif" font-size="13" lengthAdjust="spacing" textLength="177.0933" x="52.2" y="319.3638">verificar estado de la mesa</text></g><!--link TicketController to Comanda--><g class="link" data-entity-1="ent0006" data-entity-2="ent0010" data-link-type="dependency" data-source-line="24" id="lnk16"><path codeLine="24" d="M457.16,274.5369 C443.26,282.3969 430.47,292.7469 422.2,306.2969 C409.29,327.4569 418.2891,349.7833 430.8091,368.9533" fill="none" id="TicketController-to-Comanda" style="stroke:#181818;stroke-width:1;"/><polygon fill="#181818" points="434.09,373.9769,432.5177,364.2543,431.3559,369.7906,425.8197,368.6288,434.09,373.9769" style="stroke:#181818;stroke-width:1;"/><text fill="#000000" font-family="sans-serif" font-size="13" lengthAdjust="spacing" textLength="158.8184" x="423.2" y="319.3638">obtener comanda activa</text></g><!--link TicketController to LineaComanda--><g class="link" data-entity-1="ent0006" data-entity-2="ent0011" data-link-type="dependency" data-source-line="25" id="lnk17"><path codeLine="25" d="M562.89,274.5469 C573.2,283.3269 583.57,294.1569 590.2,306.2969 C601.64,327.2269 604.6381,348.6306 605.3181,367.8706" fill="none" id="TicketController-to-LineaComanda" style="stroke:#181818;stroke-width:1;"/><polygon fill="#181818" points="605.53,373.8669,609.2096,364.7312,605.3534,368.87,601.2146,365.0138,605.53,373.8669" style="stroke:#181818;stroke-width:1;"/><text fill="#000000" font-family="sans-serif" font-size="13" lengthAdjust="spacing" textLength="176.7949" x="597.2" y="319.3638">obtener desglose de platos</text></g><!--link TicketController to Zona--><g class="link" data-entity-1="ent0006" data-entity-2="ent0009" data-link-type="dependency" data-source-line="26" id="lnk18"><path codeLine="26" d="M457.05,255.0869 C381.93,260.7269 271.57,274.3369 245.2,306.2969 C217.74,339.5869 278.53,328.3669 283.2,331.2969 C299.76,341.6869 309.9142,354.3454 318.7642,368.8454" fill="none" id="TicketController-to-Zona" style="stroke:#181818;stroke-width:1;"/><polygon fill="#181818" points="321.89,373.9669,320.6155,364.2008,319.2851,369.699,313.7869,368.3686,321.89,373.9669" style="stroke:#181818;stroke-width:1;"/><text fill="#000000" font-family="sans-serif" font-size="13" lengthAdjust="spacing" textLength="161.624" x="246.2" y="319.3638">obtener zona de la mesa</text></g><!--link TicketController to Ticket--><g class="link" data-entity-1="ent0006" data-entity-2="ent0012" data-link-type="dependency" data-source-line="27" id="lnk19"><path codeLine="27" d="M601.3,257.0469 C667.9,264.0369 759.81,278.5169 782.2,306.2969 C798.3,326.2669 786.5725,349.6176 771.2225,369.2776" fill="none" id="TicketController-to-Ticket" style="stroke:#181818;stroke-width:1;"/><polygon fill="#181818" points="767.53,374.0069,776.2215,369.3747,770.6071,370.0658,769.9159,364.4514,767.53,374.0069" style="stroke:#181818;stroke-width:1;"/><text fill="#000000" font-family="sans-serif" font-size="13" lengthAdjust="spacing" textLength="91.7554" x="789.2" y="319.3638">generar ticket</text></g><!--link TicketController to LogAuditoria--><g class="link" data-entity-1="ent0006" data-entity-2="ent0013" data-link-type="dependency" data-source-line="28" id="lnk20"><path codeLine="28" d="M601.28,251.6669 C695.5,253.8669 852.85,263.9669 889.2,306.2969 C905.05,324.7469 900.566,348.0593 892.636,368.3293" fill="none" id="TicketController-to-LogAuditoria" style="stroke:#181818;stroke-width:1;"/><polygon fill="#181818" points="890.45,373.9169,897.4541,366.9928,892.2717,369.2605,890.0039,364.0781,890.45,373.9169" style="stroke:#181818;stroke-width:1;"/><text fill="#000000" font-family="sans-serif" font-size="13" lengthAdjust="spacing" textLength="95.3608" x="898.2" y="319.3638">registrar envio</text></g><!--link TicketController to CajaView--><g class="link" data-entity-1="ent0006" data-entity-2="ent0004" data-link-type="dependency" data-source-line="29" id="lnk21"><path codeLine="29" d="M546.2,226.1169 C556.11,211.9269 568.35,193.1269 577.2,175.2969 C585.01,159.5869 589.8323,146.6485 594.4623,132.2585" fill="none" id="TicketController-to-CajaView" style="stroke:#181818;stroke-width:1;"/><polygon fill="#181818" points="596.3,126.5469,589.7357,133.8892,594.7686,131.3066,597.3512,136.3395,596.3,126.5469" style="stroke:#181818;stroke-width:1;"/><text fill="#000000" font-family="sans-serif" font-size="13" lengthAdjust="spacing" textLength="149.0874" x="584.2" y="171.3638">poner ticket disponible</text></g><?plantuml-src XP8_JmCn3CNt-nHMznkGc1YGq8cDRj2XcvkOasaQdv9mI22-EqwRNjC_9qQ_-1S_FpbnSWJTMtjt3oqy-v4nG6ApfGG81Z-mQPe1pHPxWiMAOy85_3G0nc6CqCaElSKLqzT9KsWl_5Pa9pu5SMWbKAn_UDtFAi-EmXcr54jEplgN574grkBnqijKlx0dl1GFuquzqZzzMauI6FFaQXzesyShT_00KHmRJXeJQLfoJEcgC-FPh28Z1Nvdan7DpmfO0eUmowlSv8eDHMMJoAjgYe8cyJX3rGjNgANOQuYKfmuEayJRU0wpmhvp-P_HWwXKdvdfT6RyLM4h4gZNSmh786UIACUa_ODaM-KsBKUjUUFe3m00?></g></svg>