<svg xmlns="http://www.w3.org/2000/svg" xmlns:xlink="http://www.w3.org/1999/xlink" contentStyleType="text/css" data-diagram-type="CLASS" height="451px" preserveAspectRatio="none" style="width:1099px;height:451px;background:#FFFFFF;" version="1.1" viewBox="0 0 1099 451" width="1099px" zoomAndPan="magnify"><?plantuml 1.2026.3beta6?><defs/><g><g class="title" data-source-line="1"><text fill="#000000" font-family="sans-serif" font-size="14" font-weight="700" lengthAdjust="spacing" textLength="188.8633" x="451.5684" y="22.9951">CU-06 - Tomar comanda</text></g><!--cluster Vista--><g class="cluster" data-qualified-name="Vista" data-source-line="4" id="ent0002"><path d="M57.5,43.2969 L98.6064,43.2969 A3.75,3.75 0 0 1 101.1064,45.7969 L108.1064,65.5938 L216.5,65.5938 A2.5,2.5 0 0 1 219,68.0938 L219,139.7969 A2.5,2.5 0 0 1 216.5,142.2969 L57.5,142.2969 A2.5,2.5 0 0 1 55,139.7969 L55,45.7969 A2.5,2.5 0 0 1 57.5,43.2969" fill="none" style="stroke:#000000;stroke-width:1.5;"/><line style="stroke:#000000;stroke-width:1.5;" x1="55" x2="108.1064" y1="65.5938" y2="65.5938"/><text fill="#000000" font-family="sans-serif" font-size="14" font-weight="700" lengthAdjust="spacing" textLength="40.1064" x="59" y="58.292">Vista</text></g><!--cluster Controladores--><g class="cluster" data-qualified-name="Controladores" data-source-line="8" id="ent0004"><path d="M8.5,191.2969 L121.1924,191.2969 A3.75,3.75 0 0 1 123.6924,193.7969 L130.6924,213.5938 L234.5,213.5938 A2.5,2.5 0 0 1 237,216.0938 L237,433.7969 A2.5,2.5 0 0 1 234.5,436.2969 L8.5,436.2969 A2.5,2.5 0 0 1 6,433.7969 L6,193.7969 A2.5,2.5 0 0 1 8.5,191.2969" fill="none" style="stroke:#000000;stroke-width:1.5;"/><line style="stroke:#000000;stroke-width:1.5;" x1="6" x2="130.6924" y1="213.5938" y2="213.5938"/><text fill="#000000" font-family="sans-serif" font-size="14" font-weight="700" lengthAdjust="spacing" textLength="111.6924" x="10" y="206.292">Controladores</text></g><!--cluster Modelos--><g class="cluster" data-qualified-name="Modelos" data-source-line="13" id="ent0007"><path d="M276.5,337.2969 L343.3164,337.2969 A3.75,3.75 0 0 1 345.8164,339.7969 L352.8164,359.5938 L1081.5,359.5938 A2.5,2.5 0 0 1 1084,362.0938 L1084,433.7969 A2.5,2.5 0 0 1 1081.5,436.2969 L276.5,436.2969 A2.5,2.5 0 0 1 274,433.7969 L274,339.7969 A2.5,2.5 0 0 1 276.5,337.2969" fill="none" style="stroke:#000000;stroke-width:1.5;"/><line style="stroke:#000000;stroke-width:1.5;" x1="274" x2="352.8164" y1="359.5938" y2="359.5938"/><text fill="#000000" font-family="sans-serif" font-size="14" font-weight="700" lengthAdjust="spacing" textLength="65.8164" x="278" y="352.292">Modelos</text></g><!--class ComandaView--><g class="entity" data-qualified-name="Vista.ComandaView" data-source-line="5" id="ent0003"><rect fill="#F1F1F1" height="48" rx="2.5" ry="2.5" style="stroke:#181818;stroke-width:0.5;" width="132.4268" x="70.79" y="78.2969"/><ellipse cx="85.79" cy="94.2969" fill="#ADD1B2" rx="11" ry="11" style="stroke:#181818;stroke-width:1;"/><path d="M88.7588,99.9375 Q88.1806,100.2344 87.54,100.375 Q86.8994,100.5313 86.1963,100.5313 Q83.6963,100.5313 82.3681,98.8906 Q81.0556,97.2344 81.0556,94.1094 Q81.0556,90.9844 82.3681,89.3281 Q83.6963,87.6719 86.1963,87.6719 Q86.8994,87.6719 87.54,87.8281 Q88.1963,87.9844 88.7588,88.2813 L88.7588,91 Q88.1338,90.4219 87.54,90.1563 Q86.9463,89.875 86.3213,89.875 Q84.9775,89.875 84.29,90.9531 Q83.6025,92.0156 83.6025,94.1094 Q83.6025,96.2031 84.29,97.2813 Q84.9775,98.3438 86.3213,98.3438 Q86.9463,98.3438 87.54,98.0781 Q88.1338,97.7969 88.7588,97.2188 L88.7588,99.9375 Z " fill="#000000"/><text fill="#000000" font-family="sans-serif" font-size="14" lengthAdjust="spacing" textLength="100.4268" x="99.79" y="99.1436">ComandaView</text><line style="stroke:#181818;stroke-width:0.5;" x1="71.79" x2="202.2168" y1="110.2969" y2="110.2969"/><line style="stroke:#181818;stroke-width:0.5;" x1="71.79" x2="202.2168" y1="118.2969" y2="118.2969"/></g><!--class ComandaController--><g class="entity" data-qualified-name="Controladores.ComandaController" data-source-line="9" id="ent0005"><rect fill="#F1F1F1" height="48" rx="2.5" ry="2.5" style="stroke:#181818;stroke-width:0.5;" width="168.0693" x="52.97" y="226.2969"/><ellipse cx="67.97" cy="242.2969" fill="#ADD1B2" rx="11" ry="11" style="stroke:#181818;stroke-width:1;"/><path d="M70.9388,247.9375 Q70.3606,248.2344 69.72,248.375 Q69.0794,248.5313 68.3763,248.5313 Q65.8763,248.5313 64.5481,246.8906 Q63.2356,245.2344 63.2356,242.1094 Q63.2356,238.9844 64.5481,237.3281 Q65.8763,235.6719 68.3763,235.6719 Q69.0794,235.6719 69.72,235.8281 Q70.3763,235.9844 70.9388,236.2813 L70.9388,239 Q70.3138,238.4219 69.72,238.1563 Q69.1263,237.875 68.5013,237.875 Q67.1575,237.875 66.47,238.9531 Q65.7825,240.0156 65.7825,242.1094 Q65.7825,244.2031 66.47,245.2813 Q67.1575,246.3438 68.5013,246.3438 Q69.1263,246.3438 69.72,246.0781 Q70.3138,245.7969 70.9388,245.2188 L70.9388,247.9375 Z " fill="#000000"/><text fill="#000000" font-family="sans-serif" font-size="14" lengthAdjust="spacing" textLength="136.0693" x="81.97" y="247.1436">ComandaController</text><line style="stroke:#181818;stroke-width:0.5;" x1="53.97" x2="220.0393" y1="258.2969" y2="258.2969"/><line style="stroke:#181818;stroke-width:0.5;" x1="53.97" x2="220.0393" y1="266.2969" y2="266.2969"/></g><!--class KDSController--><g class="entity" data-qualified-name="Controladores.KDSController" data-source-line="10" id="ent0006"><rect fill="#F1F1F1" height="48" rx="2.5" ry="2.5" style="stroke:#181818;stroke-width:0.5;" width="130.0205" x="21.99" y="372.2969"/><ellipse cx="36.99" cy="388.2969" fill="#ADD1B2" rx="11" ry="11" style="stroke:#181818;stroke-width:1;"/><path d="M39.9587,393.9375 Q39.3806,394.2344 38.74,394.375 Q38.0994,394.5313 37.3962,394.5313 Q34.8962,394.5313 33.5681,392.8906 Q32.2556,391.2344 32.2556,388.1094 Q32.2556,384.9844 33.5681,383.3281 Q34.8962,381.6719 37.3962,381.6719 Q38.0994,381.6719 38.74,381.8281 Q39.3962,381.9844 39.9587,382.2813 L39.9587,385 Q39.3337,384.4219 38.74,384.1563 Q38.1462,383.875 37.5212,383.875 Q36.1775,383.875 35.49,384.9531 Q34.8025,386.0156 34.8025,388.1094 Q34.8025,390.2031 35.49,391.2813 Q36.1775,392.3438 37.5212,392.3438 Q38.1462,392.3438 38.74,392.0781 Q39.3337,391.7969 39.9587,391.2188 L39.9587,393.9375 Z " fill="#000000"/><text fill="#000000" font-family="sans-serif" font-size="14" lengthAdjust="spacing" textLength="98.0205" x="50.99" y="393.1436">KDSController</text><line style="stroke:#181818;stroke-width:0.5;" x1="22.99" x2="151.0105" y1="404.2969" y2="404.2969"/><line style="stroke:#181818;stroke-width:0.5;" x1="22.99" x2="151.0105" y1="412.2969" y2="412.2969"/></g><!--class Mesa--><g class="entity" data-qualified-name="Modelos.Mesa" data-source-line="14" id="ent0008"><rect fill="#F1F1F1" height="48" rx="2.5" ry="2.5" style="stroke:#181818;stroke-width:0.5;" width="68.5654" x="289.72" y="372.2969"/><ellipse cx="304.72" cy="388.2969" fill="#ADD1B2" rx="11" ry="11" style="stroke:#181818;stroke-width:1;"/><path d="M307.6888,393.9375 Q307.1106,394.2344 306.47,394.375 Q305.8294,394.5313 305.1263,394.5313 Q302.6263,394.5313 301.2981,392.8906 Q299.9856,391.2344 299.9856,388.1094 Q299.9856,384.9844 301.2981,383.3281 Q302.6263,381.6719 305.1263,381.6719 Q305.8294,381.6719 306.47,381.8281 Q307.1263,381.9844 307.6888,382.2813 L307.6888,385 Q307.0638,384.4219 306.47,384.1563 Q305.8763,383.875 305.2513,383.875 Q303.9075,383.875 303.22,384.9531 Q302.5325,386.0156 302.5325,388.1094 Q302.5325,390.2031 303.22,391.2813 Q303.9075,392.3438 305.2513,392.3438 Q305.8763,392.3438 306.47,392.0781 Q307.0638,391.7969 307.6888,391.2188 L307.6888,393.9375 Z " fill="#000000"/><text fill="#000000" font-family="sans-serif" font-size="14" lengthAdjust="spacing" textLength="36.5654" x="318.72" y="393.1436">Mesa</text><line style="stroke:#181818;stroke-width:0.5;" x1="290.72" x2="357.2854" y1="404.2969" y2="404.2969"/><line style="stroke:#181818;stroke-width:0.5;" x1="290.72" x2="357.2854" y1="412.2969" y2="412.2969"/></g><!--class Comanda--><g class="entity" data-qualified-name="Modelos.Comanda" data-source-line="15" id="ent0009"><rect fill="#F1F1F1" height="48" rx="2.5" ry="2.5" style="stroke:#181818;stroke-width:0.5;" width="98.8965" x="393.55" y="372.2969"/><ellipse cx="408.55" cy="388.2969" fill="#ADD1B2" rx="11" ry="11" style="stroke:#181818;stroke-width:1;"/><path d="M411.5188,393.9375 Q410.9406,394.2344 410.3,394.375 Q409.6594,394.5313 408.9563,394.5313 Q406.4563,394.5313 405.1281,392.8906 Q403.8156,391.2344 403.8156,388.1094 Q403.8156,384.9844 405.1281,383.3281 Q406.4563,381.6719 408.9563,381.6719 Q409.6594,381.6719 410.3,381.8281 Q410.9563,381.9844 411.5188,382.2813 L411.5188,385 Q410.8938,384.4219 410.3,384.1563 Q409.7063,383.875 409.0813,383.875 Q407.7375,383.875 407.05,384.9531 Q406.3625,386.0156 406.3625,388.1094 Q406.3625,390.2031 407.05,391.2813 Q407.7375,392.3438 409.0813,392.3438 Q409.7063,392.3438 410.3,392.0781 Q410.8938,391.7969 411.5188,391.2188 L411.5188,393.9375 Z " fill="#000000"/><text fill="#000000" font-family="sans-serif" font-size="14" lengthAdjust="spacing" textLength="66.8965" x="422.55" y="393.1436">Comanda</text><line style="stroke:#181818;stroke-width:0.5;" x1="394.55" x2="491.4465" y1="404.2969" y2="404.2969"/><line style="stroke:#181818;stroke-width:0.5;" x1="394.55" x2="491.4465" y1="412.2969" y2="412.2969"/></g><!--class LineaComanda--><g class="entity" data-qualified-name="Modelos.LineaComanda" data-source-line="16" id="ent0010"><rect fill="#F1F1F1" height="48" rx="2.5" ry="2.5" style="stroke:#181818;stroke-width:0.5;" width="136.6514" x="527.67" y="372.2969"/><ellipse cx="542.67" cy="388.2969" fill="#ADD1B2" rx="11" ry="11" style="stroke:#181818;stroke-width:1;"/><path d="M545.6388,393.9375 Q545.0606,394.2344 544.42,394.375 Q543.7794,394.5313 543.0763,394.5313 Q540.5763,394.5313 539.2481,392.8906 Q537.9356,391.2344 537.9356,388.1094 Q537.9356,384.9844 539.2481,383.3281 Q540.5763,381.6719 543.0763,381.6719 Q543.7794,381.6719 544.42,381.8281 Q545.0763,381.9844 545.6388,382.2813 L545.6388,385 Q545.0138,384.4219 544.42,384.1563 Q543.8263,383.875 543.2013,383.875 Q541.8575,383.875 541.17,384.9531 Q540.4825,386.0156 540.4825,388.1094 Q540.4825,390.2031 541.17,391.2813 Q541.8575,392.3438 543.2013,392.3438 Q543.8263,392.3438 544.42,392.0781 Q545.0138,391.7969 545.6388,391.2188 L545.6388,393.9375 Z " fill="#000000"/><text fill="#000000" font-family="sans-serif" font-size="14" lengthAdjust="spacing" textLength="104.6514" x="556.67" y="393.1436">LineaComanda</text><line style="stroke:#181818;stroke-width:0.5;" x1="528.67" x2="663.3214" y1="404.2969" y2="404.2969"/><line style="stroke:#181818;stroke-width:0.5;" x1="528.67" x2="663.3214" y1="412.2969" y2="412.2969"/></g><!--class Plato--><g class="entity" data-qualified-name="Modelos.Plato" data-source-line="17" id="ent0011"><rect fill="#F1F1F1" height="48" rx="2.5" ry="2.5" style="stroke:#181818;stroke-width:0.5;" width="66.9658" x="699.52" y="372.2969"/><ellipse cx="714.52" cy="388.2969" fill="#ADD1B2" rx="11" ry="11" style="stroke:#181818;stroke-width:1;"/><path d="M717.4888,393.9375 Q716.9106,394.2344 716.27,394.375 Q715.6294,394.5313 714.9263,394.5313 Q712.4263,394.5313 711.0981,392.8906 Q709.7856,391.2344 709.7856,388.1094 Q709.7856,384.9844 711.0981,383.3281 Q712.4263,381.6719 714.9263,381.6719 Q715.6294,381.6719 716.27,381.8281 Q716.9263,381.9844 717.4888,382.2813 L717.4888,385 Q716.8638,384.4219 716.27,384.1563 Q715.6763,383.875 715.0513,383.875 Q713.7075,383.875 713.02,384.9531 Q712.3325,386.0156 712.3325,388.1094 Q712.3325,390.2031 713.02,391.2813 Q713.7075,392.3438 715.0513,392.3438 Q715.6763,392.3438 716.27,392.0781 Q716.8638,391.7969 717.4888,391.2188 L717.4888,393.9375 Z " fill="#000000"/><text fill="#000000" font-family="sans-serif" font-size="14" lengthAdjust="spacing" textLength="34.9658" x="728.52" y="393.1436">Plato</text><line style="stroke:#181818;stroke-width:0.5;" x1="700.52" x2="765.4858" y1="404.2969" y2="404.2969"/><line style="stroke:#181818;stroke-width:0.5;" x1="700.52" x2="765.4858" y1="412.2969" y2="412.2969"/></g><!--class TarifaMenu--><g class="entity" data-qualified-name="Modelos.TarifaMenu" data-source-line="18" id="ent0012"><rect fill="#F1F1F1" height="48" rx="2.5" ry="2.5" style="stroke:#181818;stroke-width:0.5;" width="110.7227" x="801.64" y="372.2969"/><ellipse cx="816.64" cy="388.2969" fill="#ADD1B2" rx="11" ry="11" style="stroke:#181818;stroke-width:1;"/><path d="M819.6088,393.9375 Q819.0306,394.2344 818.39,394.375 Q817.7494,394.5313 817.0463,394.5313 Q814.5463,394.5313 813.2181,392.8906 Q811.9056,391.2344 811.9056,388.1094 Q811.9056,384.9844 813.2181,383.3281 Q814.5463,381.6719 817.0463,381.6719 Q817.7494,381.6719 818.39,381.8281 Q819.0463,381.9844 819.6088,382.2813 L819.6088,385 Q818.9838,384.4219 818.39,384.1563 Q817.7963,383.875 817.1713,383.875 Q815.8275,383.875 815.14,384.9531 Q814.4525,386.0156 814.4525,388.1094 Q814.4525,390.2031 815.14,391.2813 Q815.8275,392.3438 817.1713,392.3438 Q817.7963,392.3438 818.39,392.0781 Q818.9838,391.7969 819.6088,391.2188 L819.6088,393.9375 Z " fill="#000000"/><text fill="#000000" font-family="sans-serif" font-size="14" lengthAdjust="spacing" textLength="78.7227" x="830.64" y="393.1436">TarifaMenu</text><line style="stroke:#181818;stroke-width:0.5;" x1="802.64" x2="911.3627" y1="404.2969" y2="404.2969"/><line style="stroke:#181818;stroke-width:0.5;" x1="802.64" x2="911.3627" y1="412.2969" y2="412.2969"/></g><!--class LogAuditoria--><g class="entity" data-qualified-name="Modelos.LogAuditoria" data-source-line="19" id="ent0013"><rect fill="#F1F1F1" height="48" rx="2.5" ry="2.5" style="stroke:#181818;stroke-width:0.5;" width="120.7578" x="947.62" y="372.2969"/><ellipse cx="962.62" cy="388.2969" fill="#ADD1B2" rx="11" ry="11" style="stroke:#181818;stroke-width:1;"/><path d="M965.5888,393.9375 Q965.0106,394.2344 964.37,394.375 Q963.7294,394.5313 963.0263,394.5313 Q960.5263,394.5313 959.1981,392.8906 Q957.8856,391.2344 957.8856,388.1094 Q957.8856,384.9844 959.1981,383.3281 Q960.5263,381.6719 963.0263,381.6719 Q963.7294,381.6719 964.37,381.8281 Q965.0263,381.9844 965.5888,382.2813 L965.5888,385 Q964.9638,384.4219 964.37,384.1563 Q963.7763,383.875 963.1513,383.875 Q961.8075,383.875 961.12,384.9531 Q960.4325,386.0156 960.4325,388.1094 Q960.4325,390.2031 961.12,391.2813 Q961.8075,392.3438 963.1513,392.3438 Q963.7763,392.3438 964.37,392.0781 Q964.9638,391.7969 965.5888,391.2188 L965.5888,393.9375 Z " fill="#000000"/><text fill="#000000" font-family="sans-serif" font-size="14" lengthAdjust="spacing" textLength="88.7578" x="976.62" y="393.1436">LogAuditoria</text><line style="stroke:#181818;stroke-width:0.5;" x1="948.62" x2="1067.3778" y1="404.2969" y2="404.2969"/><line style="stroke:#181818;stroke-width:0.5;" x1="948.62" x2="1067.3778" y1="412.2969" y2="412.2969"/></g><!--link ComandaView to ComandaController--><g class="link" data-entity-1="ent0003" data-entity-2="ent0005" data-link-type="dependency" data-source-line="22" id="lnk14"><path codeLine="22" d="M137,126.7569 C137,153.9969 137,192.6769 137,219.8969" fill="none" id="ComandaView-to-ComandaController" style="stroke:#181818;stroke-width:1;"/><polygon fill="#181818" points="137,225.8969,141,216.8969,137,220.8969,133,216.8969,137,225.8969" style="stroke:#181818;stroke-width:1;"/><text fill="#000000" font-family="sans-serif" font-size="13" lengthAdjust="spacing" textLength="120.0532" x="138" y="171.3638">registrar comanda</text></g><!--link ComandaController to Mesa--><g class="link" data-entity-1="ent0005" data-entity-2="ent0008" data-link-type="dependency" data-source-line="23" id="lnk15"><path codeLine="23" d="M177.72,274.7369 C192.07,283.4969 208.08,293.8669 222,304.2969 C250.3,325.4969 275.8711,348.7027 295.9311,367.8627" fill="none" id="ComandaController-to-Mesa" style="stroke:#181818;stroke-width:1;"/><polygon fill="#181818" points="300.27,372.0069,296.5245,362.898,296.6543,368.5534,290.9989,368.6832,300.27,372.0069" style="stroke:#181818;stroke-width:1;"/><text fill="#000000" font-family="sans-serif" font-size="13" lengthAdjust="spacing" textLength="152.7373" x="244" y="317.3638">verificar mesa ocupada</text></g><!--link ComandaController to Plato--><g class="link" data-entity-1="ent0005" data-entity-2="ent0011" data-link-type="dependency" data-source-line="24" id="lnk16"><path codeLine="24" d="M221.1,250.8069 C321.48,252.3669 493.4,261.8469 634,304.2969 C657.03,311.2469 663.55,313.8669 682,329.2969 C696.44,341.3769 706.0099,353.236 715.2299,366.876" fill="none" id="ComandaController-to-Plato" style="stroke:#181818;stroke-width:1;"/><polygon fill="#181818" points="718.59,371.8469,716.8638,362.1505,715.7899,367.7045,710.2359,366.6306,718.59,371.8469" style="stroke:#181818;stroke-width:1;"/><text fill="#000000" font-family="sans-serif" font-size="13" lengthAdjust="spacing" textLength="104.1587" x="673" y="317.3638">consultar platos</text></g><!--link ComandaController to TarifaMenu--><g class="link" data-entity-1="ent0005" data-entity-2="ent0012" data-link-type="dependency" data-source-line="25" id="lnk17"><path codeLine="25" d="M221.41,254.4169 C385.88,261.0469 737.47,278.1069 786,304.2969 C813.86,319.3369 831.5405,345.1913 843.1605,366.8213" fill="none" id="ComandaController-to-TarifaMenu" style="stroke:#181818;stroke-width:1;"/><polygon fill="#181818" points="846,372.1069,845.2645,362.2855,843.6338,367.7022,838.217,366.0715,846,372.1069" style="stroke:#181818;stroke-width:1;"/><text fill="#000000" font-family="sans-serif" font-size="13" lengthAdjust="spacing" textLength="123.8682" x="810" y="317.3638">aplicar tarifa menu</text></g><!--link ComandaController to Comanda--><g class="link" data-entity-1="ent0005" data-entity-2="ent0009" data-link-type="dependency" data-source-line="26" id="lnk18"><path codeLine="26" d="M221.28,259.2969 C289.01,267.2669 377.27,281.6369 405,304.2969 C425.55,321.0869 433.9104,345.0342 438.2904,365.9542" fill="none" id="ComandaController-to-Comanda" style="stroke:#181818;stroke-width:1;"/><polygon fill="#181818" points="439.52,371.8269,441.5908,362.1982,438.4954,366.933,433.7606,363.8376,439.52,371.8269" style="stroke:#181818;stroke-width:1;"/><text fill="#000000" font-family="sans-serif" font-size="13" lengthAdjust="spacing" textLength="98.1221" x="421" y="317.3638">crear comanda</text></g><!--link ComandaController to LineaComanda--><g class="link" data-entity-1="ent0005" data-entity-2="ent0010" data-link-type="dependency" data-source-line="27" id="lnk19"><path codeLine="27" d="M221.43,255.1469 C320.48,260.9669 477.6,274.6369 528,304.2969 C554.69,319.9969 571.4524,345.3433 582.5624,366.7133" fill="none" id="ComandaController-to-LineaComanda" style="stroke:#181818;stroke-width:1;"/><polygon fill="#181818" points="585.33,372.0369,584.7276,362.2065,583.0236,367.6006,577.6295,365.8967,585.33,372.0369" style="stroke:#181818;stroke-width:1;"/><text fill="#000000" font-family="sans-serif" font-size="13" lengthAdjust="spacing" textLength="76.1338" x="549" y="317.3638">crear lineas</text></g><!--link ComandaController to LogAuditoria--><g class="link" data-entity-1="ent0005" data-entity-2="ent0013" data-link-type="dependency" data-source-line="28" id="lnk20"><path codeLine="28" d="M221.44,252.8169 C415.25,256.8869 880.12,270.1269 942,304.2969 C968.99,319.2069 985.2048,344.972 995.6548,366.652" fill="none" id="ComandaController-to-LogAuditoria" style="stroke:#181818;stroke-width:1;"/><polygon fill="#181818" points="998.26,372.0569,997.9554,362.2127,996.089,367.5528,990.7489,365.6864,998.26,372.0569" style="stroke:#181818;stroke-width:1;"/><text fill="#000000" font-family="sans-serif" font-size="13" lengthAdjust="spacing" textLength="84.5063" x="965" y="317.3638">registrar alta</text></g><!--link ComandaController to KDSController--><g class="link" data-entity-1="ent0005" data-entity-2="ent0006" data-link-type="dependency" data-source-line="29" id="lnk21"><path codeLine="29" d="M83,274.7069 C71.41,282.3869 60.65,292.1569 54,304.2969 C42.05,326.1069 51.5497,348.1734 64.5497,367.0734" fill="none" id="ComandaController-to-KDSController" style="stroke:#181818;stroke-width:1;"/><polygon fill="#181818" points="67.95,372.0169,66.1452,362.3348,65.1164,367.8973,59.5539,366.8685,67.95,372.0169" style="stroke:#181818;stroke-width:1;"/><text fill="#000000" font-family="sans-serif" font-size="13" lengthAdjust="spacing" textLength="162.1382" x="55" y="317.3638">notificar nueva comanda</text></g><?plantuml-src XP8zQyCm48Pt_OeZko5JXmw5u6ofeT0q-o5VZAYYC_f8Xz3_tfFhEd8IqqMWL-zp7o-A9bg2-gDQFq45UpwX1osdQr4frQF-n8vWTJ0XuWek2a1R307gNy_1q9VwBemrk-ZPOikUmWDWVBVafvVTzhrGos8DjsHvLgQXWBSrf_khSOItufl5oDDjZzuSiI6NhXHtczIQoDvWRb-i1bNrSZyvF8EdJXBnHLZthipcSSL-9kbgjDXFMM2TUbnaXe45qkn2ib6WFYjXmNxTI1ZixT0c3g9qapqVOwEQ-tZwTuyosGcnMLmQgqnr5XZAIWlCx2S8v3YEiRb4P_oRyGS0?></g></svg>