<svg xmlns="http://www.w3.org/2000/svg" xmlns:xlink="http://www.w3.org/1999/xlink" contentStyleType="text/css" data-diagram-type="CLASS" height="945px" preserveAspectRatio="none" style="width:613px;height:945px;background:#FFFFFF;" version="1.1" viewBox="0 0 613 945" width="613px" zoomAndPan="magnify"><?plantuml 1.2026.3beta6?><defs/><g><!--cluster views--><g class="cluster" data-qualified-name="views" data-source-line="4" id="ent0002"><path d="M8.5,6 L54.1865,6 A3.75,3.75 0 0 1 56.6865,8.5 L63.6865,28.2969 L362.47,28.2969 A2.5,2.5 0 0 1 364.97,30.7969 L364.97,600.5 A2.5,2.5 0 0 1 362.47,603 L8.5,603 A2.5,2.5 0 0 1 6,600.5 L6,8.5 A2.5,2.5 0 0 1 8.5,6" fill="none" style="stroke:#000000;stroke-width:1.5;"/><line style="stroke:#000000;stroke-width:1.5;" x1="6" x2="63.6865" y1="28.2969" y2="28.2969"/><text fill="#000000" font-family="sans-serif" font-size="14" font-weight="700" lengthAdjust="spacing" textLength="44.6865" x="10" y="20.9951">views</text></g><!--cluster controllers--><g class="cluster" data-qualified-name="controllers" data-source-line="16" id="ent0011"><path d="M400.47,250 L486.8987,250 A3.75,3.75 0 0 1 489.3987,252.5 L496.3987,272.2969 L595.54,272.2969 A2.5,2.5 0 0 1 598.04,274.7969 L598.04,927.5 A2.5,2.5 0 0 1 595.54,930 L400.47,930 A2.5,2.5 0 0 1 397.97,927.5 L397.97,252.5 A2.5,2.5 0 0 1 400.47,250" fill="none" style="stroke:#000000;stroke-width:1.5;"/><line style="stroke:#000000;stroke-width:1.5;" x1="397.97" x2="496.3987" y1="272.2969" y2="272.2969"/><text fill="#000000" font-family="sans-serif" font-size="14" font-weight="700" lengthAdjust="spacing" textLength="85.4287" x="401.97" y="264.9951">controllers</text></g><!--class LoginView--><g class="entity" data-qualified-name="views.LoginView" data-source-line="5" id="ent0003"><rect fill="#F1F1F1" height="48" rx="2.5" ry="2.5" style="stroke:#181818;stroke-width:0.5;" width="103.5449" x="245.43" y="236"/><ellipse cx="260.43" cy="252" fill="#ADD1B2" rx="11" ry="11" style="stroke:#181818;stroke-width:1;"/><path d="M263.3988,257.6406 Q262.8206,257.9375 262.18,258.0781 Q261.5394,258.2344 260.8363,258.2344 Q258.3363,258.2344 257.0081,256.5938 Q255.6956,254.9375 255.6956,251.8125 Q255.6956,248.6875 257.0081,247.0313 Q258.3363,245.375 260.8363,245.375 Q261.5394,245.375 262.18,245.5313 Q262.8363,245.6875 263.3988,245.9844 L263.3988,248.7031 Q262.7738,248.125 262.18,247.8594 Q261.5863,247.5781 260.9613,247.5781 Q259.6175,247.5781 258.93,248.6563 Q258.2425,249.7188 258.2425,251.8125 Q258.2425,253.9063 258.93,254.9844 Q259.6175,256.0469 260.9613,256.0469 Q261.5863,256.0469 262.18,255.7813 Q262.7738,255.5 263.3988,254.9219 L263.3988,257.6406 Z " fill="#000000"/><text fill="#000000" font-family="sans-serif" font-size="14" lengthAdjust="spacing" textLength="71.5449" x="274.43" y="256.8467">LoginView</text><line style="stroke:#181818;stroke-width:0.5;" x1="246.43" x2="347.9749" y1="268" y2="268"/><line style="stroke:#181818;stroke-width:0.5;" x1="246.43" x2="347.9749" y1="276" y2="276"/></g><!--class MesasView--><g class="entity" data-qualified-name="views.MesasView" data-source-line="6" id="ent0004"><rect fill="#F1F1F1" height="48" rx="2.5" ry="2.5" style="stroke:#181818;stroke-width:0.5;" width="109.3896" x="33.52" y="41"/><ellipse cx="48.52" cy="57" fill="#ADD1B2" rx="11" ry="11" style="stroke:#181818;stroke-width:1;"/><path d="M51.4888,62.6406 Q50.9106,62.9375 50.27,63.0781 Q49.6294,63.2344 48.9263,63.2344 Q46.4263,63.2344 45.0981,61.5938 Q43.7856,59.9375 43.7856,56.8125 Q43.7856,53.6875 45.0981,52.0313 Q46.4263,50.375 48.9263,50.375 Q49.6294,50.375 50.27,50.5313 Q50.9263,50.6875 51.4888,50.9844 L51.4888,53.7031 Q50.8638,53.125 50.27,52.8594 Q49.6763,52.5781 49.0513,52.5781 Q47.7075,52.5781 47.02,53.6563 Q46.3325,54.7188 46.3325,56.8125 Q46.3325,58.9063 47.02,59.9844 Q47.7075,61.0469 49.0513,61.0469 Q49.6763,61.0469 50.27,60.7813 Q50.8638,60.5 51.4888,59.9219 L51.4888,62.6406 Z " fill="#000000"/><text fill="#000000" font-family="sans-serif" font-size="14" lengthAdjust="spacing" textLength="77.3896" x="62.52" y="61.8467">MesasView</text><line style="stroke:#181818;stroke-width:0.5;" x1="34.52" x2="141.9096" y1="73" y2="73"/><line style="stroke:#181818;stroke-width:0.5;" x1="34.52" x2="141.9096" y1="81" y2="81"/></g><!--class ComandaView--><g class="entity" data-qualified-name="views.ComandaView" data-source-line="7" id="ent0005"><rect fill="#F1F1F1" height="48" rx="2.5" ry="2.5" style="stroke:#181818;stroke-width:0.5;" width="132.4268" x="22" y="124"/><ellipse cx="37" cy="140" fill="#ADD1B2" rx="11" ry="11" style="stroke:#181818;stroke-width:1;"/><path d="M39.9688,145.6406 Q39.3906,145.9375 38.75,146.0781 Q38.1094,146.2344 37.4063,146.2344 Q34.9063,146.2344 33.5781,144.5938 Q32.2656,142.9375 32.2656,139.8125 Q32.2656,136.6875 33.5781,135.0313 Q34.9063,133.375 37.4063,133.375 Q38.1094,133.375 38.75,133.5313 Q39.4063,133.6875 39.9688,133.9844 L39.9688,136.7031 Q39.3438,136.125 38.75,135.8594 Q38.1563,135.5781 37.5313,135.5781 Q36.1875,135.5781 35.5,136.6563 Q34.8125,137.7188 34.8125,139.8125 Q34.8125,141.9063 35.5,142.9844 Q36.1875,144.0469 37.5313,144.0469 Q38.1563,144.0469 38.75,143.7813 Q39.3438,143.5 39.9688,142.9219 L39.9688,145.6406 Z " fill="#000000"/><text fill="#000000" font-family="sans-serif" font-size="14" lengthAdjust="spacing" textLength="100.4268" x="51" y="144.8467">ComandaView</text><line style="stroke:#181818;stroke-width:0.5;" x1="23" x2="153.4268" y1="156" y2="156"/><line style="stroke:#181818;stroke-width:0.5;" x1="23" x2="153.4268" y1="164" y2="164"/></g><!--class KDSView--><g class="entity" data-qualified-name="views.KDSView" data-source-line="8" id="ent0006"><rect fill="#F1F1F1" height="48" rx="2.5" ry="2.5" style="stroke:#181818;stroke-width:0.5;" width="94.3779" x="41.02" y="207"/><ellipse cx="56.02" cy="223" fill="#ADD1B2" rx="11" ry="11" style="stroke:#181818;stroke-width:1;"/><path d="M58.9888,228.6406 Q58.4106,228.9375 57.77,229.0781 Q57.1294,229.2344 56.4263,229.2344 Q53.9263,229.2344 52.5981,227.5938 Q51.2856,225.9375 51.2856,222.8125 Q51.2856,219.6875 52.5981,218.0313 Q53.9263,216.375 56.4263,216.375 Q57.1294,216.375 57.77,216.5313 Q58.4263,216.6875 58.9888,216.9844 L58.9888,219.7031 Q58.3638,219.125 57.77,218.8594 Q57.1763,218.5781 56.5513,218.5781 Q55.2075,218.5781 54.52,219.6563 Q53.8325,220.7188 53.8325,222.8125 Q53.8325,224.9063 54.52,225.9844 Q55.2075,227.0469 56.5513,227.0469 Q57.1763,227.0469 57.77,226.7813 Q58.3638,226.5 58.9888,225.9219 L58.9888,228.6406 Z " fill="#000000"/><text fill="#000000" font-family="sans-serif" font-size="14" lengthAdjust="spacing" textLength="62.3779" x="70.02" y="227.8467">KDSView</text><line style="stroke:#181818;stroke-width:0.5;" x1="42.02" x2="134.3979" y1="239" y2="239"/><line style="stroke:#181818;stroke-width:0.5;" x1="42.02" x2="134.3979" y1="247" y2="247"/></g><!--class ReservasView--><g class="entity" data-qualified-name="views.ReservasView" data-source-line="9" id="ent0007"><rect fill="#F1F1F1" height="48" rx="2.5" ry="2.5" style="stroke:#181818;stroke-width:0.5;" width="129.6924" x="23.37" y="290"/><ellipse cx="38.37" cy="306" fill="#ADD1B2" rx="11" ry="11" style="stroke:#181818;stroke-width:1;"/><path d="M41.3388,311.6406 Q40.7606,311.9375 40.12,312.0781 Q39.4794,312.2344 38.7763,312.2344 Q36.2763,312.2344 34.9481,310.5938 Q33.6356,308.9375 33.6356,305.8125 Q33.6356,302.6875 34.9481,301.0313 Q36.2763,299.375 38.7763,299.375 Q39.4794,299.375 40.12,299.5313 Q40.7763,299.6875 41.3388,299.9844 L41.3388,302.7031 Q40.7138,302.125 40.12,301.8594 Q39.5263,301.5781 38.9013,301.5781 Q37.5575,301.5781 36.87,302.6563 Q36.1825,303.7188 36.1825,305.8125 Q36.1825,307.9063 36.87,308.9844 Q37.5575,310.0469 38.9013,310.0469 Q39.5263,310.0469 40.12,309.7813 Q40.7138,309.5 41.3388,308.9219 L41.3388,311.6406 Z " fill="#000000"/><text fill="#000000" font-family="sans-serif" font-size="14" lengthAdjust="spacing" textLength="97.6924" x="52.37" y="310.8467">ReservasView</text><line style="stroke:#181818;stroke-width:0.5;" x1="24.37" x2="152.0624" y1="322" y2="322"/><line style="stroke:#181818;stroke-width:0.5;" x1="24.37" x2="152.0624" y1="330" y2="330"/></g><!--class CajaView--><g class="entity" data-qualified-name="views.CajaView" data-source-line="10" id="ent0008"><rect fill="#F1F1F1" height="48" rx="2.5" ry="2.5" style="stroke:#181818;stroke-width:0.5;" width="96.3535" x="40.04" y="373"/><ellipse cx="55.04" cy="389" fill="#ADD1B2" rx="11" ry="11" style="stroke:#181818;stroke-width:1;"/><path d="M58.0088,394.6406 Q57.4306,394.9375 56.79,395.0781 Q56.1494,395.2344 55.4463,395.2344 Q52.9463,395.2344 51.6181,393.5938 Q50.3056,391.9375 50.3056,388.8125 Q50.3056,385.6875 51.6181,384.0313 Q52.9463,382.375 55.4463,382.375 Q56.1494,382.375 56.79,382.5313 Q57.4463,382.6875 58.0088,382.9844 L58.0088,385.7031 Q57.3838,385.125 56.79,384.8594 Q56.1963,384.5781 55.5713,384.5781 Q54.2275,384.5781 53.54,385.6563 Q52.8525,386.7188 52.8525,388.8125 Q52.8525,390.9063 53.54,391.9844 Q54.2275,393.0469 55.5713,393.0469 Q56.1963,393.0469 56.79,392.7813 Q57.3838,392.5 58.0088,391.9219 L58.0088,394.6406 Z " fill="#000000"/><text fill="#000000" font-family="sans-serif" font-size="14" lengthAdjust="spacing" textLength="64.3535" x="69.04" y="393.8467">CajaView</text><line style="stroke:#181818;stroke-width:0.5;" x1="41.04" x2="135.3935" y1="405" y2="405"/><line style="stroke:#181818;stroke-width:0.5;" x1="41.04" x2="135.3935" y1="413" y2="413"/></g><!--class UsuariosView--><g class="entity" data-qualified-name="views.UsuariosView" data-source-line="11" id="ent0009"><rect fill="#F1F1F1" height="48" rx="2.5" ry="2.5" style="stroke:#181818;stroke-width:0.5;" width="126.0283" x="25.2" y="456"/><ellipse cx="40.2" cy="472" fill="#ADD1B2" rx="11" ry="11" style="stroke:#181818;stroke-width:1;"/><path d="M43.1688,477.6406 Q42.5906,477.9375 41.95,478.0781 Q41.3094,478.2344 40.6063,478.2344 Q38.1063,478.2344 36.7781,476.5938 Q35.4656,474.9375 35.4656,471.8125 Q35.4656,468.6875 36.7781,467.0313 Q38.1063,465.375 40.6063,465.375 Q41.3094,465.375 41.95,465.5313 Q42.6063,465.6875 43.1688,465.9844 L43.1688,468.7031 Q42.5438,468.125 41.95,467.8594 Q41.3563,467.5781 40.7313,467.5781 Q39.3875,467.5781 38.7,468.6563 Q38.0125,469.7188 38.0125,471.8125 Q38.0125,473.9063 38.7,474.9844 Q39.3875,476.0469 40.7313,476.0469 Q41.3563,476.0469 41.95,475.7813 Q42.5438,475.5 43.1688,474.9219 L43.1688,477.6406 Z " fill="#000000"/><text fill="#000000" font-family="sans-serif" font-size="14" lengthAdjust="spacing" textLength="94.0283" x="54.2" y="476.8467">UsuariosView</text><line style="stroke:#181818;stroke-width:0.5;" x1="26.2" x2="150.2283" y1="488" y2="488"/><line style="stroke:#181818;stroke-width:0.5;" x1="26.2" x2="150.2283" y1="496" y2="496"/></g><!--class CartaView--><g class="entity" data-qualified-name="views.CartaView" data-source-line="12" id="ent0010"><rect fill="#F1F1F1" height="48" rx="2.5" ry="2.5" style="stroke:#181818;stroke-width:0.5;" width="103.709" x="36.36" y="539"/><ellipse cx="51.36" cy="555" fill="#ADD1B2" rx="11" ry="11" style="stroke:#181818;stroke-width:1;"/><path d="M54.3288,560.6406 Q53.7506,560.9375 53.11,561.0781 Q52.4694,561.2344 51.7663,561.2344 Q49.2663,561.2344 47.9381,559.5938 Q46.6256,557.9375 46.6256,554.8125 Q46.6256,551.6875 47.9381,550.0313 Q49.2663,548.375 51.7663,548.375 Q52.4694,548.375 53.11,548.5313 Q53.7663,548.6875 54.3288,548.9844 L54.3288,551.7031 Q53.7038,551.125 53.11,550.8594 Q52.5163,550.5781 51.8913,550.5781 Q50.5475,550.5781 49.86,551.6563 Q49.1725,552.7188 49.1725,554.8125 Q49.1725,556.9063 49.86,557.9844 Q50.5475,559.0469 51.8913,559.0469 Q52.5163,559.0469 53.11,558.7813 Q53.7038,558.5 54.3288,557.9219 L54.3288,560.6406 Z " fill="#000000"/><text fill="#000000" font-family="sans-serif" font-size="14" lengthAdjust="spacing" textLength="71.709" x="65.36" y="559.8467">CartaView</text><line style="stroke:#181818;stroke-width:0.5;" x1="37.36" x2="139.069" y1="571" y2="571"/><line style="stroke:#181818;stroke-width:0.5;" x1="37.36" x2="139.069" y1="579" y2="579"/></g><!--class AuthController--><g class="entity" data-qualified-name="controllers.AuthController" data-source-line="17" id="ent0012"><rect fill="#F1F1F1" height="48" rx="2.5" ry="2.5" style="stroke:#181818;stroke-width:0.5;" width="133.9854" x="431.01" y="285"/><ellipse cx="446.01" cy="301" fill="#ADD1B2" rx="11" ry="11" style="stroke:#181818;stroke-width:1;"/><path d="M448.9788,306.6406 Q448.4006,306.9375 447.76,307.0781 Q447.1194,307.2344 446.4163,307.2344 Q443.9163,307.2344 442.5881,305.5938 Q441.2756,303.9375 441.2756,300.8125 Q441.2756,297.6875 442.5881,296.0313 Q443.9163,294.375 446.4163,294.375 Q447.1194,294.375 447.76,294.5313 Q448.4163,294.6875 448.9788,294.9844 L448.9788,297.7031 Q448.3538,297.125 447.76,296.8594 Q447.1663,296.5781 446.5413,296.5781 Q445.1975,296.5781 444.51,297.6563 Q443.8225,298.7188 443.8225,300.8125 Q443.8225,302.9063 444.51,303.9844 Q445.1975,305.0469 446.5413,305.0469 Q447.1663,305.0469 447.76,304.7813 Q448.3538,304.5 448.9788,303.9219 L448.9788,306.6406 Z " fill="#000000"/><text fill="#000000" font-family="sans-serif" font-size="14" lengthAdjust="spacing" textLength="101.9854" x="460.01" y="305.8467">AuthController</text><line style="stroke:#181818;stroke-width:0.5;" x1="432.01" x2="563.9954" y1="317" y2="317"/><line style="stroke:#181818;stroke-width:0.5;" x1="432.01" x2="563.9954" y1="325" y2="325"/></g><!--class MesaController--><g class="entity" data-qualified-name="controllers.MesaController" data-source-line="18" id="ent0013"><rect fill="#F1F1F1" height="48" rx="2.5" ry="2.5" style="stroke:#181818;stroke-width:0.5;" width="137.7383" x="429.14" y="368"/><ellipse cx="444.14" cy="384" fill="#ADD1B2" rx="11" ry="11" style="stroke:#181818;stroke-width:1;"/><path d="M447.1088,389.6406 Q446.5306,389.9375 445.89,390.0781 Q445.2494,390.2344 444.5463,390.2344 Q442.0463,390.2344 440.7181,388.5938 Q439.4056,386.9375 439.4056,383.8125 Q439.4056,380.6875 440.7181,379.0313 Q442.0463,377.375 444.5463,377.375 Q445.2494,377.375 445.89,377.5313 Q446.5463,377.6875 447.1088,377.9844 L447.1088,380.7031 Q446.4838,380.125 445.89,379.8594 Q445.2963,379.5781 444.6713,379.5781 Q443.3275,379.5781 442.64,380.6563 Q441.9525,381.7188 441.9525,383.8125 Q441.9525,385.9063 442.64,386.9844 Q443.3275,388.0469 444.6713,388.0469 Q445.2963,388.0469 445.89,387.7813 Q446.4838,387.5 447.1088,386.9219 L447.1088,389.6406 Z " fill="#000000"/><text fill="#000000" font-family="sans-serif" font-size="14" lengthAdjust="spacing" textLength="105.7383" x="458.14" y="388.8467">MesaController</text><line style="stroke:#181818;stroke-width:0.5;" x1="430.14" x2="565.8783" y1="400" y2="400"/><line style="stroke:#181818;stroke-width:0.5;" x1="430.14" x2="565.8783" y1="408" y2="408"/></g><!--class ComandaController--><g class="entity" data-qualified-name="controllers.ComandaController" data-source-line="19" id="ent0014"><rect fill="#F1F1F1" height="48" rx="2.5" ry="2.5" style="stroke:#181818;stroke-width:0.5;" width="168.0693" x="413.97" y="451"/><ellipse cx="428.97" cy="467" fill="#ADD1B2" rx="11" ry="11" style="stroke:#181818;stroke-width:1;"/><path d="M431.9388,472.6406 Q431.3606,472.9375 430.72,473.0781 Q430.0794,473.2344 429.3763,473.2344 Q426.8763,473.2344 425.5481,471.5938 Q424.2356,469.9375 424.2356,466.8125 Q424.2356,463.6875 425.5481,462.0313 Q426.8763,460.375 429.3763,460.375 Q430.0794,460.375 430.72,460.5313 Q431.3763,460.6875 431.9388,460.9844 L431.9388,463.7031 Q431.3138,463.125 430.72,462.8594 Q430.1263,462.5781 429.5013,462.5781 Q428.1575,462.5781 427.47,463.6563 Q426.7825,464.7188 426.7825,466.8125 Q426.7825,468.9063 427.47,469.9844 Q428.1575,471.0469 429.5013,471.0469 Q430.1263,471.0469 430.72,470.7813 Q431.3138,470.5 431.9388,469.9219 L431.9388,472.6406 Z " fill="#000000"/><text fill="#000000" font-family="sans-serif" font-size="14" lengthAdjust="spacing" textLength="136.0693" x="442.97" y="471.8467">ComandaController</text><line style="stroke:#181818;stroke-width:0.5;" x1="414.97" x2="581.0393" y1="483" y2="483"/><line style="stroke:#181818;stroke-width:0.5;" x1="414.97" x2="581.0393" y1="491" y2="491"/></g><!--class KDSController--><g class="entity" data-qualified-name="controllers.KDSController" data-source-line="20" id="ent0015"><rect fill="#F1F1F1" height="48" rx="2.5" ry="2.5" style="stroke:#181818;stroke-width:0.5;" width="130.0205" x="433" y="534"/><ellipse cx="448" cy="550" fill="#ADD1B2" rx="11" ry="11" style="stroke:#181818;stroke-width:1;"/><path d="M450.9688,555.6406 Q450.3906,555.9375 449.75,556.0781 Q449.1094,556.2344 448.4063,556.2344 Q445.9063,556.2344 444.5781,554.5938 Q443.2656,552.9375 443.2656,549.8125 Q443.2656,546.6875 444.5781,545.0313 Q445.9063,543.375 448.4063,543.375 Q449.1094,543.375 449.75,543.5313 Q450.4063,543.6875 450.9688,543.9844 L450.9688,546.7031 Q450.3438,546.125 449.75,545.8594 Q449.1563,545.5781 448.5313,545.5781 Q447.1875,545.5781 446.5,546.6563 Q445.8125,547.7188 445.8125,549.8125 Q445.8125,551.9063 446.5,552.9844 Q447.1875,554.0469 448.5313,554.0469 Q449.1563,554.0469 449.75,553.7813 Q450.3438,553.5 450.9688,552.9219 L450.9688,555.6406 Z " fill="#000000"/><text fill="#000000" font-family="sans-serif" font-size="14" lengthAdjust="spacing" textLength="98.0205" x="462" y="554.8467">KDSController</text><line style="stroke:#181818;stroke-width:0.5;" x1="434" x2="562.0205" y1="566" y2="566"/><line style="stroke:#181818;stroke-width:0.5;" x1="434" x2="562.0205" y1="574" y2="574"/></g><!--class ReservaController--><g class="entity" data-qualified-name="controllers.ReservaController" data-source-line="21" id="ent0016"><rect fill="#F1F1F1" height="48" rx="2.5" ry="2.5" style="stroke:#181818;stroke-width:0.5;" width="158.041" x="418.99" y="617"/><ellipse cx="433.99" cy="633" fill="#ADD1B2" rx="11" ry="11" style="stroke:#181818;stroke-width:1;"/><path d="M436.9588,638.6406 Q436.3806,638.9375 435.74,639.0781 Q435.0994,639.2344 434.3963,639.2344 Q431.8963,639.2344 430.5681,637.5938 Q429.2556,635.9375 429.2556,632.8125 Q429.2556,629.6875 430.5681,628.0313 Q431.8963,626.375 434.3963,626.375 Q435.0994,626.375 435.74,626.5313 Q436.3963,626.6875 436.9588,626.9844 L436.9588,629.7031 Q436.3338,629.125 435.74,628.8594 Q435.1463,628.5781 434.5213,628.5781 Q433.1775,628.5781 432.49,629.6563 Q431.8025,630.7188 431.8025,632.8125 Q431.8025,634.9063 432.49,635.9844 Q433.1775,637.0469 434.5213,637.0469 Q435.1463,637.0469 435.74,636.7813 Q436.3338,636.5 436.9588,635.9219 L436.9588,638.6406 Z " fill="#000000"/><text fill="#000000" font-family="sans-serif" font-size="14" lengthAdjust="spacing" textLength="126.041" x="447.99" y="637.8467">ReservaController</text><line style="stroke:#181818;stroke-width:0.5;" x1="419.99" x2="576.031" y1="649" y2="649"/><line style="stroke:#181818;stroke-width:0.5;" x1="419.99" x2="576.031" y1="657" y2="657"/></g><!--class TicketController--><g class="entity" data-qualified-name="controllers.TicketController" data-source-line="22" id="ent0017"><rect fill="#F1F1F1" height="48" rx="2.5" ry="2.5" style="stroke:#181818;stroke-width:0.5;" width="143.5215" x="426.25" y="700"/><ellipse cx="441.25" cy="716" fill="#ADD1B2" rx="11" ry="11" style="stroke:#181818;stroke-width:1;"/><path d="M444.2188,721.6406 Q443.6406,721.9375 443,722.0781 Q442.3594,722.2344 441.6563,722.2344 Q439.1563,722.2344 437.8281,720.5938 Q436.5156,718.9375 436.5156,715.8125 Q436.5156,712.6875 437.8281,711.0313 Q439.1563,709.375 441.6563,709.375 Q442.3594,709.375 443,709.5313 Q443.6563,709.6875 444.2188,709.9844 L444.2188,712.7031 Q443.5938,712.125 443,711.8594 Q442.4063,711.5781 441.7813,711.5781 Q440.4375,711.5781 439.75,712.6563 Q439.0625,713.7188 439.0625,715.8125 Q439.0625,717.9063 439.75,718.9844 Q440.4375,720.0469 441.7813,720.0469 Q442.4063,720.0469 443,719.7813 Q443.5938,719.5 444.2188,718.9219 L444.2188,721.6406 Z " fill="#000000"/><text fill="#000000" font-family="sans-serif" font-size="14" lengthAdjust="spacing" textLength="111.5215" x="455.25" y="720.8467">TicketController</text><line style="stroke:#181818;stroke-width:0.5;" x1="427.25" x2="568.7715" y1="732" y2="732"/><line style="stroke:#181818;stroke-width:0.5;" x1="427.25" x2="568.7715" y1="740" y2="740"/></g><!--class UsuarioController--><g class="entity" data-qualified-name="controllers.UsuarioController" data-source-line="23" id="ent0018"><rect fill="#F1F1F1" height="48" rx="2.5" ry="2.5" style="stroke:#181818;stroke-width:0.5;" width="154.377" x="420.82" y="783"/><ellipse cx="435.82" cy="799" fill="#ADD1B2" rx="11" ry="11" style="stroke:#181818;stroke-width:1;"/><path d="M438.7888,804.6406 Q438.2106,804.9375 437.57,805.0781 Q436.9294,805.2344 436.2263,805.2344 Q433.7263,805.2344 432.3981,803.5938 Q431.0856,801.9375 431.0856,798.8125 Q431.0856,795.6875 432.3981,794.0313 Q433.7263,792.375 436.2263,792.375 Q436.9294,792.375 437.57,792.5313 Q438.2263,792.6875 438.7888,792.9844 L438.7888,795.7031 Q438.1638,795.125 437.57,794.8594 Q436.9763,794.5781 436.3513,794.5781 Q435.0075,794.5781 434.32,795.6563 Q433.6325,796.7188 433.6325,798.8125 Q433.6325,800.9063 434.32,801.9844 Q435.0075,803.0469 436.3513,803.0469 Q436.9763,803.0469 437.57,802.7813 Q438.1638,802.5 438.7888,801.9219 L438.7888,804.6406 Z " fill="#000000"/><text fill="#000000" font-family="sans-serif" font-size="14" lengthAdjust="spacing" textLength="122.377" x="449.82" y="803.8467">UsuarioController</text><line style="stroke:#181818;stroke-width:0.5;" x1="421.82" x2="574.197" y1="815" y2="815"/><line style="stroke:#181818;stroke-width:0.5;" x1="421.82" x2="574.197" y1="823" y2="823"/></g><!--class CartaController--><g class="entity" data-qualified-name="controllers.CartaController" data-source-line="24" id="ent0019"><rect fill="#F1F1F1" height="48" rx="2.5" ry="2.5" style="stroke:#181818;stroke-width:0.5;" width="139.3516" x="428.33" y="866"/><ellipse cx="443.33" cy="882" fill="#ADD1B2" rx="11" ry="11" style="stroke:#181818;stroke-width:1;"/><path d="M446.2988,887.6406 Q445.7206,887.9375 445.08,888.0781 Q444.4394,888.2344 443.7363,888.2344 Q441.2363,888.2344 439.9081,886.5938 Q438.5956,884.9375 438.5956,881.8125 Q438.5956,878.6875 439.9081,877.0313 Q441.2363,875.375 443.7363,875.375 Q444.4394,875.375 445.08,875.5313 Q445.7363,875.6875 446.2988,875.9844 L446.2988,878.7031 Q445.6738,878.125 445.08,877.8594 Q444.4863,877.5781 443.8613,877.5781 Q442.5175,877.5781 441.83,878.6563 Q441.1425,879.7188 441.1425,881.8125 Q441.1425,883.9063 441.83,884.9844 Q442.5175,886.0469 443.8613,886.0469 Q444.4863,886.0469 445.08,885.7813 Q445.6738,885.5 446.2988,884.9219 L446.2988,887.6406 Z " fill="#000000"/><text fill="#000000" font-family="sans-serif" font-size="14" lengthAdjust="spacing" textLength="107.3516" x="457.33" y="886.8467">CartaController</text><line style="stroke:#181818;stroke-width:0.5;" x1="429.33" x2="566.6816" y1="898" y2="898"/><line style="stroke:#181818;stroke-width:0.5;" x1="429.33" x2="566.6816" y1="906" y2="906"/></g><!--link LoginView to AuthController--><g class="link" data-entity-1="ent0003" data-entity-2="ent0012" data-link-type="dependency" data-source-line="28" id="lnk20"><path codeLine="28" d="M349.4,272.62 C374.13,278.72 398.2941,284.675 424.7641,291.195" fill="none" id="LoginView-to-AuthController" style="stroke:#181818;stroke-width:1;"/><polygon fill="#181818" points="430.59,292.63,422.8079,286.5936,425.7351,291.4342,420.8945,294.3614,430.59,292.63" style="stroke:#181818;stroke-width:1;"/></g><!--link MesasView to MesaController--><g class="link" data-entity-1="ent0004" data-entity-2="ent0013" data-link-type="dependency" data-source-line="29" id="lnk21"><path codeLine="29" d="M139.27,89.28 C145.19,94.06 150.51,99.61 154.43,106 C193.24,169.35 129.58,388.87 184.43,439 C219.16,470.75 341.8968,440.5965 422.9268,416.0965" fill="none" id="MesasView-to-MesaController" style="stroke:#181818;stroke-width:1;"/><polygon fill="#181818" points="428.67,414.36,418.8975,413.1359,423.884,415.8071,421.2128,420.7936,428.67,414.36" style="stroke:#181818;stroke-width:1;"/></g><!--link ComandaView to ComandaController--><g class="link" data-entity-1="ent0005" data-entity-2="ent0014" data-link-type="dependency" data-source-line="30" id="lnk22"><path codeLine="30" d="M139.15,172.35 C145.09,177.12 150.45,182.66 154.43,189 C186.5,240.15 140.49,417.6 184.43,459 C244.44,515.55 337.245,511.7974 407.675,498.4474" fill="none" id="ComandaView-to-ComandaController" style="stroke:#181818;stroke-width:1;"/><polygon fill="#181818" points="413.57,497.33,403.9825,495.0761,408.6575,498.2612,405.4724,502.9361,413.57,497.33" style="stroke:#181818;stroke-width:1;"/></g><!--link KDSView to KDSController--><g class="link" data-entity-1="ent0006" data-entity-2="ent0015" data-link-type="dependency" data-source-line="31" id="lnk23"><path codeLine="31" d="M135.75,252.97 C142.99,258.27 149.64,264.58 154.43,272 C207.46,354.17 123.97,413.12 184.43,490 C242.27,563.56 353.4006,570.1071 426.7006,565.7371" fill="none" id="KDSView-to-KDSController" style="stroke:#181818;stroke-width:1;"/><polygon fill="#181818" points="432.69,565.38,423.4679,561.9227,427.6989,565.6776,423.944,569.9085,432.69,565.38" style="stroke:#181818;stroke-width:1;"/></g><!--link ReservasView to ReservaController--><g class="link" data-entity-1="ent0007" data-entity-2="ent0016" data-link-type="dependency" data-source-line="32" id="lnk24"><path codeLine="32" d="M138.47,338.33 C144.59,343.12 150.18,348.67 154.43,355 C197.88,419.82 143.76,461.4 184.43,528 C202.12,556.98 214.9,559.13 245.43,574 C300.39,600.77 361.6175,616.7684 412.6975,627.0284" fill="none" id="ReservasView-to-ReservaController" style="stroke:#181818;stroke-width:1;"/><polygon fill="#181818" points="418.58,628.21,410.544,622.516,413.6779,627.2254,408.9685,630.3593,418.58,628.21" style="stroke:#181818;stroke-width:1;"/></g><!--link CajaView to TicketController--><g class="link" data-entity-1="ent0008" data-entity-2="ent0017" data-link-type="dependency" data-source-line="33" id="lnk25"><path codeLine="33" d="M136.85,420.55 C143.52,425.54 149.7,431.35 154.43,438 C188.79,486.32 155.03,516.5 184.43,568 C202.97,600.49 213.89,605.88 245.43,626 C301.84,661.99 367.829,686.5334 420.249,702.7834" fill="none" id="CajaView-to-TicketController" style="stroke:#181818;stroke-width:1;"/><polygon fill="#181818" points="425.98,704.56,418.568,698.0745,421.2042,703.0795,416.1992,705.7158,425.98,704.56" style="stroke:#181818;stroke-width:1;"/></g><!--link UsuariosView to UsuarioController--><g class="link" data-entity-1="ent0009" data-entity-2="ent0018" data-link-type="dependency" data-source-line="34" id="lnk26"><path codeLine="34" d="M137.03,504.4 C143.51,509.23 149.58,514.77 154.43,521 C181.08,555.29 164.3,575.51 184.43,614 C205.14,653.62 210.96,665.51 245.43,694 C297,736.63 361.5649,764.4424 414.7149,782.6824" fill="none" id="UsuariosView-to-UsuarioController" style="stroke:#181818;stroke-width:1;"/><polygon fill="#181818" points="420.39,784.63,413.1757,777.9252,415.6607,783.007,410.5789,785.492,420.39,784.63" style="stroke:#181818;stroke-width:1;"/></g><!--link CartaView to CartaController--><g class="link" data-entity-1="ent0010" data-entity-2="ent0019" data-link-type="dependency" data-source-line="35" id="lnk27"><path codeLine="35" d="M102.24,587.31 C125.97,629.74 179.88,718.11 245.43,774 C299.13,819.8 368.2619,849.2711 422.3219,867.7311" fill="none" id="CartaView-to-CartaController" style="stroke:#181818;stroke-width:1;"/><polygon fill="#181818" points="428,869.67,420.7755,862.9762,423.2683,868.0542,418.1903,870.547,428,869.67" style="stroke:#181818;stroke-width:1;"/></g><!--link MesasView to LoginView--><g class="link" data-entity-1="ent0004" data-entity-2="ent0003" data-link-type="dependency" data-source-line="39" id="lnk28"><path codeLine="39" d="M128.7,89.45 C137.22,94.84 146.16,100.56 154.43,106 C181.92,124.1 191.9,124.98 215.43,148 C242.84,174.83 264.4117,206.75 279.0817,230.76" fill="none" id="MesasView-to-LoginView" style="stroke:#181818;stroke-width:1;stroke-dasharray:7,7;"/><polygon fill="#181818" points="282.21,235.88,280.9309,226.1146,279.6031,231.6134,274.1043,230.2856,282.21,235.88" style="stroke:#181818;stroke-width:1;"/><text fill="#000000" font-family="sans-serif" font-size="13" lengthAdjust="spacing" textLength="29.542" x="185.43" y="121.0669">auth</text></g><!--link ComandaView to LoginView--><g class="link" data-entity-1="ent0005" data-entity-2="ent0003" data-link-type="dependency" data-source-line="40" id="lnk29"><path codeLine="40" d="M154.73,161.71 C174.98,167.5 196.83,175.42 215.43,186 C238.24,198.97 255.8236,215.0853 270.9736,231.2253" fill="none" id="ComandaView-to-LoginView" style="stroke:#181818;stroke-width:1;stroke-dasharray:7,7;"/><polygon fill="#181818" points="275.08,235.6,271.8369,226.3004,271.658,231.9544,266.004,231.7755,275.08,235.6" style="stroke:#181818;stroke-width:1;"/><text fill="#000000" font-family="sans-serif" font-size="13" lengthAdjust="spacing" textLength="29.542" x="185.43" y="169.0669">auth</text></g><!--link KDSView to LoginView--><g class="link" data-entity-1="ent0006" data-entity-2="ent0003" data-link-type="dependency" data-source-line="41" id="lnk30"><path codeLine="41" d="M135.62,216.16 C159.71,210.6 189.46,207.12 215.43,214 C231.96,218.38 243.5519,223.8562 257.4419,232.4762" fill="none" id="KDSView-to-LoginView" style="stroke:#181818;stroke-width:1;stroke-dasharray:7,7;"/><polygon fill="#181818" points="262.54,235.64,257.0021,227.4956,258.2916,233.0035,252.7837,234.293,262.54,235.64" style="stroke:#181818;stroke-width:1;"/><text fill="#000000" font-family="sans-serif" font-size="13" lengthAdjust="spacing" textLength="29.542" x="185.43" y="207.0669">auth</text></g><!--link ReservasView to LoginView--><g class="link" data-entity-1="ent0007" data-entity-2="ent0003" data-link-type="dependency" data-source-line="42" id="lnk31"><path codeLine="42" d="M135.07,289.65 C150.38,282.52 167.78,275.45 184.43,271 C203.83,265.81 219.7279,263.4835 238.9579,261.9935" fill="none" id="ReservasView-to-LoginView" style="stroke:#181818;stroke-width:1;stroke-dasharray:7,7;"/><polygon fill="#181818" points="244.94,261.53,235.6579,258.2372,239.9549,261.9163,236.2759,266.2133,244.94,261.53" style="stroke:#181818;stroke-width:1;"/><text fill="#000000" font-family="sans-serif" font-size="13" lengthAdjust="spacing" textLength="29.542" x="185.43" y="261.0669">auth</text></g><!--link CajaView to LoginView--><g class="link" data-entity-1="ent0008" data-entity-2="ent0003" data-link-type="dependency" data-source-line="43" id="lnk32"><path codeLine="43" d="M130.72,372.56 C138.77,367.36 147.01,361.71 154.43,356 C168.88,344.87 169.89,339.02 184.43,328 C205.42,312.08 225.1485,299.638 246.1185,287.488" fill="none" id="CajaView-to-LoginView" style="stroke:#181818;stroke-width:1;stroke-dasharray:7,7;"/><polygon fill="#181818" points="251.31,284.48,241.5174,285.5309,246.9837,286.9866,245.528,292.453,251.31,284.48" style="stroke:#181818;stroke-width:1;"/><text fill="#000000" font-family="sans-serif" font-size="13" lengthAdjust="spacing" textLength="29.542" x="185.43" y="304.0669">auth</text></g><!--link UsuariosView to LoginView--><g class="link" data-entity-1="ent0009" data-entity-2="ent0003" data-link-type="dependency" data-source-line="44" id="lnk33"><path codeLine="44" d="M134.64,455.66 C141.74,450.71 148.63,445.12 154.43,439 C173.31,419.07 168.07,407.05 184.43,385 C196.23,369.1 202.04,367.59 215.43,353 C236.39,330.15 255.6338,307.9213 271.7438,288.9713" fill="none" id="UsuariosView-to-LoginView" style="stroke:#181818;stroke-width:1;stroke-dasharray:7,7;"/><polygon fill="#181818" points="275.63,284.4,266.7531,288.6662,272.3915,288.2094,272.8482,293.8478,275.63,284.4" style="stroke:#181818;stroke-width:1;"/><text fill="#000000" font-family="sans-serif" font-size="13" lengthAdjust="spacing" textLength="29.542" x="185.43" y="349.0669">auth</text></g><!--link CartaView to LoginView--><g class="link" data-entity-1="ent0010" data-entity-2="ent0003" data-link-type="dependency" data-source-line="45" id="lnk34"><path codeLine="45" d="M134.69,538.7 C141.78,533.74 148.66,528.14 154.43,522 C223.83,448.12 268.0251,339.4344 285.8851,289.8944" fill="none" id="CartaView-to-LoginView" style="stroke:#181818;stroke-width:1;stroke-dasharray:7,7;"/><polygon fill="#181818" points="287.92,284.25,281.1047,291.36,286.2243,288.9537,288.6306,294.0732,287.92,284.25" style="stroke:#181818;stroke-width:1;"/><text fill="#000000" font-family="sans-serif" font-size="13" lengthAdjust="spacing" textLength="29.542" x="185.43" y="440.0669">auth</text></g><?plantuml-src TPCzKiCm48LxdsA79b3O1w3839DqG1CW_OwqiKKKAICfOHY64r5IqeMB8Vz4IBRYphjFAx_lhILj73WDHjID0ouCCIUqAeePb6K9Ize89PZu_LR02TR2EhHjfzWZss9DS7NwEWfwiwUVA_We09X4Q-51rqAjVJrK7icYJIeBlKF5CQdTBv-IznLPCiVnGNnDJxtO0ngXnohZUjdd1JSBhPpH4hasD375-gOaCx9sTt3D8ZGJVvdoO3BJyLOprS5mflCis9PSfZ6uprtU8eZg0SIA938VixVTHGhbFARHiGWHGl-KNZFo7ZAD92CEKSX1CcKon0uG3Khvn8jmLanPdJSZdZFX5c_BMJHb6DOd6ZNc6TPgJugJOiB_6twlF2LIJZ3iDws5EVCtu4vR80badP0QEDg6E5nNrGsyWyyBi3Q7VQSw2lyzSkUd43H-3BRdka1IvbKr___Lu1RGvvCYpoeIt5b5WZj_IumwgqWuNvWHCSuf_W00?></g></svg>