<svg xmlns="http://www.w3.org/2000/svg" xmlns:xlink="http://www.w3.org/1999/xlink" contentStyleType="text/css" data-diagram-type="CLASS" height="501px" preserveAspectRatio="none" style="width:568px;height:501px;background:#FFFFFF;" version="1.1" viewBox="0 0 568 501" width="568px" zoomAndPan="magnify"><title>CU01 - Esquema MongoDB para Introducir Documentacion Funcional</title><defs/><g><g class="title" data-source-line="1"><text fill="#000000" font-family="sans-serif" font-size="14" font-weight="bold" lengthAdjust="spacing" textLength="540.9209" x="10" y="22.9951">CU01 - Esquema MongoDB para Introducir Documentacion Funcional</text></g><!--class Session--><g class="entity" data-entity="Session" data-source-line="6" data-uid="ent0002" id="entity_Session"><rect fill="#F1F1F1" height="162.0781" rx="2.5" ry="2.5" style="stroke:#181818;stroke-width:0.5;" width="176.9785" x="115.4131" y="332.2969"/><ellipse cx="172.9443" cy="348.2969" fill="#ADD1B2" rx="11" ry="11" style="stroke:#181818;stroke-width:1;"/><path d="M177.0537,354.2969 L169.335,354.2969 L169.335,341.9063 L177.0537,341.9063 L177.0537,344.0625 L171.7881,344.0625 L171.7881,346.7344 L176.5537,346.7344 L176.5537,348.8906 L171.7881,348.8906 L171.7881,352.1406 L177.0537,352.1406 L177.0537,354.2969 Z " fill="#000000"/><text fill="#000000" font-family="sans-serif" font-size="14" lengthAdjust="spacing" textLength="53.416" x="193.4443" y="353.1436">Session</text><line style="stroke:#181818;stroke-width:0.5;" x1="116.4131" x2="291.3916" y1="364.2969" y2="364.2969"/><text fill="#000000" font-family="sans-serif" font-size="14" lengthAdjust="spacing" textLength="87.5547" x="121.4131" y="381.292">_id: ObjectId</text><text fill="#000000" font-family="sans-serif" font-size="14" lengthAdjust="spacing" textLength="89.0586" x="121.4131" y="397.5889">name: string</text><text fill="#000000" font-family="sans-serif" font-size="14" lengthAdjust="spacing" textLength="139.5557" x="121.4131" y="413.8857">projectName: string</text><text fill="#000000" font-family="sans-serif" font-size="14" lengthAdjust="spacing" textLength="150.2129" x="121.4131" y="430.1826">workflowMode: string</text><text fill="#000000" font-family="sans-serif" font-size="14" lengthAdjust="spacing" textLength="146.7402" x="121.4131" y="446.4795">currentStep: number</text><text fill="#000000" font-family="sans-serif" font-size="14" lengthAdjust="spacing" textLength="156.2285" x="121.4131" y="462.7764">agentSessionId: string</text><text fill="#000000" font-family="sans-serif" font-size="14" lengthAdjust="spacing" textLength="164.9785" x="121.4131" y="479.0732">agentHandoffUrl: string</text><line style="stroke:#181818;stroke-width:0.5;" x1="116.4131" x2="291.3916" y1="486.375" y2="486.375"/></g><!--class User--><g class="entity" data-entity="User" data-source-line="16" data-uid="ent0003" id="entity_User"><rect fill="#F1F1F1" height="129.4844" rx="2.5" ry="2.5" style="stroke:#181818;stroke-width:0.5;" width="131.5947" x="327.9131" y="348.7969"/><ellipse cx="373.5054" cy="364.7969" fill="#ADD1B2" rx="11" ry="11" style="stroke:#181818;stroke-width:1;"/><path d="M377.6147,370.7969 L369.896,370.7969 L369.896,358.4063 L377.6147,358.4063 L377.6147,360.5625 L372.3491,360.5625 L372.3491,363.2344 L377.1147,363.2344 L377.1147,365.3906 L372.3491,365.3906 L372.3491,368.6406 L377.6147,368.6406 L377.6147,370.7969 Z " fill="#000000"/><text fill="#000000" font-family="sans-serif" font-size="14" lengthAdjust="spacing" textLength="31.9102" x="394.0054" y="369.6436">User</text><line style="stroke:#181818;stroke-width:0.5;" x1="328.9131" x2="458.5078" y1="380.7969" y2="380.7969"/><text fill="#000000" font-family="sans-serif" font-size="14" lengthAdjust="spacing" textLength="87.5547" x="333.9131" y="397.792">_id: ObjectId</text><text fill="#000000" font-family="sans-serif" font-size="14" lengthAdjust="spacing" textLength="119.5947" x="333.9131" y="414.0889">username: string</text><text fill="#000000" font-family="sans-serif" font-size="14" lengthAdjust="spacing" textLength="87.9648" x="333.9131" y="430.3857">email: string</text><text fill="#000000" font-family="sans-serif" font-size="14" lengthAdjust="spacing" textLength="76.1797" x="333.9131" y="446.6826">role: string</text><text fill="#000000" font-family="sans-serif" font-size="14" lengthAdjust="spacing" textLength="116.0674" x="333.9131" y="462.9795">password: string</text><line style="stroke:#181818;stroke-width:0.5;" x1="328.9131" x2="458.5078" y1="470.2813" y2="470.2813"/></g><!--class Documentation--><g class="entity" data-entity="Documentation" data-source-line="24" data-uid="ent0004" id="entity_Documentation"><rect fill="#F1F1F1" height="210.9688" rx="2.5" ry="2.5" style="stroke:#181818;stroke-width:0.5;" width="166.3281" x="215.9131" y="44.2969"/><ellipse cx="242.7941" cy="60.2969" fill="#ADD1B2" rx="11" ry="11" style="stroke:#181818;stroke-width:1;"/><path d="M246.9035,66.2969 L239.1848,66.2969 L239.1848,53.9063 L246.9035,53.9063 L246.9035,56.0625 L241.6379,56.0625 L241.6379,58.7344 L246.4035,58.7344 L246.4035,60.8906 L241.6379,60.8906 L241.6379,64.1406 L246.9035,64.1406 L246.9035,66.2969 Z " fill="#000000"/><text fill="#000000" font-family="sans-serif" font-size="14" lengthAdjust="spacing" textLength="107.9258" x="259.4344" y="65.1436">Documentation</text><line style="stroke:#181818;stroke-width:0.5;" x1="216.9131" x2="381.2412" y1="76.2969" y2="76.2969"/><text fill="#000000" font-family="sans-serif" font-size="14" lengthAdjust="spacing" textLength="87.5547" x="221.9131" y="93.292">_id: ObjectId</text><text fill="#000000" font-family="sans-serif" font-size="14" lengthAdjust="spacing" textLength="132.6172" x="221.9131" y="109.5889">sessionId: ObjectId</text><text fill="#000000" font-family="sans-serif" font-size="14" lengthAdjust="spacing" textLength="139.5557" x="221.9131" y="125.8857">projectName: string</text><text fill="#000000" font-family="sans-serif" font-size="14" lengthAdjust="spacing" textLength="154.3281" x="221.9131" y="142.1826">documentType: string</text><text fill="#000000" font-family="sans-serif" font-size="14" lengthAdjust="spacing" textLength="83.2139" x="221.9131" y="158.4795">label: string</text><text fill="#000000" font-family="sans-serif" font-size="14" lengthAdjust="spacing" textLength="76.7266" x="221.9131" y="174.7764">title: string</text><text fill="#000000" font-family="sans-serif" font-size="14" lengthAdjust="spacing" textLength="102.9561" x="221.9131" y="191.0732">content: string</text><text fill="#000000" font-family="sans-serif" font-size="14" lengthAdjust="spacing" textLength="150.8486" x="221.9131" y="207.3701">uploadedBy: ObjectId</text><text fill="#000000" font-family="sans-serif" font-size="14" lengthAdjust="spacing" textLength="111.3301" x="221.9131" y="223.667">createdAt: Date</text><text fill="#000000" font-family="sans-serif" font-size="14" lengthAdjust="spacing" textLength="115.9102" x="221.9131" y="239.9639">updatedAt: Date</text><line style="stroke:#181818;stroke-width:0.5;" x1="216.9131" x2="381.2412" y1="247.2656" y2="247.2656"/></g><!--link Documentation to Session--><g class="link" data-entity-1="Documentation" data-entity-2="Session" data-source-line="37" data-uid="lnk5" id="link_Documentation_Session"><path codeLine="37" d="M260.8231,255.6569 C251.5831,281.0869 243.8915,302.2474 235.1415,326.3374" fill="none" id="Documentation-to-Session" style="stroke:#181818;stroke-width:1;"/><polygon fill="#181818" points="233.0931,331.9769,239.9253,324.8832,234.8001,327.2773,232.406,322.152,233.0931,331.9769" style="stroke:#181818;stroke-width:1;"/><text fill="#000000" font-family="sans-serif" font-size="13" lengthAdjust="spacing" textLength="60.2075" x="249.9131" y="298.3638">sessionId</text></g><!--link Documentation to User--><g class="link" data-entity-1="Documentation" data-entity-2="User" data-source-line="38" data-uid="lnk6" id="link_Documentation_User"><path codeLine="38" d="M337.0031,255.6569 C348.4131,287.0569 358.5242,314.8975 368.6642,342.8075" fill="none" id="Documentation-to-User" style="stroke:#181818;stroke-width:1;"/><polygon fill="#181818" points="370.7131,348.4469,371.3994,338.622,369.0057,343.7474,363.8803,341.3537,370.7131,348.4469" style="stroke:#181818;stroke-width:1;"/><text fill="#000000" font-family="sans-serif" font-size="13" lengthAdjust="spacing" textLength="77.1367" x="352.9131" y="298.3638">uploadedBy</text></g><!--SRC=[RLB1JiCm3BttAwpT9urh3qWR0z73u31sHcdYZh0qBecZQI3-7RUCBKKzrNdFzNlF2Ljs27UxnGtCuJv-96mLRCZlQRs2JWK5bUT09caRO4qwjUXPQKiU7fBllyeLJ1qmGKtCr8An0JKBKyI3zVsC5kARCdIqVW-DSX4pHZiLuv8vs3enLfhyrduYB8f2X2oVOBR566NQ35I4SmrV1S2hDIKyr-yYLXavUzLY2L4c-RqSkq0zzJH6ZnGEZQFZXamEwnI2w6qPkn9yQciCWgfzZ_rALYPh7uX7vGqrpIwu2_DzTRsB60RBVJ7fDmdnpxCitxhi7CYD8icg982PqhlS3V_jQeHCEeZNQ1awlJXpdlPowdBOgHfpnzo_ftonv5d-of3KEL86pUeqKjK15QDPIkjQYg7HZ109EuuqdzzU7aHv3JFHDTn1cKd_0000]--></g></svg>