<svg xmlns="http://www.w3.org/2000/svg" xmlns:xlink="http://www.w3.org/1999/xlink" contentStyleType="text/css" data-diagram-type="CLASS" height="445px" preserveAspectRatio="none" style="width:372px;height:445px;background:#FFFFFF;" version="1.1" viewBox="0 0 372 445" width="372px" zoomAndPan="magnify"><title>CU-03 - Introducir documentaci&#243;n funcional</title><defs/><g><g class="title" data-source-line="5"><text fill="#000000" font-family="sans-serif" font-size="14" font-weight="bold" lengthAdjust="spacing" textLength="344.3535" x="10" y="22.9951">CU-03 - Introducir documentaci&#243;n funcional</text></g><!--cluster Vista--><g class="cluster" data-entity="Vista" data-source-line="7" data-uid="ent0002" id="cluster_Vista"><rect fill="none" height="99" rx="2.5" ry="2.5" style="stroke:#000000;stroke-width:1.5;" width="206" x="53.0054" y="44.2969"/><text fill="#000000" font-family="sans-serif" font-size="14" font-weight="bold" lengthAdjust="spacing" textLength="40.1064" x="135.9521" y="59.292">Vista</text></g><!--cluster Controlador--><g class="cluster" data-entity="Controlador" data-source-line="11" data-uid="ent0004" id="cluster_Controlador"><rect fill="none" height="99" rx="2.5" ry="2.5" style="stroke:#000000;stroke-width:1.5;" width="242" x="35.0054" y="192.2969"/><text fill="#000000" font-family="sans-serif" font-size="14" font-weight="bold" lengthAdjust="spacing" textLength="93.8643" x="109.0732" y="207.292">Controlador</text></g><!--cluster Modelo--><g class="cluster" data-entity="Modelo" data-source-line="15" data-uid="ent0006" id="cluster_Modelo"><rect fill="none" height="99" rx="2.5" ry="2.5" style="stroke:#000000;stroke-width:1.5;" width="293" x="18.0054" y="340.2969"/><text fill="#000000" font-family="sans-serif" font-size="14" font-weight="bold" lengthAdjust="spacing" textLength="57.4834" x="135.7637" y="355.292">Modelo</text></g><!--class DocumentationView--><g class="entity" data-entity="DocumentationView" data-source-line="8" data-uid="ent0003" id="entity_DocumentationView"><rect fill="#F1F1F1" height="48" rx="2.5" ry="2.5" style="stroke:#181818;stroke-width:0.5;" width="173.4561" x="69.5054" y="79.2969"/><ellipse cx="84.5054" cy="95.2969" fill="#ADD1B2" rx="11" ry="11" style="stroke:#181818;stroke-width:1;"/><path d="M87.4741,100.9375 Q86.896,101.2344 86.2554,101.375 Q85.6147,101.5313 84.9116,101.5313 Q82.4116,101.5313 81.0835,99.8906 Q79.771,98.2344 79.771,95.1094 Q79.771,91.9844 81.0835,90.3281 Q82.4116,88.6719 84.9116,88.6719 Q85.6147,88.6719 86.2554,88.8281 Q86.9116,88.9844 87.4741,89.2813 L87.4741,92 Q86.8491,91.4219 86.2554,91.1563 Q85.6616,90.875 85.0366,90.875 Q83.6929,90.875 83.0054,91.9531 Q82.3179,93.0156 82.3179,95.1094 Q82.3179,97.2031 83.0054,98.2813 Q83.6929,99.3438 85.0366,99.3438 Q85.6616,99.3438 86.2554,99.0781 Q86.8491,98.7969 87.4741,98.2188 L87.4741,100.9375 Z " fill="#000000"/><text fill="#000000" font-family="sans-serif" font-size="14" lengthAdjust="spacing" textLength="141.4561" x="98.5054" y="100.1436">DocumentationView</text><line style="stroke:#181818;stroke-width:0.5;" x1="70.5054" x2="241.9614" y1="111.2969" y2="111.2969"/><line style="stroke:#181818;stroke-width:0.5;" x1="70.5054" x2="241.9614" y1="119.2969" y2="119.2969"/></g><!--class DocumentationController--><g class="entity" data-entity="DocumentationController" data-source-line="12" data-uid="ent0005" id="entity_DocumentationController"><rect fill="#F1F1F1" height="48" rx="2.5" ry="2.5" style="stroke:#181818;stroke-width:0.5;" width="209.0986" x="51.5054" y="227.2969"/><ellipse cx="66.5054" cy="243.2969" fill="#ADD1B2" rx="11" ry="11" style="stroke:#181818;stroke-width:1;"/><path d="M69.4741,248.9375 Q68.896,249.2344 68.2554,249.375 Q67.6147,249.5313 66.9116,249.5313 Q64.4116,249.5313 63.0835,247.8906 Q61.771,246.2344 61.771,243.1094 Q61.771,239.9844 63.0835,238.3281 Q64.4116,236.6719 66.9116,236.6719 Q67.6147,236.6719 68.2554,236.8281 Q68.9116,236.9844 69.4741,237.2813 L69.4741,240 Q68.8491,239.4219 68.2554,239.1563 Q67.6616,238.875 67.0366,238.875 Q65.6929,238.875 65.0054,239.9531 Q64.3179,241.0156 64.3179,243.1094 Q64.3179,245.2031 65.0054,246.2813 Q65.6929,247.3438 67.0366,247.3438 Q67.6616,247.3438 68.2554,247.0781 Q68.8491,246.7969 69.4741,246.2188 L69.4741,248.9375 Z " fill="#000000"/><text fill="#000000" font-family="sans-serif" font-size="14" lengthAdjust="spacing" textLength="177.0986" x="80.5054" y="248.1436">DocumentationController</text><line style="stroke:#181818;stroke-width:0.5;" x1="52.5054" x2="259.604" y1="259.2969" y2="259.2969"/><line style="stroke:#181818;stroke-width:0.5;" x1="52.5054" x2="259.604" y1="267.2969" y2="267.2969"/></g><!--class Documentation--><g class="entity" data-entity="Documentation" data-source-line="16" data-uid="ent0007" id="entity_Documentation"><rect fill="#F1F1F1" height="48" rx="2.5" ry="2.5" style="stroke:#181818;stroke-width:0.5;" width="139.9258" x="34.0054" y="375.2969"/><ellipse cx="49.0054" cy="391.2969" fill="#ADD1B2" rx="11" ry="11" style="stroke:#181818;stroke-width:1;"/><path d="M51.9741,396.9375 Q51.396,397.2344 50.7554,397.375 Q50.1147,397.5313 49.4116,397.5313 Q46.9116,397.5313 45.5835,395.8906 Q44.271,394.2344 44.271,391.1094 Q44.271,387.9844 45.5835,386.3281 Q46.9116,384.6719 49.4116,384.6719 Q50.1147,384.6719 50.7554,384.8281 Q51.4116,384.9844 51.9741,385.2813 L51.9741,388 Q51.3491,387.4219 50.7554,387.1563 Q50.1616,386.875 49.5366,386.875 Q48.1929,386.875 47.5054,387.9531 Q46.8179,389.0156 46.8179,391.1094 Q46.8179,393.2031 47.5054,394.2813 Q48.1929,395.3438 49.5366,395.3438 Q50.1616,395.3438 50.7554,395.0781 Q51.3491,394.7969 51.9741,394.2188 L51.9741,396.9375 Z " fill="#000000"/><text fill="#000000" font-family="sans-serif" font-size="14" lengthAdjust="spacing" textLength="107.9258" x="63.0054" y="396.1436">Documentation</text><line style="stroke:#181818;stroke-width:0.5;" x1="35.0054" x2="172.9312" y1="407.2969" y2="407.2969"/><line style="stroke:#181818;stroke-width:0.5;" x1="35.0054" x2="172.9312" y1="415.2969" y2="415.2969"/></g><!--class Session--><g class="entity" data-entity="Session" data-source-line="17" data-uid="ent0008" id="entity_Session"><rect fill="#F1F1F1" height="48" rx="2.5" ry="2.5" style="stroke:#181818;stroke-width:0.5;" width="85.416" x="209.5054" y="375.2969"/><ellipse cx="224.5054" cy="391.2969" fill="#ADD1B2" rx="11" ry="11" style="stroke:#181818;stroke-width:1;"/><path d="M227.4741,396.9375 Q226.896,397.2344 226.2554,397.375 Q225.6147,397.5313 224.9116,397.5313 Q222.4116,397.5313 221.0835,395.8906 Q219.771,394.2344 219.771,391.1094 Q219.771,387.9844 221.0835,386.3281 Q222.4116,384.6719 224.9116,384.6719 Q225.6147,384.6719 226.2554,384.8281 Q226.9116,384.9844 227.4741,385.2813 L227.4741,388 Q226.8491,387.4219 226.2554,387.1563 Q225.6616,386.875 225.0366,386.875 Q223.6929,386.875 223.0054,387.9531 Q222.3179,389.0156 222.3179,391.1094 Q222.3179,393.2031 223.0054,394.2813 Q223.6929,395.3438 225.0366,395.3438 Q225.6616,395.3438 226.2554,395.0781 Q226.8491,394.7969 227.4741,394.2188 L227.4741,396.9375 Z " fill="#000000"/><text fill="#000000" font-family="sans-serif" font-size="14" lengthAdjust="spacing" textLength="53.416" x="238.5054" y="396.1436">Session</text><line style="stroke:#181818;stroke-width:0.5;" x1="210.5054" x2="293.9214" y1="407.2969" y2="407.2969"/><line style="stroke:#181818;stroke-width:0.5;" x1="210.5054" x2="293.9214" y1="415.2969" y2="415.2969"/></g><!--link DocumentationView to DocumentationController--><g class="link" data-entity-1="DocumentationView" data-entity-2="DocumentationController" data-source-line="20" data-uid="lnk9" id="link_DocumentationView_DocumentationController"><path codeLine="20" d="M156.0054,127.4269 C156.0054,154.7669 156.0054,193.9769 156.0054,221.2669" fill="none" id="DocumentationView-to-DocumentationController" style="stroke:#181818;stroke-width:1;"/><polygon fill="#181818" points="156.0054,227.2669,160.0054,218.2669,156.0054,222.2669,152.0054,218.2669,156.0054,227.2669" style="stroke:#181818;stroke-width:1;"/><text fill="#000000" font-family="sans-serif" font-size="13" lengthAdjust="spacing" textLength="165.4453" x="157.0054" y="172.3638">POST /api/documentation</text></g><!--link DocumentationController to Documentation--><g class="link" data-entity-1="DocumentationController" data-entity-2="Documentation" data-source-line="21" data-uid="lnk10" id="link_DocumentationController_Documentation"><path codeLine="21" d="M99.5254,275.3669 C86.5754,283.4669 74.4354,293.9669 67.0054,307.2969 C54.7154,329.3469 65.3863,351.5312 79.6263,370.3612" fill="none" id="DocumentationController-to-Documentation" style="stroke:#181818;stroke-width:1;"/><polygon fill="#181818" points="83.2454,375.1469,81.0072,365.5557,80.2295,371.1589,74.6263,370.3812,83.2454,375.1469" style="stroke:#181818;stroke-width:1;"/><text fill="#000000" font-family="sans-serif" font-size="13" lengthAdjust="spacing" textLength="175.1953" x="68.0054" y="320.3638">crear documento funcional</text></g><!--link DocumentationController to Session--><g class="link" data-entity-1="DocumentationController" data-entity-2="Session" data-source-line="22" data-uid="lnk11" id="link_DocumentationController_Session"><path codeLine="22" d="M214.4254,275.5269 C227.6354,283.5869 240.0954,294.0369 248.0054,307.2969 C260.2454,327.8069 260.2643,349.8344 257.5443,369.3344" fill="none" id="DocumentationController-to-Session" style="stroke:#181818;stroke-width:1;"/><polygon fill="#181818" points="256.7154,375.2769,261.9204,366.9158,257.4061,370.3248,253.9971,365.8106,256.7154,375.2769" style="stroke:#181818;stroke-width:1;"/><text fill="#000000" font-family="sans-serif" font-size="13" lengthAdjust="spacing" textLength="104.3428" x="255.0054" y="320.3638">asociar a sesi&#243;n</text></g><!--SRC=[VP31IWD138RlynIXzwK5RnuAKYyzY8MrlSUPT0sTJfP9bgBYK_a8lfYpkDOjPJrEvl- -_4GFd5hCU8GM_G4Rgkqr4cJoXgc9vFGSq1SCSkBKm1wZZdzyHDKxiypFdT7QIwhvZM3XdB4LssfRBMwWWdMoBA7pd268xuwK33r_VIROTycp98pE3JrWjcCrdC6xWvy5SF_BM8dkc4xkOnHVIM-FfMEUX8PCf7o1FaYWA9FKULgJQlykx5KNgAhbr3AuXSrZ_GHpR7aUBjHJn9MjE7mc_BkSZ8xsdsKeNNXKyLmC24hQd_qR]--></g></svg>