<svg xmlns="http://www.w3.org/2000/svg" xmlns:xlink="http://www.w3.org/1999/xlink" contentStyleType="text/css" data-diagram-type="CLASS" height="435px" preserveAspectRatio="none" style="width:773px;height:435px;background:#FFFFFF;" version="1.1" viewBox="0 0 773 435" width="773px" zoomAndPan="magnify"><title>ESTRUCTURA L&#211;GICA DE kiwi_drafts.json</title><defs/><g><g class="title" data-source-line="1"><text fill="#000000" font-family="sans-serif" font-size="14" font-weight="bold" lengthAdjust="spacing" textLength="322.957" x="218.0234" y="22.9951">ESTRUCTURA L&#211;GICA DE kiwi_drafts.json</text></g><!--class DraftStore--><g class="entity" data-entity="DraftStore" data-source-line="6" data-uid="ent0002" id="entity_DraftStore"><rect fill="#F1F1F1" height="113.1875" rx="2.5" ry="2.5" style="stroke:#181818;stroke-width:0.5;" width="182.9531" x="250" y="44.2969"/><ellipse cx="300.8047" cy="60.2969" fill="#ADD1B2" rx="11" ry="11" style="stroke:#181818;stroke-width:1;"/><path d="M303.7734,65.9375 Q303.1953,66.2344 302.5547,66.375 Q301.9141,66.5313 301.2109,66.5313 Q298.7109,66.5313 297.3828,64.8906 Q296.0703,63.2344 296.0703,60.1094 Q296.0703,56.9844 297.3828,55.3281 Q298.7109,53.6719 301.2109,53.6719 Q301.9141,53.6719 302.5547,53.8281 Q303.2109,53.9844 303.7734,54.2813 L303.7734,57 Q303.1484,56.4219 302.5547,56.1563 Q301.9609,55.875 301.3359,55.875 Q299.9922,55.875 299.3047,56.9531 Q298.6172,58.0156 298.6172,60.1094 Q298.6172,62.2031 299.3047,63.2813 Q299.9922,64.3438 301.3359,64.3438 Q301.9609,64.3438 302.5547,64.0781 Q303.1484,63.7969 303.7734,63.2188 L303.7734,65.9375 Z " fill="#000000"/><text fill="#000000" font-family="sans-serif" font-size="14" lengthAdjust="spacing" textLength="72.8438" x="321.3047" y="65.1436">DraftStore</text><line style="stroke:#181818;stroke-width:0.5;" x1="251" x2="431.9531" y1="76.2969" y2="76.2969"/><text fill="#000000" font-family="sans-serif" font-size="14" lengthAdjust="spacing" textLength="40.9336" x="256" y="93.292">drafts</text><text fill="#000000" font-family="sans-serif" font-size="14" lengthAdjust="spacing" textLength="139.624" x="256" y="109.5889">documentation_refs</text><text fill="#000000" font-family="sans-serif" font-size="14" lengthAdjust="spacing" textLength="71.2578" x="256" y="125.8857">use_cases</text><text fill="#000000" font-family="sans-serif" font-size="14" lengthAdjust="spacing" textLength="170.9531" x="256" y="142.1826">functional_requirements</text><line style="stroke:#181818;stroke-width:0.5;" x1="251" x2="431.9531" y1="149.4844" y2="149.4844"/></g><!--class DraftEntry--><g class="entity" data-entity="DraftEntry" data-source-line="13" data-uid="ent0003" id="entity_DraftEntry"><rect fill="#F1F1F1" height="210.9688" rx="2.5" ry="2.5" style="stroke:#181818;stroke-width:0.5;" width="127.0078" x="7" y="217.2969"/><ellipse cx="32.0015" cy="233.2969" fill="#ADD1B2" rx="11" ry="11" style="stroke:#181818;stroke-width:1;"/><path d="M34.9703,238.9375 Q34.3921,239.2344 33.7515,239.375 Q33.1109,239.5313 32.4078,239.5313 Q29.9078,239.5313 28.5796,237.8906 Q27.2671,236.2344 27.2671,233.1094 Q27.2671,229.9844 28.5796,228.3281 Q29.9078,226.6719 32.4078,226.6719 Q33.1109,226.6719 33.7515,226.8281 Q34.4078,226.9844 34.9703,227.2813 L34.9703,230 Q34.3453,229.4219 33.7515,229.1563 Q33.1578,228.875 32.5328,228.875 Q31.189,228.875 30.5015,229.9531 Q29.814,231.0156 29.814,233.1094 Q29.814,235.2031 30.5015,236.2813 Q31.189,237.3438 32.5328,237.3438 Q33.1578,237.3438 33.7515,237.0781 Q34.3453,236.7969 34.9703,236.2188 L34.9703,238.9375 Z " fill="#000000"/><text fill="#000000" font-family="sans-serif" font-size="14" lengthAdjust="spacing" textLength="72.7822" x="48.2241" y="238.1436">DraftEntry</text><line style="stroke:#181818;stroke-width:0.5;" x1="8" x2="133.0078" y1="249.2969" y2="249.2969"/><text fill="#000000" font-family="sans-serif" font-size="14" lengthAdjust="spacing" textLength="66.0625" x="13" y="266.292">summary</text><text fill="#000000" font-family="sans-serif" font-size="14" lengthAdjust="spacing" textLength="108.5752" x="13" y="282.5889">category_name</text><text fill="#000000" font-family="sans-serif" font-size="14" lengthAdjust="spacing" textLength="87.876" x="13" y="298.8857">gherkin_text</text><text fill="#000000" font-family="sans-serif" font-size="14" lengthAdjust="spacing" textLength="36.3193" x="13" y="315.1826">meta</text><text fill="#000000" font-family="sans-serif" font-size="14" lengthAdjust="spacing" textLength="43.0186" x="13" y="331.4795">status</text><text fill="#000000" font-family="sans-serif" font-size="14" lengthAdjust="spacing" textLength="51.2764" x="13" y="347.7764">version</text><text fill="#000000" font-family="sans-serif" font-size="14" lengthAdjust="spacing" textLength="74.7031" x="13" y="364.0732">created_at</text><text fill="#000000" font-family="sans-serif" font-size="14" lengthAdjust="spacing" textLength="79.2832" x="13" y="380.3701">updated_at</text><text fill="#000000" font-family="sans-serif" font-size="14" lengthAdjust="spacing" textLength="101.8486" x="13" y="396.667">user_feedback</text><text fill="#000000" font-family="sans-serif" font-size="14" lengthAdjust="spacing" textLength="115.0078" x="13" y="412.9639">published_result</text><line style="stroke:#181818;stroke-width:0.5;" x1="8" x2="133.0078" y1="420.2656" y2="420.2656"/></g><!--class DocumentationRef--><g class="entity" data-entity="DocumentationRef" data-source-line="26" data-uid="ent0004" id="entity_DocumentationRef"><rect fill="#F1F1F1" height="145.7813" rx="2.5" ry="2.5" style="stroke:#181818;stroke-width:0.5;" width="163.1953" x="169" y="249.7969"/><ellipse cx="184" cy="265.7969" fill="#ADD1B2" rx="11" ry="11" style="stroke:#181818;stroke-width:1;"/><path d="M186.9688,271.4375 Q186.3906,271.7344 185.75,271.875 Q185.1094,272.0313 184.4063,272.0313 Q181.9063,272.0313 180.5781,270.3906 Q179.2656,268.7344 179.2656,265.6094 Q179.2656,262.4844 180.5781,260.8281 Q181.9063,259.1719 184.4063,259.1719 Q185.1094,259.1719 185.75,259.3281 Q186.4063,259.4844 186.9688,259.7813 L186.9688,262.5 Q186.3438,261.9219 185.75,261.6563 Q185.1563,261.375 184.5313,261.375 Q183.1875,261.375 182.5,262.4531 Q181.8125,263.5156 181.8125,265.6094 Q181.8125,267.7031 182.5,268.7813 Q183.1875,269.8438 184.5313,269.8438 Q185.1563,269.8438 185.75,269.5781 Q186.3438,269.2969 186.9688,268.7188 L186.9688,271.4375 Z " fill="#000000"/><text fill="#000000" font-family="sans-serif" font-size="14" lengthAdjust="spacing" textLength="131.1953" x="198" y="270.6436">DocumentationRef</text><line style="stroke:#181818;stroke-width:0.5;" x1="170" x2="331.1953" y1="281.7969" y2="281.7969"/><text fill="#000000" font-family="sans-serif" font-size="14" lengthAdjust="spacing" textLength="95.6006" x="175" y="298.792">project_name</text><text fill="#000000" font-family="sans-serif" font-size="14" lengthAdjust="spacing" textLength="108.9102" x="175" y="315.0889">document_type</text><text fill="#000000" font-family="sans-serif" font-size="14" lengthAdjust="spacing" textLength="33.8584" x="175" y="331.3857">label</text><text fill="#000000" font-family="sans-serif" font-size="14" lengthAdjust="spacing" textLength="67.8535" x="175" y="347.6826">metadata</text><text fill="#000000" font-family="sans-serif" font-size="14" lengthAdjust="spacing" textLength="74.7031" x="175" y="363.9795">created_at</text><text fill="#000000" font-family="sans-serif" font-size="14" lengthAdjust="spacing" textLength="79.2832" x="175" y="380.2764">updated_at</text><line style="stroke:#181818;stroke-width:0.5;" x1="170" x2="331.1953" y1="387.5781" y2="387.5781"/></g><!--class UseCaseEntry--><g class="entity" data-entity="UseCaseEntry" data-source-line="35" data-uid="ent0005" id="entity_UseCaseEntry"><rect fill="#F1F1F1" height="194.6719" rx="2.5" ry="2.5" style="stroke:#181818;stroke-width:0.5;" width="129.665" x="367.5" y="225.2969"/><ellipse cx="382.5" cy="241.2969" fill="#ADD1B2" rx="11" ry="11" style="stroke:#181818;stroke-width:1;"/><path d="M385.4688,246.9375 Q384.8906,247.2344 384.25,247.375 Q383.6094,247.5313 382.9063,247.5313 Q380.4063,247.5313 379.0781,245.8906 Q377.7656,244.2344 377.7656,241.1094 Q377.7656,237.9844 379.0781,236.3281 Q380.4063,234.6719 382.9063,234.6719 Q383.6094,234.6719 384.25,234.8281 Q384.9063,234.9844 385.4688,235.2813 L385.4688,238 Q384.8438,237.4219 384.25,237.1563 Q383.6563,236.875 383.0313,236.875 Q381.6875,236.875 381,237.9531 Q380.3125,239.0156 380.3125,241.1094 Q380.3125,243.2031 381,244.2813 Q381.6875,245.3438 383.0313,245.3438 Q383.6563,245.3438 384.25,245.0781 Q384.8438,244.7969 385.4688,244.2188 L385.4688,246.9375 Z " fill="#000000"/><text fill="#000000" font-family="sans-serif" font-size="14" lengthAdjust="spacing" textLength="97.665" x="396.5" y="246.1436">UseCaseEntry</text><line style="stroke:#181818;stroke-width:0.5;" x1="368.5" x2="496.165" y1="257.2969" y2="257.2969"/><text fill="#000000" font-family="sans-serif" font-size="14" lengthAdjust="spacing" textLength="12.7764" x="373.5" y="274.292">id</text><text fill="#000000" font-family="sans-serif" font-size="14" lengthAdjust="spacing" textLength="39.7031" x="373.5" y="290.5889">name</text><text fill="#000000" font-family="sans-serif" font-size="14" lengthAdjust="spacing" textLength="95.6006" x="373.5" y="306.8857">project_name</text><text fill="#000000" font-family="sans-serif" font-size="14" lengthAdjust="spacing" textLength="111.4941" x="373.5" y="323.1826">document_label</text><text fill="#000000" font-family="sans-serif" font-size="14" lengthAdjust="spacing" textLength="38.835" x="373.5" y="339.4795">notes</text><text fill="#000000" font-family="sans-serif" font-size="14" lengthAdjust="spacing" textLength="67.8535" x="373.5" y="355.7764">metadata</text><text fill="#000000" font-family="sans-serif" font-size="14" lengthAdjust="spacing" textLength="51.2764" x="373.5" y="372.0732">version</text><text fill="#000000" font-family="sans-serif" font-size="14" lengthAdjust="spacing" textLength="74.7031" x="373.5" y="388.3701">created_at</text><text fill="#000000" font-family="sans-serif" font-size="14" lengthAdjust="spacing" textLength="79.2832" x="373.5" y="404.667">updated_at</text><line style="stroke:#181818;stroke-width:0.5;" x1="368.5" x2="496.165" y1="411.9688" y2="411.9688"/></g><!--class FunctionalRequirementEntry--><g class="entity" data-entity="FunctionalRequirementEntry" data-source-line="47" data-uid="ent0006" id="entity_FunctionalRequirementEntry"><rect fill="#F1F1F1" height="210.9688" rx="2.5" ry="2.5" style="stroke:#181818;stroke-width:0.5;" width="233.0039" x="533" y="217.2969"/><ellipse cx="548" cy="233.2969" fill="#ADD1B2" rx="11" ry="11" style="stroke:#181818;stroke-width:1;"/><path d="M550.9688,238.9375 Q550.3906,239.2344 549.75,239.375 Q549.1094,239.5313 548.4063,239.5313 Q545.9063,239.5313 544.5781,237.8906 Q543.2656,236.2344 543.2656,233.1094 Q543.2656,229.9844 544.5781,228.3281 Q545.9063,226.6719 548.4063,226.6719 Q549.1094,226.6719 549.75,226.8281 Q550.4063,226.9844 550.9688,227.2813 L550.9688,230 Q550.3438,229.4219 549.75,229.1563 Q549.1563,228.875 548.5313,228.875 Q547.1875,228.875 546.5,229.9531 Q545.8125,231.0156 545.8125,233.1094 Q545.8125,235.2031 546.5,236.2813 Q547.1875,237.3438 548.5313,237.3438 Q549.1563,237.3438 549.75,237.0781 Q550.3438,236.7969 550.9688,236.2188 L550.9688,238.9375 Z " fill="#000000"/><text fill="#000000" font-family="sans-serif" font-size="14" lengthAdjust="spacing" textLength="201.0039" x="562" y="238.1436">FunctionalRequirementEntry</text><line style="stroke:#181818;stroke-width:0.5;" x1="534" x2="765.0039" y1="249.2969" y2="249.2969"/><text fill="#000000" font-family="sans-serif" font-size="14" lengthAdjust="spacing" textLength="12.7764" x="539" y="266.292">id</text><text fill="#000000" font-family="sans-serif" font-size="14" lengthAdjust="spacing" textLength="27.877" x="539" y="282.5889">text</text><text fill="#000000" font-family="sans-serif" font-size="14" lengthAdjust="spacing" textLength="36.3467" x="539" y="298.8857">uc_id</text><text fill="#000000" font-family="sans-serif" font-size="14" lengthAdjust="spacing" textLength="94.2266" x="539" y="315.1826">source_quote</text><text fill="#000000" font-family="sans-serif" font-size="14" lengthAdjust="spacing" textLength="95.6006" x="539" y="331.4795">project_name</text><text fill="#000000" font-family="sans-serif" font-size="14" lengthAdjust="spacing" textLength="38.835" x="539" y="347.7764">notes</text><text fill="#000000" font-family="sans-serif" font-size="14" lengthAdjust="spacing" textLength="67.8535" x="539" y="364.0732">metadata</text><text fill="#000000" font-family="sans-serif" font-size="14" lengthAdjust="spacing" textLength="51.2764" x="539" y="380.3701">version</text><text fill="#000000" font-family="sans-serif" font-size="14" lengthAdjust="spacing" textLength="74.7031" x="539" y="396.667">created_at</text><text fill="#000000" font-family="sans-serif" font-size="14" lengthAdjust="spacing" textLength="79.2832" x="539" y="412.9639">updated_at</text><line style="stroke:#181818;stroke-width:0.5;" x1="534" x2="765.0039" y1="420.2656" y2="420.2656"/></g><!--link DraftStore to DraftEntry--><g class="link" data-entity-1="DraftStore" data-entity-2="DraftEntry" data-source-line="60" data-uid="lnk7" id="link_DraftStore_DraftEntry"><path codeLine="60" d="M249.84,148.4369 C217,167.4069 180.87,191.0769 151.5,217.2969 C145.59,222.5669 143.8964,223.9235 138.3064,229.9335" fill="none" id="DraftStore-to-DraftEntry" style="stroke:#181818;stroke-width:1;"/><polygon fill="#181818" points="134.22,234.3269,143.2784,230.461,137.6253,230.6657,137.4206,225.0126,134.22,234.3269" style="stroke:#181818;stroke-width:1;"/></g><!--link DraftStore to DocumentationRef--><g class="link" data-entity-1="DraftStore" data-entity-2="DocumentationRef" data-source-line="61" data-uid="lnk8" id="link_DraftStore_DocumentationRef"><path codeLine="61" d="M318.54,157.3169 C306.95,185.3169 295.0538,214.0826 282.6338,244.1026" fill="none" id="DraftStore-to-DocumentationRef" style="stroke:#181818;stroke-width:1;"/><polygon fill="#181818" points="280.34,249.6469,287.4768,242.8597,282.2515,245.0267,280.0845,239.8013,280.34,249.6469" style="stroke:#181818;stroke-width:1;"/></g><!--link DraftStore to UseCaseEntry--><g class="link" data-entity-1="DraftStore" data-entity-2="UseCaseEntry" data-source-line="62" data-uid="lnk9" id="link_DraftStore_UseCaseEntry"><path codeLine="62" d="M364.46,157.3169 C372.99,177.9369 380.6476,196.4321 390.2476,219.6521" fill="none" id="DraftStore-to-UseCaseEntry" style="stroke:#181818;stroke-width:1;"/><polygon fill="#181818" points="392.54,225.1969,392.7979,215.3514,390.6296,220.5762,385.4048,218.408,392.54,225.1969" style="stroke:#181818;stroke-width:1;"/></g><!--link DraftStore to FunctionalRequirementEntry--><g class="link" data-entity-1="DraftStore" data-entity-2="FunctionalRequirementEntry" data-source-line="63" data-uid="lnk10" id="link_DraftStore_FunctionalRequirementEntry"><path codeLine="63" d="M428.23,157.4969 C456.38,176.0669 487.55,197.1669 515.5,217.2969 C521.25,221.4369 522.2704,222.1432 528.1504,226.5032" fill="none" id="DraftStore-to-FunctionalRequirementEntry" style="stroke:#181818;stroke-width:1;"/><polygon fill="#181818" points="532.97,230.0769,528.1231,221.5032,528.9537,227.0988,523.3581,227.9294,532.97,230.0769" style="stroke:#181818;stroke-width:1;"/></g><!--SRC=[dP9TJiCm3CVVUufSO8WJ84tRG9DusiTpvARkbgrDkjXX3CGfE18NmodxA9q0YPV8pZ_9xsyxRBb2DPalPilHOZaRgiUFzuVfQAZ64xMrUwkB02NJpOQyozWtYhtAFRElLM436hQoJrlh6WXGArf3uVVMhLG95M57CHKG3Pc3pIFZr7Wtjo-eRhEiLTGuSURi0whNJAalR0gyYJKwXaJI0Skq6Gcr0S8Kbz6rBg0ITHV5L3fEsTktboUEmw5zcM9TGpX8P81nvSD1EwXHyjKQW_ZLZCyiQOqCwRoWOm8zOQ1KhLmCA5SB3UbOR8fEGXXqYLZaOBQIDp6lBAr53aYnuewhRbqpB5jlJV0RwUd9qAbspOScvHNaM1sT2HH-iNBcB0b7qgbB_RQGvGZuYNS2ESzjZpl0lxjmHj-V9pEx3APdvDZhQ7IRae_1eDv50L_x-w-TpjyQ3Euw7-9AwGsbhtURsTT-hlOJ]--></g></svg>