<?xml version="1.0" encoding="us-ascii" standalone="no"?><svg xmlns="http://www.w3.org/2000/svg" xmlns:xlink="http://www.w3.org/1999/xlink" contentStyleType="text/css" height="185px" preserveAspectRatio="none" style="width:308px;height:185px;background:#FFFFFF;" version="1.1" viewBox="0 0 308 185" width="308px" zoomAndPan="magnify"><defs/><g><text fill="#000000" font-family="sans-serif" font-size="14" font-weight="bold" lengthAdjust="spacing" textLength="181" x="56.5" y="24.5332">Casos de uso - Kiwi TCMS</text><!--cluster Sistema--><g id="cluster_Sistema"><rect fill="none" height="134" rx="2.5" ry="2.5" style="stroke:#181818;stroke-width:1.0;" width="185" x="117" y="45.6094"/><text fill="#000000" font-family="sans-serif" font-size="14" font-weight="bold" lengthAdjust="spacing" textLength="55" x="182" y="62.1426">Sistema</text></g><g id="elem_CU31"><ellipse cx="209.5391" cy="122.4645" fill="#F1F1F1" rx="76.5391" ry="40.3551" style="stroke:#181818;stroke-width:0.5;"/><text fill="#000000" font-family="sans-serif" font-size="14" lengthAdjust="spacing" textLength="92" x="163.5391" y="108.5836">Registrar caso</text><text fill="#000000" font-family="sans-serif" font-size="14" lengthAdjust="spacing" textLength="85" x="167.0391" y="126.193">de prueba en</text><text fill="#000000" font-family="sans-serif" font-size="14" lengthAdjust="spacing" textLength="67" x="176.0391" y="143.8024">Kiwi TCMS</text></g><!--entity Kiwi--><g id="elem_Kiwi"><ellipse cx="39.5" cy="92.1094" fill="#F1F1F1" rx="8" ry="8" style="stroke:#181818;stroke-width:0.5;"/><path d="M39.5,100.1094 L39.5,127.1094 M26.5,108.1094 L52.5,108.1094 M39.5,127.1094 L26.5,142.1094 M39.5,127.1094 L52.5,142.1094 " fill="none" style="stroke:#181818;stroke-width:0.5;"/><text fill="#000000" font-family="sans-serif" font-size="14" lengthAdjust="spacing" textLength="67" x="6" y="158.1426">Kiwi TCMS</text></g><!--link Kiwi to CU31--><g id="link_Kiwi_CU31"><path d="M73.29,122.6094 C90.29,122.6094 105.81,122.6094 126.65,122.6094 " fill="none" id="Kiwi-to-CU31" style="stroke:#181818;stroke-width:1.0;"/><polygon fill="#181818" points="132.65,122.6094,123.65,118.6094,127.65,122.6094,123.65,126.6094,132.65,122.6094" style="stroke:#181818;stroke-width:1.0;"/></g><!--SRC=[LSon3i8m34NHtL_nb3q3OcV9Y5WeR5rCQegbag34LGV4lnEAXCJeOxqxoTLW6KN7cs7G8j4q9pArIH2uvef1CDSCZxqkYbCuT4GSBHUudpXmNVz4dmIdiSrTfzNapWvFGcj8vDhqA6FpmWNjpdrg_KUPvSAGrAV_P3XlD_GYMjNxtHVU]--></g></svg>