<svg xmlns="http://www.w3.org/2000/svg" xmlns:xlink="http://www.w3.org/1999/xlink" contentStyleType="text/css" data-diagram-type="STATE" height="877px" preserveAspectRatio="none" style="width:469px;height:877px;background:#FFFFFF;" version="1.1" viewBox="0 0 469 877" width="469px" zoomAndPan="magnify"><defs/><g><path d="M46,7 L354,7 A12.5,12.5 0 0 1 366.5,19.5 L366.5,33.2969 L33.5,33.2969 L33.5,19.5 A12.5,12.5 0 0 1 46,7" fill="#F1F1F1"/><rect fill="none" height="719.2969" rx="12.5" ry="12.5" style="stroke:#181818;stroke-width:0.5;" width="333" x="33.5" y="7"/><line style="stroke:#181818;stroke-width:0.5;" x1="33.5" x2="366.5" y1="33.2969" y2="33.2969"/><text fill="#000000" font-family="sans-serif" font-size="14" lengthAdjust="spacing" textLength="273.9229" x="63.0386" y="24.9951">aceptarYPublicarCasoPruebaBorrador()</text><g id="aceptarYPublicarCasoPruebaBorrador.ConsultandoBorrador"><rect fill="#F1F1F1" height="50" rx="12.5" ry="12.5" style="stroke:#181818;stroke-width:0.5;" width="50" x="45.5" y="150.2969"/><line style="stroke:#181818;stroke-width:0.5;" x1="45.5" x2="95.5" y1="176.5938" y2="176.5938"/><text fill="#000000" font-family="sans-serif" font-size="14" lengthAdjust="spacing" textLength="4.4502" x="68.2749" y="168.292">&#160;</text></g><g id="aceptarYPublicarCasoPruebaBorrador.AceptandoBorrador"><rect fill="#F1F1F1" height="50" rx="12.5" ry="12.5" style="stroke:#181818;stroke-width:0.5;" width="50" x="45.5" y="286.2969"/><line style="stroke:#181818;stroke-width:0.5;" x1="45.5" x2="95.5" y1="312.5938" y2="312.5938"/><text fill="#000000" font-family="sans-serif" font-size="14" lengthAdjust="spacing" textLength="4.4502" x="68.2749" y="304.292">&#160;</text></g><g id="aceptarYPublicarCasoPruebaBorrador.TransformandoCaso"><rect fill="#F1F1F1" height="50" rx="12.5" ry="12.5" style="stroke:#181818;stroke-width:0.5;" width="50" x="45.5" y="422.2969"/><line style="stroke:#181818;stroke-width:0.5;" x1="45.5" x2="95.5" y1="448.5938" y2="448.5938"/><text fill="#000000" font-family="sans-serif" font-size="14" lengthAdjust="spacing" textLength="4.4502" x="68.2749" y="440.292">&#160;</text></g><g id="aceptarYPublicarCasoPruebaBorrador.PublicandoEnKiwi"><rect fill="#F1F1F1" height="50" rx="12.5" ry="12.5" style="stroke:#181818;stroke-width:0.5;" width="50" x="45.5" y="558.2969"/><line style="stroke:#181818;stroke-width:0.5;" x1="45.5" x2="95.5" y1="584.5938" y2="584.5938"/><text fill="#000000" font-family="sans-serif" font-size="14" lengthAdjust="spacing" textLength="4.4502" x="68.2749" y="576.292">&#160;</text></g><ellipse cx="70.5" cy="54.2969" fill="#222222" rx="10" ry="10" style="stroke:#222222;stroke-width:1;"/><ellipse cx="70.5" cy="705.2969" fill="none" rx="11" ry="11" style="stroke:#222222;stroke-width:1;"/><ellipse cx="70.5" cy="705.2969" fill="#222222" rx="6" ry="6" style="stroke:#222222;stroke-width:1;"/><!--link *start*aceptarYPublicarCasoPruebaBorrador to ConsultandoBorrador--><g class="link" data-entity-1=".start.aceptarYPublicarCasoPruebaBorrador" data-entity-2="ConsultandoBorrador" data-source-line="10" data-uid="lnk3" id="link_.start.aceptarYPublicarCasoPruebaBorrador_ConsultandoBorrador"><path d="M70.5,64.6369 C70.5,82.8269 70.5,117.5369 70.5,143.9069" fill="none" id="*start*aceptarYPublicarCasoPruebaBorrador-to-ConsultandoBorrador" style="stroke:#008000;stroke-width:1;"/><polygon fill="#008000" points="70.5,149.9069,74.5,140.9069,70.5,144.9069,66.5,140.9069,70.5,149.9069" style="stroke:#008000;stroke-width:1;"/><path d="M75.5,87.2969 L75.5,127.2969 L318.5,127.2969 L318.5,97.2969 L308.5,87.2969 L75.5,87.2969" fill="#FEFFDD" style="stroke:#181818;stroke-width:0.5;"/><path d="M308.5,87.2969 L308.5,97.2969 L318.5,97.2969 L308.5,87.2969" fill="#FEFFDD" style="stroke:#181818;stroke-width:0.5;"/><text fill="#000000" font-family="sans-serif" font-size="13" lengthAdjust="spacing" textLength="222.3838" x="81.5" y="104.3638">Se consulta el borrador disponible</text><text fill="#000000" font-family="sans-serif" font-size="13" lengthAdjust="spacing" textLength="136.1699" x="81.5" y="119.4966">para su revision final</text></g><!--link ConsultandoBorrador to AceptandoBorrador--><g class="link" data-entity-1="ConsultandoBorrador" data-entity-2="AceptandoBorrador" data-source-line="16" data-uid="lnk4" id="link_ConsultandoBorrador_AceptandoBorrador"><path d="M70.5,200.5669 C70.5,224.8469 70.5,255.9869 70.5,280.2069" fill="none" id="ConsultandoBorrador-to-AceptandoBorrador" style="stroke:#008000;stroke-width:1;"/><polygon fill="#008000" points="70.5,286.2069,74.5,277.2069,70.5,281.2069,66.5,277.2069,70.5,286.2069" style="stroke:#008000;stroke-width:1;"/><path d="M75.5,223.2969 L75.5,263.2969 L327.5,263.2969 L327.5,233.2969 L317.5,223.2969 L75.5,223.2969" fill="#FEFFDD" style="stroke:#181818;stroke-width:0.5;"/><path d="M317.5,223.2969 L317.5,233.2969 L327.5,233.2969 L317.5,223.2969" fill="#FEFFDD" style="stroke:#181818;stroke-width:0.5;"/><text fill="#000000" font-family="sans-serif" font-size="13" font-weight="bold" lengthAdjust="spacing" textLength="39.3237" x="81.5" y="240.3638">Actor</text><text fill="#000000" font-family="sans-serif" font-size="13" lengthAdjust="spacing" textLength="187.5542" x="124.9561" y="240.3638">valida el estado del borrador</text><text fill="#000000" font-family="sans-serif" font-size="13" lengthAdjust="spacing" textLength="163.9854" x="81.5" y="255.4966">y confirma su aceptacion</text></g><!--link AceptandoBorrador to TransformandoCaso--><g class="link" data-entity-1="AceptandoBorrador" data-entity-2="TransformandoCaso" data-source-line="22" data-uid="lnk5" id="link_AceptandoBorrador_TransformandoCaso"><path d="M70.5,336.5669 C70.5,360.8469 70.5,391.9869 70.5,416.2069" fill="none" id="AceptandoBorrador-to-TransformandoCaso" style="stroke:#008000;stroke-width:1;"/><polygon fill="#008000" points="70.5,422.2069,74.5,413.2069,70.5,417.2069,66.5,413.2069,70.5,422.2069" style="stroke:#008000;stroke-width:1;"/><path d="M75.5,359.2969 L75.5,399.2969 L357.5,399.2969 L357.5,369.2969 L347.5,359.2969 L75.5,359.2969" fill="#FEFFDD" style="stroke:#181818;stroke-width:0.5;"/><path d="M347.5,359.2969 L347.5,369.2969 L357.5,369.2969 L347.5,359.2969" fill="#FEFFDD" style="stroke:#181818;stroke-width:0.5;"/><text fill="#000000" font-family="sans-serif" font-size="13" font-weight="bold" lengthAdjust="spacing" textLength="58.9063" x="81.5" y="376.3638">Sistema</text><text fill="#000000" font-family="sans-serif" font-size="13" lengthAdjust="spacing" textLength="198.2183" x="144.5386" y="376.3638">genera el caso de prueba final</text><text fill="#000000" font-family="sans-serif" font-size="13" lengthAdjust="spacing" textLength="197.0186" x="81.5" y="391.4966">a partir del borrador aceptado</text></g><!--link TransformandoCaso to PublicandoEnKiwi--><g class="link" data-entity-1="TransformandoCaso" data-entity-2="PublicandoEnKiwi" data-source-line="28" data-uid="lnk6" id="link_TransformandoCaso_PublicandoEnKiwi"><path d="M70.5,472.5669 C70.5,496.8469 70.5,527.9869 70.5,552.2069" fill="none" id="TransformandoCaso-to-PublicandoEnKiwi" style="stroke:#008000;stroke-width:1;"/><polygon fill="#008000" points="70.5,558.2069,74.5,549.2069,70.5,553.2069,66.5,549.2069,70.5,558.2069" style="stroke:#008000;stroke-width:1;"/><path d="M75.5,495.2969 L75.5,535.2969 L307.5,535.2969 L307.5,505.2969 L297.5,495.2969 L75.5,495.2969" fill="#FEFFDD" style="stroke:#181818;stroke-width:0.5;"/><path d="M297.5,495.2969 L297.5,505.2969 L307.5,505.2969 L297.5,495.2969" fill="#FEFFDD" style="stroke:#181818;stroke-width:0.5;"/><text fill="#000000" font-family="sans-serif" font-size="13" font-weight="bold" lengthAdjust="spacing" textLength="58.9063" x="81.5" y="512.3638">Sistema</text><text fill="#000000" font-family="sans-serif" font-size="13" lengthAdjust="spacing" textLength="148.2749" x="144.5386" y="512.3638">prepara la informacion</text><text fill="#000000" font-family="sans-serif" font-size="13" lengthAdjust="spacing" textLength="146.2754" x="81.5" y="527.4966">y la envia a Kiwi TCMS</text></g><!--link PublicandoEnKiwi to *end*aceptarYPublicarCasoPruebaBorrador--><g class="link" data-entity-1="PublicandoEnKiwi" data-entity-2=".end.aceptarYPublicarCasoPruebaBorrador" data-source-line="34" data-uid="lnk8" id="link_PublicandoEnKiwi_.end.aceptarYPublicarCasoPruebaBorrador"><path d="M70.5,608.5769 C70.5,634.8769 70.5,669.5669 70.5,688.2769" fill="none" id="PublicandoEnKiwi-to-*end*aceptarYPublicarCasoPruebaBorrador" style="stroke:#008000;stroke-width:1;"/><polygon fill="#008000" points="70.5,694.2769,74.5,685.2769,70.5,689.2769,66.5,685.2769,70.5,694.2769" style="stroke:#008000;stroke-width:1;"/><path d="M75.5,631.2969 L75.5,671.2969 L310.5,671.2969 L310.5,641.2969 L300.5,631.2969 L75.5,631.2969" fill="#FEFFDD" style="stroke:#181818;stroke-width:0.5;"/><path d="M300.5,631.2969 L300.5,641.2969 L310.5,641.2969 L300.5,631.2969" fill="#FEFFDD" style="stroke:#181818;stroke-width:0.5;"/><text fill="#000000" font-family="sans-serif" font-size="13" font-weight="bold" lengthAdjust="spacing" textLength="58.9063" x="81.5" y="648.3638">Sistema</text><text fill="#000000" font-family="sans-serif" font-size="13" lengthAdjust="spacing" textLength="151.3789" x="144.5386" y="648.3638">confirma la publicacion</text><text fill="#000000" font-family="sans-serif" font-size="13" lengthAdjust="spacing" textLength="124.4014" x="81.5" y="663.4966">del caso de prueba</text></g><g id="KIWI_TCMS_ABIERTO"><rect fill="#F1F1F1" height="50" rx="12.5" ry="12.5" style="stroke:#181818;stroke-width:0.5;" width="166.0293" x="7" y="821"/><line style="stroke:#181818;stroke-width:0.5;" x1="7" x2="173.0293" y1="847.2969" y2="847.2969"/><text fill="#000000" font-family="sans-serif" font-size="14" lengthAdjust="spacing" textLength="146.0293" x="17" y="838.9951">KIWI_TCMS_ABIERTO</text></g><g id="BORRADOR_ABIERTO"><rect fill="#F1F1F1" height="50" rx="12.5" ry="12.5" style="stroke:#181818;stroke-width:0.5;" width="169.6387" x="225" y="821"/><line style="stroke:#181818;stroke-width:0.5;" x1="225" x2="394.6387" y1="847.2969" y2="847.2969"/><text fill="#000000" font-family="sans-serif" font-size="14" lengthAdjust="spacing" textLength="149.6387" x="235" y="838.9951">BORRADOR_ABIERTO</text></g><!--link aceptarYPublicarCasoPruebaBorrador to KIWI_TCMS_ABIERTO--><g class="link" data-entity-1="aceptarYPublicarCasoPruebaBorrador" data-entity-2="KIWI_TCMS_ABIERTO" data-source-line="41" data-uid="lnk10" id="link_aceptarYPublicarCasoPruebaBorrador_KIWI_TCMS_ABIERTO"><path d="M95.68,726.16 C90.26,744.78 87,756 87,756 C87,756 87,791 87,791 C87,791 87.5265,800.4793 88.3265,814.8493" fill="none" id="aceptarYPublicarCasoPruebaBorrador-to-KIWI_TCMS_ABIERTO" style="stroke:#008000;stroke-width:1;"/><polygon fill="#008000" points="88.66,820.84,92.1535,811.6316,88.3821,815.8477,84.1659,812.0763,88.66,820.84" style="stroke:#008000;stroke-width:1;"/><path d="M92,761 L92,786 L262,786 L262,771 L252,761 L92,761" fill="#FEFFDD" style="stroke:#181818;stroke-width:0.5;"/><path d="M252,761 L252,771 L262,771 L252,761" fill="#FEFFDD" style="stroke:#181818;stroke-width:0.5;"/><text fill="#000000" font-family="sans-serif" font-size="13" lengthAdjust="spacing" textLength="149.7983" x="98" y="778.0669">completarPublicacion()</text></g><!--link aceptarYPublicarCasoPruebaBorrador to BORRADOR_ABIERTO--><g class="link" data-entity-1="aceptarYPublicarCasoPruebaBorrador" data-entity-2="BORRADOR_ABIERTO" data-source-line="46" data-uid="lnk12" id="link_aceptarYPublicarCasoPruebaBorrador_BORRADOR_ABIERTO"><path d="M282.6,726.05 C291.76,765.8 298.1937,793.733 303.0937,815.013" fill="none" id="aceptarYPublicarCasoPruebaBorrador-to-BORRADOR_ABIERTO" style="stroke:#FF0000;stroke-width:1;"/><polygon fill="#FF0000" points="304.44,820.86,306.3185,811.1919,303.318,815.9875,298.5225,812.9871,304.44,820.86" style="stroke:#FF0000;stroke-width:1;"/><path d="M301,761 L301,786 L462,786 L462,771 L452,761 L301,761" fill="#FEFFDD" style="stroke:#181818;stroke-width:0.5;"/><path d="M452,761 L452,771 L462,771 L452,761" fill="#FEFFDD" style="stroke:#181818;stroke-width:0.5;"/><text fill="#000000" font-family="sans-serif" font-size="13" lengthAdjust="spacing" textLength="140.5942" x="307" y="778.0669">rechazarPublicacion()</text></g><!--SRC=[ZPDVIyCm5CNV-oakyqK5yGl8e9jx64Csje68YDmsTngM9U6cdKpnkvka-rVRwTgd9YVd_7AIkgNK5XbNeAIcOcC9h56Ry94ahi2207Eo1VBJfCoKp97xwCo4IygmPvXH60PqqFbVTddLWQya0VzKpXt_-gLzersf2jJ2xAHDKHhj_vJC6RLR65u5MOXlIhPmVdwWH_93LZJFrozmytpnnaJwvQPx4aWRxsHqg6eP1sO4-LOBf23RzI6aiqRBJ56KXOB1bS2qbavwWuNKgE8KQH5jAv2Mu1fOUmaDhBkic-Q5uRlRh0jhL594FF9L20FYY3JADs4J2-bx2v3LEUOUimMm0L33Qp-0DhoPT0MjC0A-aIQEWBbVul70ncjpr1A62Wl9DVOjgJ0jd0sI6cVZ5fo3QPdYEIe4gQFrlgDD62IzbkX9Wo7C-m-p5gpVmJKgVmlF0jaVbW-rbU6UH3HQh5Dy9yaPl_CnrMZuE7mDstbDUyF1T3vEQdovMLb5tczo8BcyIWxRFY-EIOImtdWwJU_7q_OiflmTFqz5_G00]--></g></svg>