<?xml version="1.0" encoding="us-ascii" standalone="no"?><svg xmlns="http://www.w3.org/2000/svg" xmlns:xlink="http://www.w3.org/1999/xlink" contentStyleType="text/css" height="890px" preserveAspectRatio="none" style="width:436px;height:890px;background:#FFFFFF;" version="1.1" viewBox="0 0 436 890" width="436px" zoomAndPan="magnify"><defs/><g><path d="M52,7 L327,7 A12.5,12.5 0 0 1 339.5,19.5 L339.5,34.6094 L39.5,34.6094 L39.5,19.5 A12.5,12.5 0 0 1 52,7 " fill="#F1F1F1" style="stroke:#F1F1F1;stroke-width:1.0;"/><rect fill="none" height="730.6094" rx="12.5" ry="12.5" style="stroke:#181818;stroke-width:0.5;" width="300" x="39.5" y="7"/><line style="stroke:#181818;stroke-width:0.5;" x1="39.5" x2="339.5" y1="34.6094" y2="34.6094"/><text fill="#000000" font-family="sans-serif" font-size="14" lengthAdjust="spacing" textLength="253" x="63" y="26.5332">aceptarYPublicarCasoPruebaBorrador()</text><g id="aceptarYPublicarCasoPruebaBorrador.ConsultandoBorrador"><rect fill="#F1F1F1" height="50" rx="12.5" ry="12.5" style="stroke:#181818;stroke-width:0.5;" width="50" x="51.5" y="153.6094"/><line style="stroke:#181818;stroke-width:0.5;" x1="51.5" x2="101.5" y1="181.2188" y2="181.2188"/><text fill="#000000" font-family="sans-serif" font-size="14" lengthAdjust="spacing" textLength="4" x="74.5" y="173.1426">&#160;</text></g><g id="aceptarYPublicarCasoPruebaBorrador.AceptandoBorrador"><rect fill="#F1F1F1" height="50" rx="12.5" ry="12.5" style="stroke:#181818;stroke-width:0.5;" width="50" x="51.5" y="291.6094"/><line style="stroke:#181818;stroke-width:0.5;" x1="51.5" x2="101.5" y1="319.2188" y2="319.2188"/><text fill="#000000" font-family="sans-serif" font-size="14" lengthAdjust="spacing" textLength="4" x="74.5" y="311.1426">&#160;</text></g><g id="aceptarYPublicarCasoPruebaBorrador.TransformandoCaso"><rect fill="#F1F1F1" height="50" rx="12.5" ry="12.5" style="stroke:#181818;stroke-width:0.5;" width="50" x="51.5" y="429.6094"/><line style="stroke:#181818;stroke-width:0.5;" x1="51.5" x2="101.5" y1="457.2188" y2="457.2188"/><text fill="#000000" font-family="sans-serif" font-size="14" lengthAdjust="spacing" textLength="4" x="74.5" y="449.1426">&#160;</text></g><g id="aceptarYPublicarCasoPruebaBorrador.PublicandoEnKiwi"><rect fill="#F1F1F1" height="50" rx="12.5" ry="12.5" style="stroke:#181818;stroke-width:0.5;" width="50" x="51.5" y="567.6094"/><line style="stroke:#181818;stroke-width:0.5;" x1="51.5" x2="101.5" y1="595.2188" y2="595.2188"/><text fill="#000000" font-family="sans-serif" font-size="14" lengthAdjust="spacing" textLength="4" x="74.5" y="587.1426">&#160;</text></g><ellipse cx="76.5" cy="55.6094" fill="#222222" rx="10" ry="10" style="stroke:#222222;stroke-width:1.0;"/><ellipse cx="76.5" cy="716.6094" fill="none" rx="11" ry="11" style="stroke:#222222;stroke-width:1.0;"/><ellipse cx="76.5" cy="716.6094" fill="#222222" rx="6" ry="6" style="stroke:#222222;stroke-width:1.0;"/><!--link *start*aceptarYPublicarCasoPruebaBorrador to ConsultandoBorrador--><g id="link_*start*aceptarYPublicarCasoPruebaBorrador_ConsultandoBorrador"><path d="M76.5,65.6994 C76.5,84.1694 76.5,120.5894 76.5,147.5794 " fill="none" id="*start*aceptarYPublicarCasoPruebaBorrador-to-ConsultandoBorrador" style="stroke:#008000;stroke-width:1.0;"/><polygon fill="#008000" points="76.5,153.5794,80.5,144.5794,76.5,148.5794,72.5,144.5794,76.5,153.5794" style="stroke:#008000;stroke-width:1.0;"/><path d="M81.5,88.6094 L81.5,130.6094 L298.5,130.6094 L298.5,98.6094 L288.5,88.6094 L81.5,88.6094 " fill="#FEFFDD" style="stroke:#181818;stroke-width:0.5;"/><path d="M288.5,88.6094 L288.5,98.6094 L298.5,98.6094 L288.5,88.6094 " fill="#FEFFDD" style="stroke:#181818;stroke-width:0.5;"/><text fill="#000000" font-family="sans-serif" font-size="13" lengthAdjust="spacing" textLength="196" x="87.5" y="107.1045">Se consulta el borrador disponible</text><text fill="#000000" font-family="sans-serif" font-size="13" lengthAdjust="spacing" textLength="117" x="87.5" y="123.4561">para su revision final</text></g><!--link ConsultandoBorrador to AceptandoBorrador--><g id="link_ConsultandoBorrador_AceptandoBorrador"><path d="M76.5,203.6094 C76.5,228.3194 76.5,260.6094 76.5,285.3894 " fill="none" id="ConsultandoBorrador-to-AceptandoBorrador" style="stroke:#008000;stroke-width:1.0;"/><polygon fill="#008000" points="76.5,291.3894,80.5,282.3894,76.5,286.3894,72.5,282.3894,76.5,291.3894" style="stroke:#008000;stroke-width:1.0;"/><path d="M81.5,226.6094 L81.5,268.6094 L318.5,268.6094 L318.5,236.6094 L308.5,226.6094 L81.5,226.6094 " fill="#FEFFDD" style="stroke:#181818;stroke-width:0.5;"/><path d="M308.5,226.6094 L308.5,236.6094 L318.5,236.6094 L308.5,226.6094 " fill="#FEFFDD" style="stroke:#181818;stroke-width:0.5;"/><text fill="#000000" font-family="sans-serif" font-size="13" font-weight="bold" lengthAdjust="spacing" textLength="51" x="87.5" y="245.1045">Sistema</text><text fill="#000000" font-family="sans-serif" font-size="13" lengthAdjust="spacing" textLength="161" x="142.5" y="245.1045">valida el estado del borrador</text><text fill="#000000" font-family="sans-serif" font-size="13" lengthAdjust="spacing" textLength="145" x="87.5" y="261.4561">y confirma su aceptacion</text></g><!--link AceptandoBorrador to TransformandoCaso--><g id="link_AceptandoBorrador_TransformandoCaso"><path d="M76.5,341.6094 C76.5,366.3194 76.5,398.6094 76.5,423.3894 " fill="none" id="AceptandoBorrador-to-TransformandoCaso" style="stroke:#008000;stroke-width:1.0;"/><polygon fill="#008000" points="76.5,429.3894,80.5,420.3894,76.5,424.3894,72.5,420.3894,76.5,429.3894" style="stroke:#008000;stroke-width:1.0;"/><path d="M81.5,364.6094 L81.5,406.6094 L330.5,406.6094 L330.5,374.6094 L320.5,364.6094 L81.5,364.6094 " fill="#FEFFDD" style="stroke:#181818;stroke-width:0.5;"/><path d="M320.5,364.6094 L320.5,374.6094 L330.5,374.6094 L320.5,364.6094 " fill="#FEFFDD" style="stroke:#181818;stroke-width:0.5;"/><text fill="#000000" font-family="sans-serif" font-size="13" font-weight="bold" lengthAdjust="spacing" textLength="51" x="87.5" y="383.1045">Sistema</text><text fill="#000000" font-family="sans-serif" font-size="13" lengthAdjust="spacing" textLength="173" x="142.5" y="383.1045">genera el caso de prueba final</text><text fill="#000000" font-family="sans-serif" font-size="13" lengthAdjust="spacing" textLength="169" x="87.5" y="399.4561">a partir del borrador aceptado</text></g><!--link TransformandoCaso to PublicandoEnKiwi--><g id="link_TransformandoCaso_PublicandoEnKiwi"><path d="M76.5,479.6094 C76.5,504.3194 76.5,536.6094 76.5,561.3894 " fill="none" id="TransformandoCaso-to-PublicandoEnKiwi" style="stroke:#008000;stroke-width:1.0;"/><polygon fill="#008000" points="76.5,567.3894,80.5,558.3894,76.5,562.3894,72.5,558.3894,76.5,567.3894" style="stroke:#008000;stroke-width:1.0;"/><path d="M81.5,502.6094 L81.5,544.6094 L284.5,544.6094 L284.5,512.6094 L274.5,502.6094 L81.5,502.6094 " fill="#FEFFDD" style="stroke:#181818;stroke-width:0.5;"/><path d="M274.5,502.6094 L274.5,512.6094 L284.5,512.6094 L274.5,502.6094 " fill="#FEFFDD" style="stroke:#181818;stroke-width:0.5;"/><text fill="#000000" font-family="sans-serif" font-size="13" font-weight="bold" lengthAdjust="spacing" textLength="51" x="87.5" y="521.1045">Sistema</text><text fill="#000000" font-family="sans-serif" font-size="13" lengthAdjust="spacing" textLength="127" x="142.5" y="521.1045">prepara la informacion</text><text fill="#000000" font-family="sans-serif" font-size="13" lengthAdjust="spacing" textLength="133" x="87.5" y="537.4561">y la envia a Kiwi TCMS</text></g><!--link PublicandoEnKiwi to *end*aceptarYPublicarCasoPruebaBorrador--><g id="link_PublicandoEnKiwi_*end*aceptarYPublicarCasoPruebaBorrador"><path d="M76.5,617.7094 C76.5,644.3794 76.5,680.1094 76.5,699.3094 " fill="none" id="PublicandoEnKiwi-to-*end*aceptarYPublicarCasoPruebaBorrador" style="stroke:#008000;stroke-width:1.0;"/><polygon fill="#008000" points="76.5,705.3094,80.5,696.3094,76.5,700.3094,72.5,696.3094,76.5,705.3094" style="stroke:#008000;stroke-width:1.0;"/><path d="M81.5,640.6094 L81.5,682.6094 L289.5,682.6094 L289.5,650.6094 L279.5,640.6094 L81.5,640.6094 " fill="#FEFFDD" style="stroke:#181818;stroke-width:0.5;"/><path d="M279.5,640.6094 L279.5,650.6094 L289.5,650.6094 L279.5,640.6094 " fill="#FEFFDD" style="stroke:#181818;stroke-width:0.5;"/><text fill="#000000" font-family="sans-serif" font-size="13" font-weight="bold" lengthAdjust="spacing" textLength="51" x="87.5" y="659.1045">Sistema</text><text fill="#000000" font-family="sans-serif" font-size="13" lengthAdjust="spacing" textLength="132" x="142.5" y="659.1045">confirma la publicacion</text><text fill="#000000" font-family="sans-serif" font-size="13" lengthAdjust="spacing" textLength="110" x="87.5" y="675.4561">del caso de prueba</text></g><g id="KIWI_TCMS_ABIERTO"><rect fill="#F1F1F1" height="50" rx="12.5" ry="12.5" style="stroke:#181818;stroke-width:0.5;" width="163" x="7" y="834"/><line style="stroke:#181818;stroke-width:0.5;" x1="7" x2="170" y1="861.6094" y2="861.6094"/><text fill="#000000" font-family="sans-serif" font-size="14" lengthAdjust="spacing" textLength="143" x="17" y="853.5332">KIWI_TCMS_ABIERTO</text></g><g id="BORRADOR_ABIERTO"><rect fill="#F1F1F1" height="50" rx="12.5" ry="12.5" style="stroke:#181818;stroke-width:0.5;" width="168" x="207.5" y="834"/><line style="stroke:#181818;stroke-width:0.5;" x1="207.5" x2="375.5" y1="861.6094" y2="861.6094"/><text fill="#000000" font-family="sans-serif" font-size="14" lengthAdjust="spacing" textLength="148" x="217.5" y="853.5332">BORRADOR_ABIERTO</text></g><!--link aceptarYPublicarCasoPruebaBorrador to KIWI_TCMS_ABIERTO--><g id="link_aceptarYPublicarCasoPruebaBorrador_KIWI_TCMS_ABIERTO"><path d="M93.4,738.02 C88.47,756.74 85.5,768 85.5,768 C85.5,768 85.5,804 85.5,804 C85.5,804 86.0265,813.4793 86.8265,827.8493 " fill="none" id="aceptarYPublicarCasoPruebaBorrador-to-KIWI_TCMS_ABIERTO" style="stroke:#008000;stroke-width:1.0;"/><polygon fill="#008000" points="87.16,833.84,90.6535,824.6316,86.8821,828.8477,82.6659,825.0763,87.16,833.84" style="stroke:#008000;stroke-width:1.0;"/><path d="M90.5,773 L90.5,799 L243.5,799 L243.5,783 L233.5,773 L90.5,773 " fill="#FEFFDD" style="stroke:#181818;stroke-width:0.5;"/><path d="M233.5,773 L233.5,783 L243.5,783 L233.5,773 " fill="#FEFFDD" style="stroke:#181818;stroke-width:0.5;"/><text fill="#000000" font-family="sans-serif" font-size="13" lengthAdjust="spacing" textLength="132" x="96.5" y="791.4951">completarPublicacion()</text></g><!--link aceptarYPublicarCasoPruebaBorrador to BORRADOR_ABIERTO--><g id="link_aceptarYPublicarCasoPruebaBorrador_BORRADOR_ABIERTO"><path d="M266.29,738.24 C274.72,778.3 280.6438,806.4287 285.1538,827.8487 " fill="none" id="aceptarYPublicarCasoPruebaBorrador-to-BORRADOR_ABIERTO" style="stroke:#FF0000;stroke-width:1.0;"/><polygon fill="#FF0000" points="286.39,833.72,288.4499,824.089,285.3598,828.8273,280.6215,825.7372,286.39,833.72" style="stroke:#FF0000;stroke-width:1.0;"/><path d="M283.5,773 L283.5,799 L429.5,799 L429.5,783 L419.5,773 L283.5,773 " fill="#FEFFDD" style="stroke:#181818;stroke-width:0.5;"/><path d="M419.5,773 L419.5,783 L429.5,783 L419.5,773 " fill="#FEFFDD" style="stroke:#181818;stroke-width:0.5;"/><text fill="#000000" font-family="sans-serif" font-size="13" lengthAdjust="spacing" textLength="125" x="289.5" y="791.4951">rechazarPublicacion()</text></g><!--SRC=[ZPDHQy8m58NV-oikxaK7iZyWWZeVH8QYmXWYSjjSNJ0c8MaTtTX_NvAgiskTjazDJixvSfBQ7PSQ3Uv1S4bfhWcq4hd_Y2AROag02UaKpTiqYmLFq0pGggd9ACQ-CWQPCe0M6hTbpLO3lg88t5CuDzphbWwKj9b8KJ9rabP5lM3_hsHXKDgDCdily_5LoH7EpG_bc7_mWcRvk8Bsyc5hYEIgtRqA99LpKj9NjGi3SuBag0KI49_wODng9NaiACXymM0pC7JWbZk33PSemXH95cmBa9hW4bXz2HMiJjoTSvlI7ZjFSHSEA3WBWEJAO0hO1MjOaFjjRBXhpcCM9vauq1h42a89iFu8RW5kIP89W8bRul10XujpqHFw4bDkIkn7KgPgE2ia9SxAFRW7KniA9oaGk0pMvuvoFqZomD6HUaDO35xcDLX_WqjKxXxU1N8-B1Ug2yCp2QkqMARuZg8xVkXBgl7eTRJssrdt-gFXR369Ido9scj1pc_wIz9iHR_RlY_E4FDX_SbirdkUpEgp32Nl-7arwWS0]--></g></svg>