<svg xmlns="http://www.w3.org/2000/svg" xmlns:xlink="http://www.w3.org/1999/xlink" contentStyleType="text/css" data-diagram-type="CLASS" height="371px" preserveAspectRatio="none" style="width:733px;height:371px;background:#FFFFFF;" version="1.1" viewBox="0 0 733 371" width="733px" zoomAndPan="magnify"><title>TABLAS PRINCIPALES DE KIWI TCMS (MariaDB)</title><defs/><g><g class="title" data-source-line="1"><text fill="#000000" font-family="sans-serif" font-size="14" font-weight="bold" lengthAdjust="spacing" textLength="369.7285" x="174.8613" y="22.9951">TABLAS PRINCIPALES DE KIWI TCMS (MariaDB)</text></g><!--class TestCase--><g class="entity" data-entity="TestCase" data-source-line="6" data-uid="ent0002" id="entity_TestCase"><rect fill="#F1F1F1" height="145.7813" rx="2.5" ry="2.5" style="stroke:#181818;stroke-width:0.5;" width="164.4326" x="295" y="135.7969"/><ellipse cx="310" cy="151.7969" fill="#ADD1B2" rx="11" ry="11" style="stroke:#181818;stroke-width:1;"/><path d="M314.1094,157.7969 L306.3906,157.7969 L306.3906,145.4063 L314.1094,145.4063 L314.1094,147.5625 L308.8438,147.5625 L308.8438,150.2344 L313.6094,150.2344 L313.6094,152.3906 L308.8438,152.3906 L308.8438,155.6406 L314.1094,155.6406 L314.1094,157.7969 Z " fill="#000000"/><text fill="#000000" font-family="sans-serif" font-size="14" lengthAdjust="spacing" textLength="132.4326" x="324" y="156.6436">testcases_testcase</text><line style="stroke:#181818;stroke-width:0.5;" x1="296" x2="458.4326" y1="167.7969" y2="167.7969"/><text fill="#000000" font-family="sans-serif" font-size="14" lengthAdjust="spacing" textLength="12.7764" x="301" y="184.792">id</text><text fill="#000000" font-family="sans-serif" font-size="14" lengthAdjust="spacing" textLength="66.0625" x="301" y="201.0889">summary</text><text fill="#000000" font-family="sans-serif" font-size="14" lengthAdjust="spacing" textLength="27.877" x="301" y="217.3857">text</text><text fill="#000000" font-family="sans-serif" font-size="14" lengthAdjust="spacing" textLength="81.6484" x="301" y="233.6826">category_id</text><text fill="#000000" font-family="sans-serif" font-size="14" lengthAdjust="spacing" textLength="70.2939" x="301" y="249.9795">priority_id</text><text fill="#000000" font-family="sans-serif" font-size="14" lengthAdjust="spacing" textLength="101.9785" x="301" y="266.2764">case_status_id</text><line style="stroke:#181818;stroke-width:0.5;" x1="296" x2="458.4326" y1="273.5781" y2="273.5781"/></g><!--class Historical--><g class="entity" data-entity="Historical" data-source-line="15" data-uid="ent0003" id="entity_Historical"><rect fill="#F1F1F1" height="96.8906" rx="2.5" ry="2.5" style="stroke:#181818;stroke-width:0.5;" width="228.3555" x="7" y="160.2969"/><ellipse cx="22" cy="176.2969" fill="#ADD1B2" rx="11" ry="11" style="stroke:#181818;stroke-width:1;"/><path d="M26.1094,182.2969 L18.3906,182.2969 L18.3906,169.9063 L26.1094,169.9063 L26.1094,172.0625 L20.8438,172.0625 L20.8438,174.7344 L25.6094,174.7344 L25.6094,176.8906 L20.8438,176.8906 L20.8438,180.1406 L26.1094,180.1406 L26.1094,182.2969 Z " fill="#000000"/><text fill="#000000" font-family="sans-serif" font-size="14" lengthAdjust="spacing" textLength="196.3555" x="36" y="181.1436">testcases_historicaltestcase</text><line style="stroke:#181818;stroke-width:0.5;" x1="8" x2="234.3555" y1="192.2969" y2="192.2969"/><text fill="#000000" font-family="sans-serif" font-size="14" lengthAdjust="spacing" textLength="67.9287" x="13" y="209.292">history_id</text><text fill="#000000" font-family="sans-serif" font-size="14" lengthAdjust="spacing" textLength="12.7764" x="13" y="225.5889">id</text><text fill="#000000" font-family="sans-serif" font-size="14" lengthAdjust="spacing" textLength="86.7207" x="13" y="241.8857">history_date</text><line style="stroke:#181818;stroke-width:0.5;" x1="8" x2="234.3555" y1="249.1875" y2="249.1875"/></g><!--class Category--><g class="entity" data-entity="Category" data-source-line="21" data-uid="ent0004" id="entity_Category"><rect fill="#F1F1F1" height="80.5938" rx="2.5" ry="2.5" style="stroke:#181818;stroke-width:0.5;" width="167.2354" x="539" y="52.2969"/><ellipse cx="554" cy="68.2969" fill="#ADD1B2" rx="11" ry="11" style="stroke:#181818;stroke-width:1;"/><path d="M558.1094,74.2969 L550.3906,74.2969 L550.3906,61.9063 L558.1094,61.9063 L558.1094,64.0625 L552.8438,64.0625 L552.8438,66.7344 L557.6094,66.7344 L557.6094,68.8906 L552.8438,68.8906 L552.8438,72.1406 L558.1094,72.1406 L558.1094,74.2969 Z " fill="#000000"/><text fill="#000000" font-family="sans-serif" font-size="14" lengthAdjust="spacing" textLength="135.2354" x="568" y="73.1436">testcases_category</text><line style="stroke:#181818;stroke-width:0.5;" x1="540" x2="705.2354" y1="84.2969" y2="84.2969"/><text fill="#000000" font-family="sans-serif" font-size="14" lengthAdjust="spacing" textLength="12.7764" x="545" y="101.292">id</text><text fill="#000000" font-family="sans-serif" font-size="14" lengthAdjust="spacing" textLength="39.7031" x="545" y="117.5889">name</text><line style="stroke:#181818;stroke-width:0.5;" x1="540" x2="705.2354" y1="124.8906" y2="124.8906"/></g><!--class Status--><g class="entity" data-entity="Status" data-source-line="26" data-uid="ent0005" id="entity_Status"><rect fill="#F1F1F1" height="80.5938" rx="2.5" ry="2.5" style="stroke:#181818;stroke-width:0.5;" width="207.4512" x="519" y="168.2969"/><ellipse cx="534" cy="184.2969" fill="#ADD1B2" rx="11" ry="11" style="stroke:#181818;stroke-width:1;"/><path d="M538.1094,190.2969 L530.3906,190.2969 L530.3906,177.9063 L538.1094,177.9063 L538.1094,180.0625 L532.8438,180.0625 L532.8438,182.7344 L537.6094,182.7344 L537.6094,184.8906 L532.8438,184.8906 L532.8438,188.1406 L538.1094,188.1406 L538.1094,190.2969 Z " fill="#000000"/><text fill="#000000" font-family="sans-serif" font-size="14" lengthAdjust="spacing" textLength="175.4512" x="548" y="189.1436">testcases_testcasestatus</text><line style="stroke:#181818;stroke-width:0.5;" x1="520" x2="725.4512" y1="200.2969" y2="200.2969"/><text fill="#000000" font-family="sans-serif" font-size="14" lengthAdjust="spacing" textLength="12.7764" x="525" y="217.292">id</text><text fill="#000000" font-family="sans-serif" font-size="14" lengthAdjust="spacing" textLength="39.7031" x="525" y="233.5889">name</text><line style="stroke:#181818;stroke-width:0.5;" x1="520" x2="725.4512" y1="240.8906" y2="240.8906"/></g><!--class Priority--><g class="entity" data-entity="Priority" data-source-line="31" data-uid="ent0006" id="entity_Priority"><rect fill="#F1F1F1" height="80.5938" rx="2.5" ry="2.5" style="stroke:#181818;stroke-width:0.5;" width="183.2998" x="531" y="284.2969"/><ellipse cx="546" cy="300.2969" fill="#ADD1B2" rx="11" ry="11" style="stroke:#181818;stroke-width:1;"/><path d="M550.1094,306.2969 L542.3906,306.2969 L542.3906,293.9063 L550.1094,293.9063 L550.1094,296.0625 L544.8438,296.0625 L544.8438,298.7344 L549.6094,298.7344 L549.6094,300.8906 L544.8438,300.8906 L544.8438,304.1406 L550.1094,304.1406 L550.1094,306.2969 Z " fill="#000000"/><text fill="#000000" font-family="sans-serif" font-size="14" lengthAdjust="spacing" textLength="151.2998" x="560" y="305.1436">management_priority</text><line style="stroke:#181818;stroke-width:0.5;" x1="532" x2="713.2998" y1="316.2969" y2="316.2969"/><text fill="#000000" font-family="sans-serif" font-size="14" lengthAdjust="spacing" textLength="12.7764" x="537" y="333.292">id</text><text fill="#000000" font-family="sans-serif" font-size="14" lengthAdjust="spacing" textLength="38.2402" x="537" y="349.5889">value</text><line style="stroke:#181818;stroke-width:0.5;" x1="532" x2="713.2998" y1="356.8906" y2="356.8906"/></g><!--class Tag--><g class="entity" data-entity="Tag" data-source-line="36" data-uid="ent0007" id="entity_Tag"><rect fill="#F1F1F1" height="80.5938" rx="2.5" ry="2.5" style="stroke:#181818;stroke-width:0.5;" width="155.7373" x="43" y="44.2969"/><ellipse cx="58" cy="60.2969" fill="#ADD1B2" rx="11" ry="11" style="stroke:#181818;stroke-width:1;"/><path d="M62.1094,66.2969 L54.3906,66.2969 L54.3906,53.9063 L62.1094,53.9063 L62.1094,56.0625 L56.8438,56.0625 L56.8438,58.7344 L61.6094,58.7344 L61.6094,60.8906 L56.8438,60.8906 L56.8438,64.1406 L62.1094,64.1406 L62.1094,66.2969 Z " fill="#000000"/><text fill="#000000" font-family="sans-serif" font-size="14" lengthAdjust="spacing" textLength="123.7373" x="72" y="65.1436">management_tag</text><line style="stroke:#181818;stroke-width:0.5;" x1="44" x2="197.7373" y1="76.2969" y2="76.2969"/><text fill="#000000" font-family="sans-serif" font-size="14" lengthAdjust="spacing" textLength="12.7764" x="49" y="93.292">id</text><text fill="#000000" font-family="sans-serif" font-size="14" lengthAdjust="spacing" textLength="39.7031" x="49" y="109.5889">name</text><line style="stroke:#181818;stroke-width:0.5;" x1="44" x2="197.7373" y1="116.8906" y2="116.8906"/></g><!--link TestCase to Category--><g class="link" data-entity-1="TestCase" data-entity-2="Category" data-source-line="41" data-uid="lnk8" id="link_TestCase_Category"><path codeLine="41" d="M459.08,170.1669 C484.68,157.9769 507.5634,147.0777 533.2734,134.8277" fill="none" id="TestCase-to-Category" style="stroke:#181818;stroke-width:1;"/><polygon fill="#181818" points="538.69,132.2469,528.8446,132.5071,534.1762,134.3976,532.2857,139.7292,538.69,132.2469" style="stroke:#181818;stroke-width:1;"/></g><!--link TestCase to Status--><g class="link" data-entity-1="TestCase" data-entity-2="Status" data-source-line="42" data-uid="lnk9" id="link_TestCase_Status"><path codeLine="42" d="M459.08,208.7969 C478.17,208.7969 492.77,208.7969 512.68,208.7969" fill="none" id="TestCase-to-Status" style="stroke:#181818;stroke-width:1;"/><polygon fill="#181818" points="518.68,208.7969,509.68,204.7969,513.68,208.7969,509.68,212.7969,518.68,208.7969" style="stroke:#181818;stroke-width:1;"/></g><!--link TestCase to Priority--><g class="link" data-entity-1="TestCase" data-entity-2="Priority" data-source-line="43" data-uid="lnk10" id="link_TestCase_Priority"><path codeLine="43" d="M459.08,247.4269 C483.85,259.2169 505.7338,269.6453 530.7638,281.5753" fill="none" id="TestCase-to-Priority" style="stroke:#181818;stroke-width:1;"/><polygon fill="#181818" points="536.18,284.1569,529.7767,276.6737,531.6665,282.0056,526.3346,283.8954,536.18,284.1569" style="stroke:#181818;stroke-width:1;"/></g><!--link Historical to TestCase--><g class="link" data-entity-1="Historical" data-entity-2="TestCase" data-source-line="44" data-uid="lnk11" id="link_Historical_TestCase"><path codeLine="44" d="M235.26,208.7969 C255.37,208.7969 269.94,208.7969 288.93,208.7969" fill="none" id="Historical-to-TestCase" style="stroke:#181818;stroke-width:1;"/><polygon fill="#181818" points="294.93,208.7969,285.93,204.7969,289.93,208.7969,285.93,212.7969,294.93,208.7969" style="stroke:#181818;stroke-width:1;"/></g><!--SRC=[TL51ReCm4BppYbLExI5INr29a4X5IIfKa7f4Mt1WLJ2HTsbBg_wzZeb9eYONUsVicLclXQHHa8MBJPX2yX8_Ht4IRbOfB5UmZbzZoA9j2dTRD8JBnNtGg9s0T62egWLACgeGwdJ0xwJtQB05hh7iFabNiCE6rTb9qI1pA6BehHSL5vrEwLl1Gn0eBIG3p4In5CYASr_D01ao2o8Bu2S0eD8ktBSjci5Mehx4RWMAgZepvEvuRwWprd541v-S1QNd0_5xBQyc5YifiBb8VffebptUEjgwnJEbpR_kx3jpVj4Hd5wYiRqXd2hNkPEdhhmjRb5ZfLeBSpy2fqkEuAJymAQ_9HMinh5ZzJzg-elv_75wpYKxTdd9-Gw2iuaUU7_f3m00]--></g></svg>