<?xml version="1.0" encoding="us-ascii" standalone="no"?><svg xmlns="http://www.w3.org/2000/svg" xmlns:xlink="http://www.w3.org/1999/xlink" contentStyleType="text/css" height="704px" preserveAspectRatio="none" style="width:406px;height:704px;background:#FFFFFF;" version="1.1" viewBox="0 0 406 704" width="406px" zoomAndPan="magnify"><defs/><g><path d="M22,7 L345,7 A12.5,12.5 0 0 1 357.5,19.5 L357.5,34.6094 L9.5,34.6094 L9.5,19.5 A12.5,12.5 0 0 1 22,7 " fill="#F1F1F1" style="stroke:#F1F1F1;stroke-width:1.0;"/><rect fill="none" height="544.6094" rx="12.5" ry="12.5" style="stroke:#181818;stroke-width:0.5;" width="348" x="9.5" y="7"/><line style="stroke:#181818;stroke-width:0.5;" x1="9.5" x2="357.5" y1="34.6094" y2="34.6094"/><text fill="#000000" font-family="sans-serif" font-size="14" lengthAdjust="spacing" textLength="163" x="102" y="26.5332">buscarCasosPruebaKiwi()</text><g id="buscarCasosPruebaKiwi.SolicitandoCriterios"><rect fill="#F1F1F1" height="50" rx="12.5" ry="12.5" style="stroke:#181818;stroke-width:0.5;" width="50" x="21.5" y="137.6094"/><line style="stroke:#181818;stroke-width:0.5;" x1="21.5" x2="71.5" y1="165.2188" y2="165.2188"/><text fill="#000000" font-family="sans-serif" font-size="14" lengthAdjust="spacing" textLength="4" x="44.5" y="157.1426">&#160;</text></g><g id="buscarCasosPruebaKiwi.ConsultandoKiwi"><rect fill="#F1F1F1" height="50" rx="12.5" ry="12.5" style="stroke:#181818;stroke-width:0.5;" width="50" x="21.5" y="259.6094"/><line style="stroke:#181818;stroke-width:0.5;" x1="21.5" x2="71.5" y1="287.2188" y2="287.2188"/><text fill="#000000" font-family="sans-serif" font-size="14" lengthAdjust="spacing" textLength="4" x="44.5" y="279.1426">&#160;</text></g><g id="buscarCasosPruebaKiwi.MostrandoResultados"><rect fill="#F1F1F1" height="50" rx="12.5" ry="12.5" style="stroke:#181818;stroke-width:0.5;" width="50" x="21.5" y="397.6094"/><line style="stroke:#181818;stroke-width:0.5;" x1="21.5" x2="71.5" y1="425.2188" y2="425.2188"/><text fill="#000000" font-family="sans-serif" font-size="14" lengthAdjust="spacing" textLength="4" x="44.5" y="417.1426">&#160;</text></g><ellipse cx="46.5" cy="55.6094" fill="#222222" rx="10" ry="10" style="stroke:#222222;stroke-width:1.0;"/><ellipse cx="46.5" cy="530.6094" fill="none" rx="11" ry="11" style="stroke:#222222;stroke-width:1.0;"/><ellipse cx="46.5" cy="530.6094" fill="#222222" rx="6" ry="6" style="stroke:#222222;stroke-width:1.0;"/><!--link *start*buscarCasosPruebaKiwi to SolicitandoCriterios--><g id="link_*start*buscarCasosPruebaKiwi_SolicitandoCriterios"><path d="M46.5,65.9294 C46.5,81.7894 46.5,108.5194 46.5,131.2494 " fill="none" id="*start*buscarCasosPruebaKiwi-to-SolicitandoCriterios" style="stroke:#008000;stroke-width:1.0;"/><polygon fill="#008000" points="46.5,137.2494,50.5,128.2494,46.5,132.2494,42.5,128.2494,46.5,137.2494" style="stroke:#008000;stroke-width:1.0;"/><path d="M51.5,88.6094 L51.5,114.6094 L299.5,114.6094 L299.5,98.6094 L289.5,88.6094 L51.5,88.6094 " fill="#FEFFDD" style="stroke:#181818;stroke-width:0.5;"/><path d="M289.5,88.6094 L289.5,98.6094 L299.5,98.6094 L289.5,88.6094 " fill="#FEFFDD" style="stroke:#181818;stroke-width:0.5;"/><text fill="#000000" font-family="sans-serif" font-size="13" lengthAdjust="spacing" textLength="227" x="57.5" y="107.1045">Buscar casos de prueba en Kiwi TCMS</text></g><!--link SolicitandoCriterios to ConsultandoKiwi--><g id="link_SolicitandoCriterios_ConsultandoKiwi"><path d="M46.5,187.8894 C46.5,208.7094 46.5,232.5494 46.5,253.3594 " fill="none" id="SolicitandoCriterios-to-ConsultandoKiwi" style="stroke:#008000;stroke-width:1.0;"/><polygon fill="#008000" points="46.5,259.3594,50.5,250.3594,46.5,254.3594,42.5,250.3594,46.5,259.3594" style="stroke:#008000;stroke-width:1.0;"/><path d="M51.5,210.6094 L51.5,236.6094 L275.5,236.6094 L275.5,220.6094 L265.5,210.6094 L51.5,210.6094 " fill="#FEFFDD" style="stroke:#181818;stroke-width:0.5;"/><path d="M265.5,210.6094 L265.5,220.6094 L275.5,220.6094 L265.5,210.6094 " fill="#FEFFDD" style="stroke:#181818;stroke-width:0.5;"/><text fill="#000000" font-family="sans-serif" font-size="13" lengthAdjust="spacing" textLength="203" x="57.5" y="229.1045">Realiza la busqueda en Kiwi TCMS</text></g><!--link ConsultandoKiwi to MostrandoResultados--><g id="link_ConsultandoKiwi_MostrandoResultados"><path d="M46.5,309.6094 C46.5,334.3194 46.5,366.6094 46.5,391.3894 " fill="none" id="ConsultandoKiwi-to-MostrandoResultados" style="stroke:#008000;stroke-width:1.0;"/><polygon fill="#008000" points="46.5,397.3894,50.5,388.3894,46.5,392.3894,42.5,388.3894,46.5,397.3894" style="stroke:#008000;stroke-width:1.0;"/><path d="M51.5,332.6094 L51.5,374.6094 L262.5,374.6094 L262.5,342.6094 L252.5,332.6094 L51.5,332.6094 " fill="#FEFFDD" style="stroke:#181818;stroke-width:0.5;"/><path d="M252.5,332.6094 L252.5,342.6094 L262.5,342.6094 L252.5,332.6094 " fill="#FEFFDD" style="stroke:#181818;stroke-width:0.5;"/><text fill="#000000" font-family="sans-serif" font-size="13" font-weight="bold" lengthAdjust="spacing" textLength="51" x="57.5" y="351.1045">Sistema</text><text fill="#000000" font-family="sans-serif" font-size="13" lengthAdjust="spacing" textLength="135" x="112.5" y="351.1045">recupera los resultados</text><text fill="#000000" font-family="sans-serif" font-size="13" lengthAdjust="spacing" textLength="157" x="57.5" y="367.4561">encontrados en Kiwi TCMS</text></g><!--link MostrandoResultados to *end*buscarCasosPruebaKiwi--><g id="link_MostrandoResultados_*end*buscarCasosPruebaKiwi"><path d="M46.5,447.6594 C46.5,470.2594 46.5,496.9894 46.5,513.4094 " fill="none" id="MostrandoResultados-to-*end*buscarCasosPruebaKiwi" style="stroke:#008000;stroke-width:1.0;"/><polygon fill="#008000" points="46.5,519.4094,50.5,510.4094,46.5,514.4094,42.5,510.4094,46.5,519.4094" style="stroke:#008000;stroke-width:1.0;"/><path d="M51.5,470.6094 L51.5,496.6094 L348.5,496.6094 L348.5,480.6094 L338.5,470.6094 L51.5,470.6094 " fill="#FEFFDD" style="stroke:#181818;stroke-width:0.5;"/><path d="M338.5,470.6094 L338.5,480.6094 L348.5,480.6094 L338.5,470.6094 " fill="#FEFFDD" style="stroke:#181818;stroke-width:0.5;"/><text fill="#000000" font-family="sans-serif" font-size="13" font-weight="bold" lengthAdjust="spacing" textLength="51" x="57.5" y="489.1045">Sistema</text><text fill="#000000" font-family="sans-serif" font-size="13" lengthAdjust="spacing" textLength="221" x="112.5" y="489.1045">muestra la lista de casos encontrados</text></g><g id="KIWI_TCMS_ABIERTO"><rect fill="#F1F1F1" height="50" rx="12.5" ry="12.5" style="stroke:#181818;stroke-width:0.5;" width="163" x="7" y="648"/><line style="stroke:#181818;stroke-width:0.5;" x1="7" x2="170" y1="675.6094" y2="675.6094"/><text fill="#000000" font-family="sans-serif" font-size="14" lengthAdjust="spacing" textLength="143" x="17" y="667.5332">KIWI_TCMS_ABIERTO</text></g><g id="SISTEMA_ABIERTO"><rect fill="#F1F1F1" height="50" rx="12.5" ry="12.5" style="stroke:#181818;stroke-width:0.5;" width="147" x="205" y="648"/><line style="stroke:#181818;stroke-width:0.5;" x1="205" x2="352" y1="675.6094" y2="675.6094"/><text fill="#000000" font-family="sans-serif" font-size="14" lengthAdjust="spacing" textLength="127" x="215" y="667.5332">SISTEMA_ABIERTO</text></g><!--link buscarCasosPruebaKiwi to KIWI_TCMS_ABIERTO--><g id="link_buscarCasosPruebaKiwi_KIWI_TCMS_ABIERTO"><path d="M97.87,552.27 C92.09,570.61 88.5,582 88.5,582 C88.5,582 88.5,615.22 88.5,641.88 " fill="none" id="buscarCasosPruebaKiwi-to-KIWI_TCMS_ABIERTO" style="stroke:#008000;stroke-width:1.0;"/><polygon fill="#008000" points="88.5,647.88,92.5,638.88,88.5,642.88,84.5,638.88,88.5,647.88" style="stroke:#008000;stroke-width:1.0;"/><path d="M93.5,587 L93.5,613 L230.5,613 L230.5,597 L220.5,587 L93.5,587 " fill="#FEFFDD" style="stroke:#181818;stroke-width:0.5;"/><path d="M220.5,587 L220.5,597 L230.5,597 L220.5,587 " fill="#FEFFDD" style="stroke:#181818;stroke-width:0.5;"/><text fill="#000000" font-family="sans-serif" font-size="13" lengthAdjust="spacing" textLength="116" x="99.5" y="605.4951">completarConsulta()</text></g><!--link buscarCasosPruebaKiwi to SISTEMA_ABIERTO--><g id="link_buscarCasosPruebaKiwi_SISTEMA_ABIERTO"><path d="M249.42,552.14 C259,591.62 265.9739,620.3995 271.2539,642.1395 " fill="none" id="buscarCasosPruebaKiwi-to-SISTEMA_ABIERTO" style="stroke:#FF0000;stroke-width:1.0;"/><polygon fill="#FF0000" points="272.67,647.97,274.4329,638.2802,271.49,643.1112,266.6589,640.1683,272.67,647.97" style="stroke:#FF0000;stroke-width:1.0;"/><path d="M269.5,587 L269.5,613 L399.5,613 L399.5,597 L389.5,587 L269.5,587 " fill="#FEFFDD" style="stroke:#181818;stroke-width:0.5;"/><path d="M389.5,587 L389.5,597 L399.5,597 L389.5,587 " fill="#FEFFDD" style="stroke:#181818;stroke-width:0.5;"/><text fill="#000000" font-family="sans-serif" font-size="13" lengthAdjust="spacing" textLength="109" x="275.5" y="605.4951">rechazarConsulta()</text></g><!--SRC=[ZLBTQi8m5BxFKnpSZGvaBo22bbqKaGqhx494Jjl35aoJBaaPElRkEuc3sHbnxLMIxtn_YTjBtQB51fJKv0yjGMlK8Io4S1uzGTcv2cs6phXdsr692_aX0HqCaYV3qG0-XG3-JlC3_XbT62KhwL7N9hFIavN6NQ8oersd8YgGNGAMndaRZbSKWJMpHDJcVWlZpTsh9TBRyVIwdZRCPdG8l8yRynW3gf03QYuWPW7I49EkisKHSQJhE7pII_7t3AIYN6Yl29Ky8YWCFRztLDyK_iFRqqorazITbDD2EayDJXxAALYgkfOi- -0GjZzBkZAQMNbzorf2lcUFx-XVTfgE0b5eHV4sXbivNS-PcRx-bn3fXtgklyXVybtmlflDyyVL-adqd5IcQHLvvlYfU3WIlm6lqbkguuFBY_NZSfQcveBVy9Xc_WO0]--></g></svg>