<svg xmlns="http://www.w3.org/2000/svg" xmlns:xlink="http://www.w3.org/1999/xlink" contentStyleType="text/css" data-diagram-type="CLASS" height="445px" preserveAspectRatio="none" style="width:664px;height:445px;background:#FFFFFF;" version="1.1" viewBox="0 0 664 445" width="664px" zoomAndPan="magnify"><title>CU-17 - Crear requisito funcional</title><defs/><g><g class="title" data-source-line="5"><text fill="#000000" font-family="sans-serif" font-size="14" font-weight="bold" lengthAdjust="spacing" textLength="258.8496" x="195.5752" y="22.9951">CU-17 - Crear requisito funcional</text></g><!--cluster Vista--><g class="cluster" data-entity="Vista" data-source-line="7" data-uid="ent0002" id="cluster_Vista"><rect fill="none" height="99" rx="2.5" ry="2.5" style="stroke:#000000;stroke-width:1.5;" width="264" x="269" y="44.2969"/><text fill="#000000" font-family="sans-serif" font-size="14" font-weight="bold" lengthAdjust="spacing" textLength="40.1064" x="380.9468" y="59.292">Vista</text></g><!--cluster Controlador--><g class="cluster" data-entity="Controlador" data-source-line="11" data-uid="ent0004" id="cluster_Controlador"><rect fill="none" height="99" rx="2.5" ry="2.5" style="stroke:#000000;stroke-width:1.5;" width="224" x="289" y="192.2969"/><text fill="#000000" font-family="sans-serif" font-size="14" font-weight="bold" lengthAdjust="spacing" textLength="93.8643" x="354.0679" y="207.292">Controlador</text></g><!--cluster Modelo--><g class="cluster" data-entity="Modelo" data-source-line="15" data-uid="ent0006" id="cluster_Modelo"><rect fill="none" height="99" rx="2.5" ry="2.5" style="stroke:#000000;stroke-width:1.5;" width="651" x="7" y="340.2969"/><text fill="#000000" font-family="sans-serif" font-size="14" font-weight="bold" lengthAdjust="spacing" textLength="57.4834" x="303.7583" y="355.292">Modelo</text></g><!--class UseCasesRequirementsView--><g class="entity" data-entity="UseCasesRequirementsView" data-source-line="8" data-uid="ent0003" id="entity_UseCasesRequirementsView"><rect fill="#F1F1F1" height="48" rx="2.5" ry="2.5" style="stroke:#181818;stroke-width:0.5;" width="231.5068" x="285" y="79.2969"/><ellipse cx="300" cy="95.2969" fill="#ADD1B2" rx="11" ry="11" style="stroke:#181818;stroke-width:1;"/><path d="M302.9688,100.9375 Q302.3906,101.2344 301.75,101.375 Q301.1094,101.5313 300.4063,101.5313 Q297.9063,101.5313 296.5781,99.8906 Q295.2656,98.2344 295.2656,95.1094 Q295.2656,91.9844 296.5781,90.3281 Q297.9063,88.6719 300.4063,88.6719 Q301.1094,88.6719 301.75,88.8281 Q302.4063,88.9844 302.9688,89.2813 L302.9688,92 Q302.3438,91.4219 301.75,91.1563 Q301.1563,90.875 300.5313,90.875 Q299.1875,90.875 298.5,91.9531 Q297.8125,93.0156 297.8125,95.1094 Q297.8125,97.2031 298.5,98.2813 Q299.1875,99.3438 300.5313,99.3438 Q301.1563,99.3438 301.75,99.0781 Q302.3438,98.7969 302.9688,98.2188 L302.9688,100.9375 Z " fill="#000000"/><text fill="#000000" font-family="sans-serif" font-size="14" lengthAdjust="spacing" textLength="199.5068" x="314" y="100.1436">UseCasesRequirementsView</text><line style="stroke:#181818;stroke-width:0.5;" x1="286" x2="515.5068" y1="111.2969" y2="111.2969"/><line style="stroke:#181818;stroke-width:0.5;" x1="286" x2="515.5068" y1="119.2969" y2="119.2969"/></g><!--class RequirementController--><g class="entity" data-entity="RequirementController" data-source-line="12" data-uid="ent0005" id="entity_RequirementController"><rect fill="#F1F1F1" height="48" rx="2.5" ry="2.5" style="stroke:#181818;stroke-width:0.5;" width="192.1455" x="305" y="227.2969"/><ellipse cx="320" cy="243.2969" fill="#ADD1B2" rx="11" ry="11" style="stroke:#181818;stroke-width:1;"/><path d="M322.9688,248.9375 Q322.3906,249.2344 321.75,249.375 Q321.1094,249.5313 320.4063,249.5313 Q317.9063,249.5313 316.5781,247.8906 Q315.2656,246.2344 315.2656,243.1094 Q315.2656,239.9844 316.5781,238.3281 Q317.9063,236.6719 320.4063,236.6719 Q321.1094,236.6719 321.75,236.8281 Q322.4063,236.9844 322.9688,237.2813 L322.9688,240 Q322.3438,239.4219 321.75,239.1563 Q321.1563,238.875 320.5313,238.875 Q319.1875,238.875 318.5,239.9531 Q317.8125,241.0156 317.8125,243.1094 Q317.8125,245.2031 318.5,246.2813 Q319.1875,247.3438 320.5313,247.3438 Q321.1563,247.3438 321.75,247.0781 Q322.3438,246.7969 322.9688,246.2188 L322.9688,248.9375 Z " fill="#000000"/><text fill="#000000" font-family="sans-serif" font-size="14" lengthAdjust="spacing" textLength="160.1455" x="334" y="248.1436">RequirementController</text><line style="stroke:#181818;stroke-width:0.5;" x1="306" x2="496.1455" y1="259.2969" y2="259.2969"/><line style="stroke:#181818;stroke-width:0.5;" x1="306" x2="496.1455" y1="267.2969" y2="267.2969"/></g><!--class FunctionalRequirement--><g class="entity" data-entity="FunctionalRequirement" data-source-line="16" data-uid="ent0007" id="entity_FunctionalRequirement"><rect fill="#F1F1F1" height="48" rx="2.5" ry="2.5" style="stroke:#181818;stroke-width:0.5;" width="195.7549" x="23" y="375.2969"/><ellipse cx="38" cy="391.2969" fill="#ADD1B2" rx="11" ry="11" style="stroke:#181818;stroke-width:1;"/><path d="M40.9688,396.9375 Q40.3906,397.2344 39.75,397.375 Q39.1094,397.5313 38.4063,397.5313 Q35.9063,397.5313 34.5781,395.8906 Q33.2656,394.2344 33.2656,391.1094 Q33.2656,387.9844 34.5781,386.3281 Q35.9063,384.6719 38.4063,384.6719 Q39.1094,384.6719 39.75,384.8281 Q40.4063,384.9844 40.9688,385.2813 L40.9688,388 Q40.3438,387.4219 39.75,387.1563 Q39.1563,386.875 38.5313,386.875 Q37.1875,386.875 36.5,387.9531 Q35.8125,389.0156 35.8125,391.1094 Q35.8125,393.2031 36.5,394.2813 Q37.1875,395.3438 38.5313,395.3438 Q39.1563,395.3438 39.75,395.0781 Q40.3438,394.7969 40.9688,394.2188 L40.9688,396.9375 Z " fill="#000000"/><text fill="#000000" font-family="sans-serif" font-size="14" lengthAdjust="spacing" textLength="163.7549" x="52" y="396.1436">FunctionalRequirement</text><line style="stroke:#181818;stroke-width:0.5;" x1="24" x2="217.7549" y1="407.2969" y2="407.2969"/><line style="stroke:#181818;stroke-width:0.5;" x1="24" x2="217.7549" y1="415.2969" y2="415.2969"/></g><!--class UseCase--><g class="entity" data-entity="UseCase" data-source-line="17" data-uid="ent0008" id="entity_UseCase"><rect fill="#F1F1F1" height="48" rx="2.5" ry="2.5" style="stroke:#181818;stroke-width:0.5;" width="92.416" x="254" y="375.2969"/><ellipse cx="269" cy="391.2969" fill="#ADD1B2" rx="11" ry="11" style="stroke:#181818;stroke-width:1;"/><path d="M271.9688,396.9375 Q271.3906,397.2344 270.75,397.375 Q270.1094,397.5313 269.4063,397.5313 Q266.9063,397.5313 265.5781,395.8906 Q264.2656,394.2344 264.2656,391.1094 Q264.2656,387.9844 265.5781,386.3281 Q266.9063,384.6719 269.4063,384.6719 Q270.1094,384.6719 270.75,384.8281 Q271.4063,384.9844 271.9688,385.2813 L271.9688,388 Q271.3438,387.4219 270.75,387.1563 Q270.1563,386.875 269.5313,386.875 Q268.1875,386.875 267.5,387.9531 Q266.8125,389.0156 266.8125,391.1094 Q266.8125,393.2031 267.5,394.2813 Q268.1875,395.3438 269.5313,395.3438 Q270.1563,395.3438 270.75,395.0781 Q271.3438,394.7969 271.9688,394.2188 L271.9688,396.9375 Z " fill="#000000"/><text fill="#000000" font-family="sans-serif" font-size="14" lengthAdjust="spacing" textLength="60.416" x="283" y="396.1436">UseCase</text><line style="stroke:#181818;stroke-width:0.5;" x1="255" x2="345.416" y1="407.2969" y2="407.2969"/><line style="stroke:#181818;stroke-width:0.5;" x1="255" x2="345.416" y1="415.2969" y2="415.2969"/></g><!--class Documentation--><g class="entity" data-entity="Documentation" data-source-line="18" data-uid="ent0009" id="entity_Documentation"><rect fill="#F1F1F1" height="48" rx="2.5" ry="2.5" style="stroke:#181818;stroke-width:0.5;" width="139.9258" x="381" y="375.2969"/><ellipse cx="396" cy="391.2969" fill="#ADD1B2" rx="11" ry="11" style="stroke:#181818;stroke-width:1;"/><path d="M398.9688,396.9375 Q398.3906,397.2344 397.75,397.375 Q397.1094,397.5313 396.4063,397.5313 Q393.9063,397.5313 392.5781,395.8906 Q391.2656,394.2344 391.2656,391.1094 Q391.2656,387.9844 392.5781,386.3281 Q393.9063,384.6719 396.4063,384.6719 Q397.1094,384.6719 397.75,384.8281 Q398.4063,384.9844 398.9688,385.2813 L398.9688,388 Q398.3438,387.4219 397.75,387.1563 Q397.1563,386.875 396.5313,386.875 Q395.1875,386.875 394.5,387.9531 Q393.8125,389.0156 393.8125,391.1094 Q393.8125,393.2031 394.5,394.2813 Q395.1875,395.3438 396.5313,395.3438 Q397.1563,395.3438 397.75,395.0781 Q398.3438,394.7969 398.9688,394.2188 L398.9688,396.9375 Z " fill="#000000"/><text fill="#000000" font-family="sans-serif" font-size="14" lengthAdjust="spacing" textLength="107.9258" x="410" y="396.1436">Documentation</text><line style="stroke:#181818;stroke-width:0.5;" x1="382" x2="519.9258" y1="407.2969" y2="407.2969"/><line style="stroke:#181818;stroke-width:0.5;" x1="382" x2="519.9258" y1="415.2969" y2="415.2969"/></g><!--class Session--><g class="entity" data-entity="Session" data-source-line="19" data-uid="ent0010" id="entity_Session"><rect fill="#F1F1F1" height="48" rx="2.5" ry="2.5" style="stroke:#181818;stroke-width:0.5;" width="85.416" x="556.5" y="375.2969"/><ellipse cx="571.5" cy="391.2969" fill="#ADD1B2" rx="11" ry="11" style="stroke:#181818;stroke-width:1;"/><path d="M574.4688,396.9375 Q573.8906,397.2344 573.25,397.375 Q572.6094,397.5313 571.9063,397.5313 Q569.4063,397.5313 568.0781,395.8906 Q566.7656,394.2344 566.7656,391.1094 Q566.7656,387.9844 568.0781,386.3281 Q569.4063,384.6719 571.9063,384.6719 Q572.6094,384.6719 573.25,384.8281 Q573.9063,384.9844 574.4688,385.2813 L574.4688,388 Q573.8438,387.4219 573.25,387.1563 Q572.6563,386.875 572.0313,386.875 Q570.6875,386.875 570,387.9531 Q569.3125,389.0156 569.3125,391.1094 Q569.3125,393.2031 570,394.2813 Q570.6875,395.3438 572.0313,395.3438 Q572.6563,395.3438 573.25,395.0781 Q573.8438,394.7969 574.4688,394.2188 L574.4688,396.9375 Z " fill="#000000"/><text fill="#000000" font-family="sans-serif" font-size="14" lengthAdjust="spacing" textLength="53.416" x="585.5" y="396.1436">Session</text><line style="stroke:#181818;stroke-width:0.5;" x1="557.5" x2="640.916" y1="407.2969" y2="407.2969"/><line style="stroke:#181818;stroke-width:0.5;" x1="557.5" x2="640.916" y1="415.2969" y2="415.2969"/></g><!--link UseCasesRequirementsView to RequirementController--><g class="link" data-entity-1="UseCasesRequirementsView" data-entity-2="RequirementController" data-source-line="22" data-uid="lnk11" id="link_UseCasesRequirementsView_RequirementController"><path codeLine="22" d="M401,127.4269 C401,154.7669 401,193.9769 401,221.2669" fill="none" id="UseCasesRequirementsView-to-RequirementController" style="stroke:#181818;stroke-width:1;"/><polygon fill="#181818" points="401,227.2669,405,218.2669,401,222.2669,397,218.2669,401,227.2669" style="stroke:#181818;stroke-width:1;"/><text fill="#000000" font-family="sans-serif" font-size="13" lengthAdjust="spacing" textLength="154.5464" x="402" y="172.3638">POST /api/requirements</text></g><!--link RequirementController to FunctionalRequirement--><g class="link" data-entity-1="RequirementController" data-entity-2="FunctionalRequirement" data-source-line="23" data-uid="lnk12" id="link_RequirementController_FunctionalRequirement"><path codeLine="23" d="M304.82,262.2469 C265.38,269.8869 220.89,283.4069 186,307.2969 C161.17,324.2969 145.3407,348.7497 134.5407,369.5897" fill="none" id="RequirementController-to-FunctionalRequirement" style="stroke:#181818;stroke-width:1;"/><polygon fill="#181818" points="131.78,374.9169,139.4725,368.7666,134.0806,370.4776,132.3696,365.0857,131.78,374.9169" style="stroke:#181818;stroke-width:1;"/><text fill="#000000" font-family="sans-serif" font-size="13" lengthAdjust="spacing" textLength="158.5327" x="187" y="320.3638">crear requisito funcional</text></g><!--link RequirementController to UseCase--><g class="link" data-entity-1="RequirementController" data-entity-2="UseCase" data-source-line="24" data-uid="lnk13" id="link_RequirementController_UseCase"><path codeLine="24" d="M385,275.4269 C366.08,302.7669 338.2237,343.0426 319.3437,370.3326" fill="none" id="RequirementController-to-UseCase" style="stroke:#181818;stroke-width:1;"/><polygon fill="#181818" points="315.93,375.2669,324.34,370.1413,318.7747,371.155,317.761,365.5897,315.93,375.2669" style="stroke:#181818;stroke-width:1;"/><text fill="#000000" font-family="sans-serif" font-size="13" lengthAdjust="spacing" textLength="27.4727" x="364" y="320.3638">ucId</text></g><!--link RequirementController to Documentation--><g class="link" data-entity-1="RequirementController" data-entity-2="Documentation" data-source-line="25" data-uid="lnk14" id="link_RequirementController_Documentation"><path codeLine="25" d="M408.92,275.4269 C418.29,302.7669 431.8271,342.3001 441.1671,369.5901" fill="none" id="RequirementController-to-Documentation" style="stroke:#181818;stroke-width:1;"/><polygon fill="#181818" points="443.11,375.2669,443.9802,365.4565,441.4909,370.5363,436.4112,368.047,443.11,375.2669" style="stroke:#181818;stroke-width:1;"/><text fill="#000000" font-family="sans-serif" font-size="13" lengthAdjust="spacing" textLength="110.5444" x="426" y="320.3638">documentationId</text></g><!--link RequirementController to Session--><g class="link" data-entity-1="RequirementController" data-entity-2="Session" data-source-line="26" data-uid="lnk15" id="link_RequirementController_Session"><path codeLine="26" d="M489.51,275.4369 C509.18,283.3569 528.93,293.7669 545,307.2969 C566.64,325.5269 579.4391,349.2324 588.0791,369.6224" fill="none" id="RequirementController-to-Session" style="stroke:#181818;stroke-width:1;"/><polygon fill="#181818" points="590.42,375.1469,590.5916,365.2995,588.4692,370.5431,583.2256,368.4208,590.42,375.1469" style="stroke:#181818;stroke-width:1;"/><text fill="#000000" font-family="sans-serif" font-size="13" lengthAdjust="spacing" textLength="60.2075" x="561" y="320.3638">sessionId</text></g><!--SRC=[VP31JiCm38RlUGfhzsfmGkA0X8gGTfX0bErkKgzOov8Ikve0yUwahAeorEuM9__tvqjapxx5Y0TeqUwneKe_7K4ag-WRHqR6WBnZ7Oxi6zYXa_p4EXIvLutyrYcjRF0LVn5S6QEigQtS5DStK40P2MFg_kXOM0FiEcyvU7J63BV3OikYk81l0wTQs0YLA2GlFHRfG5vbotGqFnbL1gynk2GOSpPZXeIZU0QkGqqkvCnZaj8_gup-RpFE3y5sVG1xPDojIAIVqqrp-b0KTzD-S0lFJzKhBB7bPSmmCntlYoQbKv6T_V7vhi4uqPrTrHU2PszFyJgVBvB3_oH6JgjL_Gi0]--></g></svg>