<svg xmlns="http://www.w3.org/2000/svg" xmlns:xlink="http://www.w3.org/1999/xlink" contentStyleType="text/css" data-diagram-type="CLASS" height="1370px" preserveAspectRatio="none" style="width:1015px;height:1370px;background:#FFFFFF;" version="1.1" viewBox="0 0 1015 1370" width="1015px" zoomAndPan="magnify"><title>DIAGRAMA ENTIDAD RELACION</title><defs/><g><g class="title" data-source-line="1"><text fill="#000000" font-family="sans-serif" font-size="14" font-weight="bold" lengthAdjust="spacing" textLength="244.6035" x="378.302" y="22.9951">DIAGRAMA ENTIDAD RELACION</text></g><!--class User--><g class="entity" data-entity="User" data-source-line="6" data-uid="ent0002" id="entity_User"><rect fill="#F1F1F1" height="96.8906" rx="2.5" ry="2.5" style="stroke:#181818;stroke-width:0.5;" width="131.5947" x="170" y="44.2969"/><ellipse cx="215.5923" cy="60.2969" fill="#ADD1B2" rx="11" ry="11" style="stroke:#181818;stroke-width:1;"/><path d="M219.7017,66.2969 L211.9829,66.2969 L211.9829,53.9063 L219.7017,53.9063 L219.7017,56.0625 L214.436,56.0625 L214.436,58.7344 L219.2017,58.7344 L219.2017,60.8906 L214.436,60.8906 L214.436,64.1406 L219.7017,64.1406 L219.7017,66.2969 Z " fill="#000000"/><text fill="#000000" font-family="sans-serif" font-size="14" lengthAdjust="spacing" textLength="31.9102" x="236.0923" y="65.1436">User</text><line style="stroke:#181818;stroke-width:0.5;" x1="171" x2="300.5947" y1="76.2969" y2="76.2969"/><text fill="#000000" font-family="sans-serif" font-size="14" lengthAdjust="spacing" textLength="87.5547" x="176" y="93.292">_id: ObjectId</text><text fill="#000000" font-family="sans-serif" font-size="14" lengthAdjust="spacing" textLength="119.5947" x="176" y="109.5889">username: string</text><text fill="#000000" font-family="sans-serif" font-size="14" lengthAdjust="spacing" textLength="76.1797" x="176" y="125.8857">role: string</text><line style="stroke:#181818;stroke-width:0.5;" x1="171" x2="300.5947" y1="133.1875" y2="133.1875"/></g><!--class Session--><g class="entity" data-entity="Session" data-source-line="12" data-uid="ent0003" id="entity_Session"><rect fill="#F1F1F1" height="162.0781" rx="2.5" ry="2.5" style="stroke:#181818;stroke-width:0.5;" width="176.9785" x="340.5" y="1201.2969"/><ellipse cx="398.0313" cy="1217.2969" fill="#ADD1B2" rx="11" ry="11" style="stroke:#181818;stroke-width:1;"/><path d="M402.1406,1223.2969 L394.4219,1223.2969 L394.4219,1210.9063 L402.1406,1210.9063 L402.1406,1213.0625 L396.875,1213.0625 L396.875,1215.7344 L401.6406,1215.7344 L401.6406,1217.8906 L396.875,1217.8906 L396.875,1221.1406 L402.1406,1221.1406 L402.1406,1223.2969 Z " fill="#000000"/><text fill="#000000" font-family="sans-serif" font-size="14" lengthAdjust="spacing" textLength="53.416" x="418.5313" y="1222.1436">Session</text><line style="stroke:#181818;stroke-width:0.5;" x1="341.5" x2="516.4785" y1="1233.2969" y2="1233.2969"/><text fill="#000000" font-family="sans-serif" font-size="14" lengthAdjust="spacing" textLength="87.5547" x="346.5" y="1250.292">_id: ObjectId</text><text fill="#000000" font-family="sans-serif" font-size="14" lengthAdjust="spacing" textLength="89.0586" x="346.5" y="1266.5889">name: string</text><text fill="#000000" font-family="sans-serif" font-size="14" lengthAdjust="spacing" textLength="139.5557" x="346.5" y="1282.8857">projectName: string</text><text fill="#000000" font-family="sans-serif" font-size="14" lengthAdjust="spacing" textLength="150.2129" x="346.5" y="1299.1826">workflowMode: string</text><text fill="#000000" font-family="sans-serif" font-size="14" lengthAdjust="spacing" textLength="146.7402" x="346.5" y="1315.4795">currentStep: number</text><text fill="#000000" font-family="sans-serif" font-size="14" lengthAdjust="spacing" textLength="156.2285" x="346.5" y="1331.7764">agentSessionId: string</text><text fill="#000000" font-family="sans-serif" font-size="14" lengthAdjust="spacing" textLength="164.9785" x="346.5" y="1348.0732">agentHandoffUrl: string</text><line style="stroke:#181818;stroke-width:0.5;" x1="341.5" x2="516.4785" y1="1355.375" y2="1355.375"/></g><!--class Documentation--><g class="entity" data-entity="Documentation" data-source-line="22" data-uid="ent0004" id="entity_Documentation"><rect fill="#F1F1F1" height="113.1875" rx="2.5" ry="2.5" style="stroke:#181818;stroke-width:0.5;" width="166.3281" x="219" y="1011.2969"/><ellipse cx="245.8811" cy="1027.2969" fill="#ADD1B2" rx="11" ry="11" style="stroke:#181818;stroke-width:1;"/><path d="M249.9904,1033.2969 L242.2717,1033.2969 L242.2717,1020.9063 L249.9904,1020.9063 L249.9904,1023.0625 L244.7248,1023.0625 L244.7248,1025.7344 L249.4904,1025.7344 L249.4904,1027.8906 L244.7248,1027.8906 L244.7248,1031.1406 L249.9904,1031.1406 L249.9904,1033.2969 Z " fill="#000000"/><text fill="#000000" font-family="sans-serif" font-size="14" lengthAdjust="spacing" textLength="107.9258" x="262.5213" y="1032.1436">Documentation</text><line style="stroke:#181818;stroke-width:0.5;" x1="220" x2="384.3281" y1="1043.2969" y2="1043.2969"/><text fill="#000000" font-family="sans-serif" font-size="14" lengthAdjust="spacing" textLength="87.5547" x="225" y="1060.292">_id: ObjectId</text><text fill="#000000" font-family="sans-serif" font-size="14" lengthAdjust="spacing" textLength="83.2139" x="225" y="1076.5889">label: string</text><text fill="#000000" font-family="sans-serif" font-size="14" lengthAdjust="spacing" textLength="76.7266" x="225" y="1092.8857">title: string</text><text fill="#000000" font-family="sans-serif" font-size="14" lengthAdjust="spacing" textLength="154.3281" x="225" y="1109.1826">documentType: string</text><line style="stroke:#181818;stroke-width:0.5;" x1="220" x2="384.3281" y1="1116.4844" y2="1116.4844"/></g><!--class UseCase--><g class="entity" data-entity="UseCase" data-source-line="29" data-uid="ent0005" id="entity_UseCase"><rect fill="#F1F1F1" height="96.8906" rx="2.5" ry="2.5" style="stroke:#181818;stroke-width:0.5;" width="101.0586" x="423.5" y="837.2969"/><ellipse cx="442.3892" cy="853.2969" fill="#ADD1B2" rx="11" ry="11" style="stroke:#181818;stroke-width:1;"/><path d="M446.4985,859.2969 L438.7798,859.2969 L438.7798,846.9063 L446.4985,846.9063 L446.4985,849.0625 L441.2329,849.0625 L441.2329,851.7344 L445.9985,851.7344 L445.9985,853.8906 L441.2329,853.8906 L441.2329,857.1406 L446.4985,857.1406 L446.4985,859.2969 Z " fill="#000000"/><text fill="#000000" font-family="sans-serif" font-size="14" lengthAdjust="spacing" textLength="60.416" x="457.2534" y="858.1436">UseCase</text><line style="stroke:#181818;stroke-width:0.5;" x1="424.5" x2="523.5586" y1="869.2969" y2="869.2969"/><text fill="#000000" font-family="sans-serif" font-size="14" lengthAdjust="spacing" textLength="87.5547" x="429.5" y="886.292">_id: ObjectId</text><text fill="#000000" font-family="sans-serif" font-size="14" lengthAdjust="spacing" textLength="78.9414" x="429.5" y="902.5889">ucId: string</text><text fill="#000000" font-family="sans-serif" font-size="14" lengthAdjust="spacing" textLength="89.0586" x="429.5" y="918.8857">name: string</text><line style="stroke:#181818;stroke-width:0.5;" x1="424.5" x2="523.5586" y1="926.1875" y2="926.1875"/></g><!--class FR--><g class="entity" data-entity="FR" data-source-line="35" data-uid="ent0006" id="entity_FR"><rect fill="#F1F1F1" height="113.1875" rx="2.5" ry="2.5" style="stroke:#181818;stroke-width:0.5;" width="195.7549" x="162" y="647.2969"/><ellipse cx="177" cy="663.2969" fill="#ADD1B2" rx="11" ry="11" style="stroke:#181818;stroke-width:1;"/><path d="M181.1094,669.2969 L173.3906,669.2969 L173.3906,656.9063 L181.1094,656.9063 L181.1094,659.0625 L175.8438,659.0625 L175.8438,661.7344 L180.6094,661.7344 L180.6094,663.8906 L175.8438,663.8906 L175.8438,667.1406 L181.1094,667.1406 L181.1094,669.2969 Z " fill="#000000"/><text fill="#000000" font-family="sans-serif" font-size="14" lengthAdjust="spacing" textLength="163.7549" x="191" y="668.1436">FunctionalRequirement</text><line style="stroke:#181818;stroke-width:0.5;" x1="163" x2="356.7549" y1="679.2969" y2="679.2969"/><text fill="#000000" font-family="sans-serif" font-size="14" lengthAdjust="spacing" textLength="87.5547" x="168" y="696.292">_id: ObjectId</text><text fill="#000000" font-family="sans-serif" font-size="14" lengthAdjust="spacing" textLength="73.0557" x="168" y="712.5889">rfId: string</text><text fill="#000000" font-family="sans-serif" font-size="14" lengthAdjust="spacing" textLength="77.2324" x="168" y="728.8857">text: string</text><text fill="#000000" font-family="sans-serif" font-size="14" lengthAdjust="spacing" textLength="78.9414" x="168" y="745.1826">ucId: string</text><line style="stroke:#181818;stroke-width:0.5;" x1="163" x2="356.7549" y1="752.4844" y2="752.4844"/></g><!--class GS--><g class="entity" data-entity="GS" data-source-line="42" data-uid="ent0007" id="entity_GS"><rect fill="#F1F1F1" height="113.1875" rx="2.5" ry="2.5" style="stroke:#181818;stroke-width:0.5;" width="147.8213" x="491" y="457.2969"/><ellipse cx="506" cy="473.2969" fill="#ADD1B2" rx="11" ry="11" style="stroke:#181818;stroke-width:1;"/><path d="M510.1094,479.2969 L502.3906,479.2969 L502.3906,466.9063 L510.1094,466.9063 L510.1094,469.0625 L504.8438,469.0625 L504.8438,471.7344 L509.6094,471.7344 L509.6094,473.8906 L504.8438,473.8906 L504.8438,477.1406 L510.1094,477.1406 L510.1094,479.2969 Z " fill="#000000"/><text fill="#000000" font-family="sans-serif" font-size="14" lengthAdjust="spacing" textLength="115.8213" x="520" y="478.1436">GherkinScenario</text><line style="stroke:#181818;stroke-width:0.5;" x1="492" x2="637.8213" y1="489.2969" y2="489.2969"/><text fill="#000000" font-family="sans-serif" font-size="14" lengthAdjust="spacing" textLength="87.5547" x="497" y="506.292">_id: ObjectId</text><text fill="#000000" font-family="sans-serif" font-size="14" lengthAdjust="spacing" textLength="76.7266" x="497" y="522.5889">title: string</text><text fill="#000000" font-family="sans-serif" font-size="14" lengthAdjust="spacing" textLength="78.9414" x="497" y="538.8857">ucId: string</text><text fill="#000000" font-family="sans-serif" font-size="14" lengthAdjust="spacing" textLength="92.8662" x="497" y="555.1826">rfIds: [String]</text><line style="stroke:#181818;stroke-width:0.5;" x1="492" x2="637.8213" y1="562.4844" y2="562.4844"/></g><!--class Draft--><g class="entity" data-entity="Draft" data-source-line="49" data-uid="ent0008" id="entity_Draft"><rect fill="#F1F1F1" height="162.0781" rx="2.5" ry="2.5" style="stroke:#181818;stroke-width:0.5;" width="170.2793" x="633" y="218.2969"/><ellipse cx="696.123" cy="234.2969" fill="#ADD1B2" rx="11" ry="11" style="stroke:#181818;stroke-width:1;"/><path d="M700.2324,240.2969 L692.5137,240.2969 L692.5137,227.9063 L700.2324,227.9063 L700.2324,230.0625 L694.9668,230.0625 L694.9668,232.7344 L699.7324,232.7344 L699.7324,234.8906 L694.9668,234.8906 L694.9668,238.1406 L700.2324,238.1406 L700.2324,240.2969 Z " fill="#000000"/><text fill="#000000" font-family="sans-serif" font-size="14" lengthAdjust="spacing" textLength="35.5332" x="716.623" y="239.1436">Draft</text><line style="stroke:#181818;stroke-width:0.5;" x1="634" x2="802.2793" y1="250.2969" y2="250.2969"/><text fill="#000000" font-family="sans-serif" font-size="14" lengthAdjust="spacing" textLength="87.5547" x="639" y="267.292">_id: ObjectId</text><text fill="#000000" font-family="sans-serif" font-size="14" lengthAdjust="spacing" textLength="115.418" x="639" y="283.5889">summary: string</text><text fill="#000000" font-family="sans-serif" font-size="14" lengthAdjust="spacing" textLength="78.9414" x="639" y="299.8857">ucId: string</text><text fill="#000000" font-family="sans-serif" font-size="14" lengthAdjust="spacing" textLength="92.8662" x="639" y="316.1826">rfIds: [String]</text><text fill="#000000" font-family="sans-serif" font-size="14" lengthAdjust="spacing" textLength="158.2793" x="639" y="332.4795">scenarioIds: [ObjectId]</text><text fill="#000000" font-family="sans-serif" font-size="14" lengthAdjust="spacing" textLength="92.374" x="639" y="348.7764">status: string</text><text fill="#000000" font-family="sans-serif" font-size="14" lengthAdjust="spacing" textLength="138.4209" x="639" y="365.0732">kiwiCaseId: number</text><line style="stroke:#181818;stroke-width:0.5;" x1="634" x2="802.2793" y1="372.375" y2="372.375"/></g><!--class Kiwi--><g class="entity" data-entity="Kiwi" data-source-line="59" data-uid="ent0009" id="entity_Kiwi"><rect fill="#F1F1F1" height="96.8906" rx="2.5" ry="2.5" style="stroke:#181818;stroke-width:0.5;" width="147.8916" x="674" y="465.2969"/><ellipse cx="708.6822" cy="481.2969" fill="#ADD1B2" rx="11" ry="11" style="stroke:#181818;stroke-width:1;"/><path d="M712.7916,487.2969 L705.0729,487.2969 L705.0729,474.9063 L712.7916,474.9063 L712.7916,477.0625 L707.526,477.0625 L707.526,479.7344 L712.2916,479.7344 L712.2916,481.8906 L707.526,481.8906 L707.526,485.1406 L712.7916,485.1406 L712.7916,487.2969 Z " fill="#000000"/><text fill="#000000" font-family="sans-serif" font-size="14" lengthAdjust="spacing" textLength="72.1533" x="727.0561" y="486.1436">Kiwi TCMS</text><line style="stroke:#181818;stroke-width:0.5;" x1="675" x2="820.8916" y1="497.2969" y2="497.2969"/><text fill="#000000" font-family="sans-serif" font-size="14" lengthAdjust="spacing" textLength="135.8916" x="680" y="514.292">testcaseId: number</text><text fill="#000000" font-family="sans-serif" font-size="14" lengthAdjust="spacing" textLength="111.2275" x="680" y="530.5889">category: string</text><text fill="#000000" font-family="sans-serif" font-size="14" lengthAdjust="spacing" textLength="99.873" x="680" y="546.8857">priority: string</text><line style="stroke:#181818;stroke-width:0.5;" x1="675" x2="820.8916" y1="554.1875" y2="554.1875"/></g><!--link User to Session--><g class="link" data-entity-1="User" data-entity-2="Session" data-source-line="65" data-uid="lnk10" id="link_User_Session"><path codeLine="65" d="M169.78,119.3869 C101.84,150.4869 6,209.9969 6,298.2969 C6,298.2969 6,298.2969 6,1068.7969 C6,1217.1369 210.3253,1261.2867 334.3653,1274.8067" fill="none" id="User-to-Session" style="stroke:#181818;stroke-width:1;"/><polygon fill="#181818" points="340.33,1275.4569,331.8164,1270.5052,335.3594,1274.9151,330.9496,1278.4581,340.33,1275.4569" style="stroke:#181818;stroke-width:1;"/><text fill="#000000" font-family="sans-serif" font-size="13" lengthAdjust="spacing" textLength="48.3247" x="7" y="708.3638">creates</text></g><!--link User to Documentation--><g class="link" data-entity-1="User" data-entity-2="Documentation" data-source-line="66" data-uid="lnk11" id="link_User_Documentation"><path codeLine="66" d="M185.08,141.6169 C149.74,180.1369 109,237.6969 109,298.2969 C109,298.2969 109,298.2969 109,799.7969 C109,824.8169 195.4194,935.7297 252.4894,1006.3697" fill="none" id="User-to-Documentation" style="stroke:#181818;stroke-width:1;"/><polygon fill="#181818" points="256.26,1011.0369,253.7155,1001.5224,253.1178,1007.1476,247.4926,1006.5499,256.26,1011.0369" style="stroke:#181818;stroke-width:1;"/><text fill="#000000" font-family="sans-serif" font-size="13" lengthAdjust="spacing" textLength="51.0479" x="110" y="613.3638">uploads</text></g><!--link User to UseCase--><g class="link" data-entity-1="User" data-entity-2="UseCase" data-source-line="67" data-uid="lnk12" id="link_User_UseCase"><path codeLine="67" d="M250.35,141.4969 C292.76,282.4469 415.4611,690.2514 457.9011,831.2914" fill="none" id="User-to-UseCase" style="stroke:#181818;stroke-width:1;"/><polygon fill="#181818" points="459.63,837.0369,460.867,827.266,458.1893,832.2489,453.2063,829.5712,459.63,837.0369" style="stroke:#181818;stroke-width:1;"/><text fill="#000000" font-family="sans-serif" font-size="13" lengthAdjust="spacing" textLength="84.4365" x="379" y="518.3638">creates/edits</text></g><!--link User to FR--><g class="link" data-entity-1="User" data-entity-2="FR" data-source-line="68" data-uid="lnk13" id="link_User_FR"><path codeLine="68" d="M227.71,141.3169 C217.49,206.0169 202.48,325.4669 211,427.2969 C218.14,512.6369 227.54,533.0669 243,617.2969 C244.78,626.9769 245.5961,631.3589 247.5461,641.3089" fill="none" id="User-to-FR" style="stroke:#181818;stroke-width:1;"/><polygon fill="#181818" points="248.7,647.1969,250.8944,637.5956,247.7384,642.2902,243.0438,639.1342,248.7,647.1969" style="stroke:#181818;stroke-width:1;"/><text fill="#000000" font-family="sans-serif" font-size="13" lengthAdjust="spacing" textLength="84.4365" x="212" y="423.3638">creates/edits</text></g><!--link User to GS--><g class="link" data-entity-1="User" data-entity-2="GS" data-source-line="69" data-uid="lnk14" id="link_User_GS"><path codeLine="69" d="M302,132.4569 C318.4,143.7769 335.22,156.9969 349,171.2969 C433.69,259.1969 500.3666,380.0054 536.1066,451.8154" fill="none" id="User-to-GS" style="stroke:#181818;stroke-width:1;"/><polygon fill="#181818" points="538.78,457.1869,538.3509,447.3474,536.5522,452.7106,531.1889,450.9119,538.78,457.1869" style="stroke:#181818;stroke-width:1;"/><text fill="#000000" font-family="sans-serif" font-size="13" lengthAdjust="spacing" textLength="84.4365" x="497" y="303.8638">creates/edits</text></g><!--link User to Draft--><g class="link" data-entity-1="User" data-entity-2="Draft" data-source-line="70" data-uid="lnk15" id="link_User_Draft"><path codeLine="70" d="M302.09,108.3469 C356.67,121.4769 435.52,143.0669 501,171.2969 C546.3,190.8269 588.775,214.7042 627.815,238.8142" fill="none" id="User-to-Draft" style="stroke:#181818;stroke-width:1;"/><polygon fill="#181818" points="632.92,241.9669,627.3643,233.8346,628.6659,239.3396,623.1608,240.6412,632.92,241.9669" style="stroke:#181818;stroke-width:1;"/><text fill="#000000" font-family="sans-serif" font-size="13" lengthAdjust="spacing" textLength="50.0513" x="534" y="184.3638">reviews</text></g><!--link Documentation to Session--><g class="link" data-entity-1="Documentation" data-entity-2="Session" data-source-line="72" data-uid="lnk16" id="link_Documentation_Session"><path codeLine="72" d="M335.2,1124.3469 C349.24,1147.8369 362.7816,1170.4968 378.1016,1196.1268" fill="none" id="Documentation-to-Session" style="stroke:#181818;stroke-width:1;"/><polygon fill="#181818" points="381.18,1201.2769,379.9958,1191.4995,378.6147,1196.9851,373.129,1195.604,381.18,1201.2769" style="stroke:#181818;stroke-width:1;"/><text fill="#000000" font-family="sans-serif" font-size="13" lengthAdjust="spacing" textLength="60.2075" x="363" y="1167.3638">sessionId</text></g><!--link UseCase to Session--><g class="link" data-entity-1="UseCase" data-entity-2="Session" data-source-line="73" data-uid="lnk17" id="link_UseCase_Session"><path codeLine="73" d="M468.57,934.3869 C461.03,1000.4769 447.9701,1114.9855 438.8301,1195.1055" fill="none" id="UseCase-to-Session" style="stroke:#181818;stroke-width:1;"/><polygon fill="#181818" points="438.15,1201.0669,443.1443,1192.5782,438.7167,1196.0991,435.1959,1191.6715,438.15,1201.0669" style="stroke:#181818;stroke-width:1;"/><text fill="#000000" font-family="sans-serif" font-size="13" lengthAdjust="spacing" textLength="60.2075" x="461" y="1072.3638">sessionId</text></g><!--link UseCase to Documentation--><g class="link" data-entity-1="UseCase" data-entity-2="Documentation" data-source-line="74" data-uid="lnk18" id="link_UseCase_Documentation"><path codeLine="74" d="M423.22,918.6869 C414.24,924.0469 404.91,929.4469 396,934.2969 C369.12,948.9369 353.99,941.1069 334,964.2969 C322.62,977.4969 316.9246,988.9567 312.2046,1005.5167" fill="none" id="UseCase-to-Documentation" style="stroke:#181818;stroke-width:1;"/><polygon fill="#181818" points="310.56,1011.2869,316.8738,1003.728,311.9305,1006.4784,309.1802,1001.5352,310.56,1011.2869" style="stroke:#181818;stroke-width:1;"/><text fill="#000000" font-family="sans-serif" font-size="13" lengthAdjust="spacing" textLength="110.5444" x="335" y="977.3638">documentationId</text></g><!--link FR to Session--><g class="link" data-entity-1="FR" data-entity-2="Session" data-source-line="75" data-uid="lnk19" id="link_FR_Session"><path codeLine="75" d="M232.3,760.3369 C194.67,844.2169 138.81,1005.9769 201,1124.2969 C230.35,1180.1369 284.1728,1217.285 334.8928,1242.865" fill="none" id="FR-to-Session" style="stroke:#181818;stroke-width:1;"/><polygon fill="#181818" points="340.25,1245.5669,334.0154,1237.9426,335.7856,1243.3153,330.4129,1245.0856,340.25,1245.5669" style="stroke:#181818;stroke-width:1;"/><text fill="#000000" font-family="sans-serif" font-size="13" lengthAdjust="spacing" textLength="60.2075" x="176" y="977.3638">sessionId</text></g><!--link FR to Documentation--><g class="link" data-entity-1="FR" data-entity-2="Documentation" data-source-line="76" data-uid="lnk20" id="link_FR_Documentation"><path codeLine="76" d="M266.47,760.5669 C274.37,828.6869 286.9677,937.2869 294.8677,1005.2969" fill="none" id="FR-to-Documentation" style="stroke:#181818;stroke-width:1;"/><polygon fill="#181818" points="295.56,1011.2569,298.4948,1001.8555,294.9831,1006.2903,290.5483,1002.7785,295.56,1011.2569" style="stroke:#181818;stroke-width:1;"/><text fill="#000000" font-family="sans-serif" font-size="13" lengthAdjust="spacing" textLength="110.5444" x="288" y="890.3638">documentationId</text></g><!--link FR to UseCase--><g class="link" data-entity-1="FR" data-entity-2="UseCase" data-source-line="77" data-uid="lnk21" id="link_FR_UseCase"><path codeLine="77" d="M307.57,760.3769 C322.36,776.3069 339.21,793.1669 356,807.2969 C367.91,817.3169 391.9779,833.2459 418.3179,850.0059" fill="none" id="FR-to-UseCase" style="stroke:#181818;stroke-width:1;"/><polygon fill="#181818" points="423.38,853.2269,417.9341,845.0206,419.1616,850.5427,413.6395,851.7701,423.38,853.2269" style="stroke:#181818;stroke-width:1;"/><text fill="#000000" font-family="sans-serif" font-size="13" lengthAdjust="spacing" textLength="27.4727" x="357" y="803.3638">ucId</text></g><!--link GS to Session--><g class="link" data-entity-1="GS" data-entity-2="Session" data-source-line="78" data-uid="lnk22" id="link_GS_Session"><path codeLine="78" d="M639.31,564.4769 C709.47,612.6669 804,681.5469 804,702.7969 C804,702.7969 804,702.7969 804,1068.7969 C804,1199.7469 634.6711,1249.9381 523.7811,1269.2381" fill="none" id="GS-to-Session" style="stroke:#181818;stroke-width:1;"/><polygon fill="#181818" points="517.87,1270.2669,527.4226,1272.6644,522.7959,1269.4095,526.0508,1264.7829,517.87,1270.2669" style="stroke:#181818;stroke-width:1;"/><text fill="#000000" font-family="sans-serif" font-size="13" lengthAdjust="spacing" textLength="60.2075" x="805" y="890.3638">sessionId</text></g><!--link GS to UseCase--><g class="link" data-entity-1="GS" data-entity-2="UseCase" data-source-line="79" data-uid="lnk23" id="link_GS_UseCase"><path codeLine="79" d="M551.28,570.5869 C533.43,643.1669 503.9833,762.9006 487.1633,831.2706" fill="none" id="GS-to-UseCase" style="stroke:#181818;stroke-width:1;"/><polygon fill="#181818" points="485.73,837.0969,491.7642,829.313,486.9245,832.2416,483.9958,827.4019,485.73,837.0969" style="stroke:#181818;stroke-width:1;"/><text fill="#000000" font-family="sans-serif" font-size="13" lengthAdjust="spacing" textLength="27.4727" x="533" y="708.3638">ucId</text></g><!--link GS to FR--><g class="link" data-entity-1="GS" data-entity-2="FR" data-source-line="80" data-uid="lnk24" id="link_GS_FR"><path codeLine="80" d="M490.78,560.5469 C448.37,586.6869 399.9879,616.5089 355.1879,644.1189" fill="none" id="GS-to-FR" style="stroke:#181818;stroke-width:1;"/><polygon fill="#181818" points="350.08,647.2669,359.8404,645.9502,354.3366,644.6436,355.6432,639.1397,350.08,647.2669" style="stroke:#181818;stroke-width:1;"/><text fill="#000000" font-family="sans-serif" font-size="13" lengthAdjust="spacing" textLength="28.7803" x="423" y="613.3638">rfIds</text></g><!--link Draft to Session--><g class="link" data-entity-1="Draft" data-entity-2="Session" data-source-line="81" data-uid="lnk25" id="link_Draft_Session"><path codeLine="81" d="M803.22,337.8569 C867.98,372.8269 946,431.7669 946,512.7969 C946,512.7969 946,512.7969 946,1068.7969 C946,1160.3169 671.1875,1231.0831 523.4475,1262.6531" fill="none" id="Draft-to-Session" style="stroke:#181818;stroke-width:1;"/><polygon fill="#181818" points="517.58,1263.9069,527.2172,1265.9378,522.4696,1262.862,525.5454,1258.1145,517.58,1263.9069" style="stroke:#181818;stroke-width:1;"/><text fill="#000000" font-family="sans-serif" font-size="13" lengthAdjust="spacing" textLength="60.2075" x="947" y="803.3638">sessionId</text></g><!--link Draft to UseCase--><g class="link" data-entity-1="Draft" data-entity-2="UseCase" data-source-line="82" data-uid="lnk26" id="link_Draft_UseCase"><path codeLine="82" d="M794.88,380.4069 C802.77,390.1569 810.33,400.2269 817,410.2969 C856.66,470.1269 868.91,505.0469 839,570.2969 C773.74,712.6769 613.9662,812.2172 530.0062,856.9172" fill="none" id="Draft-to-UseCase" style="stroke:#181818;stroke-width:1;"/><polygon fill="#181818" points="524.71,859.7369,534.534,859.0382,529.1235,857.3872,530.7745,851.9766,524.71,859.7369" style="stroke:#181818;stroke-width:1;"/><text fill="#000000" font-family="sans-serif" font-size="13" lengthAdjust="spacing" textLength="27.4727" x="825" y="613.3638">ucId</text></g><!--link Draft to FR--><g class="link" data-entity-1="Draft" data-entity-2="FR" data-source-line="83" data-uid="lnk27" id="link_Draft_FR"><path codeLine="83" d="M632.83,358.4069 C618.89,366.4869 604.31,374.1169 590,380.2969 C466.4,433.6969 386.96,357.1169 297,457.2969 C250.78,508.7669 247.4988,586.2154 251.8388,641.3054" fill="none" id="Draft-to-FR" style="stroke:#181818;stroke-width:1;"/><polygon fill="#181818" points="252.31,647.2869,255.5908,638.0005,251.9173,642.3023,247.6155,638.6288,252.31,647.2869" style="stroke:#181818;stroke-width:1;"/><text fill="#000000" font-family="sans-serif" font-size="13" lengthAdjust="spacing" textLength="28.7803" x="298" y="518.3638">rfIds</text></g><!--link Draft to GS--><g class="link" data-entity-1="Draft" data-entity-2="GS" data-source-line="84" data-uid="lnk28" id="link_Draft_GS"><path codeLine="84" d="M660.38,380.3269 C641.91,405.9769 625.3858,428.9277 608.4658,452.4277" fill="none" id="Draft-to-GS" style="stroke:#181818;stroke-width:1;"/><polygon fill="#181818" points="604.96,457.2969,613.4649,452.3303,607.8815,453.2392,606.9726,447.6558,604.96,457.2969" style="stroke:#181818;stroke-width:1;"/><text fill="#000000" font-family="sans-serif" font-size="13" lengthAdjust="spacing" textLength="73.8931" x="638" y="423.3638">scenarioIds</text></g><!--link Draft to Kiwi--><g class="link" data-entity-1="Draft" data-entity-2="Kiwi" data-source-line="85" data-uid="lnk29" id="link_Draft_Kiwi"><path codeLine="85" d="M729.3,380.3269 C733.34,408.9169 736.9108,434.2659 740.4408,459.2559" fill="none" id="Draft-to-Kiwi" style="stroke:#181818;stroke-width:1;"/><polygon fill="#181818" points="741.28,465.1969,743.9819,455.7259,740.5807,460.246,736.0605,456.8448,741.28,465.1969" style="stroke:#181818;stroke-width:1;"/><text fill="#000000" font-family="sans-serif" font-size="13" lengthAdjust="spacing" textLength="71.9824" x="737" y="423.3638">publication</text></g><!--SRC=[ZLDDRzim3BtxLn2z5ztPXm56qcR6bXI8qzCm3B95frfaozN7igpOVn-jsBKKE41k8f_q-4W-MM4bmZBFLjjidS7ZPfSlioLi7xzbY_nvarZLWLLGAcjL0rnehAnGRM8EeksOPWsOLyRLKRHxg9aq622LPCParcfHEejvfTf2_4Nub2JOMc5FSFTYKDy1Cz0Vu3q1-2bu2i_bBogJSueT0IrhC0L3FEsUKbh9AVmtaHLe34dpVCDvblA2hjEgXpPnzgZqePRgk5OyJ5TEQwfNMEnIQ5rJegOis_UvSycS1zSzy8MrNDNrYvPpgfUgSWq5p8xQeyni1vALA8CojbzY4FE1ONVgPYT5qrumW-Fa-_FyyAkecsXm0TsJQxqfcDpYcoEBzBKz-TDsbbVN4Q_5FpO8ewf1cTKhQl9MKM7Bj52-mAgOBN0va8j6-lecXU-5J_o8rg5PVTRkJxFinZKDqwVR-Ud98FgS7xayGdjs9dXy44VHRwHd71mMwFjAAEmMwy9hzD6x7w6nLVo8pCeixbKaj2CDceZ2-Vg_Tt__-UFJf51ffBTcWc9Ffk0wgHWFBems-dZxW5pOu09PuIf6MxoAdTUGWiRV0eycIM8fiMup_i5ar7CBVjaS3sEwIzAlqGpGZGpJa7h39DJsDTu1cd_WH-azbfodSurbGY-89c2Mo-yZi6m0USUbqBbIYigtzny0]--></g></svg>