<?xml version="1.0" encoding="us-ascii" standalone="no"?><svg xmlns="http://www.w3.org/2000/svg" xmlns:xlink="http://www.w3.org/1999/xlink" contentStyleType="text/css" height="769px" preserveAspectRatio="none" style="width:347px;height:769px;background:#FFFFFF;" version="1.1" viewBox="0 0 347 769" width="347px" zoomAndPan="magnify"><defs/><g><path d="M19.5,7 L267.5,7 A12.5,12.5 0 0 1 280,19.5 L280,34.6094 L7,34.6094 L7,19.5 A12.5,12.5 0 0 1 19.5,7 " fill="#F1F1F1" style="stroke:#F1F1F1;stroke-width:1.0;"/><rect fill="none" height="609.6094" rx="12.5" ry="12.5" style="stroke:#181818;stroke-width:0.5;" width="273" x="7" y="7"/><line style="stroke:#181818;stroke-width:0.5;" x1="7" x2="280" y1="34.6094" y2="34.6094"/><text fill="#000000" font-family="sans-serif" font-size="14" lengthAdjust="spacing" textLength="131" x="78" y="26.5332">guardarResultados()</text><g id="guardarResultados.IdentificandoResultados"><rect fill="#F1F1F1" height="50" rx="12.5" ry="12.5" style="stroke:#181818;stroke-width:0.5;" width="50" x="19" y="153.6094"/><line style="stroke:#181818;stroke-width:0.5;" x1="19" x2="69" y1="181.2188" y2="181.2188"/><text fill="#000000" font-family="sans-serif" font-size="14" lengthAdjust="spacing" textLength="4" x="42" y="173.1426">&#160;</text></g><g id="guardarResultados.ValidandoResultados"><rect fill="#F1F1F1" height="50" rx="12.5" ry="12.5" style="stroke:#181818;stroke-width:0.5;" width="50" x="19" y="308.6094"/><line style="stroke:#181818;stroke-width:0.5;" x1="19" x2="69" y1="336.2188" y2="336.2188"/><text fill="#000000" font-family="sans-serif" font-size="14" lengthAdjust="spacing" textLength="4" x="42" y="328.1426">&#160;</text></g><g id="guardarResultados.PersistiendoResultados"><rect fill="#F1F1F1" height="50" rx="12.5" ry="12.5" style="stroke:#181818;stroke-width:0.5;" width="50" x="19" y="446.6094"/><line style="stroke:#181818;stroke-width:0.5;" x1="19" x2="69" y1="474.2188" y2="474.2188"/><text fill="#000000" font-family="sans-serif" font-size="14" lengthAdjust="spacing" textLength="4" x="42" y="466.1426">&#160;</text></g><ellipse cx="44" cy="55.6094" fill="#222222" rx="10" ry="10" style="stroke:#222222;stroke-width:1.0;"/><ellipse cx="44" cy="595.6094" fill="none" rx="11" ry="11" style="stroke:#222222;stroke-width:1.0;"/><ellipse cx="44" cy="595.6094" fill="#222222" rx="6" ry="6" style="stroke:#222222;stroke-width:1.0;"/><!--link *start*guardarResultados to IdentificandoResultados--><g id="link_*start*guardarResultados_IdentificandoResultados"><path d="M44,65.6994 C44,84.1694 44,120.5894 44,147.5794 " fill="none" id="*start*guardarResultados-to-IdentificandoResultados" style="stroke:#008000;stroke-width:1.0;"/><polygon fill="#008000" points="44,153.5794,48,144.5794,44,148.5794,40,144.5794,44,153.5794" style="stroke:#008000;stroke-width:1.0;"/><path d="M49,88.6094 L49,130.6094 L225,130.6094 L225,98.6094 L215,88.6094 L49,88.6094 " fill="#FEFFDD" style="stroke:#181818;stroke-width:0.5;"/><path d="M215,88.6094 L215,98.6094 L225,98.6094 L215,88.6094 " fill="#FEFFDD" style="stroke:#181818;stroke-width:0.5;"/><text fill="#000000" font-family="sans-serif" font-size="13" lengthAdjust="spacing" textLength="108" x="55" y="107.1045">Se solicita guardar</text><text fill="#000000" font-family="sans-serif" font-size="13" lengthAdjust="spacing" textLength="155" x="55" y="123.4561">los resultados de la sesion</text></g><!--link IdentificandoResultados to ValidandoResultados--><g id="link_IdentificandoResultados_ValidandoResultados"><path d="M44,203.8494 C44,232.4994 44,273.8794 44,302.4794 " fill="none" id="IdentificandoResultados-to-ValidandoResultados" style="stroke:#008000;stroke-width:1.0;"/><polygon fill="#008000" points="44,308.4794,48,299.4794,44,303.4794,40,299.4794,44,308.4794" style="stroke:#008000;stroke-width:1.0;"/><path d="M49,226.6094 L49,285.6094 L271,285.6094 L271,236.6094 L261,226.6094 L49,226.6094 " fill="#FEFFDD" style="stroke:#181818;stroke-width:0.5;"/><path d="M261,226.6094 L261,236.6094 L271,236.6094 L261,226.6094 " fill="#FEFFDD" style="stroke:#181818;stroke-width:0.5;"/><text fill="#000000" font-family="sans-serif" font-size="13" font-weight="bold" lengthAdjust="spacing" textLength="51" x="55" y="245.1045">Sistema</text><text fill="#000000" font-family="sans-serif" font-size="13" lengthAdjust="spacing" textLength="137" x="110" y="245.1045">identifica casos de uso,</text><text fill="#000000" font-family="sans-serif" font-size="13" lengthAdjust="spacing" textLength="201" x="55" y="261.4561">requisitos funcionales y borradores</text><text fill="#000000" font-family="sans-serif" font-size="13" lengthAdjust="spacing" textLength="138" x="55" y="277.8076">pendientes de guardado</text></g><!--link ValidandoResultados to PersistiendoResultados--><g id="link_ValidandoResultados_PersistiendoResultados"><path d="M44,358.6094 C44,383.3194 44,415.6094 44,440.3894 " fill="none" id="ValidandoResultados-to-PersistiendoResultados" style="stroke:#008000;stroke-width:1.0;"/><polygon fill="#008000" points="44,446.3894,48,437.3894,44,441.3894,40,437.3894,44,446.3894" style="stroke:#008000;stroke-width:1.0;"/><path d="M49,381.6094 L49,423.6094 L248,423.6094 L248,391.6094 L238,381.6094 L49,381.6094 " fill="#FEFFDD" style="stroke:#181818;stroke-width:0.5;"/><path d="M238,381.6094 L238,391.6094 L248,391.6094 L238,381.6094 " fill="#FEFFDD" style="stroke:#181818;stroke-width:0.5;"/><text fill="#000000" font-family="sans-serif" font-size="13" font-weight="bold" lengthAdjust="spacing" textLength="51" x="55" y="400.1045">Sistema</text><text fill="#000000" font-family="sans-serif" font-size="13" lengthAdjust="spacing" textLength="123" x="110" y="400.1045">valida la consistencia</text><text fill="#000000" font-family="sans-serif" font-size="13" lengthAdjust="spacing" textLength="96" x="55" y="416.4561">de los artefactos</text></g><!--link PersistiendoResultados to *end*guardarResultados--><g id="link_PersistiendoResultados_*end*guardarResultados"><path d="M44,496.7094 C44,523.3794 44,559.1094 44,578.3094 " fill="none" id="PersistiendoResultados-to-*end*guardarResultados" style="stroke:#008000;stroke-width:1.0;"/><polygon fill="#008000" points="44,584.3094,48,575.3094,44,579.3094,40,575.3094,44,584.3094" style="stroke:#008000;stroke-width:1.0;"/><path d="M49,519.6094 L49,561.6094 L171,561.6094 L171,529.6094 L161,519.6094 L49,519.6094 " fill="#FEFFDD" style="stroke:#181818;stroke-width:0.5;"/><path d="M161,519.6094 L161,529.6094 L171,529.6094 L161,519.6094 " fill="#FEFFDD" style="stroke:#181818;stroke-width:0.5;"/><text fill="#000000" font-family="sans-serif" font-size="13" font-weight="bold" lengthAdjust="spacing" textLength="51" x="55" y="538.1045">Sistema</text><text fill="#000000" font-family="sans-serif" font-size="13" lengthAdjust="spacing" textLength="46" x="110" y="538.1045">persiste</text><text fill="#000000" font-family="sans-serif" font-size="13" lengthAdjust="spacing" textLength="81" x="55" y="554.4561">los resultados</text></g><g id="DOCUMENTACION_ABIERTA"><rect fill="#F1F1F1" height="50" rx="12.5" ry="12.5" style="stroke:#181818;stroke-width:0.5;" width="206" x="40.5" y="713"/><line style="stroke:#181818;stroke-width:0.5;" x1="40.5" x2="246.5" y1="740.6094" y2="740.6094"/><text fill="#000000" font-family="sans-serif" font-size="14" lengthAdjust="spacing" textLength="186" x="50.5" y="732.5332">DOCUMENTACION_ABIERTA</text></g><!--link guardarResultados to DOCUMENTACION_ABIERTA--><g id="link_guardarResultados_DOCUMENTACION_ABIERTA"><path d="M53.37,617.07 C47.87,635.62 44.5,647 44.5,647 C44.5,647 44.5,683 44.5,683 C44.5,683 67.5819,695.5981 93.9419,709.9681 " fill="none" id="guardarResultados-to-DOCUMENTACION_ABIERTA" style="stroke:#008000;stroke-width:1.0;"/><polygon fill="#008000" points="99.21,712.84,93.2225,705.0202,94.8199,710.4468,89.3933,712.0443,99.21,712.84" style="stroke:#008000;stroke-width:1.0;"/><path d="M49.5,652 L49.5,678 L191.5,678 L191.5,662 L181.5,652 L49.5,652 " fill="#FEFFDD" style="stroke:#181818;stroke-width:0.5;"/><path d="M181.5,652 L181.5,662 L191.5,662 L181.5,652 " fill="#FEFFDD" style="stroke:#181818;stroke-width:0.5;"/><text fill="#000000" font-family="sans-serif" font-size="13" lengthAdjust="spacing" textLength="121" x="55.5" y="670.4951">completarGuardado()</text></g><!--link guardarResultados to DOCUMENTACION_ABIERTA--><g id="link_guardarResultados_DOCUMENTACION_ABIERTA"><path d="M195.39,617.07 C198.56,635.62 200.5,647 200.5,647 C200.5,647 200.5,683 200.5,683 C200.5,683 188.5373,694.3452 173.3573,708.7152 " fill="none" id="guardarResultados-to-DOCUMENTACION_ABIERTA-1" style="stroke:#FF0000;stroke-width:1.0;"/><polygon fill="#FF0000" points="169,712.84,178.2858,709.5577,172.6311,709.4027,172.7861,703.7479,169,712.84" style="stroke:#FF0000;stroke-width:1.0;"/><path d="M205.5,652 L205.5,678 L340.5,678 L340.5,662 L330.5,652 L205.5,652 " fill="#FEFFDD" style="stroke:#181818;stroke-width:0.5;"/><path d="M330.5,652 L330.5,662 L340.5,662 L330.5,652 " fill="#FEFFDD" style="stroke:#181818;stroke-width:0.5;"/><text fill="#000000" font-family="sans-serif" font-size="13" lengthAdjust="spacing" textLength="114" x="211.5" y="670.4951">rechazarGuardado()</text></g><!--SRC=[ZPF1JW8n48RlVOe9Ni18V052WaWC1y40UY743Es03QLTswu96j_TsIwA6nPbzxJJl__ytxGRDjfcw74BHbkAkumWSsPNV0WH8aQ2TOvUePzGo4r4vG9WWCPHjTbgm8SGm4-vhy4lAuUARDGhBT4gTv0V2v_GQFMVw85yq25ggkgIS7wvWFRyOks9xABT_REpTUpfR46zIOKfGN16IntncpZL3VFw0xeYC0Y1WdOshNEGP5P6ED6o4kiKvr6aph8xPLRQOkTwsGNzumqIGvab3-ugQJszvZheoELLRYMdGqC1Th1qtdCBHaYwZFFoy2AbxIMeSZKaDIah52SEuXoGjsHTp54wMvWG1yQaBCPRN30VQOKoxWshoUexLyBnJJWhILPQKSr9Lnj_2d7y6_pkU3lkFzuFHhDUVpWUFVTkXeF9h2Sg_QNRPeOY-hlzr9ijSI2hjVUapZJt95_mlTxx2m00]--></g></svg>