<svg xmlns="http://www.w3.org/2000/svg" xmlns:xlink="http://www.w3.org/1999/xlink" contentStyleType="text/css" data-diagram-type="DESCRIPTION" height="898px" preserveAspectRatio="none" style="width:744px;height:898px;background:#FFFFFF;" version="1.1" viewBox="0 0 744 898" width="744px" zoomAndPan="magnify"><title>Arquitectura general del sistema</title><defs/><g><g class="title" data-source-line="4"><text fill="#000000" font-family="sans-serif" font-size="14" font-weight="bold" lengthAdjust="spacing" textLength="260.7773" x="235.0769" y="22.9951">Arquitectura general del sistema</text></g><!--cluster Frontend SPA--><g class="cluster" data-entity="Frontend SPA" data-source-line="8" data-uid="ent0003" id="cluster_Frontend SPA"><rect fill="none" height="97" rx="2.5" ry="2.5" style="stroke:#181818;stroke-width:1;" width="236" x="234.5" y="165.7969"/><path d="M352.7813,165.7969 L352.7813,175.0938 L342.7813,185.0938 L234.5,185.0938" fill="none" style="stroke:#181818;stroke-width:1;"/><text fill="#000000" font-family="sans-serif" font-size="14" font-weight="bold" lengthAdjust="spacing" textLength="108.2813" x="237.5" y="179.792">Frontend SPA</text></g><!--cluster Backend MVC\nNode.js + Express--><g class="cluster" data-entity="Backend MVC.nNode.js . Express" data-source-line="12" data-uid="ent0005" id="cluster_Backend MVC.nNode.js . Express"><rect fill="none" height="113" rx="2.5" ry="2.5" style="stroke:#181818;stroke-width:1;" width="158" x="273.5" y="311.7969"/><path d="M425.9609,311.7969 L425.9609,337.3906 L415.9609,347.3906 L273.5,347.3906" fill="none" style="stroke:#181818;stroke-width:1;"/><text fill="#000000" font-family="sans-serif" font-size="14" font-weight="bold" lengthAdjust="spacing" textLength="107.126" x="294.1675" y="325.792">Backend MVC</text><text fill="#000000" font-family="sans-serif" font-size="14" font-weight="bold" lengthAdjust="spacing" textLength="142.4609" x="276.5" y="342.0889">Node.js + Express</text></g><!--cluster Servicio IA Multiagente\nFastAPI + Google ADK--><g class="cluster" data-entity="Servicio IA Multiagente.nFastAPI . Google ADK" data-source-line="16" data-uid="ent0007" id="cluster_Servicio IA Multiagente.nFastAPI . Google ADK"><rect fill="none" height="113" rx="2.5" ry="2.5" style="stroke:#181818;stroke-width:1;" width="212" x="246.5" y="473.7969"/><path d="M440.7217,473.7969 L440.7217,499.3906 L430.7217,509.3906 L246.5,509.3906" fill="none" style="stroke:#181818;stroke-width:1;"/><text fill="#000000" font-family="sans-serif" font-size="14" font-weight="bold" lengthAdjust="spacing" textLength="184.2217" x="249.5" y="487.792">Servicio IA Multiagente</text><text fill="#000000" font-family="sans-serif" font-size="14" font-weight="bold" lengthAdjust="spacing" textLength="175.041" x="254.0903" y="504.0889">FastAPI + Google ADK</text></g><!--entity HTML / CSS / JavaScript--><g class="entity" data-entity="HTML . CSS . JavaScript" data-source-line="9" data-uid="ent0004" id="entity_HTML . CSS . JavaScript"><rect fill="#F1F1F1" height="46.2969" rx="2.5" ry="2.5" style="stroke:#181818;stroke-width:0.5;" width="203.9189" x="250.5" y="200.7969"/><rect fill="#F1F1F1" height="10" style="stroke:#181818;stroke-width:0.5;" width="15" x="434.4189" y="205.7969"/><rect fill="#F1F1F1" height="2" style="stroke:#181818;stroke-width:0.5;" width="4" x="432.4189" y="207.7969"/><rect fill="#F1F1F1" height="2" style="stroke:#181818;stroke-width:0.5;" width="4" x="432.4189" y="211.7969"/><text fill="#000000" font-family="sans-serif" font-size="14" lengthAdjust="spacing" textLength="163.9189" x="265.5" y="233.792">HTML / CSS / JavaScript</text></g><!--entity API REST--><g class="entity" data-entity="API REST" data-source-line="13" data-uid="ent0006" id="entity_API REST"><rect fill="#F1F1F1" height="46.2969" rx="2.5" ry="2.5" style="stroke:#181818;stroke-width:0.5;" width="102.6104" x="301" y="362.7969"/><rect fill="#F1F1F1" height="10" style="stroke:#181818;stroke-width:0.5;" width="15" x="383.6104" y="367.7969"/><rect fill="#F1F1F1" height="2" style="stroke:#181818;stroke-width:0.5;" width="4" x="381.6104" y="369.7969"/><rect fill="#F1F1F1" height="2" style="stroke:#181818;stroke-width:0.5;" width="4" x="381.6104" y="373.7969"/><text fill="#000000" font-family="sans-serif" font-size="14" lengthAdjust="spacing" textLength="62.6104" x="316" y="395.792">API REST</text></g><!--entity Sistema de agentes--><g class="entity" data-entity="Sistema de agentes" data-source-line="17" data-uid="ent0008" id="entity_Sistema de agentes"><rect fill="#F1F1F1" height="46.2969" rx="2.5" ry="2.5" style="stroke:#181818;stroke-width:0.5;" width="179.1387" x="263" y="524.7969"/><rect fill="#F1F1F1" height="10" style="stroke:#181818;stroke-width:0.5;" width="15" x="422.1387" y="529.7969"/><rect fill="#F1F1F1" height="2" style="stroke:#181818;stroke-width:0.5;" width="4" x="420.1387" y="531.7969"/><rect fill="#F1F1F1" height="2" style="stroke:#181818;stroke-width:0.5;" width="4" x="420.1387" y="535.7969"/><text fill="#000000" font-family="sans-serif" font-size="14" lengthAdjust="spacing" textLength="139.1387" x="278" y="557.792">Sistema de agentes</text></g><!--entity IngenieroQA--><g class="entity" data-entity="IngenieroQA" data-source-line="6" data-uid="ent0002" id="entity_IngenieroQA"><ellipse cx="352.3979" cy="51.2969" fill="#F1F1F1" rx="8" ry="8" style="stroke:#181818;stroke-width:0.5;"/><path d="M352.3979,59.2969 L352.3979,86.2969 M339.3979,67.2969 L365.3979,67.2969 M352.3979,86.2969 L339.3979,101.2969 M352.3979,86.2969 L365.3979,101.2969" fill="none" style="stroke:#181818;stroke-width:0.5;"/><text fill="#000000" font-family="sans-serif" font-size="14" lengthAdjust="spacing" textLength="86.7959" x="309" y="115.792">IngenieroQA</text></g><!--entity MongoDB--><g class="entity" data-entity="MongoDB" data-source-line="20" data-uid="ent0009" id="entity_MongoDB"><path d="M6,698.7969 C6,688.7969 49.6772,688.7969 49.6772,688.7969 C49.6772,688.7969 93.3545,688.7969 93.3545,698.7969 L93.3545,724.0938 C93.3545,734.0938 49.6772,734.0938 49.6772,734.0938 C49.6772,734.0938 6,734.0938 6,724.0938 L6,698.7969" fill="#F1F1F1" style="stroke:#181818;stroke-width:0.5;"/><path d="M6,698.7969 C6,708.7969 49.6772,708.7969 49.6772,708.7969 C49.6772,708.7969 93.3545,708.7969 93.3545,698.7969" fill="none" style="stroke:#181818;stroke-width:0.5;"/><text fill="#000000" font-family="sans-serif" font-size="14" lengthAdjust="spacing" textLength="67.3545" x="16" y="725.792">MongoDB</text></g><!--entity SQLite--><g class="entity" data-entity="SQLite" data-source-line="21" data-uid="ent0010" id="entity_SQLite"><path d="M240.5,698.7969 C240.5,688.7969 273.3491,688.7969 273.3491,688.7969 C273.3491,688.7969 306.1982,688.7969 306.1982,698.7969 L306.1982,724.0938 C306.1982,734.0938 273.3491,734.0938 273.3491,734.0938 C273.3491,734.0938 240.5,734.0938 240.5,724.0938 L240.5,698.7969" fill="#F1F1F1" style="stroke:#181818;stroke-width:0.5;"/><path d="M240.5,698.7969 C240.5,708.7969 273.3491,708.7969 273.3491,708.7969 C273.3491,708.7969 306.1982,708.7969 306.1982,698.7969" fill="none" style="stroke:#181818;stroke-width:0.5;"/><text fill="#000000" font-family="sans-serif" font-size="14" lengthAdjust="spacing" textLength="45.6982" x="250.5" y="725.792">SQLite</text></g><!--entity MariaDB--><g class="entity" data-entity="MariaDB" data-source-line="22" data-uid="ent0011" id="entity_MariaDB"><path d="M570.5,829.7969 C570.5,819.7969 616.5767,819.7969 616.5767,819.7969 C616.5767,819.7969 662.6533,819.7969 662.6533,829.7969 L662.6533,871.3906 C662.6533,881.3906 616.5767,881.3906 616.5767,881.3906 C616.5767,881.3906 570.5,881.3906 570.5,871.3906 L570.5,829.7969" fill="#F1F1F1" style="stroke:#181818;stroke-width:0.5;"/><path d="M570.5,829.7969 C570.5,839.7969 616.5767,839.7969 616.5767,839.7969 C616.5767,839.7969 662.6533,839.7969 662.6533,829.7969" fill="none" style="stroke:#181818;stroke-width:0.5;"/><text fill="#000000" font-family="sans-serif" font-size="14" lengthAdjust="spacing" textLength="59.2676" x="580.5" y="856.792">MariaDB</text><text fill="#000000" font-family="sans-serif" font-size="14" lengthAdjust="spacing" textLength="72.1533" x="580.5" y="873.0889">Kiwi TCMS</text></g><!--entity LLM--><g class="entity" data-entity="LLM" data-source-line="24" data-uid="ent0012" id="entity_LLM"><path d="M349.6832,697.0292 C353.3589,691.8335 356.8013,690.3025 361.5236,695.8787 C365.2746,690.4858 370.169,690.7167 372.8371,696.934 C376.0545,690.6157 379.8055,691.2273 384.1869,695.711 C386.7935,690.3589 392.2144,690.3896 395.4282,695.0277 C397.6583,690.3602 401.281,690.1867 404.7253,693.6369 C408.7929,686.9896 414.6176,687.307 417.6173,694.6229 C420.6759,690.4176 424.9463,689.1147 428.0575,694.5662 C431.509,688.5588 435.9043,688.5636 439.3264,694.5937 C443.0418,690.0406 448.1148,690.0582 450.07,696.3393 C453.529,691.2754 456.8898,691.339 460.9884,695.5896 C464.2836,690.5958 469.4291,689.9493 472.106,696.2008 C475.3589,691.4724 479.502,691.3332 482.645,696.32 C492.5688,701.0724 491.8243,706.7645 484.4837,713.3779 C490.5176,717.8967 489.2317,724.3554 482.5034,727.022 C479.6177,732.4281 475.6473,732.9808 471.4685,728.4593 C468.6071,733.8867 464.5128,735.3091 459.9398,730.361 C456.6703,735.3023 453.2558,735.8775 448.9714,731.5636 C446.8868,736.8998 442.6409,737.7046 438.7791,733.4529 C436.1857,739.4413 431.8833,740.4052 427.5255,735.2319 C423.8273,740.6374 420.4855,739.9778 417.0228,734.9938 C413.2226,739.9977 408.9711,741.4305 405.225,734.9382 C401.3681,739.323 396.6338,739.4776 394.4056,733.2739 C390.2459,738.8053 385.2798,737.5312 383.1278,731.3421 C378.7227,736.366 375.1876,734.6205 372.2591,729.7242 C369.4549,735.7751 364.1593,735.1083 361.249,729.8274 C356.4379,734.0314 352.5108,732.4113 350.3836,726.8432 C342.9118,723.0805 341.0848,718.1222 348.316,712.273 C340.6726,706.5475 342.7746,701.4494 349.6832,697.0292" fill="#F1F1F1" style="stroke:#181818;stroke-width:0.5;"/><text fill="#000000" font-family="sans-serif" font-size="14" lengthAdjust="spacing" textLength="118.1865" x="356.5" y="716.292">OpenAI / LiteLLM</text></g><!--entity Kiwi--><g class="entity" data-entity="Kiwi" data-source-line="25" data-uid="ent0013" id="entity_Kiwi"><path d="M566.383,689.6781 C568.8257,683.2199 574.1602,683.0358 578.3514,687.8161 C582.553,682.3648 587.8477,682.3691 591.2641,688.6783 C594.4551,680.5456 600.254,680.4791 605.3677,686.8025 C608.7556,681.428 614.6199,682.324 617.4245,687.4708 C622.1662,680.8306 626.2583,682.4413 630.6278,687.8777 C634.5054,681.2414 640.2249,681.6118 644.479,687.46 C649.356,682.2284 652.741,683.7649 655.8981,689.2864 C660.7246,683.4325 665.1479,683.795 669.4327,689.8996 C675.669,691.3859 677.2743,695.4236 672.9577,700.4393 C680.7402,700.727 682.0768,706.659 678.155,712.1439 C681.9804,718.0336 679.9564,722.6047 672.7701,723.0645 C676.8554,727.6764 676.6096,733.8973 669.2775,735.2319 C666.6593,741.1566 662.2202,743.7907 656.9195,738.0814 C653.448,743.4859 647.9545,743.7613 644.1675,738.4571 C641.1466,745.3795 635.674,747.4414 629.6165,742.0433 C626.5744,749.2324 621.603,749.3074 616.8097,743.8115 C612.1051,749.4496 605.8979,748.5678 603.8866,741.1464 C599.9422,745.7177 594.2712,745.4312 592.3262,739.0382 C587.2981,744.6954 582.2612,742.4969 579.6982,736.3917 C574.6782,742.3187 569.5164,741.955 565.521,735.2425 C561.1676,731.7438 560.4957,727.8014 566.1158,724.875 C557.9804,722.4335 557.6935,716.4647 563.5759,711.3841 C559.1652,707.5263 558.2531,703.1851 564.361,700.0563 C559.942,696.4596 560.1762,691.2045 566.383,689.6781" fill="#F1F1F1" style="stroke:#181818;stroke-width:0.5;"/><text fill="#000000" font-family="sans-serif" font-size="14" lengthAdjust="spacing" textLength="72.1533" x="572" y="707.792">Kiwi TCMS</text><text fill="#000000" font-family="sans-serif" font-size="14" lengthAdjust="spacing" textLength="89.0654" x="572" y="724.0889">XML-RPC API</text></g><!--link IngenieroQA to HTML / CSS / JavaScript--><g class="link" data-entity-1="IngenieroQA" data-entity-2="HTML . CSS . JavaScript" data-source-line="27" data-uid="lnk14" id="link_IngenieroQA_HTML . CSS . JavaScript"><path d="M352.5,118.8469 C352.5,144.7869 352.5,172.6069 352.5,194.5069" fill="none" id="IngenieroQA-to-HTML / CSS / JavaScript" style="stroke:#181818;stroke-width:1;"/><polygon fill="#181818" points="352.5,200.5069,356.5,191.5069,352.5,195.5069,348.5,191.5069,352.5,200.5069" style="stroke:#181818;stroke-width:1;"/></g><!--link HTML / CSS / JavaScript to API REST--><g class="link" data-entity-1="HTML . CSS . JavaScript" data-entity-2="API REST" data-source-line="29" data-uid="lnk15" id="link_HTML . CSS . JavaScript_API REST"><path d="M352.5,247.0469 C352.5,277.6169 352.5,326.2669 352.5,356.7369" fill="none" id="HTML / CSS / JavaScript-to-API REST" style="stroke:#181818;stroke-width:1;"/><polygon fill="#181818" points="352.5,362.7369,356.5,353.7369,352.5,357.7369,348.5,353.7369,352.5,362.7369" style="stroke:#181818;stroke-width:1;"/><text fill="#000000" font-family="sans-serif" font-size="13" lengthAdjust="spacing" textLength="71.0684" x="353.5" y="291.8638">HTTP REST</text></g><!--link API REST to Sistema de agentes--><g class="link" data-entity-1="API REST" data-entity-2="Sistema de agentes" data-source-line="31" data-uid="lnk16" id="link_API REST_Sistema de agentes"><path d="M352.5,409.0469 C352.5,439.6169 352.5,488.2669 352.5,518.7369" fill="none" id="API REST-to-Sistema de agentes" style="stroke:#181818;stroke-width:1;"/><polygon fill="#181818" points="352.5,524.7369,356.5,515.7369,352.5,519.7369,348.5,515.7369,352.5,524.7369" style="stroke:#181818;stroke-width:1;"/><text fill="#000000" font-family="sans-serif" font-size="13" lengthAdjust="spacing" textLength="87.4326" x="353.5" y="453.8638">handoff HTTP</text></g><!--link API REST to MongoDB--><g class="link" data-entity-1="API REST" data-entity-2="MongoDB" data-source-line="33" data-uid="lnk17" id="link_API REST_MongoDB"><path d="M300.76,387.9269 C241.31,392.0869 144.73,408.0269 88.5,465.7969 C28.84,527.0969 37.4616,634.9045 44.6716,682.5145" fill="none" id="API REST-to-MongoDB" style="stroke:#181818;stroke-width:1;"/><polygon fill="#181818" points="45.57,688.4469,48.1773,678.9494,44.8213,683.5032,40.2675,680.1473,45.57,688.4469" style="stroke:#181818;stroke-width:1;"/><text fill="#000000" font-family="sans-serif" font-size="13" lengthAdjust="spacing" textLength="156.0063" x="89.5" y="552.3638">guardar documentaci&#243;n</text></g><!--link API REST to Kiwi--><g class="link" data-entity-1="API REST" data-entity-2="Kiwi" data-source-line="35" data-uid="lnk18" id="link_API REST_Kiwi"><path d="M400.13,408.9069 C463.1,441.1969 570.94,507.9269 612.5,602.7969 C623.14,627.0869 623.76,651.5321 621.71,673.8021" fill="none" id="API REST-to-Kiwi" style="stroke:#181818;stroke-width:1;"/><polygon fill="#181818" points="621.16,679.7769,625.9681,671.1814,621.6183,674.7979,618.0018,670.4481,621.16,679.7769" style="stroke:#181818;stroke-width:1;"/><text fill="#000000" font-family="sans-serif" font-size="13" lengthAdjust="spacing" textLength="58.0049" x="643.4216" y="537.3638">XML-RPC</text><text fill="#000000" font-family="sans-serif" font-size="13" lengthAdjust="spacing" textLength="126.8516" x="608.9983" y="552.4966">publicaci&#243;n manual</text><text fill="#000000" font-family="sans-serif" font-size="13" lengthAdjust="spacing" textLength="127.8481" x="608.5" y="567.6294">TestCase.create(...)</text></g><!--link Sistema de agentes to MongoDB--><g class="link" data-entity-1="Sistema de agentes" data-entity-2="MongoDB" data-source-line="37" data-uid="lnk19" id="link_Sistema de agentes_MongoDB"><path d="M284.11,570.8569 C254.41,579.6269 219.03,588.9869 186.5,594.7969 C165.43,598.5569 107.61,589.9269 90.5,602.7969 C63.52,623.0869 55.0377,657.4836 51.8877,682.5636" fill="none" id="Sistema de agentes-to-MongoDB" style="stroke:#181818;stroke-width:1;"/><polygon fill="#181818" points="51.14,688.5169,56.2304,680.0855,51.7631,683.5559,48.2928,679.0886,51.14,688.5169" style="stroke:#181818;stroke-width:1;"/><text fill="#000000" font-family="sans-serif" font-size="13" lengthAdjust="spacing" textLength="168.2764" x="91.5" y="630.8638">recuperar documentaci&#243;n</text></g><!--link Sistema de agentes to SQLite--><g class="link" data-entity-1="Sistema de agentes" data-entity-2="SQLite" data-source-line="38" data-uid="lnk20" id="link_Sistema de agentes_SQLite"><path d="M311.53,570.9369 C299.86,579.3269 288.45,590.0069 281.5,602.7969 C266.94,629.6069 267.0364,659.8915 269.4964,682.6915" fill="none" id="Sistema de agentes-to-SQLite" style="stroke:#181818;stroke-width:1;"/><polygon fill="#181818" points="270.14,688.6569,273.1515,679.2797,269.6036,683.6857,265.1976,680.1379,270.14,688.6569" style="stroke:#181818;stroke-width:1;"/><text fill="#000000" font-family="sans-serif" font-size="13" lengthAdjust="spacing" textLength="87.6802" x="282.5" y="630.8638">sesiones ADK</text></g><!--link Sistema de agentes to LLM--><g class="link" data-entity-1="Sistema de agentes" data-entity-2="LLM" data-source-line="40" data-uid="lnk21" id="link_Sistema de agentes_LLM"><path d="M363.85,570.8669 C368.64,580.5469 374.11,592.1169 378.5,602.7969 C390.43,631.8269 400.0176,660.534 406.9276,682.474" fill="none" id="Sistema de agentes-to-LLM" style="stroke:#181818;stroke-width:1;"/><polygon fill="#181818" points="408.73,688.1969,409.8416,678.411,407.228,683.4278,402.2111,680.8142,408.73,688.1969" style="stroke:#181818;stroke-width:1;"/></g><!--link Sistema de agentes to Kiwi--><g class="link" data-entity-1="Sistema de agentes" data-entity-2="Kiwi" data-source-line="42" data-uid="lnk22" id="link_Sistema de agentes_Kiwi"><path d="M378.11,570.8569 C388.94,580.4469 401.56,591.9369 412.5,602.7969 C432.6,622.7369 432.05,633.9369 455.5,649.7969 C486.17,670.5369 519.1663,683.6093 550.9563,693.4093" fill="none" id="Sistema de agentes-to-Kiwi" style="stroke:#181818;stroke-width:1;"/><polygon fill="#181818" points="556.69,695.1769,549.2678,688.703,551.9119,693.7039,546.911,696.348,556.69,695.1769" style="stroke:#181818;stroke-width:1;"/><text fill="#000000" font-family="sans-serif" font-size="13" lengthAdjust="spacing" textLength="58.0049" x="503.4346" y="615.8638">XML-RPC</text><text fill="#000000" font-family="sans-serif" font-size="13" lengthAdjust="spacing" textLength="151.874" x="456.5" y="630.9966">publicaci&#243;n autom&#225;tica</text><text fill="#000000" font-family="sans-serif" font-size="13" lengthAdjust="spacing" textLength="127.8481" x="468.5129" y="646.1294">TestCase.create(...)</text></g><!--link Kiwi to MariaDB--><g class="link" data-entity-1="Kiwi" data-entity-2="MariaDB" data-source-line="44" data-uid="lnk23" id="link_Kiwi_MariaDB"><path d="M616.5,742.8169 C616.5,765.5969 616.5,790.5969 616.5,813.3669" fill="none" id="Kiwi-to-MariaDB" style="stroke:#181818;stroke-width:1;"/><polygon fill="#181818" points="616.5,819.3669,620.5,810.3669,616.5,814.3669,612.5,810.3669,616.5,819.3669" style="stroke:#181818;stroke-width:1;"/><text fill="#000000" font-family="sans-serif" font-size="13" lengthAdjust="spacing" textLength="119.4312" x="617.5" y="785.8638">persistencia TCMS</text></g><!--SRC=[VPF1SjCm48RlUeeTds0w2VSUc76IbeR6aDOUXeClMtdZYjeh8yaj3CF3y0myGb-CjHn2c3IvsB9slz_xhrR-mN273bleK3zWJNdutX0uqW6vRaZvNOA_nye-6QvXWuqdfO89afgwhxq9ajyxX9gO73PGKGFU-40jAeKwM0TBbg0XPszIfJOYI91SEik1k89ydIRmGm5estQMYGCaLqMsWZSmptDvliT7pBKpNKZKpnq_ave7FFiqB_c3hMZwnSCPN7ph77b_e9Ykbt1xaHVx4ZcvHwEDXMKAMTy48psGcag-H1y6u0pUMLiFHXVN1uhvw57ymiZvg5rXm3lq8fzPhkrYbW1wsAxteldDIbeNW-DodqHdS34h-Tey6IZcMJwAZDjAwSRs5IGVE-9qAHqQyDKgYqdo_XlVqIL_pbQJs_KSn5NC6a9AxPqBJ2PlJ_HT7GsDuAwzS0vNHR6E7qBzsuzfB_HCW7laocus4JnWjfsJjBf7Lw63okg-5HYrUVxD1q1qVGvRnoLt_LrZz9WCBNAFJSa5-J2NNa-r8mpqQZgTlXQbb-hxlmYv7NqdStvGnb5sF5r1FNaZi-E7QJhnh-40ZqTFkiC-sFRvLv2DOnOZ7osDmoHQOYVULzO6uxZy0G00]--></g></svg>