<?xml version="1.0" encoding="us-ascii" standalone="no"?><svg xmlns="http://www.w3.org/2000/svg" xmlns:xlink="http://www.w3.org/1999/xlink" contentStyleType="text/css" height="752px" preserveAspectRatio="none" style="width:462px;height:752px;background:#FFFFFF;" version="1.1" viewBox="0 0 462 752" width="462px" zoomAndPan="magnify"><defs/><g><path d="M110,7 L330,7 A12.5,12.5 0 0 1 342.5,19.5 L342.5,34.6094 L97.5,34.6094 L97.5,19.5 A12.5,12.5 0 0 1 110,7 " fill="#F1F1F1" style="stroke:#F1F1F1;stroke-width:1.0;"/><rect fill="none" height="592.6094" rx="12.5" ry="12.5" style="stroke:#181818;stroke-width:0.5;" width="245" x="97.5" y="7"/><line style="stroke:#181818;stroke-width:0.5;" x1="97.5" x2="342.5" y1="34.6094" y2="34.6094"/><text fill="#000000" font-family="sans-serif" font-size="14" lengthAdjust="spacing" textLength="140" x="150" y="26.5332">seleccionarSesiones()</text><g id="seleccionarSesiones.MostrandoSesiones"><rect fill="#F1F1F1" height="50" rx="12.5" ry="12.5" style="stroke:#181818;stroke-width:0.5;" width="50" x="109.5" y="153.6094"/><line style="stroke:#181818;stroke-width:0.5;" x1="109.5" x2="159.5" y1="181.2188" y2="181.2188"/><text fill="#000000" font-family="sans-serif" font-size="14" lengthAdjust="spacing" textLength="4" x="132.5" y="173.1426">&#160;</text></g><g id="seleccionarSesiones.RecuperandoSesion"><rect fill="#F1F1F1" height="50" rx="12.5" ry="12.5" style="stroke:#181818;stroke-width:0.5;" width="50" x="109.5" y="291.6094"/><line style="stroke:#181818;stroke-width:0.5;" x1="109.5" x2="159.5" y1="319.2188" y2="319.2188"/><text fill="#000000" font-family="sans-serif" font-size="14" lengthAdjust="spacing" textLength="4" x="132.5" y="311.1426">&#160;</text></g><g id="seleccionarSesiones.ActivandoSesion"><rect fill="#F1F1F1" height="50" rx="12.5" ry="12.5" style="stroke:#181818;stroke-width:0.5;" width="50" x="109.5" y="429.6094"/><line style="stroke:#181818;stroke-width:0.5;" x1="109.5" x2="159.5" y1="457.2188" y2="457.2188"/><text fill="#000000" font-family="sans-serif" font-size="14" lengthAdjust="spacing" textLength="4" x="132.5" y="449.1426">&#160;</text></g><ellipse cx="134.5" cy="55.6094" fill="#222222" rx="10" ry="10" style="stroke:#222222;stroke-width:1.0;"/><ellipse cx="134.5" cy="578.6094" fill="none" rx="11" ry="11" style="stroke:#222222;stroke-width:1.0;"/><ellipse cx="134.5" cy="578.6094" fill="#222222" rx="6" ry="6" style="stroke:#222222;stroke-width:1.0;"/><!--link *start*seleccionarSesiones to MostrandoSesiones--><g id="link_*start*seleccionarSesiones_MostrandoSesiones"><path d="M134.5,65.6994 C134.5,84.1694 134.5,120.5894 134.5,147.5794 " fill="none" id="*start*seleccionarSesiones-to-MostrandoSesiones" style="stroke:#008000;stroke-width:1.0;"/><polygon fill="#008000" points="134.5,153.5794,138.5,144.5794,134.5,148.5794,130.5,144.5794,134.5,153.5794" style="stroke:#008000;stroke-width:1.0;"/><path d="M139.5,88.6094 L139.5,130.6094 L311.5,130.6094 L311.5,98.6094 L301.5,88.6094 L139.5,88.6094 " fill="#FEFFDD" style="stroke:#181818;stroke-width:0.5;"/><path d="M301.5,88.6094 L301.5,98.6094 L311.5,98.6094 L301.5,88.6094 " fill="#FEFFDD" style="stroke:#181818;stroke-width:0.5;"/><text fill="#000000" font-family="sans-serif" font-size="13" lengthAdjust="spacing" textLength="151" x="145.5" y="107.1045">Se muestran las sesiones</text><text fill="#000000" font-family="sans-serif" font-size="13" lengthAdjust="spacing" textLength="141" x="145.5" y="123.4561">disponibles para el actor</text></g><!--link MostrandoSesiones to RecuperandoSesion--><g id="link_MostrandoSesiones_RecuperandoSesion"><path d="M134.5,203.6094 C134.5,228.3194 134.5,260.6094 134.5,285.3894 " fill="none" id="MostrandoSesiones-to-RecuperandoSesion" style="stroke:#008000;stroke-width:1.0;"/><polygon fill="#008000" points="134.5,291.3894,138.5,282.3894,134.5,286.3894,130.5,282.3894,134.5,291.3894" style="stroke:#008000;stroke-width:1.0;"/><path d="M139.5,226.6094 L139.5,268.6094 L306.5,268.6094 L306.5,236.6094 L296.5,226.6094 L139.5,226.6094 " fill="#FEFFDD" style="stroke:#181818;stroke-width:0.5;"/><path d="M296.5,226.6094 L296.5,236.6094 L306.5,236.6094 L296.5,226.6094 " fill="#FEFFDD" style="stroke:#181818;stroke-width:0.5;"/><text fill="#000000" font-family="sans-serif" font-size="13" font-weight="bold" lengthAdjust="spacing" textLength="51" x="145.5" y="245.1045">Sistema</text><text fill="#000000" font-family="sans-serif" font-size="13" lengthAdjust="spacing" textLength="91" x="200.5" y="245.1045">recibe la sesion</text><text fill="#000000" font-family="sans-serif" font-size="13" lengthAdjust="spacing" textLength="145" x="145.5" y="261.4561">seleccionada por el actor</text></g><!--link RecuperandoSesion to ActivandoSesion--><g id="link_RecuperandoSesion_ActivandoSesion"><path d="M134.5,341.6094 C134.5,366.3194 134.5,398.6094 134.5,423.3894 " fill="none" id="RecuperandoSesion-to-ActivandoSesion" style="stroke:#008000;stroke-width:1.0;"/><polygon fill="#008000" points="134.5,429.3894,138.5,420.3894,134.5,424.3894,130.5,420.3894,134.5,429.3894" style="stroke:#008000;stroke-width:1.0;"/><path d="M139.5,364.6094 L139.5,406.6094 L333.5,406.6094 L333.5,374.6094 L323.5,364.6094 L139.5,364.6094 " fill="#FEFFDD" style="stroke:#181818;stroke-width:0.5;"/><path d="M323.5,364.6094 L323.5,374.6094 L333.5,374.6094 L323.5,364.6094 " fill="#FEFFDD" style="stroke:#181818;stroke-width:0.5;"/><text fill="#000000" font-family="sans-serif" font-size="13" font-weight="bold" lengthAdjust="spacing" textLength="51" x="145.5" y="383.1045">Sistema</text><text fill="#000000" font-family="sans-serif" font-size="13" lengthAdjust="spacing" textLength="118" x="200.5" y="383.1045">recupera el contexto</text><text fill="#000000" font-family="sans-serif" font-size="13" lengthAdjust="spacing" textLength="152" x="145.5" y="399.4561">y los artefactos asociados</text></g><!--link ActivandoSesion to *end*seleccionarSesiones--><g id="link_ActivandoSesion_*end*seleccionarSesiones"><path d="M134.5,479.7094 C134.5,506.3794 134.5,542.1094 134.5,561.3094 " fill="none" id="ActivandoSesion-to-*end*seleccionarSesiones" style="stroke:#008000;stroke-width:1.0;"/><polygon fill="#008000" points="134.5,567.3094,138.5,558.3094,134.5,562.3094,130.5,558.3094,134.5,567.3094" style="stroke:#008000;stroke-width:1.0;"/><path d="M139.5,502.6094 L139.5,544.6094 L304.5,544.6094 L304.5,512.6094 L294.5,502.6094 L139.5,502.6094 " fill="#FEFFDD" style="stroke:#181818;stroke-width:0.5;"/><path d="M294.5,502.6094 L294.5,512.6094 L304.5,512.6094 L294.5,502.6094 " fill="#FEFFDD" style="stroke:#181818;stroke-width:0.5;"/><text fill="#000000" font-family="sans-serif" font-size="13" font-weight="bold" lengthAdjust="spacing" textLength="51" x="145.5" y="521.1045">Sistema</text><text fill="#000000" font-family="sans-serif" font-size="13" lengthAdjust="spacing" textLength="89" x="200.5" y="521.1045">activa la sesion</text><text fill="#000000" font-family="sans-serif" font-size="13" lengthAdjust="spacing" textLength="76" x="145.5" y="537.4561">seleccionada</text></g><g id="DOCUMENTACION_ABIERTA"><rect fill="#F1F1F1" height="50" rx="12.5" ry="12.5" style="stroke:#181818;stroke-width:0.5;" width="206" x="7" y="696"/><line style="stroke:#181818;stroke-width:0.5;" x1="7" x2="213" y1="723.6094" y2="723.6094"/><text fill="#000000" font-family="sans-serif" font-size="14" lengthAdjust="spacing" textLength="186" x="17" y="715.5332">DOCUMENTACION_ABIERTA</text></g><g id="SESIONES_ABIERTAS"><rect fill="#F1F1F1" height="50" rx="12.5" ry="12.5" style="stroke:#181818;stroke-width:0.5;" width="163" x="248.5" y="696"/><line style="stroke:#181818;stroke-width:0.5;" x1="248.5" x2="411.5" y1="723.6094" y2="723.6094"/><text fill="#000000" font-family="sans-serif" font-size="14" lengthAdjust="spacing" textLength="143" x="258.5" y="715.5332">SESIONES_ABIERTAS</text></g><!--link seleccionarSesiones to DOCUMENTACION_ABIERTA--><g id="link_seleccionarSesiones_DOCUMENTACION_ABIERTA"><path d="M141.74,600.1 C131.27,639.68 123.7063,668.24 117.9663,689.91 " fill="none" id="seleccionarSesiones-to-DOCUMENTACION_ABIERTA" style="stroke:#008000;stroke-width:1.0;"/><polygon fill="#008000" points="116.43,695.71,122.6011,688.0342,117.7103,690.8767,114.8678,685.9858,116.43,695.71" style="stroke:#008000;stroke-width:1.0;"/><path d="M139,635 L139,661 L282,661 L282,645 L272,635 L139,635 " fill="#FEFFDD" style="stroke:#181818;stroke-width:0.5;"/><path d="M272,635 L272,645 L282,645 L272,635 " fill="#FEFFDD" style="stroke:#181818;stroke-width:0.5;"/><text fill="#000000" font-family="sans-serif" font-size="13" lengthAdjust="spacing" textLength="122" x="145" y="653.4951">completarSeleccion()</text></g><!--link seleccionarSesiones to SESIONES_ABIERTAS--><g id="link_seleccionarSesiones_SESIONES_ABIERTAS"><path d="M298.26,600.1 C308.73,639.68 316.2937,668.24 322.0337,689.91 " fill="none" id="seleccionarSesiones-to-SESIONES_ABIERTAS" style="stroke:#FF0000;stroke-width:1.0;"/><polygon fill="#FF0000" points="323.57,695.71,325.1322,685.9858,322.2897,690.8767,317.3989,688.0342,323.57,695.71" style="stroke:#FF0000;stroke-width:1.0;"/><path d="M319,635 L319,661 L455,661 L455,645 L445,635 L319,635 " fill="#FEFFDD" style="stroke:#181818;stroke-width:0.5;"/><path d="M445,635 L445,645 L455,645 L445,635 " fill="#FEFFDD" style="stroke:#181818;stroke-width:0.5;"/><text fill="#000000" font-family="sans-serif" font-size="13" lengthAdjust="spacing" textLength="115" x="325" y="653.4951">rechazarSeleccion()</text></g><!--SRC=[ZP91Ri8m44NtESM8Rg0IwWKGKagpO058cAuGgXndsbeudiWsLMdLkzSsq2Oa8E955Fld_J_ZiLkfAsvu2KfgTFiAeIAr3nz9OXrt21OL2Y59SyFG-ZTQu1Pw7VlzGG- -amJyS_YtvvVNpiWwmtL19s5RiaIngx0cQajIuUH7JH0Lw_iD3DTtRmPHRuRZ2rQQF8PqA78RDnX2kSCe1UNPjgukfAr8orpvIaDp01LmuSZ4KzH5v1tyMtwDDDrLjTACyZ6Jrc79Hm_v60mAcQFFTOnrQCLVkmlkxyXS2zMoROGwx-EDaI8nk0hI3ZyTHTqU5FbvC0vVGvem6YGaByXsv3fpRgJo5tbJ4XuPLvhJzFtnOzmnm7NdfyNaUPRDL-bakfY_f8_JRBbAaqOEGMMbq0N0aTKV9F-rNN0mM0G-ovW7P-o4PassR-qx_xg0_WK0]--></g></svg>