<svg xmlns="http://www.w3.org/2000/svg" xmlns:xlink="http://www.w3.org/1999/xlink" contentStyleType="text/css" data-diagram-type="DESCRIPTION" height="3293px" preserveAspectRatio="none" style="width:503px;height:3293px;background:#FFFFFF;" version="1.1" viewBox="0 0 503 3293" width="503px" zoomAndPan="magnify"><title>Casos de uso - Ingeniero de QA</title><defs/><g><g class="title" data-source-line="2"><text fill="#000000" font-family="sans-serif" font-size="14" font-weight="bold" lengthAdjust="spacing" textLength="246.2236" x="121.3882" y="22.9951">Casos de uso - Ingeniero de QA</text></g><!--cluster Sistema--><g class="cluster" data-entity="Sistema" data-source-line="6" data-uid="ent0003" id="cluster_Sistema"><rect fill="none" height="3243" rx="2.5" ry="2.5" style="stroke:#181818;stroke-width:1;" width="334" x="163" y="44.2969"/><text fill="#000000" font-family="sans-serif" font-size="14" font-weight="bold" lengthAdjust="spacing" textLength="63.4375" x="298.2813" y="59.292">Sistema</text></g><!--entity CU01--><g class="entity" data-entity="CU01" data-source-line="7" data-uid="ent0004" id="entity_CU01"><ellipse cx="330.1909" cy="105.1274" fill="#F1F1F1" rx="34.1909" ry="25.8306" style="stroke:#181818;stroke-width:0.5;"/><text fill="#000000" font-family="sans-serif" font-size="14" lengthAdjust="spacing" textLength="42.8135" x="308.7842" y="101.3195">Iniciar</text><text fill="#000000" font-family="sans-serif" font-size="14" lengthAdjust="spacing" textLength="44.5293" x="307.9263" y="117.6164">sesion</text></g><!--entity CU02--><g class="entity" data-entity="CU02" data-source-line="8" data-uid="ent0005" id="entity_CU02"><ellipse cx="329.9352" cy="192.3063" fill="#F1F1F1" rx="34.4352" ry="26.0094" style="stroke:#181818;stroke-width:0.5;"/><text fill="#000000" font-family="sans-serif" font-size="14" lengthAdjust="spacing" textLength="44.2354" x="307.8175" y="188.7526">Cerrar</text><text fill="#000000" font-family="sans-serif" font-size="14" lengthAdjust="spacing" textLength="44.5293" x="307.6706" y="205.0495">sesion</text></g><!--entity CU03--><g class="entity" data-entity="CU03" data-source-line="10" data-uid="ent0006" id="entity_CU03"><ellipse cx="329.9455" cy="278.286" fill="#F1F1F1" rx="110.4455" ry="24.4891" style="stroke:#181818;stroke-width:0.5;"/><text fill="#000000" font-family="sans-serif" font-size="14" lengthAdjust="spacing" textLength="67.915" x="295.9879" y="270.6952">Introducir</text><text fill="#000000" font-family="sans-serif" font-size="14" lengthAdjust="spacing" textLength="176.8594" x="241.5158" y="286.9921">documentacion funcional</text></g><!--entity CU04--><g class="entity" data-entity="CU04" data-source-line="11" data-uid="ent0007" id="entity_CU04"><ellipse cx="330.2461" cy="362.2461" fill="#F1F1F1" rx="107.7461" ry="23.9492" style="stroke:#181818;stroke-width:0.5;"/><text fill="#000000" font-family="sans-serif" font-size="14" lengthAdjust="spacing" textLength="164.0488" x="248.2216" y="362.0142">Asociar documentacion</text><text fill="#000000" font-family="sans-serif" font-size="14" lengthAdjust="spacing" textLength="74.8877" x="292.8022" y="378.311">a proyecto</text></g><!--entity CU05--><g class="entity" data-entity="CU05" data-source-line="12" data-uid="ent0008" id="entity_CU05"><ellipse cx="330.1132" cy="454.4195" fill="#F1F1F1" rx="151.1132" ry="32.6226" style="stroke:#181818;stroke-width:0.5;"/><text fill="#000000" font-family="sans-serif" font-size="14" lengthAdjust="spacing" textLength="284.7988" x="187.7138" y="459.068">Consultar referencias de documentacion</text><text fill="#000000" font-family="sans-serif" font-size="14" lengthAdjust="spacing" textLength="106.0049" x="277.1108" y="475.3648">de un proyecto</text></g><!--entity CU06--><g class="entity" data-entity="CU06" data-source-line="13" data-uid="ent0009" id="entity_CU06"><ellipse cx="330.2078" cy="545.4864" fill="#F1F1F1" rx="71.7078" ry="23.6896" style="stroke:#181818;stroke-width:0.5;"/><text fill="#000000" font-family="sans-serif" font-size="14" lengthAdjust="spacing" textLength="38.8076" x="310.804" y="538.4359">Listar</text><text fill="#000000" font-family="sans-serif" font-size="14" lengthAdjust="spacing" textLength="108.2402" x="276.0877" y="554.7328">documentacion</text></g><!--entity CU07--><g class="entity" data-entity="CU07" data-source-line="14" data-uid="ent0010" id="entity_CU07"><ellipse cx="329.8915" cy="628.144" fill="#F1F1F1" rx="73.8915" ry="24.3471" style="stroke:#181818;stroke-width:0.5;"/><text fill="#000000" font-family="sans-serif" font-size="14" lengthAdjust="spacing" textLength="67.0947" x="296.3441" y="622.1353">Consultar</text><text fill="#000000" font-family="sans-serif" font-size="14" lengthAdjust="spacing" textLength="108.2402" x="275.7714" y="638.4321">documentacion</text></g><!--entity CU08--><g class="entity" data-entity="CU08" data-source-line="15" data-uid="ent0011" id="entity_CU08"><ellipse cx="330.1558" cy="712.2236" fill="#F1F1F1" rx="74.1558" ry="24.4267" style="stroke:#181818;stroke-width:0.5;"/><text fill="#000000" font-family="sans-serif" font-size="14" lengthAdjust="spacing" textLength="69.6787" x="295.3164" y="706.3378">Actualizar</text><text fill="#000000" font-family="sans-serif" font-size="14" lengthAdjust="spacing" textLength="108.2402" x="276.0357" y="722.6346">documentacion</text></g><!--entity CU09--><g class="entity" data-entity="CU09" data-source-line="16" data-uid="ent0012" id="entity_CU09"><ellipse cx="329.996" cy="796.3744" fill="#F1F1F1" rx="72.996" ry="24.0775" style="stroke:#181818;stroke-width:0.5;"/><text fill="#000000" font-family="sans-serif" font-size="14" lengthAdjust="spacing" textLength="57.3604" x="301.3158" y="789.9443">Eliminar</text><text fill="#000000" font-family="sans-serif" font-size="14" lengthAdjust="spacing" textLength="108.2402" x="275.8759" y="806.2412">documentacion</text></g><!--entity CU10--><g class="entity" data-entity="CU10" data-source-line="18" data-uid="ent0013" id="entity_CU10"><ellipse cx="329.8727" cy="879.1255" fill="#F1F1F1" rx="60.8727" ry="23.8286" style="stroke:#181818;stroke-width:0.5;"/><text fill="#000000" font-family="sans-serif" font-size="14" lengthAdjust="spacing" textLength="38.8076" x="310.4689" y="872.2994">Listar</text><text fill="#000000" font-family="sans-serif" font-size="14" lengthAdjust="spacing" textLength="90.5625" x="284.5914" y="888.5962">casos de uso</text></g><!--entity CU11--><g class="entity" data-entity="CU11" data-source-line="19" data-uid="ent0014" id="entity_CU11"><ellipse cx="329.8574" cy="963.3568" fill="#F1F1F1" rx="59.3574" ry="25.0599" style="stroke:#181818;stroke-width:0.5;"/><text fill="#000000" font-family="sans-serif" font-size="14" lengthAdjust="spacing" textLength="67.0947" x="296.3101" y="958.4278">Consultar</text><text fill="#000000" font-family="sans-serif" font-size="14" lengthAdjust="spacing" textLength="83.2686" x="288.2232" y="974.7247">caso de uso</text></g><!--entity CU12--><g class="entity" data-entity="CU12" data-source-line="20" data-uid="ent0015" id="entity_CU12"><ellipse cx="329.9061" cy="1047.2016" fill="#F1F1F1" rx="56.4061" ry="23.9047" style="stroke:#181818;stroke-width:0.5;"/><text fill="#000000" font-family="sans-serif" font-size="14" lengthAdjust="spacing" textLength="38.4795" x="310.6664" y="1040.4974">Crear</text><text fill="#000000" font-family="sans-serif" font-size="14" lengthAdjust="spacing" textLength="83.2686" x="288.2718" y="1056.7943">caso de uso</text></g><!--entity CU13--><g class="entity" data-entity="CU13" data-source-line="21" data-uid="ent0016" id="entity_CU13"><ellipse cx="330.2164" cy="1131.4973" fill="#F1F1F1" rx="59.7164" ry="25.2004" style="stroke:#181818;stroke-width:0.5;"/><text fill="#000000" font-family="sans-serif" font-size="14" lengthAdjust="spacing" textLength="69.6787" x="295.377" y="1126.776">Actualizar</text><text fill="#000000" font-family="sans-serif" font-size="14" lengthAdjust="spacing" textLength="83.2686" x="288.5821" y="1143.0728">caso de uso</text></g><!--entity CU14--><g class="entity" data-entity="CU14" data-source-line="22" data-uid="ent0017" id="entity_CU14"><ellipse cx="330.1481" cy="1216.3834" fill="#F1F1F1" rx="58.1481" ry="24.5866" style="stroke:#181818;stroke-width:0.5;"/><text fill="#000000" font-family="sans-serif" font-size="14" lengthAdjust="spacing" textLength="57.3604" x="301.4679" y="1210.7426">Eliminar</text><text fill="#000000" font-family="sans-serif" font-size="14" lengthAdjust="spacing" textLength="83.2686" x="288.5138" y="1227.0394">caso de uso</text></g><!--entity CU15--><g class="entity" data-entity="CU15" data-source-line="24" data-uid="ent0018" id="entity_CU15"><ellipse cx="329.903" cy="1300.4864" fill="#F1F1F1" rx="77.403" ry="24.6895" style="stroke:#181818;stroke-width:0.5;"/><text fill="#000000" font-family="sans-serif" font-size="14" lengthAdjust="spacing" textLength="111.8086" x="273.9987" y="1298.9708">Listar requisitos</text><text fill="#000000" font-family="sans-serif" font-size="14" lengthAdjust="spacing" textLength="80.0762" x="289.8649" y="1315.2677">funcionales</text></g><!--entity CU16--><g class="entity" data-entity="CU16" data-source-line="25" data-uid="ent0019" id="entity_CU16"><ellipse cx="329.8829" cy="1384.2525" fill="#F1F1F1" rx="88.3829" ry="23.9557" style="stroke:#181818;stroke-width:0.5;"/><text fill="#000000" font-family="sans-serif" font-size="14" lengthAdjust="spacing" textLength="132.8018" x="263.482" y="1383.8755">Consultar requisito</text><text fill="#000000" font-family="sans-serif" font-size="14" lengthAdjust="spacing" textLength="64.1689" x="297.7984" y="1400.1724">funcional</text></g><!--entity CU17--><g class="entity" data-entity="CU17" data-source-line="26" data-uid="ent0020" id="entity_CU17"><ellipse cx="330.1953" cy="1468.1311" fill="#F1F1F1" rx="71.1953" ry="24.3343" style="stroke:#181818;stroke-width:0.5;"/><text fill="#000000" font-family="sans-serif" font-size="14" lengthAdjust="spacing" textLength="104.1865" x="278.1021" y="1467.1598">Crear requisito</text><text fill="#000000" font-family="sans-serif" font-size="14" lengthAdjust="spacing" textLength="64.1689" x="298.1109" y="1483.4567">funcional</text></g><!--entity CU18--><g class="entity" data-entity="CU18" data-source-line="27" data-uid="ent0021" id="entity_CU18"><ellipse cx="329.9504" cy="1552.2299" fill="#F1F1F1" rx="89.9504" ry="23.9331" style="stroke:#181818;stroke-width:0.5;"/><text fill="#000000" font-family="sans-serif" font-size="14" lengthAdjust="spacing" textLength="135.3857" x="262.2575" y="1551.8889">Actualizar requisito</text><text fill="#000000" font-family="sans-serif" font-size="14" lengthAdjust="spacing" textLength="64.1689" x="297.8659" y="1568.1858">funcional</text></g><!--entity CU19--><g class="entity" data-entity="CU19" data-source-line="28" data-uid="ent0022" id="entity_CU19"><ellipse cx="329.9969" cy="1635.3512" fill="#F1F1F1" rx="82.4969" ry="24.0543" style="stroke:#181818;stroke-width:0.5;"/><text fill="#000000" font-family="sans-serif" font-size="14" lengthAdjust="spacing" textLength="123.0674" x="268.4633" y="1634.8178">Eliminar requisito</text><text fill="#000000" font-family="sans-serif" font-size="14" lengthAdjust="spacing" textLength="64.1689" x="297.9125" y="1651.1147">funcional</text></g><!--entity CU20--><g class="entity" data-entity="CU20" data-source-line="30" data-uid="ent0023" id="entity_CU20"><ellipse cx="329.9761" cy="1718.2062" fill="#F1F1F1" rx="78.9761" ry="23.9093" style="stroke:#181818;stroke-width:0.5;"/><text fill="#000000" font-family="sans-serif" font-size="14" lengthAdjust="spacing" textLength="118.4326" x="270.7598" y="1717.903">Listar escenarios</text><text fill="#000000" font-family="sans-serif" font-size="14" lengthAdjust="spacing" textLength="54.9609" x="302.4957" y="1734.1999">Gherkin</text></g><!--entity CU21--><g class="entity" data-entity="CU21" data-source-line="31" data-uid="ent0024" id="entity_CU21"><ellipse cx="329.8532" cy="1801.2847" fill="#F1F1F1" rx="74.3532" ry="23.9878" style="stroke:#181818;stroke-width:0.5;"/><text fill="#000000" font-family="sans-serif" font-size="14" lengthAdjust="spacing" textLength="110.8105" x="274.4479" y="1800.8566">Crear escenario</text><text fill="#000000" font-family="sans-serif" font-size="14" lengthAdjust="spacing" textLength="54.9609" x="302.3727" y="1817.1535">Gherkin</text></g><!--entity CU22--><g class="entity" data-entity="CU22" data-source-line="32" data-uid="ent0025" id="entity_CU22"><ellipse cx="329.7924" cy="1884.054" fill="#F1F1F1" rx="91.7924" ry="23.7571" style="stroke:#181818;stroke-width:0.5;"/><text fill="#000000" font-family="sans-serif" font-size="14" lengthAdjust="spacing" textLength="139.4258" x="260.0796" y="1883.9951">Consultar escenario</text><text fill="#000000" font-family="sans-serif" font-size="14" lengthAdjust="spacing" textLength="54.9609" x="302.312" y="1900.292">Gherkin</text></g><!--entity CU23--><g class="entity" data-entity="CU23" data-source-line="33" data-uid="ent0026" id="entity_CU23"><ellipse cx="329.8765" cy="1967.5399" fill="#F1F1F1" rx="93.3765" ry="23.743" style="stroke:#181818;stroke-width:0.5;"/><text fill="#000000" font-family="sans-serif" font-size="14" lengthAdjust="spacing" textLength="142.0098" x="258.8716" y="1967.5038">Actualizar escenario</text><text fill="#000000" font-family="sans-serif" font-size="14" lengthAdjust="spacing" textLength="54.9609" x="302.396" y="1983.8007">Gherkin</text></g><!--entity CU24--><g class="entity" data-entity="CU24" data-source-line="34" data-uid="ent0027" id="entity_CU24"><ellipse cx="329.8367" cy="2050.1152" fill="#F1F1F1" rx="85.8367" ry="23.8183" style="stroke:#181818;stroke-width:0.5;"/><text fill="#000000" font-family="sans-serif" font-size="14" lengthAdjust="spacing" textLength="129.6914" x="264.991" y="2049.9577">Eliminar escenario</text><text fill="#000000" font-family="sans-serif" font-size="14" lengthAdjust="spacing" textLength="54.9609" x="302.3563" y="2066.2546">Gherkin</text></g><!--entity CU25--><g class="entity" data-entity="CU25" data-source-line="36" data-uid="ent0028" id="entity_CU25"><ellipse cx="330.0045" cy="2135.1099" fill="#F1F1F1" rx="89.0045" ry="25.3131" style="stroke:#181818;stroke-width:0.5;"/><text fill="#000000" font-family="sans-serif" font-size="14" lengthAdjust="spacing" textLength="125.6309" x="267.189" y="2132.6659">Crear borrador de</text><text fill="#000000" font-family="sans-serif" font-size="14" lengthAdjust="spacing" textLength="108.1309" x="275.939" y="2148.9628">caso de prueba</text></g><!--entity CU26--><g class="entity" data-entity="CU26" data-source-line="37" data-uid="ent0029" id="entity_CU26"><ellipse cx="329.9239" cy="2220.3111" fill="#F1F1F1" rx="52.4239" ry="24.0142" style="stroke:#181818;stroke-width:0.5;"/><text fill="#000000" font-family="sans-serif" font-size="14" lengthAdjust="spacing" textLength="38.8076" x="310.5201" y="2213.781">Listar</text><text fill="#000000" font-family="sans-serif" font-size="14" lengthAdjust="spacing" textLength="76.6582" x="291.5948" y="2230.0779">borradores</text></g><!--entity CU27--><g class="entity" data-entity="CU27" data-source-line="38" data-uid="ent0030" id="entity_CU27"><ellipse cx="329.887" cy="2305.3311" fill="#F1F1F1" rx="49.387" ry="25.5342" style="stroke:#181818;stroke-width:0.5;"/><text fill="#000000" font-family="sans-serif" font-size="14" lengthAdjust="spacing" textLength="67.0947" x="296.3397" y="2302.5651">Consultar</text><text fill="#000000" font-family="sans-serif" font-size="14" lengthAdjust="spacing" textLength="60.751" x="299.5115" y="2318.862">borrador</text></g><!--entity CU28--><g class="entity" data-entity="CU28" data-source-line="39" data-uid="ent0031" id="entity_CU28"><ellipse cx="330.1747" cy="2390.2291" fill="#F1F1F1" rx="78.1747" ry="24.4322" style="stroke:#181818;stroke-width:0.5;"/><text fill="#000000" font-family="sans-serif" font-size="14" lengthAdjust="spacing" textLength="114.3242" x="273.0126" y="2389.1065">Anadir feedback</text><text fill="#000000" font-family="sans-serif" font-size="14" lengthAdjust="spacing" textLength="73.7803" x="293.2846" y="2405.4033">a borrador</text></g><!--entity CU29--><g class="entity" data-entity="CU29" data-source-line="40" data-uid="ent0032" id="entity_CU29"><ellipse cx="329.8358" cy="2475.4695" fill="#F1F1F1" rx="48.3358" ry="25.6727" style="stroke:#181818;stroke-width:0.5;"/><text fill="#000000" font-family="sans-serif" font-size="14" lengthAdjust="spacing" textLength="65.1738" x="297.2489" y="2472.5037">Rechazar</text><text fill="#000000" font-family="sans-serif" font-size="14" lengthAdjust="spacing" textLength="60.751" x="299.4603" y="2488.8006">borrador</text></g><!--entity CU30--><g class="entity" data-entity="CU30" data-source-line="41" data-uid="ent0033" id="entity_CU30"><ellipse cx="330.0499" cy="2565.5069" fill="#F1F1F1" rx="134.0499" ry="29.21" style="stroke:#181818;stroke-width:0.5;"/><text fill="#000000" font-family="sans-serif" font-size="14" lengthAdjust="spacing" textLength="240.8232" x="209.6383" y="2567.9594">Aceptar y publicar caso de prueba</text><text fill="#000000" font-family="sans-serif" font-size="14" lengthAdjust="spacing" textLength="138.5371" x="260.7813" y="2584.2563">a partir de borrador</text></g><!--entity CU31--><g class="entity" data-entity="CU31" data-source-line="43" data-uid="ent0034" id="entity_CU31"><ellipse cx="330.1408" cy="2654.225" fill="#F1F1F1" rx="110.1408" ry="24.4282" style="stroke:#181818;stroke-width:0.5;"/><text fill="#000000" font-family="sans-serif" font-size="14" lengthAdjust="spacing" textLength="167.6787" x="246.3014" y="2653.6801">Buscar casos de prueba</text><text fill="#000000" font-family="sans-serif" font-size="14" lengthAdjust="spacing" textLength="94.0898" x="283.0958" y="2669.977">en Kiwi TCMS</text></g><!--entity CU32--><g class="entity" data-entity="CU32" data-source-line="44" data-uid="ent0035" id="entity_CU32"><ellipse cx="329.9256" cy="2738.3846" fill="#F1F1F1" rx="93.4256" ry="24.5877" style="stroke:#181818;stroke-width:0.5;"/><text fill="#000000" font-family="sans-serif" font-size="14" lengthAdjust="spacing" textLength="136.5273" x="261.662" y="2737.0237">Ver caso de prueba</text><text fill="#000000" font-family="sans-serif" font-size="14" lengthAdjust="spacing" textLength="94.0898" x="282.8807" y="2753.3206">en Kiwi TCMS</text></g><!--entity CU33--><g class="entity" data-entity="CU33" data-source-line="45" data-uid="ent0036" id="entity_CU33"><ellipse cx="330.2299" cy="2823.1022" fill="#F1F1F1" rx="57.2299" ry="24.8054" style="stroke:#181818;stroke-width:0.5;"/><text fill="#000000" font-family="sans-serif" font-size="14" lengthAdjust="spacing" textLength="81.0605" x="289.6996" y="2821.4117">Seleccionar</text><text fill="#000000" font-family="sans-serif" font-size="14" lengthAdjust="spacing" textLength="60.4365" x="300.0116" y="2837.7086">sesiones</text></g><!--entity CU34--><g class="entity" data-entity="CU34" data-source-line="46" data-uid="ent0037" id="entity_CU34"><ellipse cx="330.1196" cy="2907.339" fill="#F1F1F1" rx="58.6196" ry="24.0422" style="stroke:#181818;stroke-width:0.5;"/><text fill="#000000" font-family="sans-serif" font-size="14" lengthAdjust="spacing" textLength="86.1533" x="287.043" y="2906.8248">Crear nueva</text><text fill="#000000" font-family="sans-serif" font-size="14" lengthAdjust="spacing" textLength="44.5293" x="307.855" y="2923.1217">sesion</text></g><!--entity CU35--><g class="entity" data-entity="CU35" data-source-line="47" data-uid="ent0038" id="entity_CU35"><ellipse cx="330.098" cy="2991.2293" fill="#F1F1F1" rx="41.598" ry="24.9324" style="stroke:#181818;stroke-width:0.5;"/><text fill="#000000" font-family="sans-serif" font-size="14" lengthAdjust="spacing" textLength="57.3604" x="301.4178" y="2989.3482">Eliminar</text><text fill="#000000" font-family="sans-serif" font-size="14" lengthAdjust="spacing" textLength="44.5293" x="307.8333" y="3005.6451">sesion</text></g><!--entity CU36--><g class="entity" data-entity="CU36" data-source-line="48" data-uid="ent0039" id="entity_CU36"><ellipse cx="329.8386" cy="3076.2538" fill="#F1F1F1" rx="52.3386" ry="24.9569" style="stroke:#181818;stroke-width:0.5;"/><text fill="#000000" font-family="sans-serif" font-size="14" lengthAdjust="spacing" textLength="57.2783" x="301.1994" y="3071.1714">Guardar</text><text fill="#000000" font-family="sans-serif" font-size="14" lengthAdjust="spacing" textLength="73.2402" x="293.2184" y="3087.4683">resultados</text></g><!--entity CU38--><g class="entity" data-entity="CU38" data-source-line="49" data-uid="ent0040" id="entity_CU38"><ellipse cx="329.862" cy="3161.1285" fill="#F1F1F1" rx="45.862" ry="24.8317" style="stroke:#181818;stroke-width:0.5;"/><text fill="#000000" font-family="sans-serif" font-size="14" lengthAdjust="spacing" textLength="63.9912" x="297.8664" y="3159.3984">Registrar</text><text fill="#000000" font-family="sans-serif" font-size="14" lengthAdjust="spacing" textLength="48.125" x="305.7995" y="3175.6953">cuenta</text></g><!--entity CU39--><g class="entity" data-entity="CU39" data-source-line="50" data-uid="ent0041" id="entity_CU39"><ellipse cx="329.8023" cy="3246.2871" fill="#F1F1F1" rx="91.3023" ry="24.9903" style="stroke:#181818;stroke-width:0.5;"/><text fill="#000000" font-family="sans-serif" font-size="14" lengthAdjust="spacing" textLength="103.373" x="278.1158" y="3241.2545">Crear traspaso</text><text fill="#000000" font-family="sans-serif" font-size="14" lengthAdjust="spacing" textLength="130.8809" x="264.3619" y="3257.5514">al flujo automatico</text></g><!--entity QA--><g class="entity" data-entity="QA" data-source-line="4" data-uid="ent0002" id="entity_QA"><ellipse cx="62.5981" cy="1647.7969" fill="#F1F1F1" rx="8" ry="8" style="stroke:#181818;stroke-width:0.5;"/><path d="M62.5981,1655.7969 L62.5981,1682.7969 M49.5981,1663.7969 L75.5981,1663.7969 M62.5981,1682.7969 L49.5981,1697.7969 M62.5981,1682.7969 L75.5981,1697.7969" fill="none" style="stroke:#181818;stroke-width:0.5;"/><text fill="#000000" font-family="sans-serif" font-size="14" lengthAdjust="spacing" textLength="113.1963" x="6" y="1712.292">Ingeniero de QA</text></g><!--link QA to CU01--><g class="link" data-entity-1="QA" data-entity-2="CU01" data-source-line="53" data-uid="lnk42" id="link_QA_CU01"><path d="M64.51,1639.2169 C70.79,1408.6669 105.8,207.4069 155,148.2969 C189.14,107.2769 249.6316,101.7765 289.8016,102.7165" fill="none" id="QA-to-CU01" style="stroke:#181818;stroke-width:1;"/><polygon fill="#181818" points="295.8,102.8569,286.896,98.6474,290.8014,102.7399,286.7089,106.6452,295.8,102.8569" style="stroke:#181818;stroke-width:1;"/></g><!--link QA to CU02--><g class="link" data-entity-1="QA" data-entity-2="CU02" data-source-line="54" data-uid="lnk43" id="link_QA_CU02"><path d="M63.29,1639.1569 C62.43,1421.9769 62.89,347.1669 155,236.2969 C189.05,195.3169 249.2507,189.3529 289.4507,189.9829" fill="none" id="QA-to-CU02" style="stroke:#181818;stroke-width:1;"/><polygon fill="#181818" points="295.45,190.0769,286.5138,185.9363,290.4506,189.9985,286.3884,193.9354,295.45,190.0769" style="stroke:#181818;stroke-width:1;"/></g><!--link QA to CU03--><g class="link" data-entity-1="QA" data-entity-2="CU03" data-source-line="55" data-uid="lnk44" id="link_QA_CU03"><path d="M63.43,1638.9869 C63.39,1429.0469 67.8,423.6869 155,320.2969 C171.73,300.4569 190.2398,290.5548 215.4298,284.2448" fill="none" id="QA-to-CU03" style="stroke:#181818;stroke-width:1;"/><polygon fill="#181818" points="221.25,282.7869,211.5478,281.0937,216.3999,284.0018,213.4917,288.8539,221.25,282.7869" style="stroke:#181818;stroke-width:1;"/></g><!--link QA to CU04--><g class="link" data-entity-1="QA" data-entity-2="CU04" data-source-line="56" data-uid="lnk45" id="link_QA_CU04"><path d="M63.61,1639.0669 C64.54,1437.1869 73.27,500.7669 155,404.2969 C172.28,383.9069 191.7433,373.867 217.7333,367.677" fill="none" id="QA-to-CU04" style="stroke:#181818;stroke-width:1;"/><polygon fill="#181818" points="223.57,366.2869,213.8881,364.4809,218.706,367.4453,215.7416,372.2632,223.57,366.2869" style="stroke:#181818;stroke-width:1;"/></g><!--link QA to CU05--><g class="link" data-entity-1="QA" data-entity-2="CU05" data-source-line="57" data-uid="lnk46" id="link_QA_CU05"><path d="M63.94,1639.0069 C66.45,1446.9369 81.71,594.1069 155,504.2969 C167.12,489.4469 177.8321,481.1832 195.5121,473.6332" fill="none" id="QA-to-CU05" style="stroke:#181818;stroke-width:1;"/><polygon fill="#181818" points="201.03,471.2769,191.1822,471.1328,196.4317,473.2405,194.324,478.49,201.03,471.2769" style="stroke:#181818;stroke-width:1;"/></g><!--link QA to CU06--><g class="link" data-entity-1="QA" data-entity-2="CU06" data-source-line="58" data-uid="lnk47" id="link_QA_CU06"><path d="M64.09,1639.2069 C67.25,1455.6369 84.87,667.6369 155,586.2969 C180.23,557.0369 216.0912,547.0405 252.4212,543.9805" fill="none" id="QA-to-CU06" style="stroke:#181818;stroke-width:1;"/><polygon fill="#181818" points="258.4,543.4769,249.096,540.2464,253.4176,543.8965,249.7675,548.2181,258.4,543.4769" style="stroke:#181818;stroke-width:1;"/></g><!--link QA to CU07--><g class="link" data-entity-1="QA" data-entity-2="CU07" data-source-line="59" data-uid="lnk48" id="link_QA_CU07"><path d="M64.38,1639.2769 C68.74,1464.6769 90.54,744.9469 155,670.2969 C179.68,641.7169 214.15,631.4057 249.84,627.8257" fill="none" id="QA-to-CU07" style="stroke:#181818;stroke-width:1;"/><polygon fill="#181818" points="255.81,627.2269,246.4557,624.1451,250.835,627.7259,247.2542,632.1052,255.81,627.2269" style="stroke:#181818;stroke-width:1;"/></g><!--link QA to CU08--><g class="link" data-entity-1="QA" data-entity-2="CU08" data-source-line="60" data-uid="lnk49" id="link_QA_CU08"><path d="M64.71,1639.1769 C70.31,1473.5869 95.98,822.0769 155,754.2969 C179.79,725.8169 214.2803,715.5195 249.9403,711.9195" fill="none" id="QA-to-CU08" style="stroke:#181818;stroke-width:1;"/><polygon fill="#181818" points="255.91,711.3169,246.5537,708.2411,250.9353,711.8191,247.3573,716.2006,255.91,711.3169" style="stroke:#181818;stroke-width:1;"/></g><!--link QA to CU09--><g class="link" data-entity-1="QA" data-entity-2="CU09" data-source-line="61" data-uid="lnk50" id="link_QA_CU09"><path d="M65.09,1639.2169 C71.97,1483.2069 101.17,898.1869 155,837.2969 C180.18,808.8169 215.1356,798.7505 250.9656,795.4305" fill="none" id="QA-to-CU09" style="stroke:#181818;stroke-width:1;"/><polygon fill="#181818" points="256.94,794.8769,247.6093,791.7243,251.9613,795.3382,248.3474,799.6902,256.94,794.8769" style="stroke:#181818;stroke-width:1;"/></g><!--link QA to CU10--><g class="link" data-entity-1="QA" data-entity-2="CU10" data-source-line="62" data-uid="lnk51" id="link_QA_CU10"><path d="M65.6,1638.8169 C73.92,1492.2569 106.57,974.4369 155,920.2969 C183.25,888.7269 224.8486,879.4877 263.1286,877.4377" fill="none" id="QA-to-CU10" style="stroke:#181818;stroke-width:1;"/><polygon fill="#181818" points="269.12,877.1169,259.919,873.6039,264.1272,877.3843,260.3468,881.5924,269.12,877.1169" style="stroke:#181818;stroke-width:1;"/></g><!--link QA to CU11--><g class="link" data-entity-1="QA" data-entity-2="CU11" data-source-line="63" data-uid="lnk52" id="link_QA_CU11"><path d="M63.26,1639.2269 C63.25,1511.2769 69.96,1099.4469 155,1005.2969 C183.75,973.4769 226.0698,964.0997 264.5098,961.8997" fill="none" id="QA-to-CU11" style="stroke:#181818;stroke-width:1;"/><polygon fill="#181818" points="270.5,961.5569,261.2861,958.0777,265.5082,961.8426,261.7433,966.0646,270.5,961.5569" style="stroke:#181818;stroke-width:1;"/></g><!--link QA to CU12--><g class="link" data-entity-1="QA" data-entity-2="CU12" data-source-line="64" data-uid="lnk53" id="link_QA_CU12"><path d="M64.06,1639.0469 C66.57,1521.5569 80.31,1168.9869 155,1088.2969 C184.83,1056.0669 228.8458,1047.2013 267.6158,1045.4913" fill="none" id="QA-to-CU12" style="stroke:#181818;stroke-width:1;"/><polygon fill="#181818" points="273.61,1045.2269,264.4425,1041.6273,268.6149,1045.4472,264.795,1049.6196,273.61,1045.2269" style="stroke:#181818;stroke-width:1;"/></g><!--link QA to CU13--><g class="link" data-entity-1="QA" data-entity-2="CU13" data-source-line="65" data-uid="lnk54" id="link_QA_CU13"><path d="M65.22,1639.1169 C70.74,1533.6769 91.56,1241.8169 155,1174.2969 C184.3,1143.1169 226.3345,1133.4439 264.5145,1130.7839" fill="none" id="QA-to-CU13" style="stroke:#181818;stroke-width:1;"/><polygon fill="#181818" points="270.5,1130.3669,261.2438,1127.0021,265.5121,1130.7144,261.7998,1134.9827,270.5,1130.3669" style="stroke:#181818;stroke-width:1;"/></g><!--link QA to CU14--><g class="link" data-entity-1="QA" data-entity-2="CU14" data-source-line="66" data-uid="lnk55" id="link_QA_CU14"><path d="M66.72,1639.1769 C75.32,1546.4169 101.89,1312.5869 155,1258.2969 C185.1,1227.5369 227.5727,1218.1578 265.7127,1215.6678" fill="none" id="QA-to-CU14" style="stroke:#181818;stroke-width:1;"/><polygon fill="#181818" points="271.7,1215.2769,262.4585,1211.8717,266.7106,1215.6026,262.9797,1219.8547,271.7,1215.2769" style="stroke:#181818;stroke-width:1;"/></g><!--link QA to CU15--><g class="link" data-entity-1="QA" data-entity-2="CU15" data-source-line="67" data-uid="lnk56" id="link_QA_CU15"><path d="M69,1639.0069 C81.09,1560.1869 112.33,1383.7069 155,1342.2969 C180.76,1317.2969 212.7429,1307.102 246.6229,1302.572" fill="none" id="QA-to-CU15" style="stroke:#181818;stroke-width:1;"/><polygon fill="#181818" points="252.57,1301.7769,243.1193,1299.0049,247.6141,1302.4395,244.1795,1306.9343,252.57,1301.7769" style="stroke:#181818;stroke-width:1;"/></g><!--link QA to CU16--><g class="link" data-entity-1="QA" data-entity-2="CU16" data-source-line="68" data-uid="lnk57" id="link_QA_CU16"><path d="M66.39,1639.2269 C72.68,1583.9769 92.56,1482.0669 155,1426.2969 C178.87,1404.9769 205.7932,1395.0606 236.5132,1389.5806" fill="none" id="QA-to-CU16" style="stroke:#181818;stroke-width:1;"/><polygon fill="#181818" points="242.42,1388.5269,232.8574,1386.1696,237.4977,1389.4049,234.2623,1394.0452,242.42,1388.5269" style="stroke:#181818;stroke-width:1;"/></g><!--link QA to CU17--><g class="link" data-entity-1="QA" data-entity-2="CU17" data-source-line="69" data-uid="lnk58" id="link_QA_CU17"><path d="M74.37,1639.0969 C87.28,1600.7169 112.6,1542.7469 155,1510.2969 C184.86,1487.4469 219.429,1477.656 253.839,1472.796" fill="none" id="QA-to-CU17" style="stroke:#181818;stroke-width:1;"/><polygon fill="#181818" points="259.78,1471.9569,250.309,1469.2548,254.8291,1472.6561,251.4278,1477.1762,259.78,1471.9569" style="stroke:#181818;stroke-width:1;"/></g><!--link QA to CU18--><g class="link" data-entity-1="QA" data-entity-2="CU18" data-source-line="70" data-uid="lnk59" id="link_QA_CU18"><path d="M96.67,1639.0569 C112.75,1622.7169 133.28,1604.8069 155,1593.2969 C183.52,1578.1869 211.7061,1569.7617 242.1061,1563.6917" fill="none" id="QA-to-CU18" style="stroke:#181818;stroke-width:1;"/><polygon fill="#181818" points="247.99,1562.5169,238.381,1560.3566,243.0868,1563.4959,239.9474,1568.2017,247.99,1562.5169" style="stroke:#181818;stroke-width:1;"/></g><!--link QA to CU19--><g class="link" data-entity-1="QA" data-entity-2="CU19" data-source-line="71" data-uid="lnk60" id="link_QA_CU19"><path d="M119.16,1668.4969 C159.3,1662.1469 207.9138,1654.4548 251.3238,1647.5848" fill="none" id="QA-to-CU19" style="stroke:#181818;stroke-width:1;"/><polygon fill="#181818" points="257.25,1646.6469,247.7354,1644.1029,252.3115,1647.4284,248.9859,1652.0045,257.25,1646.6469" style="stroke:#181818;stroke-width:1;"/></g><!--link QA to CU20--><g class="link" data-entity-1="QA" data-entity-2="CU20" data-source-line="72" data-uid="lnk61" id="link_QA_CU20"><path d="M119.16,1685.8869 C159.91,1692.1869 209.5602,1699.8516 253.2902,1706.6016" fill="none" id="QA-to-CU20" style="stroke:#181818;stroke-width:1;"/><polygon fill="#181818" points="259.22,1707.5169,250.9355,1702.1907,254.2785,1706.7541,249.7151,1710.0971,259.22,1707.5169" style="stroke:#181818;stroke-width:1;"/></g><!--link QA to CU21--><g class="link" data-entity-1="QA" data-entity-2="CU21" data-source-line="73" data-uid="lnk62" id="link_QA_CU21"><path d="M97.71,1715.3969 C113.69,1731.0969 133.85,1748.1869 155,1759.2969 C187.46,1776.3569 221.0691,1785.521 254.2191,1791.621" fill="none" id="QA-to-CU21" style="stroke:#181818;stroke-width:1;"/><polygon fill="#181818" points="260.12,1792.7069,251.9925,1787.1442,255.2026,1791.802,250.5447,1795.0121,260.12,1792.7069" style="stroke:#181818;stroke-width:1;"/></g><!--link QA to CU22--><g class="link" data-entity-1="QA" data-entity-2="CU22" data-source-line="74" data-uid="lnk63" id="link_QA_CU22"><path d="M74.61,1715.4069 C87.67,1753.3269 113.04,1810.3569 155,1842.2969 C179.73,1861.1169 205.8023,1870.4915 235.5623,1876.3315" fill="none" id="QA-to-CU22" style="stroke:#181818;stroke-width:1;"/><polygon fill="#181818" points="241.45,1877.4869,233.3887,1871.8287,236.5436,1876.5241,231.8482,1879.6789,241.45,1877.4869" style="stroke:#181818;stroke-width:1;"/></g><!--link QA to CU23--><g class="link" data-entity-1="QA" data-entity-2="CU23" data-source-line="75" data-uid="lnk64" id="link_QA_CU23"><path d="M66.59,1715.3769 C73.12,1770.0869 93.28,1870.3869 155,1925.2969 C177.87,1945.6469 203.0096,1955.4055 232.5296,1961.1255" fill="none" id="QA-to-CU23" style="stroke:#181818;stroke-width:1;"/><polygon fill="#181818" points="238.42,1962.2669,230.3453,1956.6279,233.5113,1961.3157,228.8234,1964.4818,238.42,1962.2669" style="stroke:#181818;stroke-width:1;"/></g><!--link QA to CU24--><g class="link" data-entity-1="QA" data-entity-2="CU24" data-source-line="76" data-uid="lnk65" id="link_QA_CU24"><path d="M69.12,1715.4269 C81.36,1793.4669 112.8,1967.4569 155,2008.2969 C178.67,2031.2069 206.6493,2041.3645 238.2493,2046.5545" fill="none" id="QA-to-CU24" style="stroke:#181818;stroke-width:1;"/><polygon fill="#181818" points="244.17,2047.5269,235.9373,2042.1211,239.2361,2046.7165,234.6407,2050.0154,244.17,2047.5269" style="stroke:#181818;stroke-width:1;"/></g><!--link QA to CU25--><g class="link" data-entity-1="QA" data-entity-2="CU25" data-source-line="77" data-uid="lnk66" id="link_QA_CU25"><path d="M66.89,1715.6069 C75.79,1807.6469 102.84,2037.5469 155,2091.2969 C177.57,2114.5569 204.6046,2125.1159 235.7746,2130.7159" fill="none" id="QA-to-CU25" style="stroke:#181818;stroke-width:1;"/><polygon fill="#181818" points="241.68,2131.7769,233.5291,2126.2484,236.7588,2130.8927,232.1145,2134.1224,241.68,2131.7769" style="stroke:#181818;stroke-width:1;"/></g><!--link QA to CU26--><g class="link" data-entity-1="QA" data-entity-2="CU26" data-source-line="78" data-uid="lnk67" id="link_QA_CU26"><path d="M65.22,1715.3469 C70.76,1820.4169 91.6,2111.2369 155,2178.2969 C186.17,2211.2669 232.3854,2220.0424 271.4954,2221.7024" fill="none" id="QA-to-CU26" style="stroke:#181818;stroke-width:1;"/><polygon fill="#181818" points="277.49,2221.9569,268.6677,2217.5788,272.4945,2221.7448,268.3285,2225.5716,277.49,2221.9569" style="stroke:#181818;stroke-width:1;"/></g><!--link QA to CU27--><g class="link" data-entity-1="QA" data-entity-2="CU27" data-source-line="79" data-uid="lnk68" id="link_QA_CU27"><path d="M64.17,1715.5869 C67.02,1832.3369 81.62,2180.8169 155,2261.2969 C186.49,2295.8369 234.8253,2304.754 274.4153,2306.424" fill="none" id="QA-to-CU27" style="stroke:#181818;stroke-width:1;"/><polygon fill="#181818" points="280.41,2306.6769,271.5866,2302.3011,275.4144,2306.4662,271.2494,2310.294,280.41,2306.6769" style="stroke:#181818;stroke-width:1;"/></g><!--link QA to CU28--><g class="link" data-entity-1="QA" data-entity-2="CU28" data-source-line="80" data-uid="lnk69" id="link_QA_CU28"><path d="M63.27,1715.3069 C63.29,1843.0669 70.07,2254.2969 155,2348.2969 C179.27,2375.1569 211.5329,2385.5508 245.9729,2389.6908" fill="none" id="QA-to-CU28" style="stroke:#181818;stroke-width:1;"/><polygon fill="#181818" points="251.93,2390.4069,243.4717,2385.3613,246.9657,2389.8101,242.5169,2393.3041,251.93,2390.4069" style="stroke:#181818;stroke-width:1;"/></g><!--link QA to CU29--><g class="link" data-entity-1="QA" data-entity-2="CU29" data-source-line="81" data-uid="lnk70" id="link_QA_CU29"><path d="M65.62,1715.6569 C74.04,1861.7669 106.98,2378.0469 155,2432.2969 C186.25,2467.5969 235.4524,2476.0084 275.3124,2477.1284" fill="none" id="QA-to-CU29" style="stroke:#181818;stroke-width:1;"/><polygon fill="#181818" points="281.31,2477.2969,272.4259,2473.0457,276.312,2477.1564,272.2012,2481.0425,281.31,2477.2969" style="stroke:#181818;stroke-width:1;"/></g><!--link QA to CU30--><g class="link" data-entity-1="QA" data-entity-2="CU30" data-source-line="82" data-uid="lnk71" id="link_QA_CU30"><path d="M65.14,1715.3669 C72.22,1871.3869 102.1,2456.4669 155,2518.2969 C169.04,2534.7069 182.499,2543.6604 202.929,2550.9504" fill="none" id="QA-to-CU30" style="stroke:#181818;stroke-width:1;"/><polygon fill="#181818" points="208.58,2552.9669,201.4478,2546.1749,203.8708,2551.2865,198.7592,2553.7096,208.58,2552.9669" style="stroke:#181818;stroke-width:1;"/></g><!--link QA to CU31--><g class="link" data-entity-1="QA" data-entity-2="CU31" data-source-line="83" data-uid="lnk72" id="link_QA_CU31"><path d="M64.67,1715.3069 C70.14,1881.9069 95.45,2542.4369 155,2611.2969 C172.2,2631.1869 191.1808,2641.1652 216.7008,2647.5752" fill="none" id="QA-to-CU31" style="stroke:#181818;stroke-width:1;"/><polygon fill="#181818" points="222.52,2649.0369,214.7656,2642.9649,217.6706,2647.8188,212.8167,2650.7239,222.52,2649.0369" style="stroke:#181818;stroke-width:1;"/></g><!--link QA to CU32--><g class="link" data-entity-1="QA" data-entity-2="CU32" data-source-line="84" data-uid="lnk73" id="link_QA_CU32"><path d="M64.34,1715.4669 C68.54,1891.6269 89.78,2620.6869 155,2696.2969 C175.3,2719.8269 200.3815,2730.3432 230.6115,2735.6832" fill="none" id="QA-to-CU32" style="stroke:#181818;stroke-width:1;"/><polygon fill="#181818" points="236.52,2736.7269,228.353,2731.2223,231.5962,2735.8571,226.9614,2739.1003,236.52,2736.7269" style="stroke:#181818;stroke-width:1;"/></g><!--link QA to CU33--><g class="link" data-entity-1="QA" data-entity-2="CU33" data-source-line="85" data-uid="lnk74" id="link_QA_CU33"><path d="M64.07,1715.4769 C67.17,1900.4169 84.55,2697.6169 155,2780.2969 C183.56,2813.8169 227.7069,2823.1291 266.8569,2825.0091" fill="none" id="QA-to-CU33" style="stroke:#181818;stroke-width:1;"/><polygon fill="#181818" points="272.85,2825.2969,264.0522,2820.8698,267.8558,2825.057,263.6685,2828.8606,272.85,2825.2969" style="stroke:#181818;stroke-width:1;"/></g><!--link QA to CU34--><g class="link" data-entity-1="QA" data-entity-2="CU34" data-source-line="86" data-uid="lnk75" id="link_QA_CU34"><path d="M63.82,1715.4969 C65.78,1909.0569 78.8,2775.8169 155,2865.2969 C183.21,2898.4169 226.6062,2907.6046 265.5762,2909.3746" fill="none" id="QA-to-CU34" style="stroke:#181818;stroke-width:1;"/><polygon fill="#181818" points="271.57,2909.6469,262.7608,2905.2426,266.5751,2909.42,262.3978,2913.2344,271.57,2909.6469" style="stroke:#181818;stroke-width:1;"/></g><!--link QA to CU35--><g class="link" data-entity-1="QA" data-entity-2="CU35" data-source-line="87" data-uid="lnk76" id="link_QA_CU35"><path d="M63.62,1715.4569 C64.63,1916.9869 73.66,2851.7569 155,2948.2969 C187.38,2986.7269 242.16,2993.7913 282.61,2993.7613" fill="none" id="QA-to-CU35" style="stroke:#181818;stroke-width:1;"/><polygon fill="#181818" points="288.61,2993.7569,279.61,2989.7569,283.61,2993.7569,279.61,2997.7569,288.61,2993.7569" style="stroke:#181818;stroke-width:1;"/></g><!--link QA to CU36--><g class="link" data-entity-1="QA" data-entity-2="CU36" data-source-line="88" data-uid="lnk77" id="link_QA_CU36"><path d="M63.44,1715.5669 C63.47,1925.3169 68.14,2929.7469 155,3033.2969 C184.5,3068.4669 231.7729,3077.1888 271.6229,3078.4388" fill="none" id="QA-to-CU36" style="stroke:#181818;stroke-width:1;"/><polygon fill="#181818" points="277.62,3078.6269,268.7498,3074.3467,272.6225,3078.4701,268.499,3082.3427,277.62,3078.6269" style="stroke:#181818;stroke-width:1;"/></g><!--link QA to CU38--><g class="link" data-entity-1="QA" data-entity-2="CU38" data-source-line="89" data-uid="lnk78" id="link_QA_CU38"><path d="M63.28,1715.4469 C62.37,1932.6669 62.59,3007.6769 155,3118.2969 C186.02,3155.4269 237.5604,3163.2471 277.9504,3163.7171" fill="none" id="QA-to-CU38" style="stroke:#181818;stroke-width:1;"/><polygon fill="#181818" points="283.95,3163.7869,274.9972,3159.6824,278.9503,3163.7287,274.9041,3167.6819,283.95,3163.7869" style="stroke:#181818;stroke-width:1;"/></g><!--link QA to CU39--><g class="link" data-entity-1="QA" data-entity-2="CU39" data-source-line="90" data-uid="lnk79" id="link_QA_CU39"><path d="M63.14,1715.4669 C61.34,1940.2669 57.05,3085.6269 155,3203.2969 C175.41,3227.8069 201.4562,3238.5736 232.4462,3243.8836" fill="none" id="QA-to-CU39" style="stroke:#181818;stroke-width:1;"/><polygon fill="#181818" points="238.36,3244.8969,230.1648,3239.4344,233.4318,3244.0525,228.8137,3247.3195,238.36,3244.8969" style="stroke:#181818;stroke-width:1;"/></g><!--SRC=[VPLDZzem48Rl-HKMToHY0mkNIXHLgwhjOKlRqrwCCu2xmQR-QBLRzR_NPjSmJXnEZCBxpkEPSIOjx1nncXYvFpZII0F2IQqg9rqBPCsjjgG1ugqcO_9HxK59C3e-UbXL5HTE6pBgF1yHRiz_nsHSxKEYqKPQ1qS-8dyh4hA1u1QYKGh9pQEoO0FrR5n_dzHOimPZ-X9QvNcSqOqNCkWQBVmHbECYoCdEg_ZBssHasBUoEl99vdbKd9oCVWw7ryarpKwabVMj2pu3Ep0G2FpSfKwQs3VLIpN3gJw7jl3kePDoNeGEYE-okeJpl9KlW-e5LdzevL6gGUsoAfrOeAlnfgmd0mUEseuq7x610HaTgggWPUMQ2iffeQ8morzUMkcqVLINMmCsUMP3D-3DXKp9Ck_LU5C-CC6Rdk8SRpfAqoHW1GIZZBNV7y0yoJHzEkaNSL7tn7MvISE6WVdUS1IdV4EVp_grWAqEAwK9cwk1w_qu6GzRdcp5jpJvBhU23hsYIPbq-MmL3ukMx02QBHTFSTzqzTbSlu8uy9TIscNUFZZ5RZ-Jaz-sKeGmh-sysBXnCXRUHR99rgZttgO45cS0HJx9Fv9yMt_P96SszH_GnvPCsUGtq88utzFBeh_qcB7-09M7txppIM3JylkVYxAvtdjkcgW94us3Q_G5Eiy7i0ytuFmL4ZwknwHQz8yMPFOKwW_DRickzJyruTxf8tTIf0N4bjM_gdfOaV7utUltxXfJ53CKJr4yG_4SnNSeNg1uUOt3Zhx6Y5iZResuDUBMY5iZResuDUBMY4iHbo8kHLoAk1HnAU9InAM8In6N8Yv3N8Qu374PuZB4POZB49SX5bl-1m00]--></g></svg>