<?xml version="1.0" encoding="us-ascii" standalone="no"?><svg xmlns="http://www.w3.org/2000/svg" xmlns:xlink="http://www.w3.org/1999/xlink" contentStyleType="text/css" height="2820px" preserveAspectRatio="none" style="width:518px;height:2820px;background:#FFFFFF;" version="1.1" viewBox="0 0 518 2820" width="518px" zoomAndPan="magnify"><defs/><g><text fill="#000000" font-family="sans-serif" font-size="14" font-weight="bold" lengthAdjust="spacing" textLength="222" x="141" y="24.5332">Casos de uso - Ingeniero de QA</text><!--cluster Sistema--><g id="cluster_Sistema"><rect fill="none" height="2769" rx="2.5" ry="2.5" style="stroke:#181818;stroke-width:1.0;" width="359" x="153" y="45.6094"/><text fill="#000000" font-family="sans-serif" font-size="14" font-weight="bold" lengthAdjust="spacing" textLength="55" x="305" y="62.1426">Sistema</text></g><g id="elem_CU01"><ellipse cx="332.4767" cy="109.5128" fill="#F1F1F1" rx="40.4767" ry="27.9034" style="stroke:#181818;stroke-width:0.5;"/><text fill="#000000" font-family="sans-serif" font-size="14" lengthAdjust="spacing" textLength="37" x="313.9767" y="104.4366">Iniciar</text><text fill="#000000" font-family="sans-serif" font-size="14" lengthAdjust="spacing" textLength="41" x="311.9767" y="122.046">sesion</text></g><g id="elem_CU02"><ellipse cx="332.4767" cy="200.5128" fill="#F1F1F1" rx="40.4767" ry="27.9034" style="stroke:#181818;stroke-width:0.5;"/><text fill="#000000" font-family="sans-serif" font-size="14" lengthAdjust="spacing" textLength="41" x="311.9767" y="195.4366">Cerrar</text><text fill="#000000" font-family="sans-serif" font-size="14" lengthAdjust="spacing" textLength="41" x="311.9767" y="213.046">sesion</text></g><g id="elem_CU03"><ellipse cx="332.501" cy="291.5128" fill="#F1F1F1" rx="122.501" ry="27.9034" style="stroke:#181818;stroke-width:0.5;"/><text fill="#000000" font-family="sans-serif" font-size="14" lengthAdjust="spacing" textLength="59" x="303.001" y="286.4366">Introducir</text><text fill="#000000" font-family="sans-serif" font-size="14" lengthAdjust="spacing" textLength="157" x="254.001" y="304.046">documentacion funcional</text></g><g id="elem_CU04"><ellipse cx="332.4197" cy="382.6213" fill="#F1F1F1" rx="115.9197" ry="28.0119" style="stroke:#181818;stroke-width:0.5;"/><text fill="#000000" font-family="sans-serif" font-size="14" lengthAdjust="spacing" textLength="147" x="255.9197" y="378.3332">Asociar documentacion</text><text fill="#000000" font-family="sans-serif" font-size="14" lengthAdjust="spacing" textLength="67" x="295.9197" y="395.9426">a proyecto</text></g><g id="elem_CU05"><ellipse cx="332.3379" cy="480.677" fill="#F1F1F1" rx="163.3379" ry="35.0676" style="stroke:#181818;stroke-width:0.5;"/><text fill="#000000" font-family="sans-serif" font-size="14" lengthAdjust="spacing" textLength="256" x="204.3379" y="475.6008">Consultar referencias de documentacion</text><text fill="#000000" font-family="sans-serif" font-size="14" lengthAdjust="spacing" textLength="95" x="284.8379" y="493.2102">de un proyecto</text></g><g id="elem_CU06"><ellipse cx="332.3823" cy="578.5128" fill="#F1F1F1" rx="70.8823" ry="27.9034" style="stroke:#181818;stroke-width:0.5;"/><text fill="#000000" font-family="sans-serif" font-size="14" lengthAdjust="spacing" textLength="45" x="309.8823" y="573.4366">Extraer</text><text fill="#000000" font-family="sans-serif" font-size="14" lengthAdjust="spacing" textLength="84" x="290.3823" y="591.046">casos de uso</text></g><g id="elem_CU07"><ellipse cx="332.3823" cy="669.5128" fill="#F1F1F1" rx="70.8823" ry="27.9034" style="stroke:#181818;stroke-width:0.5;"/><text fill="#000000" font-family="sans-serif" font-size="14" lengthAdjust="spacing" textLength="35" x="314.8823" y="664.4366">Listar</text><text fill="#000000" font-family="sans-serif" font-size="14" lengthAdjust="spacing" textLength="84" x="290.3823" y="682.046">casos de uso</text></g><g id="elem_CU08"><ellipse cx="332.4325" cy="760.5128" fill="#F1F1F1" rx="65.9325" ry="27.9034" style="stroke:#181818;stroke-width:0.5;"/><text fill="#000000" font-family="sans-serif" font-size="14" lengthAdjust="spacing" textLength="61" x="301.9325" y="755.4366">Consultar</text><text fill="#000000" font-family="sans-serif" font-size="14" lengthAdjust="spacing" textLength="77" x="293.9325" y="773.046">caso de uso</text></g><g id="elem_CU09"><ellipse cx="332.4325" cy="851.5128" fill="#F1F1F1" rx="65.9325" ry="27.9034" style="stroke:#181818;stroke-width:0.5;"/><text fill="#000000" font-family="sans-serif" font-size="14" lengthAdjust="spacing" textLength="36" x="314.4325" y="846.4366">Crear</text><text fill="#000000" font-family="sans-serif" font-size="14" lengthAdjust="spacing" textLength="77" x="293.9325" y="864.046">caso de uso</text></g><g id="elem_CU10"><ellipse cx="332.4325" cy="942.5128" fill="#F1F1F1" rx="65.9325" ry="27.9034" style="stroke:#181818;stroke-width:0.5;"/><text fill="#000000" font-family="sans-serif" font-size="14" lengthAdjust="spacing" textLength="61" x="301.9325" y="937.4366">Actualizar</text><text fill="#000000" font-family="sans-serif" font-size="14" lengthAdjust="spacing" textLength="77" x="293.9325" y="955.046">caso de uso</text></g><g id="elem_CU11"><ellipse cx="332.4325" cy="1033.5128" fill="#F1F1F1" rx="65.9325" ry="27.9034" style="stroke:#181818;stroke-width:0.5;"/><text fill="#000000" font-family="sans-serif" font-size="14" lengthAdjust="spacing" textLength="50" x="307.4325" y="1028.4366">Eliminar</text><text fill="#000000" font-family="sans-serif" font-size="14" lengthAdjust="spacing" textLength="77" x="293.9325" y="1046.046">caso de uso</text></g><g id="elem_CU12"><ellipse cx="332.267" cy="1124.5128" fill="#F1F1F1" rx="89.267" ry="27.9034" style="stroke:#181818;stroke-width:0.5;"/><text fill="#000000" font-family="sans-serif" font-size="14" lengthAdjust="spacing" textLength="110" x="277.267" y="1119.4366">Extraer requisitos</text><text fill="#000000" font-family="sans-serif" font-size="14" lengthAdjust="spacing" textLength="72" x="296.267" y="1137.046">funcionales</text></g><g id="elem_CU13"><ellipse cx="332.696" cy="1215.5128" fill="#F1F1F1" rx="82.196" ry="27.9034" style="stroke:#181818;stroke-width:0.5;"/><text fill="#000000" font-family="sans-serif" font-size="14" lengthAdjust="spacing" textLength="100" x="282.696" y="1210.4366">Listar requisitos</text><text fill="#000000" font-family="sans-serif" font-size="14" lengthAdjust="spacing" textLength="72" x="296.696" y="1228.046">funcionales</text></g><g id="elem_CU14"><ellipse cx="332.6836" cy="1306.5269" fill="#F1F1F1" rx="95.6836" ry="27.9176" style="stroke:#181818;stroke-width:0.5;"/><text fill="#000000" font-family="sans-serif" font-size="14" lengthAdjust="spacing" textLength="119" x="270.9754" y="1302.0444">Consultar requisito</text><text fill="#000000" font-family="sans-serif" font-size="14" lengthAdjust="spacing" textLength="57" x="301.9754" y="1319.6538">funcional</text></g><g id="elem_CU15"><ellipse cx="332.4533" cy="1397.5128" fill="#F1F1F1" rx="77.9533" ry="27.9034" style="stroke:#181818;stroke-width:0.5;"/><text fill="#000000" font-family="sans-serif" font-size="14" lengthAdjust="spacing" textLength="94" x="285.4533" y="1392.4366">Crear requisito</text><text fill="#000000" font-family="sans-serif" font-size="14" lengthAdjust="spacing" textLength="57" x="303.9533" y="1410.046">funcional</text></g><g id="elem_CU16"><ellipse cx="332.6836" cy="1488.5269" fill="#F1F1F1" rx="95.6836" ry="27.9176" style="stroke:#181818;stroke-width:0.5;"/><text fill="#000000" font-family="sans-serif" font-size="14" lengthAdjust="spacing" textLength="119" x="270.9754" y="1484.0444">Actualizar requisito</text><text fill="#000000" font-family="sans-serif" font-size="14" lengthAdjust="spacing" textLength="57" x="301.9754" y="1501.6538">funcional</text></g><g id="elem_CU17"><ellipse cx="332.3528" cy="1579.5128" fill="#F1F1F1" rx="87.8528" ry="27.9034" style="stroke:#181818;stroke-width:0.5;"/><text fill="#000000" font-family="sans-serif" font-size="14" lengthAdjust="spacing" textLength="108" x="278.3528" y="1574.4366">Eliminar requisito</text><text fill="#000000" font-family="sans-serif" font-size="14" lengthAdjust="spacing" textLength="57" x="303.8528" y="1592.046">funcional</text></g><g id="elem_CU18"><ellipse cx="332.7378" cy="1670.5529" fill="#F1F1F1" rx="100.7378" ry="27.9435" style="stroke:#181818;stroke-width:0.5;"/><text fill="#000000" font-family="sans-serif" font-size="14" lengthAdjust="spacing" textLength="126" x="266.7378" y="1666.2648">Generar escenarios</text><text fill="#000000" font-family="sans-serif" font-size="14" lengthAdjust="spacing" textLength="50" x="304.7378" y="1683.8742">Gherkin</text></g><g id="elem_CU19"><ellipse cx="332.3528" cy="1761.5128" fill="#F1F1F1" rx="87.8528" ry="27.9034" style="stroke:#181818;stroke-width:0.5;"/><text fill="#000000" font-family="sans-serif" font-size="14" lengthAdjust="spacing" textLength="108" x="278.3528" y="1756.4366">Listar escenarios</text><text fill="#000000" font-family="sans-serif" font-size="14" lengthAdjust="spacing" textLength="50" x="307.3528" y="1774.046">Gherkin</text></g><g id="elem_CU20"><ellipse cx="332.3187" cy="1852.5173" fill="#F1F1F1" rx="92.8187" ry="27.9079" style="stroke:#181818;stroke-width:0.5;"/><text fill="#000000" font-family="sans-serif" font-size="14" lengthAdjust="spacing" textLength="115" x="273.6145" y="1847.775">Crear borrador de</text><text fill="#000000" font-family="sans-serif" font-size="14" lengthAdjust="spacing" textLength="99" x="281.6145" y="1865.3844">caso de prueba</text></g><g id="elem_CU21"><ellipse cx="332.4828" cy="1943.5128" fill="#F1F1F1" rx="60.9828" ry="27.9034" style="stroke:#181818;stroke-width:0.5;"/><text fill="#000000" font-family="sans-serif" font-size="14" lengthAdjust="spacing" textLength="35" x="314.9828" y="1938.4366">Listar</text><text fill="#000000" font-family="sans-serif" font-size="14" lengthAdjust="spacing" textLength="70" x="297.4828" y="1956.046">borradores</text></g><g id="elem_CU22"><ellipse cx="332.6188" cy="2034.5128" fill="#F1F1F1" rx="54.6188" ry="27.9034" style="stroke:#181818;stroke-width:0.5;"/><text fill="#000000" font-family="sans-serif" font-size="14" lengthAdjust="spacing" textLength="61" x="302.1188" y="2029.4366">Consultar</text><text fill="#000000" font-family="sans-serif" font-size="14" lengthAdjust="spacing" textLength="55" x="305.1188" y="2047.046">borrador</text></g><g id="elem_CU23"><ellipse cx="332.3173" cy="2125.5128" fill="#F1F1F1" rx="84.3173" ry="27.9034" style="stroke:#181818;stroke-width:0.5;"/><text fill="#000000" font-family="sans-serif" font-size="14" lengthAdjust="spacing" textLength="103" x="280.8173" y="2120.4366">Anadir feedback</text><text fill="#000000" font-family="sans-serif" font-size="14" lengthAdjust="spacing" textLength="67" x="298.8173" y="2138.046">a borrador</text></g><g id="elem_CU24"><ellipse cx="332.4117" cy="2216.5128" fill="#F1F1F1" rx="53.9117" ry="27.9034" style="stroke:#181818;stroke-width:0.5;"/><text fill="#000000" font-family="sans-serif" font-size="14" lengthAdjust="spacing" textLength="60" x="302.4117" y="2211.4366">Rechazar</text><text fill="#000000" font-family="sans-serif" font-size="14" lengthAdjust="spacing" textLength="55" x="304.9117" y="2229.046">borrador</text></g><g id="elem_CU25"><ellipse cx="332.5473" cy="2311.5188" fill="#F1F1F1" rx="147.5473" ry="31.9095" style="stroke:#181818;stroke-width:0.5;"/><text fill="#000000" font-family="sans-serif" font-size="14" lengthAdjust="spacing" textLength="217" x="221.0473" y="2307.2307">Aceptar y publicar caso de prueba</text><text fill="#000000" font-family="sans-serif" font-size="14" lengthAdjust="spacing" textLength="124" x="267.5473" y="2324.8401">a partir de borrador</text></g><g id="elem_CU26"><ellipse cx="332.4806" cy="2406.6403" fill="#F1F1F1" rx="120.9806" ry="28.0309" style="stroke:#181818;stroke-width:0.5;"/><text fill="#000000" font-family="sans-serif" font-size="14" lengthAdjust="spacing" textLength="154" x="252.4806" y="2402.3522">Buscar casos de prueba</text><text fill="#000000" font-family="sans-serif" font-size="14" lengthAdjust="spacing" textLength="87" x="285.9806" y="2419.9616">en Kiwi TCMS</text></g><g id="elem_CU27"><ellipse cx="332.5149" cy="2497.5491" fill="#F1F1F1" rx="100.0149" ry="27.9397" style="stroke:#181818;stroke-width:0.5;"/><text fill="#000000" font-family="sans-serif" font-size="14" lengthAdjust="spacing" textLength="125" x="267.0149" y="2493.261">Ver caso de prueba</text><text fill="#000000" font-family="sans-serif" font-size="14" lengthAdjust="spacing" textLength="87" x="286.0149" y="2510.8704">en Kiwi TCMS</text></g><g id="elem_CU28"><ellipse cx="332.3112" cy="2588.5128" fill="#F1F1F1" rx="63.8112" ry="27.9034" style="stroke:#181818;stroke-width:0.5;"/><text fill="#000000" font-family="sans-serif" font-size="14" lengthAdjust="spacing" textLength="74" x="295.3112" y="2583.4366">Seleccionar</text><text fill="#000000" font-family="sans-serif" font-size="14" lengthAdjust="spacing" textLength="56" x="304.3112" y="2601.046">sesiones</text></g><g id="elem_CU29"><ellipse cx="332.3467" cy="2679.5128" fill="#F1F1F1" rx="67.3467" ry="27.9034" style="stroke:#181818;stroke-width:0.5;"/><text fill="#000000" font-family="sans-serif" font-size="14" lengthAdjust="spacing" textLength="79" x="292.8467" y="2674.4366">Crear nueva</text><text fill="#000000" font-family="sans-serif" font-size="14" lengthAdjust="spacing" textLength="41" x="311.8467" y="2692.046">sesion</text></g><g id="elem_CU30"><ellipse cx="332.6543" cy="2770.5128" fill="#F1F1F1" rx="58.1543" ry="27.9034" style="stroke:#181818;stroke-width:0.5;"/><text fill="#000000" font-family="sans-serif" font-size="14" lengthAdjust="spacing" textLength="53" x="306.1543" y="2765.4366">Guardar</text><text fill="#000000" font-family="sans-serif" font-size="14" lengthAdjust="spacing" textLength="66" x="299.6543" y="2783.046">resultados</text></g><!--entity QA--><g id="elem_QA"><ellipse cx="57.5" cy="1413.1094" fill="#F1F1F1" rx="8" ry="8" style="stroke:#181818;stroke-width:0.5;"/><path d="M57.5,1421.1094 L57.5,1448.1094 M44.5,1429.1094 L70.5,1429.1094 M57.5,1448.1094 L44.5,1463.1094 M57.5,1448.1094 L70.5,1463.1094 " fill="none" style="stroke:#181818;stroke-width:0.5;"/><text fill="#000000" font-family="sans-serif" font-size="14" lengthAdjust="spacing" textLength="103" x="6" y="1479.1426">Ingeniero de QA</text></g><!--link QA to CU01--><g id="link_QA_CU01"><path d="M58.42,1404.5694 C58.36,1199.4794 62.54,252.3994 145,154.6094 C180.75,112.2094 242.891,105.8198 286.161,106.6098 " fill="none" id="QA-to-CU01" style="stroke:#181818;stroke-width:1.0;"/><polygon fill="#181818" points="292.16,106.7194,283.2345,102.5558,287.1608,106.6281,283.0885,110.5544,292.16,106.7194" style="stroke:#181818;stroke-width:1.0;"/></g><!--link QA to CU02--><g id="link_QA_CU02"><path d="M58.63,1404.4494 C59.65,1208.0194 68.49,335.8894 145,245.6094 C180.86,203.2994 242.9609,196.8839 286.2009,197.6439 " fill="none" id="QA-to-CU02" style="stroke:#181818;stroke-width:1.0;"/><polygon fill="#181818" points="292.2,197.7494,283.2717,193.5918,287.2008,197.6615,283.1311,201.5906,292.2,197.7494" style="stroke:#181818;stroke-width:1.0;"/></g><!--link QA to CU03--><g id="link_QA_CU03"><path d="M58.88,1404.3594 C61.05,1217.0194 74.41,419.3994 145,336.6094 C162.18,316.4594 180.8889,306.0587 206.4989,299.1187 " fill="none" id="QA-to-CU03" style="stroke:#181818;stroke-width:1.0;"/><polygon fill="#181818" points="212.29,297.5494,202.5571,296.0426,207.4641,298.8571,204.6495,303.7641,212.29,297.5494" style="stroke:#181818;stroke-width:1.0;"/></g><!--link QA to CU04--><g id="link_QA_CU04"><path d="M59.17,1404.3694 C62.57,1226.7094 80.31,502.9494 145,427.6094 C163.44,406.1294 184.3693,395.3647 211.8893,388.6847 " fill="none" id="QA-to-CU04" style="stroke:#181818;stroke-width:1.0;"/><polygon fill="#181818" points="217.72,387.2694,208.0304,385.5052,212.8611,388.4488,209.9175,393.2794,217.72,387.2694" style="stroke:#181818;stroke-width:1.0;"/></g><!--link QA to CU05--><g id="link_QA_CU05"><path d="M59.64,1404.3694 C64.81,1238.5194 88.29,600.3794 145,532.6094 C157.62,517.5294 168.7059,509.0178 186.7959,501.1678 " fill="none" id="QA-to-CU05" style="stroke:#181818;stroke-width:1.0;"/><polygon fill="#181818" points="192.3,498.7794,182.4515,498.6927,187.7132,500.7698,185.6361,506.0315,192.3,498.7794" style="stroke:#181818;stroke-width:1.0;"/></g><!--link QA to CU06--><g id="link_QA_CU06"><path d="M60.02,1404.3694 C66.37,1249.0594 92.96,682.9894 145,623.6094 C173.54,591.0394 215.1971,580.4027 255.1871,577.3727 " fill="none" id="QA-to-CU06" style="stroke:#181818;stroke-width:1.0;"/><polygon fill="#181818" points="261.17,576.9194,251.8935,573.6108,256.1843,577.2971,252.4979,581.5879,261.17,576.9194" style="stroke:#181818;stroke-width:1.0;"/></g><!--link QA to CU07--><g id="link_QA_CU07"><path d="M60.58,1404.1194 C68.51,1259.7994 98.83,766.6094 145,714.6094 C173.75,682.2294 215.4078,671.5907 255.3478,668.5107 " fill="none" id="QA-to-CU07" style="stroke:#181818;stroke-width:1.0;"/><polygon fill="#181818" points="261.33,668.0494,252.0491,664.7532,256.3448,668.4338,252.6642,672.7295,261.33,668.0494" style="stroke:#181818;stroke-width:1.0;"/></g><!--link QA to CU08--><g id="link_QA_CU08"><path d="M58.25,1404.4594 C58.27,1279.6694 64.94,894.2794 145,805.6094 C175.24,772.1094 219.7321,761.8508 260.5521,759.2508 " fill="none" id="QA-to-CU08" style="stroke:#181818;stroke-width:1.0;"/><polygon fill="#181818" points="266.54,758.8694,257.3039,755.4496,261.5501,759.1872,257.8125,763.4334,266.54,758.8694" style="stroke:#181818;stroke-width:1.0;"/></g><!--link QA to CU09--><g id="link_QA_CU09"><path d="M59.23,1404.5594 C62.15,1292.1094 76.44,970.8794 145,896.6094 C175.5,863.5694 219.7136,853.2631 260.3436,850.5231 " fill="none" id="QA-to-CU09" style="stroke:#181818;stroke-width:1.0;"/><polygon fill="#181818" points="266.33,850.1194,257.0813,846.734,261.3413,850.4558,257.6195,854.7159,266.33,850.1194" style="stroke:#181818;stroke-width:1.0;"/></g><!--link QA to CU10--><g id="link_QA_CU10"><path d="M60.61,1404.3794 C66.74,1305.1094 87.92,1047.5794 145,987.6094 C175.89,955.1594 219.8156,944.8217 260.2356,941.9017 " fill="none" id="QA-to-CU10" style="stroke:#181818;stroke-width:1.0;"/><polygon fill="#181818" points="266.22,941.4694,256.9552,938.1283,261.233,941.8296,257.5316,946.1075,266.22,941.4694" style="stroke:#181818;stroke-width:1.0;"/></g><!--link QA to CU11--><g id="link_QA_CU11"><path d="M62.62,1404.5294 C72.3,1320.0994 99.22,1124.5794 145,1078.6094 C176.5,1046.9894 220.1385,1036.6103 260.2785,1033.4503 " fill="none" id="QA-to-CU11" style="stroke:#181818;stroke-width:1.0;"/><polygon fill="#181818" points="266.26,1032.9794,256.9738,1029.698,261.2754,1033.3718,257.6017,1037.6734,266.26,1032.9794" style="stroke:#181818;stroke-width:1.0;"/></g><!--link QA to CU12--><g id="link_QA_CU12"><path d="M59.34,1404.1794 C62.82,1344.5294 78.44,1231.7194 145,1169.6094 C171.42,1144.9494 203.0236,1134.0464 237.4936,1128.5964 " fill="none" id="QA-to-CU12" style="stroke:#181818;stroke-width:1.0;"/><polygon fill="#181818" points="243.42,1127.6594,233.9058,1125.114,238.4813,1128.4402,235.1551,1133.0158,243.42,1127.6594" style="stroke:#181818;stroke-width:1.0;"/></g><!--link QA to CU13--><g id="link_QA_CU13"><path d="M66.47,1404.5494 C77.09,1362.6494 100.02,1297.1994 145,1260.6094 C174.71,1236.4394 209.4265,1225.7901 245.1965,1220.4201 " fill="none" id="QA-to-CU13" style="stroke:#181818;stroke-width:1.0;"/><polygon fill="#181818" points="251.13,1219.5294,241.6359,1216.9099,246.1854,1220.2717,242.8236,1224.8212,251.13,1219.5294" style="stroke:#181818;stroke-width:1.0;"/></g><!--link QA to CU14--><g id="link_QA_CU14"><path d="M86.54,1404.4994 C101.83,1385.8694 122.25,1364.8294 145,1351.6094 C174.81,1334.2894 205.1087,1324.8068 237.6487,1318.2368 " fill="none" id="QA-to-CU14" style="stroke:#181818;stroke-width:1.0;"/><polygon fill="#181818" points="243.53,1317.0494,233.9164,1314.9097,238.6289,1318.0389,235.4997,1322.7515,243.53,1317.0494" style="stroke:#181818;stroke-width:1.0;"/></g><!--link QA to CU15--><g id="link_QA_CU15"><path d="M109.21,1435.0694 C152.08,1427.8394 208.0135,1418.4167 255.5935,1410.3967 " fill="none" id="QA-to-CU15" style="stroke:#181818;stroke-width:1.0;"/><polygon fill="#181818" points="261.51,1409.3994,251.9703,1406.9509,256.5796,1410.2304,253.3,1414.8397,261.51,1409.3994" style="stroke:#181818;stroke-width:1.0;"/></g><!--link QA to CU16--><g id="link_QA_CU16"><path d="M109.21,1451.9694 C148.38,1458.4194 197.4699,1466.5135 242.9699,1474.0135 " fill="none" id="QA-to-CU16" style="stroke:#181818;stroke-width:1.0;"/><polygon fill="#181818" points="248.89,1474.9894,240.6604,1469.5789,243.9566,1474.1762,239.3593,1477.4724,248.89,1474.9894" style="stroke:#181818;stroke-width:1.0;"/></g><!--link QA to CU17--><g id="link_QA_CU17"><path d="M87.5,1482.7294 C102.74,1500.6994 122.85,1520.8294 145,1533.6094 C176.77,1551.9494 209.782,1561.8656 243.822,1568.5356 " fill="none" id="QA-to-CU17" style="stroke:#181818;stroke-width:1.0;"/><polygon fill="#181818" points="249.71,1569.6894,241.6471,1564.0334,244.8033,1568.7279,240.1088,1571.8841,249.71,1569.6894" style="stroke:#181818;stroke-width:1.0;"/></g><!--link QA to CU18--><g id="link_QA_CU18"><path d="M66.82,1482.9594 C77.67,1524.4094 100.71,1588.5394 145,1624.6094 C170.34,1645.2494 197.7318,1655.6164 229.1518,1662.0464 " fill="none" id="QA-to-CU18" style="stroke:#181818;stroke-width:1.0;"/><polygon fill="#181818" points="235.03,1663.2494,227.0147,1657.5262,230.1315,1662.2469,225.4108,1665.3637,235.03,1663.2494" style="stroke:#181818;stroke-width:1.0;"/></g><!--link QA to CU19--><g id="link_QA_CU19"><path d="M59.47,1482.7194 C63.13,1541.8894 78.98,1653.8094 145,1715.6094 C171.78,1740.6794 204.0546,1751.756 238.9146,1757.306 " fill="none" id="QA-to-CU19" style="stroke:#181818;stroke-width:1.0;"/><polygon fill="#181818" points="244.84,1758.2494,236.5809,1752.8841,239.9022,1757.4632,235.323,1760.7846,244.84,1758.2494" style="stroke:#181818;stroke-width:1.0;"/></g><!--link QA to CU20--><g id="link_QA_CU20"><path d="M62.7,1482.7794 C72.51,1566.8794 99.6,1760.8494 145,1806.6094 C169.78,1831.5894 199.8938,1842.7899 233.6938,1848.4999 " fill="none" id="QA-to-CU20" style="stroke:#181818;stroke-width:1.0;"/><polygon fill="#181818" points="239.61,1849.4994,231.402,1844.0561,234.6799,1848.6665,230.0694,1851.9443,239.61,1849.4994" style="stroke:#181818;stroke-width:1.0;"/></g><!--link QA to CU21--><g id="link_QA_CU21"><path d="M60.65,1482.6594 C66.89,1581.4494 88.29,1837.7694 145,1897.6094 C177.12,1931.4994 223.8922,1941.6974 265.1222,1944.3274 " fill="none" id="QA-to-CU21" style="stroke:#181818;stroke-width:1.0;"/><polygon fill="#181818" points="271.11,1944.7094,262.3829,1940.1446,266.1201,1944.3911,261.8736,1948.1283,271.11,1944.7094" style="stroke:#181818;stroke-width:1.0;"/></g><!--link QA to CU22--><g id="link_QA_CU22"><path d="M59.28,1482.8994 C62.33,1595.2494 76.94,1914.5394 145,1988.6094 C178.4,2024.9494 229.5149,2034.4067 271.7649,2036.1167 " fill="none" id="QA-to-CU22" style="stroke:#181818;stroke-width:1.0;"/><polygon fill="#181818" points="277.76,2036.3594,268.9291,2031.9987,272.7641,2036.1572,268.6056,2039.9921,277.76,2036.3594" style="stroke:#181818;stroke-width:1.0;"/></g><!--link QA to CU23--><g id="link_QA_CU23"><path d="M58.29,1482.6194 C58.42,1606.9794 65.4,1991.0294 145,2079.6094 C170.75,2108.2594 205.2691,2119.6536 241.9491,2124.3736 " fill="none" id="QA-to-CU23" style="stroke:#181818;stroke-width:1.0;"/><polygon fill="#181818" points="247.9,2125.1394,239.4841,2120.0234,242.9409,2124.5012,238.4631,2127.958,247.9,2125.1394" style="stroke:#181818;stroke-width:1.0;"/></g><!--link QA to CU24--><g id="link_QA_CU24"><path d="M60.59,1482.9794 C68.59,1626.8794 99.08,2118.6394 145,2170.6094 C177.9,2207.8494 229.6833,2217.1207 272.2433,2218.5307 " fill="none" id="QA-to-CU24" style="stroke:#181818;stroke-width:1.0;"/><polygon fill="#181818" points="278.24,2218.7294,269.3774,2214.4336,273.2427,2218.5638,269.1125,2222.4292,278.24,2218.7294" style="stroke:#181818;stroke-width:1.0;"/></g><!--link QA to CU25--><g id="link_QA_CU25"><path d="M60.07,1482.7194 C66.61,1637.5094 93.83,2201.7294 145,2261.6094 C159.37,2278.4294 173.1078,2287.8039 193.9278,2295.5639 " fill="none" id="QA-to-CU25" style="stroke:#181818;stroke-width:1.0;"/><polygon fill="#181818" points="199.55,2297.6594,192.5137,2290.768,194.8648,2295.9131,189.7197,2298.2643,199.55,2297.6594" style="stroke:#181818;stroke-width:1.0;"/></g><!--link QA to CU26--><g id="link_QA_CU26"><path d="M59.56,1482.8694 C64.43,1649.5494 86.89,2293.1994 145,2360.6094 C162.75,2381.1894 182.3006,2391.8008 208.6106,2398.7808 " fill="none" id="QA-to-CU26" style="stroke:#181818;stroke-width:1.0;"/><polygon fill="#181818" points="214.41,2400.3194,206.7366,2394.1453,209.5772,2399.0372,204.6852,2401.8778,214.41,2400.3194" style="stroke:#181818;stroke-width:1.0;"/></g><!--link QA to CU27--><g id="link_QA_CU27"><path d="M59.21,1482.8194 C62.75,1659.5694 81.02,2376.7594 145,2451.6094 C166.78,2477.0894 194.2948,2488.5869 226.8648,2494.4469 " fill="none" id="QA-to-CU27" style="stroke:#181818;stroke-width:1.0;"/><polygon fill="#181818" points="232.77,2495.5094,224.6205,2489.9789,227.849,2494.624,223.2039,2497.8525,232.77,2495.5094" style="stroke:#181818;stroke-width:1.0;"/></g><!--link QA to CU28--><g id="link_QA_CU28"><path d="M58.91,1482.8794 C61.23,1669.3994 75.14,2460.2994 145,2542.6094 C174.89,2577.8194 221.0291,2588.0693 262.5991,2590.3593 " fill="none" id="QA-to-CU28" style="stroke:#181818;stroke-width:1.0;"/><polygon fill="#181818" points="268.59,2590.6894,259.8236,2586.2004,263.5976,2590.4144,259.3836,2594.1883,268.59,2590.6894" style="stroke:#181818;stroke-width:1.0;"/></g><!--link QA to CU29--><g id="link_QA_CU29"><path d="M58.66,1482.8294 C59.82,1678.5494 69.24,2543.8094 145,2633.6094 C173.92,2667.8894 217.9428,2678.4576 258.9028,2681.1376 " fill="none" id="QA-to-CU29" style="stroke:#181818;stroke-width:1.0;"/><polygon fill="#181818" points="264.89,2681.5294,256.1704,2676.9503,259.9007,2681.2029,255.648,2684.9332,264.89,2681.5294" style="stroke:#181818;stroke-width:1.0;"/></g><!--link QA to CU30--><g id="link_QA_CU30"><path d="M58.45,1482.7394 C58.52,1687.2094 63.32,2627.2894 145,2724.6094 C176.19,2761.7794 226.1738,2771.3464 268.6938,2772.8564 " fill="none" id="QA-to-CU30" style="stroke:#181818;stroke-width:1.0;"/><polygon fill="#181818" points="274.69,2773.0694,265.8376,2768.7525,269.6931,2772.8919,265.5537,2776.7474,274.69,2773.0694" style="stroke:#181818;stroke-width:1.0;"/></g><!--SRC=[XLJBZXen4BpFLxIu8s7pMYwHM1IXACbXiqbEN8od0Mi7c_YHP3VAlyTcrz1c1dAYD5HrkQlTRd3ZmHkmQhlpK2kBqYkZAwzyWx0GpZYe4O8pq8SFUejQeJNfqyEygeJqnaBludiFX3l-dOe9lOs5Ue_AUToB7lof85P3AHmceP9As9LswABhKRZuDc2Kiq1hsnHUbNMyDNMGAl9g8yCUjHSoqc4JTFeLJHOEgMxkJFA7GhFI0WxMFCV3cwmQ5ISoseN6Hvt53LgC3kAOqaMPb9jkbHeN9t__srk1yTYIH9sf4yhy51CKLuZJpkEzSY-eTmNLuXNQh8X9-Y0QzTBDPOEYeKRjbRx2P5sznnH_1EMKDswbJ_D2bqMydSB_9CDhutfJ4L6MZ5gvtAIFk_EvgPbqvNHJCItoMgB6k0g0Jc9KgjJySeVsIUMrO7STMTsWpwfsrsiJzwsEQrtZUOO76t0jtcHyq7Kli-uq1SwktChCpBnYm7CjuYi46yHwBUHJMiPBVZ7TBoXtugMhxAWS4HvI6Czm2Ej6oGZBtevRBwnNgV6MPRcqzy7b0evMG0qVrIy5NnUV7xEo6FftRDjsYOfzViG6vV5Ud5x1SyRjTGOTyAUuU2zviS_B86oTgiLXfPdK9jSR3gg_LVKmXtx_tUjBVCQSu2718uB714y8dX9yH_3iZECpSiR4bn5VHdmPyMN4bn5VHdmPyMN4bnDVJdmvyUN4bnDVJdmvyUN4bnDVJdnZrFy0]--></g></svg>