<svg xmlns="http://www.w3.org/2000/svg" xmlns:xlink="http://www.w3.org/1999/xlink" contentStyleType="text/css" data-diagram-type="CLASS" height="485px" preserveAspectRatio="none" style="width:537px;height:485px;background:#FFFFFF;" version="1.1" viewBox="0 0 537 485" width="537px" zoomAndPan="magnify"><title>CU03 - Esquema MongoDB para Extraer Requisitos Funcionales</title><defs/><g><g class="title" data-source-line="1"><text fill="#000000" font-family="sans-serif" font-size="14" font-weight="bold" lengthAdjust="spacing" textLength="498.8662" x="12.3447" y="22.9951">CU03 - Esquema MongoDB para Extraer Requisitos Funcionales</text></g><!--class Session--><g class="entity" data-entity="Session" data-source-line="6" data-uid="ent0002" id="entity_Session"><rect fill="#F1F1F1" height="96.8906" rx="2.5" ry="2.5" style="stroke:#181818;stroke-width:0.5;" width="162.2129" x="7" y="373.2969"/><ellipse cx="57.1484" cy="389.2969" fill="#ADD1B2" rx="11" ry="11" style="stroke:#181818;stroke-width:1;"/><path d="M61.2578,395.2969 L53.5391,395.2969 L53.5391,382.9063 L61.2578,382.9063 L61.2578,385.0625 L55.9922,385.0625 L55.9922,387.7344 L60.7578,387.7344 L60.7578,389.8906 L55.9922,389.8906 L55.9922,393.1406 L61.2578,393.1406 L61.2578,395.2969 Z " fill="#000000"/><text fill="#000000" font-family="sans-serif" font-size="14" lengthAdjust="spacing" textLength="53.416" x="77.6484" y="394.1436">Session</text><line style="stroke:#181818;stroke-width:0.5;" x1="8" x2="168.2129" y1="405.2969" y2="405.2969"/><text fill="#000000" font-family="sans-serif" font-size="14" lengthAdjust="spacing" textLength="87.5547" x="13" y="422.292">_id: ObjectId</text><text fill="#000000" font-family="sans-serif" font-size="14" lengthAdjust="spacing" textLength="139.5557" x="13" y="438.5889">projectName: string</text><text fill="#000000" font-family="sans-serif" font-size="14" lengthAdjust="spacing" textLength="150.2129" x="13" y="454.8857">workflowMode: string</text><line style="stroke:#181818;stroke-width:0.5;" x1="8" x2="168.2129" y1="462.1875" y2="462.1875"/></g><!--class Documentation--><g class="entity" data-entity="Documentation" data-source-line="12" data-uid="ent0003" id="entity_Documentation"><rect fill="#F1F1F1" height="96.8906" rx="2.5" ry="2.5" style="stroke:#181818;stroke-width:0.5;" width="139.9258" x="204" y="373.2969"/><ellipse cx="219" cy="389.2969" fill="#ADD1B2" rx="11" ry="11" style="stroke:#181818;stroke-width:1;"/><path d="M223.1094,395.2969 L215.3906,395.2969 L215.3906,382.9063 L223.1094,382.9063 L223.1094,385.0625 L217.8438,385.0625 L217.8438,387.7344 L222.6094,387.7344 L222.6094,389.8906 L217.8438,389.8906 L217.8438,393.1406 L223.1094,393.1406 L223.1094,395.2969 Z " fill="#000000"/><text fill="#000000" font-family="sans-serif" font-size="14" lengthAdjust="spacing" textLength="107.9258" x="233" y="394.1436">Documentation</text><line style="stroke:#181818;stroke-width:0.5;" x1="205" x2="342.9258" y1="405.2969" y2="405.2969"/><text fill="#000000" font-family="sans-serif" font-size="14" lengthAdjust="spacing" textLength="87.5547" x="210" y="422.292">_id: ObjectId</text><text fill="#000000" font-family="sans-serif" font-size="14" lengthAdjust="spacing" textLength="83.2139" x="210" y="438.5889">label: string</text><text fill="#000000" font-family="sans-serif" font-size="14" lengthAdjust="spacing" textLength="76.7266" x="210" y="454.8857">title: string</text><line style="stroke:#181818;stroke-width:0.5;" x1="205" x2="342.9258" y1="462.1875" y2="462.1875"/></g><!--class UseCase--><g class="entity" data-entity="UseCase" data-source-line="18" data-uid="ent0004" id="entity_UseCase"><rect fill="#F1F1F1" height="113.1875" rx="2.5" ry="2.5" style="stroke:#181818;stroke-width:0.5;" width="151.5557" x="379" y="365.2969"/><ellipse cx="420.6128" cy="381.2969" fill="#ADD1B2" rx="11" ry="11" style="stroke:#181818;stroke-width:1;"/><path d="M424.7222,387.2969 L417.0035,387.2969 L417.0035,374.9063 L424.7222,374.9063 L424.7222,377.0625 L419.4566,377.0625 L419.4566,379.7344 L424.2222,379.7344 L424.2222,381.8906 L419.4566,381.8906 L419.4566,385.1406 L424.7222,385.1406 L424.7222,387.2969 Z " fill="#000000"/><text fill="#000000" font-family="sans-serif" font-size="14" lengthAdjust="spacing" textLength="60.416" x="440.5268" y="386.1436">UseCase</text><line style="stroke:#181818;stroke-width:0.5;" x1="380" x2="529.5557" y1="397.2969" y2="397.2969"/><text fill="#000000" font-family="sans-serif" font-size="14" lengthAdjust="spacing" textLength="87.5547" x="385" y="414.292">_id: ObjectId</text><text fill="#000000" font-family="sans-serif" font-size="14" lengthAdjust="spacing" textLength="78.9414" x="385" y="430.5889">ucId: string</text><text fill="#000000" font-family="sans-serif" font-size="14" lengthAdjust="spacing" textLength="89.0586" x="385" y="446.8857">name: string</text><text fill="#000000" font-family="sans-serif" font-size="14" lengthAdjust="spacing" textLength="139.5557" x="385" y="463.1826">projectName: string</text><line style="stroke:#181818;stroke-width:0.5;" x1="380" x2="529.5557" y1="470.4844" y2="470.4844"/></g><!--class FR--><g class="entity" data-entity="FR" data-source-line="25" data-uid="ent0005" id="entity_FR"><rect fill="#F1F1F1" height="243.5625" rx="2.5" ry="2.5" style="stroke:#181818;stroke-width:0.5;" width="198.8262" x="174.5" y="44.2969"/><ellipse cx="190.8821" cy="60.2969" fill="#ADD1B2" rx="11" ry="11" style="stroke:#181818;stroke-width:1;"/><path d="M194.9915,66.2969 L187.2727,66.2969 L187.2727,53.9063 L194.9915,53.9063 L194.9915,56.0625 L189.7258,56.0625 L189.7258,58.7344 L194.4915,58.7344 L194.4915,60.8906 L189.7258,60.8906 L189.7258,64.1406 L194.9915,64.1406 L194.9915,66.2969 Z " fill="#000000"/><text fill="#000000" font-family="sans-serif" font-size="14" lengthAdjust="spacing" textLength="163.7549" x="205.1892" y="65.1436">FunctionalRequirement</text><line style="stroke:#181818;stroke-width:0.5;" x1="175.5" x2="372.3262" y1="76.2969" y2="76.2969"/><text fill="#000000" font-family="sans-serif" font-size="14" lengthAdjust="spacing" textLength="87.5547" x="180.5" y="93.292">_id: ObjectId</text><text fill="#000000" font-family="sans-serif" font-size="14" lengthAdjust="spacing" textLength="132.6172" x="180.5" y="109.5889">sessionId: ObjectId</text><text fill="#000000" font-family="sans-serif" font-size="14" lengthAdjust="spacing" textLength="186.8262" x="180.5" y="125.8857">documentationId: ObjectId</text><text fill="#000000" font-family="sans-serif" font-size="14" lengthAdjust="spacing" textLength="73.0557" x="180.5" y="142.1826">rfId: string</text><text fill="#000000" font-family="sans-serif" font-size="14" lengthAdjust="spacing" textLength="77.2324" x="180.5" y="158.4795">text: string</text><text fill="#000000" font-family="sans-serif" font-size="14" lengthAdjust="spacing" textLength="99.873" x="180.5" y="174.7764">priority: string</text><text fill="#000000" font-family="sans-serif" font-size="14" lengthAdjust="spacing" textLength="78.9414" x="180.5" y="191.0732">ucId: string</text><text fill="#000000" font-family="sans-serif" font-size="14" lengthAdjust="spacing" textLength="138.7148" x="180.5" y="207.3701">sourceQuote: string</text><text fill="#000000" font-family="sans-serif" font-size="14" lengthAdjust="spacing" textLength="139.5557" x="180.5" y="223.667">projectName: string</text><text fill="#000000" font-family="sans-serif" font-size="14" lengthAdjust="spacing" textLength="139.3027" x="180.5" y="239.9639">createdBy: ObjectId</text><text fill="#000000" font-family="sans-serif" font-size="14" lengthAdjust="spacing" textLength="111.3301" x="180.5" y="256.2607">createdAt: Date</text><text fill="#000000" font-family="sans-serif" font-size="14" lengthAdjust="spacing" textLength="115.9102" x="180.5" y="272.5576">updatedAt: Date</text><line style="stroke:#181818;stroke-width:0.5;" x1="175.5" x2="372.3262" y1="279.8594" y2="279.8594"/></g><!--link FR to Session--><g class="link" data-entity-1="FR" data-entity-2="Session" data-source-line="40" data-uid="lnk6" id="link_FR_Session"><path codeLine="40" d="M185.09,288.4769 C163.04,318.5169 144.2394,344.1393 126.5494,368.2493" fill="none" id="FR-to-Session" style="stroke:#181818;stroke-width:1;"/><polygon fill="#181818" points="123,373.0869,131.5491,368.1968,125.9578,369.0556,125.0991,363.4643,123,373.0869" style="stroke:#181818;stroke-width:1;"/><text fill="#000000" font-family="sans-serif" font-size="13" lengthAdjust="spacing" textLength="60.2075" x="160" y="331.3638">sessionId</text></g><!--link FR to Documentation--><g class="link" data-entity-1="FR" data-entity-2="Documentation" data-source-line="41" data-uid="lnk7" id="link_FR_Documentation"><path codeLine="41" d="M274,288.4769 C274,318.5169 274,342.9769 274,367.0869" fill="none" id="FR-to-Documentation" style="stroke:#181818;stroke-width:1;"/><polygon fill="#181818" points="274,373.0869,278,364.0869,274,368.0869,270,364.0869,274,373.0869" style="stroke:#181818;stroke-width:1;"/><text fill="#000000" font-family="sans-serif" font-size="13" lengthAdjust="spacing" textLength="110.5444" x="275" y="331.3638">documentationId</text></g><!--link FR to UseCase--><g class="link" data-entity-1="FR" data-entity-2="UseCase" data-source-line="42" data-uid="lnk8" id="link_FR_UseCase"><path codeLine="42" d="M372.69,288.6169 C380.06,298.5369 387.25,308.5169 394,318.2969 C404.23,333.1269 411.4961,344.5481 420.6661,359.9881" fill="none" id="FR-to-UseCase" style="stroke:#181818;stroke-width:1;"/><polygon fill="#181818" points="423.73,365.1469,422.5734,355.3662,421.1768,360.8479,415.6951,359.4513,423.73,365.1469" style="stroke:#181818;stroke-width:1;"/><text fill="#000000" font-family="sans-serif" font-size="13" lengthAdjust="spacing" textLength="27.4727" x="405" y="331.3638">ucId</text></g><!--SRC=[XL9BQyCm3BxdLuZT2uNTSXZq2JbqOoqz3oTMEw-9bLeoRJVst-TapHgNm6xo9_jxI1OZ9S9iEtw44IpuwB5Ii2Axf_aKQkKKBCxY53fOuz4RDa8CIsyBGrQLo8bG3KAGamXLe8t3Ga8luOEnpViA-5rfEXcxXvqg6NkTebJC4n5dSY-O5MGtvXDXd2HenSW57ZR87DWUG35SQ_XA0DwCJk4b_mXYcGxdsb5JFwiAK-10QFS1FP4xx4ewhKZVuEyR-vmANuM3aauZGWQLIfLZsTEGPe13v5l6cM9iQQ_r8A4lCjtZit64eM0zaMOJqgwYNO_3ndmhkLmFgl7l4BCOrVtOTpstY_m9dYNoPyW5ApteBX2JTmM-UfB_SW4K3fMWdbuY1rTq4dJdeMWaQXqXOI8XxsZqzFT9qblIhXNlDhqFtLthTfMsGNu0]--></g></svg>