<svg xmlns="http://www.w3.org/2000/svg" xmlns:xlink="http://www.w3.org/1999/xlink" contentStyleType="text/css" data-diagram-type="DESCRIPTION" height="602px" preserveAspectRatio="none" style="width:3041px;height:602px;background:#FFFFFF;" version="1.1" viewBox="0 0 3041 602" width="3041px" zoomAndPan="magnify"><title>DIAGRAMA GENERAL DEL SISTEMA</title><defs/><g><g class="title" data-source-line="1"><text fill="#000000" font-family="sans-serif" font-size="14" font-weight="bold" lengthAdjust="spacing" textLength="272.3916" x="1377.4528" y="22.9951">DIAGRAMA GENERAL DEL SISTEMA</text></g><!--cluster Front--><g class="cluster" data-entity="Front" data-source-line="6" data-uid="ent0002" id="cluster_Front"><rect fill="none" height="166" rx="2.5" ry="2.5" style="stroke:#181818;stroke-width:1;" width="373" x="79.72" y="83.2969"/><text fill="#000000" font-family="sans-serif" font-size="14" font-weight="bold" lengthAdjust="spacing" textLength="72.2285" x="230.1057" y="98.292">Frontend</text><text fill="#000000" font-family="sans-serif" font-size="14" font-weight="bold" lengthAdjust="spacing" textLength="118.5146" x="206.9627" y="114.5889">(kiwi-mvc SPA)</text></g><!--cluster MVC--><g class="cluster" data-entity="MVC" data-source-line="10" data-uid="ent0004" id="cluster_MVC"><polygon fill="none" points="758.72,53.2969,768.72,43.2969,1978.72,43.2969,1978.72,239.2969,1968.72,249.2969,758.72,249.2969,758.72,53.2969" style="stroke:#181818;stroke-width:1;"/><line style="stroke:#181818;stroke-width:1;" x1="1968.72" x2="1978.72" y1="53.2969" y2="43.2969"/><line style="stroke:#181818;stroke-width:1;" x1="758.72" x2="1968.72" y1="53.2969" y2="53.2969"/><line style="stroke:#181818;stroke-width:1;" x1="1968.72" x2="1968.72" y1="53.2969" y2="249.2969"/><text fill="#000000" font-family="sans-serif" font-size="14" font-weight="bold" lengthAdjust="spacing" textLength="141.75" x="1293.845" y="69.292">Backend kiwi-mvc</text><text fill="#000000" font-family="sans-serif" font-size="14" font-weight="bold" lengthAdjust="spacing" textLength="155.2578" x="1287.0911" y="85.5889">(Node.js + Express)</text></g><!--cluster Agent--><g class="cluster" data-entity="Agent" data-source-line="16" data-uid="ent0008" id="cluster_Agent"><polygon fill="none" points="16,299.2969,26,289.2969,2755.22,289.2969,2755.22,575.2969,2745.22,585.2969,16,585.2969,16,299.2969" style="stroke:#181818;stroke-width:1;"/><line style="stroke:#181818;stroke-width:1;" x1="2745.22" x2="2755.22" y1="299.2969" y2="289.2969"/><line style="stroke:#181818;stroke-width:1;" x1="16" x2="2745.22" y1="299.2969" y2="299.2969"/><line style="stroke:#181818;stroke-width:1;" x1="2745.22" x2="2745.22" y1="299.2969" y2="585.2969"/><text fill="#000000" font-family="sans-serif" font-size="14" font-weight="bold" lengthAdjust="spacing" textLength="113.0459" x="1325.0871" y="315.292">Agent_ApiKiwi</text><text fill="#000000" font-family="sans-serif" font-size="14" font-weight="bold" lengthAdjust="spacing" textLength="187.8379" x="1287.6911" y="331.5889">(FastAPI + Google ADK)</text></g><!--entity UI--><g class="entity" data-entity="UI" data-source-line="7" data-uid="ent0003" id="entity_UI"><rect fill="#F1F1F1" height="62.5938" rx="2.5" ry="2.5" style="stroke:#181818;stroke-width:0.5;" width="325.0039" x="103.72" y="142.7969"/><rect fill="#F1F1F1" height="10" style="stroke:#181818;stroke-width:0.5;" width="15" x="408.7239" y="147.7969"/><rect fill="#F1F1F1" height="2" style="stroke:#181818;stroke-width:0.5;" width="4" x="406.7239" y="149.7969"/><rect fill="#F1F1F1" height="2" style="stroke:#181818;stroke-width:0.5;" width="4" x="406.7239" y="153.7969"/><text fill="#000000" font-family="sans-serif" font-size="14" lengthAdjust="spacing" textLength="161.7246" x="118.72" y="175.792">Login / Home / Stepper</text><text fill="#000000" font-family="sans-serif" font-size="14" lengthAdjust="spacing" textLength="285.0039" x="118.72" y="192.0889">Documentacion - UC/RF - Gherkin - Draft</text></g><!--entity Controllers--><g class="entity" data-entity="Controllers" data-source-line="11" data-uid="ent0005" id="entity_Controllers"><rect fill="#F1F1F1" height="95.1875" rx="2.5" ry="2.5" style="stroke:#181818;stroke-width:0.5;" width="261.8672" x="782.72" y="110.7969"/><rect fill="#F1F1F1" height="10" style="stroke:#181818;stroke-width:0.5;" width="15" x="1024.5872" y="115.7969"/><rect fill="#F1F1F1" height="2" style="stroke:#181818;stroke-width:0.5;" width="4" x="1022.5872" y="117.7969"/><rect fill="#F1F1F1" height="2" style="stroke:#181818;stroke-width:0.5;" width="4" x="1022.5872" y="121.7969"/><text fill="#000000" font-family="sans-serif" font-size="14" lengthAdjust="spacing" textLength="98.6084" x="797.72" y="143.792">Controladores</text><text fill="#000000" font-family="sans-serif" font-size="14" lengthAdjust="spacing" textLength="221.8672" x="797.72" y="160.0889">(Auth, Session, Documentation,</text><text fill="#000000" font-family="sans-serif" font-size="14" lengthAdjust="spacing" textLength="164.7393" x="797.72" y="176.3857">UseCase, Requirement,</text><text fill="#000000" font-family="sans-serif" font-size="14" lengthAdjust="spacing" textLength="104.8564" x="797.72" y="192.6826">Gherkin, Draft)</text></g><!--entity Services--><g class="entity" data-entity="Services" data-source-line="12" data-uid="ent0006" id="entity_Services"><rect fill="#F1F1F1" height="111.4844" rx="2.5" ry="2.5" style="stroke:#181818;stroke-width:0.5;" width="178.2979" x="1305.72" y="106.7969"/><rect fill="#F1F1F1" height="10" style="stroke:#181818;stroke-width:0.5;" width="15" x="1464.0179" y="111.7969"/><rect fill="#F1F1F1" height="2" style="stroke:#181818;stroke-width:0.5;" width="4" x="1462.0179" y="113.7969"/><rect fill="#F1F1F1" height="2" style="stroke:#181818;stroke-width:0.5;" width="4" x="1462.0179" y="117.7969"/><text fill="#000000" font-family="sans-serif" font-size="14" lengthAdjust="spacing" textLength="134.9756" x="1320.72" y="139.792">Servicios auxiliares</text><text fill="#000000" font-family="sans-serif" font-size="14" lengthAdjust="spacing" textLength="115.0693" x="1320.72" y="156.0889">(SessionService,</text><text fill="#000000" font-family="sans-serif" font-size="14" lengthAdjust="spacing" textLength="119.2598" x="1320.72" y="172.3857">IdentifierService,</text><text fill="#000000" font-family="sans-serif" font-size="14" lengthAdjust="spacing" textLength="138.2979" x="1320.72" y="188.6826">TraceabilityService,</text><text fill="#000000" font-family="sans-serif" font-size="14" lengthAdjust="spacing" textLength="136.4863" x="1320.72" y="204.9795">ManualKiwiService)</text></g><!--entity Mongo--><g class="entity" data-entity="Mongo" data-source-line="13" data-uid="ent0007" id="entity_Mongo"><path d="M1765.72,117.2969 C1765.72,107.2969 1860.4173,107.2969 1860.4173,107.2969 C1860.4173,107.2969 1955.1145,107.2969 1955.1145,117.2969 L1955.1145,207.7813 C1955.1145,217.7813 1860.4173,217.7813 1860.4173,217.7813 C1860.4173,217.7813 1765.72,217.7813 1765.72,207.7813 L1765.72,117.2969" fill="#F1F1F1" style="stroke:#181818;stroke-width:0.5;"/><path d="M1765.72,117.2969 C1765.72,127.2969 1860.4173,127.2969 1860.4173,127.2969 C1860.4173,127.2969 1955.1145,127.2969 1955.1145,117.2969" fill="none" style="stroke:#181818;stroke-width:0.5;"/><text fill="#000000" font-family="sans-serif" font-size="14" lengthAdjust="spacing" textLength="67.3545" x="1775.72" y="144.292">MongoDB</text><text fill="#000000" font-family="sans-serif" font-size="14" lengthAdjust="spacing" textLength="164.5068" x="1775.72" y="160.5889">users, documentations,</text><text fill="#000000" font-family="sans-serif" font-size="14" lengthAdjust="spacing" textLength="136.7256" x="1775.72" y="176.8857">sessions, usecases,</text><text fill="#000000" font-family="sans-serif" font-size="14" lengthAdjust="spacing" textLength="168.4033" x="1775.72" y="193.1826">functionalrequirements,</text><text fill="#000000" font-family="sans-serif" font-size="14" lengthAdjust="spacing" textLength="169.3945" x="1775.72" y="209.4795">gherkinscenarios, drafts</text></g><!--entity Handoff--><g class="entity" data-entity="Handoff" data-source-line="17" data-uid="ent0009" id="entity_Handoff"><rect fill="#F1F1F1" height="46.2969" rx="2.5" ry="2.5" style="stroke:#181818;stroke-width:0.5;" width="232.5" x="149.72" y="355.2969"/><rect fill="#F1F1F1" height="10" style="stroke:#181818;stroke-width:0.5;" width="15" x="362.22" y="360.2969"/><rect fill="#F1F1F1" height="2" style="stroke:#181818;stroke-width:0.5;" width="4" x="360.22" y="362.2969"/><rect fill="#F1F1F1" height="2" style="stroke:#181818;stroke-width:0.5;" width="4" x="360.22" y="366.2969"/><text fill="#000000" font-family="sans-serif" font-size="14" lengthAdjust="spacing" textLength="192.5" x="164.72" y="388.292">POST /api/kiwi-mvc/handoff</text></g><!--entity Orchestrator--><g class="entity" data-entity="Orchestrator" data-source-line="18" data-uid="ent0010" id="entity_Orchestrator"><rect fill="#F1F1F1" height="62.5938" rx="2.5" ry="2.5" style="stroke:#181818;stroke-width:0.5;" width="224.167" x="801.72" y="353.7969"/><rect fill="#F1F1F1" height="10" style="stroke:#181818;stroke-width:0.5;" width="15" x="1005.887" y="358.7969"/><rect fill="#F1F1F1" height="2" style="stroke:#181818;stroke-width:0.5;" width="4" x="1003.887" y="360.7969"/><rect fill="#F1F1F1" height="2" style="stroke:#181818;stroke-width:0.5;" width="4" x="1003.887" y="364.7969"/><text fill="#000000" font-family="sans-serif" font-size="14" lengthAdjust="spacing" textLength="120.7705" x="816.72" y="386.792">kiwi_orchestrator</text><text fill="#000000" font-family="sans-serif" font-size="14" lengthAdjust="spacing" textLength="184.167" x="816.72" y="403.0889">(LiteLLM + OpenAI model)</text></g><!--entity Pipeline--><g class="entity" data-entity="Pipeline" data-source-line="19" data-uid="ent0011" id="entity_Pipeline"><rect fill="#F1F1F1" height="46.2969" rx="2.5" ry="2.5" style="stroke:#181818;stroke-width:0.5;" width="183.623" x="1302.72" y="452.2969"/><rect fill="#F1F1F1" height="10" style="stroke:#181818;stroke-width:0.5;" width="15" x="1466.343" y="457.2969"/><rect fill="#F1F1F1" height="2" style="stroke:#181818;stroke-width:0.5;" width="4" x="1464.343" y="459.2969"/><rect fill="#F1F1F1" height="2" style="stroke:#181818;stroke-width:0.5;" width="4" x="1464.343" y="463.2969"/><text fill="#000000" font-family="sans-serif" font-size="14" lengthAdjust="spacing" textLength="143.623" x="1317.72" y="485.292">draft_pipeline_agent</text></g><!--entity Extract--><g class="entity" data-entity="Extract" data-source-line="20" data-uid="ent0012" id="entity_Extract"><rect fill="#F1F1F1" height="46.2969" rx="2.5" ry="2.5" style="stroke:#181818;stroke-width:0.5;" width="178.6055" x="1770.72" y="441.2969"/><rect fill="#F1F1F1" height="10" style="stroke:#181818;stroke-width:0.5;" width="15" x="1929.3255" y="446.2969"/><rect fill="#F1F1F1" height="2" style="stroke:#181818;stroke-width:0.5;" width="4" x="1927.3255" y="448.2969"/><rect fill="#F1F1F1" height="2" style="stroke:#181818;stroke-width:0.5;" width="4" x="1927.3255" y="452.2969"/><text fill="#000000" font-family="sans-serif" font-size="14" lengthAdjust="spacing" textLength="138.6055" x="1785.72" y="474.292">extract_uc_rf_agent</text></g><!--entity Gherkin--><g class="entity" data-entity="Gherkin" data-source-line="21" data-uid="ent0013" id="entity_Gherkin"><rect fill="#F1F1F1" height="46.2969" rx="2.5" ry="2.5" style="stroke:#181818;stroke-width:0.5;" width="174.7773" x="2199.22" y="434.2969"/><rect fill="#F1F1F1" height="10" style="stroke:#181818;stroke-width:0.5;" width="15" x="2353.9973" y="439.2969"/><rect fill="#F1F1F1" height="2" style="stroke:#181818;stroke-width:0.5;" width="4" x="2351.9973" y="441.2969"/><rect fill="#F1F1F1" height="2" style="stroke:#181818;stroke-width:0.5;" width="4" x="2351.9973" y="445.2969"/><text fill="#000000" font-family="sans-serif" font-size="14" lengthAdjust="spacing" textLength="134.7773" x="2214.22" y="467.292">kiwi_gherkin_agent</text></g><!--entity Review--><g class="entity" data-entity="Review" data-source-line="22" data-uid="ent0014" id="entity_Review"><rect fill="#F1F1F1" height="46.2969" rx="2.5" ry="2.5" style="stroke:#181818;stroke-width:0.5;" width="191.6416" x="2190.72" y="353.2969"/><rect fill="#F1F1F1" height="10" style="stroke:#181818;stroke-width:0.5;" width="15" x="2362.3616" y="358.2969"/><rect fill="#F1F1F1" height="2" style="stroke:#181818;stroke-width:0.5;" width="4" x="2360.3616" y="360.2969"/><rect fill="#F1F1F1" height="2" style="stroke:#181818;stroke-width:0.5;" width="4" x="2360.3616" y="364.2969"/><text fill="#000000" font-family="sans-serif" font-size="14" lengthAdjust="spacing" textLength="151.6416" x="2205.72" y="386.292">review_publish_agent</text></g><!--entity Requirements--><g class="entity" data-entity="Requirements" data-source-line="23" data-uid="ent0015" id="entity_Requirements"><rect fill="#F1F1F1" height="46.2969" rx="2.5" ry="2.5" style="stroke:#181818;stroke-width:0.5;" width="251.6611" x="2160.72" y="515.2969"/><rect fill="#F1F1F1" height="10" style="stroke:#181818;stroke-width:0.5;" width="15" x="2392.3811" y="520.2969"/><rect fill="#F1F1F1" height="2" style="stroke:#181818;stroke-width:0.5;" width="4" x="2390.3811" y="522.2969"/><rect fill="#F1F1F1" height="2" style="stroke:#181818;stroke-width:0.5;" width="4" x="2390.3811" y="526.2969"/><text fill="#000000" font-family="sans-serif" font-size="14" lengthAdjust="spacing" textLength="211.6611" x="2175.72" y="548.292">requirements_manager_agent</text></g><!--entity KiwiMVCDB--><g class="entity" data-entity="KiwiMVCDB" data-source-line="24" data-uid="ent0016" id="entity_KiwiMVCDB"><rect fill="#F1F1F1" height="62.5938" rx="2.5" ry="2.5" style="stroke:#181818;stroke-width:0.5;" width="236.1367" x="1276.72" y="353.7969"/><rect fill="#F1F1F1" height="10" style="stroke:#181818;stroke-width:0.5;" width="15" x="1492.8567" y="358.7969"/><rect fill="#F1F1F1" height="2" style="stroke:#181818;stroke-width:0.5;" width="4" x="1490.8567" y="360.7969"/><rect fill="#F1F1F1" height="2" style="stroke:#181818;stroke-width:0.5;" width="4" x="1490.8567" y="364.7969"/><text fill="#000000" font-family="sans-serif" font-size="14" lengthAdjust="spacing" textLength="103.3525" x="1291.72" y="386.792">kiwimvc_db.py</text><text fill="#000000" font-family="sans-serif" font-size="14" lengthAdjust="spacing" textLength="196.1367" x="1291.72" y="403.0889">get_kiwimvc_session_docs()</text></g><!--entity SQLite--><g class="entity" data-entity="SQLite" data-source-line="25" data-uid="ent0017" id="entity_SQLite"><path d="M183.72,477.2969 C183.72,467.2969 266.2151,467.2969 266.2151,467.2969 C266.2151,467.2969 348.7102,467.2969 348.7102,477.2969 L348.7102,518.8906 C348.7102,528.8906 266.2151,528.8906 266.2151,528.8906 C266.2151,528.8906 183.72,528.8906 183.72,518.8906 L183.72,477.2969" fill="#F1F1F1" style="stroke:#181818;stroke-width:0.5;"/><path d="M183.72,477.2969 C183.72,487.2969 266.2151,487.2969 266.2151,487.2969 C266.2151,487.2969 348.7102,487.2969 348.7102,477.2969" fill="none" style="stroke:#181818;stroke-width:0.5;"/><text fill="#000000" font-family="sans-serif" font-size="14" lengthAdjust="spacing" textLength="45.6982" x="193.72" y="504.292">SQLite</text><text fill="#000000" font-family="sans-serif" font-size="14" lengthAdjust="spacing" textLength="144.9902" x="193.72" y="520.5889">ADK sessions/events</text></g><!--entity JSONStore--><g class="entity" data-entity="JSONStore" data-source-line="26" data-uid="ent0018" id="entity_JSONStore"><path d="M2603.22,436.2969 C2603.22,426.2969 2667.3914,426.2969 2667.3914,426.2969 C2667.3914,426.2969 2731.5628,426.2969 2731.5628,436.2969 L2731.5628,477.8906 C2731.5628,487.8906 2667.3914,487.8906 2667.3914,487.8906 C2667.3914,487.8906 2603.22,487.8906 2603.22,477.8906 L2603.22,436.2969" fill="#F1F1F1" style="stroke:#181818;stroke-width:0.5;"/><path d="M2603.22,436.2969 C2603.22,446.2969 2667.3914,446.2969 2667.3914,446.2969 C2667.3914,446.2969 2731.5628,446.2969 2731.5628,436.2969" fill="none" style="stroke:#181818;stroke-width:0.5;"/><text fill="#000000" font-family="sans-serif" font-size="14" lengthAdjust="spacing" textLength="34.5078" x="2613.22" y="463.292">JSON</text><text fill="#000000" font-family="sans-serif" font-size="14" lengthAdjust="spacing" textLength="108.3428" x="2613.22" y="479.5889">kiwi_drafts.json</text></g><!--entity KiwiApi--><g class="entity" data-entity="KiwiApi" data-source-line="29" data-uid="ent0019" id="entity_KiwiApi"><path d="M2612.7039,121.9003 C2615.7056,116.9423 2618.8612,116.4674 2622.341,121.4363 C2625.3259,115.7144 2628.9263,115.6303 2633.5421,119.5395 C2637.5214,114.5297 2641.4391,114.605 2644.8027,120.1937 C2647.5906,113.8302 2652.1529,113.5644 2656.3734,118.7595 C2660.367,112.7172 2664.0654,112.2547 2668.5036,118.3139 C2672.634,112.6515 2676.9239,113.9093 2680.2873,119.1434 C2683.2031,114.994 2687.6593,114.4661 2689.9746,119.7595 C2693.5622,114.5791 2698.8948,113.5927 2702.1665,120.0892 C2705.774,114.6192 2709.4455,114.9452 2713.0843,120.0568 C2716.6813,114.8097 2721.4699,115.6492 2723.7358,121.3517 C2729.776,123.441 2730.5295,128.0951 2725.8212,132.2426 C2731.8778,135.313 2731.4094,140.2529 2726.5829,144.0267 C2731.3078,147.3234 2732.4457,152.0448 2726.6441,155.3981 C2731.9389,159.7799 2730.8744,163.1474 2725.5757,166.5107 C2723.5045,172.7747 2717.9817,174.3456 2713.8481,168.5096 C2710.6876,174.2549 2707.261,174.6648 2703.0217,169.589 C2699.7248,177.2177 2695.7292,176.9513 2690.2997,171.6945 C2688.2165,176.6243 2683.5941,176.8209 2680.4922,172.8121 C2677.3587,178.6339 2672.1069,178.6728 2668.0182,173.9412 C2663.9547,178.7669 2660.0499,177.208 2657.7353,172.1261 C2653.7016,178.7675 2649.1107,179.1101 2644.5733,172.6314 C2641.2605,176.3792 2636.5353,176.4108 2634.3621,171.3154 C2629.4069,175.941 2624.6725,174.6369 2622.9013,168.0585 C2619.9045,172.8411 2614.6772,173.208 2612.213,167.5151 C2606.5767,166.0395 2604.0042,161.1439 2609.0337,156.57 C2601.9628,154.0644 2601.714,148.4166 2606.9303,143.8751 C2603.0449,140.0472 2604.1896,134.7682 2609.54,133.1977 C2605.4337,128.578 2606.9624,123.7621 2612.7039,121.9003" fill="#F1F1F1" style="stroke:#181818;stroke-width:0.5;"/><text fill="#000000" font-family="sans-serif" font-size="14" lengthAdjust="spacing" textLength="98.752" x="2617.72" y="139.792">Kiwi TCMS API</text><text fill="#000000" font-family="sans-serif" font-size="14" lengthAdjust="spacing" textLength="73.3906" x="2617.72" y="156.0889">(XML-RPC)</text></g><!--entity KiwiDB--><g class="entity" data-entity="KiwiDB" data-source-line="30" data-uid="ent0020" id="entity_KiwiDB"><path d="M2921.22,122.2969 C2921.22,112.2969 2972.7586,112.2969 2972.7586,112.2969 C2972.7586,112.2969 3024.2971,112.2969 3024.2971,122.2969 L3024.2971,163.8906 C3024.2971,173.8906 2972.7586,173.8906 2972.7586,173.8906 C2972.7586,173.8906 2921.22,173.8906 2921.22,163.8906 L2921.22,122.2969" fill="#F1F1F1" style="stroke:#181818;stroke-width:0.5;"/><path d="M2921.22,122.2969 C2921.22,132.2969 2972.7586,132.2969 2972.7586,132.2969 C2972.7586,132.2969 3024.2971,132.2969 3024.2971,122.2969" fill="none" style="stroke:#181818;stroke-width:0.5;"/><text fill="#000000" font-family="sans-serif" font-size="14" lengthAdjust="spacing" textLength="59.2676" x="2931.22" y="149.292">MariaDB</text><text fill="#000000" font-family="sans-serif" font-size="14" lengthAdjust="spacing" textLength="83.0771" x="2931.22" y="165.5889">(Kiwi TCMS)</text></g><!--link Front to MVC--><g class="link" data-entity-1="Front" data-entity-2="MVC" data-source-line="32" data-uid="lnk21" id="link_Front_MVC"><path d="M455.9525,241.2969 C457.0931,241.2969 458.2365,241.2969 459.3825,241.2969 C463.9666,241.2969 468.5929,241.2969 473.2568,241.2969 C510.5681,241.2969 550.2844,241.2969 590,241.2969 C629.7156,241.2969 669.4306,241.2969 706.7394,241.2969 C716.0666,241.2969 725.2434,241.2969 734.2323,241.2969 C738.7267,241.2969 743.1741,241.2969 747.5698,241.2969 C749.7677,241.2969 751.9526,241.2969 754.1241,241.2969 C755.2098,241.2969 750.2921,241.2969 751.371,241.2969" fill="none" id="Front-to-MVC" style="stroke:#181818;stroke-width:1;"/><polygon fill="#181818" points="757.371,241.2969,748.371,237.2969,752.371,241.2969,748.371,245.2969,757.371,241.2969" style="stroke:#181818;stroke-width:1;"/></g><!--link Controllers to Services--><g class="link" data-entity-1="Controllers" data-entity-2="Services" data-source-line="33" data-uid="lnk22" id="link_Controllers_Services"><path d="M1044.98,159.3869 C1127.67,160.0769 1226.4802,160.8968 1299.5102,161.5068" fill="none" id="Controllers-to-Services" style="stroke:#181818;stroke-width:1;"/><polygon fill="#181818" points="1305.51,161.5569,1296.5437,157.4818,1300.5102,161.5151,1296.4769,165.4816,1305.51,161.5569" style="stroke:#181818;stroke-width:1;"/></g><!--link Services to Mongo--><g class="link" data-entity-1="Services" data-entity-2="Mongo" data-source-line="34" data-uid="lnk23" id="link_Services_Mongo"><path d="M1483.99,162.2969 C1564.63,162.2969 1677.47,162.2969 1759.71,162.2969" fill="none" id="Services-to-Mongo" style="stroke:#181818;stroke-width:1;"/><polygon fill="#181818" points="1765.71,162.2969,1756.71,158.2969,1760.71,162.2969,1756.71,166.2969,1765.71,162.2969" style="stroke:#181818;stroke-width:1;"/></g><!--link MVC to Handoff--><g class="link" data-entity-1="MVC" data-entity-2="Handoff" data-source-line="36" data-uid="lnk24" id="link_MVC_Handoff"><path d="M873.9353,249.5268 C872.9959,249.7262 872.0417,249.9287 871.0727,250.1344 C869.1349,250.5457 867.1385,250.9694 865.0854,251.4052 C860.9792,252.2767 856.6465,253.1963 852.1027,254.1606 C815.7522,261.8756 765.8956,272.4569 710.5088,284.2119 C599.735,307.7219 472.7092,334.6811 381.4992,354.0411" fill="none" id="MVC-to-Handoff" style="stroke:#181818;stroke-width:1;"/><polygon fill="#181818" points="375.63,355.2869,385.2644,357.331,380.521,354.2487,383.6033,349.5054,375.63,355.2869" style="stroke:#181818;stroke-width:1;"/><text fill="#000000" font-family="sans-serif" font-size="13" lengthAdjust="spacing" textLength="256.6738" x="477.72" y="277.3638">POST /api/sessions/:id/handoff-to-agent</text></g><!--link Handoff to Orchestrator--><g class="link" data-entity-1="Handoff" data-entity-2="Orchestrator" data-source-line="37" data-uid="lnk25" id="link_Handoff_Orchestrator"><path d="M383,379.5569 C501.63,380.8369 678.8004,382.7617 795.6904,384.0317" fill="none" id="Handoff-to-Orchestrator" style="stroke:#181818;stroke-width:1;"/><polygon fill="#181818" points="801.69,384.0969,792.734,379.9993,796.6903,384.0426,792.6471,387.9989,801.69,384.0969" style="stroke:#181818;stroke-width:1;"/><text fill="#000000" font-family="sans-serif" font-size="13" lengthAdjust="spacing" textLength="105.498" x="553.22" y="376.3638">crea sesion ADK</text></g><!--link Orchestrator to KiwiMVCDB--><g class="link" data-entity-1="Orchestrator" data-entity-2="KiwiMVCDB" data-source-line="38" data-uid="lnk26" id="link_Orchestrator_KiwiMVCDB"><path d="M1025.82,385.2969 C1100.99,385.2969 1194.12,385.2969 1270.54,385.2969" fill="none" id="Orchestrator-to-KiwiMVCDB" style="stroke:#181818;stroke-width:1;"/><polygon fill="#181818" points="1276.54,385.2969,1267.54,381.2969,1271.54,385.2969,1267.54,389.2969,1276.54,385.2969" style="stroke:#181818;stroke-width:1;"/><text fill="#000000" font-family="sans-serif" font-size="13" lengthAdjust="spacing" textLength="168.2764" x="1076.72" y="381.3638">recuperar documentacion</text></g><!--link KiwiMVCDB to Mongo--><g class="link" data-entity-1="KiwiMVCDB" data-entity-2="Mongo" data-source-line="39" data-uid="lnk27" id="link_KiwiMVCDB_Mongo"><path d="M1461.64,353.5869 C1541.11,315.3469 1669.8332,253.4181 1760.0632,210.0081" fill="none" id="KiwiMVCDB-to-Mongo" style="stroke:#181818;stroke-width:1;"/><polygon fill="#181818" points="1765.47,207.4069,1755.6256,207.7042,1760.9643,209.5746,1759.0939,214.9133,1765.47,207.4069" style="stroke:#181818;stroke-width:1;"/><text fill="#000000" font-family="sans-serif" font-size="13" lengthAdjust="spacing" textLength="191.6611" x="1543.72" y="218.3638">lectura por source_session_id</text></g><!--link Orchestrator to Pipeline--><g class="link" data-entity-1="Orchestrator" data-entity-2="Pipeline" data-source-line="40" data-uid="lnk28" id="link_Orchestrator_Pipeline"><path d="M1025.82,406.1669 C1109.83,421.9569 1217.8832,442.259 1296.6032,457.049" fill="none" id="Orchestrator-to-Pipeline" style="stroke:#181818;stroke-width:1;"/><polygon fill="#181818" points="1302.5,458.1569,1294.3934,452.5638,1297.586,457.2336,1292.9162,460.4262,1302.5,458.1569" style="stroke:#181818;stroke-width:1;"/><text fill="#000000" font-family="sans-serif" font-size="13" lengthAdjust="spacing" textLength="170.2505" x="1075.72" y="412.3638">transferir flujo automatico</text></g><!--link Pipeline to Extract--><g class="link" data-entity-1="Pipeline" data-entity-2="Extract" data-source-line="41" data-uid="lnk29" id="link_Pipeline_Extract"><path d="M1486.74,473.1369 C1568.86,471.1869 1682.9317,468.479 1764.3817,466.549" fill="none" id="Pipeline-to-Extract" style="stroke:#181818;stroke-width:1;"/><polygon fill="#181818" points="1770.38,466.4069,1761.2878,462.6212,1765.3814,466.5253,1761.4773,470.619,1770.38,466.4069" style="stroke:#181818;stroke-width:1;"/></g><!--link Extract to Gherkin--><g class="link" data-entity-1="Extract" data-entity-2="Gherkin" data-source-line="42" data-uid="lnk30" id="link_Extract_Gherkin"><path d="M1949.95,462.8369 C2023.11,461.6269 2120.3008,460.026 2192.9208,458.826" fill="none" id="Extract-to-Gherkin" style="stroke:#181818;stroke-width:1;"/><polygon fill="#181818" points="2198.92,458.7269,2189.8551,454.8761,2193.9207,458.8095,2189.9873,462.875,2198.92,458.7269" style="stroke:#181818;stroke-width:1;"/></g><!--link Gherkin to JSONStore--><g class="link" data-entity-1="Gherkin" data-entity-2="JSONStore" data-source-line="43" data-uid="lnk31" id="link_Gherkin_JSONStore"><path d="M2374.56,457.2969 C2444.29,457.2969 2534.57,457.2969 2597.11,457.2969" fill="none" id="Gherkin-to-JSONStore" style="stroke:#181818;stroke-width:1;"/><polygon fill="#181818" points="2603.11,457.2969,2594.11,453.2969,2598.11,457.2969,2594.11,461.2969,2603.11,457.2969" style="stroke:#181818;stroke-width:1;"/></g><!--link Review to JSONStore--><g class="link" data-entity-1="Review" data-entity-2="JSONStore" data-source-line="44" data-uid="lnk32" id="link_Review_JSONStore"><path d="M2382.74,396.6369 C2451.61,411.3669 2536.9627,429.642 2597.0927,442.502" fill="none" id="Review-to-JSONStore" style="stroke:#181818;stroke-width:1;"/><polygon fill="#181818" points="2602.96,443.7569,2594.9956,437.9631,2598.0706,442.7112,2593.3225,445.7862,2602.96,443.7569" style="stroke:#181818;stroke-width:1;"/></g><!--link Requirements to JSONStore--><g class="link" data-entity-1="Requirements" data-entity-2="JSONStore" data-source-line="45" data-uid="lnk33" id="link_Requirements_JSONStore"><path d="M2395.42,515.2469 C2462.51,500.8869 2540.6428,484.1723 2597.1428,472.0823" fill="none" id="Requirements-to-JSONStore" style="stroke:#181818;stroke-width:1;"/><polygon fill="#181818" points="2603.01,470.8269,2593.3722,468.7986,2598.1207,471.8731,2595.0462,476.6215,2603.01,470.8269" style="stroke:#181818;stroke-width:1;"/></g><!--link Agent to SQLite--><g class="link" data-entity-1="Agent" data-entity-2="SQLite" data-source-line="46" data-uid="lnk34" id="link_Agent_SQLite"><path d="M24.76,498.2969 C27,498.2969 108.68,498.2969 177.51,498.2969" fill="none" id="Agent-to-SQLite" style="stroke:#181818;stroke-width:1;"/><polygon fill="#181818" points="183.51,498.2969,174.51,494.2969,178.51,498.2969,174.51,502.2969,183.51,498.2969" style="stroke:#181818;stroke-width:1;"/></g><!--link Review to KiwiApi--><g class="link" data-entity-1="Review" data-entity-2="KiwiApi" data-source-line="47" data-uid="lnk35" id="link_Review_KiwiApi"><path d="M2325.4,353.1069 C2393.65,311.0869 2532.6907,225.5026 2609.8407,178.0026" fill="none" id="Review-to-KiwiApi" style="stroke:#181818;stroke-width:1;"/><polygon fill="#181818" points="2614.95,174.8569,2605.189,176.1692,2610.6923,177.4783,2609.3832,182.9816,2614.95,174.8569" style="stroke:#181818;stroke-width:1;"/><text fill="#000000" font-family="sans-serif" font-size="13" lengthAdjust="spacing" textLength="128.8447" x="2443.72" y="202.3638">publicar / actualizar</text></g><!--link Services to KiwiApi--><g class="link" data-entity-1="Services" data-entity-2="KiwiApi" data-source-line="48" data-uid="lnk36" id="link_Services_KiwiApi"><path d="M1483.97,139.8469 C1558.48,122.1169 1668.3,98.8169 1765.72,89.2969 C2078.83,58.7069 2449.0831,108.4329 2596.5631,131.6729" fill="none" id="Services-to-KiwiApi" style="stroke:#181818;stroke-width:1;"/><polygon fill="#181818" points="2602.49,132.6069,2594.2223,127.2547,2597.5509,131.8286,2592.9771,135.1572,2602.49,132.6069" style="stroke:#181818;stroke-width:1;"/><text fill="#000000" font-family="sans-serif" font-size="13" lengthAdjust="spacing" textLength="126.8516" x="2003.72" y="76.3638">publicacion manual</text></g><!--link KiwiApi to KiwiDB--><g class="link" data-entity-1="KiwiApi" data-entity-2="KiwiDB" data-source-line="49" data-uid="lnk37" id="link_KiwiApi_KiwiDB"><path d="M2731.84,143.2969 C2787.99,143.2969 2862.76,143.2969 2914.74,143.2969" fill="none" id="KiwiApi-to-KiwiDB" style="stroke:#181818;stroke-width:1;"/><polygon fill="#181818" points="2920.74,143.2969,2911.74,139.2969,2915.74,143.2969,2911.74,147.2969,2920.74,143.2969" style="stroke:#181818;stroke-width:1;"/><text fill="#000000" font-family="sans-serif" font-size="13" lengthAdjust="spacing" textLength="110.9507" x="2780.22" y="139.3638">persistencia final</text></g><!--SRC=[RLLDS-Cs3BthLs1yIgVs-hw7pYYsatNNJbmhwVJW6GqZKJOt4gcIL3wwq__UHrAVIK-IW0VW4NY4hB0bf_KslZt6-vXkDtUROxoZzMP7oJPvsEpZgEI59Qj8Y_F5KYuqpwnGCZBFGjPCiuhCXUNgLSWp5QmqVEIfMVRCpZonxwZY0faybpoA-bUQtMWbBPVvILuzYrUng5uoIWxnBpDYXhoJVaP4cQfg9Jc-PZjr5fAMz4rL78_4yhhc-YJNAcig85W6UhIWnzNoU8FdxOLhCCBRMhF2-iIFs-ZVA98g1uDha0G1wig3oHqSNtuO-fKsRxNcnWGw-pzN7yciG52h4Wq0395nOozpIX024dFgERcMpK_oqV0LCtnEH_vtWrOw7ymjnNbW68grcKkkpRHamlMBm1aDiUPDb8A5octDuEL8kiq15uNWUh0zQ9PnzeGe-pvOzqmshFoEyxUsmA3zSELpPjaJYDDih-HPhQzFiZ5WDgTyV4A3P2RmW0k8337EM3JIguQLUZYuSvp3oKt69TCu4nAw5fZGRrTh65HyHb0Qry8nnOblcB7nOOiftIhbn1IllmVc7lbnL8Vxv86Mh1RBRjBB2vEvAWeVyosyJsCSCbKwkt1ZDRCAChlQ2SjtkptAtjTSnbkgmAuCXUz7q6acVwoq5ZKlXUGfSmnzoA4rJU7y3KaocpPPgeiHUXFi_yEoxUG8swfgYjNyHV3Nj6wUIc4k8_JHEpw2Xs6b5PD0wqd8uFxC20rEywSlzJkcp6tQcLfzf12EkGfTS_F4tLfVJvIM_E4wVPAOAdMYMl8NLop8q_id8RydztSdwTiHP8HBhAH7ErU2gN2dfwnKJKupLvSULlk482DCzg_zRd4yh0PIq5eqaZuKofpqh_h00GhoKLXNYyLlRbD4emliRVrrwbu2qciySgl5VROgfAyqoBK__5UHTv9TMBNmWuYw21SzbXzIP9eprpgt3z75QE9s-Bxn06CdDzYZJ0zNsYtIQC3qT84kiS4RpQX69gCQdV5-i2B_NAWJEI9XbQRWMcWgokQ7mXQpgiBwo5JKmrnC9_NswMsTfFkT3jimsI3XJyP1f1zSOKtusGGjZHAqumTXVrKoz6L9e855AVvXUZh4Js3_2whyMeqwPmVqtKQdZJ3uyMM2KI6m6Fy3]--></g></svg>