<?xml version="1.0" encoding="us-ascii" standalone="no"?><svg xmlns="http://www.w3.org/2000/svg" xmlns:xlink="http://www.w3.org/1999/xlink" contentStyleType="text/css" height="736px" preserveAspectRatio="none" style="width:354px;height:736px;background:#FFFFFF;" version="1.1" viewBox="0 0 354 736" width="354px" zoomAndPan="magnify"><defs/><g><path d="M19.5,7 L304.5,7 A12.5,12.5 0 0 1 317,19.5 L317,34.6094 L7,34.6094 L7,19.5 A12.5,12.5 0 0 1 19.5,7 " fill="#F1F1F1" style="stroke:#F1F1F1;stroke-width:1.0;"/><rect fill="none" height="576.6094" rx="12.5" ry="12.5" style="stroke:#181818;stroke-width:0.5;" width="310" x="7" y="7"/><line style="stroke:#181818;stroke-width:0.5;" x1="7" x2="317" y1="34.6094" y2="34.6094"/><text fill="#000000" font-family="sans-serif" font-size="14" lengthAdjust="spacing" textLength="142" x="91" y="26.5332">registrarCasoPrueba()</text><g id="registrarCasoPrueba.RecibiendoSolicitud"><rect fill="#F1F1F1" height="50" rx="12.5" ry="12.5" style="stroke:#181818;stroke-width:0.5;" width="50" x="19" y="153.6094"/><line style="stroke:#181818;stroke-width:0.5;" x1="19" x2="69" y1="181.2188" y2="181.2188"/><text fill="#000000" font-family="sans-serif" font-size="14" lengthAdjust="spacing" textLength="4" x="42" y="173.1426">&#160;</text></g><g id="registrarCasoPrueba.ValidandoInformacion"><rect fill="#F1F1F1" height="50" rx="12.5" ry="12.5" style="stroke:#181818;stroke-width:0.5;" width="50" x="19" y="275.6094"/><line style="stroke:#181818;stroke-width:0.5;" x1="19" x2="69" y1="303.2188" y2="303.2188"/><text fill="#000000" font-family="sans-serif" font-size="14" lengthAdjust="spacing" textLength="4" x="42" y="295.1426">&#160;</text></g><g id="registrarCasoPrueba.AlmacenandoCaso"><rect fill="#F1F1F1" height="50" rx="12.5" ry="12.5" style="stroke:#181818;stroke-width:0.5;" width="50" x="19" y="413.6094"/><line style="stroke:#181818;stroke-width:0.5;" x1="19" x2="69" y1="441.2188" y2="441.2188"/><text fill="#000000" font-family="sans-serif" font-size="14" lengthAdjust="spacing" textLength="4" x="42" y="433.1426">&#160;</text></g><ellipse cx="44" cy="55.6094" fill="#222222" rx="10" ry="10" style="stroke:#222222;stroke-width:1.0;"/><ellipse cx="44" cy="562.6094" fill="none" rx="11" ry="11" style="stroke:#222222;stroke-width:1.0;"/><ellipse cx="44" cy="562.6094" fill="#222222" rx="6" ry="6" style="stroke:#222222;stroke-width:1.0;"/><!--link *start*registrarCasoPrueba to RecibiendoSolicitud--><g id="link_*start*registrarCasoPrueba_RecibiendoSolicitud"><path d="M44,65.6994 C44,84.1694 44,120.5894 44,147.5794 " fill="none" id="*start*registrarCasoPrueba-to-RecibiendoSolicitud" style="stroke:#008000;stroke-width:1.0;"/><polygon fill="#008000" points="44,153.5794,48,144.5794,44,148.5794,40,144.5794,44,153.5794" style="stroke:#008000;stroke-width:1.0;"/><path d="M49,88.6094 L49,130.6094 L304,130.6094 L304,98.6094 L294,88.6094 L49,88.6094 " fill="#FEFFDD" style="stroke:#181818;stroke-width:0.5;"/><path d="M294,88.6094 L294,98.6094 L304,98.6094 L294,88.6094 " fill="#FEFFDD" style="stroke:#181818;stroke-width:0.5;"/><text fill="#000000" font-family="sans-serif" font-size="13" lengthAdjust="spacing" textLength="234" x="55" y="107.1045">Kiwi TCMS recibe la solicitud de registro</text><text fill="#000000" font-family="sans-serif" font-size="13" lengthAdjust="spacing" textLength="110" x="55" y="123.4561">del caso de prueba</text></g><!--link RecibiendoSolicitud to ValidandoInformacion--><g id="link_RecibiendoSolicitud_ValidandoInformacion"><path d="M44,203.8894 C44,224.7094 44,248.5494 44,269.3594 " fill="none" id="RecibiendoSolicitud-to-ValidandoInformacion" style="stroke:#008000;stroke-width:1.0;"/><polygon fill="#008000" points="44,275.3594,48,266.3594,44,270.3594,40,266.3594,44,275.3594" style="stroke:#008000;stroke-width:1.0;"/><path d="M49,226.6094 L49,252.6094 L308,252.6094 L308,236.6094 L298,226.6094 L49,226.6094 " fill="#FEFFDD" style="stroke:#181818;stroke-width:0.5;"/><path d="M298,226.6094 L298,236.6094 L308,236.6094 L298,226.6094 " fill="#FEFFDD" style="stroke:#181818;stroke-width:0.5;"/><text fill="#000000" font-family="sans-serif" font-size="13" font-weight="bold" lengthAdjust="spacing" textLength="69" x="55" y="245.1045">Kiwi TCMS</text><text fill="#000000" font-family="sans-serif" font-size="13" lengthAdjust="spacing" textLength="165" x="128" y="245.1045">valida la informacion recibida</text></g><!--link ValidandoInformacion to AlmacenandoCaso--><g id="link_ValidandoInformacion_AlmacenandoCaso"><path d="M44,325.6094 C44,350.3194 44,382.6094 44,407.3894 " fill="none" id="ValidandoInformacion-to-AlmacenandoCaso" style="stroke:#008000;stroke-width:1.0;"/><polygon fill="#008000" points="44,413.3894,48,404.3894,44,408.3894,40,404.3894,44,413.3894" style="stroke:#008000;stroke-width:1.0;"/><path d="M49,348.6094 L49,390.6094 L306,390.6094 L306,358.6094 L296,348.6094 L49,348.6094 " fill="#FEFFDD" style="stroke:#181818;stroke-width:0.5;"/><path d="M296,348.6094 L296,358.6094 L306,358.6094 L296,348.6094 " fill="#FEFFDD" style="stroke:#181818;stroke-width:0.5;"/><text fill="#000000" font-family="sans-serif" font-size="13" font-weight="bold" lengthAdjust="spacing" textLength="69" x="55" y="367.1045">Kiwi TCMS</text><text fill="#000000" font-family="sans-serif" font-size="13" lengthAdjust="spacing" textLength="163" x="128" y="367.1045">almacena el caso de prueba</text><text fill="#000000" font-family="sans-serif" font-size="13" lengthAdjust="spacing" textLength="153" x="55" y="383.4561">si la validacion es correcta</text></g><!--link AlmacenandoCaso to *end*registrarCasoPrueba--><g id="link_AlmacenandoCaso_*end*registrarCasoPrueba"><path d="M44,463.7094 C44,490.3794 44,526.1094 44,545.3094 " fill="none" id="AlmacenandoCaso-to-*end*registrarCasoPrueba" style="stroke:#008000;stroke-width:1.0;"/><polygon fill="#008000" points="44,551.3094,48,542.3094,44,546.3094,40,542.3094,44,551.3094" style="stroke:#008000;stroke-width:1.0;"/><path d="M49,486.6094 L49,528.6094 L282,528.6094 L282,496.6094 L272,486.6094 L49,486.6094 " fill="#FEFFDD" style="stroke:#181818;stroke-width:0.5;"/><path d="M272,486.6094 L272,496.6094 L282,496.6094 L272,486.6094 " fill="#FEFFDD" style="stroke:#181818;stroke-width:0.5;"/><text fill="#000000" font-family="sans-serif" font-size="13" font-weight="bold" lengthAdjust="spacing" textLength="69" x="55" y="505.1045">Kiwi TCMS</text><text fill="#000000" font-family="sans-serif" font-size="13" lengthAdjust="spacing" textLength="139" x="128" y="505.1045">devuelve la confirmacion</text><text fill="#000000" font-family="sans-serif" font-size="13" lengthAdjust="spacing" textLength="120" x="55" y="521.4561">del registro realizado</text></g><g id="KIWI_TCMS_ABIERTO"><rect fill="#F1F1F1" height="50" rx="12.5" ry="12.5" style="stroke:#181818;stroke-width:0.5;" width="163" x="80.5" y="680"/><line style="stroke:#181818;stroke-width:0.5;" x1="80.5" x2="243.5" y1="707.6094" y2="707.6094"/><text fill="#000000" font-family="sans-serif" font-size="14" lengthAdjust="spacing" textLength="143" x="90.5" y="699.5332">KIWI_TCMS_ABIERTO</text></g><!--link registrarCasoPrueba to KIWI_TCMS_ABIERTO--><g id="link_registrarCasoPrueba_KIWI_TCMS_ABIERTO"><path d="M75.94,584.13 C70.41,602.6 67,614 67,614 C67,614 67,650 67,650 C67,650 88.9933,662.5058 114.2833,676.8758 " fill="none" id="registrarCasoPrueba-to-KIWI_TCMS_ABIERTO" style="stroke:#008000;stroke-width:1.0;"/><polygon fill="#008000" points="119.5,679.84,113.6511,671.916,115.1528,677.3699,109.6989,678.8715,119.5,679.84" style="stroke:#008000;stroke-width:1.0;"/><path d="M72,619 L72,645 L206,645 L206,629 L196,619 L72,619 " fill="#FEFFDD" style="stroke:#181818;stroke-width:0.5;"/><path d="M196,619 L196,629 L206,629 L196,619 " fill="#FEFFDD" style="stroke:#181818;stroke-width:0.5;"/><text fill="#000000" font-family="sans-serif" font-size="13" lengthAdjust="spacing" textLength="113" x="78" y="637.4951">completarRegistro()</text></g><!--link registrarCasoPrueba to KIWI_TCMS_ABIERTO--><g id="link_registrarCasoPrueba_KIWI_TCMS_ABIERTO"><path d="M210.01,584.13 C213.1,602.6 215,614 215,614 C215,614 215,650 215,650 C215,650 204.0237,661.1888 189.9137,675.5588 " fill="none" id="registrarCasoPrueba-to-KIWI_TCMS_ABIERTO-1" style="stroke:#FF0000;stroke-width:1.0;"/><polygon fill="#FF0000" points="185.71,679.84,194.8697,676.2207,189.2131,676.2723,189.1615,670.6157,185.71,679.84" style="stroke:#FF0000;stroke-width:1.0;"/><path d="M220,619 L220,645 L347,645 L347,629 L337,619 L220,619 " fill="#FEFFDD" style="stroke:#181818;stroke-width:0.5;"/><path d="M337,619 L337,629 L347,629 L337,619 " fill="#FEFFDD" style="stroke:#181818;stroke-width:0.5;"/><text fill="#000000" font-family="sans-serif" font-size="13" lengthAdjust="spacing" textLength="106" x="226" y="637.4951">rechazarRegistro()</text></g><!--SRC=[ZPBFQW8n4CRlUOh1NhGWVG4HhFImI6bHQGyYCcv66up9agmMBNttJhB-wMe4To-RoNpp_MPc_KgP0XskGIj3vQuWAApUXOCGliIImD5I-TAXwwEtxsv3SmJqq4Z4cwq6_0W1_5JQ1h-SEwHSpHKPQKTMgroL6tcTz85QIUISp2oiMsEkhBdEwcc-8HFoWczbDdcSGdloi7H4PjhktlGpbWjP4tfTnS10VIiOzrz7t2LB23I2Fqf0dfgtCLkIXfnDmqKH6uvXzecLAvQ4TutjPfjNS9rvzyJNUPftOHkbWL6TjHKvnnCiAQyQpEKqx-F0WmhIy_0g85QmqP4yvDOnPvc2l62eyV5YxsIIjDsGtiODvjOirF_HXiKTDyaVJBP7QUiilqAa_lJ_D8FiCvi5nrdlENiPZjz4ZIktwq9JYMvui6gsnBdL6yKToJjAy-o-S9-k_0S0]--></g></svg>