<svg xmlns="http://www.w3.org/2000/svg" xmlns:xlink="http://www.w3.org/1999/xlink" contentStyleType="text/css" data-diagram-type="CLASS" height="365px" preserveAspectRatio="none" style="width:551px;height:365px;background:#FFFFFF;" version="1.1" viewBox="0 0 551 365" width="551px" zoomAndPan="magnify"><title>Modelos - app</title><defs/><g><g class="title" data-source-line="5"><text fill="#000000" font-family="sans-serif" font-size="14" font-weight="bold" lengthAdjust="spacing" textLength="110.8652" x="213.0674" y="22.9951">Modelos - app</text></g><!--cluster models--><g class="cluster" data-entity="models" data-source-line="7" data-uid="ent0002" id="cluster_models"><rect fill="none" height="315" rx="2.5" ry="2.5" style="stroke:#000000;stroke-width:1.5;" width="538" x="7" y="44.2969"/><text fill="#000000" font-family="sans-serif" font-size="14" font-weight="bold" lengthAdjust="spacing" textLength="56.8545" x="247.5728" y="59.292">models</text></g><!--class User--><g class="entity" data-entity="User" data-source-line="9" data-uid="ent0003" id="entity_User"><rect fill="#F1F1F1" height="48" rx="2.5" ry="2.5" style="stroke:#181818;stroke-width:0.5;" width="63.9102" x="37" y="79.2969"/><ellipse cx="52" cy="95.2969" fill="#ADD1B2" rx="11" ry="11" style="stroke:#181818;stroke-width:1;"/><path d="M54.9688,100.9375 Q54.3906,101.2344 53.75,101.375 Q53.1094,101.5313 52.4063,101.5313 Q49.9063,101.5313 48.5781,99.8906 Q47.2656,98.2344 47.2656,95.1094 Q47.2656,91.9844 48.5781,90.3281 Q49.9063,88.6719 52.4063,88.6719 Q53.1094,88.6719 53.75,88.8281 Q54.4063,88.9844 54.9688,89.2813 L54.9688,92 Q54.3438,91.4219 53.75,91.1563 Q53.1563,90.875 52.5313,90.875 Q51.1875,90.875 50.5,91.9531 Q49.8125,93.0156 49.8125,95.1094 Q49.8125,97.2031 50.5,98.2813 Q51.1875,99.3438 52.5313,99.3438 Q53.1563,99.3438 53.75,99.0781 Q54.3438,98.7969 54.9688,98.2188 L54.9688,100.9375 Z " fill="#000000"/><text fill="#000000" font-family="sans-serif" font-size="14" lengthAdjust="spacing" textLength="31.9102" x="66" y="100.1436">User</text><line style="stroke:#181818;stroke-width:0.5;" x1="38" x2="99.9102" y1="111.2969" y2="111.2969"/><line style="stroke:#181818;stroke-width:0.5;" x1="38" x2="99.9102" y1="119.2969" y2="119.2969"/></g><!--class Session--><g class="entity" data-entity="Session" data-source-line="10" data-uid="ent0004" id="entity_Session"><rect fill="#F1F1F1" height="48" rx="2.5" ry="2.5" style="stroke:#181818;stroke-width:0.5;" width="85.416" x="136.5" y="79.2969"/><ellipse cx="151.5" cy="95.2969" fill="#ADD1B2" rx="11" ry="11" style="stroke:#181818;stroke-width:1;"/><path d="M154.4688,100.9375 Q153.8906,101.2344 153.25,101.375 Q152.6094,101.5313 151.9063,101.5313 Q149.4063,101.5313 148.0781,99.8906 Q146.7656,98.2344 146.7656,95.1094 Q146.7656,91.9844 148.0781,90.3281 Q149.4063,88.6719 151.9063,88.6719 Q152.6094,88.6719 153.25,88.8281 Q153.9063,88.9844 154.4688,89.2813 L154.4688,92 Q153.8438,91.4219 153.25,91.1563 Q152.6563,90.875 152.0313,90.875 Q150.6875,90.875 150,91.9531 Q149.3125,93.0156 149.3125,95.1094 Q149.3125,97.2031 150,98.2813 Q150.6875,99.3438 152.0313,99.3438 Q152.6563,99.3438 153.25,99.0781 Q153.8438,98.7969 154.4688,98.2188 L154.4688,100.9375 Z " fill="#000000"/><text fill="#000000" font-family="sans-serif" font-size="14" lengthAdjust="spacing" textLength="53.416" x="165.5" y="100.1436">Session</text><line style="stroke:#181818;stroke-width:0.5;" x1="137.5" x2="220.916" y1="111.2969" y2="111.2969"/><line style="stroke:#181818;stroke-width:0.5;" x1="137.5" x2="220.916" y1="119.2969" y2="119.2969"/></g><!--class Documentation--><g class="entity" data-entity="Documentation" data-source-line="11" data-uid="ent0005" id="entity_Documentation"><rect fill="#F1F1F1" height="48" rx="2.5" ry="2.5" style="stroke:#181818;stroke-width:0.5;" width="139.9258" x="257" y="79.2969"/><ellipse cx="272" cy="95.2969" fill="#ADD1B2" rx="11" ry="11" style="stroke:#181818;stroke-width:1;"/><path d="M274.9688,100.9375 Q274.3906,101.2344 273.75,101.375 Q273.1094,101.5313 272.4063,101.5313 Q269.9063,101.5313 268.5781,99.8906 Q267.2656,98.2344 267.2656,95.1094 Q267.2656,91.9844 268.5781,90.3281 Q269.9063,88.6719 272.4063,88.6719 Q273.1094,88.6719 273.75,88.8281 Q274.4063,88.9844 274.9688,89.2813 L274.9688,92 Q274.3438,91.4219 273.75,91.1563 Q273.1563,90.875 272.5313,90.875 Q271.1875,90.875 270.5,91.9531 Q269.8125,93.0156 269.8125,95.1094 Q269.8125,97.2031 270.5,98.2813 Q271.1875,99.3438 272.5313,99.3438 Q273.1563,99.3438 273.75,99.0781 Q274.3438,98.7969 274.9688,98.2188 L274.9688,100.9375 Z " fill="#000000"/><text fill="#000000" font-family="sans-serif" font-size="14" lengthAdjust="spacing" textLength="107.9258" x="286" y="100.1436">Documentation</text><line style="stroke:#181818;stroke-width:0.5;" x1="258" x2="395.9258" y1="111.2969" y2="111.2969"/><line style="stroke:#181818;stroke-width:0.5;" x1="258" x2="395.9258" y1="119.2969" y2="119.2969"/></g><!--class UseCase--><g class="entity" data-entity="UseCase" data-source-line="12" data-uid="ent0006" id="entity_UseCase"><rect fill="#F1F1F1" height="48" rx="2.5" ry="2.5" style="stroke:#181818;stroke-width:0.5;" width="92.416" x="23" y="187.2969"/><ellipse cx="38" cy="203.2969" fill="#ADD1B2" rx="11" ry="11" style="stroke:#181818;stroke-width:1;"/><path d="M40.9688,208.9375 Q40.3906,209.2344 39.75,209.375 Q39.1094,209.5313 38.4063,209.5313 Q35.9063,209.5313 34.5781,207.8906 Q33.2656,206.2344 33.2656,203.1094 Q33.2656,199.9844 34.5781,198.3281 Q35.9063,196.6719 38.4063,196.6719 Q39.1094,196.6719 39.75,196.8281 Q40.4063,196.9844 40.9688,197.2813 L40.9688,200 Q40.3438,199.4219 39.75,199.1563 Q39.1563,198.875 38.5313,198.875 Q37.1875,198.875 36.5,199.9531 Q35.8125,201.0156 35.8125,203.1094 Q35.8125,205.2031 36.5,206.2813 Q37.1875,207.3438 38.5313,207.3438 Q39.1563,207.3438 39.75,207.0781 Q40.3438,206.7969 40.9688,206.2188 L40.9688,208.9375 Z " fill="#000000"/><text fill="#000000" font-family="sans-serif" font-size="14" lengthAdjust="spacing" textLength="60.416" x="52" y="208.1436">UseCase</text><line style="stroke:#181818;stroke-width:0.5;" x1="24" x2="114.416" y1="219.2969" y2="219.2969"/><line style="stroke:#181818;stroke-width:0.5;" x1="24" x2="114.416" y1="227.2969" y2="227.2969"/></g><!--class FunctionalRequirement--><g class="entity" data-entity="FunctionalRequirement" data-source-line="13" data-uid="ent0007" id="entity_FunctionalRequirement"><rect fill="#F1F1F1" height="48" rx="2.5" ry="2.5" style="stroke:#181818;stroke-width:0.5;" width="195.7549" x="150" y="187.2969"/><ellipse cx="165" cy="203.2969" fill="#ADD1B2" rx="11" ry="11" style="stroke:#181818;stroke-width:1;"/><path d="M167.9688,208.9375 Q167.3906,209.2344 166.75,209.375 Q166.1094,209.5313 165.4063,209.5313 Q162.9063,209.5313 161.5781,207.8906 Q160.2656,206.2344 160.2656,203.1094 Q160.2656,199.9844 161.5781,198.3281 Q162.9063,196.6719 165.4063,196.6719 Q166.1094,196.6719 166.75,196.8281 Q167.4063,196.9844 167.9688,197.2813 L167.9688,200 Q167.3438,199.4219 166.75,199.1563 Q166.1563,198.875 165.5313,198.875 Q164.1875,198.875 163.5,199.9531 Q162.8125,201.0156 162.8125,203.1094 Q162.8125,205.2031 163.5,206.2813 Q164.1875,207.3438 165.5313,207.3438 Q166.1563,207.3438 166.75,207.0781 Q167.3438,206.7969 167.9688,206.2188 L167.9688,208.9375 Z " fill="#000000"/><text fill="#000000" font-family="sans-serif" font-size="14" lengthAdjust="spacing" textLength="163.7549" x="179" y="208.1436">FunctionalRequirement</text><line style="stroke:#181818;stroke-width:0.5;" x1="151" x2="344.7549" y1="219.2969" y2="219.2969"/><line style="stroke:#181818;stroke-width:0.5;" x1="151" x2="344.7549" y1="227.2969" y2="227.2969"/></g><!--class GherkinScenario--><g class="entity" data-entity="GherkinScenario" data-source-line="14" data-uid="ent0008" id="entity_GherkinScenario"><rect fill="#F1F1F1" height="48" rx="2.5" ry="2.5" style="stroke:#181818;stroke-width:0.5;" width="147.8213" x="381" y="187.2969"/><ellipse cx="396" cy="203.2969" fill="#ADD1B2" rx="11" ry="11" style="stroke:#181818;stroke-width:1;"/><path d="M398.9688,208.9375 Q398.3906,209.2344 397.75,209.375 Q397.1094,209.5313 396.4063,209.5313 Q393.9063,209.5313 392.5781,207.8906 Q391.2656,206.2344 391.2656,203.1094 Q391.2656,199.9844 392.5781,198.3281 Q393.9063,196.6719 396.4063,196.6719 Q397.1094,196.6719 397.75,196.8281 Q398.4063,196.9844 398.9688,197.2813 L398.9688,200 Q398.3438,199.4219 397.75,199.1563 Q397.1563,198.875 396.5313,198.875 Q395.1875,198.875 394.5,199.9531 Q393.8125,201.0156 393.8125,203.1094 Q393.8125,205.2031 394.5,206.2813 Q395.1875,207.3438 396.5313,207.3438 Q397.1563,207.3438 397.75,207.0781 Q398.3438,206.7969 398.9688,206.2188 L398.9688,208.9375 Z " fill="#000000"/><text fill="#000000" font-family="sans-serif" font-size="14" lengthAdjust="spacing" textLength="115.8213" x="410" y="208.1436">GherkinScenario</text><line style="stroke:#181818;stroke-width:0.5;" x1="382" x2="527.8213" y1="219.2969" y2="219.2969"/><line style="stroke:#181818;stroke-width:0.5;" x1="382" x2="527.8213" y1="227.2969" y2="227.2969"/></g><!--class Draft--><g class="entity" data-entity="Draft" data-source-line="15" data-uid="ent0009" id="entity_Draft"><rect fill="#F1F1F1" height="48" rx="2.5" ry="2.5" style="stroke:#181818;stroke-width:0.5;" width="67.5332" x="35" y="295.2969"/><ellipse cx="50" cy="311.2969" fill="#ADD1B2" rx="11" ry="11" style="stroke:#181818;stroke-width:1;"/><path d="M52.9688,316.9375 Q52.3906,317.2344 51.75,317.375 Q51.1094,317.5313 50.4063,317.5313 Q47.9063,317.5313 46.5781,315.8906 Q45.2656,314.2344 45.2656,311.1094 Q45.2656,307.9844 46.5781,306.3281 Q47.9063,304.6719 50.4063,304.6719 Q51.1094,304.6719 51.75,304.8281 Q52.4063,304.9844 52.9688,305.2813 L52.9688,308 Q52.3438,307.4219 51.75,307.1563 Q51.1563,306.875 50.5313,306.875 Q49.1875,306.875 48.5,307.9531 Q47.8125,309.0156 47.8125,311.1094 Q47.8125,313.2031 48.5,314.2813 Q49.1875,315.3438 50.5313,315.3438 Q51.1563,315.3438 51.75,315.0781 Q52.3438,314.7969 52.9688,314.2188 L52.9688,316.9375 Z " fill="#000000"/><text fill="#000000" font-family="sans-serif" font-size="14" lengthAdjust="spacing" textLength="35.5332" x="64" y="316.1436">Draft</text><line style="stroke:#181818;stroke-width:0.5;" x1="36" x2="101.5332" y1="327.2969" y2="327.2969"/><line style="stroke:#181818;stroke-width:0.5;" x1="36" x2="101.5332" y1="335.2969" y2="335.2969"/></g><!--SRC=[JKvB2i8m4DtFAORk1QyWYkB2ZS43ZEcq3KsJcfaWAjxT5ZMwVFydlGiZ9Hfm9DjJoqPldZ6nLGgjPv1Ya8xgU7MXnOQy_2lMayXADRbpLjxR68oxCou1rEdKTeWr-oYuG1f7WCyILiFCIuKF07oNu4au5M1OnCLGy2RQF71GqdzsYgnf-lF5snpiR21_v4jsYUT8KNSTf-cuiHmekVZhJjGemFC5]--></g></svg>