<svg xmlns="http://www.w3.org/2000/svg" xmlns:xlink="http://www.w3.org/1999/xlink" contentStyleType="text/css" data-diagram-type="CLASS" height="265px" preserveAspectRatio="none" style="width:537px;height:265px;background:#FFFFFF;" version="1.1" viewBox="0 0 537 265" width="537px" zoomAndPan="magnify"><title>MODELOS</title><defs/><g><g class="title" data-source-line="1"><text fill="#000000" font-family="sans-serif" font-size="14" font-weight="bold" lengthAdjust="spacing" textLength="77.9229" x="222.8052" y="22.9951">MODELOS</text></g><!--class User--><g class="entity" data-entity="User" data-source-line="6" data-uid="ent0002" id="entity_User"><rect fill="#F1F1F1" height="48" rx="2.5" ry="2.5" style="stroke:#181818;stroke-width:0.5;" width="63.9102" x="45" y="44.2969"/><ellipse cx="60" cy="60.2969" fill="#ADD1B2" rx="11" ry="11" style="stroke:#181818;stroke-width:1;"/><path d="M62.9688,65.9375 Q62.3906,66.2344 61.75,66.375 Q61.1094,66.5313 60.4063,66.5313 Q57.9063,66.5313 56.5781,64.8906 Q55.2656,63.2344 55.2656,60.1094 Q55.2656,56.9844 56.5781,55.3281 Q57.9063,53.6719 60.4063,53.6719 Q61.1094,53.6719 61.75,53.8281 Q62.4063,53.9844 62.9688,54.2813 L62.9688,57 Q62.3438,56.4219 61.75,56.1563 Q61.1563,55.875 60.5313,55.875 Q59.1875,55.875 58.5,56.9531 Q57.8125,58.0156 57.8125,60.1094 Q57.8125,62.2031 58.5,63.2813 Q59.1875,64.3438 60.5313,64.3438 Q61.1563,64.3438 61.75,64.0781 Q62.3438,63.7969 62.9688,63.2188 L62.9688,65.9375 Z " fill="#000000"/><text fill="#000000" font-family="sans-serif" font-size="14" lengthAdjust="spacing" textLength="31.9102" x="74" y="65.1436">User</text><line style="stroke:#181818;stroke-width:0.5;" x1="46" x2="107.9102" y1="76.2969" y2="76.2969"/><line style="stroke:#181818;stroke-width:0.5;" x1="46" x2="107.9102" y1="84.2969" y2="84.2969"/></g><!--class Session--><g class="entity" data-entity="Session" data-source-line="7" data-uid="ent0003" id="entity_Session"><rect fill="#F1F1F1" height="48" rx="2.5" ry="2.5" style="stroke:#181818;stroke-width:0.5;" width="85.416" x="34.5" y="127.2969"/><ellipse cx="49.5" cy="143.2969" fill="#ADD1B2" rx="11" ry="11" style="stroke:#181818;stroke-width:1;"/><path d="M52.4688,148.9375 Q51.8906,149.2344 51.25,149.375 Q50.6094,149.5313 49.9063,149.5313 Q47.4063,149.5313 46.0781,147.8906 Q44.7656,146.2344 44.7656,143.1094 Q44.7656,139.9844 46.0781,138.3281 Q47.4063,136.6719 49.9063,136.6719 Q50.6094,136.6719 51.25,136.8281 Q51.9063,136.9844 52.4688,137.2813 L52.4688,140 Q51.8438,139.4219 51.25,139.1563 Q50.6563,138.875 50.0313,138.875 Q48.6875,138.875 48,139.9531 Q47.3125,141.0156 47.3125,143.1094 Q47.3125,145.2031 48,146.2813 Q48.6875,147.3438 50.0313,147.3438 Q50.6563,147.3438 51.25,147.0781 Q51.8438,146.7969 52.4688,146.2188 L52.4688,148.9375 Z " fill="#000000"/><text fill="#000000" font-family="sans-serif" font-size="14" lengthAdjust="spacing" textLength="53.416" x="63.5" y="148.1436">Session</text><line style="stroke:#181818;stroke-width:0.5;" x1="35.5" x2="118.916" y1="159.2969" y2="159.2969"/><line style="stroke:#181818;stroke-width:0.5;" x1="35.5" x2="118.916" y1="167.2969" y2="167.2969"/></g><!--class Documentation--><g class="entity" data-entity="Documentation" data-source-line="8" data-uid="ent0004" id="entity_Documentation"><rect fill="#F1F1F1" height="48" rx="2.5" ry="2.5" style="stroke:#181818;stroke-width:0.5;" width="139.9258" x="7" y="210.2969"/><ellipse cx="22" cy="226.2969" fill="#ADD1B2" rx="11" ry="11" style="stroke:#181818;stroke-width:1;"/><path d="M24.9688,231.9375 Q24.3906,232.2344 23.75,232.375 Q23.1094,232.5313 22.4063,232.5313 Q19.9063,232.5313 18.5781,230.8906 Q17.2656,229.2344 17.2656,226.1094 Q17.2656,222.9844 18.5781,221.3281 Q19.9063,219.6719 22.4063,219.6719 Q23.1094,219.6719 23.75,219.8281 Q24.4063,219.9844 24.9688,220.2813 L24.9688,223 Q24.3438,222.4219 23.75,222.1563 Q23.1563,221.875 22.5313,221.875 Q21.1875,221.875 20.5,222.9531 Q19.8125,224.0156 19.8125,226.1094 Q19.8125,228.2031 20.5,229.2813 Q21.1875,230.3438 22.5313,230.3438 Q23.1563,230.3438 23.75,230.0781 Q24.3438,229.7969 24.9688,229.2188 L24.9688,231.9375 Z " fill="#000000"/><text fill="#000000" font-family="sans-serif" font-size="14" lengthAdjust="spacing" textLength="107.9258" x="36" y="231.1436">Documentation</text><line style="stroke:#181818;stroke-width:0.5;" x1="8" x2="145.9258" y1="242.2969" y2="242.2969"/><line style="stroke:#181818;stroke-width:0.5;" x1="8" x2="145.9258" y1="250.2969" y2="250.2969"/></g><!--class UseCase--><g class="entity" data-entity="UseCase" data-source-line="9" data-uid="ent0005" id="entity_UseCase"><rect fill="#F1F1F1" height="48" rx="2.5" ry="2.5" style="stroke:#181818;stroke-width:0.5;" width="92.416" x="259" y="44.2969"/><ellipse cx="274" cy="60.2969" fill="#ADD1B2" rx="11" ry="11" style="stroke:#181818;stroke-width:1;"/><path d="M276.9688,65.9375 Q276.3906,66.2344 275.75,66.375 Q275.1094,66.5313 274.4063,66.5313 Q271.9063,66.5313 270.5781,64.8906 Q269.2656,63.2344 269.2656,60.1094 Q269.2656,56.9844 270.5781,55.3281 Q271.9063,53.6719 274.4063,53.6719 Q275.1094,53.6719 275.75,53.8281 Q276.4063,53.9844 276.9688,54.2813 L276.9688,57 Q276.3438,56.4219 275.75,56.1563 Q275.1563,55.875 274.5313,55.875 Q273.1875,55.875 272.5,56.9531 Q271.8125,58.0156 271.8125,60.1094 Q271.8125,62.2031 272.5,63.2813 Q273.1875,64.3438 274.5313,64.3438 Q275.1563,64.3438 275.75,64.0781 Q276.3438,63.7969 276.9688,63.2188 L276.9688,65.9375 Z " fill="#000000"/><text fill="#000000" font-family="sans-serif" font-size="14" lengthAdjust="spacing" textLength="60.416" x="288" y="65.1436">UseCase</text><line style="stroke:#181818;stroke-width:0.5;" x1="260" x2="350.416" y1="76.2969" y2="76.2969"/><line style="stroke:#181818;stroke-width:0.5;" x1="260" x2="350.416" y1="84.2969" y2="84.2969"/></g><!--class FunctionalRequirement--><g class="entity" data-entity="FunctionalRequirement" data-source-line="10" data-uid="ent0006" id="entity_FunctionalRequirement"><rect fill="#F1F1F1" height="48" rx="2.5" ry="2.5" style="stroke:#181818;stroke-width:0.5;" width="195.7549" x="207" y="127.2969"/><ellipse cx="222" cy="143.2969" fill="#ADD1B2" rx="11" ry="11" style="stroke:#181818;stroke-width:1;"/><path d="M224.9688,148.9375 Q224.3906,149.2344 223.75,149.375 Q223.1094,149.5313 222.4063,149.5313 Q219.9063,149.5313 218.5781,147.8906 Q217.2656,146.2344 217.2656,143.1094 Q217.2656,139.9844 218.5781,138.3281 Q219.9063,136.6719 222.4063,136.6719 Q223.1094,136.6719 223.75,136.8281 Q224.4063,136.9844 224.9688,137.2813 L224.9688,140 Q224.3438,139.4219 223.75,139.1563 Q223.1563,138.875 222.5313,138.875 Q221.1875,138.875 220.5,139.9531 Q219.8125,141.0156 219.8125,143.1094 Q219.8125,145.2031 220.5,146.2813 Q221.1875,147.3438 222.5313,147.3438 Q223.1563,147.3438 223.75,147.0781 Q224.3438,146.7969 224.9688,146.2188 L224.9688,148.9375 Z " fill="#000000"/><text fill="#000000" font-family="sans-serif" font-size="14" lengthAdjust="spacing" textLength="163.7549" x="236" y="148.1436">FunctionalRequirement</text><line style="stroke:#181818;stroke-width:0.5;" x1="208" x2="401.7549" y1="159.2969" y2="159.2969"/><line style="stroke:#181818;stroke-width:0.5;" x1="208" x2="401.7549" y1="167.2969" y2="167.2969"/></g><!--class GherkinScenario--><g class="entity" data-entity="GherkinScenario" data-source-line="11" data-uid="ent0007" id="entity_GherkinScenario"><rect fill="#F1F1F1" height="48" rx="2.5" ry="2.5" style="stroke:#181818;stroke-width:0.5;" width="147.8213" x="231" y="210.2969"/><ellipse cx="246" cy="226.2969" fill="#ADD1B2" rx="11" ry="11" style="stroke:#181818;stroke-width:1;"/><path d="M248.9688,231.9375 Q248.3906,232.2344 247.75,232.375 Q247.1094,232.5313 246.4063,232.5313 Q243.9063,232.5313 242.5781,230.8906 Q241.2656,229.2344 241.2656,226.1094 Q241.2656,222.9844 242.5781,221.3281 Q243.9063,219.6719 246.4063,219.6719 Q247.1094,219.6719 247.75,219.8281 Q248.4063,219.9844 248.9688,220.2813 L248.9688,223 Q248.3438,222.4219 247.75,222.1563 Q247.1563,221.875 246.5313,221.875 Q245.1875,221.875 244.5,222.9531 Q243.8125,224.0156 243.8125,226.1094 Q243.8125,228.2031 244.5,229.2813 Q245.1875,230.3438 246.5313,230.3438 Q247.1563,230.3438 247.75,230.0781 Q248.3438,229.7969 248.9688,229.2188 L248.9688,231.9375 Z " fill="#000000"/><text fill="#000000" font-family="sans-serif" font-size="14" lengthAdjust="spacing" textLength="115.8213" x="260" y="231.1436">GherkinScenario</text><line style="stroke:#181818;stroke-width:0.5;" x1="232" x2="377.8213" y1="242.2969" y2="242.2969"/><line style="stroke:#181818;stroke-width:0.5;" x1="232" x2="377.8213" y1="250.2969" y2="250.2969"/></g><!--class Draft--><g class="entity" data-entity="Draft" data-source-line="12" data-uid="ent0008" id="entity_Draft"><rect fill="#F1F1F1" height="48" rx="2.5" ry="2.5" style="stroke:#181818;stroke-width:0.5;" width="67.5332" x="463" y="44.2969"/><ellipse cx="478" cy="60.2969" fill="#ADD1B2" rx="11" ry="11" style="stroke:#181818;stroke-width:1;"/><path d="M480.9688,65.9375 Q480.3906,66.2344 479.75,66.375 Q479.1094,66.5313 478.4063,66.5313 Q475.9063,66.5313 474.5781,64.8906 Q473.2656,63.2344 473.2656,60.1094 Q473.2656,56.9844 474.5781,55.3281 Q475.9063,53.6719 478.4063,53.6719 Q479.1094,53.6719 479.75,53.8281 Q480.4063,53.9844 480.9688,54.2813 L480.9688,57 Q480.3438,56.4219 479.75,56.1563 Q479.1563,55.875 478.5313,55.875 Q477.1875,55.875 476.5,56.9531 Q475.8125,58.0156 475.8125,60.1094 Q475.8125,62.2031 476.5,63.2813 Q477.1875,64.3438 478.5313,64.3438 Q479.1563,64.3438 479.75,64.0781 Q480.3438,63.7969 480.9688,63.2188 L480.9688,65.9375 Z " fill="#000000"/><text fill="#000000" font-family="sans-serif" font-size="14" lengthAdjust="spacing" textLength="35.5332" x="492" y="65.1436">Draft</text><line style="stroke:#181818;stroke-width:0.5;" x1="464" x2="529.5332" y1="76.2969" y2="76.2969"/><line style="stroke:#181818;stroke-width:0.5;" x1="464" x2="529.5332" y1="84.2969" y2="84.2969"/></g><!--SRC=[JOvR2i9034N_kueimIs8LH6KWeCBYDFK1gSpccGGNBtJX-XVRixbS8qj49oQUdjiN1MeCx04mhVUe6KXRvnYfNUE3nGSG7jiqulZ3JeCId_41rHTcmbViz71f-ZuJR2gged0HKcMqv7gg9rJdNmUA1hQxrVA6opwEUrod7PWEDCpbrLZVM7xdgHiS9uY2gUlKx2p3m00]--></g></svg>