<svg xmlns="http://www.w3.org/2000/svg" xmlns:xlink="http://www.w3.org/1999/xlink" contentStyleType="text/css" data-diagram-type="DESCRIPTION" height="764px" preserveAspectRatio="none" style="width:1293px;height:764px;background:#FFFFFF;" version="1.1" viewBox="0 0 1293 764" width="1293px" zoomAndPan="magnify"><?plantuml 1.2026.7beta1?><defs/><g><g class="title" data-source-line="1"><text fill="#000000" font-family="sans-serif" font-size="14" font-weight="700" lengthAdjust="spacing" textLength="159.1611" x="563.8544" y="22.9951">CU-05 - Cerrar mesa</text></g><!--cluster Vista--><g class="cluster" data-qualified-name="Vista" data-source-line="10" id="ent0002"><path d="M1131.98,134.9469 L1173.0864,134.9469 A3.75,3.75 0 0 1 1175.5864,137.4469 L1182.5864,157.2437 L1276.37,157.2437 A2.5,2.5 0 0 1 1278.87,159.7437 L1278.87,310.4469 A2.5,2.5 0 0 1 1276.37,312.9469 L1131.98,312.9469 A2.5,2.5 0 0 1 1129.48,310.4469 L1129.48,137.4469 A2.5,2.5 0 0 1 1131.98,134.9469" fill="none" style="stroke:#000000;stroke-width:1.5;"/><line style="stroke:#000000;stroke-width:1.5;" x1="1129.48" x2="1182.5864" y1="157.2437" y2="157.2437"/><text fill="#000000" font-family="sans-serif" font-size="14" font-weight="700" lengthAdjust="spacing" textLength="40.1064" x="1133.48" y="149.942">Vista</text></g><!--cluster Controlador--><g class="cluster" data-qualified-name="Controlador" data-source-line="15" id="ent0005"><path d="M8.5,318.9469 L103.3643,318.9469 A3.75,3.75 0 0 1 105.8643,321.4469 L112.8643,341.2438 L220.57,341.2438 A2.5,2.5 0 0 1 223.07,343.7438 L223.07,429.4469 A2.5,2.5 0 0 1 220.57,431.9469 L8.5,431.9469 A2.5,2.5 0 0 1 6,429.4469 L6,321.4469 A2.5,2.5 0 0 1 8.5,318.9469" fill="none" style="stroke:#000000;stroke-width:1.5;"/><line style="stroke:#000000;stroke-width:1.5;" x1="6" x2="112.8643" y1="341.2438" y2="341.2438"/><text fill="#000000" font-family="sans-serif" font-size="14" font-weight="700" lengthAdjust="spacing" textLength="93.8643" x="10" y="333.942">Controlador</text></g><!--cluster Servicio--><g class="cluster" data-qualified-name="Servicio" data-source-line="19" id="ent0007"><path d="M389.57,134.9469 L453.693,134.9469 A3.75,3.75 0 0 1 456.193,137.4469 L463.193,157.2437 L927.98,157.2437 A2.5,2.5 0 0 1 930.48,159.7437 L930.48,235.4469 A2.5,2.5 0 0 1 927.98,237.9469 L389.57,237.9469 A2.5,2.5 0 0 1 387.07,235.4469 L387.07,137.4469 A2.5,2.5 0 0 1 389.57,134.9469" fill="none" style="stroke:#000000;stroke-width:1.5;"/><line style="stroke:#000000;stroke-width:1.5;" x1="387.07" x2="463.193" y1="157.2437" y2="157.2437"/><text fill="#000000" font-family="sans-serif" font-size="14" font-weight="700" lengthAdjust="spacing" textLength="63.123" x="391.07" y="149.942">Servicio</text></g><!--cluster Modelos--><g class="cluster" data-qualified-name="Modelos" data-source-line="24" id="ent0010"><path d="M767.05,261.9469 L833.8664,261.9469 A3.75,3.75 0 0 1 836.3664,264.4469 L843.3664,284.2438 L922.81,284.2438 A2.5,2.5 0 0 1 925.31,286.7438 L925.31,599.4469 A2.5,2.5 0 0 1 922.81,601.9469 L767.05,601.9469 A2.5,2.5 0 0 1 764.55,599.4469 L764.55,264.4469 A2.5,2.5 0 0 1 767.05,261.9469" fill="none" style="stroke:#000000;stroke-width:1.5;"/><line style="stroke:#000000;stroke-width:1.5;" x1="764.55" x2="843.3664" y1="284.2438" y2="284.2438"/><text fill="#000000" font-family="sans-serif" font-size="14" font-weight="700" lengthAdjust="spacing" textLength="65.8164" x="768.55" y="276.942">Modelos</text></g><!--entity CajaView--><g class="entity" data-qualified-name="Vista.CajaView" data-source-line="11" id="ent0003"><rect fill="#F1F1F1" height="46.2969" rx="2.5" ry="2.5" style="stroke:#181818;stroke-width:0.5;" width="104.3535" x="1152" y="250.7969"/><rect fill="#F1F1F1" height="10" style="stroke:#181818;stroke-width:0.5;" width="15" x="1236.3535" y="255.7969"/><rect fill="#F1F1F1" height="2" style="stroke:#181818;stroke-width:0.5;" width="4" x="1234.3535" y="257.7969"/><rect fill="#F1F1F1" height="2" style="stroke:#181818;stroke-width:0.5;" width="4" x="1234.3535" y="261.7969"/><text fill="#000000" font-family="sans-serif" font-size="14" lengthAdjust="spacing" textLength="64.3535" x="1167" y="283.792">CajaView</text></g><!--entity MesasView--><g class="entity" data-qualified-name="Vista.MesasView" data-source-line="12" id="ent0004"><rect fill="#F1F1F1" height="46.2969" rx="2.5" ry="2.5" style="stroke:#181818;stroke-width:0.5;" width="117.3896" x="1145.48" y="169.7969"/><rect fill="#F1F1F1" height="10" style="stroke:#181818;stroke-width:0.5;" width="15" x="1242.8696" y="174.7969"/><rect fill="#F1F1F1" height="2" style="stroke:#181818;stroke-width:0.5;" width="4" x="1240.8696" y="176.7969"/><rect fill="#F1F1F1" height="2" style="stroke:#181818;stroke-width:0.5;" width="4" x="1240.8696" y="180.7969"/><text fill="#000000" font-family="sans-serif" font-size="14" lengthAdjust="spacing" textLength="77.3896" x="1160.48" y="202.792">MesasView</text></g><!--entity Controller--><g class="entity" data-qualified-name="Controlador.Controller" data-source-line="16" id="ent0006"><rect fill="#F1F1F1" height="62.5938" rx="2.5" ry="2.5" style="stroke:#181818;stroke-width:0.5;" width="185.0723" x="22" y="353.6569"/><rect fill="#F1F1F1" height="10" style="stroke:#181818;stroke-width:0.5;" width="15" x="187.0723" y="358.6569"/><rect fill="#F1F1F1" height="2" style="stroke:#181818;stroke-width:0.5;" width="4" x="185.0723" y="360.6569"/><rect fill="#F1F1F1" height="2" style="stroke:#181818;stroke-width:0.5;" width="4" x="185.0723" y="364.6569"/><text fill="#000000" font-family="sans-serif" font-size="14" lengthAdjust="spacing" textLength="105.7383" x="37" y="386.652">MesaController</text><text fill="#000000" font-family="sans-serif" font-size="14" lengthAdjust="spacing" textLength="145.0723" x="37" y="402.9489">(CU-05 Cerrar mesa)</text></g><!--entity Service--><g class="entity" data-qualified-name="Servicio.Service" data-source-line="20" id="ent0008"><rect fill="#F1F1F1" height="46.2969" rx="2.5" ry="2.5" style="stroke:#181818;stroke-width:0.5;" width="128.3066" x="403.07" y="175.7969"/><rect fill="#F1F1F1" height="10" style="stroke:#181818;stroke-width:0.5;" width="15" x="511.3766" y="180.7969"/><rect fill="#F1F1F1" height="2" style="stroke:#181818;stroke-width:0.5;" width="4" x="509.3766" y="182.7969"/><rect fill="#F1F1F1" height="2" style="stroke:#181818;stroke-width:0.5;" width="4" x="509.3766" y="186.7969"/><text fill="#000000" font-family="sans-serif" font-size="14" lengthAdjust="spacing" textLength="88.3066" x="418.07" y="208.792">MesaService</text></g><!--entity Socket--><g class="entity" data-qualified-name="Servicio.Socket" data-source-line="21" id="ent0009"><rect fill="#F1F1F1" height="46.2969" rx="2.5" ry="2.5" style="stroke:#181818;stroke-width:0.5;" width="139.1006" x="775.38" y="169.7969"/><rect fill="#F1F1F1" height="10" style="stroke:#181818;stroke-width:0.5;" width="15" x="894.4806" y="174.7969"/><rect fill="#F1F1F1" height="2" style="stroke:#181818;stroke-width:0.5;" width="4" x="892.4806" y="176.7969"/><rect fill="#F1F1F1" height="2" style="stroke:#181818;stroke-width:0.5;" width="4" x="892.4806" y="180.7969"/><text fill="#000000" font-family="sans-serif" font-size="14" lengthAdjust="spacing" textLength="99.1006" x="790.38" y="202.792">SocketService</text></g><!--entity Mesa--><g class="entity" data-qualified-name="Modelos.Mesa" data-source-line="25" id="ent0011"><rect fill="#F1F1F1" height="46.2969" rx="2.5" ry="2.5" style="stroke:#181818;stroke-width:0.5;" width="76.5654" x="806.65" y="296.7969"/><rect fill="#F1F1F1" height="10" style="stroke:#181818;stroke-width:0.5;" width="15" x="863.2154" y="301.7969"/><rect fill="#F1F1F1" height="2" style="stroke:#181818;stroke-width:0.5;" width="4" x="861.2154" y="303.7969"/><rect fill="#F1F1F1" height="2" style="stroke:#181818;stroke-width:0.5;" width="4" x="861.2154" y="307.7969"/><text fill="#000000" font-family="sans-serif" font-size="14" lengthAdjust="spacing" textLength="36.5654" x="821.65" y="329.792">Mesa</text></g><!--entity Comanda--><g class="entity" data-qualified-name="Modelos.Comanda" data-source-line="26" id="ent0012"><rect fill="#F1F1F1" height="46.2969" rx="2.5" ry="2.5" style="stroke:#181818;stroke-width:0.5;" width="106.8965" x="791.48" y="539.7969"/><rect fill="#F1F1F1" height="10" style="stroke:#181818;stroke-width:0.5;" width="15" x="878.3765" y="544.7969"/><rect fill="#F1F1F1" height="2" style="stroke:#181818;stroke-width:0.5;" width="4" x="876.3765" y="546.7969"/><rect fill="#F1F1F1" height="2" style="stroke:#181818;stroke-width:0.5;" width="4" x="876.3765" y="550.7969"/><text fill="#000000" font-family="sans-serif" font-size="14" lengthAdjust="spacing" textLength="66.8965" x="806.48" y="572.792">Comanda</text></g><!--entity Ticket--><g class="entity" data-qualified-name="Modelos.Ticket" data-source-line="27" id="ent0013"><rect fill="#F1F1F1" height="46.2969" rx="2.5" ry="2.5" style="stroke:#181818;stroke-width:0.5;" width="82.3486" x="803.75" y="377.7969"/><rect fill="#F1F1F1" height="10" style="stroke:#181818;stroke-width:0.5;" width="15" x="866.0986" y="382.7969"/><rect fill="#F1F1F1" height="2" style="stroke:#181818;stroke-width:0.5;" width="4" x="864.0986" y="384.7969"/><rect fill="#F1F1F1" height="2" style="stroke:#181818;stroke-width:0.5;" width="4" x="864.0986" y="388.7969"/><text fill="#000000" font-family="sans-serif" font-size="14" lengthAdjust="spacing" textLength="42.3486" x="818.75" y="410.792">Ticket</text></g><!--entity Log--><g class="entity" data-qualified-name="Modelos.Log" data-source-line="28" id="ent0014"><rect fill="#F1F1F1" height="46.2969" rx="2.5" ry="2.5" style="stroke:#181818;stroke-width:0.5;" width="128.7578" x="780.55" y="458.7969"/><rect fill="#F1F1F1" height="10" style="stroke:#181818;stroke-width:0.5;" width="15" x="889.3078" y="463.7969"/><rect fill="#F1F1F1" height="2" style="stroke:#181818;stroke-width:0.5;" width="4" x="887.3078" y="465.7969"/><rect fill="#F1F1F1" height="2" style="stroke:#181818;stroke-width:0.5;" width="4" x="887.3078" y="469.7969"/><text fill="#000000" font-family="sans-serif" font-size="14" lengthAdjust="spacing" textLength="88.7578" x="795.55" y="491.792">LogAuditoria</text></g><!--entity Actor--><g class="entity" data-qualified-name="Actor" data-source-line="8" id="ent0001"><ellipse cx="844.93" cy="51.2969" fill="#F1F1F1" rx="8" ry="8" style="stroke:#181818;stroke-width:0.5;"/><path d="M844.93,59.2969 L844.93,86.2969 M831.93,67.2969 L857.93,67.2969 M844.93,86.2969 L831.93,101.2969 M844.93,86.2969 L857.93,101.2969" fill="none" style="stroke:#181818;stroke-width:0.5;"/><text fill="#000000" font-family="sans-serif" font-size="14" lengthAdjust="spacing" textLength="99.0801" x="795.39" y="115.792">Administrador</text></g><!--link Actor to CajaView--><g class="link" data-entity-1="ent0001" data-entity-2="ent0003" data-link-type="dependency" data-source-line="31" id="lnk15"><path d="M894.87,81.8569 C956.18,85.8569 1059.71,102.6069 1113.48,167.9469 C1132.25,190.7669 1104.36,209.8669 1121.48,233.9469 C1128.98,244.5069 1135.5979,250.1408 1147.1879,256.0008" fill="none" id="Actor-to-CajaView" style="stroke:#181818;stroke-width:1;"/><polygon fill="#181818" points="1151.65,258.2569,1145.4231,250.6263,1147.1879,256.0008,1141.8134,257.7656,1151.65,258.2569" style="stroke:#181818;stroke-width:1;stroke-linejoin:miter;stroke-miterlimit:10;"/><text fill="#000000" font-family="sans-serif" font-size="13" lengthAdjust="spacing" textLength="128.5845" x="965.98" y="85.0138">solicita cerrar mesa</text></g><!--link CajaView to Controller--><g class="link" data-entity-1="ent0003" data-entity-2="ent0006" data-link-type="dependency" data-source-line="32" id="lnk16"><path d="M1192.46,297.5269 C1162.64,360.0869 1071.96,530.3469 938.48,601.9469 C664.07,749.1569 287.8038,509.8298 161.9238,419.5998" fill="none" id="CajaView-to-Controller" style="stroke:#181818;stroke-width:1;"/><polygon fill="#181818" points="157.86,416.6869,162.8446,425.1812,161.9238,419.5998,167.5053,418.6791,157.86,416.6869" style="stroke:#181818;stroke-width:1;stroke-linejoin:miter;stroke-miterlimit:10;"/><text fill="#000000" font-family="sans-serif" font-size="13" lengthAdjust="spacing" textLength="182.5713" x="562.38" y="618.0138">PATCH /api/mesas/:id/cerrar</text></g><!--link Controller to Service--><g class="link" data-entity-1="ent0006" data-entity-2="ent0008" data-link-type="dependency" data-source-line="33" id="lnk17"><path d="M175.42,353.1869 C245.36,316.0969 354.9929,257.9498 417.4529,224.8198" fill="none" id="Controller-to-Service" style="stroke:#181818;stroke-width:1;"/><polygon fill="#181818" points="421.87,222.4769,412.0449,223.1604,417.4529,224.8198,415.7936,230.2278,421.87,222.4769" style="stroke:#181818;stroke-width:1;stroke-linejoin:miter;stroke-miterlimit:10;"/><text fill="#000000" font-family="sans-serif" font-size="13" lengthAdjust="spacing" textLength="130.73" x="240.07" y="250.0138">cerrarMesa(mesaId)</text></g><!--link Service to Mesa--><g class="link" data-entity-1="ent0008" data-entity-2="ent0011" data-link-type="dependency" data-source-line="34" id="lnk18"><path d="M531.53,219.3369 C610.17,244.6669 737.0209,285.5137 801.4009,306.2537" fill="none" id="Service-to-Mesa" style="stroke:#181818;stroke-width:1;"/><polygon fill="#181818" points="806.16,307.7869,798.8201,301.2199,801.4009,306.2537,796.367,308.8345,806.16,307.7869" style="stroke:#181818;stroke-width:1;stroke-linejoin:miter;stroke-miterlimit:10;"/><text fill="#000000" font-family="sans-serif" font-size="13" lengthAdjust="spacing" textLength="148.5923" x="579.38" y="228.0138">obtiene mesa ocupada</text></g><!--link Service to Mesa--><g class="link" data-entity-1="ent0008" data-entity-2="ent0011" data-link-type="dependency" data-source-line="38" id="lnk22"><path d="M479.49,222.4369 C494.08,249.8469 522.35,293.8469 561.38,312.9469 C641.37,352.1069 745.049,340.1959 801.479,329.4059" fill="none" id="Service-to-Mesa-1" style="stroke:#181818;stroke-width:1;"/><polygon fill="#181818" points="806.39,328.4669,796.7989,326.2283,801.479,329.4059,798.3014,334.086,806.39,328.4669" style="stroke:#181818;stroke-width:1;stroke-linejoin:miter;stroke-miterlimit:10;"/><text fill="#000000" font-family="sans-serif" font-size="13" lengthAdjust="spacing" textLength="76.3179" x="615.38" y="309.0138">libera mesa</text></g><!--link Service to Comanda--><g class="link" data-entity-1="ent0008" data-entity-2="ent0012" data-link-type="dependency" data-source-line="35" id="lnk19"><path d="M470.65,222.4169 C478.73,295.4569 507.31,516.4769 561.38,558.9469 C626.67,610.2369 724.287,596.6999 786.237,580.7999" fill="none" id="Service-to-Comanda" style="stroke:#181818;stroke-width:1;"/><polygon fill="#181818" points="791.08,579.5569,781.3681,577.9199,786.237,580.7999,783.357,585.6687,791.08,579.5569" style="stroke:#181818;stroke-width:1;stroke-linejoin:miter;stroke-miterlimit:10;"/><text fill="#000000" font-family="sans-serif" font-size="13" lengthAdjust="spacing" textLength="181.7524" x="562.88" y="555.0138">comprueba comanda activa</text></g><!--link Service to Comanda--><g class="link" data-entity-1="ent0008" data-entity-2="ent0012" data-link-type="dependency" data-source-line="37" id="lnk21"><path d="M468.19,222.2969 C469.43,278.3769 480.79,421.5269 561.38,495.9469 C623,552.8569 663.83,518.2969 745.38,537.9469 C760.22,541.5269 771.444,544.3057 786.204,548.0557" fill="none" id="Service-to-Comanda-1" style="stroke:#181818;stroke-width:1;"/><polygon fill="#181818" points="791.05,549.2869,783.3121,543.1939,786.204,548.0557,781.3422,550.9475,791.05,549.2869" style="stroke:#181818;stroke-width:1;stroke-linejoin:miter;stroke-miterlimit:10;"/><text fill="#000000" font-family="sans-serif" font-size="13" lengthAdjust="spacing" textLength="137.814" x="584.88" y="492.0138">actualiza a CERRADA</text></g><!--link Service to Ticket--><g class="link" data-entity-1="ent0008" data-entity-2="ent0013" data-link-type="dependency" data-source-line="36" id="lnk20"><path d="M474.13,222.5869 C484.75,259.6869 510.82,330.8669 561.38,364.9469 C635.19,414.6969 739.9145,412.7808 798.5445,406.9608" fill="none" id="Service-to-Ticket" style="stroke:#181818;stroke-width:1;"/><polygon fill="#181818" points="803.52,406.4669,794.1689,403.3755,798.5445,406.9608,794.9591,411.3363,803.52,406.4669" style="stroke:#181818;stroke-width:1;stroke-linejoin:miter;stroke-miterlimit:10;"/><text fill="#000000" font-family="sans-serif" font-size="13" lengthAdjust="spacing" textLength="150.2427" x="578.38" y="361.0138">valida ticket COBRADO</text></g><!--link Service to Log--><g class="link" data-entity-1="ent0008" data-entity-2="ent0014" data-link-type="dependency" data-source-line="39" id="lnk23"><path d="M470.07,222.4469 C475.21,270.6069 494.07,380.5369 561.38,434.9469 C578.18,448.5269 697.3658,464.7296 775.4058,474.1196" fill="none" id="Service-to-Log" style="stroke:#181818;stroke-width:1;"/><polygon fill="#181818" points="780.37,474.7169,771.9123,469.6704,775.4058,474.1196,770.9566,477.6131,780.37,474.7169" style="stroke:#181818;stroke-width:1;stroke-linejoin:miter;stroke-miterlimit:10;"/><text fill="#000000" font-family="sans-serif" font-size="13" lengthAdjust="spacing" textLength="91.9648" x="607.88" y="431.0138">registra cierre</text></g><!--link Service to Socket--><g class="link" data-entity-1="ent0008" data-entity-2="ent0009" data-link-type="dependency" data-source-line="40" id="lnk24"><path d="M531.53,197.9369 C598.98,196.8569 700.4006,195.2367 769.9406,194.1267" fill="none" id="Service-to-Socket" style="stroke:#181818;stroke-width:1;"/><polygon fill="#181818" points="774.94,194.0469,765.8773,190.191,769.9406,194.1267,766.005,198.19,774.94,194.0469" style="stroke:#181818;stroke-width:1;stroke-linejoin:miter;stroke-miterlimit:10;"/><text fill="#000000" font-family="sans-serif" font-size="13" lengthAdjust="spacing" textLength="155.9302" x="575.88" y="191.0138">emite mesa:actualizada</text></g><!--link Socket to MesasView--><g class="link" data-entity-1="ent0009" data-entity-2="ent0004" data-link-type="dependency" data-source-line="41" id="lnk25"><path d="M914.81,192.9469 C981.72,192.9469 1077.17,192.9469 1140.13,192.9469" fill="none" id="Socket-to-MesasView" style="stroke:#181818;stroke-width:1;"/><polygon fill="#181818" points="1145.13,192.9469,1136.13,188.9469,1140.13,192.9469,1136.13,196.9469,1145.13,192.9469" style="stroke:#181818;stroke-width:1;stroke-linejoin:miter;stroke-miterlimit:10;"/><text fill="#000000" font-family="sans-serif" font-size="13" lengthAdjust="spacing" textLength="165.2739" x="947.48" y="189.0138">actualiza plano de mesas</text></g><?plantuml-src TPCzRzim48Pt_eg3fcGm71Jeug60gXP8WGOfuZHJbxDqaQ-cI86aRBH1_tkFfAn8gRkHV9zxxuDauA09gk-hc_UmWegSGmSTULHAqtE0OC5nkm_GiACwi3NA7zZqwB03lyV6djYqy8pQqqpPONredHrCKrbj7Pps7EPwRRlU6Z9X6tv9_g7JxvJ2EWXQb4t7XdrmOkuAG0zb59JgnHHRWk99L2pWHS6h4HGL_iGdfbCAEM-Mo9qqvYTcsga_C_FAck2ipibV_eqVTKtkXxdAWvkDxJfddvY5zPRSaMks5tspI2b-N2-XhQqF51POEbcakBCDQUilPfYQVZCtsw5fS2myhPV08ySqIS_BfVpLjkNGi5mHPnCvY3MbMuFLwiDq6R01RxLC823KiwSswGcUPYVuj_AnkeKrzhoEf5zlk5ddK3K3Ozmu60dAUcpqAWPzQQxLMOnW58Ioky1aA5K0jXvwbBxdt3YBQ2ZDke5s65VfJ9ug7vTu7etGHzGiICZxwlxZG_df_Z_EuZC8_biSeVhy86HvgLRDEtAOXpMNPTAYEchJTu6QfNDQ4Fc924IT_C3ai9cIneQpVixbnsjwhQlNQ2mqETJ_1G00?></g></svg>