<svg xmlns="http://www.w3.org/2000/svg" xmlns:xlink="http://www.w3.org/1999/xlink" contentStyleType="text/css" data-diagram-type="DESCRIPTION" height="784px" preserveAspectRatio="none" style="width:1325px;height:784px;background:#FFFFFF;" version="1.1" viewBox="0 0 1325 784" width="1325px" zoomAndPan="magnify"><?plantuml 1.2026.7beta1?><defs/><g><g class="title" data-source-line="1"><text fill="#000000" font-family="sans-serif" font-size="14" font-weight="700" lengthAdjust="spacing" textLength="227.0283" x="545.9358" y="22.9951">CU-17 - Cobrar ticket en caja</text></g><!--cluster Vista--><g class="cluster" data-qualified-name="Vista" data-source-line="10" id="ent0002"><path d="M1164.01,134.9469 L1205.1164,134.9469 A3.75,3.75 0 0 1 1207.6164,137.4469 L1214.6164,157.2437 L1308.4,157.2437 A2.5,2.5 0 0 1 1310.9,159.7437 L1310.9,310.4469 A2.5,2.5 0 0 1 1308.4,312.9469 L1164.01,312.9469 A2.5,2.5 0 0 1 1161.51,310.4469 L1161.51,137.4469 A2.5,2.5 0 0 1 1164.01,134.9469" fill="none" style="stroke:#000000;stroke-width:1.5;"/><line style="stroke:#000000;stroke-width:1.5;" x1="1161.51" x2="1214.6164" y1="157.2437" y2="157.2437"/><text fill="#000000" font-family="sans-serif" font-size="14" font-weight="700" lengthAdjust="spacing" textLength="40.1064" x="1165.51" y="149.942">Vista</text></g><!--cluster Controlador--><g class="cluster" data-qualified-name="Controlador" data-source-line="15" id="ent0005"><path d="M8.5,318.9469 L103.3643,318.9469 A3.75,3.75 0 0 1 105.8643,321.4469 L112.8643,341.2438 L224.82,341.2438 A2.5,2.5 0 0 1 227.32,343.7438 L227.32,429.4469 A2.5,2.5 0 0 1 224.82,431.9469 L8.5,431.9469 A2.5,2.5 0 0 1 6,429.4469 L6,321.4469 A2.5,2.5 0 0 1 8.5,318.9469" fill="none" style="stroke:#000000;stroke-width:1.5;"/><line style="stroke:#000000;stroke-width:1.5;" x1="6" x2="112.8643" y1="341.2438" y2="341.2438"/><text fill="#000000" font-family="sans-serif" font-size="14" font-weight="700" lengthAdjust="spacing" textLength="93.8643" x="10" y="333.942">Controlador</text></g><!--cluster Servicio--><g class="cluster" data-qualified-name="Servicio" data-source-line="19" id="ent0007"><path d="M403.82,134.9469 L467.943,134.9469 A3.75,3.75 0 0 1 470.443,137.4469 L477.443,157.2437 L958.01,157.2437 A2.5,2.5 0 0 1 960.51,159.7437 L960.51,235.4469 A2.5,2.5 0 0 1 958.01,237.9469 L403.82,237.9469 A2.5,2.5 0 0 1 401.32,235.4469 L401.32,137.4469 A2.5,2.5 0 0 1 403.82,134.9469" fill="none" style="stroke:#000000;stroke-width:1.5;"/><line style="stroke:#000000;stroke-width:1.5;" x1="401.32" x2="477.443" y1="157.2437" y2="157.2437"/><text fill="#000000" font-family="sans-serif" font-size="14" font-weight="700" lengthAdjust="spacing" textLength="63.123" x="405.32" y="149.942">Servicio</text></g><!--cluster Modelos--><g class="cluster" data-qualified-name="Modelos" data-source-line="24" id="ent0010"><path d="M797.08,261.9469 L863.8964,261.9469 A3.75,3.75 0 0 1 866.3964,264.4469 L873.3964,284.2438 L952.84,284.2438 A2.5,2.5 0 0 1 955.34,286.7438 L955.34,599.4469 A2.5,2.5 0 0 1 952.84,601.9469 L797.08,601.9469 A2.5,2.5 0 0 1 794.58,599.4469 L794.58,264.4469 A2.5,2.5 0 0 1 797.08,261.9469" fill="none" style="stroke:#000000;stroke-width:1.5;"/><line style="stroke:#000000;stroke-width:1.5;" x1="794.58" x2="873.3964" y1="284.2438" y2="284.2438"/><text fill="#000000" font-family="sans-serif" font-size="14" font-weight="700" lengthAdjust="spacing" textLength="65.8164" x="798.58" y="276.942">Modelos</text></g><!--entity CajaView--><g class="entity" data-qualified-name="Vista.CajaView" data-source-line="11" id="ent0003"><rect fill="#F1F1F1" height="46.2969" rx="2.5" ry="2.5" style="stroke:#181818;stroke-width:0.5;" width="104.3535" x="1184.03" y="169.7969"/><rect fill="#F1F1F1" height="10" style="stroke:#181818;stroke-width:0.5;" width="15" x="1268.3835" y="174.7969"/><rect fill="#F1F1F1" height="2" style="stroke:#181818;stroke-width:0.5;" width="4" x="1266.3835" y="176.7969"/><rect fill="#F1F1F1" height="2" style="stroke:#181818;stroke-width:0.5;" width="4" x="1266.3835" y="180.7969"/><text fill="#000000" font-family="sans-serif" font-size="14" lengthAdjust="spacing" textLength="64.3535" x="1199.03" y="202.792">CajaView</text></g><!--entity MesasView--><g class="entity" data-qualified-name="Vista.MesasView" data-source-line="12" id="ent0004"><rect fill="#F1F1F1" height="46.2969" rx="2.5" ry="2.5" style="stroke:#181818;stroke-width:0.5;" width="117.3896" x="1177.51" y="250.7969"/><rect fill="#F1F1F1" height="10" style="stroke:#181818;stroke-width:0.5;" width="15" x="1274.8996" y="255.7969"/><rect fill="#F1F1F1" height="2" style="stroke:#181818;stroke-width:0.5;" width="4" x="1272.8996" y="257.7969"/><rect fill="#F1F1F1" height="2" style="stroke:#181818;stroke-width:0.5;" width="4" x="1272.8996" y="261.7969"/><text fill="#000000" font-family="sans-serif" font-size="14" lengthAdjust="spacing" textLength="77.3896" x="1192.51" y="283.792">MesasView</text></g><!--entity Controller--><g class="entity" data-qualified-name="Controlador.Controller" data-source-line="16" id="ent0006"><rect fill="#F1F1F1" height="62.5938" rx="2.5" ry="2.5" style="stroke:#181818;stroke-width:0.5;" width="189.3174" x="22" y="353.6469"/><rect fill="#F1F1F1" height="10" style="stroke:#181818;stroke-width:0.5;" width="15" x="191.3174" y="358.6469"/><rect fill="#F1F1F1" height="2" style="stroke:#181818;stroke-width:0.5;" width="4" x="189.3174" y="360.6469"/><rect fill="#F1F1F1" height="2" style="stroke:#181818;stroke-width:0.5;" width="4" x="189.3174" y="364.6469"/><text fill="#000000" font-family="sans-serif" font-size="14" lengthAdjust="spacing" textLength="111.5215" x="37" y="386.642">TicketController</text><text fill="#000000" font-family="sans-serif" font-size="14" lengthAdjust="spacing" textLength="149.3174" x="37" y="402.9389">(CU-17 Cobrar ticket)</text></g><!--entity Service--><g class="entity" data-qualified-name="Servicio.Service" data-source-line="20" id="ent0008"><rect fill="#F1F1F1" height="46.2969" rx="2.5" ry="2.5" style="stroke:#181818;stroke-width:0.5;" width="134.0898" x="417.32" y="175.7969"/><rect fill="#F1F1F1" height="10" style="stroke:#181818;stroke-width:0.5;" width="15" x="531.4098" y="180.7969"/><rect fill="#F1F1F1" height="2" style="stroke:#181818;stroke-width:0.5;" width="4" x="529.4098" y="182.7969"/><rect fill="#F1F1F1" height="2" style="stroke:#181818;stroke-width:0.5;" width="4" x="529.4098" y="186.7969"/><text fill="#000000" font-family="sans-serif" font-size="14" lengthAdjust="spacing" textLength="94.0898" x="432.32" y="208.792">TicketService</text></g><!--entity Socket--><g class="entity" data-qualified-name="Servicio.Socket" data-source-line="21" id="ent0009"><rect fill="#F1F1F1" height="46.2969" rx="2.5" ry="2.5" style="stroke:#181818;stroke-width:0.5;" width="139.1006" x="805.41" y="169.7969"/><rect fill="#F1F1F1" height="10" style="stroke:#181818;stroke-width:0.5;" width="15" x="924.5106" y="174.7969"/><rect fill="#F1F1F1" height="2" style="stroke:#181818;stroke-width:0.5;" width="4" x="922.5106" y="176.7969"/><rect fill="#F1F1F1" height="2" style="stroke:#181818;stroke-width:0.5;" width="4" x="922.5106" y="180.7969"/><text fill="#000000" font-family="sans-serif" font-size="14" lengthAdjust="spacing" textLength="99.1006" x="820.41" y="202.792">SocketService</text></g><!--entity Ticket--><g class="entity" data-qualified-name="Modelos.Ticket" data-source-line="25" id="ent0011"><rect fill="#F1F1F1" height="46.2969" rx="2.5" ry="2.5" style="stroke:#181818;stroke-width:0.5;" width="82.3486" x="833.78" y="296.7969"/><rect fill="#F1F1F1" height="10" style="stroke:#181818;stroke-width:0.5;" width="15" x="896.1286" y="301.7969"/><rect fill="#F1F1F1" height="2" style="stroke:#181818;stroke-width:0.5;" width="4" x="894.1286" y="303.7969"/><rect fill="#F1F1F1" height="2" style="stroke:#181818;stroke-width:0.5;" width="4" x="894.1286" y="307.7969"/><text fill="#000000" font-family="sans-serif" font-size="14" lengthAdjust="spacing" textLength="42.3486" x="848.78" y="329.792">Ticket</text></g><!--entity Comanda--><g class="entity" data-qualified-name="Modelos.Comanda" data-source-line="26" id="ent0012"><rect fill="#F1F1F1" height="46.2969" rx="2.5" ry="2.5" style="stroke:#181818;stroke-width:0.5;" width="106.8965" x="821.51" y="377.7969"/><rect fill="#F1F1F1" height="10" style="stroke:#181818;stroke-width:0.5;" width="15" x="908.4065" y="382.7969"/><rect fill="#F1F1F1" height="2" style="stroke:#181818;stroke-width:0.5;" width="4" x="906.4065" y="384.7969"/><rect fill="#F1F1F1" height="2" style="stroke:#181818;stroke-width:0.5;" width="4" x="906.4065" y="388.7969"/><text fill="#000000" font-family="sans-serif" font-size="14" lengthAdjust="spacing" textLength="66.8965" x="836.51" y="410.792">Comanda</text></g><!--entity Usuario--><g class="entity" data-qualified-name="Modelos.Usuario" data-source-line="27" id="ent0013"><rect fill="#F1F1F1" height="46.2969" rx="2.5" ry="2.5" style="stroke:#181818;stroke-width:0.5;" width="93.2041" x="828.36" y="458.7969"/><rect fill="#F1F1F1" height="10" style="stroke:#181818;stroke-width:0.5;" width="15" x="901.5641" y="463.7969"/><rect fill="#F1F1F1" height="2" style="stroke:#181818;stroke-width:0.5;" width="4" x="899.5641" y="465.7969"/><rect fill="#F1F1F1" height="2" style="stroke:#181818;stroke-width:0.5;" width="4" x="899.5641" y="469.7969"/><text fill="#000000" font-family="sans-serif" font-size="14" lengthAdjust="spacing" textLength="53.2041" x="843.36" y="491.792">Usuario</text></g><!--entity Log--><g class="entity" data-qualified-name="Modelos.Log" data-source-line="28" id="ent0014"><rect fill="#F1F1F1" height="46.2969" rx="2.5" ry="2.5" style="stroke:#181818;stroke-width:0.5;" width="128.7578" x="810.58" y="539.7969"/><rect fill="#F1F1F1" height="10" style="stroke:#181818;stroke-width:0.5;" width="15" x="919.3378" y="544.7969"/><rect fill="#F1F1F1" height="2" style="stroke:#181818;stroke-width:0.5;" width="4" x="917.3378" y="546.7969"/><rect fill="#F1F1F1" height="2" style="stroke:#181818;stroke-width:0.5;" width="4" x="917.3378" y="550.7969"/><text fill="#000000" font-family="sans-serif" font-size="14" lengthAdjust="spacing" textLength="88.7578" x="825.58" y="572.792">LogAuditoria</text></g><!--entity Actor--><g class="entity" data-qualified-name="Actor" data-source-line="8" id="ent0001"><ellipse cx="874.96" cy="51.2969" fill="#F1F1F1" rx="8" ry="8" style="stroke:#181818;stroke-width:0.5;"/><path d="M874.96,59.2969 L874.96,86.2969 M861.96,67.2969 L887.96,67.2969 M874.96,86.2969 L861.96,101.2969 M874.96,86.2969 L887.96,101.2969" fill="none" style="stroke:#181818;stroke-width:0.5;"/><text fill="#000000" font-family="sans-serif" font-size="14" lengthAdjust="spacing" textLength="99.0801" x="825.42" y="115.792">Administrador</text></g><!--link Actor to CajaView--><g class="link" data-entity-1="ent0001" data-entity-2="ent0003" data-link-type="dependency" data-source-line="31" id="lnk15"><path d="M924.78,96.1669 C992.5,117.2769 1109.6264,153.7992 1178.8064,175.3592" fill="none" id="Actor-to-CajaView" style="stroke:#181818;stroke-width:1;"/><polygon fill="#181818" points="1183.58,176.8469,1176.1778,170.3502,1178.8064,175.3592,1173.7975,177.9879,1183.58,176.8469" style="stroke:#181818;stroke-width:1;stroke-linejoin:miter;stroke-miterlimit:10;"/><text fill="#000000" font-family="sans-serif" font-size="13" lengthAdjust="spacing" textLength="98.2871" x="1012.01" y="111.0138">confirma cobro</text></g><!--link CajaView to Controller--><g class="link" data-entity-1="ent0003" data-entity-2="ent0006" data-link-type="dependency" data-source-line="32" id="lnk16"><path d="M1183.83,209.8269 C1172.52,215.6169 1161.53,223.1869 1153.51,232.9469 C1144.74,243.6069 1150.51,250.0869 1145.51,262.9469 C1083.9,421.3569 1113.87,513.8569 968.51,601.9469 C691.79,769.6369 293.0929,513.025 163.5229,419.415" fill="none" id="CajaView-to-Controller" style="stroke:#181818;stroke-width:1;"/><polygon fill="#181818" points="159.47,416.4869,164.4228,424.9998,163.5229,419.415,169.1077,418.5151,159.47,416.4869" style="stroke:#181818;stroke-width:1;stroke-linejoin:miter;stroke-miterlimit:10;"/><text fill="#000000" font-family="sans-serif" font-size="13" lengthAdjust="spacing" textLength="186.5132" x="585.41" y="628.0138">PATCH /api/tickets/:id/cobrar</text></g><!--link Controller to Service--><g class="link" data-entity-1="ent0006" data-entity-2="ent0008" data-link-type="dependency" data-source-line="33" id="lnk17"><path d="M180.11,353.1769 C253.04,316.0869 367.5133,257.8635 432.6533,224.7335" fill="none" id="Controller-to-Service" style="stroke:#181818;stroke-width:1;"/><polygon fill="#181818" points="437.11,222.4669,427.2746,222.9815,432.6533,224.7335,430.9013,230.1122,437.11,222.4669" style="stroke:#181818;stroke-width:1;stroke-linejoin:miter;stroke-miterlimit:10;"/><text fill="#000000" font-family="sans-serif" font-size="13" lengthAdjust="spacing" textLength="140.042" x="244.32" y="245.0138">cobrarTicket(ticketId)</text></g><!--link Service to Ticket--><g class="link" data-entity-1="ent0008" data-entity-2="ent0011" data-link-type="dependency" data-source-line="34" id="lnk18"><path d="M551.72,219.6069 C632.58,244.7869 761.8761,285.0403 828.7061,305.8503" fill="none" id="Service-to-Ticket" style="stroke:#181818;stroke-width:1;"/><polygon fill="#181818" points="833.48,307.3369,826.0762,300.842,828.7061,305.8503,823.6977,308.4802,833.48,307.3369" style="stroke:#181818;stroke-width:1;stroke-linejoin:miter;stroke-miterlimit:10;"/><text fill="#000000" font-family="sans-serif" font-size="13" lengthAdjust="spacing" textLength="165.1216" x="595.91" y="228.0138">valida estado PENDIENTE</text></g><!--link Service to Ticket--><g class="link" data-entity-1="ent0008" data-entity-2="ent0011" data-link-type="dependency" data-source-line="37" id="lnk21"><path d="M497.17,222.4569 C512.4,249.8869 541.74,293.9169 581.41,312.9469 C663.86,352.4969 770.085,340.8051 828.805,329.8351" fill="none" id="Service-to-Ticket-1" style="stroke:#181818;stroke-width:1;"/><polygon fill="#181818" points="833.72,328.9169,824.1385,326.6377,828.805,329.8351,825.6076,334.5016,833.72,328.9169" style="stroke:#181818;stroke-width:1;stroke-linejoin:miter;stroke-miterlimit:10;"/><text fill="#000000" font-family="sans-serif" font-size="13" lengthAdjust="spacing" textLength="141.0576" x="607.91" y="309.0138">actualiza a COBRADO</text></g><!--link Service to Usuario--><g class="link" data-entity-1="ent0008" data-entity-2="ent0013" data-link-type="dependency" data-source-line="35" id="lnk19"><path d="M487.4,222.2469 C492.95,270.5369 512.9,381.5769 581.41,435.9469 C652.69,492.5169 760.267,493.2586 822.957,488.0786" fill="none" id="Service-to-Usuario" style="stroke:#181818;stroke-width:1;"/><polygon fill="#181818" points="827.94,487.6669,818.6412,484.4216,822.957,488.0786,819.3,492.3944,827.94,487.6669" style="stroke:#181818;stroke-width:1;stroke-linejoin:miter;stroke-miterlimit:10;"/><text fill="#000000" font-family="sans-serif" font-size="13" lengthAdjust="spacing" textLength="156.0254" x="600.41" y="432.0138">asocia usuario cobrador</text></g><!--link Service to Comanda--><g class="link" data-entity-1="ent0008" data-entity-2="ent0012" data-link-type="dependency" data-source-line="36" id="lnk20"><path d="M491.57,222.3269 C502.75,259.4069 530.03,330.9669 581.41,364.9469 C653.75,412.7969 753.5678,413.4882 816.1278,408.1982" fill="none" id="Service-to-Comanda" style="stroke:#181818;stroke-width:1;"/><polygon fill="#181818" points="821.11,407.7769,811.805,404.5494,816.1278,408.1982,812.479,412.521,821.11,407.7769" style="stroke:#181818;stroke-width:1;stroke-linejoin:miter;stroke-miterlimit:10;"/><text fill="#000000" font-family="sans-serif" font-size="13" lengthAdjust="spacing" textLength="192.9941" x="582.41" y="361.0138">mantiene comanda vinculada</text></g><!--link Service to Log--><g class="link" data-entity-1="ent0008" data-entity-2="ent0014" data-link-type="dependency" data-source-line="38" id="lnk22"><path d="M484.75,222.3569 C484.58,281.4569 492.97,437.5069 581.41,514.9469 C644.23,569.9569 739.9495,574.8255 805.2795,570.7855" fill="none" id="Service-to-Log" style="stroke:#181818;stroke-width:1;"/><polygon fill="#181818" points="810.27,570.4769,801.0403,567.04,805.2795,570.7855,801.534,575.0247,810.27,570.4769" style="stroke:#181818;stroke-width:1;stroke-linejoin:miter;stroke-miterlimit:10;"/><text fill="#000000" font-family="sans-serif" font-size="13" lengthAdjust="spacing" textLength="91.1714" x="632.91" y="511.0138">registra cobro</text></g><!--link Service to Socket--><g class="link" data-entity-1="ent0008" data-entity-2="ent0009" data-link-type="dependency" data-source-line="39" id="lnk23"><path d="M551.72,197.9169 C622.28,196.8269 728.3606,195.1944 799.9306,194.0844" fill="none" id="Service-to-Socket" style="stroke:#181818;stroke-width:1;"/><polygon fill="#181818" points="804.93,194.0069,795.8691,190.1469,799.9306,194.0844,795.9931,198.146,804.93,194.0069" style="stroke:#181818;stroke-width:1;stroke-linejoin:miter;stroke-miterlimit:10;"/><text fill="#000000" font-family="sans-serif" font-size="13" lengthAdjust="spacing" textLength="135.2305" x="610.91" y="191.0138">emite ticket:cobrado</text></g><!--link Socket to CajaView--><g class="link" data-entity-1="ent0009" data-entity-2="ent0003" data-link-type="dependency" data-source-line="40" id="lnk24"><path d="M944.8,192.9469 C1014.58,192.9469 1115.95,192.9469 1178.74,192.9469" fill="none" id="Socket-to-CajaView" style="stroke:#181818;stroke-width:1;"/><polygon fill="#181818" points="1183.74,192.9469,1174.74,188.9469,1178.74,192.9469,1174.74,196.9469,1183.74,192.9469" style="stroke:#181818;stroke-width:1;stroke-linejoin:miter;stroke-miterlimit:10;"/><text fill="#000000" font-family="sans-serif" font-size="13" lengthAdjust="spacing" textLength="89.2544" x="1016.51" y="189.0138">actualiza caja</text></g><!--link Socket to MesasView--><g class="link" data-entity-1="ent0009" data-entity-2="ent0004" data-link-type="dependency" data-source-line="41" id="lnk25"><path d="M944.85,210.3669 C955.44,212.9669 966.26,215.5669 976.51,217.9469 C1045.21,233.9169 1119.6366,249.8399 1172.1466,260.8599" fill="none" id="Socket-to-MesasView" style="stroke:#181818;stroke-width:1;"/><polygon fill="#181818" points="1177.04,261.8869,1169.0534,256.1236,1172.1466,260.8599,1167.4103,263.9531,1177.04,261.8869" style="stroke:#181818;stroke-width:1;stroke-linejoin:miter;stroke-miterlimit:10;"/><text fill="#000000" font-family="sans-serif" font-size="13" lengthAdjust="spacing" textLength="167.1782" x="977.51" y="214.0138">mesa pendiente de cierre</text></g><?plantuml-src TPDDRzim38Rl-XL4JkqX2BRBW1m6U6w05LW_iAGzxS9OZCF5bW99Jh0D---Z9TMrq_LaMdpuzKeC71g2ycd-uHFCeRHRXmu2LmSAG0Og_8bADRGB42muhlS1D3kg0bkZ_87D4HssuFUexPbD3JjiF8qyMwmEjRETqQLjh8FpdiFONzdsQ0sPi0w_f9EkRJugXLKGT5RebWtxu2Ivcm5wA7g7KaT9YZN1x5cyE8C_2buJmQoKhf-PpZ7avMUAt957Fp33d_exIbvQ4vnjKl6B4fieKIOQSZ_CLH9n8k5rwc2W9kdNv4vSiNqdTt9Jp93jARQsRx1uCYboPpKrrhzJ8qObyq91swBHcDkFzXHuyXswldS1iZq5ljcww3JBTN5A8mTzP_46OJx_F5mCB2NExDYrACRMMJLu8ZQe9-1ZiIc_mWAFl4WA-yMIzQAAegiHsaTcQMB-tfy6lKg1j_fQlG0zd9p2dh1XZK3oiBI5nzNzpUtgVhEQm7bYeT7RYX6wV10BoNkPq5b0eUKRc0prGiMZ4vkganU6_-z5zg2JTduZ89GFNxuNDmyJK3GLob4TboIhDmRIYn26Mbcx_2gNkKkLlHUNyLeqRly86jQa7qLiE9BHCezarZ8JatFq3m00?></g></svg>