<svg xmlns="http://www.w3.org/2000/svg" xmlns:xlink="http://www.w3.org/1999/xlink" contentStyleType="text/css" data-diagram-type="DESCRIPTION" height="695px" preserveAspectRatio="none" style="width:883px;height:695px;background:#FFFFFF;" version="1.1" viewBox="0 0 883 695" width="883px" zoomAndPan="magnify"><?plantuml 1.2026.7beta1?><defs/><g><g class="title" data-source-line="1"><text fill="#000000" font-family="sans-serif" font-size="14" font-weight="700" lengthAdjust="spacing" textLength="188.8633" x="343.7925" y="22.9951">CU-06 - Tomar comanda</text></g><!--cluster Vista--><g class="cluster" data-qualified-name="Vista" data-source-line="7" id="ent0001"><rect fill="none" height="97.3" rx="2.5" ry="2.5" style="stroke:#181818;stroke-width:1;" width="306" x="77" y="130.5569"/><text fill="#000000" font-family="sans-serif" font-size="14" font-weight="700" lengthAdjust="spacing" textLength="40.1064" x="209.9468" y="145.552">Vista</text></g><!--cluster Controlador--><g class="cluster" data-qualified-name="Controlador" data-source-line="13" id="ent0004"><rect fill="none" height="97.3" rx="2.5" ry="2.5" style="stroke:#181818;stroke-width:1;" width="208" x="274" y="276.8569"/><text fill="#000000" font-family="sans-serif" font-size="14" font-weight="700" lengthAdjust="spacing" textLength="93.8643" x="331.0679" y="291.852">Controlador</text></g><!--cluster Servicio--><g class="cluster" data-qualified-name="Servicio" data-source-line="18" id="ent0006"><rect fill="none" height="97.29" rx="2.5" ry="2.5" style="stroke:#181818;stroke-width:1;" width="488" x="7" y="423.1569"/><text fill="#000000" font-family="sans-serif" font-size="14" font-weight="700" lengthAdjust="spacing" textLength="63.123" x="219.4385" y="438.152">Servicio</text></g><!--cluster Modelos--><g class="cluster" data-qualified-name="Modelos" data-source-line="25" id="ent0009"><rect fill="none" height="97.3" rx="2.5" ry="2.5" style="stroke:#181818;stroke-width:1;" width="746" x="25" y="584.4469"/><text fill="#000000" font-family="sans-serif" font-size="14" font-weight="700" lengthAdjust="spacing" textLength="65.8164" x="365.0918" y="599.442">Modelos</text></g><!--entity ComandaView--><g class="entity" data-qualified-name="Vista.ComandaView" data-source-line="8" id="ent0002"><rect fill="#F1F1F1" height="46.2969" rx="2.5" ry="2.5" style="stroke:#181818;stroke-width:0.5;" width="140.4268" x="226.79" y="165.5569"/><rect fill="#F1F1F1" height="10" style="stroke:#181818;stroke-width:0.5;" width="15" x="347.2168" y="170.5569"/><rect fill="#F1F1F1" height="2" style="stroke:#181818;stroke-width:0.5;" width="4" x="345.2168" y="172.5569"/><rect fill="#F1F1F1" height="2" style="stroke:#181818;stroke-width:0.5;" width="4" x="345.2168" y="176.5569"/><text fill="#000000" font-family="sans-serif" font-size="14" lengthAdjust="spacing" textLength="100.4268" x="241.79" y="198.552">ComandaView</text></g><!--entity KdsView--><g class="entity" data-qualified-name="Vista.KdsView" data-source-line="9" id="ent0003"><rect fill="#F1F1F1" height="46.2969" rx="2.5" ry="2.5" style="stroke:#181818;stroke-width:0.5;" width="98.8916" x="92.55" y="165.5569"/><rect fill="#F1F1F1" height="10" style="stroke:#181818;stroke-width:0.5;" width="15" x="171.4416" y="170.5569"/><rect fill="#F1F1F1" height="2" style="stroke:#181818;stroke-width:0.5;" width="4" x="169.4416" y="172.5569"/><rect fill="#F1F1F1" height="2" style="stroke:#181818;stroke-width:0.5;" width="4" x="169.4416" y="176.5569"/><text fill="#000000" font-family="sans-serif" font-size="14" lengthAdjust="spacing" textLength="58.8916" x="107.55" y="198.552">KdsView</text></g><!--entity ComandaController--><g class="entity" data-qualified-name="Controlador.ComandaController" data-source-line="14" id="ent0005"><rect fill="#F1F1F1" height="46.2969" rx="2.5" ry="2.5" style="stroke:#181818;stroke-width:0.5;" width="176.0693" x="289.97" y="311.8569"/><rect fill="#F1F1F1" height="10" style="stroke:#181818;stroke-width:0.5;" width="15" x="446.0393" y="316.8569"/><rect fill="#F1F1F1" height="2" style="stroke:#181818;stroke-width:0.5;" width="4" x="444.0393" y="318.8569"/><rect fill="#F1F1F1" height="2" style="stroke:#181818;stroke-width:0.5;" width="4" x="444.0393" y="322.8569"/><text fill="#000000" font-family="sans-serif" font-size="14" lengthAdjust="spacing" textLength="136.0693" x="304.97" y="344.852">ComandaController</text></g><!--entity ComandaService--><g class="entity" data-qualified-name="Servicio.ComandaService" data-source-line="19" id="ent0007"><rect fill="#F1F1F1" height="46.2969" rx="2.5" ry="2.5" style="stroke:#181818;stroke-width:0.5;" width="158.6377" x="320.68" y="458.1569"/><rect fill="#F1F1F1" height="10" style="stroke:#181818;stroke-width:0.5;" width="15" x="459.3177" y="463.1569"/><rect fill="#F1F1F1" height="2" style="stroke:#181818;stroke-width:0.5;" width="4" x="457.3177" y="465.1569"/><rect fill="#F1F1F1" height="2" style="stroke:#181818;stroke-width:0.5;" width="4" x="457.3177" y="469.1569"/><text fill="#000000" font-family="sans-serif" font-size="14" lengthAdjust="spacing" textLength="118.6377" x="335.68" y="491.152">ComandaService</text></g><!--entity SocketService--><g class="entity" data-qualified-name="Servicio.SocketService" data-source-line="21" id="ent0008"><rect fill="#F1F1F1" height="46.2969" rx="2.5" ry="2.5" style="stroke:#181818;stroke-width:0.5;" width="139.1006" x="23.45" y="458.1569"/><rect fill="#F1F1F1" height="10" style="stroke:#181818;stroke-width:0.5;" width="15" x="142.5506" y="463.1569"/><rect fill="#F1F1F1" height="2" style="stroke:#181818;stroke-width:0.5;" width="4" x="140.5506" y="465.1569"/><rect fill="#F1F1F1" height="2" style="stroke:#181818;stroke-width:0.5;" width="4" x="140.5506" y="469.1569"/><text fill="#000000" font-family="sans-serif" font-size="14" lengthAdjust="spacing" textLength="99.1006" x="38.45" y="491.152">SocketService</text></g><!--entity Comanda--><g class="entity" data-qualified-name="Modelos.Comanda" data-source-line="26" id="ent0010"><rect fill="#F1F1F1" height="46.2969" rx="2.5" ry="2.5" style="stroke:#181818;stroke-width:0.5;" width="106.8965" x="40.55" y="619.4469"/><rect fill="#F1F1F1" height="10" style="stroke:#181818;stroke-width:0.5;" width="15" x="127.4465" y="624.4469"/><rect fill="#F1F1F1" height="2" style="stroke:#181818;stroke-width:0.5;" width="4" x="125.4465" y="626.4469"/><rect fill="#F1F1F1" height="2" style="stroke:#181818;stroke-width:0.5;" width="4" x="125.4465" y="630.4469"/><text fill="#000000" font-family="sans-serif" font-size="14" lengthAdjust="spacing" textLength="66.8965" x="55.55" y="652.442">Comanda</text></g><!--entity LineaComanda--><g class="entity" data-qualified-name="Modelos.LineaComanda" data-source-line="27" id="ent0011"><rect fill="#F1F1F1" height="46.2969" rx="2.5" ry="2.5" style="stroke:#181818;stroke-width:0.5;" width="144.6514" x="182.67" y="619.4469"/><rect fill="#F1F1F1" height="10" style="stroke:#181818;stroke-width:0.5;" width="15" x="307.3214" y="624.4469"/><rect fill="#F1F1F1" height="2" style="stroke:#181818;stroke-width:0.5;" width="4" x="305.3214" y="626.4469"/><rect fill="#F1F1F1" height="2" style="stroke:#181818;stroke-width:0.5;" width="4" x="305.3214" y="630.4469"/><text fill="#000000" font-family="sans-serif" font-size="14" lengthAdjust="spacing" textLength="104.6514" x="197.67" y="652.442">LineaComanda</text></g><!--entity Plato--><g class="entity" data-qualified-name="Modelos.Plato" data-source-line="28" id="ent0012"><rect fill="#F1F1F1" height="46.2969" rx="2.5" ry="2.5" style="stroke:#181818;stroke-width:0.5;" width="74.9658" x="362.52" y="619.4469"/><rect fill="#F1F1F1" height="10" style="stroke:#181818;stroke-width:0.5;" width="15" x="417.4858" y="624.4469"/><rect fill="#F1F1F1" height="2" style="stroke:#181818;stroke-width:0.5;" width="4" x="415.4858" y="626.4469"/><rect fill="#F1F1F1" height="2" style="stroke:#181818;stroke-width:0.5;" width="4" x="415.4858" y="630.4469"/><text fill="#000000" font-family="sans-serif" font-size="14" lengthAdjust="spacing" textLength="34.9658" x="377.52" y="652.442">Plato</text></g><!--entity TarifaMenu--><g class="entity" data-qualified-name="Modelos.TarifaMenu" data-source-line="29" id="ent0013"><rect fill="#F1F1F1" height="46.2969" rx="2.5" ry="2.5" style="stroke:#181818;stroke-width:0.5;" width="118.7227" x="472.64" y="619.4469"/><rect fill="#F1F1F1" height="10" style="stroke:#181818;stroke-width:0.5;" width="15" x="571.3627" y="624.4469"/><rect fill="#F1F1F1" height="2" style="stroke:#181818;stroke-width:0.5;" width="4" x="569.3627" y="626.4469"/><rect fill="#F1F1F1" height="2" style="stroke:#181818;stroke-width:0.5;" width="4" x="569.3627" y="630.4469"/><text fill="#000000" font-family="sans-serif" font-size="14" lengthAdjust="spacing" textLength="78.7227" x="487.64" y="652.442">TarifaMenu</text></g><!--entity LogAuditoria--><g class="entity" data-qualified-name="Modelos.LogAuditoria" data-source-line="30" id="ent0014"><rect fill="#F1F1F1" height="46.2969" rx="2.5" ry="2.5" style="stroke:#181818;stroke-width:0.5;" width="128.7578" x="626.62" y="619.4469"/><rect fill="#F1F1F1" height="10" style="stroke:#181818;stroke-width:0.5;" width="15" x="735.3778" y="624.4469"/><rect fill="#F1F1F1" height="2" style="stroke:#181818;stroke-width:0.5;" width="4" x="733.3778" y="626.4469"/><rect fill="#F1F1F1" height="2" style="stroke:#181818;stroke-width:0.5;" width="4" x="733.3778" y="630.4469"/><text fill="#000000" font-family="sans-serif" font-size="14" lengthAdjust="spacing" textLength="88.7578" x="641.62" y="652.442">LogAuditoria</text></g><g class="entity" data-qualified-name="GMN25" data-source-line="50" id="ent0026"><path d="M22.3,43.2969 L22.3,83.5625 A0,0 0 0 0 22.3,83.5625 L138,83.5625 L142,165.3469 L146,83.5625 L261.6975,83.5625 A0,0 0 0 0 261.6975,83.5625 L261.6975,53.2969 L251.6975,43.2969 L22.3,43.2969 A0,0 0 0 0 22.3,43.2969" fill="#FEFFDD" style="stroke:#181818;stroke-width:0.5;"/><path d="M251.6975,43.2969 L251.6975,53.2969 L261.6975,53.2969 L251.6975,43.2969" fill="#FEFFDD" style="stroke:#181818;stroke-width:0.5;"/><text fill="#000000" font-family="sans-serif" font-size="13" lengthAdjust="spacing" textLength="218.3975" x="28.3" y="60.3638">El KDS recibe l&#237;neas de comanda,</text><text fill="#000000" font-family="sans-serif" font-size="13" lengthAdjust="spacing" textLength="165.1787" x="28.3" y="75.4966">no la comanda completa.</text></g><!--link ComandaView to ComandaController--><g class="link" data-entity-1="ent0002" data-entity-2="ent0005" data-link-type="dependency" data-source-line="34" id="lnk15"><path d="M309.66,212.2569 C324.87,239.3669 347.8136,280.2162 362.9836,307.2562" fill="none" id="ComandaView-to-ComandaController" style="stroke:#181818;stroke-width:1;"/><polygon fill="#181818" points="365.43,311.6169,364.515,301.8106,362.9836,307.2562,357.538,305.7249,365.43,311.6169" style="stroke:#181818;stroke-width:1;stroke-linejoin:miter;stroke-miterlimit:10;"/><text fill="#000000" font-family="sans-serif" font-size="13" lengthAdjust="spacing" textLength="197.1519" x="336" y="256.9238">POST /api/comandas/:id/lineas</text></g><!--link ComandaController to ComandaService--><g class="link" data-entity-1="ent0005" data-entity-2="ent0007" data-link-type="dependency" data-source-line="35" id="lnk16"><path d="M381.44,358.5469 C385.57,385.6569 391.7051,425.9342 395.8351,452.9742" fill="none" id="ComandaController-to-ComandaService" style="stroke:#181818;stroke-width:1;"/><polygon fill="#181818" points="396.59,457.9169,399.1853,448.4161,395.8351,452.9742,391.277,449.624,396.59,457.9169" style="stroke:#181818;stroke-width:1;stroke-linejoin:miter;stroke-miterlimit:10;"/><text fill="#000000" font-family="sans-serif" font-size="13" lengthAdjust="spacing" textLength="158.4438" x="389" y="403.2238">agregarLineaComanda()</text></g><!--link ComandaService to Comanda--><g class="link" data-entity-1="ent0007" data-entity-2="ent0010" data-link-type="dependency" data-source-line="38" id="lnk17"><path d="M320.28,501.9269 C278.72,511.4269 226.89,522.1069 180,528.4469 C165.77,530.3769 60.84,525.9869 51,536.4469 C28.98,559.8769 49.1834,592.3029 69.1234,615.5329" fill="none" id="ComandaService-to-Comanda" style="stroke:#181818;stroke-width:1;"/><polygon fill="#181818" points="72.38,619.3269,69.5532,609.8924,69.1234,615.5329,63.4829,615.103,72.38,619.3269" style="stroke:#181818;stroke-width:1;stroke-linejoin:miter;stroke-miterlimit:10;"/><text fill="#000000" font-family="sans-serif" font-size="13" lengthAdjust="spacing" textLength="168.6255" x="52" y="557.0138">validar comanda ABIERTA</text></g><!--link ComandaService to Plato--><g class="link" data-entity-1="ent0007" data-entity-2="ent0012" data-link-type="dependency" data-source-line="39" id="lnk18"><path d="M398.47,504.9469 C397.88,514.6469 397.29,526.0969 397,536.4469 C396.21,564.9269 397.2373,592.7538 398.3573,614.0438" fill="none" id="ComandaService-to-Plato" style="stroke:#181818;stroke-width:1;"/><polygon fill="#181818" points="398.62,619.0369,402.1417,609.8392,398.3573,614.0438,394.1527,610.2594,398.62,619.0369" style="stroke:#181818;stroke-width:1;stroke-linejoin:miter;stroke-miterlimit:10;"/><text fill="#000000" font-family="sans-serif" font-size="13" lengthAdjust="spacing" textLength="138.8296" x="398" y="549.5138">validar disponibilidad</text><text fill="#000000" font-family="sans-serif" font-size="13" lengthAdjust="spacing" textLength="75.9624" x="429.4336" y="564.6466">y al&#233;rgenos</text></g><!--link ComandaService to TarifaMenu--><g class="link" data-entity-1="ent0007" data-entity-2="ent0013" data-link-type="dependency" data-source-line="40" id="lnk19"><path d="M479.68,495.0069 C503.35,502.8969 526.74,515.7069 541,536.4469 C557.81,560.9169 551.4264,591.8098 543.2364,614.6698" fill="none" id="ComandaService-to-TarifaMenu" style="stroke:#181818;stroke-width:1;"/><polygon fill="#181818" points="541.55,619.3769,548.3511,612.2533,543.2364,614.6698,540.8199,609.5551,541.55,619.3769" style="stroke:#181818;stroke-width:1;stroke-linejoin:miter;stroke-miterlimit:10;"/><text fill="#000000" font-family="sans-serif" font-size="13" lengthAdjust="spacing" textLength="157.2886" x="551" y="557.0138">aplicar tarifa si es men&#250;</text></g><!--link ComandaService to LineaComanda--><g class="link" data-entity-1="ent0007" data-entity-2="ent0011" data-link-type="dependency" data-source-line="41" id="lnk20"><path d="M320.26,489.5369 C289.73,496.6569 257.76,510.3469 239,536.4469 C221.54,560.7369 230.5134,591.8485 240.9734,614.7585" fill="none" id="ComandaService-to-LineaComanda" style="stroke:#181818;stroke-width:1;"/><polygon fill="#181818" points="243.05,619.3069,242.9507,609.4585,240.9734,614.7585,235.6734,612.7811,243.05,619.3069" style="stroke:#181818;stroke-width:1;stroke-linejoin:miter;stroke-miterlimit:10;"/><text fill="#000000" font-family="sans-serif" font-size="13" lengthAdjust="spacing" textLength="147.2085" x="240" y="557.0138">crear l&#237;nea PENDIENTE</text></g><!--link ComandaService to LogAuditoria--><g class="link" data-entity-1="ent0007" data-entity-2="ent0014" data-link-type="dependency" data-source-line="42" id="lnk21"><path d="M479.67,484.5769 C563.45,488.8569 687.21,501.1369 717,536.4469 C736.77,559.8769 723.4264,591.83 709.2364,615.06" fill="none" id="ComandaService-to-LogAuditoria" style="stroke:#181818;stroke-width:1;"/><polygon fill="#181818" points="706.63,619.3269,714.7351,613.7316,709.2364,615.06,707.9081,609.5613,706.63,619.3269" style="stroke:#181818;stroke-width:1;stroke-linejoin:miter;stroke-miterlimit:10;"/><text fill="#000000" font-family="sans-serif" font-size="13" lengthAdjust="spacing" textLength="140.4482" x="727" y="557.0138">registrar alta de l&#237;nea</text></g><!--link ComandaService to SocketService--><g class="link" data-entity-1="ent0007" data-entity-2="ent0008" data-link-type="dependency" data-source-line="45" id="lnk22"><path d="M320.24,481.2969 C271.54,481.2969 214.86,481.2969 168.05,481.2969" fill="none" id="ComandaService-to-SocketService" style="stroke:#181818;stroke-width:1;"/><polygon fill="#181818" points="163.05,481.2969,172.05,485.2969,168.05,481.2969,172.05,477.2969,163.05,481.2969" style="stroke:#181818;stroke-width:1;stroke-linejoin:miter;stroke-miterlimit:10;"/><text fill="#000000" font-family="sans-serif" font-size="13" lengthAdjust="spacing" textLength="122.6938" x="180.62" y="474.3638">emitir l&#237;nea creada</text></g><!--reverse link KdsView to SocketService--><g class="link" data-entity-1="ent0003" data-entity-2="ent0008" data-link-type="dependency" data-source-line="46" id="lnk24"><path d="M137.4087,216.9573 C128.2887,271.0473 105.91,403.7369 96.78,457.9069" fill="none" id="KdsView-backto-SocketService" style="stroke:#181818;stroke-width:1;"/><polygon fill="#181818" points="138.24,212.0269,132.7993,220.2366,137.4087,216.9573,140.688,221.5667,138.24,212.0269" style="stroke:#181818;stroke-width:1;stroke-linejoin:miter;stroke-miterlimit:10;"/><text fill="#000000" font-family="sans-serif" font-size="13" lengthAdjust="spacing" textLength="94.6943" x="129" y="339.5738">actualizar KDS</text></g><?plantuml-src VLJBRjim4BphAnQzn06gkgSUSYZ0I2gWnhO4IJ5Gj3si9KPcGvCAIIT8YdvG3_s1NlDZNLfs8ZkfBtfmoTdPsLawuII7w39y_m52gFGA3TJqL0q6WRqMgaE3Ax1BRFITK2rSeRHy4EcmliQMb-wUS0ol7QfMyY0uWJ0C8M8vWpY1ULfM34RC6B70KnyAjWVXpLnOXs_WPm3mDUfJpmM_--x_BnhRV_ywH8ooMLLa4nPdnJvSf9KpMX9Vim-w3KXkNe4hasAUHccsZrLoSojgeVU1-bNk2Pv0hgtVeIWV84Y4XfCAImGl3xJSEXyqm2NKg51I7FWjLqvRM68jq4SkujBZbxg-vku9_WN9QHOdawo4CSIielU8BV27Ff1pgXikjTsdl15p8XJ7uK8kqUdDLuL6NE6KgtM_KxTitGYdZS01Zq-JoyyPv4KwYzASJJobXBh0OhQXiDSz2CamAlpuclnm1dbMLZ36JeotRhFZCz6CfQTeWzVE7EBjP28mR0rlqGph6vtkIC_P98qPjNQMbF05ygGeoOm9bK26F9VwPat-ftuObEFquMOjk6cschv8TSZ19xz5APhdgG5sdYP5nOuSxcKV76s4xRGI2-5_cs_g7b0-_ZOjLzeUmHaqpOlGIL4JcDkiWXN0BQouUlnx16BF4WHI6quGyl4FBPDKipYb1YV708PE8G1g18sp8H2KpW_35kpPohFUE5MQJFCCYeH-H-LwGPL3fusVeBYVeF_rm8XswNpk_N6Xv7mbd7YYxskXM-nmMxZk_E7TpUALgzsQEl50fFqWRfdEChgnM3HX1SrQaVOMLzfnSBe3VJMud02IpGpx-qyiTYLRN_tM5MzfZzA-k9rDwDr9xl1Tm5K37lSV?></g></svg>