<svg xmlns="http://www.w3.org/2000/svg" xmlns:xlink="http://www.w3.org/1999/xlink" contentStyleType="text/css" data-diagram-type="ACTIVITY" height="2242px" preserveAspectRatio="none" style="width:449px;height:2242px;background:#FFFFFF;" version="1.1" viewBox="0 0 449 2242" width="449px" zoomAndPan="magnify"><?plantuml 1.2026.4beta2?><defs/><g><g class="title" data-source-line="1"><text fill="#000000" font-family="Arial" font-size="14" font-weight="700" lengthAdjust="spacing" textLength="324.5225" x="61.6782" y="32.9951">Mapa navegacion - Restaurante La Union</text></g><ellipse cx="220.8379" cy="62.2969" fill="#222222" rx="10" ry="10" style="stroke:#222222;stroke-width:1;"/><rect fill="#F8F5F1" height="33.9688" rx="6" ry="6" style="stroke:#4A2B3F;stroke-width:0.5;" width="52.584" x="194.5459" y="92.2969"/><text fill="#1E1E1E" font-family="Arial" font-size="12" lengthAdjust="spacing" textLength="32.584" x="204.5459" y="113.4355">Login</text><rect fill="#F8F5F1" height="33.9688" rx="6" ry="6" style="stroke:#4A2B3F;stroke-width:0.5;" width="157.8008" x="141.9375" y="146.2656"/><text fill="#1E1E1E" font-family="Arial" font-size="12" lengthAdjust="spacing" textLength="137.8008" x="151.9375" y="167.4043">Introducir credenciales</text><polygon fill="#F8F5F1" points="161.2161,200.2344,280.4597,200.2344,292.4597,212.2344,280.4597,224.2344,161.2161,224.2344,149.2161,212.2344,161.2161,200.2344" style="stroke:#4A2B3F;stroke-width:0.5;"/><text fill="#1E1E1E" font-family="Arial" font-size="11" lengthAdjust="spacing" textLength="119.2437" x="161.2161" y="216.0425">Credenciales validas?</text><text fill="#000000" font-family="Arial" font-size="11" lengthAdjust="spacing" textLength="10.0386" x="139.1775" y="209.6401">Si</text><text fill="#000000" font-family="Arial" font-size="11" lengthAdjust="spacing" textLength="14.9585" x="292.4597" y="209.6401">No</text><rect fill="#F8F5F1" height="33.9688" rx="6" ry="6" style="stroke:#4A2B3F;stroke-width:0.5;" width="121.5137" x="59.6479" y="234.2344"/><text fill="#1E1E1E" font-family="Arial" font-size="12" lengthAdjust="spacing" textLength="101.5137" x="69.6479" y="255.373">Crear sesion JWT</text><rect fill="#F8F5F1" height="33.9688" rx="6" ry="6" style="stroke:#4A2B3F;stroke-width:0.5;" width="158.3691" x="41.2202" y="288.2031"/><text fill="#1E1E1E" font-family="Arial" font-size="12" lengthAdjust="spacing" textLength="138.3691" x="51.2202" y="309.3418">Cargar menu segun rol</text><rect fill="#F8F5F1" height="33.9688" rx="6" ry="6" style="stroke:#4A2B3F;stroke-width:0.5;" width="203.3633" x="219.5894" y="234.2344"/><text fill="#1E1E1E" font-family="Arial" font-size="12" lengthAdjust="spacing" textLength="183.3633" x="229.5894" y="255.373">Mostrar error de autenticacion</text><ellipse cx="321.271" cy="299.2031" fill="none" rx="11" ry="11" style="stroke:#222222;stroke-width:1;"/><ellipse cx="321.271" cy="299.2031" fill="#222222" rx="6" ry="6" style="stroke:#222222;stroke-width:1;"/><polygon fill="#F8F5F1" points="62.2622,342.1719,144.2144,342.1719,156.2144,354.1719,144.2144,366.1719,62.2622,366.1719,50.2622,354.1719,62.2622,342.1719" style="stroke:#4A2B3F;stroke-width:0.5;"/><text fill="#000000" font-family="Arial" font-size="11" lengthAdjust="spacing" textLength="77.8486" x="107.2383" y="376.3823">Administrador</text><text fill="#1E1E1E" font-family="Arial" font-size="11" lengthAdjust="spacing" textLength="81.9521" x="62.2622" y="357.98">Rol del usuario</text><rect fill="none" height="571.832" rx="6" ry="6" style="stroke:#000000;stroke-width:1.5;" width="119.0801" x="43.6982" y="398.9766"/><path d="M152.7783,398.9766 L152.7783,408.2734 L142.7783,418.2734 L43.6982,418.2734" fill="none" style="stroke:#000000;stroke-width:1.5;"/><text fill="#000000" font-family="Arial" font-size="14" lengthAdjust="spacing" textLength="99.0801" x="46.6982" y="412.9717">Administrador</text><rect fill="#F8F5F1" height="33.9688" rx="6" ry="6" style="stroke:#4A2B3F;stroke-width:0.5;" width="45.6582" x="80.4092" y="435.2734"/><text fill="#1E1E1E" font-family="Arial" font-size="12" lengthAdjust="spacing" textLength="25.6582" x="90.4092" y="456.4121">Sala</text><rect fill="#F8F5F1" height="33.9688" rx="6" ry="6" style="stroke:#4A2B3F;stroke-width:0.5;" width="77.3398" x="64.5684" y="502.0469"/><text fill="#1E1E1E" font-family="Arial" font-size="12" lengthAdjust="spacing" textLength="57.3398" x="74.5684" y="523.1855">Comanda</text><rect fill="#F8F5F1" height="33.9688" rx="6" ry="6" style="stroke:#4A2B3F;stroke-width:0.5;" width="44.7266" x="80.875" y="568.8203"/><text fill="#1E1E1E" font-family="Arial" font-size="12" lengthAdjust="spacing" textLength="24.7266" x="90.875" y="589.959">KDS</text><rect fill="#F8F5F1" height="33.9688" rx="6" ry="6" style="stroke:#4A2B3F;stroke-width:0.5;" width="46.4199" x="80.0283" y="637.7891"/><text fill="#1E1E1E" font-family="Arial" font-size="12" lengthAdjust="spacing" textLength="26.4199" x="90.0283" y="658.9277">Caja</text><rect fill="#F8F5F1" height="33.9688" rx="6" ry="6" style="stroke:#4A2B3F;stroke-width:0.5;" width="74.9961" x="65.7402" y="695.1602"/><text fill="#1E1E1E" font-family="Arial" font-size="12" lengthAdjust="spacing" textLength="54.9961" x="75.7402" y="716.2988">Reservas</text><rect fill="#F8F5F1" height="33.9688" rx="6" ry="6" style="stroke:#4A2B3F;stroke-width:0.5;" width="52.7246" x="76.876" y="752.5313"/><text fill="#1E1E1E" font-family="Arial" font-size="12" lengthAdjust="spacing" textLength="32.7246" x="86.876" y="773.6699">Carta</text><rect fill="#F8F5F1" height="33.9688" rx="6" ry="6" style="stroke:#4A2B3F;stroke-width:0.5;" width="71.8555" x="67.3105" y="816.9023"/><text fill="#1E1E1E" font-family="Arial" font-size="12" lengthAdjust="spacing" textLength="51.8555" x="77.3105" y="838.041">Usuarios</text><rect fill="#F8F5F1" height="33.9688" rx="6" ry="6" style="stroke:#4A2B3F;stroke-width:0.5;" width="74.4336" x="66.0215" y="870.8711"/><text fill="#1E1E1E" font-family="Arial" font-size="12" lengthAdjust="spacing" textLength="54.4336" x="76.0215" y="892.0098">Auditoria</text><rect fill="#F8F5F1" height="33.9688" rx="6" ry="6" style="stroke:#4A2B3F;stroke-width:0.5;" width="59.5508" x="73.4629" y="924.8398"/><text fill="#1E1E1E" font-family="Arial" font-size="12" lengthAdjust="spacing" textLength="39.5508" x="83.4629" y="945.9785">Offline</text><polygon fill="#F8F5F1" points="222.5469,342.1719,276.9668,342.1719,288.9668,354.1719,276.9668,366.1719,222.5469,366.1719,210.5469,354.1719,222.5469,342.1719" style="stroke:#4A2B3F;stroke-width:0.5;"/><text fill="#1E1E1E" font-family="Arial" font-size="11" lengthAdjust="spacing" textLength="54.4199" x="222.5469" y="357.98">Camarero</text><text fill="#000000" font-family="Arial" font-size="11" lengthAdjust="spacing" textLength="37.2271" x="288.9668" y="351.5776">Cocina</text><rect fill="none" height="223.8125" rx="6" ry="6" style="stroke:#000000;stroke-width:1.5;" width="97.3398" x="201.0869" y="386.1719"/><path d="M280.3486,386.1719 L280.3486,395.4688 L270.3486,405.4688 L201.0869,405.4688" fill="none" style="stroke:#000000;stroke-width:1.5;"/><text fill="#000000" font-family="Arial" font-size="14" lengthAdjust="spacing" textLength="69.2617" x="204.0869" y="400.167">Camarero</text><rect fill="#F8F5F1" height="33.9688" rx="6" ry="6" style="stroke:#4A2B3F;stroke-width:0.5;" width="45.6582" x="226.9277" y="422.4688"/><text fill="#1E1E1E" font-family="Arial" font-size="12" lengthAdjust="spacing" textLength="25.6582" x="236.9277" y="443.6074">Sala</text><rect fill="#F8F5F1" height="33.9688" rx="6" ry="6" style="stroke:#4A2B3F;stroke-width:0.5;" width="77.3398" x="211.0869" y="489.2422"/><text fill="#1E1E1E" font-family="Arial" font-size="12" lengthAdjust="spacing" textLength="57.3398" x="221.0869" y="510.3809">Comanda</text><rect fill="#F8F5F1" height="33.9688" rx="6" ry="6" style="stroke:#4A2B3F;stroke-width:0.5;" width="59.5508" x="219.9814" y="556.0156"/><text fill="#1E1E1E" font-family="Arial" font-size="12" lengthAdjust="spacing" textLength="39.5508" x="229.9814" y="577.1543">Offline</text><rect fill="none" height="200.4102" rx="6" ry="6" style="stroke:#000000;stroke-width:1.5;" width="79.5508" x="318.4268" y="598.0898"/><path d="M375.8066,598.0898 L375.8066,607.3867 L365.8066,617.3867 L318.4268,617.3867" fill="none" style="stroke:#000000;stroke-width:1.5;"/><text fill="#000000" font-family="Arial" font-size="14" lengthAdjust="spacing" textLength="47.3799" x="321.4268" y="612.085">Cocina</text><rect fill="#F8F5F1" height="33.9688" rx="6" ry="6" style="stroke:#4A2B3F;stroke-width:0.5;" width="44.7266" x="335.8389" y="634.3867"/><text fill="#1E1E1E" font-family="Arial" font-size="12" lengthAdjust="spacing" textLength="24.7266" x="345.8389" y="655.5254">KDS</text><rect fill="#F8F5F1" height="33.9688" rx="6" ry="6" style="stroke:#4A2B3F;stroke-width:0.5;" width="52.7246" x="331.8398" y="691.7578"/><text fill="#1E1E1E" font-family="Arial" font-size="12" lengthAdjust="spacing" textLength="32.7246" x="341.8398" y="712.8965">Carta</text><rect fill="#F8F5F1" height="33.9688" rx="6" ry="6" style="stroke:#4A2B3F;stroke-width:0.5;" width="59.5508" x="328.4268" y="749.1289"/><text fill="#1E1E1E" font-family="Arial" font-size="12" lengthAdjust="spacing" textLength="39.5508" x="338.4268" y="770.2676">Offline</text><rect fill="none" height="1180.1367" rx="6" ry="6" style="stroke:#000000;stroke-width:1.5;" width="413.8789" x="16" y="1000.8086"/><path d="M219.6826,1000.8086 L219.6826,1010.1055 L209.6826,1020.1055 L16,1020.1055" fill="none" style="stroke:#000000;stroke-width:1.5;"/><text fill="#000000" font-family="Arial" font-size="14" lengthAdjust="spacing" textLength="193.6826" x="19" y="1014.8037">Flujo principal seleccionado</text><rect fill="#F8F5F1" height="33.9688" rx="6" ry="6" style="stroke:#4A2B3F;stroke-width:0.5;" width="45.6582" x="198.0088" y="1037.1055"/><text fill="#1E1E1E" font-family="Arial" font-size="12" lengthAdjust="spacing" textLength="25.6582" x="208.0088" y="1058.2441">Sala</text><rect fill="#F8F5F1" height="33.9688" rx="6" ry="6" style="stroke:#4A2B3F;stroke-width:0.5;" width="125.9727" x="157.8516" y="1091.0742"/><text fill="#1E1E1E" font-family="Arial" font-size="12" lengthAdjust="spacing" textLength="105.9727" x="167.8516" y="1112.2129">Seleccionar mesa</text><polygon fill="#F8F5F1" points="189.613,1145.043,252.0627,1145.043,264.0627,1157.043,252.0627,1169.043,189.613,1169.043,177.613,1157.043,189.613,1145.043" style="stroke:#4A2B3F;stroke-width:0.5;"/><text fill="#1E1E1E" font-family="Arial" font-size="11" lengthAdjust="spacing" textLength="62.4497" x="189.613" y="1160.8511">Mesa libre?</text><text fill="#000000" font-family="Arial" font-size="11" lengthAdjust="spacing" textLength="10.0386" x="167.5745" y="1154.4487">Si</text><text fill="#000000" font-family="Arial" font-size="11" lengthAdjust="spacing" textLength="14.9585" x="264.0627" y="1154.4487">No</text><rect fill="#F8F5F1" height="33.9688" rx="6" ry="6" style="stroke:#4A2B3F;stroke-width:0.5;" width="184.7363" x="28" y="1179.043"/><text fill="#1E1E1E" font-family="Arial" font-size="12" lengthAdjust="spacing" textLength="164.7363" x="38" y="1200.1816">Abrir mesa / abrir comanda</text><rect fill="#F8F5F1" height="33.9688" rx="6" ry="6" style="stroke:#4A2B3F;stroke-width:0.5;" width="177.1426" x="232.7363" y="1179.043"/><text fill="#1E1E1E" font-family="Arial" font-size="12" lengthAdjust="spacing" textLength="157.1426" x="242.7363" y="1200.1816">Consultar comanda activa</text><polygon fill="#F8F5F1" points="220.8379,1219.0117,232.8379,1231.0117,220.8379,1243.0117,208.8379,1231.0117,220.8379,1219.0117" style="stroke:#4A2B3F;stroke-width:0.5;"/><rect fill="#F8F5F1" height="33.9688" rx="6" ry="6" style="stroke:#4A2B3F;stroke-width:0.5;" width="77.3398" x="182.168" y="1263.0117"/><text fill="#1E1E1E" font-family="Arial" font-size="12" lengthAdjust="spacing" textLength="57.3398" x="192.168" y="1284.1504">Comanda</text><rect fill="#F8F5F1" height="33.9688" rx="6" ry="6" style="stroke:#4A2B3F;stroke-width:0.5;" width="118.0215" x="161.8271" y="1316.9805"/><text fill="#1E1E1E" font-family="Arial" font-size="12" lengthAdjust="spacing" textLength="98.0215" x="171.8271" y="1338.1191">Tomar comanda</text><rect fill="#F8F5F1" height="47.9375" rx="6" ry="6" style="stroke:#4A2B3F;stroke-width:0.5;" width="180.4297" x="130.623" y="1370.9492"/><text fill="#1E1E1E" font-family="Arial" font-size="12" lengthAdjust="spacing" textLength="156.7324" x="140.623" y="1392.0879">Anadir platos, cantidades,</text><text fill="#1E1E1E" font-family="Arial" font-size="12" lengthAdjust="spacing" textLength="160.4297" x="140.623" y="1406.0566">alergenos y observaciones</text><rect fill="#F8F5F1" height="33.9688" rx="6" ry="6" style="stroke:#4A2B3F;stroke-width:0.5;" width="114.8984" x="163.3887" y="1487.2891"/><text fill="#1E1E1E" font-family="Arial" font-size="12" lengthAdjust="spacing" textLength="94.8984" x="173.3887" y="1508.4277">Editar comanda</text><polygon fill="#F8F5F1" points="137.2288,1438.8867,304.447,1438.8867,316.447,1450.8867,304.447,1462.8867,137.2288,1462.8867,125.2288,1450.8867,137.2288,1438.8867" style="stroke:#4A2B3F;stroke-width:0.5;"/><text fill="#000000" font-family="Arial" font-size="11" lengthAdjust="spacing" textLength="10.0386" x="224.8379" y="1473.0972">Si</text><text fill="#1E1E1E" font-family="Arial" font-size="11" lengthAdjust="spacing" textLength="167.2183" x="137.2288" y="1454.6948">Hay cambios antes de cocina?</text><text fill="#000000" font-family="Arial" font-size="11" lengthAdjust="spacing" textLength="14.9585" x="316.447" y="1448.2925">No</text><polygon fill="#F8F5F1" points="220.8379,1541.2578,232.8379,1553.2578,220.8379,1565.2578,208.8379,1553.2578,220.8379,1541.2578" style="stroke:#4A2B3F;stroke-width:0.5;"/><rect fill="#F8F5F1" height="33.9688" rx="6" ry="6" style="stroke:#4A2B3F;stroke-width:0.5;" width="87.3711" x="177.1523" y="1585.2578"/><text fill="#1E1E1E" font-family="Arial" font-size="12" lengthAdjust="spacing" textLength="67.3711" x="187.1523" y="1606.3965">KDS cocina</text><rect fill="#F8F5F1" height="33.9688" rx="6" ry="6" style="stroke:#4A2B3F;stroke-width:0.5;" width="190.3789" x="125.6484" y="1639.2266"/><text fill="#1E1E1E" font-family="Arial" font-size="12" lengthAdjust="spacing" textLength="170.3789" x="135.6484" y="1660.3652">Marcar plato en preparacion</text><rect fill="#F8F5F1" height="33.9688" rx="6" ry="6" style="stroke:#4A2B3F;stroke-width:0.5;" width="161.2578" x="140.209" y="1693.1953"/><text fill="#1E1E1E" font-family="Arial" font-size="12" lengthAdjust="spacing" textLength="141.2578" x="150.209" y="1714.334">Marcar plato como listo</text><rect fill="#F8F5F1" height="33.9688" rx="6" ry="6" style="stroke:#4A2B3F;stroke-width:0.5;" width="110.0762" x="165.7998" y="1747.1641"/><text fill="#1E1E1E" font-family="Arial" font-size="12" lengthAdjust="spacing" textLength="90.0762" x="175.7998" y="1768.3027">Notificar a sala</text><rect fill="#F8F5F1" height="33.9688" rx="6" ry="6" style="stroke:#4A2B3F;stroke-width:0.5;" width="77.3398" x="182.168" y="1801.1328"/><text fill="#1E1E1E" font-family="Arial" font-size="12" lengthAdjust="spacing" textLength="57.3398" x="192.168" y="1822.2715">Comanda</text><rect fill="#F8F5F1" height="33.9688" rx="6" ry="6" style="stroke:#4A2B3F;stroke-width:0.5;" width="135.0195" x="153.3281" y="1855.1016"/><text fill="#1E1E1E" font-family="Arial" font-size="12" lengthAdjust="spacing" textLength="115.0195" x="163.3281" y="1876.2402">Enviar ticket a caja</text><rect fill="#F8F5F1" height="33.9688" rx="6" ry="6" style="stroke:#4A2B3F;stroke-width:0.5;" width="46.4199" x="197.6279" y="1909.0703"/><text fill="#1E1E1E" font-family="Arial" font-size="12" lengthAdjust="spacing" textLength="26.4199" x="207.6279" y="1930.209">Caja</text><rect fill="#F8F5F1" height="33.9688" rx="6" ry="6" style="stroke:#4A2B3F;stroke-width:0.5;" width="98.0469" x="171.8145" y="1963.0391"/><text fill="#1E1E1E" font-family="Arial" font-size="12" lengthAdjust="spacing" textLength="78.0469" x="181.8145" y="1984.1777">Cobrar ticket</text><polygon fill="#F8F5F1" points="177.1655,2017.0078,264.5103,2017.0078,276.5103,2029.0078,264.5103,2041.0078,177.1655,2041.0078,165.1655,2029.0078,177.1655,2017.0078" style="stroke:#4A2B3F;stroke-width:0.5;"/><text fill="#1E1E1E" font-family="Arial" font-size="11" lengthAdjust="spacing" textLength="87.3447" x="177.1655" y="2032.8159">Ticket cobrado?</text><text fill="#000000" font-family="Arial" font-size="11" lengthAdjust="spacing" textLength="10.0386" x="155.127" y="2026.4136">Si</text><text fill="#000000" font-family="Arial" font-size="11" lengthAdjust="spacing" textLength="14.9585" x="276.5103" y="2026.4136">No</text><rect fill="#F8F5F1" height="33.9688" rx="6" ry="6" style="stroke:#4A2B3F;stroke-width:0.5;" width="94.4082" x="89.6011" y="2051.0078"/><text fill="#1E1E1E" font-family="Arial" font-size="12" lengthAdjust="spacing" textLength="74.4082" x="99.6011" y="2072.1465">Cerrar mesa</text><rect fill="#F8F5F1" height="33.9688" rx="6" ry="6" style="stroke:#4A2B3F;stroke-width:0.5;" width="123.1484" x="75.231" y="2104.9766"/><text fill="#1E1E1E" font-family="Arial" font-size="12" lengthAdjust="spacing" textLength="103.1484" x="85.231" y="2126.1152">Mesa queda libre</text><rect fill="#F8F5F1" height="33.9688" rx="6" ry="6" style="stroke:#4A2B3F;stroke-width:0.5;" width="172.9824" x="218.3794" y="2051.0078"/><text fill="#1E1E1E" font-family="Arial" font-size="12" lengthAdjust="spacing" textLength="152.9824" x="228.3794" y="2072.1465">Mesa pendiente de cierre</text><polygon fill="#F8F5F1" points="220.8379,2144.9453,232.8379,2156.9453,220.8379,2168.9453,208.8379,2156.9453,220.8379,2144.9453" style="stroke:#4A2B3F;stroke-width:0.5;"/><ellipse cx="220.8379" cy="2211.9453" fill="none" rx="11" ry="11" style="stroke:#222222;stroke-width:1;"/><ellipse cx="220.8379" cy="2211.9453" fill="#222222" rx="6" ry="6" style="stroke:#222222;stroke-width:1;"/><line style="stroke:#181818;stroke-width:1;" x1="220.8379" x2="220.8379" y1="72.2969" y2="92.2969"/><polygon fill="#181818" points="216.8379,82.2969,220.8379,92.2969,224.8379,82.2969,220.8379,86.2969" style="stroke:#181818;stroke-width:1;"/><line style="stroke:#181818;stroke-width:1;" x1="220.8379" x2="220.8379" y1="126.2656" y2="146.2656"/><polygon fill="#181818" points="216.8379,136.2656,220.8379,146.2656,224.8379,136.2656,220.8379,140.2656" style="stroke:#181818;stroke-width:1;"/><line style="stroke:#181818;stroke-width:1;" x1="120.4048" x2="120.4048" y1="268.2031" y2="288.2031"/><polygon fill="#181818" points="116.4048,278.2031,120.4048,288.2031,124.4048,278.2031,120.4048,282.2031" style="stroke:#181818;stroke-width:1;"/><line style="stroke:#181818;stroke-width:1;" x1="321.271" x2="321.271" y1="268.2031" y2="288.2031"/><polygon fill="#181818" points="317.271,278.2031,321.271,288.2031,325.271,278.2031,321.271,282.2031" style="stroke:#181818;stroke-width:1;"/><line style="stroke:#181818;stroke-width:1;" x1="149.2161" x2="120.4048" y1="212.2344" y2="212.2344"/><line style="stroke:#181818;stroke-width:1;" x1="120.4048" x2="120.4048" y1="212.2344" y2="234.2344"/><polygon fill="#181818" points="116.4048,224.2344,120.4048,234.2344,124.4048,224.2344,120.4048,228.2344" style="stroke:#181818;stroke-width:1;"/><line style="stroke:#181818;stroke-width:1;" x1="292.4597" x2="321.271" y1="212.2344" y2="212.2344"/><line style="stroke:#181818;stroke-width:1;" x1="321.271" x2="321.271" y1="212.2344" y2="234.2344"/><polygon fill="#181818" points="317.271,224.2344,321.271,234.2344,325.271,224.2344,321.271,228.2344" style="stroke:#181818;stroke-width:1;"/><line style="stroke:#181818;stroke-width:1;" x1="120.4048" x2="120.4048" y1="322.1719" y2="327.1719"/><line style="stroke:#181818;stroke-width:1;" x1="120.4048" x2="220.8379" y1="327.1719" y2="327.1719"/><line style="stroke:#181818;stroke-width:1;" x1="220.8379" x2="220.8379" y1="327.1719" y2="327.1719"/><line style="stroke:#181818;stroke-width:1;" x1="220.8379" x2="220.8379" y1="180.2344" y2="200.2344"/><polygon fill="#181818" points="216.8379,190.2344,220.8379,200.2344,224.8379,190.2344,220.8379,194.2344" style="stroke:#181818;stroke-width:1;"/><line style="stroke:#181818;stroke-width:1;" x1="103.2383" x2="103.2383" y1="469.2422" y2="502.0469"/><polygon fill="#181818" points="99.2383,492.0469,103.2383,502.0469,107.2383,492.0469,103.2383,496.0469" style="stroke:#181818;stroke-width:1;"/><line style="stroke:#181818;stroke-width:1;" x1="103.2383" x2="103.2383" y1="536.0156" y2="568.8203"/><polygon fill="#181818" points="99.2383,558.8203,103.2383,568.8203,107.2383,558.8203,103.2383,562.8203" style="stroke:#181818;stroke-width:1;"/><line style="stroke:#181818;stroke-width:1;" x1="103.2383" x2="103.2383" y1="602.7891" y2="637.7891"/><polygon fill="#181818" points="99.2383,627.7891,103.2383,637.7891,107.2383,627.7891,103.2383,631.7891" style="stroke:#181818;stroke-width:1;"/><line style="stroke:#181818;stroke-width:1;" x1="103.2383" x2="103.2383" y1="671.7578" y2="695.1602"/><polygon fill="#181818" points="99.2383,685.1602,103.2383,695.1602,107.2383,685.1602,103.2383,689.1602" style="stroke:#181818;stroke-width:1;"/><line style="stroke:#181818;stroke-width:1;" x1="103.2383" x2="103.2383" y1="729.1289" y2="752.5313"/><polygon fill="#181818" points="99.2383,742.5313,103.2383,752.5313,107.2383,742.5313,103.2383,746.5313" style="stroke:#181818;stroke-width:1;"/><line style="stroke:#181818;stroke-width:1;" x1="103.2383" x2="103.2383" y1="786.5" y2="816.9023"/><polygon fill="#181818" points="99.2383,806.9023,103.2383,816.9023,107.2383,806.9023,103.2383,810.9023" style="stroke:#181818;stroke-width:1;"/><line style="stroke:#181818;stroke-width:1;" x1="103.2383" x2="103.2383" y1="850.8711" y2="870.8711"/><polygon fill="#181818" points="99.2383,860.8711,103.2383,870.8711,107.2383,860.8711,103.2383,864.8711" style="stroke:#181818;stroke-width:1;"/><line style="stroke:#181818;stroke-width:1;" x1="103.2383" x2="103.2383" y1="904.8398" y2="924.8398"/><polygon fill="#181818" points="99.2383,914.8398,103.2383,924.8398,107.2383,914.8398,103.2383,918.8398" style="stroke:#181818;stroke-width:1;"/><line style="stroke:#181818;stroke-width:1;" x1="249.7568" x2="249.7568" y1="456.4375" y2="489.2422"/><polygon fill="#181818" points="245.7568,479.2422,249.7568,489.2422,253.7568,479.2422,249.7568,483.2422" style="stroke:#181818;stroke-width:1;"/><line style="stroke:#181818;stroke-width:1;" x1="249.7568" x2="249.7568" y1="523.2109" y2="556.0156"/><polygon fill="#181818" points="245.7568,546.0156,249.7568,556.0156,253.7568,546.0156,249.7568,550.0156" style="stroke:#181818;stroke-width:1;"/><line style="stroke:#181818;stroke-width:1;" x1="358.2021" x2="358.2021" y1="668.3555" y2="691.7578"/><polygon fill="#181818" points="354.2021,681.7578,358.2021,691.7578,362.2021,681.7578,358.2021,685.7578" style="stroke:#181818;stroke-width:1;"/><line style="stroke:#181818;stroke-width:1;" x1="358.2021" x2="358.2021" y1="725.7266" y2="749.1289"/><polygon fill="#181818" points="354.2021,739.1289,358.2021,749.1289,362.2021,739.1289,358.2021,743.1289" style="stroke:#181818;stroke-width:1;"/><line style="stroke:#181818;stroke-width:1;" x1="103.2383" x2="103.2383" y1="366.1719" y2="435.2734"/><polygon fill="#181818" points="99.2383,425.2734,103.2383,435.2734,107.2383,425.2734,103.2383,429.2734" style="stroke:#181818;stroke-width:1;"/><line style="stroke:#181818;stroke-width:1;" x1="103.2383" x2="103.2383" y1="958.8086" y2="990.8086"/><polygon fill="#181818" points="99.2383,980.8086,103.2383,990.8086,107.2383,980.8086,103.2383,984.8086" style="stroke:#181818;stroke-width:1;"/><line style="stroke:#181818;stroke-width:1;" x1="249.7568" x2="249.7568" y1="366.1719" y2="422.4688"/><polygon fill="#181818" points="245.7568,412.4688,249.7568,422.4688,253.7568,412.4688,249.7568,416.4688" style="stroke:#181818;stroke-width:1;"/><line style="stroke:#181818;stroke-width:1;" x1="249.7568" x2="249.7568" y1="589.9844" y2="990.8086"/><polygon fill="#181818" points="245.7568,980.8086,249.7568,990.8086,253.7568,980.8086,249.7568,984.8086" style="stroke:#181818;stroke-width:1;"/><line style="stroke:#181818;stroke-width:1;" x1="156.2144" x2="210.5469" y1="354.1719" y2="354.1719"/><polygon fill="#181818" points="200.5469,350.1719,210.5469,354.1719,200.5469,358.1719,204.5469,354.1719" style="stroke:#181818;stroke-width:1;"/><line style="stroke:#181818;stroke-width:1;" x1="220.8379" x2="103.2383" y1="327.1719" y2="327.1719"/><line style="stroke:#181818;stroke-width:1;" x1="103.2383" x2="103.2383" y1="327.1719" y2="342.1719"/><polygon fill="#181818" points="99.2383,332.1719,103.2383,342.1719,107.2383,332.1719,103.2383,336.1719" style="stroke:#181818;stroke-width:1;"/><line style="stroke:#181818;stroke-width:1;" x1="288.9668" x2="358.2021" y1="354.1719" y2="354.1719"/><line style="stroke:#181818;stroke-width:1;" x1="358.2021" x2="358.2021" y1="354.1719" y2="634.3867"/><polygon fill="#181818" points="354.2021,624.3867,358.2021,634.3867,362.2021,624.3867,358.2021,628.3867" style="stroke:#181818;stroke-width:1;"/><line style="stroke:#181818;stroke-width:1;" x1="358.2021" x2="358.2021" y1="783.0977" y2="990.8086"/><polygon fill="#181818" points="354.2021,980.8086,358.2021,990.8086,362.2021,980.8086,358.2021,984.8086" style="stroke:#181818;stroke-width:1;"/><line style="stroke:#181818;stroke-width:1;" x1="103.2383" x2="358.2021" y1="990.8086" y2="990.8086"/><line style="stroke:#181818;stroke-width:1;" x1="220.8379" x2="220.8379" y1="1071.0742" y2="1091.0742"/><polygon fill="#181818" points="216.8379,1081.0742,220.8379,1091.0742,224.8379,1081.0742,220.8379,1085.0742" style="stroke:#181818;stroke-width:1;"/><line style="stroke:#181818;stroke-width:1;" x1="177.613" x2="120.3682" y1="1157.043" y2="1157.043"/><line style="stroke:#181818;stroke-width:1;" x1="120.3682" x2="120.3682" y1="1157.043" y2="1179.043"/><polygon fill="#181818" points="116.3682,1169.043,120.3682,1179.043,124.3682,1169.043,120.3682,1173.043" style="stroke:#181818;stroke-width:1;"/><line style="stroke:#181818;stroke-width:1;" x1="264.0627" x2="321.3076" y1="1157.043" y2="1157.043"/><line style="stroke:#181818;stroke-width:1;" x1="321.3076" x2="321.3076" y1="1157.043" y2="1179.043"/><polygon fill="#181818" points="317.3076,1169.043,321.3076,1179.043,325.3076,1169.043,321.3076,1173.043" style="stroke:#181818;stroke-width:1;"/><line style="stroke:#181818;stroke-width:1;" x1="120.3682" x2="120.3682" y1="1213.0117" y2="1231.0117"/><line style="stroke:#181818;stroke-width:1;" x1="120.3682" x2="208.8379" y1="1231.0117" y2="1231.0117"/><polygon fill="#181818" points="198.8379,1227.0117,208.8379,1231.0117,198.8379,1235.0117,202.8379,1231.0117" style="stroke:#181818;stroke-width:1;"/><line style="stroke:#181818;stroke-width:1;" x1="321.3076" x2="321.3076" y1="1213.0117" y2="1231.0117"/><line style="stroke:#181818;stroke-width:1;" x1="321.3076" x2="232.8379" y1="1231.0117" y2="1231.0117"/><polygon fill="#181818" points="242.8379,1227.0117,232.8379,1231.0117,242.8379,1235.0117,238.8379,1231.0117" style="stroke:#181818;stroke-width:1;"/><line style="stroke:#181818;stroke-width:1;" x1="220.8379" x2="220.8379" y1="1125.043" y2="1145.043"/><polygon fill="#181818" points="216.8379,1135.043,220.8379,1145.043,224.8379,1135.043,220.8379,1139.043" style="stroke:#181818;stroke-width:1;"/><line style="stroke:#181818;stroke-width:1;" x1="220.8379" x2="220.8379" y1="1243.0117" y2="1263.0117"/><polygon fill="#181818" points="216.8379,1253.0117,220.8379,1263.0117,224.8379,1253.0117,220.8379,1257.0117" style="stroke:#181818;stroke-width:1;"/><line style="stroke:#181818;stroke-width:1;" x1="220.8379" x2="220.8379" y1="1296.9805" y2="1316.9805"/><polygon fill="#181818" points="216.8379,1306.9805,220.8379,1316.9805,224.8379,1306.9805,220.8379,1310.9805" style="stroke:#181818;stroke-width:1;"/><line style="stroke:#181818;stroke-width:1;" x1="220.8379" x2="220.8379" y1="1350.9492" y2="1370.9492"/><polygon fill="#181818" points="216.8379,1360.9492,220.8379,1370.9492,224.8379,1360.9492,220.8379,1364.9492" style="stroke:#181818;stroke-width:1;"/><line style="stroke:#181818;stroke-width:1;" x1="220.8379" x2="220.8379" y1="1462.8867" y2="1487.2891"/><polygon fill="#181818" points="216.8379,1477.2891,220.8379,1487.2891,224.8379,1477.2891,220.8379,1481.2891" style="stroke:#181818;stroke-width:1;"/><line style="stroke:#181818;stroke-width:1;" x1="316.447" x2="328.447" y1="1450.8867" y2="1450.8867"/><polygon fill="#181818" points="324.447,1494.2734,328.447,1504.2734,332.447,1494.2734,328.447,1498.2734" style="stroke:#181818;stroke-width:1;"/><line style="stroke:#181818;stroke-width:1;" x1="328.447" x2="328.447" y1="1450.8867" y2="1553.2578"/><line style="stroke:#181818;stroke-width:1;" x1="328.447" x2="232.8379" y1="1553.2578" y2="1553.2578"/><polygon fill="#181818" points="242.8379,1549.2578,232.8379,1553.2578,242.8379,1557.2578,238.8379,1553.2578" style="stroke:#181818;stroke-width:1;"/><line style="stroke:#181818;stroke-width:1;" x1="220.8379" x2="220.8379" y1="1521.2578" y2="1541.2578"/><polygon fill="#181818" points="216.8379,1531.2578,220.8379,1541.2578,224.8379,1531.2578,220.8379,1535.2578" style="stroke:#181818;stroke-width:1;"/><line style="stroke:#181818;stroke-width:1;" x1="220.8379" x2="220.8379" y1="1418.8867" y2="1438.8867"/><polygon fill="#181818" points="216.8379,1428.8867,220.8379,1438.8867,224.8379,1428.8867,220.8379,1432.8867" style="stroke:#181818;stroke-width:1;"/><line style="stroke:#181818;stroke-width:1;" x1="220.8379" x2="220.8379" y1="1565.2578" y2="1585.2578"/><polygon fill="#181818" points="216.8379,1575.2578,220.8379,1585.2578,224.8379,1575.2578,220.8379,1579.2578" style="stroke:#181818;stroke-width:1;"/><line style="stroke:#181818;stroke-width:1;" x1="220.8379" x2="220.8379" y1="1619.2266" y2="1639.2266"/><polygon fill="#181818" points="216.8379,1629.2266,220.8379,1639.2266,224.8379,1629.2266,220.8379,1633.2266" style="stroke:#181818;stroke-width:1;"/><line style="stroke:#181818;stroke-width:1;" x1="220.8379" x2="220.8379" y1="1673.1953" y2="1693.1953"/><polygon fill="#181818" points="216.8379,1683.1953,220.8379,1693.1953,224.8379,1683.1953,220.8379,1687.1953" style="stroke:#181818;stroke-width:1;"/><line style="stroke:#181818;stroke-width:1;" x1="220.8379" x2="220.8379" y1="1727.1641" y2="1747.1641"/><polygon fill="#181818" points="216.8379,1737.1641,220.8379,1747.1641,224.8379,1737.1641,220.8379,1741.1641" style="stroke:#181818;stroke-width:1;"/><line style="stroke:#181818;stroke-width:1;" x1="220.8379" x2="220.8379" y1="1781.1328" y2="1801.1328"/><polygon fill="#181818" points="216.8379,1791.1328,220.8379,1801.1328,224.8379,1791.1328,220.8379,1795.1328" style="stroke:#181818;stroke-width:1;"/><line style="stroke:#181818;stroke-width:1;" x1="220.8379" x2="220.8379" y1="1835.1016" y2="1855.1016"/><polygon fill="#181818" points="216.8379,1845.1016,220.8379,1855.1016,224.8379,1845.1016,220.8379,1849.1016" style="stroke:#181818;stroke-width:1;"/><line style="stroke:#181818;stroke-width:1;" x1="220.8379" x2="220.8379" y1="1889.0703" y2="1909.0703"/><polygon fill="#181818" points="216.8379,1899.0703,220.8379,1909.0703,224.8379,1899.0703,220.8379,1903.0703" style="stroke:#181818;stroke-width:1;"/><line style="stroke:#181818;stroke-width:1;" x1="220.8379" x2="220.8379" y1="1943.0391" y2="1963.0391"/><polygon fill="#181818" points="216.8379,1953.0391,220.8379,1963.0391,224.8379,1953.0391,220.8379,1957.0391" style="stroke:#181818;stroke-width:1;"/><line style="stroke:#181818;stroke-width:1;" x1="136.8052" x2="136.8052" y1="2084.9766" y2="2104.9766"/><polygon fill="#181818" points="132.8052,2094.9766,136.8052,2104.9766,140.8052,2094.9766,136.8052,2098.9766" style="stroke:#181818;stroke-width:1;"/><line style="stroke:#181818;stroke-width:1;" x1="165.1655" x2="136.8052" y1="2029.0078" y2="2029.0078"/><line style="stroke:#181818;stroke-width:1;" x1="136.8052" x2="136.8052" y1="2029.0078" y2="2051.0078"/><polygon fill="#181818" points="132.8052,2041.0078,136.8052,2051.0078,140.8052,2041.0078,136.8052,2045.0078" style="stroke:#181818;stroke-width:1;"/><line style="stroke:#181818;stroke-width:1;" x1="276.5103" x2="304.8706" y1="2029.0078" y2="2029.0078"/><line style="stroke:#181818;stroke-width:1;" x1="304.8706" x2="304.8706" y1="2029.0078" y2="2051.0078"/><polygon fill="#181818" points="300.8706,2041.0078,304.8706,2051.0078,308.8706,2041.0078,304.8706,2045.0078" style="stroke:#181818;stroke-width:1;"/><line style="stroke:#181818;stroke-width:1;" x1="136.8052" x2="136.8052" y1="2138.9453" y2="2156.9453"/><line style="stroke:#181818;stroke-width:1;" x1="136.8052" x2="208.8379" y1="2156.9453" y2="2156.9453"/><polygon fill="#181818" points="198.8379,2152.9453,208.8379,2156.9453,198.8379,2160.9453,202.8379,2156.9453" style="stroke:#181818;stroke-width:1;"/><line style="stroke:#181818;stroke-width:1;" x1="304.8706" x2="304.8706" y1="2084.9766" y2="2156.9453"/><line style="stroke:#181818;stroke-width:1;" x1="304.8706" x2="232.8379" y1="2156.9453" y2="2156.9453"/><polygon fill="#181818" points="242.8379,2152.9453,232.8379,2156.9453,242.8379,2160.9453,238.8379,2156.9453" style="stroke:#181818;stroke-width:1;"/><line style="stroke:#181818;stroke-width:1;" x1="220.8379" x2="220.8379" y1="1997.0078" y2="2017.0078"/><polygon fill="#181818" points="216.8379,2007.0078,220.8379,2017.0078,224.8379,2007.0078,220.8379,2011.0078" style="stroke:#181818;stroke-width:1;"/><line style="stroke:#181818;stroke-width:1;" x1="220.8379" x2="220.8379" y1="990.8086" y2="1037.1055"/><polygon fill="#181818" points="216.8379,1027.1055,220.8379,1037.1055,224.8379,1027.1055,220.8379,1031.1055" style="stroke:#181818;stroke-width:1;"/><line style="stroke:#181818;stroke-width:1;" x1="220.8379" x2="220.8379" y1="2168.9453" y2="2200.9453"/><polygon fill="#181818" points="216.8379,2190.9453,220.8379,2200.9453,224.8379,2190.9453,220.8379,2194.9453" style="stroke:#181818;stroke-width:1;"/><?plantuml-src bLHDRnCn4BtlhnZ1fPMAK0i8b1nGcYRYeobIqueBbuazITrwxMNi3QfG_pjZRtQpIOeGoMKzR_myyzxOqKHBCCCAmU6QLgYCT_0AhYb4h1bT9BX4k7KIBehmO5o5Z2KiK3sisDTEZxtr32-d-TVB27Ue_I_ZLh146wY7v6tAioE6qxCUe6c9jOrJx-8LbWGZDcXxEAferYO-mky2uFoWWW_JTzFJX7ZMn9lesz7P-PkfH1Fh9dOwIV_YgN-qmT8x_JppP3fvVt7nNyo5oCUnA0QNVcNSi1XyTf6zhfLXK4oQd9BUA0oBmYpXQDmBmHgjqHW-7aEy8mT7StCifmma1na2XUJGb-ytmnn4Nacq95SBjAgTg6k71OdYS7JbyyQP3v4bYPYbHas0TIGNZSfc9veGVLMGqsRPb7FjhUHPg4EDR7nRo4YNnfb4fZqdQj4kcfZgUR63lSWwoj5pj3XiFiU-HAVRrTUBUHl7-pOeGqUynj0X75lejgcaXKQrDj7BU6pMtvPBQnobrLDkFekA9JAntwkq3V-xo0DMuVJAEDndpC6Ehz_RjeDTiaRh7iVKrlSUAZOo1HLQCTEIIlw8dWrpL-TWtc79-I11YQQEPx80QnPCUyEJ95kmQTBXDM1Ug6st_O79EhWWDn6xdERkDQbDxRjg3MxaUuTnC9BIvP3AOlJX19Iy9JBMciB93oTppYjoFi0Z-4LsFVMJxqFJoYTyb2tbGZo7z0g5DBWg2ttOsqIc0V_QpxPWSMR3aIkS8IlSL2XPeZwbrw2z5Rkua7lHLgvAngvyD4kJO8IGZTbNPEBMHc2vPmyK9KlbGIzw8o_f2-vIkjPlcXqgWTeVTZkMYzmvdoFPzvyrwOtxppYQKwea1QKtFObfX8UsZkP7orT_0000?></g></svg>