<?xml version="1.0" encoding="us-ascii" standalone="no"?><svg xmlns="http://www.w3.org/2000/svg" xmlns:xlink="http://www.w3.org/1999/xlink" contentStyleType="text/css" height="736px" preserveAspectRatio="none" style="width:444px;height:736px;background:#FFFFFF;" version="1.1" viewBox="0 0 444 736" width="444px" zoomAndPan="magnify"><defs/><g><path d="M82,7 L341,7 A12.5,12.5 0 0 1 353.5,19.5 L353.5,34.6094 L69.5,34.6094 L69.5,19.5 A12.5,12.5 0 0 1 82,7 " fill="#F1F1F1" style="stroke:#F1F1F1;stroke-width:1.0;"/><rect fill="none" height="576.6094" rx="12.5" ry="12.5" style="stroke:#181818;stroke-width:0.5;" width="284" x="69.5" y="7"/><line style="stroke:#181818;stroke-width:0.5;" x1="69.5" x2="353.5" y1="34.6094" y2="34.6094"/><text fill="#000000" font-family="sans-serif" font-size="14" lengthAdjust="spacing" textLength="121" x="151" y="26.5332">rechazarBorrador()</text><g id="rechazarBorrador.SeleccionandoBorrador"><rect fill="#F1F1F1" height="50" rx="12.5" ry="12.5" style="stroke:#181818;stroke-width:0.5;" width="50" x="81.5" y="137.6094"/><line style="stroke:#181818;stroke-width:0.5;" x1="81.5" x2="131.5" y1="165.2188" y2="165.2188"/><text fill="#000000" font-family="sans-serif" font-size="14" lengthAdjust="spacing" textLength="4" x="104.5" y="157.1426">&#160;</text></g><g id="rechazarBorrador.SolicitandoRechazo"><rect fill="#F1F1F1" height="50" rx="12.5" ry="12.5" style="stroke:#181818;stroke-width:0.5;" width="50" x="81.5" y="275.6094"/><line style="stroke:#181818;stroke-width:0.5;" x1="81.5" x2="131.5" y1="303.2188" y2="303.2188"/><text fill="#000000" font-family="sans-serif" font-size="14" lengthAdjust="spacing" textLength="4" x="104.5" y="295.1426">&#160;</text></g><g id="rechazarBorrador.ActualizandoEstado"><rect fill="#F1F1F1" height="50" rx="12.5" ry="12.5" style="stroke:#181818;stroke-width:0.5;" width="50" x="81.5" y="413.6094"/><line style="stroke:#181818;stroke-width:0.5;" x1="81.5" x2="131.5" y1="441.2188" y2="441.2188"/><text fill="#000000" font-family="sans-serif" font-size="14" lengthAdjust="spacing" textLength="4" x="104.5" y="433.1426">&#160;</text></g><ellipse cx="106.5" cy="55.6094" fill="#222222" rx="10" ry="10" style="stroke:#222222;stroke-width:1.0;"/><ellipse cx="106.5" cy="562.6094" fill="none" rx="11" ry="11" style="stroke:#222222;stroke-width:1.0;"/><ellipse cx="106.5" cy="562.6094" fill="#222222" rx="6" ry="6" style="stroke:#222222;stroke-width:1.0;"/><!--link *start*rechazarBorrador to SeleccionandoBorrador--><g id="link_*start*rechazarBorrador_SeleccionandoBorrador"><path d="M106.5,65.9294 C106.5,81.7894 106.5,108.5194 106.5,131.2494 " fill="none" id="*start*rechazarBorrador-to-SeleccionandoBorrador" style="stroke:#008000;stroke-width:1.0;"/><polygon fill="#008000" points="106.5,137.2494,110.5,128.2494,106.5,132.2494,102.5,128.2494,106.5,137.2494" style="stroke:#008000;stroke-width:1.0;"/><path d="M111.5,88.6094 L111.5,114.6094 L344.5,114.6094 L344.5,98.6094 L334.5,88.6094 L111.5,88.6094 " fill="#FEFFDD" style="stroke:#181818;stroke-width:0.5;"/><path d="M334.5,88.6094 L334.5,98.6094 L344.5,98.6094 L334.5,88.6094 " fill="#FEFFDD" style="stroke:#181818;stroke-width:0.5;"/><text fill="#000000" font-family="sans-serif" font-size="13" lengthAdjust="spacing" textLength="212" x="117.5" y="107.1045">Se selecciona el borrador a rechazar</text></g><!--link SeleccionandoBorrador to SolicitandoRechazo--><g id="link_SeleccionandoBorrador_SolicitandoRechazo"><path d="M106.5,187.6094 C106.5,212.3194 106.5,244.6094 106.5,269.3894 " fill="none" id="SeleccionandoBorrador-to-SolicitandoRechazo" style="stroke:#008000;stroke-width:1.0;"/><polygon fill="#008000" points="106.5,275.3894,110.5,266.3894,106.5,270.3894,102.5,266.3894,106.5,275.3894" style="stroke:#008000;stroke-width:1.0;"/><path d="M111.5,210.6094 L111.5,252.6094 L286.5,252.6094 L286.5,220.6094 L276.5,210.6094 L111.5,210.6094 " fill="#FEFFDD" style="stroke:#181818;stroke-width:0.5;"/><path d="M276.5,210.6094 L276.5,220.6094 L286.5,220.6094 L276.5,210.6094 " fill="#FEFFDD" style="stroke:#181818;stroke-width:0.5;"/><text fill="#000000" font-family="sans-serif" font-size="13" lengthAdjust="spacing" textLength="154" x="117.5" y="229.1045">El actor solicita el rechazo</text><text fill="#000000" font-family="sans-serif" font-size="13" lengthAdjust="spacing" textLength="148" x="117.5" y="245.4561">del borrador seleccionado</text></g><!--link SolicitandoRechazo to ActualizandoEstado--><g id="link_SolicitandoRechazo_ActualizandoEstado"><path d="M106.5,325.6094 C106.5,350.3194 106.5,382.6094 106.5,407.3894 " fill="none" id="SolicitandoRechazo-to-ActualizandoEstado" style="stroke:#008000;stroke-width:1.0;"/><polygon fill="#008000" points="106.5,413.3894,110.5,404.3894,106.5,408.3894,102.5,404.3894,106.5,413.3894" style="stroke:#008000;stroke-width:1.0;"/><path d="M111.5,348.6094 L111.5,390.6094 L315.5,390.6094 L315.5,358.6094 L305.5,348.6094 L111.5,348.6094 " fill="#FEFFDD" style="stroke:#181818;stroke-width:0.5;"/><path d="M305.5,348.6094 L305.5,358.6094 L315.5,358.6094 L305.5,348.6094 " fill="#FEFFDD" style="stroke:#181818;stroke-width:0.5;"/><text fill="#000000" font-family="sans-serif" font-size="13" font-weight="bold" lengthAdjust="spacing" textLength="51" x="117.5" y="367.1045">Sistema</text><text fill="#000000" font-family="sans-serif" font-size="13" lengthAdjust="spacing" textLength="128" x="172.5" y="367.1045">valida el estado actual</text><text fill="#000000" font-family="sans-serif" font-size="13" lengthAdjust="spacing" textLength="121" x="117.5" y="383.4561">y procesa el rechazo</text></g><!--link ActualizandoEstado to *end*rechazarBorrador--><g id="link_ActualizandoEstado_*end*rechazarBorrador"><path d="M106.5,463.7094 C106.5,490.3794 106.5,526.1094 106.5,545.3094 " fill="none" id="ActualizandoEstado-to-*end*rechazarBorrador" style="stroke:#008000;stroke-width:1.0;"/><polygon fill="#008000" points="106.5,551.3094,110.5,542.3094,106.5,546.3094,102.5,542.3094,106.5,551.3094" style="stroke:#008000;stroke-width:1.0;"/><path d="M111.5,486.6094 L111.5,528.6094 L288.5,528.6094 L288.5,496.6094 L278.5,486.6094 L111.5,486.6094 " fill="#FEFFDD" style="stroke:#181818;stroke-width:0.5;"/><path d="M278.5,486.6094 L278.5,496.6094 L288.5,496.6094 L278.5,486.6094 " fill="#FEFFDD" style="stroke:#181818;stroke-width:0.5;"/><text fill="#000000" font-family="sans-serif" font-size="13" font-weight="bold" lengthAdjust="spacing" textLength="51" x="117.5" y="505.1045">Sistema</text><text fill="#000000" font-family="sans-serif" font-size="13" lengthAdjust="spacing" textLength="101" x="172.5" y="505.1045">marca el borrador</text><text fill="#000000" font-family="sans-serif" font-size="13" lengthAdjust="spacing" textLength="96" x="117.5" y="521.4561">como rechazado</text></g><g id="BORRADOR_RECHAZADO"><rect fill="#F1F1F1" height="50" rx="12.5" ry="12.5" style="stroke:#181818;stroke-width:0.5;" width="193" x="7" y="680"/><line style="stroke:#181818;stroke-width:0.5;" x1="7" x2="200" y1="707.6094" y2="707.6094"/><text fill="#000000" font-family="sans-serif" font-size="14" lengthAdjust="spacing" textLength="173" x="17" y="699.5332">BORRADOR_RECHAZADO</text></g><g id="BORRADOR_ABIERTO"><rect fill="#F1F1F1" height="50" rx="12.5" ry="12.5" style="stroke:#181818;stroke-width:0.5;" width="168" x="235.5" y="680"/><line style="stroke:#181818;stroke-width:0.5;" x1="235.5" x2="403.5" y1="707.6094" y2="707.6094"/><text fill="#000000" font-family="sans-serif" font-size="14" lengthAdjust="spacing" textLength="148" x="245.5" y="699.5332">BORRADOR_ABIERTO</text></g><!--link rechazarBorrador to BORRADOR_RECHAZADO--><g id="link_rechazarBorrador_BORRADOR_RECHAZADO"><path d="M135.25,584.22 C124.8,623.65 117.2256,652.1998 111.4856,673.8798 " fill="none" id="rechazarBorrador-to-BORRADOR_RECHAZADO" style="stroke:#008000;stroke-width:1.0;"/><polygon fill="#008000" points="109.95,679.68,116.1202,672.0035,111.2297,674.8465,108.3867,669.956,109.95,679.68" style="stroke:#008000;stroke-width:1.0;"/><path d="M132.5,619 L132.5,645 L269.5,645 L269.5,629 L259.5,619 L132.5,619 " fill="#FEFFDD" style="stroke:#181818;stroke-width:0.5;"/><path d="M259.5,619 L259.5,629 L269.5,629 L259.5,619 " fill="#FEFFDD" style="stroke:#181818;stroke-width:0.5;"/><text fill="#000000" font-family="sans-serif" font-size="13" lengthAdjust="spacing" textLength="116" x="138.5" y="637.4951">completarRechazo()</text></g><!--link rechazarBorrador to BORRADOR_ABIERTO--><g id="link_rechazarBorrador_BORRADOR_ABIERTO"><path d="M287.75,584.22 C298.2,623.65 305.7744,652.1998 311.5144,673.8798 " fill="none" id="rechazarBorrador-to-BORRADOR_ABIERTO" style="stroke:#FF0000;stroke-width:1.0;"/><polygon fill="#FF0000" points="313.05,679.68,314.6133,669.956,311.7703,674.8465,306.8798,672.0035,313.05,679.68" style="stroke:#FF0000;stroke-width:1.0;"/><path d="M308.5,619 L308.5,645 L437.5,645 L437.5,629 L427.5,619 L308.5,619 " fill="#FEFFDD" style="stroke:#181818;stroke-width:0.5;"/><path d="M427.5,619 L427.5,629 L437.5,629 L427.5,619 " fill="#FEFFDD" style="stroke:#181818;stroke-width:0.5;"/><text fill="#000000" font-family="sans-serif" font-size="13" lengthAdjust="spacing" textLength="108" x="314.5" y="637.4951">cancelarRechazo()</text></g><!--SRC=[ZP9DQiCm48NtEiMGRf92w0L2m6aDxIhWTDKGoaGQKX5POoIra9JUlRBowrYKsXjRVk_DDpFsMsqRT5Y3qPR2hY5esEpQ5o5ym43WI7xW7jsCdKF53j33uFPmE1h0jn0GhuDh4EyeN90XAJLRj8fFueoCZPOwjA8g9NDVKyZmYKRlMr4PloW-r5lUhs2ylDiu8hiQJ_yeQJcciMrRtQQ31O4_gu4ChCyzdjjEGh8gkSNHbgdGPSZtqmCe3Q0CqUoFXXR2NJdKDTI5LN4EgrUqmvIPNvPfifukj0zKu-HXFOMlw569YvAf1OuvIRg3nh4atyFkWlKhTy3Y0lz5KgEJdIqbaUIQJykw7SkF4Bs_zxhoR5vLnTEyUg_An-VYBJwA3aJCRWm5TCTv3aVYqbaksP7gv1Qpbx9wlKr5AybaGty1]--></g></svg>