<svg xmlns="http://www.w3.org/2000/svg" xmlns:xlink="http://www.w3.org/1999/xlink" contentStyleType="text/css" data-diagram-type="DESCRIPTION" height="254px" preserveAspectRatio="none" style="width:572px;height:254px;background:#FFFFFF;" version="1.1" viewBox="0 0 572 254" width="572px" zoomAndPan="magnify"><title>Diagrama de contexto</title><defs/><g><g class="title" data-source-line="2"><text fill="#000000" font-family="sans-serif" font-size="14" font-weight="bold" lengthAdjust="spacing" textLength="174.9521" x="191.5415" y="22.9951">Diagrama de contexto</text></g><!--entity QA--><g class="entity" data-entity="QA" data-source-line="4" data-uid="ent0002" id="entity_QA"><ellipse cx="62.5981" cy="181.2969" fill="#F1F1F1" rx="8" ry="8" style="stroke:#181818;stroke-width:0.5;"/><path d="M62.5981,189.2969 L62.5981,216.2969 M49.5981,197.2969 L75.5981,197.2969 M62.5981,216.2969 L49.5981,231.2969 M62.5981,216.2969 L75.5981,231.2969" fill="none" style="stroke:#181818;stroke-width:0.5;"/><text fill="#000000" font-family="sans-serif" font-size="14" lengthAdjust="spacing" textLength="113.1963" x="6" y="245.792">Ingeniero de QA</text></g><!--entity SISTEMA--><g class="entity" data-entity="SISTEMA" data-source-line="6" data-uid="ent0003" id="entity_SISTEMA"><rect fill="#F1F1F1" height="36.2969" rx="2.5" ry="2.5" style="stroke:#181818;stroke-width:0.5;" width="76.3896" x="180" y="141.7969"/><text fill="#000000" font-family="sans-serif" font-size="14" lengthAdjust="spacing" textLength="56.3896" x="190" y="164.792">Sistema</text></g><!--entity MODELO--><g class="entity" data-entity="MODELO" data-source-line="7" data-uid="ent0004" id="entity_MODELO"><rect fill="#F1F1F1" height="52.5938" rx="2.5" ry="2.5" style="stroke:#181818;stroke-width:0.5;" width="110.7061" x="443" y="44.2969"/><text fill="#000000" font-family="sans-serif" font-size="14" lengthAdjust="spacing" textLength="90.7061" x="453" y="67.292">Modelo de IA</text><text fill="#000000" font-family="sans-serif" font-size="14" lengthAdjust="spacing" textLength="62.0225" x="453" y="83.5889">(OpenAI)</text></g><!--entity KIWI--><g class="entity" data-entity="KIWI" data-source-line="8" data-uid="ent0005" id="entity_KIWI"><rect fill="#F1F1F1" height="52.5938" rx="2.5" ry="2.5" style="stroke:#181818;stroke-width:0.5;" width="135.0352" x="431" y="146.2969"/><text fill="#000000" font-family="sans-serif" font-size="14" lengthAdjust="spacing" textLength="72.1533" x="441" y="169.292">Kiwi TCMS</text><text fill="#000000" font-family="sans-serif" font-size="14" lengthAdjust="spacing" textLength="115.0352" x="441" y="185.5889">Sistema externo</text></g><!--link QA to SISTEMA--><g class="link" data-entity-1="QA" data-entity-2="SISTEMA" data-source-line="10" data-uid="lnk6" id="link_QA_SISTEMA"><path d="M119.35,192.2369 C139.41,185.5769 155.8363,180.1195 173.9463,174.0995" fill="none" id="QA-to-SISTEMA" style="stroke:#181818;stroke-width:1;"/><polygon fill="#181818" points="179.64,172.2069,169.8377,171.2501,174.8953,173.7841,172.3613,178.8416,179.64,172.2069" style="stroke:#181818;stroke-width:1;"/></g><!--link QA to KIWI--><g class="link" data-entity-1="QA" data-entity-2="KIWI" data-source-line="11" data-uid="lnk7" id="link_QA_KIWI"><path d="M119.11,206.2969 C157.56,203.1469 209.9,198.8169 256,194.7969 C315.14,189.6469 376.4156,184.0501 424.9056,179.5601" fill="none" id="QA-to-KIWI" style="stroke:#181818;stroke-width:1;"/><polygon fill="#181818" points="430.88,179.0069,421.5495,175.8537,425.9013,179.4679,422.2871,183.8197,430.88,179.0069" style="stroke:#181818;stroke-width:1;"/></g><!--link MODELO to SISTEMA--><g class="link" data-entity-1="MODELO" data-entity-2="SISTEMA" data-source-line="12" data-uid="lnk8" id="link_MODELO_SISTEMA"><path d="M442.59,87.4669 C399.82,100.5669 339,119.4369 286,136.7969 C276.3,139.9769 271.5249,141.5587 261.8249,144.8887" fill="none" id="MODELO-to-SISTEMA" style="stroke:#181818;stroke-width:1;"/><polygon fill="#181818" points="256.15,146.8369,265.9612,147.6979,260.8791,145.2134,263.3636,140.1313,256.15,146.8369" style="stroke:#181818;stroke-width:1;"/></g><!--link SISTEMA to MODELO--><g class="link" data-entity-1="SISTEMA" data-entity-2="MODELO" data-source-line="13" data-uid="lnk9" id="link_SISTEMA_MODELO"><path d="M232.48,141.5469 C244.66,126.5469 264.02,106.1469 286,95.7969 C335.51,72.4869 392.46,67.7425 436.77,67.9225" fill="none" id="SISTEMA-to-MODELO" style="stroke:#181818;stroke-width:1;"/><polygon fill="#181818" points="442.77,67.9469,433.7863,63.9103,437.77,67.9266,433.7538,71.9103,442.77,67.9469" style="stroke:#181818;stroke-width:1;"/><text fill="#000000" font-family="sans-serif" font-size="13" lengthAdjust="spacing" textLength="113.5088" x="287" y="65.8638">Consume modelo</text></g><!--link SISTEMA to KIWI--><g class="link" data-entity-1="SISTEMA" data-entity-2="KIWI" data-source-line="14" data-uid="lnk10" id="link_SISTEMA_KIWI"><path d="M256.27,170.5569 C300.81,176.7969 370.1601,181.0243 424.8201,180.7743" fill="none" id="SISTEMA-to-KIWI" style="stroke:#181818;stroke-width:1;"/><polygon fill="#181818" points="430.82,180.7469,421.8018,176.7881,425.8201,180.7697,421.8384,184.788,430.82,180.7469" style="stroke:#181818;stroke-width:1;"/></g><!--link KIWI to SISTEMA--><g class="link" data-entity-1="KIWI" data-entity-2="SISTEMA" data-source-line="15" data-uid="lnk11" id="link_KIWI_SISTEMA"><path d="M430.82,157.9669 C376.16,152.4569 306.8019,149.3548 262.2619,151.6748" fill="none" id="KIWI-to-SISTEMA" style="stroke:#181818;stroke-width:1;"/><polygon fill="#181818" points="256.27,151.9869,265.4659,155.5133,261.2632,151.7268,265.0497,147.5241,256.27,151.9869" style="stroke:#181818;stroke-width:1;"/></g><!--SRC=[LOx12i8m38RlUOgmanvy0Gz2KGz5nv09NhoKBSx0baWNqSTtgmxcfQNz_lzBMhePccBavcvOSwJAM0MChINSSMXYw0BMX9MAqTiK85Ic4JCl3GbJr96UN8QX7ow0KH6a6UfPoRrH5n8gVNdUvswESwsfJNNlhh8e7YJEBrCwBtRxOp4F7_Z5UDxcvLL-MXpMeIYQ2WT_yG0dXwlLPfg5qpl1htBEOSgDVp-yngrA_-m8kxJTNsRq8AHpfla0]--></g></svg>