<?xml version="1.0" encoding="us-ascii" standalone="no"?><svg xmlns="http://www.w3.org/2000/svg" xmlns:xlink="http://www.w3.org/1999/xlink" contentStyleType="text/css" height="874px" preserveAspectRatio="none" style="width:409px;height:874px;background:#FFFFFF;" version="1.1" viewBox="0 0 409 874" width="409px" zoomAndPan="magnify"><defs/><g><path d="M19.5,7 L324.5,7 A12.5,12.5 0 0 1 337,19.5 L337,34.6094 L7,34.6094 L7,19.5 A12.5,12.5 0 0 1 19.5,7 " fill="#F1F1F1" style="stroke:#F1F1F1;stroke-width:1.0;"/><rect fill="none" height="714.6094" rx="12.5" ry="12.5" style="stroke:#181818;stroke-width:0.5;" width="330" x="7" y="7"/><line style="stroke:#181818;stroke-width:0.5;" x1="7" x2="337" y1="34.6094" y2="34.6094"/><text fill="#000000" font-family="sans-serif" font-size="14" lengthAdjust="spacing" textLength="169" x="87.5" y="26.5332">anadirFeedbackBorrador()</text><g id="anadirFeedbackBorrador.SeleccionandoBorrador"><rect fill="#F1F1F1" height="50" rx="12.5" ry="12.5" style="stroke:#181818;stroke-width:0.5;" width="50" x="19" y="137.6094"/><line style="stroke:#181818;stroke-width:0.5;" x1="19" x2="69" y1="165.2188" y2="165.2188"/><text fill="#000000" font-family="sans-serif" font-size="14" lengthAdjust="spacing" textLength="4" x="42" y="157.1426">&#160;</text></g><g id="anadirFeedbackBorrador.IntroduciendoFeedback"><rect fill="#F1F1F1" height="50" rx="12.5" ry="12.5" style="stroke:#181818;stroke-width:0.5;" width="50" x="19" y="275.6094"/><line style="stroke:#181818;stroke-width:0.5;" x1="19" x2="69" y1="303.2188" y2="303.2188"/><text fill="#000000" font-family="sans-serif" font-size="14" lengthAdjust="spacing" textLength="4" x="42" y="295.1426">&#160;</text></g><g id="anadirFeedbackBorrador.RegistrandoFeedback"><rect fill="#F1F1F1" height="50" rx="12.5" ry="12.5" style="stroke:#181818;stroke-width:0.5;" width="50" x="19" y="413.6094"/><line style="stroke:#181818;stroke-width:0.5;" x1="19" x2="69" y1="441.2188" y2="441.2188"/><text fill="#000000" font-family="sans-serif" font-size="14" lengthAdjust="spacing" textLength="4" x="42" y="433.1426">&#160;</text></g><g id="anadirFeedbackBorrador.GenerandoNuevaVersion"><rect fill="#F1F1F1" height="50" rx="12.5" ry="12.5" style="stroke:#181818;stroke-width:0.5;" width="50" x="19" y="551.6094"/><line style="stroke:#181818;stroke-width:0.5;" x1="19" x2="69" y1="579.2188" y2="579.2188"/><text fill="#000000" font-family="sans-serif" font-size="14" lengthAdjust="spacing" textLength="4" x="42" y="571.1426">&#160;</text></g><ellipse cx="44" cy="55.6094" fill="#222222" rx="10" ry="10" style="stroke:#222222;stroke-width:1.0;"/><ellipse cx="44" cy="700.6094" fill="none" rx="11" ry="11" style="stroke:#222222;stroke-width:1.0;"/><ellipse cx="44" cy="700.6094" fill="#222222" rx="6" ry="6" style="stroke:#222222;stroke-width:1.0;"/><!--link *start*anadirFeedbackBorrador to SeleccionandoBorrador--><g id="link_*start*anadirFeedbackBorrador_SeleccionandoBorrador"><path d="M44,65.9294 C44,81.7894 44,108.5194 44,131.2494 " fill="none" id="*start*anadirFeedbackBorrador-to-SeleccionandoBorrador" style="stroke:#008000;stroke-width:1.0;"/><polygon fill="#008000" points="44,137.2494,48,128.2494,44,132.2494,40,128.2494,44,137.2494" style="stroke:#008000;stroke-width:1.0;"/><path d="M49,88.6094 L49,114.6094 L269,114.6094 L269,98.6094 L259,88.6094 L49,88.6094 " fill="#FEFFDD" style="stroke:#181818;stroke-width:0.5;"/><path d="M259,88.6094 L259,98.6094 L269,98.6094 L259,88.6094 " fill="#FEFFDD" style="stroke:#181818;stroke-width:0.5;"/><text fill="#000000" font-family="sans-serif" font-size="13" lengthAdjust="spacing" textLength="199" x="55" y="107.1045">Se selecciona el borrador a revisar</text></g><!--link SeleccionandoBorrador to IntroduciendoFeedback--><g id="link_SeleccionandoBorrador_IntroduciendoFeedback"><path d="M44,187.6094 C44,212.3194 44,244.6094 44,269.3894 " fill="none" id="SeleccionandoBorrador-to-IntroduciendoFeedback" style="stroke:#008000;stroke-width:1.0;"/><polygon fill="#008000" points="44,275.3894,48,266.3894,44,270.3894,40,266.3894,44,275.3894" style="stroke:#008000;stroke-width:1.0;"/><path d="M49,210.6094 L49,252.6094 L285,252.6094 L285,220.6094 L275,210.6094 L49,210.6094 " fill="#FEFFDD" style="stroke:#181818;stroke-width:0.5;"/><path d="M275,210.6094 L275,220.6094 L285,220.6094 L275,210.6094 " fill="#FEFFDD" style="stroke:#181818;stroke-width:0.5;"/><text fill="#000000" font-family="sans-serif" font-size="13" font-weight="bold" lengthAdjust="spacing" textLength="51" x="55" y="229.1045">Sistema</text><text fill="#000000" font-family="sans-serif" font-size="13" lengthAdjust="spacing" textLength="160" x="110" y="229.1045">muestra el contenido actual</text><text fill="#000000" font-family="sans-serif" font-size="13" lengthAdjust="spacing" textLength="185" x="55" y="245.4561">del borrador y habilita la revision</text></g><!--link IntroduciendoFeedback to RegistrandoFeedback--><g id="link_IntroduciendoFeedback_RegistrandoFeedback"><path d="M44,325.6094 C44,350.3194 44,382.6094 44,407.3894 " fill="none" id="IntroduciendoFeedback-to-RegistrandoFeedback" style="stroke:#008000;stroke-width:1.0;"/><polygon fill="#008000" points="44,413.3894,48,404.3894,44,408.3894,40,404.3894,44,413.3894" style="stroke:#008000;stroke-width:1.0;"/><path d="M49,348.6094 L49,390.6094 L277,390.6094 L277,358.6094 L267,348.6094 L49,348.6094 " fill="#FEFFDD" style="stroke:#181818;stroke-width:0.5;"/><path d="M267,348.6094 L267,358.6094 L277,358.6094 L267,348.6094 " fill="#FEFFDD" style="stroke:#181818;stroke-width:0.5;"/><text fill="#000000" font-family="sans-serif" font-size="13" font-weight="bold" lengthAdjust="spacing" textLength="51" x="55" y="367.1045">Sistema</text><text fill="#000000" font-family="sans-serif" font-size="13" lengthAdjust="spacing" textLength="152" x="110" y="367.1045">recibe y valida el feedback</text><text fill="#000000" font-family="sans-serif" font-size="13" lengthAdjust="spacing" textLength="132" x="55" y="383.4561">introducido por el actor</text></g><!--link RegistrandoFeedback to GenerandoNuevaVersion--><g id="link_RegistrandoFeedback_GenerandoNuevaVersion"><path d="M44,463.6094 C44,488.3194 44,520.6094 44,545.3894 " fill="none" id="RegistrandoFeedback-to-GenerandoNuevaVersion" style="stroke:#008000;stroke-width:1.0;"/><polygon fill="#008000" points="44,551.3894,48,542.3894,44,546.3894,40,542.3894,44,551.3894" style="stroke:#008000;stroke-width:1.0;"/><path d="M49,486.6094 L49,528.6094 L294,528.6094 L294,496.6094 L284,486.6094 L49,486.6094 " fill="#FEFFDD" style="stroke:#181818;stroke-width:0.5;"/><path d="M284,486.6094 L284,496.6094 L294,496.6094 L284,486.6094 " fill="#FEFFDD" style="stroke:#181818;stroke-width:0.5;"/><text fill="#000000" font-family="sans-serif" font-size="13" font-weight="bold" lengthAdjust="spacing" textLength="51" x="55" y="505.1045">Sistema</text><text fill="#000000" font-family="sans-serif" font-size="13" lengthAdjust="spacing" textLength="169" x="110" y="505.1045">registra el feedback asociado</text><text fill="#000000" font-family="sans-serif" font-size="13" lengthAdjust="spacing" textLength="141" x="55" y="521.4561">al borrador seleccionado</text></g><!--link GenerandoNuevaVersion to *end*anadirFeedbackBorrador--><g id="link_GenerandoNuevaVersion_*end*anadirFeedbackBorrador"><path d="M44,601.7094 C44,628.3794 44,664.1094 44,683.3094 " fill="none" id="GenerandoNuevaVersion-to-*end*anadirFeedbackBorrador" style="stroke:#008000;stroke-width:1.0;"/><polygon fill="#008000" points="44,689.3094,48,680.3094,44,684.3094,40,680.3094,44,689.3094" style="stroke:#008000;stroke-width:1.0;"/><path d="M49,624.6094 L49,666.6094 L328,666.6094 L328,634.6094 L318,624.6094 L49,624.6094 " fill="#FEFFDD" style="stroke:#181818;stroke-width:0.5;"/><path d="M318,624.6094 L318,634.6094 L328,634.6094 L318,624.6094 " fill="#FEFFDD" style="stroke:#181818;stroke-width:0.5;"/><text fill="#000000" font-family="sans-serif" font-size="13" font-weight="bold" lengthAdjust="spacing" textLength="51" x="55" y="643.1045">Sistema</text><text fill="#000000" font-family="sans-serif" font-size="13" lengthAdjust="spacing" textLength="203" x="110" y="643.1045">genera y registra una nueva version</text><text fill="#000000" font-family="sans-serif" font-size="13" lengthAdjust="spacing" textLength="233" x="55" y="659.4561">del borrador enriquecida con el feedback</text></g><g id="BORRADOR_ABIERTO"><rect fill="#F1F1F1" height="50" rx="12.5" ry="12.5" style="stroke:#181818;stroke-width:0.5;" width="168" x="88" y="818"/><line style="stroke:#181818;stroke-width:0.5;" x1="88" x2="256" y1="845.6094" y2="845.6094"/><text fill="#000000" font-family="sans-serif" font-size="14" lengthAdjust="spacing" textLength="148" x="98" y="837.5332">BORRADOR_ABIERTO</text></g><!--link anadirFeedbackBorrador to BORRADOR_ABIERTO--><g id="link_anadirFeedbackBorrador_BORRADOR_ABIERTO"><path d="M70.45,722.31 C65.18,740.84 62,752 62,752 C62,752 62,788 62,788 C62,788 88.1134,800.8273 117.4034,815.1973 " fill="none" id="anadirFeedbackBorrador-to-BORRADOR_ABIERTO" style="stroke:#008000;stroke-width:1.0;"/><polygon fill="#008000" points="122.79,817.84,116.4719,810.2848,118.3011,815.6377,112.9482,817.467,122.79,817.84" style="stroke:#008000;stroke-width:1.0;"/><path d="M67,757 L67,783 L231,783 L231,767 L221,757 L67,757 " fill="#FEFFDD" style="stroke:#181818;stroke-width:0.5;"/><path d="M221,757 L221,767 L231,767 L221,757 " fill="#FEFFDD" style="stroke:#181818;stroke-width:0.5;"/><text fill="#000000" font-family="sans-serif" font-size="13" lengthAdjust="spacing" textLength="143" x="73" y="775.4951">completarActualizacion()</text></g><!--link anadirFeedbackBorrador to BORRADOR_ABIERTO--><g id="link_anadirFeedbackBorrador_BORRADOR_ABIERTO"><path d="M234.78,722.31 C238.04,740.84 240,752 240,752 C240,752 240,788 240,788 C240,788 225.2301,799.7405 207.1201,814.1105 " fill="none" id="anadirFeedbackBorrador-to-BORRADOR_ABIERTO-1" style="stroke:#FF0000;stroke-width:1.0;"/><polygon fill="#FF0000" points="202.42,817.84,211.9565,815.3792,206.3368,814.7321,206.9839,809.1124,202.42,817.84" style="stroke:#FF0000;stroke-width:1.0;"/><path d="M245,757 L245,783 L402,783 L402,767 L392,757 L245,757 " fill="#FEFFDD" style="stroke:#181818;stroke-width:0.5;"/><path d="M392,757 L392,767 L402,767 L392,757 " fill="#FEFFDD" style="stroke:#181818;stroke-width:0.5;"/><text fill="#000000" font-family="sans-serif" font-size="13" lengthAdjust="spacing" textLength="136" x="251" y="775.4951">rechazarActualizacion()</text></g><!--SRC=[ZPFRQi9048Rlzoa6UwC5wGk8eFI0DnLYwOr8cUnETN7TJJSRGKlVlPF4GqBY8RaA-y_CD__-ITVQ9kXn0qPR2hk4875cbty8aGOC16XHQVzAf6AKwx7p7fNpW2bqse-wlGxy2W7yb1qw_B9yHeQarCwYLUueRiecDdYdCgc9PSVUJLb4Ivq6ZrT5RsIfaBndjCLFyYcFBz7cZmlepn-MdiWk-iChTDPnGsTpXyeHCuBqf0Oo49zC0KzRdM9Po0iKnU9GrJAWXd1vymR281xEU7tQuE0f7i8cezoBd4Kw6yXgvG1boD0KSbM5tC4AOsrqG307uDoL9d4hJutuqYNSulKaTKnCiaMZLS7zNQtNnycyHiB8VCxRk3PRMn1gYEqHk0-ox5obur0vgTd6eW0hhfuJSJYiOxPYr40va7TXBOjExDs9B-CKshmjR2lhrUwShDS_6RlEPdD26eQVOF-4kF33Lrd7qoWQFK-Zhz5uyX9zJ4KDMhfDOYYW7nK9r7lCVUdsnDcIopCygTiJE3yht5yPy0y0]--></g></svg>