<svg xmlns="http://www.w3.org/2000/svg" xmlns:xlink="http://www.w3.org/1999/xlink" contentStyleType="text/css" data-diagram-type="STATE" height="741px" preserveAspectRatio="none" style="width:421px;height:741px;background:#FFFFFF;" version="1.1" viewBox="0 0 421 741" width="421px" zoomAndPan="magnify"><defs/><g><path d="M35.5,7 L327.5,7 A12.5,12.5 0 0 1 340,19.5 L340,33.2969 L23,33.2969 L23,19.5 A12.5,12.5 0 0 1 35.5,7" fill="#F1F1F1"/><rect fill="none" height="583.2969" rx="12.5" ry="12.5" style="stroke:#181818;stroke-width:0.5;" width="317" x="23" y="7"/><line style="stroke:#181818;stroke-width:0.5;" x1="23" x2="340" y1="33.2969" y2="33.2969"/><text fill="#000000" font-family="sans-serif" font-size="14" lengthAdjust="spacing" textLength="121.1465" x="120.9268" y="24.9951">registrarCuenta()</text><g id="registrarCuenta.SolicitandoDatos"><rect fill="#F1F1F1" height="50" rx="12.5" ry="12.5" style="stroke:#181818;stroke-width:0.5;" width="50" x="35" y="150.2969"/><line style="stroke:#181818;stroke-width:0.5;" x1="35" x2="85" y1="176.5938" y2="176.5938"/><text fill="#000000" font-family="sans-serif" font-size="14" lengthAdjust="spacing" textLength="4.4502" x="57.7749" y="168.292">&#160;</text></g><g id="registrarCuenta.ValidandoDatos"><rect fill="#F1F1F1" height="50" rx="12.5" ry="12.5" style="stroke:#181818;stroke-width:0.5;" width="50" x="35" y="286.2969"/><line style="stroke:#181818;stroke-width:0.5;" x1="35" x2="85" y1="312.5938" y2="312.5938"/><text fill="#000000" font-family="sans-serif" font-size="14" lengthAdjust="spacing" textLength="4.4502" x="57.7749" y="304.292">&#160;</text></g><g id="registrarCuenta.CreandoCuenta"><rect fill="#F1F1F1" height="50" rx="12.5" ry="12.5" style="stroke:#181818;stroke-width:0.5;" width="50" x="35" y="422.2969"/><line style="stroke:#181818;stroke-width:0.5;" x1="35" x2="85" y1="448.5938" y2="448.5938"/><text fill="#000000" font-family="sans-serif" font-size="14" lengthAdjust="spacing" textLength="4.4502" x="57.7749" y="440.292">&#160;</text></g><ellipse cx="60" cy="54.2969" fill="#222222" rx="10" ry="10" style="stroke:#222222;stroke-width:1;"/><ellipse cx="60" cy="569.2969" fill="none" rx="11" ry="11" style="stroke:#222222;stroke-width:1;"/><ellipse cx="60" cy="569.2969" fill="#222222" rx="6" ry="6" style="stroke:#222222;stroke-width:1;"/><!--link *start*registrarCuenta to SolicitandoDatos--><g class="link" data-entity-1=".start.registrarCuenta" data-entity-2="SolicitandoDatos" data-source-line="9" data-uid="lnk3" id="link_.start.registrarCuenta_SolicitandoDatos"><path d="M60,64.6369 C60,82.8269 60,117.5369 60,143.9069" fill="none" id="*start*registrarCuenta-to-SolicitandoDatos" style="stroke:#008000;stroke-width:1;"/><polygon fill="#008000" points="60,149.9069,64,140.9069,60,144.9069,56,140.9069,60,149.9069" style="stroke:#008000;stroke-width:1;"/><path d="M65,87.2969 L65,127.2969 L212,127.2969 L212,97.2969 L202,87.2969 L65,87.2969" fill="#FEFFDD" style="stroke:#181818;stroke-width:0.5;"/><path d="M202,87.2969 L202,97.2969 L212,97.2969 L202,87.2969" fill="#FEFFDD" style="stroke:#181818;stroke-width:0.5;"/><text fill="#000000" font-family="sans-serif" font-size="13" lengthAdjust="spacing" textLength="126.02" x="71" y="104.3638">Se solicita registrar</text><text fill="#000000" font-family="sans-serif" font-size="13" lengthAdjust="spacing" textLength="117.5332" x="71" y="119.4966">una nueva cuenta</text></g><!--link SolicitandoDatos to ValidandoDatos--><g class="link" data-entity-1="SolicitandoDatos" data-entity-2="ValidandoDatos" data-source-line="15" data-uid="lnk4" id="link_SolicitandoDatos_ValidandoDatos"><path d="M60,200.5669 C60,224.8469 60,255.9869 60,280.2069" fill="none" id="SolicitandoDatos-to-ValidandoDatos" style="stroke:#008000;stroke-width:1;"/><polygon fill="#008000" points="60,286.2069,64,277.2069,60,281.2069,56,277.2069,60,286.2069" style="stroke:#008000;stroke-width:1;"/><path d="M65,223.2969 L65,263.2969 L323,263.2969 L323,233.2969 L313,223.2969 L65,223.2969" fill="#FEFFDD" style="stroke:#181818;stroke-width:0.5;"/><path d="M313,223.2969 L313,233.2969 L323,233.2969 L313,223.2969" fill="#FEFFDD" style="stroke:#181818;stroke-width:0.5;"/><text fill="#000000" font-family="sans-serif" font-size="13" font-weight="bold" lengthAdjust="spacing" textLength="58.9063" x="71" y="240.3638">Sistema</text><text fill="#000000" font-family="sans-serif" font-size="13" lengthAdjust="spacing" textLength="141.2227" x="134.0386" y="240.3638">muestra el formulario</text><text fill="#000000" font-family="sans-serif" font-size="13" lengthAdjust="spacing" textLength="237.2373" x="71" y="255.4966">y recibe usuario, email y contrasena</text></g><!--link ValidandoDatos to CreandoCuenta--><g class="link" data-entity-1="ValidandoDatos" data-entity-2="CreandoCuenta" data-source-line="21" data-uid="lnk5" id="link_ValidandoDatos_CreandoCuenta"><path d="M60,336.5669 C60,360.8469 60,391.9869 60,416.2069" fill="none" id="ValidandoDatos-to-CreandoCuenta" style="stroke:#008000;stroke-width:1;"/><polygon fill="#008000" points="60,422.2069,64,413.2069,60,417.2069,56,413.2069,60,422.2069" style="stroke:#008000;stroke-width:1;"/><path d="M65,359.2969 L65,399.2969 L331,399.2969 L331,369.2969 L321,359.2969 L65,359.2969" fill="#FEFFDD" style="stroke:#181818;stroke-width:0.5;"/><path d="M321,359.2969 L321,369.2969 L331,369.2969 L321,359.2969" fill="#FEFFDD" style="stroke:#181818;stroke-width:0.5;"/><text fill="#000000" font-family="sans-serif" font-size="13" font-weight="bold" lengthAdjust="spacing" textLength="58.9063" x="71" y="376.3638">Sistema</text><text fill="#000000" font-family="sans-serif" font-size="13" lengthAdjust="spacing" textLength="101.7466" x="134.0386" y="376.3638">valida los datos</text><text fill="#000000" font-family="sans-serif" font-size="13" lengthAdjust="spacing" textLength="245.8638" x="71" y="391.4966">y comprueba que el usuario no exista</text></g><!--link CreandoCuenta to *end*registrarCuenta--><g class="link" data-entity-1="CreandoCuenta" data-entity-2=".end.registrarCuenta" data-source-line="27" data-uid="lnk7" id="link_CreandoCuenta_.end.registrarCuenta"><path d="M60,472.5769 C60,498.8769 60,533.5669 60,552.2769" fill="none" id="CreandoCuenta-to-*end*registrarCuenta" style="stroke:#008000;stroke-width:1;"/><polygon fill="#008000" points="60,558.2769,64,549.2769,60,553.2769,56,549.2769,60,558.2769" style="stroke:#008000;stroke-width:1;"/><path d="M65,495.2969 L65,535.2969 L269,535.2969 L269,505.2969 L259,495.2969 L65,495.2969" fill="#FEFFDD" style="stroke:#181818;stroke-width:0.5;"/><path d="M259,495.2969 L259,505.2969 L269,505.2969 L259,495.2969" fill="#FEFFDD" style="stroke:#181818;stroke-width:0.5;"/><text fill="#000000" font-family="sans-serif" font-size="13" font-weight="bold" lengthAdjust="spacing" textLength="58.9063" x="71" y="512.3638">Sistema</text><text fill="#000000" font-family="sans-serif" font-size="13" lengthAdjust="spacing" textLength="92.9868" x="134.0386" y="512.3638">crea la cuenta</text><text fill="#000000" font-family="sans-serif" font-size="13" lengthAdjust="spacing" textLength="183.7646" x="71" y="527.4966">e inicia la sesion del usuario</text></g><g id="SISTEMA_ABIERTO"><rect fill="#F1F1F1" height="50" rx="12.5" ry="12.5" style="stroke:#181818;stroke-width:0.5;" width="149.4111" x="7" y="685"/><line style="stroke:#181818;stroke-width:0.5;" x1="7" x2="156.4111" y1="711.2969" y2="711.2969"/><text fill="#000000" font-family="sans-serif" font-size="14" lengthAdjust="spacing" textLength="129.4111" x="17" y="702.9951">SISTEMA_ABIERTO</text></g><g id="REGISTRO_ABIERTO"><rect fill="#F1F1F1" height="50" rx="12.5" ry="12.5" style="stroke:#181818;stroke-width:0.5;" width="160.1914" x="202.5" y="685"/><line style="stroke:#181818;stroke-width:0.5;" x1="202.5" x2="362.6914" y1="711.2969" y2="711.2969"/><text fill="#000000" font-family="sans-serif" font-size="14" lengthAdjust="spacing" textLength="140.1914" x="212.5" y="702.9951">REGISTRO_ABIERTO</text></g><!--link registrarCuenta to SISTEMA_ABIERTO--><g class="link" data-entity-1="registrarCuenta" data-entity-2="SISTEMA_ABIERTO" data-source-line="34" data-uid="lnk9" id="link_registrarCuenta_SISTEMA_ABIERTO"><path d="M88.1,590.14 C82.16,608.61 78.5,620 78.5,620 C78.5,620 78.5,655 78.5,655 C78.5,655 79.0265,664.4793 79.8265,678.8493" fill="none" id="registrarCuenta-to-SISTEMA_ABIERTO" style="stroke:#008000;stroke-width:1;"/><polygon fill="#008000" points="80.16,684.84,83.6535,675.6316,79.8821,679.8477,75.6659,676.0763,80.16,684.84" style="stroke:#008000;stroke-width:1;"/><path d="M83.5,625 L83.5,650 L234.5,650 L234.5,635 L224.5,625 L83.5,625" fill="#FEFFDD" style="stroke:#181818;stroke-width:0.5;"/><path d="M224.5,625 L224.5,635 L234.5,635 L224.5,625" fill="#FEFFDD" style="stroke:#181818;stroke-width:0.5;"/><text fill="#000000" font-family="sans-serif" font-size="13" lengthAdjust="spacing" textLength="130.2412" x="89.5" y="642.0669">completarRegistro()</text></g><!--link registrarCuenta to REGISTRO_ABIERTO--><g class="link" data-entity-1="registrarCuenta" data-entity-2="REGISTRO_ABIERTO" data-source-line="39" data-uid="lnk11" id="link_registrarCuenta_REGISTRO_ABIERTO"><path d="M253.15,590.01 C262.83,629.24 269.8026,657.5247 275.1126,679.0447" fill="none" id="registrarCuenta-to-REGISTRO_ABIERTO" style="stroke:#FF0000;stroke-width:1;"/><polygon fill="#FF0000" points="276.55,684.87,278.2775,675.1738,275.3522,680.0156,270.5104,677.0903,276.55,684.87" style="stroke:#FF0000;stroke-width:1;"/><path d="M272.5,625 L272.5,650 L414.5,650 L414.5,635 L404.5,625 L272.5,625" fill="#FEFFDD" style="stroke:#181818;stroke-width:0.5;"/><path d="M404.5,625 L404.5,635 L414.5,635 L404.5,625" fill="#FEFFDD" style="stroke:#181818;stroke-width:0.5;"/><text fill="#000000" font-family="sans-serif" font-size="13" lengthAdjust="spacing" textLength="121.0371" x="278.5" y="642.0669">rechazarRegistro()</text></g><!--SRC=[ZPBTQi9048Nlzoa6UwEbqXSGmLefNXGXIcz4oYIPsiNDRhe_KblwxfrDfB8QYibLpiwSyqrctKxg6YrMeAGcVwW9QgCEyKC8vz4JMDfAvotQQI3j4T11xqph3thmBGJmq_Rq-EMwfL6oa1vrQHxH6tTPyO9Abl-SJot5qpQcJLZVRc2uljbQ8hqPZhj3j64Fe-DKkqPO4hXZuMcYvYHe11reZr2qAL4aNJOURUHvH9BVCS95-YWVBpcIAXpTvsEe0iLy80LlnbP1ePMcAJmmN25pWk125E-0UwHYlJ2QMnpfBi2K8S5B_-0rTFl631GRbNyZHO2gje5oX8z04Vs8o7v0dzpV1PQa9royngje2dO0bIu7fEPzDB8Z9xcxFF6a53z2d5_WvFBCbwlPy-HryZ2VPQk5I6ZYn8eysgnrCFs1E8tNOMkfZARPx8bjiqMtAo_u7RywJNy1]--></g></svg>