<svg xmlns="http://www.w3.org/2000/svg" xmlns:xlink="http://www.w3.org/1999/xlink" contentStyleType="text/css" data-diagram-type="CLASS" height="445px" preserveAspectRatio="none" style="width:490px;height:445px;background:#FFFFFF;" version="1.1" viewBox="0 0 490 445" width="490px" zoomAndPan="magnify"><title>CU-12 - Crear caso de uso</title><defs/><g><g class="title" data-source-line="5"><text fill="#000000" font-family="sans-serif" font-size="14" font-weight="bold" lengthAdjust="spacing" textLength="203.2734" x="136.5347" y="22.9951">CU-12 - Crear caso de uso</text></g><!--cluster Vista--><g class="cluster" data-entity="Vista" data-source-line="7" data-uid="ent0002" id="cluster_Vista"><rect fill="none" height="99" rx="2.5" ry="2.5" style="stroke:#000000;stroke-width:1.5;" width="264" x="88" y="44.2969"/><text fill="#000000" font-family="sans-serif" font-size="14" font-weight="bold" lengthAdjust="spacing" textLength="40.1064" x="199.9468" y="59.292">Vista</text></g><!--cluster Controlador--><g class="cluster" data-entity="Controlador" data-source-line="11" data-uid="ent0004" id="cluster_Controlador"><rect fill="none" height="99" rx="2.5" ry="2.5" style="stroke:#000000;stroke-width:1.5;" width="194" x="123" y="192.2969"/><text fill="#000000" font-family="sans-serif" font-size="14" font-weight="bold" lengthAdjust="spacing" textLength="93.8643" x="173.0679" y="207.292">Controlador</text></g><!--cluster Modelo--><g class="cluster" data-entity="Modelo" data-source-line="15" data-uid="ent0006" id="cluster_Modelo"><rect fill="none" height="99" rx="2.5" ry="2.5" style="stroke:#000000;stroke-width:1.5;" width="420" x="7" y="340.2969"/><text fill="#000000" font-family="sans-serif" font-size="14" font-weight="bold" lengthAdjust="spacing" textLength="57.4834" x="188.2583" y="355.292">Modelo</text></g><!--class UseCasesRequirementsView--><g class="entity" data-entity="UseCasesRequirementsView" data-source-line="8" data-uid="ent0003" id="entity_UseCasesRequirementsView"><rect fill="#F1F1F1" height="48" rx="2.5" ry="2.5" style="stroke:#181818;stroke-width:0.5;" width="231.5068" x="104" y="79.2969"/><ellipse cx="119" cy="95.2969" fill="#ADD1B2" rx="11" ry="11" style="stroke:#181818;stroke-width:1;"/><path d="M121.9688,100.9375 Q121.3906,101.2344 120.75,101.375 Q120.1094,101.5313 119.4063,101.5313 Q116.9063,101.5313 115.5781,99.8906 Q114.2656,98.2344 114.2656,95.1094 Q114.2656,91.9844 115.5781,90.3281 Q116.9063,88.6719 119.4063,88.6719 Q120.1094,88.6719 120.75,88.8281 Q121.4063,88.9844 121.9688,89.2813 L121.9688,92 Q121.3438,91.4219 120.75,91.1563 Q120.1563,90.875 119.5313,90.875 Q118.1875,90.875 117.5,91.9531 Q116.8125,93.0156 116.8125,95.1094 Q116.8125,97.2031 117.5,98.2813 Q118.1875,99.3438 119.5313,99.3438 Q120.1563,99.3438 120.75,99.0781 Q121.3438,98.7969 121.9688,98.2188 L121.9688,100.9375 Z " fill="#000000"/><text fill="#000000" font-family="sans-serif" font-size="14" lengthAdjust="spacing" textLength="199.5068" x="133" y="100.1436">UseCasesRequirementsView</text><line style="stroke:#181818;stroke-width:0.5;" x1="105" x2="334.5068" y1="111.2969" y2="111.2969"/><line style="stroke:#181818;stroke-width:0.5;" x1="105" x2="334.5068" y1="119.2969" y2="119.2969"/></g><!--class UseCaseController--><g class="entity" data-entity="UseCaseController" data-source-line="12" data-uid="ent0005" id="entity_UseCaseController"><rect fill="#F1F1F1" height="48" rx="2.5" ry="2.5" style="stroke:#181818;stroke-width:0.5;" width="161.5889" x="139" y="227.2969"/><ellipse cx="154" cy="243.2969" fill="#ADD1B2" rx="11" ry="11" style="stroke:#181818;stroke-width:1;"/><path d="M156.9688,248.9375 Q156.3906,249.2344 155.75,249.375 Q155.1094,249.5313 154.4063,249.5313 Q151.9063,249.5313 150.5781,247.8906 Q149.2656,246.2344 149.2656,243.1094 Q149.2656,239.9844 150.5781,238.3281 Q151.9063,236.6719 154.4063,236.6719 Q155.1094,236.6719 155.75,236.8281 Q156.4063,236.9844 156.9688,237.2813 L156.9688,240 Q156.3438,239.4219 155.75,239.1563 Q155.1563,238.875 154.5313,238.875 Q153.1875,238.875 152.5,239.9531 Q151.8125,241.0156 151.8125,243.1094 Q151.8125,245.2031 152.5,246.2813 Q153.1875,247.3438 154.5313,247.3438 Q155.1563,247.3438 155.75,247.0781 Q156.3438,246.7969 156.9688,246.2188 L156.9688,248.9375 Z " fill="#000000"/><text fill="#000000" font-family="sans-serif" font-size="14" lengthAdjust="spacing" textLength="129.5889" x="168" y="248.1436">UseCaseController</text><line style="stroke:#181818;stroke-width:0.5;" x1="140" x2="299.5889" y1="259.2969" y2="259.2969"/><line style="stroke:#181818;stroke-width:0.5;" x1="140" x2="299.5889" y1="267.2969" y2="267.2969"/></g><!--class UseCase--><g class="entity" data-entity="UseCase" data-source-line="16" data-uid="ent0007" id="entity_UseCase"><rect fill="#F1F1F1" height="48" rx="2.5" ry="2.5" style="stroke:#181818;stroke-width:0.5;" width="92.416" x="23" y="375.2969"/><ellipse cx="38" cy="391.2969" fill="#ADD1B2" rx="11" ry="11" style="stroke:#181818;stroke-width:1;"/><path d="M40.9688,396.9375 Q40.3906,397.2344 39.75,397.375 Q39.1094,397.5313 38.4063,397.5313 Q35.9063,397.5313 34.5781,395.8906 Q33.2656,394.2344 33.2656,391.1094 Q33.2656,387.9844 34.5781,386.3281 Q35.9063,384.6719 38.4063,384.6719 Q39.1094,384.6719 39.75,384.8281 Q40.4063,384.9844 40.9688,385.2813 L40.9688,388 Q40.3438,387.4219 39.75,387.1563 Q39.1563,386.875 38.5313,386.875 Q37.1875,386.875 36.5,387.9531 Q35.8125,389.0156 35.8125,391.1094 Q35.8125,393.2031 36.5,394.2813 Q37.1875,395.3438 38.5313,395.3438 Q39.1563,395.3438 39.75,395.0781 Q40.3438,394.7969 40.9688,394.2188 L40.9688,396.9375 Z " fill="#000000"/><text fill="#000000" font-family="sans-serif" font-size="14" lengthAdjust="spacing" textLength="60.416" x="52" y="396.1436">UseCase</text><line style="stroke:#181818;stroke-width:0.5;" x1="24" x2="114.416" y1="407.2969" y2="407.2969"/><line style="stroke:#181818;stroke-width:0.5;" x1="24" x2="114.416" y1="415.2969" y2="415.2969"/></g><!--class Documentation--><g class="entity" data-entity="Documentation" data-source-line="17" data-uid="ent0008" id="entity_Documentation"><rect fill="#F1F1F1" height="48" rx="2.5" ry="2.5" style="stroke:#181818;stroke-width:0.5;" width="139.9258" x="150" y="375.2969"/><ellipse cx="165" cy="391.2969" fill="#ADD1B2" rx="11" ry="11" style="stroke:#181818;stroke-width:1;"/><path d="M167.9688,396.9375 Q167.3906,397.2344 166.75,397.375 Q166.1094,397.5313 165.4063,397.5313 Q162.9063,397.5313 161.5781,395.8906 Q160.2656,394.2344 160.2656,391.1094 Q160.2656,387.9844 161.5781,386.3281 Q162.9063,384.6719 165.4063,384.6719 Q166.1094,384.6719 166.75,384.8281 Q167.4063,384.9844 167.9688,385.2813 L167.9688,388 Q167.3438,387.4219 166.75,387.1563 Q166.1563,386.875 165.5313,386.875 Q164.1875,386.875 163.5,387.9531 Q162.8125,389.0156 162.8125,391.1094 Q162.8125,393.2031 163.5,394.2813 Q164.1875,395.3438 165.5313,395.3438 Q166.1563,395.3438 166.75,395.0781 Q167.3438,394.7969 167.9688,394.2188 L167.9688,396.9375 Z " fill="#000000"/><text fill="#000000" font-family="sans-serif" font-size="14" lengthAdjust="spacing" textLength="107.9258" x="179" y="396.1436">Documentation</text><line style="stroke:#181818;stroke-width:0.5;" x1="151" x2="288.9258" y1="407.2969" y2="407.2969"/><line style="stroke:#181818;stroke-width:0.5;" x1="151" x2="288.9258" y1="415.2969" y2="415.2969"/></g><!--class Session--><g class="entity" data-entity="Session" data-source-line="18" data-uid="ent0009" id="entity_Session"><rect fill="#F1F1F1" height="48" rx="2.5" ry="2.5" style="stroke:#181818;stroke-width:0.5;" width="85.416" x="325.5" y="375.2969"/><ellipse cx="340.5" cy="391.2969" fill="#ADD1B2" rx="11" ry="11" style="stroke:#181818;stroke-width:1;"/><path d="M343.4688,396.9375 Q342.8906,397.2344 342.25,397.375 Q341.6094,397.5313 340.9063,397.5313 Q338.4063,397.5313 337.0781,395.8906 Q335.7656,394.2344 335.7656,391.1094 Q335.7656,387.9844 337.0781,386.3281 Q338.4063,384.6719 340.9063,384.6719 Q341.6094,384.6719 342.25,384.8281 Q342.9063,384.9844 343.4688,385.2813 L343.4688,388 Q342.8438,387.4219 342.25,387.1563 Q341.6563,386.875 341.0313,386.875 Q339.6875,386.875 339,387.9531 Q338.3125,389.0156 338.3125,391.1094 Q338.3125,393.2031 339,394.2813 Q339.6875,395.3438 341.0313,395.3438 Q341.6563,395.3438 342.25,395.0781 Q342.8438,394.7969 343.4688,394.2188 L343.4688,396.9375 Z " fill="#000000"/><text fill="#000000" font-family="sans-serif" font-size="14" lengthAdjust="spacing" textLength="53.416" x="354.5" y="396.1436">Session</text><line style="stroke:#181818;stroke-width:0.5;" x1="326.5" x2="409.916" y1="407.2969" y2="407.2969"/><line style="stroke:#181818;stroke-width:0.5;" x1="326.5" x2="409.916" y1="415.2969" y2="415.2969"/></g><!--link UseCasesRequirementsView to UseCaseController--><g class="link" data-entity-1="UseCasesRequirementsView" data-entity-2="UseCaseController" data-source-line="21" data-uid="lnk10" id="link_UseCasesRequirementsView_UseCaseController"><path codeLine="21" d="M220,127.4269 C220,154.7669 220,193.9769 220,221.2669" fill="none" id="UseCasesRequirementsView-to-UseCaseController" style="stroke:#181818;stroke-width:1;"/><polygon fill="#181818" points="220,227.2669,224,218.2669,220,222.2669,216,218.2669,220,227.2669" style="stroke:#181818;stroke-width:1;"/><text fill="#000000" font-family="sans-serif" font-size="13" lengthAdjust="spacing" textLength="131.3457" x="221" y="172.3638">POST /api/use-cases</text></g><!--link UseCaseController to UseCase--><g class="link" data-entity-1="UseCaseController" data-entity-2="UseCase" data-source-line="22" data-uid="lnk11" id="link_UseCaseController_UseCase"><path codeLine="22" d="M138.83,273.9669 C121.34,281.9569 104.4,292.7569 92,307.2969 C75.82,326.2669 71.1888,349.0822 69.7488,369.1822" fill="none" id="UseCaseController-to-UseCase" style="stroke:#181818;stroke-width:1;"/><polygon fill="#181818" points="69.32,375.1669,73.9529,366.4757,69.6773,370.1797,65.9734,365.904,69.32,375.1669" style="stroke:#181818;stroke-width:1;"/><text fill="#000000" font-family="sans-serif" font-size="13" lengthAdjust="spacing" textLength="115.2544" x="93" y="320.3638">crear caso de uso</text></g><!--link UseCaseController to Documentation--><g class="link" data-entity-1="UseCaseController" data-entity-2="Documentation" data-source-line="23" data-uid="lnk12" id="link_UseCaseController_Documentation"><path codeLine="23" d="M218.47,275.2969 C217.88,285.1469 217.29,296.7769 217,307.2969 C216.37,330.3669 217.1045,350.7263 218.1345,369.1163" fill="none" id="UseCaseController-to-Documentation" style="stroke:#181818;stroke-width:1;"/><polygon fill="#181818" points="218.47,375.1069,221.9605,365.8973,218.1904,370.1147,213.973,366.3446,218.47,375.1069" style="stroke:#181818;stroke-width:1;"/><text fill="#000000" font-family="sans-serif" font-size="13" lengthAdjust="spacing" textLength="147.5259" x="218" y="320.3638">referencia documental</text></g><!--link UseCaseController to Session--><g class="link" data-entity-1="UseCaseController" data-entity-2="Session" data-source-line="24" data-uid="lnk13" id="link_UseCaseController_Session"><path codeLine="24" d="M301.13,263.2269 C327.49,271.0569 354.04,284.4469 370,307.2969 C383.75,326.9869 381.9211,349.555 376.9811,369.375" fill="none" id="UseCaseController-to-Session" style="stroke:#181818;stroke-width:1;"/><polygon fill="#181818" points="375.53,375.1969,381.5879,367.4314,376.7392,370.3453,373.8253,365.4967,375.53,375.1969" style="stroke:#181818;stroke-width:1;"/><text fill="#000000" font-family="sans-serif" font-size="13" lengthAdjust="spacing" textLength="104.3428" x="378" y="320.3638">asociar a sesi&#243;n</text></g><!--SRC=[TP11JiD034NtSmgh-wZ0aWKI2XiMg8ZGxit4BLQdCy5sL07YL1o1Yp4H8KgLTEdnV_z_Z-uvDYXuW0Rz7dTKsNiW4FA6SHV8wI3GLwpJaUCEjXXqlF41LM_DX5zQetkVOiKV11VE6LjsAzV5vHKKK0gXW4TDK1EqcfphKs6nOJLSmAU3FpjOAvMef4_qrhBGWQBfXkdelaPKcQ992hcOpB3zDf2SG0-fff1czCDybtpR1Q9nYiDhHQhTdBtEbOEYk9ccmpKyhgfdM6B3orQfy1thfheHdHa_-QvvugHjveIs91Gz8zJ_gt26xM_AL8x9X012xiO_t_4N]--></g></svg>