<svg xmlns="http://www.w3.org/2000/svg" xmlns:xlink="http://www.w3.org/1999/xlink" contentStyleType="text/css" data-diagram-type="CLASS" height="468px" preserveAspectRatio="none" style="width:593px;height:468px;background:#FFFFFF;" version="1.1" viewBox="0 0 593 468" width="593px" zoomAndPan="magnify"><title>CU04 - Esquema MongoDB para Generar Escenarios Gherkin</title><defs/><g><g class="title" data-source-line="1"><text fill="#000000" font-family="sans-serif" font-size="14" font-weight="bold" lengthAdjust="spacing" textLength="474.1338" x="52.8105" y="22.9951">CU04 - Esquema MongoDB para Generar Escenarios Gherkin</text></g><!--class Session--><g class="entity" data-entity="Session" data-source-line="6" data-uid="ent0002" id="entity_Session"><rect fill="#F1F1F1" height="96.8906" rx="2.5" ry="2.5" style="stroke:#181818;stroke-width:0.5;" width="162.2129" x="7" y="356.2969"/><ellipse cx="57.1484" cy="372.2969" fill="#ADD1B2" rx="11" ry="11" style="stroke:#181818;stroke-width:1;"/><path d="M61.2578,378.2969 L53.5391,378.2969 L53.5391,365.9063 L61.2578,365.9063 L61.2578,368.0625 L55.9922,368.0625 L55.9922,370.7344 L60.7578,370.7344 L60.7578,372.8906 L55.9922,372.8906 L55.9922,376.1406 L61.2578,376.1406 L61.2578,378.2969 Z " fill="#000000"/><text fill="#000000" font-family="sans-serif" font-size="14" lengthAdjust="spacing" textLength="53.416" x="77.6484" y="377.1436">Session</text><line style="stroke:#181818;stroke-width:0.5;" x1="8" x2="168.2129" y1="388.2969" y2="388.2969"/><text fill="#000000" font-family="sans-serif" font-size="14" lengthAdjust="spacing" textLength="87.5547" x="13" y="405.292">_id: ObjectId</text><text fill="#000000" font-family="sans-serif" font-size="14" lengthAdjust="spacing" textLength="139.5557" x="13" y="421.5889">projectName: string</text><text fill="#000000" font-family="sans-serif" font-size="14" lengthAdjust="spacing" textLength="150.2129" x="13" y="437.8857">workflowMode: string</text><line style="stroke:#181818;stroke-width:0.5;" x1="8" x2="168.2129" y1="445.1875" y2="445.1875"/></g><!--class UseCase--><g class="entity" data-entity="UseCase" data-source-line="12" data-uid="ent0003" id="entity_UseCase"><rect fill="#F1F1F1" height="113.1875" rx="2.5" ry="2.5" style="stroke:#181818;stroke-width:0.5;" width="151.5557" x="204" y="348.2969"/><ellipse cx="245.6128" cy="364.2969" fill="#ADD1B2" rx="11" ry="11" style="stroke:#181818;stroke-width:1;"/><path d="M249.7222,370.2969 L242.0035,370.2969 L242.0035,357.9063 L249.7222,357.9063 L249.7222,360.0625 L244.4566,360.0625 L244.4566,362.7344 L249.2222,362.7344 L249.2222,364.8906 L244.4566,364.8906 L244.4566,368.1406 L249.7222,368.1406 L249.7222,370.2969 Z " fill="#000000"/><text fill="#000000" font-family="sans-serif" font-size="14" lengthAdjust="spacing" textLength="60.416" x="265.5268" y="369.1436">UseCase</text><line style="stroke:#181818;stroke-width:0.5;" x1="205" x2="354.5557" y1="380.2969" y2="380.2969"/><text fill="#000000" font-family="sans-serif" font-size="14" lengthAdjust="spacing" textLength="87.5547" x="210" y="397.292">_id: ObjectId</text><text fill="#000000" font-family="sans-serif" font-size="14" lengthAdjust="spacing" textLength="78.9414" x="210" y="413.5889">ucId: string</text><text fill="#000000" font-family="sans-serif" font-size="14" lengthAdjust="spacing" textLength="89.0586" x="210" y="429.8857">name: string</text><text fill="#000000" font-family="sans-serif" font-size="14" lengthAdjust="spacing" textLength="139.5557" x="210" y="446.1826">projectName: string</text><line style="stroke:#181818;stroke-width:0.5;" x1="205" x2="354.5557" y1="453.4844" y2="453.4844"/></g><!--class FR--><g class="entity" data-entity="FR" data-source-line="19" data-uid="ent0004" id="entity_FR"><rect fill="#F1F1F1" height="113.1875" rx="2.5" ry="2.5" style="stroke:#181818;stroke-width:0.5;" width="195.7549" x="391" y="348.2969"/><ellipse cx="406" cy="364.2969" fill="#ADD1B2" rx="11" ry="11" style="stroke:#181818;stroke-width:1;"/><path d="M410.1094,370.2969 L402.3906,370.2969 L402.3906,357.9063 L410.1094,357.9063 L410.1094,360.0625 L404.8438,360.0625 L404.8438,362.7344 L409.6094,362.7344 L409.6094,364.8906 L404.8438,364.8906 L404.8438,368.1406 L410.1094,368.1406 L410.1094,370.2969 Z " fill="#000000"/><text fill="#000000" font-family="sans-serif" font-size="14" lengthAdjust="spacing" textLength="163.7549" x="420" y="369.1436">FunctionalRequirement</text><line style="stroke:#181818;stroke-width:0.5;" x1="392" x2="585.7549" y1="380.2969" y2="380.2969"/><text fill="#000000" font-family="sans-serif" font-size="14" lengthAdjust="spacing" textLength="87.5547" x="397" y="397.292">_id: ObjectId</text><text fill="#000000" font-family="sans-serif" font-size="14" lengthAdjust="spacing" textLength="73.0557" x="397" y="413.5889">rfId: string</text><text fill="#000000" font-family="sans-serif" font-size="14" lengthAdjust="spacing" textLength="77.2324" x="397" y="429.8857">text: string</text><text fill="#000000" font-family="sans-serif" font-size="14" lengthAdjust="spacing" textLength="78.9414" x="397" y="446.1826">ucId: string</text><line style="stroke:#181818;stroke-width:0.5;" x1="392" x2="585.7549" y1="453.4844" y2="453.4844"/></g><!--class GS--><g class="entity" data-entity="GS" data-source-line="26" data-uid="ent0005" id="entity_GS"><rect fill="#F1F1F1" height="227.2656" rx="2.5" ry="2.5" style="stroke:#181818;stroke-width:0.5;" width="147.8213" x="206" y="44.2969"/><ellipse cx="221" cy="60.2969" fill="#ADD1B2" rx="11" ry="11" style="stroke:#181818;stroke-width:1;"/><path d="M225.1094,66.2969 L217.3906,66.2969 L217.3906,53.9063 L225.1094,53.9063 L225.1094,56.0625 L219.8438,56.0625 L219.8438,58.7344 L224.6094,58.7344 L224.6094,60.8906 L219.8438,60.8906 L219.8438,64.1406 L225.1094,64.1406 L225.1094,66.2969 Z " fill="#000000"/><text fill="#000000" font-family="sans-serif" font-size="14" lengthAdjust="spacing" textLength="115.8213" x="235" y="65.1436">GherkinScenario</text><line style="stroke:#181818;stroke-width:0.5;" x1="207" x2="352.8213" y1="76.2969" y2="76.2969"/><text fill="#000000" font-family="sans-serif" font-size="14" lengthAdjust="spacing" textLength="87.5547" x="212" y="93.292">_id: ObjectId</text><text fill="#000000" font-family="sans-serif" font-size="14" lengthAdjust="spacing" textLength="76.7266" x="212" y="109.5889">title: string</text><text fill="#000000" font-family="sans-serif" font-size="14" lengthAdjust="spacing" textLength="100.208" x="212" y="125.8857">feature: string</text><text fill="#000000" font-family="sans-serif" font-size="14" lengthAdjust="spacing" textLength="92.1211" x="212" y="142.1826">tags: [String]</text><text fill="#000000" font-family="sans-serif" font-size="14" lengthAdjust="spacing" textLength="78.9414" x="212" y="158.4795">ucId: string</text><text fill="#000000" font-family="sans-serif" font-size="14" lengthAdjust="spacing" textLength="92.8662" x="212" y="174.7764">rfIds: [String]</text><text fill="#000000" font-family="sans-serif" font-size="14" lengthAdjust="spacing" textLength="135.0781" x="212" y="191.0732">background: [Step]</text><text fill="#000000" font-family="sans-serif" font-size="14" lengthAdjust="spacing" textLength="89.5439" x="212" y="207.3701">steps: [Step]</text><text fill="#000000" font-family="sans-serif" font-size="14" lengthAdjust="spacing" textLength="117.1543" x="212" y="223.667">examples: string</text><text fill="#000000" font-family="sans-serif" font-size="14" lengthAdjust="spacing" textLength="111.3301" x="212" y="239.9639">createdAt: Date</text><text fill="#000000" font-family="sans-serif" font-size="14" lengthAdjust="spacing" textLength="115.9102" x="212" y="256.2607">updatedAt: Date</text><line style="stroke:#181818;stroke-width:0.5;" x1="207" x2="352.8213" y1="263.5625" y2="263.5625"/></g><!--link GS to Session--><g class="link" data-entity-1="GS" data-entity-2="Session" data-source-line="40" data-uid="lnk6" id="link_GS_Session"><path codeLine="40" d="M205.77,253.5169 C178.23,288.6669 151.861,322.3043 129.001,351.4743" fill="none" id="GS-to-Session" style="stroke:#181818;stroke-width:1;"/><polygon fill="#181818" points="125.3,356.1969,133.9999,351.5803,128.3842,352.2614,127.7031,346.6457,125.3,356.1969" style="stroke:#181818;stroke-width:1;"/><text fill="#000000" font-family="sans-serif" font-size="13" lengthAdjust="spacing" textLength="60.2075" x="168" y="314.3638">sessionId</text></g><!--link GS to UseCase--><g class="link" data-entity-1="GS" data-entity-2="UseCase" data-source-line="41" data-uid="lnk7" id="link_GS_UseCase"><path codeLine="41" d="M280,271.6169 C280,298.2369 280,319.4769 280,342.2569" fill="none" id="GS-to-UseCase" style="stroke:#181818;stroke-width:1;"/><polygon fill="#181818" points="280,348.2569,284,339.2569,280,343.2569,276,339.2569,280,348.2569" style="stroke:#181818;stroke-width:1;"/><text fill="#000000" font-family="sans-serif" font-size="13" lengthAdjust="spacing" textLength="27.4727" x="281" y="314.3638">ucId</text></g><!--link GS to FR--><g class="link" data-entity-1="GS" data-entity-2="FR" data-source-line="42" data-uid="lnk8" id="link_GS_FR"><path codeLine="42" d="M354.27,245.8669 C383.25,279.8369 411.7356,313.2225 437.4856,343.4025" fill="none" id="GS-to-FR" style="stroke:#181818;stroke-width:1;"/><polygon fill="#181818" points="441.38,347.9669,438.5813,338.524,438.1347,344.1632,432.4955,343.7166,441.38,347.9669" style="stroke:#181818;stroke-width:1;"/><text fill="#000000" font-family="sans-serif" font-size="13" lengthAdjust="spacing" textLength="28.7803" x="416" y="314.3638">rfIds</text></g><!--SRC=[RP9DRu9048Rl_8f9xoOUUkBGn6er7cmJYQUcQHPsmAsmYpj3j6twtpiWrYNbnCmxy3xp0Hik4UQxwJrCu8cE3LOADiuMRl48jV8ALcZHAo_53AtonX6izkWFnaRiQc07gMDs5MZZCMFZR4HIRB-jWFPAkvEn1UIg90mgMQc8PipUf0tZEdCsCLy8qoX2ouO_uIv18d6x0qNGn_0T0RmR7SDB-Y6mjPQyzgwDdrM5CP0OsaBKa_E7l7IdZTCt-UVclYESAyBElOz7tPjihGDREwICiGF8ih7THbIvnMCZ-wcaqY6Nsr6QpmSqnZC7wQ2N0DFV8-aFr05MoIY0sti7bZagRdoei2eeXjUaoz_-Rw1jSVX2gh93uLrZTITZtOeaJmfoFAkgBf42fymB7FLCHbn8qA9gFL1aHfbZCddu-m7ayqiaq_Ibw_NYhjEhAWkEBxt-0W00]--></g></svg>