<svg xmlns="http://www.w3.org/2000/svg" xmlns:xlink="http://www.w3.org/1999/xlink" contentStyleType="text/css" data-diagram-type="CLASS" height="445px" preserveAspectRatio="none" style="width:672px;height:445px;background:#FFFFFF;" version="1.1" viewBox="0 0 672 445" width="672px" zoomAndPan="magnify"><title>CU-21 - Crear escenario Gherkin</title><defs/><g><g class="title" data-source-line="5"><text fill="#000000" font-family="sans-serif" font-size="14" font-weight="bold" lengthAdjust="spacing" textLength="253.5586" x="202.2207" y="22.9951">CU-21 - Crear escenario Gherkin</text></g><!--cluster Vista--><g class="cluster" data-entity="Vista" data-source-line="7" data-uid="ent0002" id="cluster_Vista"><rect fill="none" height="99" rx="2.5" ry="2.5" style="stroke:#000000;stroke-width:1.5;" width="222" x="230" y="44.2969"/><text fill="#000000" font-family="sans-serif" font-size="14" font-weight="bold" lengthAdjust="spacing" textLength="40.1064" x="320.9468" y="59.292">Vista</text></g><!--cluster Controlador--><g class="cluster" data-entity="Controlador" data-source-line="11" data-uid="ent0004" id="cluster_Controlador"><rect fill="none" height="99" rx="2.5" ry="2.5" style="stroke:#000000;stroke-width:1.5;" width="188" x="247" y="192.2969"/><text fill="#000000" font-family="sans-serif" font-size="14" font-weight="bold" lengthAdjust="spacing" textLength="93.8643" x="294.0679" y="207.292">Controlador</text></g><!--cluster Modelo--><g class="cluster" data-entity="Modelo" data-source-line="15" data-uid="ent0006" id="cluster_Modelo"><rect fill="none" height="99" rx="2.5" ry="2.5" style="stroke:#000000;stroke-width:1.5;" width="659" x="7" y="340.2969"/><text fill="#000000" font-family="sans-serif" font-size="14" font-weight="bold" lengthAdjust="spacing" textLength="57.4834" x="307.7583" y="355.292">Modelo</text></g><!--class GherkinScenariosView--><g class="entity" data-entity="GherkinScenariosView" data-source-line="8" data-uid="ent0003" id="entity_GherkinScenariosView"><rect fill="#F1F1F1" height="48" rx="2.5" ry="2.5" style="stroke:#181818;stroke-width:0.5;" width="188.6455" x="246.5" y="79.2969"/><ellipse cx="261.5" cy="95.2969" fill="#ADD1B2" rx="11" ry="11" style="stroke:#181818;stroke-width:1;"/><path d="M264.4688,100.9375 Q263.8906,101.2344 263.25,101.375 Q262.6094,101.5313 261.9063,101.5313 Q259.4063,101.5313 258.0781,99.8906 Q256.7656,98.2344 256.7656,95.1094 Q256.7656,91.9844 258.0781,90.3281 Q259.4063,88.6719 261.9063,88.6719 Q262.6094,88.6719 263.25,88.8281 Q263.9063,88.9844 264.4688,89.2813 L264.4688,92 Q263.8438,91.4219 263.25,91.1563 Q262.6563,90.875 262.0313,90.875 Q260.6875,90.875 260,91.9531 Q259.3125,93.0156 259.3125,95.1094 Q259.3125,97.2031 260,98.2813 Q260.6875,99.3438 262.0313,99.3438 Q262.6563,99.3438 263.25,99.0781 Q263.8438,98.7969 264.4688,98.2188 L264.4688,100.9375 Z " fill="#000000"/><text fill="#000000" font-family="sans-serif" font-size="14" lengthAdjust="spacing" textLength="156.6455" x="275.5" y="100.1436">GherkinScenariosView</text><line style="stroke:#181818;stroke-width:0.5;" x1="247.5" x2="434.1455" y1="111.2969" y2="111.2969"/><line style="stroke:#181818;stroke-width:0.5;" x1="247.5" x2="434.1455" y1="119.2969" y2="119.2969"/></g><!--class GherkinController--><g class="entity" data-entity="GherkinController" data-source-line="12" data-uid="ent0005" id="entity_GherkinController"><rect fill="#F1F1F1" height="48" rx="2.5" ry="2.5" style="stroke:#181818;stroke-width:0.5;" width="156.1338" x="263" y="227.2969"/><ellipse cx="278" cy="243.2969" fill="#ADD1B2" rx="11" ry="11" style="stroke:#181818;stroke-width:1;"/><path d="M280.9688,248.9375 Q280.3906,249.2344 279.75,249.375 Q279.1094,249.5313 278.4063,249.5313 Q275.9063,249.5313 274.5781,247.8906 Q273.2656,246.2344 273.2656,243.1094 Q273.2656,239.9844 274.5781,238.3281 Q275.9063,236.6719 278.4063,236.6719 Q279.1094,236.6719 279.75,236.8281 Q280.4063,236.9844 280.9688,237.2813 L280.9688,240 Q280.3438,239.4219 279.75,239.1563 Q279.1563,238.875 278.5313,238.875 Q277.1875,238.875 276.5,239.9531 Q275.8125,241.0156 275.8125,243.1094 Q275.8125,245.2031 276.5,246.2813 Q277.1875,247.3438 278.5313,247.3438 Q279.1563,247.3438 279.75,247.0781 Q280.3438,246.7969 280.9688,246.2188 L280.9688,248.9375 Z " fill="#000000"/><text fill="#000000" font-family="sans-serif" font-size="14" lengthAdjust="spacing" textLength="124.1338" x="292" y="248.1436">GherkinController</text><line style="stroke:#181818;stroke-width:0.5;" x1="264" x2="418.1338" y1="259.2969" y2="259.2969"/><line style="stroke:#181818;stroke-width:0.5;" x1="264" x2="418.1338" y1="267.2969" y2="267.2969"/></g><!--class GherkinScenario--><g class="entity" data-entity="GherkinScenario" data-source-line="16" data-uid="ent0007" id="entity_GherkinScenario"><rect fill="#F1F1F1" height="48" rx="2.5" ry="2.5" style="stroke:#181818;stroke-width:0.5;" width="147.8213" x="23" y="375.2969"/><ellipse cx="38" cy="391.2969" fill="#ADD1B2" rx="11" ry="11" style="stroke:#181818;stroke-width:1;"/><path d="M40.9688,396.9375 Q40.3906,397.2344 39.75,397.375 Q39.1094,397.5313 38.4063,397.5313 Q35.9063,397.5313 34.5781,395.8906 Q33.2656,394.2344 33.2656,391.1094 Q33.2656,387.9844 34.5781,386.3281 Q35.9063,384.6719 38.4063,384.6719 Q39.1094,384.6719 39.75,384.8281 Q40.4063,384.9844 40.9688,385.2813 L40.9688,388 Q40.3438,387.4219 39.75,387.1563 Q39.1563,386.875 38.5313,386.875 Q37.1875,386.875 36.5,387.9531 Q35.8125,389.0156 35.8125,391.1094 Q35.8125,393.2031 36.5,394.2813 Q37.1875,395.3438 38.5313,395.3438 Q39.1563,395.3438 39.75,395.0781 Q40.3438,394.7969 40.9688,394.2188 L40.9688,396.9375 Z " fill="#000000"/><text fill="#000000" font-family="sans-serif" font-size="14" lengthAdjust="spacing" textLength="115.8213" x="52" y="396.1436">GherkinScenario</text><line style="stroke:#181818;stroke-width:0.5;" x1="24" x2="169.8213" y1="407.2969" y2="407.2969"/><line style="stroke:#181818;stroke-width:0.5;" x1="24" x2="169.8213" y1="415.2969" y2="415.2969"/></g><!--class UseCase--><g class="entity" data-entity="UseCase" data-source-line="17" data-uid="ent0008" id="entity_UseCase"><rect fill="#F1F1F1" height="48" rx="2.5" ry="2.5" style="stroke:#181818;stroke-width:0.5;" width="92.416" x="206" y="375.2969"/><ellipse cx="221" cy="391.2969" fill="#ADD1B2" rx="11" ry="11" style="stroke:#181818;stroke-width:1;"/><path d="M223.9688,396.9375 Q223.3906,397.2344 222.75,397.375 Q222.1094,397.5313 221.4063,397.5313 Q218.9063,397.5313 217.5781,395.8906 Q216.2656,394.2344 216.2656,391.1094 Q216.2656,387.9844 217.5781,386.3281 Q218.9063,384.6719 221.4063,384.6719 Q222.1094,384.6719 222.75,384.8281 Q223.4063,384.9844 223.9688,385.2813 L223.9688,388 Q223.3438,387.4219 222.75,387.1563 Q222.1563,386.875 221.5313,386.875 Q220.1875,386.875 219.5,387.9531 Q218.8125,389.0156 218.8125,391.1094 Q218.8125,393.2031 219.5,394.2813 Q220.1875,395.3438 221.5313,395.3438 Q222.1563,395.3438 222.75,395.0781 Q223.3438,394.7969 223.9688,394.2188 L223.9688,396.9375 Z " fill="#000000"/><text fill="#000000" font-family="sans-serif" font-size="14" lengthAdjust="spacing" textLength="60.416" x="235" y="396.1436">UseCase</text><line style="stroke:#181818;stroke-width:0.5;" x1="207" x2="297.416" y1="407.2969" y2="407.2969"/><line style="stroke:#181818;stroke-width:0.5;" x1="207" x2="297.416" y1="415.2969" y2="415.2969"/></g><!--class FunctionalRequirement--><g class="entity" data-entity="FunctionalRequirement" data-source-line="18" data-uid="ent0009" id="entity_FunctionalRequirement"><rect fill="#F1F1F1" height="48" rx="2.5" ry="2.5" style="stroke:#181818;stroke-width:0.5;" width="195.7549" x="333" y="375.2969"/><ellipse cx="348" cy="391.2969" fill="#ADD1B2" rx="11" ry="11" style="stroke:#181818;stroke-width:1;"/><path d="M350.9688,396.9375 Q350.3906,397.2344 349.75,397.375 Q349.1094,397.5313 348.4063,397.5313 Q345.9063,397.5313 344.5781,395.8906 Q343.2656,394.2344 343.2656,391.1094 Q343.2656,387.9844 344.5781,386.3281 Q345.9063,384.6719 348.4063,384.6719 Q349.1094,384.6719 349.75,384.8281 Q350.4063,384.9844 350.9688,385.2813 L350.9688,388 Q350.3438,387.4219 349.75,387.1563 Q349.1563,386.875 348.5313,386.875 Q347.1875,386.875 346.5,387.9531 Q345.8125,389.0156 345.8125,391.1094 Q345.8125,393.2031 346.5,394.2813 Q347.1875,395.3438 348.5313,395.3438 Q349.1563,395.3438 349.75,395.0781 Q350.3438,394.7969 350.9688,394.2188 L350.9688,396.9375 Z " fill="#000000"/><text fill="#000000" font-family="sans-serif" font-size="14" lengthAdjust="spacing" textLength="163.7549" x="362" y="396.1436">FunctionalRequirement</text><line style="stroke:#181818;stroke-width:0.5;" x1="334" x2="527.7549" y1="407.2969" y2="407.2969"/><line style="stroke:#181818;stroke-width:0.5;" x1="334" x2="527.7549" y1="415.2969" y2="415.2969"/></g><!--class Session--><g class="entity" data-entity="Session" data-source-line="19" data-uid="ent0010" id="entity_Session"><rect fill="#F1F1F1" height="48" rx="2.5" ry="2.5" style="stroke:#181818;stroke-width:0.5;" width="85.416" x="564.5" y="375.2969"/><ellipse cx="579.5" cy="391.2969" fill="#ADD1B2" rx="11" ry="11" style="stroke:#181818;stroke-width:1;"/><path d="M582.4688,396.9375 Q581.8906,397.2344 581.25,397.375 Q580.6094,397.5313 579.9063,397.5313 Q577.4063,397.5313 576.0781,395.8906 Q574.7656,394.2344 574.7656,391.1094 Q574.7656,387.9844 576.0781,386.3281 Q577.4063,384.6719 579.9063,384.6719 Q580.6094,384.6719 581.25,384.8281 Q581.9063,384.9844 582.4688,385.2813 L582.4688,388 Q581.8438,387.4219 581.25,387.1563 Q580.6563,386.875 580.0313,386.875 Q578.6875,386.875 578,387.9531 Q577.3125,389.0156 577.3125,391.1094 Q577.3125,393.2031 578,394.2813 Q578.6875,395.3438 580.0313,395.3438 Q580.6563,395.3438 581.25,395.0781 Q581.8438,394.7969 582.4688,394.2188 L582.4688,396.9375 Z " fill="#000000"/><text fill="#000000" font-family="sans-serif" font-size="14" lengthAdjust="spacing" textLength="53.416" x="593.5" y="396.1436">Session</text><line style="stroke:#181818;stroke-width:0.5;" x1="565.5" x2="648.916" y1="407.2969" y2="407.2969"/><line style="stroke:#181818;stroke-width:0.5;" x1="565.5" x2="648.916" y1="415.2969" y2="415.2969"/></g><!--link GherkinScenariosView to GherkinController--><g class="link" data-entity-1="GherkinScenariosView" data-entity-2="GherkinController" data-source-line="22" data-uid="lnk11" id="link_GherkinScenariosView_GherkinController"><path codeLine="22" d="M341,127.4269 C341,154.7669 341,193.9769 341,221.2669" fill="none" id="GherkinScenariosView-to-GherkinController" style="stroke:#181818;stroke-width:1;"/><polygon fill="#181818" points="341,227.2669,345,218.2669,341,222.2669,337,218.2669,341,227.2669" style="stroke:#181818;stroke-width:1;"/><text fill="#000000" font-family="sans-serif" font-size="13" lengthAdjust="spacing" textLength="128.7939" x="342" y="172.3638">POST /api/scenarios</text></g><!--link GherkinController to GherkinScenario--><g class="link" data-entity-1="GherkinController" data-entity-2="GherkinScenario" data-source-line="23" data-uid="lnk12" id="link_GherkinController_GherkinScenario"><path codeLine="23" d="M262.79,273.7069 C238.45,282.1969 212.19,293.3269 190,307.2969 C160.75,325.7069 137.157,350.0632 119.757,370.3432" fill="none" id="GherkinController-to-GherkinScenario" style="stroke:#181818;stroke-width:1;"/><polygon fill="#181818" points="115.85,374.8969,124.7462,370.6711,119.1058,371.1022,118.6747,365.4618,115.85,374.8969" style="stroke:#181818;stroke-width:1;"/><text fill="#000000" font-family="sans-serif" font-size="13" lengthAdjust="spacing" textLength="100.9658" x="191" y="320.3638">crear escenario</text></g><!--link GherkinController to UseCase--><g class="link" data-entity-1="GherkinController" data-entity-2="UseCase" data-source-line="24" data-uid="lnk13" id="link_GherkinController_UseCase"><path codeLine="24" d="M326.9,275.4269 C310.23,302.7669 285.7922,342.8532 269.1622,370.1432" fill="none" id="GherkinController-to-UseCase" style="stroke:#181818;stroke-width:1;"/><polygon fill="#181818" points="266.04,375.2669,274.1391,369.6629,268.6419,370.9972,267.3076,365.4999,266.04,375.2669" style="stroke:#181818;stroke-width:1;"/><text fill="#000000" font-family="sans-serif" font-size="13" lengthAdjust="spacing" textLength="27.4727" x="309" y="320.3638">ucId</text></g><!--link GherkinController to FunctionalRequirement--><g class="link" data-entity-1="GherkinController" data-entity-2="FunctionalRequirement" data-source-line="25" data-uid="lnk14" id="link_GherkinController_FunctionalRequirement"><path codeLine="25" d="M355.26,275.4269 C372.11,302.7669 396.8305,342.8699 413.6605,370.1599" fill="none" id="GherkinController-to-FunctionalRequirement" style="stroke:#181818;stroke-width:1;"/><polygon fill="#181818" points="416.81,375.2669,415.4904,365.5068,414.1854,371.0111,408.6811,369.7061,416.81,375.2669" style="stroke:#181818;stroke-width:1;"/><text fill="#000000" font-family="sans-serif" font-size="13" lengthAdjust="spacing" textLength="28.7803" x="384" y="320.3638">rfIds</text></g><!--link GherkinController to Session--><g class="link" data-entity-1="GherkinController" data-entity-2="Session" data-source-line="26" data-uid="lnk15" id="link_GherkinController_Session"><path codeLine="26" d="M419.03,273.1669 C459.42,286.2369 508.26,305.6969 547,332.2969 C563.85,343.8669 575.5637,356.3464 586.5537,370.2764" fill="none" id="GherkinController-to-Session" style="stroke:#181818;stroke-width:1;"/><polygon fill="#181818" points="590.27,374.9869,587.8358,365.4436,587.1731,371.0615,581.5552,370.3987,590.27,374.9869" style="stroke:#181818;stroke-width:1;"/><text fill="#000000" font-family="sans-serif" font-size="13" lengthAdjust="spacing" textLength="60.2075" x="532" y="320.3638">sessionId</text></g><!--SRC=[VP11JyCm38Nl-HNMxjM08mSaL0dK0mAjR7UJUfsrBEdiL1CW_Zj1QwjEQxabyVkUtulksJSeU806xHvhAkEd8n2o4NtjoEWWq1rMuSI-XYqw7K-iGzN768K_saY53RxaBu8ROoB7v9QlixjRo20NGW5IInw50pplI9A9CTrkM6nO8oxWsy3Pj9UK7Q8RffFv6H5vy562Iz5aWkkcZkG2UWaLkV3Fdk5zhPHZAjlVdrfl8mUFRaN7beKEvECmBKar3VzsJGM7B7kuJWRtyFPQliCI6rxsVwFcMZUYUzl4sijFdU6w7adVsgAQ4KsMIuXiYsekK5SvgVHyAgfV]--></g></svg>