<svg xmlns="http://www.w3.org/2000/svg" xmlns:xlink="http://www.w3.org/1999/xlink" contentStyleType="text/css" data-diagram-type="STATE" height="616px" preserveAspectRatio="none" style="width:649px;height:616px;background:#FFFFFF;" version="1.1" viewBox="0 0 649 616" width="649px" zoomAndPan="magnify"><title>Diagrama de estados - Borrador</title><defs/><g><g class="title" data-source-line="1"><text fill="#000000" font-family="sans-serif" font-size="14" font-weight="bold" lengthAdjust="spacing" textLength="253.1279" x="188.1394" y="22.9951">Diagrama de estados - Borrador</text></g><path d="M19.5,44.2969 L623.9067,44.2969 A12.5,12.5 0 0 1 636.4067,56.7969 L636.4067,70.5938 L7,70.5938 L7,56.7969 A12.5,12.5 0 0 1 19.5,44.2969" fill="#F1F1F1"/><rect fill="none" height="566.2969" rx="12.5" ry="12.5" style="stroke:#181818;stroke-width:0.5;" width="629.4067" x="7" y="44.2969"/><line style="stroke:#181818;stroke-width:0.5;" x1="7" x2="636.4067" y1="70.5938" y2="70.5938"/><text fill="#000000" font-family="sans-serif" font-size="14" lengthAdjust="spacing" textLength="61.4688" x="290.969" y="62.292">Borrador</text><ellipse cx="339" cy="91.5938" fill="#222222" rx="10" ry="10" style="stroke:#222222;stroke-width:1;"/><g id="Borrador.Generado"><rect fill="#F1F1F1" height="50" rx="12.5" ry="12.5" style="stroke:#181818;stroke-width:0.5;" width="88.7354" x="294.5" y="138.5938"/><line style="stroke:#181818;stroke-width:0.5;" x1="294.5" x2="383.2354" y1="164.8906" y2="164.8906"/><text fill="#000000" font-family="sans-serif" font-size="14" lengthAdjust="spacing" textLength="68.7354" x="304.5" y="156.5889">Generado</text></g><g id="Borrador.PendienteRevision"><rect fill="#F1F1F1" height="50" rx="12.5" ry="12.5" style="stroke:#181818;stroke-width:0.5;" width="149.4316" x="264.5" y="241.5938"/><line style="stroke:#181818;stroke-width:0.5;" x1="264.5" x2="413.9316" y1="267.8906" y2="267.8906"/><text fill="#000000" font-family="sans-serif" font-size="14" lengthAdjust="spacing" textLength="129.4316" x="274.5" y="259.5889">PendienteRevision</text></g><g id="Borrador.EnRevision"><rect fill="#F1F1F1" height="50" rx="12.5" ry="12.5" style="stroke:#181818;stroke-width:0.5;" width="96.8564" x="189.5" y="344.5938"/><line style="stroke:#181818;stroke-width:0.5;" x1="189.5" x2="286.3564" y1="370.8906" y2="370.8906"/><text fill="#000000" font-family="sans-serif" font-size="14" lengthAdjust="spacing" textLength="76.8564" x="199.5" y="362.5889">EnRevision</text></g><g id="Borrador.ConFeedback"><rect fill="#F1F1F1" height="50" rx="12.5" ry="12.5" style="stroke:#181818;stroke-width:0.5;" width="114.6504" x="286.5" y="447.5938"/><line style="stroke:#181818;stroke-width:0.5;" x1="286.5" x2="401.1504" y1="473.8906" y2="473.8906"/><text fill="#000000" font-family="sans-serif" font-size="14" lengthAdjust="spacing" textLength="94.6504" x="296.5" y="465.5889">ConFeedback</text></g><g id="Borrador.Regenerado"><rect fill="#F1F1F1" height="50" rx="12.5" ry="12.5" style="stroke:#181818;stroke-width:0.5;" width="105.1143" x="360.5" y="550.5938"/><line style="stroke:#181818;stroke-width:0.5;" x1="360.5" x2="465.6143" y1="576.8906" y2="576.8906"/><text fill="#000000" font-family="sans-serif" font-size="14" lengthAdjust="spacing" textLength="85.1143" x="370.5" y="568.5889">Regenerado</text></g><g id="Borrador.Aprobado"><rect fill="#F1F1F1" height="50" rx="12.5" ry="12.5" style="stroke:#181818;stroke-width:0.5;" width="87.7031" x="19" y="447.5938"/><line style="stroke:#181818;stroke-width:0.5;" x1="19" x2="106.7031" y1="473.8906" y2="473.8906"/><text fill="#000000" font-family="sans-serif" font-size="14" lengthAdjust="spacing" textLength="67.7031" x="29" y="465.5889">Aprobado</text></g><g id="Borrador.Eliminado"><rect fill="#F1F1F1" height="50" rx="12.5" ry="12.5" style="stroke:#181818;stroke-width:0.5;" width="89.0566" x="133.5" y="447.5938"/><line style="stroke:#181818;stroke-width:0.5;" x1="133.5" x2="222.5566" y1="473.8906" y2="473.8906"/><text fill="#000000" font-family="sans-serif" font-size="14" lengthAdjust="spacing" textLength="69.0566" x="143.5" y="465.5889">Eliminado</text></g><ellipse cx="126" cy="575.5938" fill="none" rx="11" ry="11" style="stroke:#222222;stroke-width:1;"/><ellipse cx="126" cy="575.5938" fill="#222222" rx="6" ry="6" style="stroke:#222222;stroke-width:1;"/><!--link *start*Borrador to Generado--><g class="link" data-entity-1=".start.Borrador" data-entity-2="Generado" data-source-line="5" data-uid="lnk4" id="link_.start.Borrador_Generado"><path d="M339,101.7437 C339,111.0138 339,119.7337 339,132.3737" fill="none" id="*start*Borrador-to-Generado" style="stroke:#181818;stroke-width:1;"/><polygon fill="#181818" points="339,138.3737,343,129.3737,339,133.3737,335,129.3737,339,138.3737" style="stroke:#181818;stroke-width:1;"/></g><!--link Generado to PendienteRevision--><g class="link" data-entity-1="Generado" data-entity-2="PendienteRevision" data-source-line="6" data-uid="lnk6" id="link_Generado_PendienteRevision"><path d="M339,188.7838 C339,204.6638 339,219.3438 339,235.2538" fill="none" id="Generado-to-PendienteRevision" style="stroke:#181818;stroke-width:1;"/><polygon fill="#181818" points="339,241.2538,343,232.2538,339,236.2538,335,232.2538,339,241.2538" style="stroke:#181818;stroke-width:1;"/><text fill="#000000" font-family="sans-serif" font-size="13" lengthAdjust="spacing" textLength="101.0229" x="340" y="219.6606">crearBorrador()</text></g><!--link PendienteRevision to EnRevision--><g class="link" data-entity-1="PendienteRevision" data-entity-2="EnRevision" data-source-line="7" data-uid="lnk8" id="link_PendienteRevision_EnRevision"><path d="M314.81,291.7838 C298.93,307.6638 282.4926,324.1011 266.5826,340.0111" fill="none" id="PendienteRevision-to-EnRevision" style="stroke:#181818;stroke-width:1;"/><polygon fill="#181818" points="262.34,344.2538,271.5324,340.7182,265.8755,340.7182,265.8755,335.0614,262.34,344.2538" style="stroke:#181818;stroke-width:1;"/><text fill="#000000" font-family="sans-serif" font-size="13" lengthAdjust="spacing" textLength="97.7412" x="295" y="322.6606">abrirBorrador()</text></g><!--link EnRevision to ConFeedback--><g class="link" data-entity-1="EnRevision" data-entity-2="ConFeedback" data-source-line="8" data-uid="lnk10" id="link_EnRevision_ConFeedback"><path d="M286.66,387.3238 C299.49,393.6238 312.41,401.9238 322,412.5938 C330.77,422.3538 334.5449,430.1424 337.7849,441.8124" fill="none" id="EnRevision-to-ConFeedback" style="stroke:#181818;stroke-width:1;"/><polygon fill="#181818" points="339.39,447.5938,340.8366,437.8517,338.0524,442.776,333.1281,439.9918,339.39,447.5938" style="stroke:#181818;stroke-width:1;"/><text fill="#000000" font-family="sans-serif" font-size="13" lengthAdjust="spacing" textLength="114.1436" x="333" y="425.6606">anadirFeedback()</text></g><!--link ConFeedback to Regenerado--><g class="link" data-entity-1="ConFeedback" data-entity-2="Regenerado" data-source-line="9" data-uid="lnk12" id="link_ConFeedback_Regenerado"><path d="M338.81,497.6438 C337.62,508.9238 338.13,522.1438 344,532.5938 C347.98,539.6838 349.0007,541.9959 355.4607,547.0959" fill="none" id="ConFeedback-to-Regenerado" style="stroke:#181818;stroke-width:1;"/><polygon fill="#181818" points="360.17,550.8138,355.5846,542.0974,356.2456,547.7155,350.6275,548.3765,360.17,550.8138" style="stroke:#181818;stroke-width:1;"/><text fill="#000000" font-family="sans-serif" font-size="13" lengthAdjust="spacing" textLength="123.4429" x="345" y="528.6606">regenerarVersion()</text></g><!--link Regenerado to PendienteRevision--><g class="link" data-entity-1="Regenerado" data-entity-2="PendienteRevision" data-source-line="10" data-uid="lnk13" id="link_Regenerado_PendienteRevision"><path d="M454.93,550.4038 C460.61,545.2738 465.63,539.3338 469,532.5938 C493.09,484.4138 469.3,463.6038 452,412.5938 C435.33,363.4438 431.11,348.7038 397,309.5938 C391.36,303.1338 389.3012,300.758 382.3512,295.398" fill="none" id="Regenerado-to-PendienteRevision" style="stroke:#181818;stroke-width:1;"/><polygon fill="#181818" points="377.6,291.7338,382.2839,300.3975,381.5593,294.7873,387.1696,294.0626,377.6,291.7338" style="stroke:#181818;stroke-width:1;"/><text fill="#000000" font-family="sans-serif" font-size="13" lengthAdjust="spacing" textLength="167.4067" x="459" y="425.6606">nuevaVersionDisponible()</text></g><!--link EnRevision to Aprobado--><g class="link" data-entity-1="EnRevision" data-entity-2="Aprobado" data-source-line="11" data-uid="lnk15" id="link_EnRevision_Aprobado"><path d="M189.34,376.0037 C144.15,382.1238 81.57,393.7637 66,412.5938 C58.16,422.0738 56.5054,429.655 57.4954,441.385" fill="none" id="EnRevision-to-Aprobado" style="stroke:#181818;stroke-width:1;"/><polygon fill="#181818" points="58,447.3638,61.2289,438.0592,57.5795,442.3815,53.2573,438.732,58,447.3638" style="stroke:#181818;stroke-width:1;"/><text fill="#000000" font-family="sans-serif" font-size="13" lengthAdjust="spacing" textLength="116.9937" x="67" y="425.6606">aceptarBorrador()</text></g><!--link EnRevision to Eliminado--><g class="link" data-entity-1="EnRevision" data-entity-2="Eliminado" data-source-line="12" data-uid="lnk17" id="link_EnRevision_Eliminado"><path d="M210.02,394.6337 C204.82,400.1238 199.82,406.2238 196,412.5938 C189.61,423.2438 186.7652,430.5329 183.9752,441.6929" fill="none" id="EnRevision-to-Eliminado" style="stroke:#181818;stroke-width:1;"/><polygon fill="#181818" points="182.52,447.5137,188.5834,439.7526,183.7327,442.663,180.8223,437.8123,182.52,447.5137" style="stroke:#181818;stroke-width:1;"/><text fill="#000000" font-family="sans-serif" font-size="13" lengthAdjust="spacing" textLength="124.0522" x="197" y="425.6606">rechazarBorrador()</text></g><!--link Aprobado to *end*Borrador--><g class="link" data-entity-1="Aprobado" data-entity-2=".end.Borrador" data-source-line="13" data-uid="lnk19" id="link_Aprobado_.end.Borrador"><path d="M78.09,497.7838 C91.78,519.7338 108.0261,545.7719 117.3761,560.7719" fill="none" id="Aprobado-to-*end*Borrador" style="stroke:#181818;stroke-width:1;"/><polygon fill="#181818" points="120.55,565.8638,119.1837,556.1101,117.9051,561.6206,112.3946,560.342,120.55,565.8638" style="stroke:#181818;stroke-width:1;"/></g><!--link Eliminado to *end*Borrador--><g class="link" data-entity-1="Eliminado" data-entity-2=".end.Borrador" data-source-line="14" data-uid="lnk20" id="link_Eliminado_.end.Borrador"><path d="M165.54,497.7838 C154.37,519.4938 141.3064,544.8692 133.4964,560.0392" fill="none" id="Eliminado-to-*end*Borrador" style="stroke:#181818;stroke-width:1;"/><polygon fill="#181818" points="130.75,565.3738,138.4259,559.2029,133.0387,560.9283,131.3132,555.541,130.75,565.3738" style="stroke:#181818;stroke-width:1;"/></g><!--SRC=[VP2zJWCn48HxFyKg5I3T2wH02YJGeXHfK8gzyoYikAnFQoS5Y7V7XZWOHT2jPxxP7oT98sWfl3FUCtaGOc8V8dLq5ynoQSwvh2NGh2epudYswTqztsofwsxf4OgYkLfygKzGBz24DOuI9IZDQJ2mrGvNr-wIAScLDX7kJTf8OnRsFkW3u7iUNWkixCMgaEdMBlWQkxhZdEpqi0siDCnyu_zrWnvmv5DYAN4AAls8oyqMauN-Un0Fc1B_SyLgbBretMfuuRTVzBbLOVElkn- -AX-V]--></g></svg>