<?xml version="1.0" encoding="us-ascii" standalone="no"?><svg xmlns="http://www.w3.org/2000/svg" xmlns:xlink="http://www.w3.org/1999/xlink" contentStyleType="text/css" height="451px" preserveAspectRatio="none" style="width:1032px;height:451px;background:#FFFFFF;" version="1.1" viewBox="0 0 1032 451" width="1032px" zoomAndPan="magnify"><defs/><g><text fill="#000000" font-family="sans-serif" font-size="14" font-weight="bold" lengthAdjust="spacing" textLength="290" x="364.435" y="24.5332">CU-39 - Crear traspaso al flujo automatico</text><!--cluster Vista--><g id="cluster_Vista"><rect fill="none" height="100" rx="2.5" ry="2.5" style="stroke:#000000;stroke-width:1.5;" width="190" x="366.87" y="45.6094"/><text fill="#000000" font-family="sans-serif" font-size="14" font-weight="bold" lengthAdjust="spacing" textLength="34" x="444.87" y="62.1426">Vista</text></g><!--cluster Controlador--><g id="cluster_Controlador"><rect fill="none" height="100" rx="2.5" ry="2.5" style="stroke:#000000;stroke-width:1.5;" width="176" x="373.87" y="195.6094"/><text fill="#000000" font-family="sans-serif" font-size="14" font-weight="bold" lengthAdjust="spacing" textLength="84" x="419.87" y="212.1426">Controlador</text></g><!--cluster Modelo--><g id="cluster_Modelo"><rect fill="none" height="100" rx="2.5" ry="2.5" style="stroke:#000000;stroke-width:1.5;" width="277" x="110.87" y="345.6094"/><text fill="#000000" font-family="sans-serif" font-size="14" font-weight="bold" lengthAdjust="spacing" textLength="53" x="222.87" y="362.1426">Modelo</text></g><!--cluster Sistema externo--><g id="cluster_Sistema externo"><rect fill="none" height="100" rx="2.5" ry="2.5" style="stroke:#000000;stroke-width:1.5;" width="146" x="718.87" y="345.6094"/><text fill="#000000" font-family="sans-serif" font-size="14" font-weight="bold" lengthAdjust="spacing" textLength="114" x="734.87" y="362.1426">Sistema externo</text></g><!--class AutomaticModeView--><g id="elem_AutomaticModeView"><rect codeLine="8" fill="#F1F1F1" height="48" id="AutomaticModeView" rx="2.5" ry="2.5" style="stroke:#181818;stroke-width:0.5;" width="158" x="382.87" y="81.6094"/><ellipse cx="397.87" cy="97.6094" fill="#ADD1B2" rx="11" ry="11" style="stroke:#181818;stroke-width:1.0;"/><path d="M400.6356,93.4844 Q400.7919,93.2656 400.9794,93.1563 Q401.1669,93.0469 401.3856,93.0469 Q401.7606,93.0469 401.995,93.3125 Q402.2294,93.5625 402.2294,94.1719 L402.2294,95.625 Q402.2294,96.2344 401.995,96.5 Q401.7606,96.7656 401.3856,96.7656 Q401.0419,96.7656 400.8388,96.5625 Q400.6356,96.375 400.5263,95.8594 Q400.4794,95.5 400.2919,95.3125 Q399.9638,94.9375 399.3544,94.7188 Q398.745,94.5 398.12,94.5 Q397.3544,94.5 396.7138,94.8281 Q396.0888,95.1563 395.5888,95.9063 Q395.1044,96.6563 395.1044,97.6875 L395.1044,98.7813 Q395.1044,100.0156 395.995,100.8438 Q396.8856,101.6563 398.4794,101.6563 Q399.4169,101.6563 400.0731,101.4063 Q400.4638,101.25 400.8856,100.8125 Q401.1513,100.5469 401.2919,100.4688 Q401.4481,100.3906 401.6513,100.3906 Q401.9794,100.3906 402.2294,100.6563 Q402.495,100.9063 402.495,101.25 Q402.495,101.5938 402.1513,102 Q401.6513,102.5781 400.8544,102.9063 Q399.7763,103.3594 398.4794,103.3594 Q396.9638,103.3594 395.7606,102.7344 Q394.7763,102.2344 394.0888,101.1719 Q393.4013,100.0938 393.4013,98.8125 L393.4013,97.6563 Q393.4013,96.3281 394.0106,95.1875 Q394.6356,94.0313 395.7294,93.4219 Q396.8231,92.7969 398.0575,92.7969 Q398.7919,92.7969 399.4325,92.9688 Q400.0888,93.125 400.6356,93.4844 Z " fill="#000000"/><text fill="#000000" font-family="sans-serif" font-size="14" lengthAdjust="spacing" textLength="126" x="411.87" y="103.3379">AutomaticModeView</text><line style="stroke:#181818;stroke-width:0.5;" x1="383.87" x2="539.87" y1="113.6094" y2="113.6094"/><line style="stroke:#181818;stroke-width:0.5;" x1="383.87" x2="539.87" y1="121.6094" y2="121.6094"/></g><!--class SessionController--><g id="elem_SessionController"><rect codeLine="12" fill="#F1F1F1" height="48" id="SessionController" rx="2.5" ry="2.5" style="stroke:#181818;stroke-width:0.5;" width="144" x="389.87" y="231.6094"/><ellipse cx="404.87" cy="247.6094" fill="#ADD1B2" rx="11" ry="11" style="stroke:#181818;stroke-width:1.0;"/><path d="M407.6356,243.4844 Q407.7919,243.2656 407.9794,243.1563 Q408.1669,243.0469 408.3856,243.0469 Q408.7606,243.0469 408.995,243.3125 Q409.2294,243.5625 409.2294,244.1719 L409.2294,245.625 Q409.2294,246.2344 408.995,246.5 Q408.7606,246.7656 408.3856,246.7656 Q408.0419,246.7656 407.8388,246.5625 Q407.6356,246.375 407.5263,245.8594 Q407.4794,245.5 407.2919,245.3125 Q406.9638,244.9375 406.3544,244.7188 Q405.745,244.5 405.12,244.5 Q404.3544,244.5 403.7138,244.8281 Q403.0888,245.1563 402.5888,245.9063 Q402.1044,246.6563 402.1044,247.6875 L402.1044,248.7813 Q402.1044,250.0156 402.995,250.8438 Q403.8856,251.6563 405.4794,251.6563 Q406.4169,251.6563 407.0731,251.4063 Q407.4638,251.25 407.8856,250.8125 Q408.1513,250.5469 408.2919,250.4688 Q408.4481,250.3906 408.6513,250.3906 Q408.9794,250.3906 409.2294,250.6563 Q409.495,250.9063 409.495,251.25 Q409.495,251.5938 409.1513,252 Q408.6513,252.5781 407.8544,252.9063 Q406.7763,253.3594 405.4794,253.3594 Q403.9638,253.3594 402.7606,252.7344 Q401.7763,252.2344 401.0888,251.1719 Q400.4013,250.0938 400.4013,248.8125 L400.4013,247.6563 Q400.4013,246.3281 401.0106,245.1875 Q401.6356,244.0313 402.7294,243.4219 Q403.8231,242.7969 405.0575,242.7969 Q405.7919,242.7969 406.4325,242.9688 Q407.0888,243.125 407.6356,243.4844 Z " fill="#000000"/><text fill="#000000" font-family="sans-serif" font-size="14" lengthAdjust="spacing" textLength="112" x="418.87" y="253.3379">SessionController</text><line style="stroke:#181818;stroke-width:0.5;" x1="390.87" x2="532.87" y1="263.6094" y2="263.6094"/><line style="stroke:#181818;stroke-width:0.5;" x1="390.87" x2="532.87" y1="271.6094" y2="271.6094"/></g><!--class Session--><g id="elem_Session"><rect codeLine="16" fill="#F1F1F1" height="48" id="Session" rx="2.5" ry="2.5" style="stroke:#181818;stroke-width:0.5;" width="82" x="126.87" y="381.6094"/><ellipse cx="141.87" cy="397.6094" fill="#ADD1B2" rx="11" ry="11" style="stroke:#181818;stroke-width:1.0;"/><path d="M144.6356,393.4844 Q144.7919,393.2656 144.9794,393.1563 Q145.1669,393.0469 145.3856,393.0469 Q145.7606,393.0469 145.995,393.3125 Q146.2294,393.5625 146.2294,394.1719 L146.2294,395.625 Q146.2294,396.2344 145.995,396.5 Q145.7606,396.7656 145.3856,396.7656 Q145.0419,396.7656 144.8388,396.5625 Q144.6356,396.375 144.5263,395.8594 Q144.4794,395.5 144.2919,395.3125 Q143.9638,394.9375 143.3544,394.7188 Q142.745,394.5 142.12,394.5 Q141.3544,394.5 140.7138,394.8281 Q140.0888,395.1563 139.5888,395.9063 Q139.1044,396.6563 139.1044,397.6875 L139.1044,398.7813 Q139.1044,400.0156 139.995,400.8438 Q140.8856,401.6563 142.4794,401.6563 Q143.4169,401.6563 144.0731,401.4063 Q144.4638,401.25 144.8856,400.8125 Q145.1513,400.5469 145.2919,400.4688 Q145.4481,400.3906 145.6513,400.3906 Q145.9794,400.3906 146.2294,400.6563 Q146.495,400.9063 146.495,401.25 Q146.495,401.5938 146.1513,402 Q145.6513,402.5781 144.8544,402.9063 Q143.7763,403.3594 142.4794,403.3594 Q140.9638,403.3594 139.7606,402.7344 Q138.7763,402.2344 138.0888,401.1719 Q137.4013,400.0938 137.4013,398.8125 L137.4013,397.6563 Q137.4013,396.3281 138.0106,395.1875 Q138.6356,394.0313 139.7294,393.4219 Q140.8231,392.7969 142.0575,392.7969 Q142.7919,392.7969 143.4325,392.9688 Q144.0888,393.125 144.6356,393.4844 Z " fill="#000000"/><text fill="#000000" font-family="sans-serif" font-size="14" lengthAdjust="spacing" textLength="50" x="155.87" y="403.3379">Session</text><line style="stroke:#181818;stroke-width:0.5;" x1="127.87" x2="207.87" y1="413.6094" y2="413.6094"/><line style="stroke:#181818;stroke-width:0.5;" x1="127.87" x2="207.87" y1="421.6094" y2="421.6094"/></g><!--class Documentation--><g id="elem_Documentation"><rect codeLine="17" fill="#F1F1F1" height="48" id="Documentation" rx="2.5" ry="2.5" style="stroke:#181818;stroke-width:0.5;" width="127" x="244.37" y="381.6094"/><ellipse cx="259.37" cy="397.6094" fill="#ADD1B2" rx="11" ry="11" style="stroke:#181818;stroke-width:1.0;"/><path d="M262.1356,393.4844 Q262.2919,393.2656 262.4794,393.1563 Q262.6669,393.0469 262.8856,393.0469 Q263.2606,393.0469 263.495,393.3125 Q263.7294,393.5625 263.7294,394.1719 L263.7294,395.625 Q263.7294,396.2344 263.495,396.5 Q263.2606,396.7656 262.8856,396.7656 Q262.5419,396.7656 262.3388,396.5625 Q262.1356,396.375 262.0263,395.8594 Q261.9794,395.5 261.7919,395.3125 Q261.4638,394.9375 260.8544,394.7188 Q260.245,394.5 259.62,394.5 Q258.8544,394.5 258.2138,394.8281 Q257.5888,395.1563 257.0888,395.9063 Q256.6044,396.6563 256.6044,397.6875 L256.6044,398.7813 Q256.6044,400.0156 257.495,400.8438 Q258.3856,401.6563 259.9794,401.6563 Q260.9169,401.6563 261.5731,401.4063 Q261.9638,401.25 262.3856,400.8125 Q262.6513,400.5469 262.7919,400.4688 Q262.9481,400.3906 263.1513,400.3906 Q263.4794,400.3906 263.7294,400.6563 Q263.995,400.9063 263.995,401.25 Q263.995,401.5938 263.6513,402 Q263.1513,402.5781 262.3544,402.9063 Q261.2763,403.3594 259.9794,403.3594 Q258.4638,403.3594 257.2606,402.7344 Q256.2763,402.2344 255.5888,401.1719 Q254.9013,400.0938 254.9013,398.8125 L254.9013,397.6563 Q254.9013,396.3281 255.5106,395.1875 Q256.1356,394.0313 257.2294,393.4219 Q258.3231,392.7969 259.5575,392.7969 Q260.2919,392.7969 260.9325,392.9688 Q261.5888,393.125 262.1356,393.4844 Z " fill="#000000"/><text fill="#000000" font-family="sans-serif" font-size="14" lengthAdjust="spacing" textLength="95" x="273.37" y="403.3379">Documentation</text><line style="stroke:#181818;stroke-width:0.5;" x1="245.37" x2="370.37" y1="413.6094" y2="413.6094"/><line style="stroke:#181818;stroke-width:0.5;" x1="245.37" x2="370.37" y1="421.6094" y2="421.6094"/></g><!--class AgentApiKiwi--><g id="elem_AgentApiKiwi"><rect codeLine="21" fill="#F1F1F1" height="48" id="AgentApiKiwi" rx="2.5" ry="2.5" style="stroke:#181818;stroke-width:0.5;" width="113" x="735.37" y="381.6094"/><ellipse cx="750.37" cy="397.6094" fill="#ADD1B2" rx="11" ry="11" style="stroke:#181818;stroke-width:1.0;"/><path d="M753.1356,393.4844 Q753.2919,393.2656 753.4794,393.1563 Q753.6669,393.0469 753.8856,393.0469 Q754.2606,393.0469 754.495,393.3125 Q754.7294,393.5625 754.7294,394.1719 L754.7294,395.625 Q754.7294,396.2344 754.495,396.5 Q754.2606,396.7656 753.8856,396.7656 Q753.5419,396.7656 753.3388,396.5625 Q753.1356,396.375 753.0263,395.8594 Q752.9794,395.5 752.7919,395.3125 Q752.4638,394.9375 751.8544,394.7188 Q751.245,394.5 750.62,394.5 Q749.8544,394.5 749.2138,394.8281 Q748.5888,395.1563 748.0888,395.9063 Q747.6044,396.6563 747.6044,397.6875 L747.6044,398.7813 Q747.6044,400.0156 748.495,400.8438 Q749.3856,401.6563 750.9794,401.6563 Q751.9169,401.6563 752.5731,401.4063 Q752.9638,401.25 753.3856,400.8125 Q753.6513,400.5469 753.7919,400.4688 Q753.9481,400.3906 754.1513,400.3906 Q754.4794,400.3906 754.7294,400.6563 Q754.995,400.9063 754.995,401.25 Q754.995,401.5938 754.6513,402 Q754.1513,402.5781 753.3544,402.9063 Q752.2763,403.3594 750.9794,403.3594 Q749.4638,403.3594 748.2606,402.7344 Q747.2763,402.2344 746.5888,401.1719 Q745.9013,400.0938 745.9013,398.8125 L745.9013,397.6563 Q745.9013,396.3281 746.5106,395.1875 Q747.1356,394.0313 748.2294,393.4219 Q749.3231,392.7969 750.5575,392.7969 Q751.2919,392.7969 751.9325,392.9688 Q752.5888,393.125 753.1356,393.4844 Z " fill="#000000"/><text fill="#000000" font-family="sans-serif" font-size="14" lengthAdjust="spacing" textLength="81" x="764.37" y="403.3379">AgentApiKiwi</text><line style="stroke:#181818;stroke-width:0.5;" x1="736.37" x2="847.37" y1="413.6094" y2="413.6094"/><line style="stroke:#181818;stroke-width:0.5;" x1="736.37" x2="847.37" y1="421.6094" y2="421.6094"/></g><!--link AutomaticModeView to SessionController--><g id="link_AutomaticModeView_SessionController"><path codeLine="24" d="M461.87,129.7294 C461.87,157.3794 461.87,197.3694 461.87,225.1594 " fill="none" id="AutomaticModeView-to-SessionController" style="stroke:#181818;stroke-width:1.0;"/><polygon fill="#181818" points="461.87,231.1594,465.87,222.1594,461.87,226.1594,457.87,222.1594,461.87,231.1594" style="stroke:#181818;stroke-width:1.0;"/><text fill="#000000" font-family="sans-serif" font-size="13" lengthAdjust="spacing" textLength="230" x="462.87" y="176.1045">POST /api/sessions/:id/handoff-to-agent</text></g><!--link SessionController to Session--><g id="link_SessionController_Session"><path codeLine="25" d="M389.68,260.8494 C274.73,268.3494 60.68,285.6494 37.87,311.6094 C6,347.8794 71.7869,376.0078 120.8669,391.4578 " fill="none" id="SessionController-to-Session" style="stroke:#181818;stroke-width:1.0;"/><polygon fill="#181818" points="126.59,393.2594,119.2064,386.7416,121.8207,391.758,116.8042,394.3724,126.59,393.2594" style="stroke:#181818;stroke-width:1.0;"/><text fill="#000000" font-family="sans-serif" font-size="13" lengthAdjust="spacing" textLength="85" x="38.87" y="326.1045">obtener sesion</text></g><!--link SessionController to Session--><g id="link_SessionController_Session"><path codeLine="29" d="M389.75,259.4894 C310.15,264.3594 189.45,277.3394 160.87,311.6094 C144.8,330.8894 148.7764,355.2432 155.9864,375.9432 " fill="none" id="SessionController-to-Session-1" style="stroke:#181818;stroke-width:1.0;"/><polygon fill="#181818" points="157.96,381.6094,158.7771,371.7945,156.3154,376.8876,151.2222,374.4259,157.96,381.6094" style="stroke:#181818;stroke-width:1.0;"/><text fill="#000000" font-family="sans-serif" font-size="13" lengthAdjust="spacing" textLength="252" x="161.87" y="326.1045">guardar handoff y workflowMode automatico</text></g><!--link SessionController to Documentation--><g id="link_SessionController_Documentation"><path codeLine="26" d="M453.04,279.8594 C446.4,295.2094 436.17,315.0994 422.87,329.6094 C403.55,350.6994 382.2804,365.5243 359.6004,378.4743 " fill="none" id="SessionController-to-Documentation" style="stroke:#181818;stroke-width:1.0;"/><polygon fill="#181818" points="354.39,381.4494,364.1891,380.4604,358.732,378.9701,360.2223,373.5131,354.39,381.4494" style="stroke:#181818;stroke-width:1.0;"/><text fill="#000000" font-family="sans-serif" font-size="13" lengthAdjust="spacing" textLength="188" x="436.87" y="326.1045">contar documentacion de sesion</text></g><!--link SessionController to AgentApiKiwi--><g id="link_SessionController_AgentApiKiwi"><path codeLine="27" d="M533.91,275.7494 C565.22,285.0594 601.96,297.3294 633.87,311.6094 C678.47,331.5694 721.3665,357.7485 752.5865,378.1385 " fill="none" id="SessionController-to-AgentApiKiwi" style="stroke:#181818;stroke-width:1.0;"/><polygon fill="#181818" points="757.61,381.4194,752.262,373.149,753.4237,378.6853,747.8875,379.847,757.61,381.4194" style="stroke:#181818;stroke-width:1.0;"/><text fill="#000000" font-family="sans-serif" font-size="13" lengthAdjust="spacing" textLength="158" x="671.87" y="326.1045">POST /api/kiwi-mvc/handoff</text></g><!--link AgentApiKiwi to SessionController--><g id="link_AgentApiKiwi_SessionController"><path codeLine="28" d="M817.74,381.3294 C836.91,361.2994 856.86,332.4094 838.87,311.6094 C800.26,266.9594 638.1994,257.9167 539.9894,256.4867 " fill="none" id="AgentApiKiwi-to-SessionController" style="stroke:#181818;stroke-width:1.0;"/><polygon fill="#181818" points="533.99,256.3994,542.9308,260.53,538.9895,256.4722,543.0473,252.5308,533.99,256.3994" style="stroke:#181818;stroke-width:1.0;"/><text fill="#000000" font-family="sans-serif" font-size="13" lengthAdjust="spacing" textLength="179" x="845.87" y="326.1045">agent_session_id + handoff_url</text></g><!--SRC=[XL91JiCm4Bpx5QjUKLGaJlI059KBGWYaGA_LDjwa9eutiZU4WlWx3ashH2rmisTdnZEsGsLSWnvhQ32liAHCTfR0KoxeIaig70bXYvexuqeeq8Rn9BSOGYhYpQOLkilPPUQ3u58fCHBTbY_9rJKaiFI47iHZQ30me8N2jgznqGhNA2PdfOOOC5kP83Y3JmLxVqWFh0VMj3BKgQyHVSbEFDiOqOz56OLWs0rJItuYwfqid-4VzxUSjpKvYUT6TApDOZwg4UXToBk9ILf6HTgOUzEPNdEI79BavZGQBE3fCNk6EJPc7lRJC5yOFT-YqrmKYN22lRSwrOuSemzlX5n4eqkV-pnzqYsAuhj9V1zzWFCUrlItoRZhf40LWQH-om_XrOJvsmNyr5iFvTT6mmKC-dNhxR-zonQzZXq63UoWOryLbhl-wiSVxHi0]--></g></svg>
