<svg xmlns="http://www.w3.org/2000/svg" xmlns:xlink="http://www.w3.org/1999/xlink" contentStyleType="text/css" data-diagram-type="DESCRIPTION" height="674px" preserveAspectRatio="none" style="width:717px;height:674px;background:#FFFFFF;" version="1.1" viewBox="0 0 717 674" width="717px" zoomAndPan="magnify"><title>Login y publicaci&#243;n en Kiwi TCMS</title><defs/><g><g class="title" data-source-line="4"><text fill="#000000" font-family="sans-serif" font-size="14" font-weight="bold" lengthAdjust="spacing" textLength="263.5391" x="219.7305" y="22.9951">Login y publicaci&#243;n en Kiwi TCMS</text></g><!--cluster app--><g class="cluster" data-entity="app" data-source-line="6" data-uid="ent0002" id="cluster_app"><rect fill="none" height="343" rx="2.5" ry="2.5" style="stroke:#181818;stroke-width:1;" width="624" x="87" y="44.2969"/><path d="M126.4902,44.2969 L126.4902,53.5938 L116.4902,63.5938 L87,63.5938" fill="none" style="stroke:#181818;stroke-width:1;"/><text fill="#000000" font-family="sans-serif" font-size="14" font-weight="bold" lengthAdjust="spacing" textLength="29.4902" x="90" y="58.292">app</text></g><!--cluster Kiwi TCMS XML-RPC--><g class="cluster" data-entity="Kiwi TCMS XML-RPC" data-source-line="13" data-uid="ent0007" id="cluster_Kiwi TCMS XML-RPC"><rect fill="none" height="97" rx="2.5" ry="2.5" style="stroke:#181818;stroke-width:1;" width="331" x="7" y="436.2969"/><path d="M174.7393,436.2969 L174.7393,445.5938 L164.7393,455.5938 L7,455.5938" fill="none" style="stroke:#181818;stroke-width:1;"/><text fill="#000000" font-family="sans-serif" font-size="14" font-weight="bold" lengthAdjust="spacing" textLength="157.7393" x="10" y="450.292">Kiwi TCMS XML-RPC</text></g><!--entity DraftsView--><g class="entity" data-entity="DraftsView" data-source-line="7" data-uid="ent0003" id="entity_DraftsView"><rect fill="#F1F1F1" height="46.2969" rx="2.5" ry="2.5" style="stroke:#181818;stroke-width:0.5;" width="116.3574" x="305" y="79.2969"/><rect fill="#F1F1F1" height="10" style="stroke:#181818;stroke-width:0.5;" width="15" x="401.3574" y="84.2969"/><rect fill="#F1F1F1" height="2" style="stroke:#181818;stroke-width:0.5;" width="4" x="399.3574" y="86.2969"/><rect fill="#F1F1F1" height="2" style="stroke:#181818;stroke-width:0.5;" width="4" x="399.3574" y="90.2969"/><text fill="#000000" font-family="sans-serif" font-size="14" lengthAdjust="spacing" textLength="76.3574" x="320" y="112.292">DraftsView</text></g><!--entity DraftController--><g class="entity" data-entity="DraftController" data-source-line="8" data-uid="ent0004" id="entity_DraftController"><rect fill="#F1F1F1" height="46.2969" rx="2.5" ry="2.5" style="stroke:#181818;stroke-width:0.5;" width="144.7061" x="290.5" y="202.2969"/><rect fill="#F1F1F1" height="10" style="stroke:#181818;stroke-width:0.5;" width="15" x="415.2061" y="207.2969"/><rect fill="#F1F1F1" height="2" style="stroke:#181818;stroke-width:0.5;" width="4" x="413.2061" y="209.2969"/><rect fill="#F1F1F1" height="2" style="stroke:#181818;stroke-width:0.5;" width="4" x="413.2061" y="213.2969"/><text fill="#000000" font-family="sans-serif" font-size="14" lengthAdjust="spacing" textLength="104.7061" x="305.5" y="235.292">DraftController</text></g><!--entity ManualKiwiService--><g class="entity" data-entity="ManualKiwiService" data-source-line="9" data-uid="ent0005" id="entity_ManualKiwiService"><rect fill="#F1F1F1" height="46.2969" rx="2.5" ry="2.5" style="stroke:#181818;stroke-width:0.5;" width="171.0244" x="181.5" y="325.2969"/><rect fill="#F1F1F1" height="10" style="stroke:#181818;stroke-width:0.5;" width="15" x="332.5244" y="330.2969"/><rect fill="#F1F1F1" height="2" style="stroke:#181818;stroke-width:0.5;" width="4" x="330.5244" y="332.2969"/><rect fill="#F1F1F1" height="2" style="stroke:#181818;stroke-width:0.5;" width="4" x="330.5244" y="336.2969"/><text fill="#000000" font-family="sans-serif" font-size="14" lengthAdjust="spacing" textLength="131.0244" x="196.5" y="358.292">ManualKiwiService</text></g><!--entity Draft--><g class="entity" data-entity="Draft" data-source-line="10" data-uid="ent0006" id="entity_Draft"><rect fill="#F1F1F1" height="46.2969" rx="2.5" ry="2.5" style="stroke:#181818;stroke-width:0.5;" width="75.5332" x="421" y="325.2969"/><rect fill="#F1F1F1" height="10" style="stroke:#181818;stroke-width:0.5;" width="15" x="476.5332" y="330.2969"/><rect fill="#F1F1F1" height="2" style="stroke:#181818;stroke-width:0.5;" width="4" x="474.5332" y="332.2969"/><rect fill="#F1F1F1" height="2" style="stroke:#181818;stroke-width:0.5;" width="4" x="474.5332" y="336.2969"/><text fill="#000000" font-family="sans-serif" font-size="14" lengthAdjust="spacing" textLength="35.5332" x="436" y="358.292">Draft</text></g><!--entity Login--><g class="entity" data-entity="Login" data-source-line="14" data-uid="ent0008" id="entity_Login"><rect fill="#F1F1F1" height="46.2969" rx="2.5" ry="2.5" style="stroke:#181818;stroke-width:0.5;" width="111.3672" x="211.5" y="471.2969"/><rect fill="#F1F1F1" height="10" style="stroke:#181818;stroke-width:0.5;" width="15" x="302.8672" y="476.2969"/><rect fill="#F1F1F1" height="2" style="stroke:#181818;stroke-width:0.5;" width="4" x="300.8672" y="478.2969"/><rect fill="#F1F1F1" height="2" style="stroke:#181818;stroke-width:0.5;" width="4" x="300.8672" y="482.2969"/><text fill="#000000" font-family="sans-serif" font-size="14" lengthAdjust="spacing" textLength="71.3672" x="226.5" y="504.292">Auth.login</text></g><!--entity Create--><g class="entity" data-entity="Create" data-source-line="15" data-uid="ent0009" id="entity_Create"><rect fill="#F1F1F1" height="46.2969" rx="2.5" ry="2.5" style="stroke:#181818;stroke-width:0.5;" width="153.4082" x="23.5" y="471.2969"/><rect fill="#F1F1F1" height="10" style="stroke:#181818;stroke-width:0.5;" width="15" x="156.9082" y="476.2969"/><rect fill="#F1F1F1" height="2" style="stroke:#181818;stroke-width:0.5;" width="4" x="154.9082" y="478.2969"/><rect fill="#F1F1F1" height="2" style="stroke:#181818;stroke-width:0.5;" width="4" x="154.9082" y="482.2969"/><text fill="#000000" font-family="sans-serif" font-size="14" lengthAdjust="spacing" textLength="113.4082" x="38.5" y="504.292">TestCase.create</text></g><!--entity MariaDB--><g class="entity" data-entity="MariaDB" data-source-line="18" data-uid="ent0010" id="entity_MariaDB"><path d="M54,606.2969 C54,596.2969 100.0767,596.2969 100.0767,596.2969 C100.0767,596.2969 146.1533,596.2969 146.1533,606.2969 L146.1533,647.8906 C146.1533,657.8906 100.0767,657.8906 100.0767,657.8906 C100.0767,657.8906 54,657.8906 54,647.8906 L54,606.2969" fill="#F1F1F1" style="stroke:#181818;stroke-width:0.5;"/><path d="M54,606.2969 C54,616.2969 100.0767,616.2969 100.0767,616.2969 C100.0767,616.2969 146.1533,616.2969 146.1533,606.2969" fill="none" style="stroke:#181818;stroke-width:0.5;"/><text fill="#000000" font-family="sans-serif" font-size="14" lengthAdjust="spacing" textLength="59.2676" x="64" y="633.292">MariaDB</text><text fill="#000000" font-family="sans-serif" font-size="14" lengthAdjust="spacing" textLength="72.1533" x="64" y="649.5889">Kiwi TCMS</text></g><!--link DraftsView to DraftController--><g class="link" data-entity-1="DraftsView" data-entity-2="DraftController" data-source-line="20" data-uid="lnk11" id="link_DraftsView_DraftController"><path d="M363,125.4869 C363,147.3269 363,174.4569 363,196.2469" fill="none" id="DraftsView-to-DraftController" style="stroke:#181818;stroke-width:1;"/><polygon fill="#181818" points="363,202.2469,367,193.2469,363,197.2469,359,193.2469,363,202.2469" style="stroke:#181818;stroke-width:1;"/><text fill="#000000" font-family="sans-serif" font-size="13" lengthAdjust="spacing" textLength="176.979" x="364" y="168.3638">POST /api/drafts/:id/publish</text></g><!--link DraftController to Draft--><g class="link" data-entity-1="DraftController" data-entity-2="Draft" data-source-line="21" data-uid="lnk12" id="link_DraftController_Draft"><path d="M377.81,248.5369 C387.21,262.2969 399.86,280.1669 412,295.2969 C420.15,305.4569 425.6362,311.7926 433.9862,320.8626" fill="none" id="DraftController-to-Draft" style="stroke:#181818;stroke-width:1;"/><polygon fill="#181818" points="438.05,325.2769,434.8971,315.9463,434.6635,321.5984,429.0115,321.3647,438.05,325.2769" style="stroke:#181818;stroke-width:1;"/><text fill="#000000" font-family="sans-serif" font-size="13" lengthAdjust="spacing" textLength="85.4966" x="413" y="291.3638">leer borrador</text></g><!--link DraftController to Draft--><g class="link" data-entity-1="DraftController" data-entity-2="Draft" data-source-line="28" data-uid="lnk19" id="link_DraftController_Draft"><path d="M435.81,236.0069 C461.36,243.3069 487.53,256.0469 503,278.2969 C513.71,293.6969 505.9851,307.3879 491.8151,321.0779" fill="none" id="DraftController-to-Draft-1" style="stroke:#181818;stroke-width:1;"/><polygon fill="#181818" points="487.5,325.2469,496.7519,321.8702,491.0959,321.7728,491.1934,316.1168,487.5,325.2469" style="stroke:#181818;stroke-width:1;"/><text fill="#000000" font-family="sans-serif" font-size="13" lengthAdjust="spacing" textLength="151.6709" x="508" y="291.3638">published + kiwiCaseId</text></g><!--link DraftController to ManualKiwiService--><g class="link" data-entity-1="DraftController" data-entity-2="ManualKiwiService" data-source-line="22" data-uid="lnk13" id="link_DraftController_ManualKiwiService"><path d="M290.21,233.1269 C231.01,240.3669 154.24,254.1769 135,278.2969 C115.17,303.1669 139.1119,318.3466 175.3319,329.1866" fill="none" id="DraftController-to-ManualKiwiService" style="stroke:#181818;stroke-width:1;"/><polygon fill="#181818" points="181.08,330.9069,173.6047,324.4944,176.2899,329.4733,171.311,332.1585,181.08,330.9069" style="stroke:#181818;stroke-width:1;"/><text fill="#000000" font-family="sans-serif" font-size="13" lengthAdjust="spacing" textLength="132.3931" x="136" y="291.3638">publishDraftToKiwi()</text></g><!--link ManualKiwiService to DraftController--><g class="link" data-entity-1="ManualKiwiService" data-entity-2="DraftController" data-source-line="27" data-uid="lnk18" id="link_ManualKiwiService_DraftController"><path d="M284.5,325.2469 C301.78,303.4569 324.3418,275.028 341.6618,253.188" fill="none" id="ManualKiwiService-to-DraftController" style="stroke:#181818;stroke-width:1;"/><polygon fill="#181818" points="345.39,248.4869,336.6636,253.0531,342.2832,252.4045,342.9318,258.024,345.39,248.4869" style="stroke:#181818;stroke-width:1;"/><text fill="#000000" font-family="sans-serif" font-size="13" lengthAdjust="spacing" textLength="61.2358" x="322" y="291.3638">resultado</text></g><!--link ManualKiwiService to Login--><g class="link" data-entity-1="ManualKiwiService" data-entity-2="Login" data-source-line="23" data-uid="lnk14" id="link_ManualKiwiService_Login"><path d="M265.5,371.3569 C264.9,381.1369 264.29,392.7869 264,403.2969 C263.36,426.4269 264.1146,446.9068 265.1646,465.1168" fill="none" id="ManualKiwiService-to-Login" style="stroke:#181818;stroke-width:1;"/><polygon fill="#181818" points="265.51,471.1069,268.9853,461.8915,265.2222,466.1152,260.9985,462.3521,265.51,471.1069" style="stroke:#181818;stroke-width:1;"/><text fill="#000000" font-family="sans-serif" font-size="13" lengthAdjust="spacing" textLength="125.2329" x="265" y="416.3638">usuario/contrase&#241;a</text></g><!--link Login to ManualKiwiService--><g class="link" data-entity-1="Login" data-entity-2="ManualKiwiService" data-source-line="24" data-uid="lnk15" id="link_Login_ManualKiwiService"><path d="M322.78,478.4169 C367.11,463.6469 418.13,438.1569 395,403.2969 C384.87,388.0269 374.8945,379.6209 358.2445,371.7509" fill="none" id="Login-to-ManualKiwiService" style="stroke:#181818;stroke-width:1;"/><polygon fill="#181818" points="352.82,369.1869,359.2475,376.6493,357.3405,371.3236,362.6662,369.4166,352.82,369.1869" style="stroke:#181818;stroke-width:1;"/><text fill="#000000" font-family="sans-serif" font-size="13" lengthAdjust="spacing" textLength="108.0562" x="401" y="416.3638">cookie de sesi&#243;n</text></g><!--link ManualKiwiService to Create--><g class="link" data-entity-1="ManualKiwiService" data-entity-2="Create" data-source-line="25" data-uid="lnk16" id="link_ManualKiwiService_Create"><path d="M181.32,357.1769 C151.41,364.4869 120.68,378.1269 102,403.2969 C87.66,422.6269 88.6539,445.3873 92.6739,465.1473" fill="none" id="ManualKiwiService-to-Create" style="stroke:#181818;stroke-width:1;"/><polygon fill="#181818" points="93.87,471.0269,95.9955,461.4101,92.8732,466.1272,88.1561,463.005,93.87,471.0269" style="stroke:#181818;stroke-width:1;"/><text fill="#000000" font-family="sans-serif" font-size="13" lengthAdjust="spacing" textLength="152.9087" x="103" y="416.3638">summary, text, ids Kiwi</text></g><!--link Create to MariaDB--><g class="link" data-entity-1="Create" data-entity-2="MariaDB" data-source-line="26" data-uid="lnk17" id="link_Create_MariaDB"><path d="M100,517.5169 C100,539.1269 100,566.1069 100,590.0869" fill="none" id="Create-to-MariaDB" style="stroke:#181818;stroke-width:1;"/><polygon fill="#181818" points="100,596.0869,104,587.0869,100,591.0869,96,587.0869,100,596.0869" style="stroke:#181818;stroke-width:1;"/><text fill="#000000" font-family="sans-serif" font-size="13" lengthAdjust="spacing" textLength="129.4414" x="101" y="562.3638">persistencia interna</text></g><!--SRC=[VLB1JiCm3BtdAwoUG31wtm49oWMnYObDY0CNB_KsQrbInIbZGdmKuXFuCP9sAc9bt2BxFJ-_5ykQROKUDr2XNkEIfc5d23pfW7PfI4a7a1MMRijs2GiqGae53X4wSaksi8EgdXlMgFdhqm9PkECjmwmOJvLQH3f1XbMLmPi2q6vJEKism8t7HP17fcs_N3WRl3E6_A_U66sD9asVadzXJNscUkyqkotWQJmQF4oAmmsogpgiBamoaG5AQ-StOaOI2XIwq9umK0ChccSIAZ7WF7OX6wDdlBb-jfre0zsNbVen2uF1vQ596CBaVZg372lEomQQ3xdCcrnbfGxXtOX8D1GBS-Tz_27_9xANMcJj9pVmcKkzarFL1oPw-yb3gAMERbokq_He-ki3LTix9gATMpD1II0awJQEABI1HeBKcmtwtJa4UWtdmAKqfwJsW5QdIJHP82yiWQnc1BQ1lCKZ0lsuFKbjGepitsptAL49Px2ECzCbt9RV]--></g></svg>