<svg xmlns="http://www.w3.org/2000/svg" xmlns:xlink="http://www.w3.org/1999/xlink" contentStyleType="text/css" data-diagram-type="CLASS" height="1306px" preserveAspectRatio="none" style="width:2670px;height:1306px;background:#FFFFFF;" version="1.1" viewBox="0 0 2670 1306" width="2670px" zoomAndPan="magnify"><title>Estructura de paquetes MVC - app</title><defs/><g><g class="title" data-source-line="4"><text fill="#000000" font-family="sans-serif" font-size="14" font-weight="bold" lengthAdjust="spacing" textLength="270.4707" x="1192.7646" y="22.9951">Estructura de paquetes MVC - app</text></g><!--cluster app--><g class="cluster" data-entity="app" data-source-line="6" data-uid="ent0002" id="cluster_app"><rect fill="none" height="960" rx="2.5" ry="2.5" style="stroke:#000000;stroke-width:1.5;" width="2557" x="7" y="340.2969"/><text fill="#000000" font-family="sans-serif" font-size="14" font-weight="bold" lengthAdjust="spacing" textLength="29.4902" x="1270.7549" y="355.292">app</text></g><!--cluster Vista--><g class="cluster" data-entity="Vista" data-source-line="8" data-uid="ent0003" id="cluster_Vista"><rect fill="none" height="233" rx="2.5" ry="2.5" style="stroke:#000000;stroke-width:1.5;" width="402" x="2138" y="399.2969"/><text fill="#000000" font-family="sans-serif" font-size="14" font-weight="bold" lengthAdjust="spacing" textLength="40.1064" x="2318.9468" y="414.292">Vista</text></g><!--cluster public--><g class="cluster" data-entity="public" data-source-line="9" data-uid="ent0004" id="cluster_public"><rect fill="none" height="166" rx="2.5" ry="2.5" style="stroke:#000000;stroke-width:1.5;" width="354" x="2162" y="442.2969"/><text fill="#000000" font-family="sans-serif" font-size="14" font-weight="bold" lengthAdjust="spacing" textLength="47.9063" x="2315.0469" y="457.292">public</text></g><!--cluster index--><g class="cluster" data-entity="index" data-source-line="10" data-uid="ent0006" id="cluster_index"><rect fill="none" height="99" rx="2.5" ry="2.5" style="stroke:#000000;stroke-width:1.5;" width="96" x="2396" y="485.2969"/><text fill="#000000" font-family="sans-serif" font-size="14" font-weight="bold" lengthAdjust="spacing" textLength="43.3125" x="2422.3438" y="500.292">index</text></g><!--cluster css/app--><g class="cluster" data-entity="css.app" data-source-line="11" data-uid="ent0008" id="cluster_css.app"><rect fill="none" height="99" rx="2.5" ry="2.5" style="stroke:#000000;stroke-width:1.5;" width="86" x="2286" y="485.2969"/><text fill="#000000" font-family="sans-serif" font-size="14" font-weight="bold" lengthAdjust="spacing" textLength="59.5684" x="2299.2158" y="500.292">css/app</text></g><!--cluster js/app--><g class="cluster" data-entity="js.app" data-source-line="12" data-uid="ent0010" id="cluster_js.app"><rect fill="none" height="99" rx="2.5" ry="2.5" style="stroke:#000000;stroke-width:1.5;" width="76" x="2186" y="485.2969"/><text fill="#000000" font-family="sans-serif" font-size="14" font-weight="bold" lengthAdjust="spacing" textLength="47.7354" x="2200.1323" y="500.292">js/app</text></g><!--cluster Controlador--><g class="cluster" data-entity="Controlador" data-source-line="16" data-uid="ent0011" id="cluster_Controlador"><rect fill="none" height="265" rx="2.5" ry="2.5" style="stroke:#000000;stroke-width:1.5;" width="1729" x="385" y="383.2969"/><text fill="#000000" font-family="sans-serif" font-size="14" font-weight="bold" lengthAdjust="spacing" textLength="93.8643" x="1202.5679" y="398.292">Controlador</text></g><!--cluster src/routes--><g class="cluster" data-entity="src.routes" data-source-line="17" data-uid="ent0012" id="cluster_src.routes"><rect fill="none" height="166" rx="2.5" ry="2.5" style="stroke:#000000;stroke-width:1.5;" width="124" x="1966" y="442.2969"/><text fill="#000000" font-family="sans-serif" font-size="14" font-weight="bold" lengthAdjust="spacing" textLength="79.6592" x="1988.1704" y="457.292">src/routes</text></g><!--cluster index--><g class="cluster" data-entity="index" data-source-line="18" data-uid="ent0014" id="cluster_index"><rect fill="none" height="99" rx="2.5" ry="2.5" style="stroke:#000000;stroke-width:1.5;" width="76" x="1990" y="485.2969"/><text fill="#000000" font-family="sans-serif" font-size="14" font-weight="bold" lengthAdjust="spacing" textLength="43.3125" x="2006.3438" y="500.292">index</text></g><!--cluster src/controllers--><g class="cluster" data-entity="src.controllers" data-source-line="21" data-uid="ent0015" id="cluster_src.controllers"><rect fill="none" height="182" rx="2.5" ry="2.5" style="stroke:#000000;stroke-width:1.5;" width="1356" x="578" y="434.2969"/><text fill="#000000" font-family="sans-serif" font-size="14" font-weight="bold" lengthAdjust="spacing" textLength="114.0781" x="1198.9609" y="449.292">src/controllers</text></g><!--cluster authController--><g class="cluster" data-entity="authController" data-source-line="22" data-uid="ent0017" id="cluster_authController"><rect fill="none" height="99" rx="2.5" ry="2.5" style="stroke:#000000;stroke-width:1.5;" width="131" x="1771" y="485.2969"/><text fill="#000000" font-family="sans-serif" font-size="14" font-weight="bold" lengthAdjust="spacing" textLength="115.1445" x="1778.9277" y="500.292">authController</text></g><!--cluster sessionController--><g class="cluster" data-entity="sessionController" data-source-line="23" data-uid="ent0019" id="cluster_sessionController"><rect fill="none" height="99" rx="2.5" ry="2.5" style="stroke:#000000;stroke-width:1.5;" width="153" x="1594" y="485.2969"/><text fill="#000000" font-family="sans-serif" font-size="14" font-weight="bold" lengthAdjust="spacing" textLength="137.9492" x="1601.5254" y="500.292">sessionController</text></g><!--cluster documentationController--><g class="cluster" data-entity="documentationController" data-source-line="24" data-uid="ent0021" id="cluster_documentationController"><rect fill="none" height="99" rx="2.5" ry="2.5" style="stroke:#000000;stroke-width:1.5;" width="214" x="1356" y="485.2969"/><text fill="#000000" font-family="sans-serif" font-size="14" font-weight="bold" lengthAdjust="spacing" textLength="198.2422" x="1363.8789" y="500.292">documentationController</text></g><!--cluster useCaseController--><g class="cluster" data-entity="useCaseController" data-source-line="25" data-uid="ent0023" id="cluster_useCaseController"><rect fill="none" height="99" rx="2.5" ry="2.5" style="stroke:#000000;stroke-width:1.5;" width="160" x="1172" y="485.2969"/><text fill="#000000" font-family="sans-serif" font-size="14" font-weight="bold" lengthAdjust="spacing" textLength="144.416" x="1179.792" y="500.292">useCaseController</text></g><!--cluster requirementController--><g class="cluster" data-entity="requirementController" data-source-line="26" data-uid="ent0025" id="cluster_requirementController"><rect fill="none" height="99" rx="2.5" ry="2.5" style="stroke:#000000;stroke-width:1.5;" width="193" x="955" y="485.2969"/><text fill="#000000" font-family="sans-serif" font-size="14" font-weight="bold" lengthAdjust="spacing" textLength="177.3994" x="962.8003" y="500.292">requirementController</text></g><!--cluster gherkinController--><g class="cluster" data-entity="gherkinController" data-source-line="27" data-uid="ent0027" id="cluster_gherkinController"><rect fill="none" height="99" rx="2.5" ry="2.5" style="stroke:#000000;stroke-width:1.5;" width="155" x="776" y="485.2969"/><text fill="#000000" font-family="sans-serif" font-size="14" font-weight="bold" lengthAdjust="spacing" textLength="139.5352" x="783.7324" y="500.292">gherkinController</text></g><!--cluster draftController--><g class="cluster" data-entity="draftController" data-source-line="28" data-uid="ent0029" id="cluster_draftController"><rect fill="none" height="99" rx="2.5" ry="2.5" style="stroke:#000000;stroke-width:1.5;" width="134" x="618" y="485.2969"/><text fill="#000000" font-family="sans-serif" font-size="14" font-weight="bold" lengthAdjust="spacing" textLength="118.2275" x="625.8862" y="500.292">draftController</text></g><!--cluster src/middleware--><g class="cluster" data-entity="src.middleware" data-source-line="31" data-uid="ent0030" id="cluster_src.middleware"><rect fill="none" height="166" rx="2.5" ry="2.5" style="stroke:#000000;stroke-width:1.5;" width="137" x="409" y="442.2969"/><text fill="#000000" font-family="sans-serif" font-size="14" font-weight="bold" lengthAdjust="spacing" textLength="121.1533" x="416.9233" y="457.292">src/middleware</text></g><!--cluster auth--><g class="cluster" data-entity="auth" data-source-line="32" data-uid="ent0032" id="cluster_auth"><rect fill="none" height="99" rx="2.5" ry="2.5" style="stroke:#000000;stroke-width:1.5;" width="76" x="439" y="485.2969"/><text fill="#000000" font-family="sans-serif" font-size="14" font-weight="bold" lengthAdjust="spacing" textLength="36.0732" x="458.9634" y="500.292">auth</text></g><!--cluster Modelo--><g class="cluster" data-entity="Modelo" data-source-line="36" data-uid="ent0033" id="cluster_Modelo"><rect fill="none" height="265" rx="2.5" ry="2.5" style="stroke:#000000;stroke-width:1.5;" width="1073" x="545" y="1011.2969"/><text fill="#000000" font-family="sans-serif" font-size="14" font-weight="bold" lengthAdjust="spacing" textLength="57.4834" x="1052.7583" y="1026.292">Modelo</text></g><!--cluster src/models--><g class="cluster" data-entity="src.models" data-source-line="37" data-uid="ent0034" id="cluster_src.models"><rect fill="none" height="182" rx="2.5" ry="2.5" style="stroke:#000000;stroke-width:1.5;" width="1009" x="577" y="1062.2969"/><text fill="#000000" font-family="sans-serif" font-size="14" font-weight="bold" lengthAdjust="spacing" textLength="85.5039" x="1038.748" y="1077.292">src/models</text></g><!--cluster User--><g class="cluster" data-entity="User" data-source-line="38" data-uid="ent0036" id="cluster_User"><rect fill="none" height="99" rx="2.5" ry="2.5" style="stroke:#000000;stroke-width:1.5;" width="76" x="1478" y="1113.2969"/><text fill="#000000" font-family="sans-serif" font-size="14" font-weight="bold" lengthAdjust="spacing" textLength="36.1006" x="1497.9497" y="1128.292">User</text></g><!--cluster Session--><g class="cluster" data-entity="Session" data-source-line="39" data-uid="ent0038" id="cluster_Session"><rect fill="none" height="99" rx="2.5" ry="2.5" style="stroke:#000000;stroke-width:1.5;" width="76" x="1378" y="1113.2969"/><text fill="#000000" font-family="sans-serif" font-size="14" font-weight="bold" lengthAdjust="spacing" textLength="60.6279" x="1385.686" y="1128.292">Session</text></g><!--cluster Documentation--><g class="cluster" data-entity="Documentation" data-source-line="40" data-uid="ent0040" id="cluster_Documentation"><rect fill="none" height="99" rx="2.5" ry="2.5" style="stroke:#000000;stroke-width:1.5;" width="136" x="1218" y="1113.2969"/><text fill="#000000" font-family="sans-serif" font-size="14" font-weight="bold" lengthAdjust="spacing" textLength="120.7705" x="1225.6147" y="1128.292">Documentation</text></g><!--cluster UseCase--><g class="cluster" data-entity="UseCase" data-source-line="41" data-uid="ent0042" id="cluster_UseCase"><rect fill="none" height="99" rx="2.5" ry="2.5" style="stroke:#000000;stroke-width:1.5;" width="82" x="1112" y="1113.2969"/><text fill="#000000" font-family="sans-serif" font-size="14" font-weight="bold" lengthAdjust="spacing" textLength="66.7461" x="1119.627" y="1128.292">UseCase</text></g><!--cluster FunctionalRequirement--><g class="cluster" data-entity="FunctionalRequirement" data-source-line="42" data-uid="ent0044" id="cluster_FunctionalRequirement"><rect fill="none" height="99" rx="2.5" ry="2.5" style="stroke:#000000;stroke-width:1.5;" width="201" x="887" y="1113.2969"/><text fill="#000000" font-family="sans-serif" font-size="14" font-weight="bold" lengthAdjust="spacing" textLength="185.3223" x="894.8389" y="1128.292">FunctionalRequirement</text></g><!--cluster GherkinScenario--><g class="cluster" data-entity="GherkinScenario" data-source-line="43" data-uid="ent0046" id="cluster_GherkinScenario"><rect fill="none" height="99" rx="2.5" ry="2.5" style="stroke:#000000;stroke-width:1.5;" width="146" x="717" y="1113.2969"/><text fill="#000000" font-family="sans-serif" font-size="14" font-weight="bold" lengthAdjust="spacing" textLength="130.5459" x="724.7271" y="1128.292">GherkinScenario</text></g><!--cluster Draft--><g class="cluster" data-entity="Draft" data-source-line="44" data-uid="ent0048" id="cluster_Draft"><rect fill="none" height="99" rx="2.5" ry="2.5" style="stroke:#000000;stroke-width:1.5;" width="76" x="617" y="1113.2969"/><text fill="#000000" font-family="sans-serif" font-size="14" font-weight="bold" lengthAdjust="spacing" textLength="40.7559" x="634.6221" y="1128.292">Draft</text></g><!--cluster Servicios auxiliares--><g class="cluster" data-entity="Servicios auxiliares" data-source-line="48" data-uid="ent0049" id="cluster_Servicios auxiliares"><rect fill="none" height="265" rx="2.5" ry="2.5" style="stroke:#000000;stroke-width:1.5;" width="1326" x="637" y="697.2969"/><text fill="#000000" font-family="sans-serif" font-size="14" font-weight="bold" lengthAdjust="spacing" textLength="153.3506" x="1223.3247" y="712.292">Servicios auxiliares</text></g><!--cluster src/services--><g class="cluster" data-entity="src.services" data-source-line="49" data-uid="ent0050" id="cluster_src.services"><rect fill="none" height="182" rx="2.5" ry="2.5" style="stroke:#000000;stroke-width:1.5;" width="1262" x="669" y="748.2969"/><text fill="#000000" font-family="sans-serif" font-size="14" font-weight="bold" lengthAdjust="spacing" textLength="93.4336" x="1253.2832" y="763.292">src/services</text></g><!--cluster authService--><g class="cluster" data-entity="authService" data-source-line="50" data-uid="ent0052" id="cluster_authService"><rect fill="none" height="99" rx="2.5" ry="2.5" style="stroke:#000000;stroke-width:1.5;" width="110" x="1789" y="799.2969"/><text fill="#000000" font-family="sans-serif" font-size="14" font-weight="bold" lengthAdjust="spacing" textLength="94.2744" x="1796.8628" y="814.292">authService</text></g><!--cluster documentationService--><g class="cluster" data-entity="documentationService" data-source-line="51" data-uid="ent0054" id="cluster_documentationService"><rect fill="none" height="99" rx="2.5" ry="2.5" style="stroke:#000000;stroke-width:1.5;" width="193" x="1572" y="799.2969"/><text fill="#000000" font-family="sans-serif" font-size="14" font-weight="bold" lengthAdjust="spacing" textLength="177.3721" x="1579.814" y="814.292">documentationService</text></g><!--cluster gherkinService--><g class="cluster" data-entity="gherkinService" data-source-line="52" data-uid="ent0056" id="cluster_gherkinService"><rect fill="none" height="99" rx="2.5" ry="2.5" style="stroke:#000000;stroke-width:1.5;" width="134" x="1414" y="799.2969"/><text fill="#000000" font-family="sans-serif" font-size="14" font-weight="bold" lengthAdjust="spacing" textLength="118.665" x="1421.6675" y="814.292">gherkinService</text></g><!--cluster identifierService--><g class="cluster" data-entity="identifierService" data-source-line="53" data-uid="ent0058" id="cluster_identifierService"><rect fill="none" height="99" rx="2.5" ry="2.5" style="stroke:#000000;stroke-width:1.5;" width="147" x="1243" y="799.2969"/><text fill="#000000" font-family="sans-serif" font-size="14" font-weight="bold" lengthAdjust="spacing" textLength="131.2637" x="1250.8682" y="814.292">identifierService</text></g><!--cluster manualKiwiService--><g class="cluster" data-entity="manualKiwiService" data-source-line="54" data-uid="ent0060" id="cluster_manualKiwiService"><rect fill="none" height="99" rx="2.5" ry="2.5" style="stroke:#000000;stroke-width:1.5;" width="165" x="1054" y="799.2969"/><text fill="#000000" font-family="sans-serif" font-size="14" font-weight="bold" lengthAdjust="spacing" textLength="149.7959" x="1061.6021" y="814.292">manualKiwiService</text></g><!--cluster sessionService--><g class="cluster" data-entity="sessionService" data-source-line="55" data-uid="ent0062" id="cluster_sessionService"><rect fill="none" height="99" rx="2.5" ry="2.5" style="stroke:#000000;stroke-width:1.5;" width="133" x="897" y="799.2969"/><text fill="#000000" font-family="sans-serif" font-size="14" font-weight="bold" lengthAdjust="spacing" textLength="117.0791" x="904.9604" y="814.292">sessionService</text></g><!--cluster traceabilityService--><g class="cluster" data-entity="traceabilityService" data-source-line="56" data-uid="ent0064" id="cluster_traceabilityService"><rect fill="none" height="99" rx="2.5" ry="2.5" style="stroke:#000000;stroke-width:1.5;" width="164" x="709" y="799.2969"/><text fill="#000000" font-family="sans-serif" font-size="14" font-weight="bold" lengthAdjust="spacing" textLength="148.7227" x="716.6387" y="814.292">traceabilityService</text></g><!--cluster Configuraci?n--><g class="cluster" data-entity="Configuraci.n" data-source-line="60" data-uid="ent0065" id="cluster_Configuraci.n"><rect fill="none" height="233" rx="2.5" ry="2.5" style="stroke:#000000;stroke-width:1.5;" width="330" x="31" y="399.2969"/><text fill="#000000" font-family="sans-serif" font-size="14" font-weight="bold" lengthAdjust="spacing" textLength="109.7715" x="141.1143" y="414.292">Configuraci&#243;n</text></g><!--cluster src/config--><g class="cluster" data-entity="src.config" data-source-line="61" data-uid="ent0066" id="cluster_src.config"><rect fill="none" height="166" rx="2.5" ry="2.5" style="stroke:#000000;stroke-width:1.5;" width="282" x="55" y="442.2969"/><text fill="#000000" font-family="sans-serif" font-size="14" font-weight="bold" lengthAdjust="spacing" textLength="77.4443" x="157.2778" y="457.292">src/config</text></g><!--cluster db--><g class="cluster" data-entity="db" data-source-line="62" data-uid="ent0068" id="cluster_db"><rect fill="none" height="99" rx="2.5" ry="2.5" style="stroke:#000000;stroke-width:1.5;" width="76" x="237" y="485.2969"/><text fill="#000000" font-family="sans-serif" font-size="14" font-weight="bold" lengthAdjust="spacing" textLength="20.043" x="264.9785" y="500.292">db</text></g><!--cluster loadSharedEnv--><g class="cluster" data-entity="loadSharedEnv" data-source-line="63" data-uid="ent0070" id="cluster_loadSharedEnv"><rect fill="none" height="99" rx="2.5" ry="2.5" style="stroke:#000000;stroke-width:1.5;" width="134" x="79" y="485.2969"/><text fill="#000000" font-family="sans-serif" font-size="14" font-weight="bold" lengthAdjust="spacing" textLength="118.46" x="86.77" y="500.292">loadSharedEnv</text></g><!--cluster public/js/app--><g class="cluster" data-entity="public.js.app" data-source-line="68" data-uid="ent0072" id="cluster_public.js.app"><rect fill="none" height="99" rx="2.5" ry="2.5" style="stroke:#000000;stroke-width:1.5;" width="116" x="1773" y="44.2969"/><text fill="#000000" font-family="sans-serif" font-size="14" font-weight="bold" lengthAdjust="spacing" textLength="100.7549" x="1780.6226" y="59.292">public/js/app</text></g><!--cluster index--><g class="cluster" data-entity="index" data-source-line="68" data-uid="ent0073" id="cluster_index"><rect fill="none" height="99" rx="2.5" ry="2.5" style="stroke:#000000;stroke-width:1.5;" width="76" x="1793" y="192.2969"/><text fill="#000000" font-family="sans-serif" font-size="14" font-weight="bold" lengthAdjust="spacing" textLength="43.3125" x="1809.3438" y="207.292">index</text></g><!--cluster auth--><g class="cluster" data-entity="auth" data-source-line="69" data-uid="ent0077" id="cluster_auth"><rect fill="none" height="99" rx="2.5" ry="2.5" style="stroke:#000000;stroke-width:1.5;" width="76" x="2588" y="485.2969"/><text fill="#000000" font-family="sans-serif" font-size="14" font-weight="bold" lengthAdjust="spacing" textLength="36.0732" x="2607.9634" y="500.292">auth</text></g><!--cluster manualKiwiService--><g class="cluster" data-entity="manualKiwiService" data-source-line="74" data-uid="ent0084" id="cluster_manualKiwiService"><rect fill="none" height="99" rx="2.5" ry="2.5" style="stroke:#000000;stroke-width:1.5;" width="165" x="1343" y="44.2969"/><text fill="#000000" font-family="sans-serif" font-size="14" font-weight="bold" lengthAdjust="spacing" textLength="149.7959" x="1350.6021" y="59.292">manualKiwiService</text></g><!--class html--><g class="entity" data-entity="html" data-source-line="10" data-uid="ent0005" id="entity_html"><rect fill="#F1F1F1" height="48" rx="2.5" ry="2.5" style="stroke:#181818;stroke-width:0.5;" width="63.8896" x="2412" y="520.2969"/><ellipse cx="2427" cy="536.2969" fill="#ADD1B2" rx="11" ry="11" style="stroke:#181818;stroke-width:1;"/><path d="M2429.9688,541.9375 Q2429.3906,542.2344 2428.75,542.375 Q2428.1094,542.5313 2427.4063,542.5313 Q2424.9063,542.5313 2423.5781,540.8906 Q2422.2656,539.2344 2422.2656,536.1094 Q2422.2656,532.9844 2423.5781,531.3281 Q2424.9063,529.6719 2427.4063,529.6719 Q2428.1094,529.6719 2428.75,529.8281 Q2429.4063,529.9844 2429.9688,530.2813 L2429.9688,533 Q2429.3438,532.4219 2428.75,532.1563 Q2428.1563,531.875 2427.5313,531.875 Q2426.1875,531.875 2425.5,532.9531 Q2424.8125,534.0156 2424.8125,536.1094 Q2424.8125,538.2031 2425.5,539.2813 Q2426.1875,540.3438 2427.5313,540.3438 Q2428.1563,540.3438 2428.75,540.0781 Q2429.3438,539.7969 2429.9688,539.2188 L2429.9688,541.9375 Z " fill="#000000"/><text fill="#000000" font-family="sans-serif" font-size="14" lengthAdjust="spacing" textLength="31.8896" x="2441" y="541.1436">html</text><line style="stroke:#181818;stroke-width:0.5;" x1="2413" x2="2474.8896" y1="552.2969" y2="552.2969"/><line style="stroke:#181818;stroke-width:0.5;" x1="2413" x2="2474.8896" y1="560.2969" y2="560.2969"/></g><!--class css--><g class="entity" data-entity="css" data-source-line="11" data-uid="ent0007" id="entity_css"><rect fill="#F1F1F1" height="48" rx="2.5" ry="2.5" style="stroke:#181818;stroke-width:0.5;" width="54.2852" x="2302" y="520.2969"/><ellipse cx="2317" cy="536.2969" fill="#ADD1B2" rx="11" ry="11" style="stroke:#181818;stroke-width:1;"/><path d="M2319.9688,541.9375 Q2319.3906,542.2344 2318.75,542.375 Q2318.1094,542.5313 2317.4063,542.5313 Q2314.9063,542.5313 2313.5781,540.8906 Q2312.2656,539.2344 2312.2656,536.1094 Q2312.2656,532.9844 2313.5781,531.3281 Q2314.9063,529.6719 2317.4063,529.6719 Q2318.1094,529.6719 2318.75,529.8281 Q2319.4063,529.9844 2319.9688,530.2813 L2319.9688,533 Q2319.3438,532.4219 2318.75,532.1563 Q2318.1563,531.875 2317.5313,531.875 Q2316.1875,531.875 2315.5,532.9531 Q2314.8125,534.0156 2314.8125,536.1094 Q2314.8125,538.2031 2315.5,539.2813 Q2316.1875,540.3438 2317.5313,540.3438 Q2318.1563,540.3438 2318.75,540.0781 Q2319.3438,539.7969 2319.9688,539.2188 L2319.9688,541.9375 Z " fill="#000000"/><text fill="#000000" font-family="sans-serif" font-size="14" lengthAdjust="spacing" textLength="22.2852" x="2331" y="541.1436">css</text><line style="stroke:#181818;stroke-width:0.5;" x1="2303" x2="2355.2852" y1="552.2969" y2="552.2969"/><line style="stroke:#181818;stroke-width:0.5;" x1="2303" x2="2355.2852" y1="560.2969" y2="560.2969"/></g><!--class js--><g class="entity" data-entity="js" data-source-line="12" data-uid="ent0009" id="entity_js"><rect fill="#F1F1F1" height="48" rx="2.5" ry="2.5" style="stroke:#181818;stroke-width:0.5;" width="43.1836" x="2202.5" y="520.2969"/><ellipse cx="2217.5" cy="536.2969" fill="#ADD1B2" rx="11" ry="11" style="stroke:#181818;stroke-width:1;"/><path d="M2220.4688,541.9375 Q2219.8906,542.2344 2219.25,542.375 Q2218.6094,542.5313 2217.9063,542.5313 Q2215.4063,542.5313 2214.0781,540.8906 Q2212.7656,539.2344 2212.7656,536.1094 Q2212.7656,532.9844 2214.0781,531.3281 Q2215.4063,529.6719 2217.9063,529.6719 Q2218.6094,529.6719 2219.25,529.8281 Q2219.9063,529.9844 2220.4688,530.2813 L2220.4688,533 Q2219.8438,532.4219 2219.25,532.1563 Q2218.6563,531.875 2218.0313,531.875 Q2216.6875,531.875 2216,532.9531 Q2215.3125,534.0156 2215.3125,536.1094 Q2215.3125,538.2031 2216,539.2813 Q2216.6875,540.3438 2218.0313,540.3438 Q2218.6563,540.3438 2219.25,540.0781 Q2219.8438,539.7969 2220.4688,539.2188 L2220.4688,541.9375 Z " fill="#000000"/><text fill="#000000" font-family="sans-serif" font-size="14" lengthAdjust="spacing" textLength="11.1836" x="2231.5" y="541.1436">js</text><line style="stroke:#181818;stroke-width:0.5;" x1="2203.5" x2="2244.6836" y1="552.2969" y2="552.2969"/><line style="stroke:#181818;stroke-width:0.5;" x1="2203.5" x2="2244.6836" y1="560.2969" y2="560.2969"/></g><!--class js--><g class="entity" data-entity="js" data-source-line="18" data-uid="ent0013" id="entity_js"><rect fill="#F1F1F1" height="48" rx="2.5" ry="2.5" style="stroke:#181818;stroke-width:0.5;" width="43.1836" x="2006.5" y="520.2969"/><ellipse cx="2021.5" cy="536.2969" fill="#ADD1B2" rx="11" ry="11" style="stroke:#181818;stroke-width:1;"/><path d="M2024.4688,541.9375 Q2023.8906,542.2344 2023.25,542.375 Q2022.6094,542.5313 2021.9063,542.5313 Q2019.4063,542.5313 2018.0781,540.8906 Q2016.7656,539.2344 2016.7656,536.1094 Q2016.7656,532.9844 2018.0781,531.3281 Q2019.4063,529.6719 2021.9063,529.6719 Q2022.6094,529.6719 2023.25,529.8281 Q2023.9063,529.9844 2024.4688,530.2813 L2024.4688,533 Q2023.8438,532.4219 2023.25,532.1563 Q2022.6563,531.875 2022.0313,531.875 Q2020.6875,531.875 2020,532.9531 Q2019.3125,534.0156 2019.3125,536.1094 Q2019.3125,538.2031 2020,539.2813 Q2020.6875,540.3438 2022.0313,540.3438 Q2022.6563,540.3438 2023.25,540.0781 Q2023.8438,539.7969 2024.4688,539.2188 L2024.4688,541.9375 Z " fill="#000000"/><text fill="#000000" font-family="sans-serif" font-size="14" lengthAdjust="spacing" textLength="11.1836" x="2035.5" y="541.1436">js</text><line style="stroke:#181818;stroke-width:0.5;" x1="2007.5" x2="2048.6836" y1="552.2969" y2="552.2969"/><line style="stroke:#181818;stroke-width:0.5;" x1="2007.5" x2="2048.6836" y1="560.2969" y2="560.2969"/></g><!--class js--><g class="entity" data-entity="js" data-source-line="22" data-uid="ent0016" id="entity_js"><rect fill="#F1F1F1" height="48" rx="2.5" ry="2.5" style="stroke:#181818;stroke-width:0.5;" width="43.1836" x="1814.5" y="520.2969"/><ellipse cx="1829.5" cy="536.2969" fill="#ADD1B2" rx="11" ry="11" style="stroke:#181818;stroke-width:1;"/><path d="M1832.4688,541.9375 Q1831.8906,542.2344 1831.25,542.375 Q1830.6094,542.5313 1829.9063,542.5313 Q1827.4063,542.5313 1826.0781,540.8906 Q1824.7656,539.2344 1824.7656,536.1094 Q1824.7656,532.9844 1826.0781,531.3281 Q1827.4063,529.6719 1829.9063,529.6719 Q1830.6094,529.6719 1831.25,529.8281 Q1831.9063,529.9844 1832.4688,530.2813 L1832.4688,533 Q1831.8438,532.4219 1831.25,532.1563 Q1830.6563,531.875 1830.0313,531.875 Q1828.6875,531.875 1828,532.9531 Q1827.3125,534.0156 1827.3125,536.1094 Q1827.3125,538.2031 1828,539.2813 Q1828.6875,540.3438 1830.0313,540.3438 Q1830.6563,540.3438 1831.25,540.0781 Q1831.8438,539.7969 1832.4688,539.2188 L1832.4688,541.9375 Z " fill="#000000"/><text fill="#000000" font-family="sans-serif" font-size="14" lengthAdjust="spacing" textLength="11.1836" x="1843.5" y="541.1436">js</text><line style="stroke:#181818;stroke-width:0.5;" x1="1815.5" x2="1856.6836" y1="552.2969" y2="552.2969"/><line style="stroke:#181818;stroke-width:0.5;" x1="1815.5" x2="1856.6836" y1="560.2969" y2="560.2969"/></g><!--class js--><g class="entity" data-entity="js" data-source-line="23" data-uid="ent0018" id="entity_js"><rect fill="#F1F1F1" height="48" rx="2.5" ry="2.5" style="stroke:#181818;stroke-width:0.5;" width="43.1836" x="1648.5" y="520.2969"/><ellipse cx="1663.5" cy="536.2969" fill="#ADD1B2" rx="11" ry="11" style="stroke:#181818;stroke-width:1;"/><path d="M1666.4688,541.9375 Q1665.8906,542.2344 1665.25,542.375 Q1664.6094,542.5313 1663.9063,542.5313 Q1661.4063,542.5313 1660.0781,540.8906 Q1658.7656,539.2344 1658.7656,536.1094 Q1658.7656,532.9844 1660.0781,531.3281 Q1661.4063,529.6719 1663.9063,529.6719 Q1664.6094,529.6719 1665.25,529.8281 Q1665.9063,529.9844 1666.4688,530.2813 L1666.4688,533 Q1665.8438,532.4219 1665.25,532.1563 Q1664.6563,531.875 1664.0313,531.875 Q1662.6875,531.875 1662,532.9531 Q1661.3125,534.0156 1661.3125,536.1094 Q1661.3125,538.2031 1662,539.2813 Q1662.6875,540.3438 1664.0313,540.3438 Q1664.6563,540.3438 1665.25,540.0781 Q1665.8438,539.7969 1666.4688,539.2188 L1666.4688,541.9375 Z " fill="#000000"/><text fill="#000000" font-family="sans-serif" font-size="14" lengthAdjust="spacing" textLength="11.1836" x="1677.5" y="541.1436">js</text><line style="stroke:#181818;stroke-width:0.5;" x1="1649.5" x2="1690.6836" y1="552.2969" y2="552.2969"/><line style="stroke:#181818;stroke-width:0.5;" x1="1649.5" x2="1690.6836" y1="560.2969" y2="560.2969"/></g><!--class js--><g class="entity" data-entity="js" data-source-line="24" data-uid="ent0020" id="entity_js"><rect fill="#F1F1F1" height="48" rx="2.5" ry="2.5" style="stroke:#181818;stroke-width:0.5;" width="43.1836" x="1441.5" y="520.2969"/><ellipse cx="1456.5" cy="536.2969" fill="#ADD1B2" rx="11" ry="11" style="stroke:#181818;stroke-width:1;"/><path d="M1459.4688,541.9375 Q1458.8906,542.2344 1458.25,542.375 Q1457.6094,542.5313 1456.9063,542.5313 Q1454.4063,542.5313 1453.0781,540.8906 Q1451.7656,539.2344 1451.7656,536.1094 Q1451.7656,532.9844 1453.0781,531.3281 Q1454.4063,529.6719 1456.9063,529.6719 Q1457.6094,529.6719 1458.25,529.8281 Q1458.9063,529.9844 1459.4688,530.2813 L1459.4688,533 Q1458.8438,532.4219 1458.25,532.1563 Q1457.6563,531.875 1457.0313,531.875 Q1455.6875,531.875 1455,532.9531 Q1454.3125,534.0156 1454.3125,536.1094 Q1454.3125,538.2031 1455,539.2813 Q1455.6875,540.3438 1457.0313,540.3438 Q1457.6563,540.3438 1458.25,540.0781 Q1458.8438,539.7969 1459.4688,539.2188 L1459.4688,541.9375 Z " fill="#000000"/><text fill="#000000" font-family="sans-serif" font-size="14" lengthAdjust="spacing" textLength="11.1836" x="1470.5" y="541.1436">js</text><line style="stroke:#181818;stroke-width:0.5;" x1="1442.5" x2="1483.6836" y1="552.2969" y2="552.2969"/><line style="stroke:#181818;stroke-width:0.5;" x1="1442.5" x2="1483.6836" y1="560.2969" y2="560.2969"/></g><!--class js--><g class="entity" data-entity="js" data-source-line="25" data-uid="ent0022" id="entity_js"><rect fill="#F1F1F1" height="48" rx="2.5" ry="2.5" style="stroke:#181818;stroke-width:0.5;" width="43.1836" x="1230.5" y="520.2969"/><ellipse cx="1245.5" cy="536.2969" fill="#ADD1B2" rx="11" ry="11" style="stroke:#181818;stroke-width:1;"/><path d="M1248.4688,541.9375 Q1247.8906,542.2344 1247.25,542.375 Q1246.6094,542.5313 1245.9063,542.5313 Q1243.4063,542.5313 1242.0781,540.8906 Q1240.7656,539.2344 1240.7656,536.1094 Q1240.7656,532.9844 1242.0781,531.3281 Q1243.4063,529.6719 1245.9063,529.6719 Q1246.6094,529.6719 1247.25,529.8281 Q1247.9063,529.9844 1248.4688,530.2813 L1248.4688,533 Q1247.8438,532.4219 1247.25,532.1563 Q1246.6563,531.875 1246.0313,531.875 Q1244.6875,531.875 1244,532.9531 Q1243.3125,534.0156 1243.3125,536.1094 Q1243.3125,538.2031 1244,539.2813 Q1244.6875,540.3438 1246.0313,540.3438 Q1246.6563,540.3438 1247.25,540.0781 Q1247.8438,539.7969 1248.4688,539.2188 L1248.4688,541.9375 Z " fill="#000000"/><text fill="#000000" font-family="sans-serif" font-size="14" lengthAdjust="spacing" textLength="11.1836" x="1259.5" y="541.1436">js</text><line style="stroke:#181818;stroke-width:0.5;" x1="1231.5" x2="1272.6836" y1="552.2969" y2="552.2969"/><line style="stroke:#181818;stroke-width:0.5;" x1="1231.5" x2="1272.6836" y1="560.2969" y2="560.2969"/></g><!--class js--><g class="entity" data-entity="js" data-source-line="26" data-uid="ent0024" id="entity_js"><rect fill="#F1F1F1" height="48" rx="2.5" ry="2.5" style="stroke:#181818;stroke-width:0.5;" width="43.1836" x="1029.5" y="520.2969"/><ellipse cx="1044.5" cy="536.2969" fill="#ADD1B2" rx="11" ry="11" style="stroke:#181818;stroke-width:1;"/><path d="M1047.4688,541.9375 Q1046.8906,542.2344 1046.25,542.375 Q1045.6094,542.5313 1044.9063,542.5313 Q1042.4063,542.5313 1041.0781,540.8906 Q1039.7656,539.2344 1039.7656,536.1094 Q1039.7656,532.9844 1041.0781,531.3281 Q1042.4063,529.6719 1044.9063,529.6719 Q1045.6094,529.6719 1046.25,529.8281 Q1046.9063,529.9844 1047.4688,530.2813 L1047.4688,533 Q1046.8438,532.4219 1046.25,532.1563 Q1045.6563,531.875 1045.0313,531.875 Q1043.6875,531.875 1043,532.9531 Q1042.3125,534.0156 1042.3125,536.1094 Q1042.3125,538.2031 1043,539.2813 Q1043.6875,540.3438 1045.0313,540.3438 Q1045.6563,540.3438 1046.25,540.0781 Q1046.8438,539.7969 1047.4688,539.2188 L1047.4688,541.9375 Z " fill="#000000"/><text fill="#000000" font-family="sans-serif" font-size="14" lengthAdjust="spacing" textLength="11.1836" x="1058.5" y="541.1436">js</text><line style="stroke:#181818;stroke-width:0.5;" x1="1030.5" x2="1071.6836" y1="552.2969" y2="552.2969"/><line style="stroke:#181818;stroke-width:0.5;" x1="1030.5" x2="1071.6836" y1="560.2969" y2="560.2969"/></g><!--class js--><g class="entity" data-entity="js" data-source-line="27" data-uid="ent0026" id="entity_js"><rect fill="#F1F1F1" height="48" rx="2.5" ry="2.5" style="stroke:#181818;stroke-width:0.5;" width="43.1836" x="831.5" y="520.2969"/><ellipse cx="846.5" cy="536.2969" fill="#ADD1B2" rx="11" ry="11" style="stroke:#181818;stroke-width:1;"/><path d="M849.4688,541.9375 Q848.8906,542.2344 848.25,542.375 Q847.6094,542.5313 846.9063,542.5313 Q844.4063,542.5313 843.0781,540.8906 Q841.7656,539.2344 841.7656,536.1094 Q841.7656,532.9844 843.0781,531.3281 Q844.4063,529.6719 846.9063,529.6719 Q847.6094,529.6719 848.25,529.8281 Q848.9063,529.9844 849.4688,530.2813 L849.4688,533 Q848.8438,532.4219 848.25,532.1563 Q847.6563,531.875 847.0313,531.875 Q845.6875,531.875 845,532.9531 Q844.3125,534.0156 844.3125,536.1094 Q844.3125,538.2031 845,539.2813 Q845.6875,540.3438 847.0313,540.3438 Q847.6563,540.3438 848.25,540.0781 Q848.8438,539.7969 849.4688,539.2188 L849.4688,541.9375 Z " fill="#000000"/><text fill="#000000" font-family="sans-serif" font-size="14" lengthAdjust="spacing" textLength="11.1836" x="860.5" y="541.1436">js</text><line style="stroke:#181818;stroke-width:0.5;" x1="832.5" x2="873.6836" y1="552.2969" y2="552.2969"/><line style="stroke:#181818;stroke-width:0.5;" x1="832.5" x2="873.6836" y1="560.2969" y2="560.2969"/></g><!--class js--><g class="entity" data-entity="js" data-source-line="28" data-uid="ent0028" id="entity_js"><rect fill="#F1F1F1" height="48" rx="2.5" ry="2.5" style="stroke:#181818;stroke-width:0.5;" width="43.1836" x="663.5" y="520.2969"/><ellipse cx="678.5" cy="536.2969" fill="#ADD1B2" rx="11" ry="11" style="stroke:#181818;stroke-width:1;"/><path d="M681.4688,541.9375 Q680.8906,542.2344 680.25,542.375 Q679.6094,542.5313 678.9063,542.5313 Q676.4063,542.5313 675.0781,540.8906 Q673.7656,539.2344 673.7656,536.1094 Q673.7656,532.9844 675.0781,531.3281 Q676.4063,529.6719 678.9063,529.6719 Q679.6094,529.6719 680.25,529.8281 Q680.9063,529.9844 681.4688,530.2813 L681.4688,533 Q680.8438,532.4219 680.25,532.1563 Q679.6563,531.875 679.0313,531.875 Q677.6875,531.875 677,532.9531 Q676.3125,534.0156 676.3125,536.1094 Q676.3125,538.2031 677,539.2813 Q677.6875,540.3438 679.0313,540.3438 Q679.6563,540.3438 680.25,540.0781 Q680.8438,539.7969 681.4688,539.2188 L681.4688,541.9375 Z " fill="#000000"/><text fill="#000000" font-family="sans-serif" font-size="14" lengthAdjust="spacing" textLength="11.1836" x="692.5" y="541.1436">js</text><line style="stroke:#181818;stroke-width:0.5;" x1="664.5" x2="705.6836" y1="552.2969" y2="552.2969"/><line style="stroke:#181818;stroke-width:0.5;" x1="664.5" x2="705.6836" y1="560.2969" y2="560.2969"/></g><!--class js--><g class="entity" data-entity="js" data-source-line="32" data-uid="ent0031" id="entity_js"><rect fill="#F1F1F1" height="48" rx="2.5" ry="2.5" style="stroke:#181818;stroke-width:0.5;" width="43.1836" x="455.5" y="520.2969"/><ellipse cx="470.5" cy="536.2969" fill="#ADD1B2" rx="11" ry="11" style="stroke:#181818;stroke-width:1;"/><path d="M473.4688,541.9375 Q472.8906,542.2344 472.25,542.375 Q471.6094,542.5313 470.9063,542.5313 Q468.4063,542.5313 467.0781,540.8906 Q465.7656,539.2344 465.7656,536.1094 Q465.7656,532.9844 467.0781,531.3281 Q468.4063,529.6719 470.9063,529.6719 Q471.6094,529.6719 472.25,529.8281 Q472.9063,529.9844 473.4688,530.2813 L473.4688,533 Q472.8438,532.4219 472.25,532.1563 Q471.6563,531.875 471.0313,531.875 Q469.6875,531.875 469,532.9531 Q468.3125,534.0156 468.3125,536.1094 Q468.3125,538.2031 469,539.2813 Q469.6875,540.3438 471.0313,540.3438 Q471.6563,540.3438 472.25,540.0781 Q472.8438,539.7969 473.4688,539.2188 L473.4688,541.9375 Z " fill="#000000"/><text fill="#000000" font-family="sans-serif" font-size="14" lengthAdjust="spacing" textLength="11.1836" x="484.5" y="541.1436">js</text><line style="stroke:#181818;stroke-width:0.5;" x1="456.5" x2="497.6836" y1="552.2969" y2="552.2969"/><line style="stroke:#181818;stroke-width:0.5;" x1="456.5" x2="497.6836" y1="560.2969" y2="560.2969"/></g><!--class js--><g class="entity" data-entity="js" data-source-line="38" data-uid="ent0035" id="entity_js"><rect fill="#F1F1F1" height="48" rx="2.5" ry="2.5" style="stroke:#181818;stroke-width:0.5;" width="43.1836" x="1494.5" y="1148.2969"/><ellipse cx="1509.5" cy="1164.2969" fill="#ADD1B2" rx="11" ry="11" style="stroke:#181818;stroke-width:1;"/><path d="M1512.4688,1169.9375 Q1511.8906,1170.2344 1511.25,1170.375 Q1510.6094,1170.5313 1509.9063,1170.5313 Q1507.4063,1170.5313 1506.0781,1168.8906 Q1504.7656,1167.2344 1504.7656,1164.1094 Q1504.7656,1160.9844 1506.0781,1159.3281 Q1507.4063,1157.6719 1509.9063,1157.6719 Q1510.6094,1157.6719 1511.25,1157.8281 Q1511.9063,1157.9844 1512.4688,1158.2813 L1512.4688,1161 Q1511.8438,1160.4219 1511.25,1160.1563 Q1510.6563,1159.875 1510.0313,1159.875 Q1508.6875,1159.875 1508,1160.9531 Q1507.3125,1162.0156 1507.3125,1164.1094 Q1507.3125,1166.2031 1508,1167.2813 Q1508.6875,1168.3438 1510.0313,1168.3438 Q1510.6563,1168.3438 1511.25,1168.0781 Q1511.8438,1167.7969 1512.4688,1167.2188 L1512.4688,1169.9375 Z " fill="#000000"/><text fill="#000000" font-family="sans-serif" font-size="14" lengthAdjust="spacing" textLength="11.1836" x="1523.5" y="1169.1436">js</text><line style="stroke:#181818;stroke-width:0.5;" x1="1495.5" x2="1536.6836" y1="1180.2969" y2="1180.2969"/><line style="stroke:#181818;stroke-width:0.5;" x1="1495.5" x2="1536.6836" y1="1188.2969" y2="1188.2969"/></g><!--class js--><g class="entity" data-entity="js" data-source-line="39" data-uid="ent0037" id="entity_js"><rect fill="#F1F1F1" height="48" rx="2.5" ry="2.5" style="stroke:#181818;stroke-width:0.5;" width="43.1836" x="1394.5" y="1148.2969"/><ellipse cx="1409.5" cy="1164.2969" fill="#ADD1B2" rx="11" ry="11" style="stroke:#181818;stroke-width:1;"/><path d="M1412.4688,1169.9375 Q1411.8906,1170.2344 1411.25,1170.375 Q1410.6094,1170.5313 1409.9063,1170.5313 Q1407.4063,1170.5313 1406.0781,1168.8906 Q1404.7656,1167.2344 1404.7656,1164.1094 Q1404.7656,1160.9844 1406.0781,1159.3281 Q1407.4063,1157.6719 1409.9063,1157.6719 Q1410.6094,1157.6719 1411.25,1157.8281 Q1411.9063,1157.9844 1412.4688,1158.2813 L1412.4688,1161 Q1411.8438,1160.4219 1411.25,1160.1563 Q1410.6563,1159.875 1410.0313,1159.875 Q1408.6875,1159.875 1408,1160.9531 Q1407.3125,1162.0156 1407.3125,1164.1094 Q1407.3125,1166.2031 1408,1167.2813 Q1408.6875,1168.3438 1410.0313,1168.3438 Q1410.6563,1168.3438 1411.25,1168.0781 Q1411.8438,1167.7969 1412.4688,1167.2188 L1412.4688,1169.9375 Z " fill="#000000"/><text fill="#000000" font-family="sans-serif" font-size="14" lengthAdjust="spacing" textLength="11.1836" x="1423.5" y="1169.1436">js</text><line style="stroke:#181818;stroke-width:0.5;" x1="1395.5" x2="1436.6836" y1="1180.2969" y2="1180.2969"/><line style="stroke:#181818;stroke-width:0.5;" x1="1395.5" x2="1436.6836" y1="1188.2969" y2="1188.2969"/></g><!--class js--><g class="entity" data-entity="js" data-source-line="40" data-uid="ent0039" id="entity_js"><rect fill="#F1F1F1" height="48" rx="2.5" ry="2.5" style="stroke:#181818;stroke-width:0.5;" width="43.1836" x="1264.5" y="1148.2969"/><ellipse cx="1279.5" cy="1164.2969" fill="#ADD1B2" rx="11" ry="11" style="stroke:#181818;stroke-width:1;"/><path d="M1282.4688,1169.9375 Q1281.8906,1170.2344 1281.25,1170.375 Q1280.6094,1170.5313 1279.9063,1170.5313 Q1277.4063,1170.5313 1276.0781,1168.8906 Q1274.7656,1167.2344 1274.7656,1164.1094 Q1274.7656,1160.9844 1276.0781,1159.3281 Q1277.4063,1157.6719 1279.9063,1157.6719 Q1280.6094,1157.6719 1281.25,1157.8281 Q1281.9063,1157.9844 1282.4688,1158.2813 L1282.4688,1161 Q1281.8438,1160.4219 1281.25,1160.1563 Q1280.6563,1159.875 1280.0313,1159.875 Q1278.6875,1159.875 1278,1160.9531 Q1277.3125,1162.0156 1277.3125,1164.1094 Q1277.3125,1166.2031 1278,1167.2813 Q1278.6875,1168.3438 1280.0313,1168.3438 Q1280.6563,1168.3438 1281.25,1168.0781 Q1281.8438,1167.7969 1282.4688,1167.2188 L1282.4688,1169.9375 Z " fill="#000000"/><text fill="#000000" font-family="sans-serif" font-size="14" lengthAdjust="spacing" textLength="11.1836" x="1293.5" y="1169.1436">js</text><line style="stroke:#181818;stroke-width:0.5;" x1="1265.5" x2="1306.6836" y1="1180.2969" y2="1180.2969"/><line style="stroke:#181818;stroke-width:0.5;" x1="1265.5" x2="1306.6836" y1="1188.2969" y2="1188.2969"/></g><!--class js--><g class="entity" data-entity="js" data-source-line="41" data-uid="ent0041" id="entity_js"><rect fill="#F1F1F1" height="48" rx="2.5" ry="2.5" style="stroke:#181818;stroke-width:0.5;" width="43.1836" x="1131.5" y="1148.2969"/><ellipse cx="1146.5" cy="1164.2969" fill="#ADD1B2" rx="11" ry="11" style="stroke:#181818;stroke-width:1;"/><path d="M1149.4688,1169.9375 Q1148.8906,1170.2344 1148.25,1170.375 Q1147.6094,1170.5313 1146.9063,1170.5313 Q1144.4063,1170.5313 1143.0781,1168.8906 Q1141.7656,1167.2344 1141.7656,1164.1094 Q1141.7656,1160.9844 1143.0781,1159.3281 Q1144.4063,1157.6719 1146.9063,1157.6719 Q1147.6094,1157.6719 1148.25,1157.8281 Q1148.9063,1157.9844 1149.4688,1158.2813 L1149.4688,1161 Q1148.8438,1160.4219 1148.25,1160.1563 Q1147.6563,1159.875 1147.0313,1159.875 Q1145.6875,1159.875 1145,1160.9531 Q1144.3125,1162.0156 1144.3125,1164.1094 Q1144.3125,1166.2031 1145,1167.2813 Q1145.6875,1168.3438 1147.0313,1168.3438 Q1147.6563,1168.3438 1148.25,1168.0781 Q1148.8438,1167.7969 1149.4688,1167.2188 L1149.4688,1169.9375 Z " fill="#000000"/><text fill="#000000" font-family="sans-serif" font-size="14" lengthAdjust="spacing" textLength="11.1836" x="1160.5" y="1169.1436">js</text><line style="stroke:#181818;stroke-width:0.5;" x1="1132.5" x2="1173.6836" y1="1180.2969" y2="1180.2969"/><line style="stroke:#181818;stroke-width:0.5;" x1="1132.5" x2="1173.6836" y1="1188.2969" y2="1188.2969"/></g><!--class js--><g class="entity" data-entity="js" data-source-line="42" data-uid="ent0043" id="entity_js"><rect fill="#F1F1F1" height="48" rx="2.5" ry="2.5" style="stroke:#181818;stroke-width:0.5;" width="43.1836" x="965.5" y="1148.2969"/><ellipse cx="980.5" cy="1164.2969" fill="#ADD1B2" rx="11" ry="11" style="stroke:#181818;stroke-width:1;"/><path d="M983.4688,1169.9375 Q982.8906,1170.2344 982.25,1170.375 Q981.6094,1170.5313 980.9063,1170.5313 Q978.4063,1170.5313 977.0781,1168.8906 Q975.7656,1167.2344 975.7656,1164.1094 Q975.7656,1160.9844 977.0781,1159.3281 Q978.4063,1157.6719 980.9063,1157.6719 Q981.6094,1157.6719 982.25,1157.8281 Q982.9063,1157.9844 983.4688,1158.2813 L983.4688,1161 Q982.8438,1160.4219 982.25,1160.1563 Q981.6563,1159.875 981.0313,1159.875 Q979.6875,1159.875 979,1160.9531 Q978.3125,1162.0156 978.3125,1164.1094 Q978.3125,1166.2031 979,1167.2813 Q979.6875,1168.3438 981.0313,1168.3438 Q981.6563,1168.3438 982.25,1168.0781 Q982.8438,1167.7969 983.4688,1167.2188 L983.4688,1169.9375 Z " fill="#000000"/><text fill="#000000" font-family="sans-serif" font-size="14" lengthAdjust="spacing" textLength="11.1836" x="994.5" y="1169.1436">js</text><line style="stroke:#181818;stroke-width:0.5;" x1="966.5" x2="1007.6836" y1="1180.2969" y2="1180.2969"/><line style="stroke:#181818;stroke-width:0.5;" x1="966.5" x2="1007.6836" y1="1188.2969" y2="1188.2969"/></g><!--class js--><g class="entity" data-entity="js" data-source-line="43" data-uid="ent0045" id="entity_js"><rect fill="#F1F1F1" height="48" rx="2.5" ry="2.5" style="stroke:#181818;stroke-width:0.5;" width="43.1836" x="768.5" y="1148.2969"/><ellipse cx="783.5" cy="1164.2969" fill="#ADD1B2" rx="11" ry="11" style="stroke:#181818;stroke-width:1;"/><path d="M786.4688,1169.9375 Q785.8906,1170.2344 785.25,1170.375 Q784.6094,1170.5313 783.9063,1170.5313 Q781.4063,1170.5313 780.0781,1168.8906 Q778.7656,1167.2344 778.7656,1164.1094 Q778.7656,1160.9844 780.0781,1159.3281 Q781.4063,1157.6719 783.9063,1157.6719 Q784.6094,1157.6719 785.25,1157.8281 Q785.9063,1157.9844 786.4688,1158.2813 L786.4688,1161 Q785.8438,1160.4219 785.25,1160.1563 Q784.6563,1159.875 784.0313,1159.875 Q782.6875,1159.875 782,1160.9531 Q781.3125,1162.0156 781.3125,1164.1094 Q781.3125,1166.2031 782,1167.2813 Q782.6875,1168.3438 784.0313,1168.3438 Q784.6563,1168.3438 785.25,1168.0781 Q785.8438,1167.7969 786.4688,1167.2188 L786.4688,1169.9375 Z " fill="#000000"/><text fill="#000000" font-family="sans-serif" font-size="14" lengthAdjust="spacing" textLength="11.1836" x="797.5" y="1169.1436">js</text><line style="stroke:#181818;stroke-width:0.5;" x1="769.5" x2="810.6836" y1="1180.2969" y2="1180.2969"/><line style="stroke:#181818;stroke-width:0.5;" x1="769.5" x2="810.6836" y1="1188.2969" y2="1188.2969"/></g><!--class js--><g class="entity" data-entity="js" data-source-line="44" data-uid="ent0047" id="entity_js"><rect fill="#F1F1F1" height="48" rx="2.5" ry="2.5" style="stroke:#181818;stroke-width:0.5;" width="43.1836" x="633.5" y="1148.2969"/><ellipse cx="648.5" cy="1164.2969" fill="#ADD1B2" rx="11" ry="11" style="stroke:#181818;stroke-width:1;"/><path d="M651.4688,1169.9375 Q650.8906,1170.2344 650.25,1170.375 Q649.6094,1170.5313 648.9063,1170.5313 Q646.4063,1170.5313 645.0781,1168.8906 Q643.7656,1167.2344 643.7656,1164.1094 Q643.7656,1160.9844 645.0781,1159.3281 Q646.4063,1157.6719 648.9063,1157.6719 Q649.6094,1157.6719 650.25,1157.8281 Q650.9063,1157.9844 651.4688,1158.2813 L651.4688,1161 Q650.8438,1160.4219 650.25,1160.1563 Q649.6563,1159.875 649.0313,1159.875 Q647.6875,1159.875 647,1160.9531 Q646.3125,1162.0156 646.3125,1164.1094 Q646.3125,1166.2031 647,1167.2813 Q647.6875,1168.3438 649.0313,1168.3438 Q649.6563,1168.3438 650.25,1168.0781 Q650.8438,1167.7969 651.4688,1167.2188 L651.4688,1169.9375 Z " fill="#000000"/><text fill="#000000" font-family="sans-serif" font-size="14" lengthAdjust="spacing" textLength="11.1836" x="662.5" y="1169.1436">js</text><line style="stroke:#181818;stroke-width:0.5;" x1="634.5" x2="675.6836" y1="1180.2969" y2="1180.2969"/><line style="stroke:#181818;stroke-width:0.5;" x1="634.5" x2="675.6836" y1="1188.2969" y2="1188.2969"/></g><!--class js--><g class="entity" data-entity="js" data-source-line="50" data-uid="ent0051" id="entity_js"><rect fill="#F1F1F1" height="48" rx="2.5" ry="2.5" style="stroke:#181818;stroke-width:0.5;" width="43.1836" x="1822.5" y="834.2969"/><ellipse cx="1837.5" cy="850.2969" fill="#ADD1B2" rx="11" ry="11" style="stroke:#181818;stroke-width:1;"/><path d="M1840.4688,855.9375 Q1839.8906,856.2344 1839.25,856.375 Q1838.6094,856.5313 1837.9063,856.5313 Q1835.4063,856.5313 1834.0781,854.8906 Q1832.7656,853.2344 1832.7656,850.1094 Q1832.7656,846.9844 1834.0781,845.3281 Q1835.4063,843.6719 1837.9063,843.6719 Q1838.6094,843.6719 1839.25,843.8281 Q1839.9063,843.9844 1840.4688,844.2813 L1840.4688,847 Q1839.8438,846.4219 1839.25,846.1563 Q1838.6563,845.875 1838.0313,845.875 Q1836.6875,845.875 1836,846.9531 Q1835.3125,848.0156 1835.3125,850.1094 Q1835.3125,852.2031 1836,853.2813 Q1836.6875,854.3438 1838.0313,854.3438 Q1838.6563,854.3438 1839.25,854.0781 Q1839.8438,853.7969 1840.4688,853.2188 L1840.4688,855.9375 Z " fill="#000000"/><text fill="#000000" font-family="sans-serif" font-size="14" lengthAdjust="spacing" textLength="11.1836" x="1851.5" y="855.1436">js</text><line style="stroke:#181818;stroke-width:0.5;" x1="1823.5" x2="1864.6836" y1="866.2969" y2="866.2969"/><line style="stroke:#181818;stroke-width:0.5;" x1="1823.5" x2="1864.6836" y1="874.2969" y2="874.2969"/></g><!--class js--><g class="entity" data-entity="js" data-source-line="51" data-uid="ent0053" id="entity_js"><rect fill="#F1F1F1" height="48" rx="2.5" ry="2.5" style="stroke:#181818;stroke-width:0.5;" width="43.1836" x="1646.5" y="834.2969"/><ellipse cx="1661.5" cy="850.2969" fill="#ADD1B2" rx="11" ry="11" style="stroke:#181818;stroke-width:1;"/><path d="M1664.4688,855.9375 Q1663.8906,856.2344 1663.25,856.375 Q1662.6094,856.5313 1661.9063,856.5313 Q1659.4063,856.5313 1658.0781,854.8906 Q1656.7656,853.2344 1656.7656,850.1094 Q1656.7656,846.9844 1658.0781,845.3281 Q1659.4063,843.6719 1661.9063,843.6719 Q1662.6094,843.6719 1663.25,843.8281 Q1663.9063,843.9844 1664.4688,844.2813 L1664.4688,847 Q1663.8438,846.4219 1663.25,846.1563 Q1662.6563,845.875 1662.0313,845.875 Q1660.6875,845.875 1660,846.9531 Q1659.3125,848.0156 1659.3125,850.1094 Q1659.3125,852.2031 1660,853.2813 Q1660.6875,854.3438 1662.0313,854.3438 Q1662.6563,854.3438 1663.25,854.0781 Q1663.8438,853.7969 1664.4688,853.2188 L1664.4688,855.9375 Z " fill="#000000"/><text fill="#000000" font-family="sans-serif" font-size="14" lengthAdjust="spacing" textLength="11.1836" x="1675.5" y="855.1436">js</text><line style="stroke:#181818;stroke-width:0.5;" x1="1647.5" x2="1688.6836" y1="866.2969" y2="866.2969"/><line style="stroke:#181818;stroke-width:0.5;" x1="1647.5" x2="1688.6836" y1="874.2969" y2="874.2969"/></g><!--class js--><g class="entity" data-entity="js" data-source-line="52" data-uid="ent0055" id="entity_js"><rect fill="#F1F1F1" height="48" rx="2.5" ry="2.5" style="stroke:#181818;stroke-width:0.5;" width="43.1836" x="1459.5" y="834.2969"/><ellipse cx="1474.5" cy="850.2969" fill="#ADD1B2" rx="11" ry="11" style="stroke:#181818;stroke-width:1;"/><path d="M1477.4688,855.9375 Q1476.8906,856.2344 1476.25,856.375 Q1475.6094,856.5313 1474.9063,856.5313 Q1472.4063,856.5313 1471.0781,854.8906 Q1469.7656,853.2344 1469.7656,850.1094 Q1469.7656,846.9844 1471.0781,845.3281 Q1472.4063,843.6719 1474.9063,843.6719 Q1475.6094,843.6719 1476.25,843.8281 Q1476.9063,843.9844 1477.4688,844.2813 L1477.4688,847 Q1476.8438,846.4219 1476.25,846.1563 Q1475.6563,845.875 1475.0313,845.875 Q1473.6875,845.875 1473,846.9531 Q1472.3125,848.0156 1472.3125,850.1094 Q1472.3125,852.2031 1473,853.2813 Q1473.6875,854.3438 1475.0313,854.3438 Q1475.6563,854.3438 1476.25,854.0781 Q1476.8438,853.7969 1477.4688,853.2188 L1477.4688,855.9375 Z " fill="#000000"/><text fill="#000000" font-family="sans-serif" font-size="14" lengthAdjust="spacing" textLength="11.1836" x="1488.5" y="855.1436">js</text><line style="stroke:#181818;stroke-width:0.5;" x1="1460.5" x2="1501.6836" y1="866.2969" y2="866.2969"/><line style="stroke:#181818;stroke-width:0.5;" x1="1460.5" x2="1501.6836" y1="874.2969" y2="874.2969"/></g><!--class js--><g class="entity" data-entity="js" data-source-line="53" data-uid="ent0057" id="entity_js"><rect fill="#F1F1F1" height="48" rx="2.5" ry="2.5" style="stroke:#181818;stroke-width:0.5;" width="43.1836" x="1294.5" y="834.2969"/><ellipse cx="1309.5" cy="850.2969" fill="#ADD1B2" rx="11" ry="11" style="stroke:#181818;stroke-width:1;"/><path d="M1312.4688,855.9375 Q1311.8906,856.2344 1311.25,856.375 Q1310.6094,856.5313 1309.9063,856.5313 Q1307.4063,856.5313 1306.0781,854.8906 Q1304.7656,853.2344 1304.7656,850.1094 Q1304.7656,846.9844 1306.0781,845.3281 Q1307.4063,843.6719 1309.9063,843.6719 Q1310.6094,843.6719 1311.25,843.8281 Q1311.9063,843.9844 1312.4688,844.2813 L1312.4688,847 Q1311.8438,846.4219 1311.25,846.1563 Q1310.6563,845.875 1310.0313,845.875 Q1308.6875,845.875 1308,846.9531 Q1307.3125,848.0156 1307.3125,850.1094 Q1307.3125,852.2031 1308,853.2813 Q1308.6875,854.3438 1310.0313,854.3438 Q1310.6563,854.3438 1311.25,854.0781 Q1311.8438,853.7969 1312.4688,853.2188 L1312.4688,855.9375 Z " fill="#000000"/><text fill="#000000" font-family="sans-serif" font-size="14" lengthAdjust="spacing" textLength="11.1836" x="1323.5" y="855.1436">js</text><line style="stroke:#181818;stroke-width:0.5;" x1="1295.5" x2="1336.6836" y1="866.2969" y2="866.2969"/><line style="stroke:#181818;stroke-width:0.5;" x1="1295.5" x2="1336.6836" y1="874.2969" y2="874.2969"/></g><!--class js--><g class="entity" data-entity="js" data-source-line="54" data-uid="ent0059" id="entity_js"><rect fill="#F1F1F1" height="48" rx="2.5" ry="2.5" style="stroke:#181818;stroke-width:0.5;" width="43.1836" x="1114.5" y="834.2969"/><ellipse cx="1129.5" cy="850.2969" fill="#ADD1B2" rx="11" ry="11" style="stroke:#181818;stroke-width:1;"/><path d="M1132.4688,855.9375 Q1131.8906,856.2344 1131.25,856.375 Q1130.6094,856.5313 1129.9063,856.5313 Q1127.4063,856.5313 1126.0781,854.8906 Q1124.7656,853.2344 1124.7656,850.1094 Q1124.7656,846.9844 1126.0781,845.3281 Q1127.4063,843.6719 1129.9063,843.6719 Q1130.6094,843.6719 1131.25,843.8281 Q1131.9063,843.9844 1132.4688,844.2813 L1132.4688,847 Q1131.8438,846.4219 1131.25,846.1563 Q1130.6563,845.875 1130.0313,845.875 Q1128.6875,845.875 1128,846.9531 Q1127.3125,848.0156 1127.3125,850.1094 Q1127.3125,852.2031 1128,853.2813 Q1128.6875,854.3438 1130.0313,854.3438 Q1130.6563,854.3438 1131.25,854.0781 Q1131.8438,853.7969 1132.4688,853.2188 L1132.4688,855.9375 Z " fill="#000000"/><text fill="#000000" font-family="sans-serif" font-size="14" lengthAdjust="spacing" textLength="11.1836" x="1143.5" y="855.1436">js</text><line style="stroke:#181818;stroke-width:0.5;" x1="1115.5" x2="1156.6836" y1="866.2969" y2="866.2969"/><line style="stroke:#181818;stroke-width:0.5;" x1="1115.5" x2="1156.6836" y1="874.2969" y2="874.2969"/></g><!--class js--><g class="entity" data-entity="js" data-source-line="55" data-uid="ent0061" id="entity_js"><rect fill="#F1F1F1" height="48" rx="2.5" ry="2.5" style="stroke:#181818;stroke-width:0.5;" width="43.1836" x="941.5" y="834.2969"/><ellipse cx="956.5" cy="850.2969" fill="#ADD1B2" rx="11" ry="11" style="stroke:#181818;stroke-width:1;"/><path d="M959.4688,855.9375 Q958.8906,856.2344 958.25,856.375 Q957.6094,856.5313 956.9063,856.5313 Q954.4063,856.5313 953.0781,854.8906 Q951.7656,853.2344 951.7656,850.1094 Q951.7656,846.9844 953.0781,845.3281 Q954.4063,843.6719 956.9063,843.6719 Q957.6094,843.6719 958.25,843.8281 Q958.9063,843.9844 959.4688,844.2813 L959.4688,847 Q958.8438,846.4219 958.25,846.1563 Q957.6563,845.875 957.0313,845.875 Q955.6875,845.875 955,846.9531 Q954.3125,848.0156 954.3125,850.1094 Q954.3125,852.2031 955,853.2813 Q955.6875,854.3438 957.0313,854.3438 Q957.6563,854.3438 958.25,854.0781 Q958.8438,853.7969 959.4688,853.2188 L959.4688,855.9375 Z " fill="#000000"/><text fill="#000000" font-family="sans-serif" font-size="14" lengthAdjust="spacing" textLength="11.1836" x="970.5" y="855.1436">js</text><line style="stroke:#181818;stroke-width:0.5;" x1="942.5" x2="983.6836" y1="866.2969" y2="866.2969"/><line style="stroke:#181818;stroke-width:0.5;" x1="942.5" x2="983.6836" y1="874.2969" y2="874.2969"/></g><!--class js--><g class="entity" data-entity="js" data-source-line="56" data-uid="ent0063" id="entity_js"><rect fill="#F1F1F1" height="48" rx="2.5" ry="2.5" style="stroke:#181818;stroke-width:0.5;" width="43.1836" x="769.5" y="834.2969"/><ellipse cx="784.5" cy="850.2969" fill="#ADD1B2" rx="11" ry="11" style="stroke:#181818;stroke-width:1;"/><path d="M787.4688,855.9375 Q786.8906,856.2344 786.25,856.375 Q785.6094,856.5313 784.9063,856.5313 Q782.4063,856.5313 781.0781,854.8906 Q779.7656,853.2344 779.7656,850.1094 Q779.7656,846.9844 781.0781,845.3281 Q782.4063,843.6719 784.9063,843.6719 Q785.6094,843.6719 786.25,843.8281 Q786.9063,843.9844 787.4688,844.2813 L787.4688,847 Q786.8438,846.4219 786.25,846.1563 Q785.6563,845.875 785.0313,845.875 Q783.6875,845.875 783,846.9531 Q782.3125,848.0156 782.3125,850.1094 Q782.3125,852.2031 783,853.2813 Q783.6875,854.3438 785.0313,854.3438 Q785.6563,854.3438 786.25,854.0781 Q786.8438,853.7969 787.4688,853.2188 L787.4688,855.9375 Z " fill="#000000"/><text fill="#000000" font-family="sans-serif" font-size="14" lengthAdjust="spacing" textLength="11.1836" x="798.5" y="855.1436">js</text><line style="stroke:#181818;stroke-width:0.5;" x1="770.5" x2="811.6836" y1="866.2969" y2="866.2969"/><line style="stroke:#181818;stroke-width:0.5;" x1="770.5" x2="811.6836" y1="874.2969" y2="874.2969"/></g><!--class js--><g class="entity" data-entity="js" data-source-line="62" data-uid="ent0067" id="entity_js"><rect fill="#F1F1F1" height="48" rx="2.5" ry="2.5" style="stroke:#181818;stroke-width:0.5;" width="43.1836" x="253.5" y="520.2969"/><ellipse cx="268.5" cy="536.2969" fill="#ADD1B2" rx="11" ry="11" style="stroke:#181818;stroke-width:1;"/><path d="M271.4688,541.9375 Q270.8906,542.2344 270.25,542.375 Q269.6094,542.5313 268.9063,542.5313 Q266.4063,542.5313 265.0781,540.8906 Q263.7656,539.2344 263.7656,536.1094 Q263.7656,532.9844 265.0781,531.3281 Q266.4063,529.6719 268.9063,529.6719 Q269.6094,529.6719 270.25,529.8281 Q270.9063,529.9844 271.4688,530.2813 L271.4688,533 Q270.8438,532.4219 270.25,532.1563 Q269.6563,531.875 269.0313,531.875 Q267.6875,531.875 267,532.9531 Q266.3125,534.0156 266.3125,536.1094 Q266.3125,538.2031 267,539.2813 Q267.6875,540.3438 269.0313,540.3438 Q269.6563,540.3438 270.25,540.0781 Q270.8438,539.7969 271.4688,539.2188 L271.4688,541.9375 Z " fill="#000000"/><text fill="#000000" font-family="sans-serif" font-size="14" lengthAdjust="spacing" textLength="11.1836" x="282.5" y="541.1436">js</text><line style="stroke:#181818;stroke-width:0.5;" x1="254.5" x2="295.6836" y1="552.2969" y2="552.2969"/><line style="stroke:#181818;stroke-width:0.5;" x1="254.5" x2="295.6836" y1="560.2969" y2="560.2969"/></g><!--class js--><g class="entity" data-entity="js" data-source-line="63" data-uid="ent0069" id="entity_js"><rect fill="#F1F1F1" height="48" rx="2.5" ry="2.5" style="stroke:#181818;stroke-width:0.5;" width="43.1836" x="124.5" y="520.2969"/><ellipse cx="139.5" cy="536.2969" fill="#ADD1B2" rx="11" ry="11" style="stroke:#181818;stroke-width:1;"/><path d="M142.4688,541.9375 Q141.8906,542.2344 141.25,542.375 Q140.6094,542.5313 139.9063,542.5313 Q137.4063,542.5313 136.0781,540.8906 Q134.7656,539.2344 134.7656,536.1094 Q134.7656,532.9844 136.0781,531.3281 Q137.4063,529.6719 139.9063,529.6719 Q140.6094,529.6719 141.25,529.8281 Q141.9063,529.9844 142.4688,530.2813 L142.4688,533 Q141.8438,532.4219 141.25,532.1563 Q140.6563,531.875 140.0313,531.875 Q138.6875,531.875 138,532.9531 Q137.3125,534.0156 137.3125,536.1094 Q137.3125,538.2031 138,539.2813 Q138.6875,540.3438 140.0313,540.3438 Q140.6563,540.3438 141.25,540.0781 Q141.8438,539.7969 142.4688,539.2188 L142.4688,541.9375 Z " fill="#000000"/><text fill="#000000" font-family="sans-serif" font-size="14" lengthAdjust="spacing" textLength="11.1836" x="153.5" y="541.1436">js</text><line style="stroke:#181818;stroke-width:0.5;" x1="125.5" x2="166.6836" y1="552.2969" y2="552.2969"/><line style="stroke:#181818;stroke-width:0.5;" x1="125.5" x2="166.6836" y1="560.2969" y2="560.2969"/></g><!--class js--><g class="entity" data-entity="js" data-source-line="68" data-uid="ent0071" id="entity_js"><rect fill="#F1F1F1" height="48" rx="2.5" ry="2.5" style="stroke:#181818;stroke-width:0.5;" width="43.1836" x="1809.5" y="79.2969"/><ellipse cx="1824.5" cy="95.2969" fill="#ADD1B2" rx="11" ry="11" style="stroke:#181818;stroke-width:1;"/><path d="M1827.4688,100.9375 Q1826.8906,101.2344 1826.25,101.375 Q1825.6094,101.5313 1824.9063,101.5313 Q1822.4063,101.5313 1821.0781,99.8906 Q1819.7656,98.2344 1819.7656,95.1094 Q1819.7656,91.9844 1821.0781,90.3281 Q1822.4063,88.6719 1824.9063,88.6719 Q1825.6094,88.6719 1826.25,88.8281 Q1826.9063,88.9844 1827.4688,89.2813 L1827.4688,92 Q1826.8438,91.4219 1826.25,91.1563 Q1825.6563,90.875 1825.0313,90.875 Q1823.6875,90.875 1823,91.9531 Q1822.3125,93.0156 1822.3125,95.1094 Q1822.3125,97.2031 1823,98.2813 Q1823.6875,99.3438 1825.0313,99.3438 Q1825.6563,99.3438 1826.25,99.0781 Q1826.8438,98.7969 1827.4688,98.2188 L1827.4688,100.9375 Z " fill="#000000"/><text fill="#000000" font-family="sans-serif" font-size="14" lengthAdjust="spacing" textLength="11.1836" x="1838.5" y="100.1436">js</text><line style="stroke:#181818;stroke-width:0.5;" x1="1810.5" x2="1851.6836" y1="111.2969" y2="111.2969"/><line style="stroke:#181818;stroke-width:0.5;" x1="1810.5" x2="1851.6836" y1="119.2969" y2="119.2969"/></g><!--class js--><g class="entity" data-entity="js" data-source-line="68" data-uid="ent0074" id="entity_js"><rect fill="#F1F1F1" height="48" rx="2.5" ry="2.5" style="stroke:#181818;stroke-width:0.5;" width="43.1836" x="1809.5" y="227.2969"/><ellipse cx="1824.5" cy="243.2969" fill="#ADD1B2" rx="11" ry="11" style="stroke:#181818;stroke-width:1;"/><path d="M1827.4688,248.9375 Q1826.8906,249.2344 1826.25,249.375 Q1825.6094,249.5313 1824.9063,249.5313 Q1822.4063,249.5313 1821.0781,247.8906 Q1819.7656,246.2344 1819.7656,243.1094 Q1819.7656,239.9844 1821.0781,238.3281 Q1822.4063,236.6719 1824.9063,236.6719 Q1825.6094,236.6719 1826.25,236.8281 Q1826.9063,236.9844 1827.4688,237.2813 L1827.4688,240 Q1826.8438,239.4219 1826.25,239.1563 Q1825.6563,238.875 1825.0313,238.875 Q1823.6875,238.875 1823,239.9531 Q1822.3125,241.0156 1822.3125,243.1094 Q1822.3125,245.2031 1823,246.2813 Q1823.6875,247.3438 1825.0313,247.3438 Q1825.6563,247.3438 1826.25,247.0781 Q1826.8438,246.7969 1827.4688,246.2188 L1827.4688,248.9375 Z " fill="#000000"/><text fill="#000000" font-family="sans-serif" font-size="14" lengthAdjust="spacing" textLength="11.1836" x="1838.5" y="248.1436">js</text><line style="stroke:#181818;stroke-width:0.5;" x1="1810.5" x2="1851.6836" y1="259.2969" y2="259.2969"/><line style="stroke:#181818;stroke-width:0.5;" x1="1810.5" x2="1851.6836" y1="267.2969" y2="267.2969"/></g><!--class js--><g class="entity" data-entity="js" data-source-line="69" data-uid="ent0076" id="entity_js"><rect fill="#F1F1F1" height="48" rx="2.5" ry="2.5" style="stroke:#181818;stroke-width:0.5;" width="43.1836" x="2604.5" y="520.2969"/><ellipse cx="2619.5" cy="536.2969" fill="#ADD1B2" rx="11" ry="11" style="stroke:#181818;stroke-width:1;"/><path d="M2622.4688,541.9375 Q2621.8906,542.2344 2621.25,542.375 Q2620.6094,542.5313 2619.9063,542.5313 Q2617.4063,542.5313 2616.0781,540.8906 Q2614.7656,539.2344 2614.7656,536.1094 Q2614.7656,532.9844 2616.0781,531.3281 Q2617.4063,529.6719 2619.9063,529.6719 Q2620.6094,529.6719 2621.25,529.8281 Q2621.9063,529.9844 2622.4688,530.2813 L2622.4688,533 Q2621.8438,532.4219 2621.25,532.1563 Q2620.6563,531.875 2620.0313,531.875 Q2618.6875,531.875 2618,532.9531 Q2617.3125,534.0156 2617.3125,536.1094 Q2617.3125,538.2031 2618,539.2813 Q2618.6875,540.3438 2620.0313,540.3438 Q2620.6563,540.3438 2621.25,540.0781 Q2621.8438,539.7969 2622.4688,539.2188 L2622.4688,541.9375 Z " fill="#000000"/><text fill="#000000" font-family="sans-serif" font-size="14" lengthAdjust="spacing" textLength="11.1836" x="2633.5" y="541.1436">js</text><line style="stroke:#181818;stroke-width:0.5;" x1="2605.5" x2="2646.6836" y1="552.2969" y2="552.2969"/><line style="stroke:#181818;stroke-width:0.5;" x1="2605.5" x2="2646.6836" y1="560.2969" y2="560.2969"/></g><!--class js--><g class="entity" data-entity="js" data-source-line="74" data-uid="ent0083" id="entity_js"><rect fill="#F1F1F1" height="48" rx="2.5" ry="2.5" style="stroke:#181818;stroke-width:0.5;" width="43.1836" x="1437.5" y="79.2969"/><ellipse cx="1452.5" cy="95.2969" fill="#ADD1B2" rx="11" ry="11" style="stroke:#181818;stroke-width:1;"/><path d="M1455.4688,100.9375 Q1454.8906,101.2344 1454.25,101.375 Q1453.6094,101.5313 1452.9063,101.5313 Q1450.4063,101.5313 1449.0781,99.8906 Q1447.7656,98.2344 1447.7656,95.1094 Q1447.7656,91.9844 1449.0781,90.3281 Q1450.4063,88.6719 1452.9063,88.6719 Q1453.6094,88.6719 1454.25,88.8281 Q1454.9063,88.9844 1455.4688,89.2813 L1455.4688,92 Q1454.8438,91.4219 1454.25,91.1563 Q1453.6563,90.875 1453.0313,90.875 Q1451.6875,90.875 1451,91.9531 Q1450.3125,93.0156 1450.3125,95.1094 Q1450.3125,97.2031 1451,98.2813 Q1451.6875,99.3438 1453.0313,99.3438 Q1453.6563,99.3438 1454.25,99.0781 Q1454.8438,98.7969 1455.4688,98.2188 L1455.4688,100.9375 Z " fill="#000000"/><text fill="#000000" font-family="sans-serif" font-size="14" lengthAdjust="spacing" textLength="11.1836" x="1466.5" y="100.1436">js</text><line style="stroke:#181818;stroke-width:0.5;" x1="1438.5" x2="1479.6836" y1="111.2969" y2="111.2969"/><line style="stroke:#181818;stroke-width:0.5;" x1="1438.5" x2="1479.6836" y1="119.2969" y2="119.2969"/></g><!--class Kiwi TCMS XML-RPC--><g class="entity" data-entity="Kiwi TCMS XML-RPC" data-source-line="74" data-uid="ent0085" id="entity_Kiwi TCMS XML-RPC"><rect fill="#F1F1F1" height="48" rx="2.5" ry="2.5" style="stroke:#181818;stroke-width:0.5;" width="171.0703" x="1373.5" y="227.2969"/><ellipse cx="1388.5" cy="243.2969" fill="#ADD1B2" rx="11" ry="11" style="stroke:#181818;stroke-width:1;"/><path d="M1391.4688,248.9375 Q1390.8906,249.2344 1390.25,249.375 Q1389.6094,249.5313 1388.9063,249.5313 Q1386.4063,249.5313 1385.0781,247.8906 Q1383.7656,246.2344 1383.7656,243.1094 Q1383.7656,239.9844 1385.0781,238.3281 Q1386.4063,236.6719 1388.9063,236.6719 Q1389.6094,236.6719 1390.25,236.8281 Q1390.9063,236.9844 1391.4688,237.2813 L1391.4688,240 Q1390.8438,239.4219 1390.25,239.1563 Q1389.6563,238.875 1389.0313,238.875 Q1387.6875,238.875 1387,239.9531 Q1386.3125,241.0156 1386.3125,243.1094 Q1386.3125,245.2031 1387,246.2813 Q1387.6875,247.3438 1389.0313,247.3438 Q1389.6563,247.3438 1390.25,247.0781 Q1390.8438,246.7969 1391.4688,246.2188 L1391.4688,248.9375 Z " fill="#000000"/><text fill="#000000" font-family="sans-serif" font-size="14" lengthAdjust="spacing" textLength="139.0703" x="1402.5" y="248.1436">Kiwi TCMS XML-RPC</text><line style="stroke:#181818;stroke-width:0.5;" x1="1374.5" x2="1543.5703" y1="259.2969" y2="259.2969"/><line style="stroke:#181818;stroke-width:0.5;" x1="1374.5" x2="1543.5703" y1="267.2969" y2="267.2969"/></g><!--link js to js--><g class="link" data-entity-1="js" data-entity-2="js" data-source-line="68" data-uid="lnk75" id="link_js_js"><path codeLine="68" d="M1831,127.4269 C1831,154.7669 1831,193.9769 1831,221.2669" fill="none" id="js-to-js" style="stroke:#181818;stroke-width:1;"/><polygon fill="#181818" points="1831,227.2669,1835,218.2669,1831,222.2669,1827,218.2669,1831,227.2669" style="stroke:#181818;stroke-width:1;"/><text fill="#000000" font-family="sans-serif" font-size="13" lengthAdjust="spacing" textLength="70.6304" x="1832" y="172.3638">fetch REST</text></g><!--link js to js--><g class="link" data-entity-1="js" data-entity-2="js" data-source-line="69" data-uid="lnk78" id="link_js_js"><path codeLine="69" d="M1852.55,252.4769 C1953.8,253.6769 2381.89,262.8469 2492,332.2969 C2563.21,377.2069 2601.5001,469.5491 2616.8201,514.3891" fill="none" id="js-to-js-1" style="stroke:#181818;stroke-width:1;"/><polygon fill="#181818" points="2618.76,520.0669,2619.6354,510.257,2617.1435,515.3354,2612.065,512.8435,2618.76,520.0669" style="stroke:#181818;stroke-width:1;"/><text fill="#000000" font-family="sans-serif" font-size="13" lengthAdjust="spacing" textLength="82.0879" x="2476" y="320.3638">requireLogin</text></g><!--link js to src/controllers--><g class="link" data-entity-1="js" data-entity-2="src.controllers" data-source-line="70" data-uid="lnk79" id="link_js_src.controllers"><path codeLine="70" d="M1809.18,257.1569 C1763.56,267.0869 1654.65,289.5769 1562,299.2969 C1511.41,304.6069 687.1,300.9969 647,332.2969 C628.0625,347.0769 614.7513,367.3613 605.4441,389.5456 C600.7905,400.6378 597.1379,412.205 594.2836,423.7966 C593.57,426.6946 592.9063,429.594 592.2893,432.4879 C592.2122,432.8497 593.3649,427.3385 593.2892,427.7001" fill="none" id="js-to-src/controllers" style="stroke:#181818;stroke-width:1;"/><polygon fill="#181818" points="592.0601,433.5729,597.8189,425.5831,593.0844,428.6789,589.9886,423.9443,592.0601,433.5729" style="stroke:#181818;stroke-width:1;"/><text fill="#000000" font-family="sans-serif" font-size="13" lengthAdjust="spacing" textLength="98.9282" x="1023" y="320.3638">enruta petici&#243;n</text></g><!--link src/controllers to src/services--><g class="link" data-entity-1="src.controllers" data-entity-2="src.services" data-source-line="71" data-uid="lnk80" id="link_src.controllers_src.services"><path codeLine="71" d="M607.4925,616.6602 C609.8004,624.3782 612.1911,632.392 614.6091,640.5234 C619.445,656.7862 624.39,673.5194 629,689.2969 C639.72,725.9819 651.515,767.2519 660.73,799.7069 C663.0338,807.8206 665.1763,815.3834 667.1004,822.1859 C667.5814,823.8866 668.0488,825.5397 668.5017,827.142 C668.6149,827.5426 667.0957,822.166 667.2071,822.5602" fill="none" id="src/controllers-to-src/services" style="stroke:#181818;stroke-width:1;"/><polygon fill="#181818" points="668.8386,828.3341,670.2406,818.5856,667.479,823.5225,662.542,820.7609,668.8386,828.3341" style="stroke:#181818;stroke-width:1;"/><text fill="#000000" font-family="sans-serif" font-size="13" lengthAdjust="spacing" textLength="90.7207" x="626" y="677.3638">l&#243;gica auxiliar</text></g><!--link src/controllers to src/models--><g class="link" data-entity-1="src.controllers" data-entity-2="src.models" data-source-line="72" data-uid="lnk81" id="link_src.controllers_src.models"><path codeLine="72" d="M583.0294,616.698 C582.752,624.4164 582.4795,632.4295 582.2242,640.5586 C581.7138,656.8169 581.2725,673.5394 581,689.2969 C578.83,814.1669 579.76,845.4169 581,970.2969 C581.22,992.2844 581.5738,1015.6231 581.9822,1038.3164 C582.0843,1043.9897 582.1898,1049.6227 582.2975,1055.1841 C582.3245,1056.5745 582.3515,1057.9604 582.3787,1059.3413 C582.3923,1060.0318 582.2869,1054.7222 582.3006,1055.4101" fill="none" id="src/controllers-to-src/models" style="stroke:#181818;stroke-width:1;"/><polygon fill="#181818" points="582.4196,1061.4089,586.2403,1052.3314,582.3204,1056.4099,578.2418,1052.49,582.4196,1061.4089" style="stroke:#181818;stroke-width:1;"/><text fill="#000000" font-family="sans-serif" font-size="13" lengthAdjust="spacing" textLength="78.8125" x="582" y="862.8638">persistencia</text></g><!--link src/services to src/models--><g class="link" data-entity-1="src.services" data-entity-2="src.models" data-source-line="73" data-uid="lnk82" id="link_src.services_src.models"><path codeLine="73" d="M668.7908,877.6556 C668.64,877.995 668.4877,878.3381 668.3338,878.6848 C663.4081,889.7809 656.88,904.6012 650.0925,920.3381 C636.5175,951.8119 621.905,986.9519 617,1003.2969 C611.625,1021.2119 606.9575,1040.4837 602.9748,1059.3597 C602.8504,1059.9496 602.7266,1060.539 602.6035,1061.1281 C602.5419,1061.4226 603.7026,1055.8428 603.6414,1056.1371" fill="none" id="src/services-to-src/models" style="stroke:#181818;stroke-width:1;"/><polygon fill="#181818" points="602.4193,1062.0113,608.1686,1054.0147,603.4377,1057.1161,600.3363,1052.3853,602.4193,1062.0113" style="stroke:#181818;stroke-width:1;"/><text fill="#000000" font-family="sans-serif" font-size="13" lengthAdjust="spacing" textLength="128.4766" x="626" y="991.3638">consultas MongoDB</text></g><!--link js to Kiwi TCMS XML-RPC--><g class="link" data-entity-1="js" data-entity-2="Kiwi TCMS XML-RPC" data-source-line="74" data-uid="lnk86" id="link_js_Kiwi TCMS XML-RPC"><path codeLine="74" d="M1459,127.4269 C1459,154.7669 1459,193.9769 1459,221.2669" fill="none" id="js-to-Kiwi TCMS XML-RPC" style="stroke:#181818;stroke-width:1;"/><polygon fill="#181818" points="1459,227.2669,1463,218.2669,1459,222.2669,1455,218.2669,1459,227.2669" style="stroke:#181818;stroke-width:1;"/></g><!--SRC=[XLNBSjim3BppAp2-Exxxq4CLjuV6CnqhoVGAKx24X28LFk9aElsgV49-h9Jbo8ufAGUDnzZ50bo1a7jatQ356XgKZrXIxbyLWINfKPUAXEi9hiB2x5cNi4FbI0ZFFb9NpjiWVR081KMLfq2U7AplCvW3DeqGHsMOnNyp-2i4G1-wP-Un3GASHPkmLIm_mW1IeNCmOrtGorNbQpNx34Zd5b7yAlvU80yTy72C_nFjSzv0PhItHiMZsQGDP-N2cX2FCzBAIJPDb9sm8fjcO_1LrkEzJ8yxSewDdg8KHeQQj4V_1J4uoZ0-4nHBJu4jjN9JjB8Y6wTXiYkBko6D8ODgBWf5UxGqwC_4ErkRWfGPV5rr2wM6txcXRlFEvXIuFZStXUywIrFWHz2oJK6rELcQqdvsHkQID5es0_LR6oSCoCa-isJZ0CCBAuuUka4xt858mnFOgT0NipNAEex3ACv5bE0TansbrAW3gb-yvr7AyIgCujwY9Dn64_ph9Mdmjk-uZBjAylkR7hHC7YY9OSKshQqC5daLpIzM-lcYQgnxN6EBqmw2-VpRsUw09Up8omesg_nMdCKFj8zB45d72tfZIjO9BrasIo1jWqTeoFFXe28bzQcd4Lc2UdyhMM8_LLDv7pTj6SjO5zSuQSaeBZG7w57E1UKnVYECBitrTp4y1rrk6uJRR9t3d_NDVFCxc_q7]--></g></svg>