<svg xmlns="http://www.w3.org/2000/svg" xmlns:xlink="http://www.w3.org/1999/xlink" contentStyleType="text/css" data-diagram-type="CLASS" height="647px" preserveAspectRatio="none" style="width:909px;height:647px;background:#FFFFFF;" version="1.1" viewBox="0 0 909 647" width="909px" zoomAndPan="magnify"><title>CU05 - Esquema para Aceptar y Publicar Casos de Prueba desde Borrador</title><defs/><g><g class="title" data-source-line="1"><text fill="#000000" font-family="sans-serif" font-size="14" font-weight="bold" lengthAdjust="spacing" textLength="582.1758" x="156.8579" y="22.9951">CU05 - Esquema para Aceptar y Publicar Casos de Prueba desde Borrador</text></g><!--class Session--><g class="entity" data-entity="Session" data-source-line="6" data-uid="ent0002" id="entity_Session"><rect fill="#F1F1F1" height="96.8906" rx="2.5" ry="2.5" style="stroke:#181818;stroke-width:0.5;" width="162.2129" x="7" y="502.7969"/><ellipse cx="57.1484" cy="518.7969" fill="#ADD1B2" rx="11" ry="11" style="stroke:#181818;stroke-width:1;"/><path d="M61.2578,524.7969 L53.5391,524.7969 L53.5391,512.4063 L61.2578,512.4063 L61.2578,514.5625 L55.9922,514.5625 L55.9922,517.2344 L60.7578,517.2344 L60.7578,519.3906 L55.9922,519.3906 L55.9922,522.6406 L61.2578,522.6406 L61.2578,524.7969 Z " fill="#000000"/><text fill="#000000" font-family="sans-serif" font-size="14" lengthAdjust="spacing" textLength="53.416" x="77.6484" y="523.6436">Session</text><line style="stroke:#181818;stroke-width:0.5;" x1="8" x2="168.2129" y1="534.7969" y2="534.7969"/><text fill="#000000" font-family="sans-serif" font-size="14" lengthAdjust="spacing" textLength="87.5547" x="13" y="551.792">_id: ObjectId</text><text fill="#000000" font-family="sans-serif" font-size="14" lengthAdjust="spacing" textLength="139.5557" x="13" y="568.0889">projectName: string</text><text fill="#000000" font-family="sans-serif" font-size="14" lengthAdjust="spacing" textLength="150.2129" x="13" y="584.3857">workflowMode: string</text><line style="stroke:#181818;stroke-width:0.5;" x1="8" x2="168.2129" y1="591.6875" y2="591.6875"/></g><!--class UseCase--><g class="entity" data-entity="UseCase" data-source-line="12" data-uid="ent0003" id="entity_UseCase"><rect fill="#F1F1F1" height="96.8906" rx="2.5" ry="2.5" style="stroke:#181818;stroke-width:0.5;" width="101.0586" x="204.5" y="502.7969"/><ellipse cx="223.3892" cy="518.7969" fill="#ADD1B2" rx="11" ry="11" style="stroke:#181818;stroke-width:1;"/><path d="M227.4985,524.7969 L219.7798,524.7969 L219.7798,512.4063 L227.4985,512.4063 L227.4985,514.5625 L222.2329,514.5625 L222.2329,517.2344 L226.9985,517.2344 L226.9985,519.3906 L222.2329,519.3906 L222.2329,522.6406 L227.4985,522.6406 L227.4985,524.7969 Z " fill="#000000"/><text fill="#000000" font-family="sans-serif" font-size="14" lengthAdjust="spacing" textLength="60.416" x="238.2534" y="523.6436">UseCase</text><line style="stroke:#181818;stroke-width:0.5;" x1="205.5" x2="304.5586" y1="534.7969" y2="534.7969"/><text fill="#000000" font-family="sans-serif" font-size="14" lengthAdjust="spacing" textLength="87.5547" x="210.5" y="551.792">_id: ObjectId</text><text fill="#000000" font-family="sans-serif" font-size="14" lengthAdjust="spacing" textLength="78.9414" x="210.5" y="568.0889">ucId: string</text><text fill="#000000" font-family="sans-serif" font-size="14" lengthAdjust="spacing" textLength="89.0586" x="210.5" y="584.3857">name: string</text><line style="stroke:#181818;stroke-width:0.5;" x1="205.5" x2="304.5586" y1="591.6875" y2="591.6875"/></g><!--class FR--><g class="entity" data-entity="FR" data-source-line="18" data-uid="ent0004" id="entity_FR"><rect fill="#F1F1F1" height="113.1875" rx="2.5" ry="2.5" style="stroke:#181818;stroke-width:0.5;" width="195.7549" x="341" y="494.7969"/><ellipse cx="356" cy="510.7969" fill="#ADD1B2" rx="11" ry="11" style="stroke:#181818;stroke-width:1;"/><path d="M360.1094,516.7969 L352.3906,516.7969 L352.3906,504.4063 L360.1094,504.4063 L360.1094,506.5625 L354.8438,506.5625 L354.8438,509.2344 L359.6094,509.2344 L359.6094,511.3906 L354.8438,511.3906 L354.8438,514.6406 L360.1094,514.6406 L360.1094,516.7969 Z " fill="#000000"/><text fill="#000000" font-family="sans-serif" font-size="14" lengthAdjust="spacing" textLength="163.7549" x="370" y="515.6436">FunctionalRequirement</text><line style="stroke:#181818;stroke-width:0.5;" x1="342" x2="535.7549" y1="526.7969" y2="526.7969"/><text fill="#000000" font-family="sans-serif" font-size="14" lengthAdjust="spacing" textLength="87.5547" x="347" y="543.792">_id: ObjectId</text><text fill="#000000" font-family="sans-serif" font-size="14" lengthAdjust="spacing" textLength="73.0557" x="347" y="560.0889">rfId: string</text><text fill="#000000" font-family="sans-serif" font-size="14" lengthAdjust="spacing" textLength="77.2324" x="347" y="576.3857">text: string</text><text fill="#000000" font-family="sans-serif" font-size="14" lengthAdjust="spacing" textLength="78.9414" x="347" y="592.6826">ucId: string</text><line style="stroke:#181818;stroke-width:0.5;" x1="342" x2="535.7549" y1="599.9844" y2="599.9844"/></g><!--class GS--><g class="entity" data-entity="GS" data-source-line="25" data-uid="ent0005" id="entity_GS"><rect fill="#F1F1F1" height="178.375" rx="2.5" ry="2.5" style="stroke:#181818;stroke-width:0.5;" width="147.8213" x="572" y="462.2969"/><ellipse cx="587" cy="478.2969" fill="#ADD1B2" rx="11" ry="11" style="stroke:#181818;stroke-width:1;"/><path d="M591.1094,484.2969 L583.3906,484.2969 L583.3906,471.9063 L591.1094,471.9063 L591.1094,474.0625 L585.8438,474.0625 L585.8438,476.7344 L590.6094,476.7344 L590.6094,478.8906 L585.8438,478.8906 L585.8438,482.1406 L591.1094,482.1406 L591.1094,484.2969 Z " fill="#000000"/><text fill="#000000" font-family="sans-serif" font-size="14" lengthAdjust="spacing" textLength="115.8213" x="601" y="483.1436">GherkinScenario</text><line style="stroke:#181818;stroke-width:0.5;" x1="573" x2="718.8213" y1="494.2969" y2="494.2969"/><text fill="#000000" font-family="sans-serif" font-size="14" lengthAdjust="spacing" textLength="87.5547" x="578" y="511.292">_id: ObjectId</text><text fill="#000000" font-family="sans-serif" font-size="14" lengthAdjust="spacing" textLength="76.7266" x="578" y="527.5889">title: string</text><text fill="#000000" font-family="sans-serif" font-size="14" lengthAdjust="spacing" textLength="100.208" x="578" y="543.8857">feature: string</text><text fill="#000000" font-family="sans-serif" font-size="14" lengthAdjust="spacing" textLength="92.1211" x="578" y="560.1826">tags: [String]</text><text fill="#000000" font-family="sans-serif" font-size="14" lengthAdjust="spacing" textLength="78.9414" x="578" y="576.4795">ucId: string</text><text fill="#000000" font-family="sans-serif" font-size="14" lengthAdjust="spacing" textLength="92.8662" x="578" y="592.7764">rfIds: [String]</text><text fill="#000000" font-family="sans-serif" font-size="14" lengthAdjust="spacing" textLength="89.5439" x="578" y="609.0732">steps: [Step]</text><text fill="#000000" font-family="sans-serif" font-size="14" lengthAdjust="spacing" textLength="111.3301" x="578" y="625.3701">createdAt: Date</text><line style="stroke:#181818;stroke-width:0.5;" x1="573" x2="718.8213" y1="632.6719" y2="632.6719"/></g><!--class Draft--><g class="entity" data-entity="Draft" data-source-line="36" data-uid="ent0006" id="entity_Draft"><rect fill="#F1F1F1" height="341.3438" rx="2.5" ry="2.5" style="stroke:#181818;stroke-width:0.5;" width="193.9453" x="342" y="44.2969"/><ellipse cx="416.9561" cy="60.2969" fill="#ADD1B2" rx="11" ry="11" style="stroke:#181818;stroke-width:1;"/><path d="M421.0654,66.2969 L413.3467,66.2969 L413.3467,53.9063 L421.0654,53.9063 L421.0654,56.0625 L415.7998,56.0625 L415.7998,58.7344 L420.5654,58.7344 L420.5654,60.8906 L415.7998,60.8906 L415.7998,64.1406 L421.0654,64.1406 L421.0654,66.2969 Z " fill="#000000"/><text fill="#000000" font-family="sans-serif" font-size="14" lengthAdjust="spacing" textLength="35.5332" x="437.4561" y="65.1436">Draft</text><line style="stroke:#181818;stroke-width:0.5;" x1="343" x2="534.9453" y1="76.2969" y2="76.2969"/><text fill="#000000" font-family="sans-serif" font-size="14" lengthAdjust="spacing" textLength="87.5547" x="348" y="93.292">_id: ObjectId</text><text fill="#000000" font-family="sans-serif" font-size="14" lengthAdjust="spacing" textLength="132.6172" x="348" y="109.5889">sessionId: ObjectId</text><text fill="#000000" font-family="sans-serif" font-size="14" lengthAdjust="spacing" textLength="115.418" x="348" y="125.8857">summary: string</text><text fill="#000000" font-family="sans-serif" font-size="14" lengthAdjust="spacing" textLength="127.1963" x="348" y="142.1826">description: string</text><text fill="#000000" font-family="sans-serif" font-size="14" lengthAdjust="spacing" textLength="152.5303" x="348" y="158.4795">categoryName: string</text><text fill="#000000" font-family="sans-serif" font-size="14" lengthAdjust="spacing" textLength="139.5557" x="348" y="174.7764">projectName: string</text><text fill="#000000" font-family="sans-serif" font-size="14" lengthAdjust="spacing" textLength="78.9414" x="348" y="191.0732">ucId: string</text><text fill="#000000" font-family="sans-serif" font-size="14" lengthAdjust="spacing" textLength="92.8662" x="348" y="207.3701">rfIds: [String]</text><text fill="#000000" font-family="sans-serif" font-size="14" lengthAdjust="spacing" textLength="158.2793" x="348" y="223.667">scenarioIds: [ObjectId]</text><text fill="#000000" font-family="sans-serif" font-size="14" lengthAdjust="spacing" textLength="99.873" x="348" y="239.9639">priority: string</text><text fill="#000000" font-family="sans-serif" font-size="14" lengthAdjust="spacing" textLength="92.374" x="348" y="256.2607">status: string</text><text fill="#000000" font-family="sans-serif" font-size="14" lengthAdjust="spacing" textLength="115.083" x="348" y="272.5576">version: number</text><text fill="#000000" font-family="sans-serif" font-size="14" lengthAdjust="spacing" textLength="102.9561" x="348" y="288.8545">content: string</text><text fill="#000000" font-family="sans-serif" font-size="14" lengthAdjust="spacing" textLength="138.4209" x="348" y="305.1514">kiwiCaseId: number</text><text fill="#000000" font-family="sans-serif" font-size="14" lengthAdjust="spacing" textLength="168.1094" x="348" y="321.4482">kiwiCategoryId: number</text><text fill="#000000" font-family="sans-serif" font-size="14" lengthAdjust="spacing" textLength="181.9453" x="348" y="337.7451">kiwiCategoryName: string</text><text fill="#000000" font-family="sans-serif" font-size="14" lengthAdjust="spacing" textLength="125.7881" x="348" y="354.042">publishedAt: Date</text><text fill="#000000" font-family="sans-serif" font-size="14" lengthAdjust="spacing" textLength="115.2539" x="348" y="370.3389">rejectedAt: Date</text><line style="stroke:#181818;stroke-width:0.5;" x1="343" x2="534.9453" y1="377.6406" y2="377.6406"/></g><!--class Kiwi--><g class="entity" data-entity="Kiwi" data-source-line="57" data-uid="ent0007" id="entity_Kiwi"><rect fill="#F1F1F1" height="129.4844" rx="2.5" ry="2.5" style="stroke:#181818;stroke-width:0.5;" width="147.8916" x="755" y="486.7969"/><ellipse cx="789.6822" cy="502.7969" fill="#ADD1B2" rx="11" ry="11" style="stroke:#181818;stroke-width:1;"/><path d="M793.7916,508.7969 L786.0729,508.7969 L786.0729,496.4063 L793.7916,496.4063 L793.7916,498.5625 L788.526,498.5625 L788.526,501.2344 L793.2916,501.2344 L793.2916,503.3906 L788.526,503.3906 L788.526,506.6406 L793.7916,506.6406 L793.7916,508.7969 Z " fill="#000000"/><text fill="#000000" font-family="sans-serif" font-size="14" lengthAdjust="spacing" textLength="72.1533" x="808.0561" y="507.6436">Kiwi TCMS</text><line style="stroke:#181818;stroke-width:0.5;" x1="756" x2="901.8916" y1="518.7969" y2="518.7969"/><text fill="#000000" font-family="sans-serif" font-size="14" lengthAdjust="spacing" textLength="135.8916" x="761" y="535.792">testcaseId: number</text><text fill="#000000" font-family="sans-serif" font-size="14" lengthAdjust="spacing" textLength="115.418" x="761" y="552.0889">summary: string</text><text fill="#000000" font-family="sans-serif" font-size="14" lengthAdjust="spacing" textLength="111.2275" x="761" y="568.3857">category: string</text><text fill="#000000" font-family="sans-serif" font-size="14" lengthAdjust="spacing" textLength="99.873" x="761" y="584.6826">priority: string</text><text fill="#000000" font-family="sans-serif" font-size="14" lengthAdjust="spacing" textLength="92.374" x="761" y="600.9795">status: string</text><line style="stroke:#181818;stroke-width:0.5;" x1="756" x2="901.8916" y1="608.2813" y2="608.2813"/></g><!--link Draft to Session--><g class="link" data-entity-1="Draft" data-entity-2="Session" data-source-line="65" data-uid="lnk8" id="link_Draft_Session"><path codeLine="65" d="M341.69,308.5269 C275.55,371.5569 195.1333,448.1973 142.2733,498.5773" fill="none" id="Draft-to-Session" style="stroke:#181818;stroke-width:1;"/><polygon fill="#181818" points="137.93,502.7169,147.2046,499.4031,141.5494,499.2673,141.6853,493.612,137.93,502.7169" style="stroke:#181818;stroke-width:1;"/><text fill="#000000" font-family="sans-serif" font-size="13" lengthAdjust="spacing" textLength="60.2075" x="223" y="428.3638">sessionId</text></g><!--link Draft to UseCase--><g class="link" data-entity-1="Draft" data-entity-2="UseCase" data-source-line="66" data-uid="lnk9" id="link_Draft_UseCase"><path codeLine="66" d="M345.65,385.4969 C321.99,428.5169 301.3428,466.0603 284.1728,497.2603" fill="none" id="Draft-to-UseCase" style="stroke:#181818;stroke-width:1;"/><polygon fill="#181818" points="281.28,502.5169,289.1236,496.5605,283.6907,498.1364,282.1148,492.7035,281.28,502.5169" style="stroke:#181818;stroke-width:1;"/><text fill="#000000" font-family="sans-serif" font-size="13" lengthAdjust="spacing" textLength="27.4727" x="327" y="428.3638">ucId</text></g><!--link Draft to FR--><g class="link" data-entity-1="Draft" data-entity-2="FR" data-source-line="67" data-uid="lnk10" id="link_Draft_FR"><path codeLine="67" d="M439,385.4969 C439,424.9569 439,458.2369 439,488.5369" fill="none" id="Draft-to-FR" style="stroke:#181818;stroke-width:1;"/><polygon fill="#181818" points="439,494.5369,443,485.5369,439,489.5369,435,485.5369,439,494.5369" style="stroke:#181818;stroke-width:1;"/><text fill="#000000" font-family="sans-serif" font-size="13" lengthAdjust="spacing" textLength="28.7803" x="440" y="428.3638">rfIds</text></g><!--link Draft to GS--><g class="link" data-entity-1="Draft" data-entity-2="GS" data-source-line="68" data-uid="lnk11" id="link_Draft_GS"><path codeLine="68" d="M536.14,372.7669 C555.15,403.4869 571.2921,429.5752 588.3021,457.0552" fill="none" id="Draft-to-GS" style="stroke:#181818;stroke-width:1;"/><polygon fill="#181818" points="591.46,462.1569,590.1242,452.399,588.8284,457.9055,583.322,456.6096,591.46,462.1569" style="stroke:#181818;stroke-width:1;"/><text fill="#000000" font-family="sans-serif" font-size="13" lengthAdjust="spacing" textLength="73.8931" x="569" y="428.3638">scenarioIds</text></g><!--link Draft to Kiwi--><g class="link" data-entity-1="Draft" data-entity-2="Kiwi" data-source-line="69" data-uid="lnk12" id="link_Draft_Kiwi"><path codeLine="69" d="M536.23,292.7269 C595.52,340.4169 672.27,403.5869 738,462.2969 C746.69,470.0569 751.32,474.2549 760.11,482.5649" fill="none" id="Draft-to-Kiwi" style="stroke:#181818;stroke-width:1;"/><polygon fill="#181818" points="764.47,486.6869,760.6779,477.5973,760.8367,483.2519,755.182,483.4107,764.47,486.6869" style="stroke:#181818;stroke-width:1;"/><text fill="#000000" font-family="sans-serif" font-size="13" lengthAdjust="spacing" textLength="57.1226" x="700" y="428.3638">publish()</text></g><!--SRC=[XLDDRzim3BtdLn0zROS0lVJYmu2iNOjWw5RKwsae1bbc4Yssv9BqigpOVnyb9usIUkYD7zBZutkIE6aGBX_EBs0Ad_YfnzP0PyZ0p68dXc0BTttLEAlXfU70K2FSKO-LqOWr-HY8J1re8g432L05aT12xGYjkE0dl7O-GhR0ApsuSNu92zCmPXtR6EQP2Bcg5vpRu4lt1-5yCa4lJhPmLYApefs1OTZ5y3m1-E7g0hvMFtNOlDQyen3ZBwR50bW1_LAhcq3hHHCsjw4-bFyUq1yOTJjCwBju5Bstypg3zVcK3EwwzsbtqzpZKwzAjDf9uDVtexYqEC8L_2rPUZGr6tEpGb89IulUa0jfm4qvEa2YqHda0etqb5V4BBc0xsNA7r_l6YaU7s31RgXW5tDB2ehrJAbVQP0plIAp60H8qIX57boTdrJxjZMqpOZeixFakgXlLhKwSHbeUsBy-7DuUxMTf4DzJ-Sn0Rf0kbDsdKMrvApm2uaJEz-t5L9a5xoe5jcPjTku-CmYaPTZGt5OvB-DqmtZz-HLfhikX97mk1MV5Gg-NTwMoOwKFQSdns9F-RmMVo_paSHlAQBJ1zkdqmyldxSu69vrzv-lI1vb3VqunM1KLjJ7NkHUPQsqMB5NvztxVm00]--></g></svg>