<svg xmlns="http://www.w3.org/2000/svg" xmlns:xlink="http://www.w3.org/1999/xlink" contentStyleType="text/css" data-diagram-type="CLASS" height="593px" preserveAspectRatio="none" style="width:533px;height:593px;background:#FFFFFF;" version="1.1" viewBox="0 0 533 593" width="533px" zoomAndPan="magnify"><title>CU-30 - Aceptar y publicar caso de prueba</title><defs/><g><g class="title" data-source-line="5"><text fill="#000000" font-family="sans-serif" font-size="14" font-weight="bold" lengthAdjust="spacing" textLength="333.0127" x="93.3848" y="22.9951">CU-30 - Aceptar y publicar caso de prueba</text></g><!--cluster Vista--><g class="cluster" data-entity="Vista" data-source-line="7" data-uid="ent0002" id="cluster_Vista"><rect fill="none" height="99" rx="2.5" ry="2.5" style="stroke:#000000;stroke-width:1.5;" width="140" x="212" y="44.2969"/><text fill="#000000" font-family="sans-serif" font-size="14" font-weight="bold" lengthAdjust="spacing" textLength="40.1064" x="261.9468" y="59.292">Vista</text></g><!--cluster Controlador--><g class="cluster" data-entity="Controlador" data-source-line="11" data-uid="ent0004" id="cluster_Controlador"><rect fill="none" height="99" rx="2.5" ry="2.5" style="stroke:#000000;stroke-width:1.5;" width="170" x="197" y="192.2969"/><text fill="#000000" font-family="sans-serif" font-size="14" font-weight="bold" lengthAdjust="spacing" textLength="93.8643" x="235.0679" y="207.292">Controlador</text></g><!--cluster Servicio--><g class="cluster" data-entity="Servicio" data-source-line="15" data-uid="ent0006" id="cluster_Servicio"><rect fill="none" height="99" rx="2.5" ry="2.5" style="stroke:#000000;stroke-width:1.5;" width="196" x="10" y="340.2969"/><text fill="#000000" font-family="sans-serif" font-size="14" font-weight="bold" lengthAdjust="spacing" textLength="63.123" x="76.4385" y="355.292">Servicio</text></g><!--cluster Modelo--><g class="cluster" data-entity="Modelo" data-source-line="19" data-uid="ent0008" id="cluster_Modelo"><rect fill="none" height="99" rx="2.5" ry="2.5" style="stroke:#000000;stroke-width:1.5;" width="100" x="249" y="340.2969"/><text fill="#000000" font-family="sans-serif" font-size="14" font-weight="bold" lengthAdjust="spacing" textLength="57.4834" x="270.2583" y="355.292">Modelo</text></g><!--cluster Sistema externo--><g class="cluster" data-entity="Sistema externo" data-source-line="23" data-uid="ent0010" id="cluster_Sistema externo"><rect fill="none" height="99" rx="2.5" ry="2.5" style="stroke:#000000;stroke-width:1.5;" width="145" x="7" y="488.2969"/><text fill="#000000" font-family="sans-serif" font-size="14" font-weight="bold" lengthAdjust="spacing" textLength="129.5137" x="14.7432" y="503.292">Sistema externo</text></g><!--class DraftsView--><g class="entity" data-entity="DraftsView" data-source-line="8" data-uid="ent0003" id="entity_DraftsView"><rect fill="#F1F1F1" height="48" rx="2.5" ry="2.5" style="stroke:#181818;stroke-width:0.5;" width="108.3574" x="228" y="79.2969"/><ellipse cx="243" cy="95.2969" fill="#ADD1B2" rx="11" ry="11" style="stroke:#181818;stroke-width:1;"/><path d="M245.9688,100.9375 Q245.3906,101.2344 244.75,101.375 Q244.1094,101.5313 243.4063,101.5313 Q240.9063,101.5313 239.5781,99.8906 Q238.2656,98.2344 238.2656,95.1094 Q238.2656,91.9844 239.5781,90.3281 Q240.9063,88.6719 243.4063,88.6719 Q244.1094,88.6719 244.75,88.8281 Q245.4063,88.9844 245.9688,89.2813 L245.9688,92 Q245.3438,91.4219 244.75,91.1563 Q244.1563,90.875 243.5313,90.875 Q242.1875,90.875 241.5,91.9531 Q240.8125,93.0156 240.8125,95.1094 Q240.8125,97.2031 241.5,98.2813 Q242.1875,99.3438 243.5313,99.3438 Q244.1563,99.3438 244.75,99.0781 Q245.3438,98.7969 245.9688,98.2188 L245.9688,100.9375 Z " fill="#000000"/><text fill="#000000" font-family="sans-serif" font-size="14" lengthAdjust="spacing" textLength="76.3574" x="257" y="100.1436">DraftsView</text><line style="stroke:#181818;stroke-width:0.5;" x1="229" x2="335.3574" y1="111.2969" y2="111.2969"/><line style="stroke:#181818;stroke-width:0.5;" x1="229" x2="335.3574" y1="119.2969" y2="119.2969"/></g><!--class DraftController--><g class="entity" data-entity="DraftController" data-source-line="12" data-uid="ent0005" id="entity_DraftController"><rect fill="#F1F1F1" height="48" rx="2.5" ry="2.5" style="stroke:#181818;stroke-width:0.5;" width="136.7061" x="213.5" y="227.2969"/><ellipse cx="228.5" cy="243.2969" fill="#ADD1B2" rx="11" ry="11" style="stroke:#181818;stroke-width:1;"/><path d="M231.4688,248.9375 Q230.8906,249.2344 230.25,249.375 Q229.6094,249.5313 228.9063,249.5313 Q226.4063,249.5313 225.0781,247.8906 Q223.7656,246.2344 223.7656,243.1094 Q223.7656,239.9844 225.0781,238.3281 Q226.4063,236.6719 228.9063,236.6719 Q229.6094,236.6719 230.25,236.8281 Q230.9063,236.9844 231.4688,237.2813 L231.4688,240 Q230.8438,239.4219 230.25,239.1563 Q229.6563,238.875 229.0313,238.875 Q227.6875,238.875 227,239.9531 Q226.3125,241.0156 226.3125,243.1094 Q226.3125,245.2031 227,246.2813 Q227.6875,247.3438 229.0313,247.3438 Q229.6563,247.3438 230.25,247.0781 Q230.8438,246.7969 231.4688,246.2188 L231.4688,248.9375 Z " fill="#000000"/><text fill="#000000" font-family="sans-serif" font-size="14" lengthAdjust="spacing" textLength="104.7061" x="242.5" y="248.1436">DraftController</text><line style="stroke:#181818;stroke-width:0.5;" x1="214.5" x2="349.2061" y1="259.2969" y2="259.2969"/><line style="stroke:#181818;stroke-width:0.5;" x1="214.5" x2="349.2061" y1="267.2969" y2="267.2969"/></g><!--class ManualKiwiService--><g class="entity" data-entity="ManualKiwiService" data-source-line="16" data-uid="ent0007" id="entity_ManualKiwiService"><rect fill="#F1F1F1" height="48" rx="2.5" ry="2.5" style="stroke:#181818;stroke-width:0.5;" width="163.0244" x="26.5" y="375.2969"/><ellipse cx="41.5" cy="391.2969" fill="#ADD1B2" rx="11" ry="11" style="stroke:#181818;stroke-width:1;"/><path d="M44.4688,396.9375 Q43.8906,397.2344 43.25,397.375 Q42.6094,397.5313 41.9063,397.5313 Q39.4063,397.5313 38.0781,395.8906 Q36.7656,394.2344 36.7656,391.1094 Q36.7656,387.9844 38.0781,386.3281 Q39.4063,384.6719 41.9063,384.6719 Q42.6094,384.6719 43.25,384.8281 Q43.9063,384.9844 44.4688,385.2813 L44.4688,388 Q43.8438,387.4219 43.25,387.1563 Q42.6563,386.875 42.0313,386.875 Q40.6875,386.875 40,387.9531 Q39.3125,389.0156 39.3125,391.1094 Q39.3125,393.2031 40,394.2813 Q40.6875,395.3438 42.0313,395.3438 Q42.6563,395.3438 43.25,395.0781 Q43.8438,394.7969 44.4688,394.2188 L44.4688,396.9375 Z " fill="#000000"/><text fill="#000000" font-family="sans-serif" font-size="14" lengthAdjust="spacing" textLength="131.0244" x="55.5" y="396.1436">ManualKiwiService</text><line style="stroke:#181818;stroke-width:0.5;" x1="27.5" x2="188.5244" y1="407.2969" y2="407.2969"/><line style="stroke:#181818;stroke-width:0.5;" x1="27.5" x2="188.5244" y1="415.2969" y2="415.2969"/></g><!--class Draft--><g class="entity" data-entity="Draft" data-source-line="20" data-uid="ent0009" id="entity_Draft"><rect fill="#F1F1F1" height="48" rx="2.5" ry="2.5" style="stroke:#181818;stroke-width:0.5;" width="67.5332" x="265" y="375.2969"/><ellipse cx="280" cy="391.2969" fill="#ADD1B2" rx="11" ry="11" style="stroke:#181818;stroke-width:1;"/><path d="M282.9688,396.9375 Q282.3906,397.2344 281.75,397.375 Q281.1094,397.5313 280.4063,397.5313 Q277.9063,397.5313 276.5781,395.8906 Q275.2656,394.2344 275.2656,391.1094 Q275.2656,387.9844 276.5781,386.3281 Q277.9063,384.6719 280.4063,384.6719 Q281.1094,384.6719 281.75,384.8281 Q282.4063,384.9844 282.9688,385.2813 L282.9688,388 Q282.3438,387.4219 281.75,387.1563 Q281.1563,386.875 280.5313,386.875 Q279.1875,386.875 278.5,387.9531 Q277.8125,389.0156 277.8125,391.1094 Q277.8125,393.2031 278.5,394.2813 Q279.1875,395.3438 280.5313,395.3438 Q281.1563,395.3438 281.75,395.0781 Q282.3438,394.7969 282.9688,394.2188 L282.9688,396.9375 Z " fill="#000000"/><text fill="#000000" font-family="sans-serif" font-size="14" lengthAdjust="spacing" textLength="35.5332" x="294" y="396.1436">Draft</text><line style="stroke:#181818;stroke-width:0.5;" x1="266" x2="331.5332" y1="407.2969" y2="407.2969"/><line style="stroke:#181818;stroke-width:0.5;" x1="266" x2="331.5332" y1="415.2969" y2="415.2969"/></g><!--class KiwiTCMS--><g class="entity" data-entity="KiwiTCMS" data-source-line="24" data-uid="ent0011" id="entity_KiwiTCMS"><rect fill="#F1F1F1" height="48" rx="2.5" ry="2.5" style="stroke:#181818;stroke-width:0.5;" width="99.7031" x="29" y="523.2969"/><ellipse cx="44" cy="539.2969" fill="#ADD1B2" rx="11" ry="11" style="stroke:#181818;stroke-width:1;"/><path d="M46.9688,544.9375 Q46.3906,545.2344 45.75,545.375 Q45.1094,545.5313 44.4063,545.5313 Q41.9063,545.5313 40.5781,543.8906 Q39.2656,542.2344 39.2656,539.1094 Q39.2656,535.9844 40.5781,534.3281 Q41.9063,532.6719 44.4063,532.6719 Q45.1094,532.6719 45.75,532.8281 Q46.4063,532.9844 46.9688,533.2813 L46.9688,536 Q46.3438,535.4219 45.75,535.1563 Q45.1563,534.875 44.5313,534.875 Q43.1875,534.875 42.5,535.9531 Q41.8125,537.0156 41.8125,539.1094 Q41.8125,541.2031 42.5,542.2813 Q43.1875,543.3438 44.5313,543.3438 Q45.1563,543.3438 45.75,543.0781 Q46.3438,542.7969 46.9688,542.2188 L46.9688,544.9375 Z " fill="#000000"/><text fill="#000000" font-family="sans-serif" font-size="14" lengthAdjust="spacing" textLength="67.7031" x="58" y="544.1436">KiwiTCMS</text><line style="stroke:#181818;stroke-width:0.5;" x1="30" x2="127.7031" y1="555.2969" y2="555.2969"/><line style="stroke:#181818;stroke-width:0.5;" x1="30" x2="127.7031" y1="563.2969" y2="563.2969"/></g><!--link DraftsView to DraftController--><g class="link" data-entity-1="DraftsView" data-entity-2="DraftController" data-source-line="27" data-uid="lnk12" id="link_DraftsView_DraftController"><path codeLine="27" d="M282,127.4269 C282,154.7669 282,193.9769 282,221.2669" fill="none" id="DraftsView-to-DraftController" style="stroke:#181818;stroke-width:1;"/><polygon fill="#181818" points="282,227.2669,286,218.2669,282,222.2669,278,218.2669,282,227.2669" style="stroke:#181818;stroke-width:1;"/><text fill="#000000" font-family="sans-serif" font-size="13" lengthAdjust="spacing" textLength="176.979" x="283" y="172.3638">POST /api/drafts/:id/publish</text></g><!--link DraftController to Draft--><g class="link" data-entity-1="DraftController" data-entity-2="Draft" data-source-line="28" data-uid="lnk13" id="link_DraftController_Draft"><path codeLine="28" d="M280.47,275.2969 C279.88,285.1469 279.29,296.7769 279,307.2969 C278.79,314.8469 278.01,316.8069 279,324.2969 C281.31,341.7069 284.7616,355.1128 289.3016,369.5628" fill="none" id="DraftController-to-Draft" style="stroke:#181818;stroke-width:1;"/><polygon fill="#181818" points="291.1,375.2869,292.2184,365.5017,289.6013,370.5168,284.5863,367.8997,291.1,375.2869" style="stroke:#181818;stroke-width:1;"/><text fill="#000000" font-family="sans-serif" font-size="13" lengthAdjust="spacing" textLength="111.4268" x="280" y="320.3638">obtener borrador</text></g><!--link DraftController to Draft--><g class="link" data-entity-1="DraftController" data-entity-2="Draft" data-source-line="32" data-uid="lnk17" id="link_DraftController_Draft"><path codeLine="32" d="M350.67,270.6969 C368.46,278.9069 385.54,290.6369 396,307.2969 C416.57,340.0569 374.1597,366.4405 338.6097,382.4705" fill="none" id="DraftController-to-Draft-1" style="stroke:#181818;stroke-width:1;"/><polygon fill="#181818" points="333.14,384.9369,342.9887,384.8838,337.698,382.8816,339.7003,377.5909,333.14,384.9369" style="stroke:#181818;stroke-width:1;"/><text fill="#000000" font-family="sans-serif" font-size="13" lengthAdjust="spacing" textLength="124.7822" x="401" y="320.3638">guardar kiwiCaseId</text></g><!--link DraftController to ManualKiwiService--><g class="link" data-entity-1="DraftController" data-entity-2="ManualKiwiService" data-source-line="29" data-uid="lnk14" id="link_DraftController_ManualKiwiService"><path codeLine="29" d="M213.44,264.7969 C186.47,272.8569 157.18,285.9969 137,307.2969 C119.55,325.7169 113.412,348.6721 110.642,368.9521" fill="none" id="DraftController-to-ManualKiwiService" style="stroke:#181818;stroke-width:1;"/><polygon fill="#181818" points="109.83,374.8969,115.0112,366.521,110.5067,369.9429,107.0848,365.4383,109.83,374.8969" style="stroke:#181818;stroke-width:1;"/><text fill="#000000" font-family="sans-serif" font-size="13" lengthAdjust="spacing" textLength="132.3931" x="138" y="320.3638">publishDraftToKiwi()</text></g><!--link ManualKiwiService to KiwiTCMS--><g class="link" data-entity-1="ManualKiwiService" data-entity-2="KiwiTCMS" data-source-line="30" data-uid="lnk15" id="link_ManualKiwiService_KiwiTCMS"><path codeLine="30" d="M65.32,423.5069 C54.02,431.9269 43.25,442.5569 37,455.2969 C25.82,478.1069 37.2433,499.8591 52.4033,518.3291" fill="none" id="ManualKiwiService-to-KiwiTCMS" style="stroke:#181818;stroke-width:1;"/><polygon fill="#181818" points="56.21,522.9669,53.5919,513.4724,53.0378,519.102,47.4081,518.5479,56.21,522.9669" style="stroke:#181818;stroke-width:1;"/><text fill="#000000" font-family="sans-serif" font-size="13" lengthAdjust="spacing" textLength="66.2695" x="38" y="468.3638">Auth.login</text></g><!--link ManualKiwiService to KiwiTCMS--><g class="link" data-entity-1="ManualKiwiService" data-entity-2="KiwiTCMS" data-source-line="31" data-uid="lnk16" id="link_ManualKiwiService_KiwiTCMS"><path codeLine="31" d="M110.72,423.5369 C111.8,437.7469 112.13,456.2269 109,472.2969 C105.55,489.9869 100.4352,503.3629 93.7052,517.5929" fill="none" id="ManualKiwiService-to-KiwiTCMS-1" style="stroke:#181818;stroke-width:1;"/><polygon fill="#181818" points="91.14,523.0169,98.6038,516.5911,93.2777,518.4969,91.3719,513.1707,91.14,523.0169" style="stroke:#181818;stroke-width:1;"/><text fill="#000000" font-family="sans-serif" font-size="13" lengthAdjust="spacing" textLength="105.3076" x="113" y="468.3638">TestCase.create</text></g><!--SRC=[XPB1JiCm44Jl_efLJt18KubR3qXLk5Ie0YcXzuspJQswThJUK0hYtt7QKfe6mStol1dDM0uRunfat4A3UeCrvRAt14nQqDMML3W3OOsLtnbNmmfjk5IqnH1c8cpALcYklSlDEy54AJ4IqxANv6u22SmqDO8CUsZQqXeTZng3XugWuPPALEhK0aPB4mH7yA7W60yFZ2i9IqCxzNd1PTu9UnkhyO0-QPQuPyc9Nuqs_f9Ve6lHFfgTEQhKSonyHTOFylkfiJ1j4UXDY5qFxcABR95t_CyCI9BxwvumXUUdl80K6vDM1pITcYezl5TOgsly716DlXHoyQxqpDrp_0eFTaRZAVo05xxJRcxL4EpitqkYQzRAUcnzRTp_R451CWmqramezEUCkaMkui_OH7ldcLTV]--></g></svg>