<svg xmlns="http://www.w3.org/2000/svg" xmlns:xlink="http://www.w3.org/1999/xlink" contentStyleType="text/css" data-diagram-type="CLASS" height="396px" preserveAspectRatio="none" style="width:400px;height:396px;background:#FFFFFF;" version="1.1" viewBox="0 0 400 396" width="400px" zoomAndPan="magnify"><title>TABLAS SQLITE DEL SUBSISTEMA AUTOM&#193;TICO</title><defs/><g><g class="title" data-source-line="1"><text fill="#000000" font-family="sans-serif" font-size="14" font-weight="bold" lengthAdjust="spacing" textLength="372.4561" x="10" y="22.9951">TABLAS SQLITE DEL SUBSISTEMA AUTOM&#193;TICO</text></g><!--class Meta--><g class="entity" data-entity="Meta" data-source-line="6" data-uid="ent0002" id="entity_Meta"><rect fill="#F1F1F1" height="80.5938" rx="2.5" ry="2.5" style="stroke:#181818;stroke-width:0.5;" width="193.3896" x="20.5806" y="300.2969"/><ellipse cx="35.5806" cy="316.2969" fill="#ADD1B2" rx="11" ry="11" style="stroke:#181818;stroke-width:1;"/><path d="M39.6899,322.2969 L31.9712,322.2969 L31.9712,309.9063 L39.6899,309.9063 L39.6899,312.0625 L34.4243,312.0625 L34.4243,314.7344 L39.1899,314.7344 L39.1899,316.8906 L34.4243,316.8906 L34.4243,320.1406 L39.6899,320.1406 L39.6899,322.2969 Z " fill="#000000"/><text fill="#000000" font-family="sans-serif" font-size="14" lengthAdjust="spacing" textLength="161.3896" x="49.5806" y="321.1436">adk_internal_metadata</text><line style="stroke:#181818;stroke-width:0.5;" x1="21.5806" x2="212.9702" y1="332.2969" y2="332.2969"/><text fill="#000000" font-family="sans-serif" font-size="14" lengthAdjust="spacing" textLength="25.0059" x="26.5806" y="349.292">key</text><text fill="#000000" font-family="sans-serif" font-size="14" lengthAdjust="spacing" textLength="38.2402" x="26.5806" y="365.5889">value</text><line style="stroke:#181818;stroke-width:0.5;" x1="21.5806" x2="212.9702" y1="372.8906" y2="372.8906"/></g><!--class Sessions--><g class="entity" data-entity="Sessions" data-source-line="11" data-uid="ent0003" id="entity_Sessions"><rect fill="#F1F1F1" height="129.4844" rx="2.5" ry="2.5" style="stroke:#181818;stroke-width:0.5;" width="99.958" x="67.0806" y="136.2969"/><ellipse cx="86.0589" cy="152.2969" fill="#ADD1B2" rx="11" ry="11" style="stroke:#181818;stroke-width:1;"/><path d="M90.1683,158.2969 L82.4496,158.2969 L82.4496,145.9063 L90.1683,145.9063 L90.1683,148.0625 L84.9027,148.0625 L84.9027,150.7344 L89.6683,150.7344 L89.6683,152.8906 L84.9027,152.8906 L84.9027,156.1406 L90.1683,156.1406 L90.1683,158.2969 Z " fill="#000000"/><text fill="#000000" font-family="sans-serif" font-size="14" lengthAdjust="spacing" textLength="59.1172" x="100.943" y="157.1436">sessions</text><line style="stroke:#181818;stroke-width:0.5;" x1="68.0806" x2="166.0386" y1="168.2969" y2="168.2969"/><text fill="#000000" font-family="sans-serif" font-size="14" lengthAdjust="spacing" textLength="12.7764" x="73.0806" y="185.292">id</text><text fill="#000000" font-family="sans-serif" font-size="14" lengthAdjust="spacing" textLength="50.3125" x="73.0806" y="201.5889">user_id</text><text fill="#000000" font-family="sans-serif" font-size="14" lengthAdjust="spacing" textLength="35.4648" x="73.0806" y="217.8857">state</text><text fill="#000000" font-family="sans-serif" font-size="14" lengthAdjust="spacing" textLength="83.3779" x="73.0806" y="234.1826">create_time</text><text fill="#000000" font-family="sans-serif" font-size="14" lengthAdjust="spacing" textLength="87.958" x="73.0806" y="250.4795">update_time</text><line style="stroke:#181818;stroke-width:0.5;" x1="68.0806" x2="166.0386" y1="257.7813" y2="257.7813"/></g><!--class AppStates--><g class="entity" data-entity="AppStates" data-source-line="19" data-uid="ent0004" id="entity_AppStates"><rect fill="#F1F1F1" height="80.5938" rx="2.5" ry="2.5" style="stroke:#181818;stroke-width:0.5;" width="108.1113" x="275.5806" y="44.2969"/><ellipse cx="290.5806" cy="60.2969" fill="#ADD1B2" rx="11" ry="11" style="stroke:#181818;stroke-width:1;"/><path d="M294.6899,66.2969 L286.9712,66.2969 L286.9712,53.9063 L294.6899,53.9063 L294.6899,56.0625 L289.4243,56.0625 L289.4243,58.7344 L294.1899,58.7344 L294.1899,60.8906 L289.4243,60.8906 L289.4243,64.1406 L294.6899,64.1406 L294.6899,66.2969 Z " fill="#000000"/><text fill="#000000" font-family="sans-serif" font-size="14" lengthAdjust="spacing" textLength="76.1113" x="304.5806" y="65.1436">app_states</text><line style="stroke:#181818;stroke-width:0.5;" x1="276.5806" x2="382.6919" y1="76.2969" y2="76.2969"/><text fill="#000000" font-family="sans-serif" font-size="14" lengthAdjust="spacing" textLength="73.0557" x="281.5806" y="93.292">app_name</text><text fill="#000000" font-family="sans-serif" font-size="14" lengthAdjust="spacing" textLength="35.4648" x="281.5806" y="109.5889">state</text><line style="stroke:#181818;stroke-width:0.5;" x1="276.5806" x2="382.6919" y1="116.8906" y2="116.8906"/></g><!--class UserStates--><g class="entity" data-entity="UserStates" data-source-line="24" data-uid="ent0005" id="entity_UserStates"><rect fill="#F1F1F1" height="80.5938" rx="2.5" ry="2.5" style="stroke:#181818;stroke-width:0.5;" width="112.2949" x="273.5806" y="160.2969"/><ellipse cx="288.5806" cy="176.2969" fill="#ADD1B2" rx="11" ry="11" style="stroke:#181818;stroke-width:1;"/><path d="M292.6899,182.2969 L284.9712,182.2969 L284.9712,169.9063 L292.6899,169.9063 L292.6899,172.0625 L287.4243,172.0625 L287.4243,174.7344 L292.1899,174.7344 L292.1899,176.8906 L287.4243,176.8906 L287.4243,180.1406 L292.6899,180.1406 L292.6899,182.2969 Z " fill="#000000"/><text fill="#000000" font-family="sans-serif" font-size="14" lengthAdjust="spacing" textLength="80.2949" x="302.5806" y="181.1436">user_states</text><line style="stroke:#181818;stroke-width:0.5;" x1="274.5806" x2="384.8755" y1="192.2969" y2="192.2969"/><text fill="#000000" font-family="sans-serif" font-size="14" lengthAdjust="spacing" textLength="50.3125" x="279.5806" y="209.292">user_id</text><text fill="#000000" font-family="sans-serif" font-size="14" lengthAdjust="spacing" textLength="35.4648" x="279.5806" y="225.5889">state</text><line style="stroke:#181818;stroke-width:0.5;" x1="274.5806" x2="384.8755" y1="232.8906" y2="232.8906"/></g><!--class Events--><g class="entity" data-entity="Events" data-source-line="29" data-uid="ent0006" id="entity_Events"><rect fill="#F1F1F1" height="113.1875" rx="2.5" ry="2.5" style="stroke:#181818;stroke-width:0.5;" width="90.4082" x="284.5806" y="276.2969"/><ellipse cx="304.6387" cy="292.2969" fill="#ADD1B2" rx="11" ry="11" style="stroke:#181818;stroke-width:1;"/><path d="M308.748,298.2969 L301.0293,298.2969 L301.0293,285.9063 L308.748,285.9063 L308.748,288.0625 L303.4824,288.0625 L303.4824,290.7344 L308.248,290.7344 L308.248,292.8906 L303.4824,292.8906 L303.4824,296.1406 L308.748,296.1406 L308.748,298.2969 Z " fill="#000000"/><text fill="#000000" font-family="sans-serif" font-size="14" lengthAdjust="spacing" textLength="47.168" x="319.7627" y="297.1436">events</text><line style="stroke:#181818;stroke-width:0.5;" x1="285.5806" x2="373.9888" y1="308.2969" y2="308.2969"/><text fill="#000000" font-family="sans-serif" font-size="14" lengthAdjust="spacing" textLength="12.7764" x="290.5806" y="325.292">id</text><text fill="#000000" font-family="sans-serif" font-size="14" lengthAdjust="spacing" textLength="71.5996" x="290.5806" y="341.5889">session_id</text><text fill="#000000" font-family="sans-serif" font-size="14" lengthAdjust="spacing" textLength="78.4082" x="290.5806" y="357.8857">event_data</text><text fill="#000000" font-family="sans-serif" font-size="14" lengthAdjust="spacing" textLength="75.5166" x="290.5806" y="374.1826">timestamp</text><line style="stroke:#181818;stroke-width:0.5;" x1="285.5806" x2="373.9888" y1="381.4844" y2="381.4844"/></g><!--link Sessions to Events--><g class="link" data-entity-1="Sessions" data-entity-2="Events" data-source-line="36" data-uid="lnk7" id="link_Sessions_Events"><path codeLine="36" d="M167.1706,231.5769 C202.6406,253.8269 245.0676,280.4289 279.3476,301.9289" fill="none" id="Sessions-to-Events" style="stroke:#181818;stroke-width:1;"/><polygon fill="#181818" points="284.4306,305.1169,278.9314,296.9462,280.1947,302.4602,274.6808,303.7236,284.4306,305.1169" style="stroke:#181818;stroke-width:1;"/></g><!--link Sessions to UserStates--><g class="link" data-entity-1="Sessions" data-entity-2="UserStates" data-source-line="37" data-uid="lnk8" id="link_Sessions_UserStates"><path codeLine="37" d="M167.1706,200.7969 C199.0006,200.7969 234.5206,200.7969 267.4806,200.7969" fill="none" id="Sessions-to-UserStates" style="stroke:#181818;stroke-width:1;"/><polygon fill="#181818" points="273.4806,200.7969,264.4806,196.7969,268.4806,200.7969,264.4806,204.7969,273.4806,200.7969" style="stroke:#181818;stroke-width:1;"/></g><!--link Sessions to AppStates--><g class="link" data-entity-1="Sessions" data-entity-2="AppStates" data-source-line="38" data-uid="lnk9" id="link_Sessions_AppStates"><path codeLine="38" d="M167.1706,173.7469 C199.6006,155.8669 236.8558,135.343 270.0958,117.023" fill="none" id="Sessions-to-AppStates" style="stroke:#181818;stroke-width:1;"/><polygon fill="#181818" points="275.3506,114.1269,265.5377,114.9679,270.9716,116.5403,269.3992,121.9742,275.3506,114.1269" style="stroke:#181818;stroke-width:1;"/></g><!--SRC=[NP31ReCm38RlUGghzqfxWabquu04ggR0EVB0RQD2Y1BJgPjssBFjnHO20hfBuj_szySEQsu9okIG9nBaMvwLARocESZg83DPfaK2ILKUYz-VCdivYfPE3Do3q-SBGwCTrQnx8_nL6uiEE_0NRFeFRSvmmjRJfbAtw7t2xFJxm9JLlP7wa-1923Ai-GuxRAvA6oPdi5KTCJR8k0FqK0G1NmBWIlTmth0TI7olf2Vlmnm-DijPH40tuHWyEHKZpyWKxjfH21JhRbI3RHQrSKLhLGGctyHQ6LKq7ei68pwPRi3uteQiWjwW_yVPa7GBqGIbCLoNc7USmDYdnly9OfmxE7LsT5gst- -VPu_7t3hCOtvPxmy0]--></g></svg>