<svg xmlns="http://www.w3.org/2000/svg" xmlns:xlink="http://www.w3.org/1999/xlink" contentStyleType="text/css" data-diagram-type="CLASS" height="355px" preserveAspectRatio="none" style="width:2211px;height:355px;background:#FFFFFF;" version="1.1" viewBox="0 0 2211 355" width="2211px" zoomAndPan="magnify"><title>VISTAS</title><defs/><g><g class="title" data-source-line="1"><text fill="#000000" font-family="sans-serif" font-size="14" font-weight="bold" lengthAdjust="spacing" textLength="56.5947" x="1070.2026" y="22.9951">VISTAS</text></g><!--cluster Aplicacion Web kiwi-mvc (SPA)--><g class="cluster" data-entity="Aplicacion Web kiwi-mvc .SPA." data-source-line="6" data-uid="ent0002" id="cluster_Aplicacion Web kiwi-mvc .SPA."><path d="M8.5,43.2969 L253.6045,43.2969 A3.75,3.75 0 0 1 256.1045,45.7969 L263.1045,65.5938 L1959.5,65.5938 A2.5,2.5 0 0 1 1962,68.0938 L1962,222.7969 A2.5,2.5 0 0 1 1959.5,225.2969 L8.5,225.2969 A2.5,2.5 0 0 1 6,222.7969 L6,45.7969 A2.5,2.5 0 0 1 8.5,43.2969" fill="none" style="stroke:#000000;stroke-width:1.5;"/><line style="stroke:#000000;stroke-width:1.5;" x1="6" x2="263.1045" y1="65.5938" y2="65.5938"/><text fill="#000000" font-family="sans-serif" font-size="14" font-weight="bold" lengthAdjust="spacing" textLength="244.1045" x="10" y="58.292">Aplicacion Web kiwi-mvc (SPA)</text></g><!--cluster Interfaz Agent_ApiKiwi (/dev-ui/)--><g class="cluster" data-entity="Interfaz Agent_ApiKiwi ..dev-ui.." data-source-line="18" data-uid="ent0012" id="cluster_Interfaz Agent_ApiKiwi ..dev-ui.."><path d="M1473,249.2969 L1730.9902,249.2969 A3.75,3.75 0 0 1 1733.4902,251.7969 L1740.4902,271.5938 L2201.5,271.5938 A2.5,2.5 0 0 1 2204,274.0938 L2204,345.7969 A2.5,2.5 0 0 1 2201.5,348.2969 L1473,348.2969 A2.5,2.5 0 0 1 1470.5,345.7969 L1470.5,251.7969 A2.5,2.5 0 0 1 1473,249.2969" fill="none" style="stroke:#000000;stroke-width:1.5;"/><line style="stroke:#000000;stroke-width:1.5;" x1="1470.5" x2="1740.4902" y1="271.5938" y2="271.5938"/><text fill="#000000" font-family="sans-serif" font-size="14" font-weight="bold" lengthAdjust="spacing" textLength="256.9902" x="1474.5" y="264.292">Interfaz Agent_ApiKiwi (/dev-ui/)</text></g><!--class Login--><g class="entity" data-entity="Login" data-source-line="7" data-uid="ent0003" id="entity_Login"><rect fill="#F1F1F1" height="48" rx="2.5" ry="2.5" style="stroke:#181818;stroke-width:0.5;" width="70.0146" x="22" y="113.2969"/><ellipse cx="37" cy="129.2969" fill="#ADD1B2" rx="11" ry="11" style="stroke:#181818;stroke-width:1;"/><path d="M39.9688,134.9375 Q39.3906,135.2344 38.75,135.375 Q38.1094,135.5313 37.4063,135.5313 Q34.9063,135.5313 33.5781,133.8906 Q32.2656,132.2344 32.2656,129.1094 Q32.2656,125.9844 33.5781,124.3281 Q34.9063,122.6719 37.4063,122.6719 Q38.1094,122.6719 38.75,122.8281 Q39.4063,122.9844 39.9688,123.2813 L39.9688,126 Q39.3438,125.4219 38.75,125.1563 Q38.1563,124.875 37.5313,124.875 Q36.1875,124.875 35.5,125.9531 Q34.8125,127.0156 34.8125,129.1094 Q34.8125,131.2031 35.5,132.2813 Q36.1875,133.3438 37.5313,133.3438 Q38.1563,133.3438 38.75,133.0781 Q39.3438,132.7969 39.9688,132.2188 L39.9688,134.9375 Z " fill="#000000"/><text fill="#000000" font-family="sans-serif" font-size="14" lengthAdjust="spacing" textLength="38.0146" x="51" y="134.1436">Login</text><line style="stroke:#181818;stroke-width:0.5;" x1="23" x2="91.0146" y1="145.2969" y2="145.2969"/><line style="stroke:#181818;stroke-width:0.5;" x1="23" x2="91.0146" y1="153.2969" y2="153.2969"/></g><!--class Home--><g class="entity" data-entity="Home" data-source-line="8" data-uid="ent0004" id="entity_Home"><rect fill="#F1F1F1" height="48" rx="2.5" ry="2.5" style="stroke:#181818;stroke-width:0.5;" width="73.3438" x="153" y="113.2969"/><ellipse cx="168" cy="129.2969" fill="#ADD1B2" rx="11" ry="11" style="stroke:#181818;stroke-width:1;"/><path d="M170.9688,134.9375 Q170.3906,135.2344 169.75,135.375 Q169.1094,135.5313 168.4063,135.5313 Q165.9063,135.5313 164.5781,133.8906 Q163.2656,132.2344 163.2656,129.1094 Q163.2656,125.9844 164.5781,124.3281 Q165.9063,122.6719 168.4063,122.6719 Q169.1094,122.6719 169.75,122.8281 Q170.4063,122.9844 170.9688,123.2813 L170.9688,126 Q170.3438,125.4219 169.75,125.1563 Q169.1563,124.875 168.5313,124.875 Q167.1875,124.875 166.5,125.9531 Q165.8125,127.0156 165.8125,129.1094 Q165.8125,131.2031 166.5,132.2813 Q167.1875,133.3438 168.5313,133.3438 Q169.1563,133.3438 169.75,133.0781 Q170.3438,132.7969 170.9688,132.2188 L170.9688,134.9375 Z " fill="#000000"/><text fill="#000000" font-family="sans-serif" font-size="14" lengthAdjust="spacing" textLength="41.3438" x="182" y="134.1436">Home</text><line style="stroke:#181818;stroke-width:0.5;" x1="154" x2="225.3438" y1="145.2969" y2="145.2969"/><line style="stroke:#181818;stroke-width:0.5;" x1="154" x2="225.3438" y1="153.2969" y2="153.2969"/></g><!--class GestionSesiones--><g class="entity" data-entity="GestionSesiones" data-source-line="9" data-uid="ent0005" id="entity_GestionSesiones"><rect fill="#F1F1F1" height="48" rx="2.5" ry="2.5" style="stroke:#181818;stroke-width:0.5;" width="147.6025" x="287" y="113.2969"/><ellipse cx="302" cy="129.2969" fill="#ADD1B2" rx="11" ry="11" style="stroke:#181818;stroke-width:1;"/><path d="M304.9688,134.9375 Q304.3906,135.2344 303.75,135.375 Q303.1094,135.5313 302.4063,135.5313 Q299.9063,135.5313 298.5781,133.8906 Q297.2656,132.2344 297.2656,129.1094 Q297.2656,125.9844 298.5781,124.3281 Q299.9063,122.6719 302.4063,122.6719 Q303.1094,122.6719 303.75,122.8281 Q304.4063,122.9844 304.9688,123.2813 L304.9688,126 Q304.3438,125.4219 303.75,125.1563 Q303.1563,124.875 302.5313,124.875 Q301.1875,124.875 300.5,125.9531 Q299.8125,127.0156 299.8125,129.1094 Q299.8125,131.2031 300.5,132.2813 Q301.1875,133.3438 302.5313,133.3438 Q303.1563,133.3438 303.75,133.0781 Q304.3438,132.7969 304.9688,132.2188 L304.9688,134.9375 Z " fill="#000000"/><text fill="#000000" font-family="sans-serif" font-size="14" lengthAdjust="spacing" textLength="115.6025" x="316" y="134.1436">GestionSesiones</text><line style="stroke:#181818;stroke-width:0.5;" x1="288" x2="433.6025" y1="145.2969" y2="145.2969"/><line style="stroke:#181818;stroke-width:0.5;" x1="288" x2="433.6025" y1="153.2969" y2="153.2969"/></g><!--class EleccionFlujo--><g class="entity" data-entity="EleccionFlujo" data-source-line="10" data-uid="ent0006" id="entity_EleccionFlujo"><rect fill="#F1F1F1" height="48" rx="2.5" ry="2.5" style="stroke:#181818;stroke-width:0.5;" width="123.3418" x="748" y="113.2969"/><ellipse cx="763" cy="129.2969" fill="#ADD1B2" rx="11" ry="11" style="stroke:#181818;stroke-width:1;"/><path d="M765.9688,134.9375 Q765.3906,135.2344 764.75,135.375 Q764.1094,135.5313 763.4063,135.5313 Q760.9063,135.5313 759.5781,133.8906 Q758.2656,132.2344 758.2656,129.1094 Q758.2656,125.9844 759.5781,124.3281 Q760.9063,122.6719 763.4063,122.6719 Q764.1094,122.6719 764.75,122.8281 Q765.4063,122.9844 765.9688,123.2813 L765.9688,126 Q765.3438,125.4219 764.75,125.1563 Q764.1563,124.875 763.5313,124.875 Q762.1875,124.875 761.5,125.9531 Q760.8125,127.0156 760.8125,129.1094 Q760.8125,131.2031 761.5,132.2813 Q762.1875,133.3438 763.5313,133.3438 Q764.1563,133.3438 764.75,133.0781 Q765.3438,132.7969 765.9688,132.2188 L765.9688,134.9375 Z " fill="#000000"/><text fill="#000000" font-family="sans-serif" font-size="14" lengthAdjust="spacing" textLength="91.3418" x="777" y="134.1436">EleccionFlujo</text><line style="stroke:#181818;stroke-width:0.5;" x1="749" x2="870.3418" y1="145.2969" y2="145.2969"/><line style="stroke:#181818;stroke-width:0.5;" x1="749" x2="870.3418" y1="153.2969" y2="153.2969"/></g><!--class Paso1_Documentacion--><g class="entity" data-entity="Paso1_Documentacion" data-source-line="11" data-uid="ent0007" id="entity_Paso1_Documentacion"><rect fill="#F1F1F1" height="48" rx="2.5" ry="2.5" style="stroke:#181818;stroke-width:0.5;" width="190.9219" x="496" y="113.2969"/><ellipse cx="511" cy="129.2969" fill="#ADD1B2" rx="11" ry="11" style="stroke:#181818;stroke-width:1;"/><path d="M513.9688,134.9375 Q513.3906,135.2344 512.75,135.375 Q512.1094,135.5313 511.4063,135.5313 Q508.9063,135.5313 507.5781,133.8906 Q506.2656,132.2344 506.2656,129.1094 Q506.2656,125.9844 507.5781,124.3281 Q508.9063,122.6719 511.4063,122.6719 Q512.1094,122.6719 512.75,122.8281 Q513.4063,122.9844 513.9688,123.2813 L513.9688,126 Q513.3438,125.4219 512.75,125.1563 Q512.1563,124.875 511.5313,124.875 Q510.1875,124.875 509.5,125.9531 Q508.8125,127.0156 508.8125,129.1094 Q508.8125,131.2031 509.5,132.2813 Q510.1875,133.3438 511.5313,133.3438 Q512.1563,133.3438 512.75,133.0781 Q513.3438,132.7969 513.9688,132.2188 L513.9688,134.9375 Z " fill="#000000"/><text fill="#000000" font-family="sans-serif" font-size="14" lengthAdjust="spacing" textLength="158.9219" x="525" y="134.1436">Paso1_Documentacion</text><line style="stroke:#181818;stroke-width:0.5;" x1="497" x2="685.9219" y1="145.2969" y2="145.2969"/><line style="stroke:#181818;stroke-width:0.5;" x1="497" x2="685.9219" y1="153.2969" y2="153.2969"/></g><!--class Paso2_CasosUso_Requisitos--><g class="entity" data-entity="Paso2_CasosUso_Requisitos" data-source-line="12" data-uid="ent0008" id="entity_Paso2_CasosUso_Requisitos"><rect fill="#F1F1F1" height="48" rx="2.5" ry="2.5" style="stroke:#181818;stroke-width:0.5;" width="227.9248" x="1047" y="78.2969"/><ellipse cx="1062" cy="94.2969" fill="#ADD1B2" rx="11" ry="11" style="stroke:#181818;stroke-width:1;"/><path d="M1064.9688,99.9375 Q1064.3906,100.2344 1063.75,100.375 Q1063.1094,100.5313 1062.4063,100.5313 Q1059.9063,100.5313 1058.5781,98.8906 Q1057.2656,97.2344 1057.2656,94.1094 Q1057.2656,90.9844 1058.5781,89.3281 Q1059.9063,87.6719 1062.4063,87.6719 Q1063.1094,87.6719 1063.75,87.8281 Q1064.4063,87.9844 1064.9688,88.2813 L1064.9688,91 Q1064.3438,90.4219 1063.75,90.1563 Q1063.1563,89.875 1062.5313,89.875 Q1061.1875,89.875 1060.5,90.9531 Q1059.8125,92.0156 1059.8125,94.1094 Q1059.8125,96.2031 1060.5,97.2813 Q1061.1875,98.3438 1062.5313,98.3438 Q1063.1563,98.3438 1063.75,98.0781 Q1064.3438,97.7969 1064.9688,97.2188 L1064.9688,99.9375 Z " fill="#000000"/><text fill="#000000" font-family="sans-serif" font-size="14" lengthAdjust="spacing" textLength="195.9248" x="1076" y="99.1436">Paso2_CasosUso_Requisitos</text><line style="stroke:#181818;stroke-width:0.5;" x1="1048" x2="1273.9248" y1="110.2969" y2="110.2969"/><line style="stroke:#181818;stroke-width:0.5;" x1="1048" x2="1273.9248" y1="118.2969" y2="118.2969"/></g><!--class Paso3_EscenariosGherkin--><g class="entity" data-entity="Paso3_EscenariosGherkin" data-source-line="13" data-uid="ent0009" id="entity_Paso3_EscenariosGherkin"><rect fill="#F1F1F1" height="48" rx="2.5" ry="2.5" style="stroke:#181818;stroke-width:0.5;" width="211.1563" x="1445" y="78.2969"/><ellipse cx="1460" cy="94.2969" fill="#ADD1B2" rx="11" ry="11" style="stroke:#181818;stroke-width:1;"/><path d="M1462.9688,99.9375 Q1462.3906,100.2344 1461.75,100.375 Q1461.1094,100.5313 1460.4063,100.5313 Q1457.9063,100.5313 1456.5781,98.8906 Q1455.2656,97.2344 1455.2656,94.1094 Q1455.2656,90.9844 1456.5781,89.3281 Q1457.9063,87.6719 1460.4063,87.6719 Q1461.1094,87.6719 1461.75,87.8281 Q1462.4063,87.9844 1462.9688,88.2813 L1462.9688,91 Q1462.3438,90.4219 1461.75,90.1563 Q1461.1563,89.875 1460.5313,89.875 Q1459.1875,89.875 1458.5,90.9531 Q1457.8125,92.0156 1457.8125,94.1094 Q1457.8125,96.2031 1458.5,97.2813 Q1459.1875,98.3438 1460.5313,98.3438 Q1461.1563,98.3438 1461.75,98.0781 Q1462.3438,97.7969 1462.9688,97.2188 L1462.9688,99.9375 Z " fill="#000000"/><text fill="#000000" font-family="sans-serif" font-size="14" lengthAdjust="spacing" textLength="179.1563" x="1474" y="99.1436">Paso3_EscenariosGherkin</text><line style="stroke:#181818;stroke-width:0.5;" x1="1446" x2="1655.1563" y1="110.2969" y2="110.2969"/><line style="stroke:#181818;stroke-width:0.5;" x1="1446" x2="1655.1563" y1="118.2969" y2="118.2969"/></g><!--class Paso4_Borrador_Publicacion--><g class="entity" data-entity="Paso4_Borrador_Publicacion" data-source-line="14" data-uid="ent0010" id="entity_Paso4_Borrador_Publicacion"><rect fill="#F1F1F1" height="48" rx="2.5" ry="2.5" style="stroke:#181818;stroke-width:0.5;" width="228.54" x="1717" y="78.2969"/><ellipse cx="1732" cy="94.2969" fill="#ADD1B2" rx="11" ry="11" style="stroke:#181818;stroke-width:1;"/><path d="M1734.9688,99.9375 Q1734.3906,100.2344 1733.75,100.375 Q1733.1094,100.5313 1732.4063,100.5313 Q1729.9063,100.5313 1728.5781,98.8906 Q1727.2656,97.2344 1727.2656,94.1094 Q1727.2656,90.9844 1728.5781,89.3281 Q1729.9063,87.6719 1732.4063,87.6719 Q1733.1094,87.6719 1733.75,87.8281 Q1734.4063,87.9844 1734.9688,88.2813 L1734.9688,91 Q1734.3438,90.4219 1733.75,90.1563 Q1733.1563,89.875 1732.5313,89.875 Q1731.1875,89.875 1730.5,90.9531 Q1729.8125,92.0156 1729.8125,94.1094 Q1729.8125,96.2031 1730.5,97.2813 Q1731.1875,98.3438 1732.5313,98.3438 Q1733.1563,98.3438 1733.75,98.0781 Q1734.3438,97.7969 1734.9688,97.2188 L1734.9688,99.9375 Z " fill="#000000"/><text fill="#000000" font-family="sans-serif" font-size="14" lengthAdjust="spacing" textLength="196.54" x="1746" y="99.1436">Paso4_Borrador_Publicacion</text><line style="stroke:#181818;stroke-width:0.5;" x1="1718" x2="1944.54" y1="110.2969" y2="110.2969"/><line style="stroke:#181818;stroke-width:0.5;" x1="1718" x2="1944.54" y1="118.2969" y2="118.2969"/></g><!--class PanelAutomatico--><g class="entity" data-entity="PanelAutomatico" data-source-line="15" data-uid="ent0011" id="entity_PanelAutomatico"><rect fill="#F1F1F1" height="48" rx="2.5" ry="2.5" style="stroke:#181818;stroke-width:0.5;" width="150.7607" x="1085.5" y="161.2969"/><ellipse cx="1100.5" cy="177.2969" fill="#ADD1B2" rx="11" ry="11" style="stroke:#181818;stroke-width:1;"/><path d="M1103.4688,182.9375 Q1102.8906,183.2344 1102.25,183.375 Q1101.6094,183.5313 1100.9063,183.5313 Q1098.4063,183.5313 1097.0781,181.8906 Q1095.7656,180.2344 1095.7656,177.1094 Q1095.7656,173.9844 1097.0781,172.3281 Q1098.4063,170.6719 1100.9063,170.6719 Q1101.6094,170.6719 1102.25,170.8281 Q1102.9063,170.9844 1103.4688,171.2813 L1103.4688,174 Q1102.8438,173.4219 1102.25,173.1563 Q1101.6563,172.875 1101.0313,172.875 Q1099.6875,172.875 1099,173.9531 Q1098.3125,175.0156 1098.3125,177.1094 Q1098.3125,179.2031 1099,180.2813 Q1099.6875,181.3438 1101.0313,181.3438 Q1101.6563,181.3438 1102.25,181.0781 Q1102.8438,180.7969 1103.4688,180.2188 L1103.4688,182.9375 Z " fill="#000000"/><text fill="#000000" font-family="sans-serif" font-size="14" lengthAdjust="spacing" textLength="118.7607" x="1114.5" y="182.1436">PanelAutomatico</text><line style="stroke:#181818;stroke-width:0.5;" x1="1086.5" x2="1235.2607" y1="193.2969" y2="193.2969"/><line style="stroke:#181818;stroke-width:0.5;" x1="1086.5" x2="1235.2607" y1="201.2969" y2="201.2969"/></g><!--class SesionAgente--><g class="entity" data-entity="SesionAgente" data-source-line="19" data-uid="ent0013" id="entity_SesionAgente"><rect fill="#F1F1F1" height="48" rx="2.5" ry="2.5" style="stroke:#181818;stroke-width:0.5;" width="128.1748" x="1486.5" y="284.2969"/><ellipse cx="1501.5" cy="300.2969" fill="#ADD1B2" rx="11" ry="11" style="stroke:#181818;stroke-width:1;"/><path d="M1504.4688,305.9375 Q1503.8906,306.2344 1503.25,306.375 Q1502.6094,306.5313 1501.9063,306.5313 Q1499.4063,306.5313 1498.0781,304.8906 Q1496.7656,303.2344 1496.7656,300.1094 Q1496.7656,296.9844 1498.0781,295.3281 Q1499.4063,293.6719 1501.9063,293.6719 Q1502.6094,293.6719 1503.25,293.8281 Q1503.9063,293.9844 1504.4688,294.2813 L1504.4688,297 Q1503.8438,296.4219 1503.25,296.1563 Q1502.6563,295.875 1502.0313,295.875 Q1500.6875,295.875 1500,296.9531 Q1499.3125,298.0156 1499.3125,300.1094 Q1499.3125,302.2031 1500,303.2813 Q1500.6875,304.3438 1502.0313,304.3438 Q1502.6563,304.3438 1503.25,304.0781 Q1503.8438,303.7969 1504.4688,303.2188 L1504.4688,305.9375 Z " fill="#000000"/><text fill="#000000" font-family="sans-serif" font-size="14" lengthAdjust="spacing" textLength="96.1748" x="1515.5" y="305.1436">SesionAgente</text><line style="stroke:#181818;stroke-width:0.5;" x1="1487.5" x2="1613.6748" y1="316.2969" y2="316.2969"/><line style="stroke:#181818;stroke-width:0.5;" x1="1487.5" x2="1613.6748" y1="324.2969" y2="324.2969"/></g><!--class RevisionBorradores--><g class="entity" data-entity="RevisionBorradores" data-source-line="20" data-uid="ent0014" id="entity_RevisionBorradores"><rect fill="#F1F1F1" height="48" rx="2.5" ry="2.5" style="stroke:#181818;stroke-width:0.5;" width="168.5137" x="1747" y="284.2969"/><ellipse cx="1762" cy="300.2969" fill="#ADD1B2" rx="11" ry="11" style="stroke:#181818;stroke-width:1;"/><path d="M1764.9688,305.9375 Q1764.3906,306.2344 1763.75,306.375 Q1763.1094,306.5313 1762.4063,306.5313 Q1759.9063,306.5313 1758.5781,304.8906 Q1757.2656,303.2344 1757.2656,300.1094 Q1757.2656,296.9844 1758.5781,295.3281 Q1759.9063,293.6719 1762.4063,293.6719 Q1763.1094,293.6719 1763.75,293.8281 Q1764.4063,293.9844 1764.9688,294.2813 L1764.9688,297 Q1764.3438,296.4219 1763.75,296.1563 Q1763.1563,295.875 1762.5313,295.875 Q1761.1875,295.875 1760.5,296.9531 Q1759.8125,298.0156 1759.8125,300.1094 Q1759.8125,302.2031 1760.5,303.2813 Q1761.1875,304.3438 1762.5313,304.3438 Q1763.1563,304.3438 1763.75,304.0781 Q1764.3438,303.7969 1764.9688,303.2188 L1764.9688,305.9375 Z " fill="#000000"/><text fill="#000000" font-family="sans-serif" font-size="14" lengthAdjust="spacing" textLength="136.5137" x="1776" y="305.1436">RevisionBorradores</text><line style="stroke:#181818;stroke-width:0.5;" x1="1748" x2="1914.5137" y1="316.2969" y2="316.2969"/><line style="stroke:#181818;stroke-width:0.5;" x1="1748" x2="1914.5137" y1="324.2969" y2="324.2969"/></g><!--class RevisionYPublicacion--><g class="entity" data-entity="RevisionYPublicacion" data-source-line="21" data-uid="ent0015" id="entity_RevisionYPublicacion"><rect fill="#F1F1F1" height="48" rx="2.5" ry="2.5" style="stroke:#181818;stroke-width:0.5;" width="178.9727" x="2009" y="284.2969"/><ellipse cx="2024" cy="300.2969" fill="#ADD1B2" rx="11" ry="11" style="stroke:#181818;stroke-width:1;"/><path d="M2026.9688,305.9375 Q2026.3906,306.2344 2025.75,306.375 Q2025.1094,306.5313 2024.4063,306.5313 Q2021.9063,306.5313 2020.5781,304.8906 Q2019.2656,303.2344 2019.2656,300.1094 Q2019.2656,296.9844 2020.5781,295.3281 Q2021.9063,293.6719 2024.4063,293.6719 Q2025.1094,293.6719 2025.75,293.8281 Q2026.4063,293.9844 2026.9688,294.2813 L2026.9688,297 Q2026.3438,296.4219 2025.75,296.1563 Q2025.1563,295.875 2024.5313,295.875 Q2023.1875,295.875 2022.5,296.9531 Q2021.8125,298.0156 2021.8125,300.1094 Q2021.8125,302.2031 2022.5,303.2813 Q2023.1875,304.3438 2024.5313,304.3438 Q2025.1563,304.3438 2025.75,304.0781 Q2026.3438,303.7969 2026.9688,303.2188 L2026.9688,305.9375 Z " fill="#000000"/><text fill="#000000" font-family="sans-serif" font-size="14" lengthAdjust="spacing" textLength="146.9727" x="2038" y="305.1436">RevisionYPublicacion</text><line style="stroke:#181818;stroke-width:0.5;" x1="2010" x2="2186.9727" y1="316.2969" y2="316.2969"/><line style="stroke:#181818;stroke-width:0.5;" x1="2010" x2="2186.9727" y1="324.2969" y2="324.2969"/></g><!--link Login to Home--><g class="link" data-entity-1="Login" data-entity-2="Home" data-source-line="24" data-uid="lnk16" id="link_Login_Home"><path codeLine="24" d="M92.29,137.2969 C110.86,137.2969 127.8,137.2969 146.62,137.2969" fill="none" id="Login-to-Home" style="stroke:#181818;stroke-width:1;"/><polygon fill="#181818" points="152.62,137.2969,143.62,133.2969,147.62,137.2969,143.62,141.2969,152.62,137.2969" style="stroke:#181818;stroke-width:1;"/></g><!--link Home to GestionSesiones--><g class="link" data-entity-1="Home" data-entity-2="GestionSesiones" data-source-line="25" data-uid="lnk17" id="link_Home_GestionSesiones"><path codeLine="25" d="M226.03,137.2969 C243.7,137.2969 259.74,137.2969 280.8,137.2969" fill="none" id="Home-to-GestionSesiones" style="stroke:#181818;stroke-width:1;"/><polygon fill="#181818" points="286.8,137.2969,277.8,133.2969,281.8,137.2969,277.8,141.2969,286.8,137.2969" style="stroke:#181818;stroke-width:1;"/></g><!--link GestionSesiones to Paso1_Documentacion--><g class="link" data-entity-1="GestionSesiones" data-entity-2="Paso1_Documentacion" data-source-line="26" data-uid="lnk18" id="link_GestionSesiones_Paso1_Documentacion"><path codeLine="26" d="M435.24,137.2969 C454.56,137.2969 469.68,137.2969 489.95,137.2969" fill="none" id="GestionSesiones-to-Paso1_Documentacion" style="stroke:#181818;stroke-width:1;"/><polygon fill="#181818" points="495.95,137.2969,486.95,133.2969,490.95,137.2969,486.95,141.2969,495.95,137.2969" style="stroke:#181818;stroke-width:1;"/></g><!--link Paso1_Documentacion to EleccionFlujo--><g class="link" data-entity-1="Paso1_Documentacion" data-entity-2="EleccionFlujo" data-source-line="27" data-uid="lnk19" id="link_Paso1_Documentacion_EleccionFlujo"><path codeLine="27" d="M687.24,137.2969 C707.76,137.2969 722.92,137.2969 741.71,137.2969" fill="none" id="Paso1_Documentacion-to-EleccionFlujo" style="stroke:#181818;stroke-width:1;"/><polygon fill="#181818" points="747.71,137.2969,738.71,133.2969,742.71,137.2969,738.71,141.2969,747.71,137.2969" style="stroke:#181818;stroke-width:1;"/></g><!--link EleccionFlujo to Paso2_CasosUso_Requisitos--><g class="link" data-entity-1="EleccionFlujo" data-entity-2="Paso2_CasosUso_Requisitos" data-source-line="28" data-uid="lnk20" id="link_EleccionFlujo_Paso2_CasosUso_Requisitos"><path codeLine="28" d="M871.38,131.1969 C919.69,126.3669 982.5798,120.0644 1040.9298,114.2244" fill="none" id="EleccionFlujo-to-Paso2_CasosUso_Requisitos" style="stroke:#181818;stroke-width:1;"/><polygon fill="#181818" points="1046.9,113.6269,1037.5464,110.5431,1041.9249,114.1248,1038.3431,118.5033,1046.9,113.6269" style="stroke:#181818;stroke-width:1;"/><text fill="#000000" font-family="sans-serif" font-size="13" lengthAdjust="spacing" textLength="89.6416" x="914.5" y="113.3638">modo manual</text></g><!--link Paso2_CasosUso_Requisitos to Paso3_EscenariosGherkin--><g class="link" data-entity-1="Paso2_CasosUso_Requisitos" data-entity-2="Paso3_EscenariosGherkin" data-source-line="29" data-uid="lnk21" id="link_Paso2_CasosUso_Requisitos_Paso3_EscenariosGherkin"><path codeLine="29" d="M1275.12,102.2969 C1328.74,102.2969 1386.38,102.2969 1438.86,102.2969" fill="none" id="Paso2_CasosUso_Requisitos-to-Paso3_EscenariosGherkin" style="stroke:#181818;stroke-width:1;"/><polygon fill="#181818" points="1444.86,102.2969,1435.86,98.2969,1439.86,102.2969,1435.86,106.2969,1444.86,102.2969" style="stroke:#181818;stroke-width:1;"/></g><!--link Paso3_EscenariosGherkin to Paso4_Borrador_Publicacion--><g class="link" data-entity-1="Paso3_EscenariosGherkin" data-entity-2="Paso4_Borrador_Publicacion" data-source-line="30" data-uid="lnk22" id="link_Paso3_EscenariosGherkin_Paso4_Borrador_Publicacion"><path codeLine="30" d="M1656.18,102.2969 C1675.97,102.2969 1690.77,102.2969 1710.82,102.2969" fill="none" id="Paso3_EscenariosGherkin-to-Paso4_Borrador_Publicacion" style="stroke:#181818;stroke-width:1;"/><polygon fill="#181818" points="1716.82,102.2969,1707.82,98.2969,1711.82,102.2969,1707.82,106.2969,1716.82,102.2969" style="stroke:#181818;stroke-width:1;"/></g><!--link EleccionFlujo to PanelAutomatico--><g class="link" data-entity-1="EleccionFlujo" data-entity-2="PanelAutomatico" data-source-line="31" data-uid="lnk23" id="link_EleccionFlujo_PanelAutomatico"><path codeLine="31" d="M871.28,148.4869 C881.2,150.1869 891.37,151.8569 901,153.2969 C962.94,162.5969 1027.559,170.4936 1079.379,176.4336" fill="none" id="EleccionFlujo-to-PanelAutomatico" style="stroke:#181818;stroke-width:1;"/><polygon fill="#181818" points="1085.34,177.1169,1076.8541,172.118,1080.3725,176.5475,1075.943,180.0659,1085.34,177.1169" style="stroke:#181818;stroke-width:1;"/><text fill="#000000" font-family="sans-serif" font-size="13" lengthAdjust="spacing" textLength="114.6514" x="902" y="149.3638">modo automatico</text></g><!--link PanelAutomatico to SesionAgente--><g class="link" data-entity-1="PanelAutomatico" data-entity-2="SesionAgente" data-source-line="32" data-uid="lnk24" id="link_PanelAutomatico_SesionAgente"><path codeLine="32" d="M1236.71,209.0169 C1309.18,232.0169 1412.2014,264.7111 1480.5114,286.4011" fill="none" id="PanelAutomatico-to-SesionAgente" style="stroke:#181818;stroke-width:1;"/><polygon fill="#181818" points="1486.23,288.2169,1478.8626,281.6807,1481.4645,286.7037,1476.4415,289.3056,1486.23,288.2169" style="stroke:#181818;stroke-width:1;"/><text fill="#000000" font-family="sans-serif" font-size="13" lengthAdjust="spacing" textLength="108.1514" x="1306" y="228.3638">abrir handoff_url</text></g><!--link SesionAgente to RevisionBorradores--><g class="link" data-entity-1="SesionAgente" data-entity-2="RevisionBorradores" data-source-line="33" data-uid="lnk25" id="link_SesionAgente_RevisionBorradores"><path codeLine="33" d="M1614.81,308.2969 C1653.88,308.2969 1698.45,308.2969 1740.8,308.2969" fill="none" id="SesionAgente-to-RevisionBorradores" style="stroke:#181818;stroke-width:1;"/><polygon fill="#181818" points="1746.8,308.2969,1737.8,304.2969,1741.8,308.2969,1737.8,312.2969,1746.8,308.2969" style="stroke:#181818;stroke-width:1;"/></g><!--link RevisionBorradores to RevisionYPublicacion--><g class="link" data-entity-1="RevisionBorradores" data-entity-2="RevisionYPublicacion" data-source-line="34" data-uid="lnk26" id="link_RevisionBorradores_RevisionYPublicacion"><path codeLine="34" d="M1916.35,308.2969 C1945.76,308.2969 1972.9,308.2969 2002.71,308.2969" fill="none" id="RevisionBorradores-to-RevisionYPublicacion" style="stroke:#181818;stroke-width:1;"/><polygon fill="#181818" points="2008.71,308.2969,1999.71,304.2969,2003.71,308.2969,1999.71,312.2969,2008.71,308.2969" style="stroke:#181818;stroke-width:1;"/></g><!--SRC=[TL7BRjj03BphAuYSqeEHFdBA8O3QfgwH70mh3-Gaq2jAPhrQEljmW0Jzzqeof6XT-KA0mo5tTiQprmIFY-m-pH9DfGSlOBdQU2ZOal8i9d5RDZkqM8FRO26lR2eeKJiQJPH6vrBlBQ-3fuKIa_4RmUSasQ7QOaLmbkuqArJDHNYYDMpvbMVrNi5vjam_dS5x0eShS2SLcw7xBJKDpPnSAoaZrrHo0twZIRMNV-dmHmPqYKw-v3z5XPgCxvwEPb_p7qrr3qxo5Rq4Tkp5HOnl-OrJPD2okFc6x9RZ2vVvTx6sCSNcox3k_pUY6D9fy5AZPoN9tv4T2-F9blW6QTM8ozCTtpQEmFb5GVjPu8l8aiE7E-Q76IlQSmlt4aP-zAFdiQhczSvQcCsk3xQsfUkEVJtgEywKcnDOnutpYBhXrgJxS0Mr508rce0wESthhqmbT08VTawaDYKpogyNXn-97ZFQhN5OpGgkBLlOe2caBFDWTH8Hses99F-78kOus7y0]--></g></svg>