<svg xmlns="http://www.w3.org/2000/svg" xmlns:xlink="http://www.w3.org/1999/xlink" contentStyleType="text/css" data-diagram-type="CLASS" height="297px" preserveAspectRatio="none" style="width:2169px;height:297px;background:#FFFFFF;" version="1.1" viewBox="0 0 2169 297" width="2169px" zoomAndPan="magnify"><title>Vistas - app</title><defs/><g><g class="title" data-source-line="5"><text fill="#000000" font-family="sans-serif" font-size="14" font-weight="bold" lengthAdjust="spacing" textLength="93.4883" x="1030.8472" y="22.9951">Vistas - app</text></g><!--cluster views--><g class="cluster" data-entity="views" data-source-line="7" data-uid="ent0002" id="cluster_views"><rect fill="none" height="99" rx="2.5" ry="2.5" style="stroke:#000000;stroke-width:1.5;" width="1556" x="7" y="44.2969"/><text fill="#000000" font-family="sans-serif" font-size="14" font-weight="bold" lengthAdjust="spacing" textLength="44.6865" x="762.6567" y="59.292">views</text></g><!--cluster controllers--><g class="cluster" data-entity="controllers" data-source-line="19" data-uid="ent0011" id="cluster_controllers"><rect fill="none" height="99" rx="2.5" ry="2.5" style="stroke:#000000;stroke-width:1.5;" width="1389" x="428" y="192.2969"/><text fill="#000000" font-family="sans-serif" font-size="14" font-weight="bold" lengthAdjust="spacing" textLength="85.4287" x="1079.7856" y="207.292">controllers</text></g><!--class LoginView--><g class="entity" data-entity="LoginView" data-source-line="9" data-uid="ent0003" id="entity_LoginView"><rect fill="#F1F1F1" height="48" rx="2.5" ry="2.5" style="stroke:#181818;stroke-width:0.5;" width="103.5449" x="23" y="79.2969"/><ellipse cx="38" cy="95.2969" fill="#ADD1B2" rx="11" ry="11" style="stroke:#181818;stroke-width:1;"/><path d="M40.9688,100.9375 Q40.3906,101.2344 39.75,101.375 Q39.1094,101.5313 38.4063,101.5313 Q35.9063,101.5313 34.5781,99.8906 Q33.2656,98.2344 33.2656,95.1094 Q33.2656,91.9844 34.5781,90.3281 Q35.9063,88.6719 38.4063,88.6719 Q39.1094,88.6719 39.75,88.8281 Q40.4063,88.9844 40.9688,89.2813 L40.9688,92 Q40.3438,91.4219 39.75,91.1563 Q39.1563,90.875 38.5313,90.875 Q37.1875,90.875 36.5,91.9531 Q35.8125,93.0156 35.8125,95.1094 Q35.8125,97.2031 36.5,98.2813 Q37.1875,99.3438 38.5313,99.3438 Q39.1563,99.3438 39.75,99.0781 Q40.3438,98.7969 40.9688,98.2188 L40.9688,100.9375 Z " fill="#000000"/><text fill="#000000" font-family="sans-serif" font-size="14" lengthAdjust="spacing" textLength="71.5449" x="52" y="100.1436">LoginView</text><line style="stroke:#181818;stroke-width:0.5;" x1="24" x2="125.5449" y1="111.2969" y2="111.2969"/><line style="stroke:#181818;stroke-width:0.5;" x1="24" x2="125.5449" y1="119.2969" y2="119.2969"/></g><!--class SessionsView--><g class="entity" data-entity="SessionsView" data-source-line="10" data-uid="ent0004" id="entity_SessionsView"><rect fill="#F1F1F1" height="48" rx="2.5" ry="2.5" style="stroke:#181818;stroke-width:0.5;" width="126.2402" x="577" y="79.2969"/><ellipse cx="592" cy="95.2969" fill="#ADD1B2" rx="11" ry="11" style="stroke:#181818;stroke-width:1;"/><path d="M594.9688,100.9375 Q594.3906,101.2344 593.75,101.375 Q593.1094,101.5313 592.4063,101.5313 Q589.9063,101.5313 588.5781,99.8906 Q587.2656,98.2344 587.2656,95.1094 Q587.2656,91.9844 588.5781,90.3281 Q589.9063,88.6719 592.4063,88.6719 Q593.1094,88.6719 593.75,88.8281 Q594.4063,88.9844 594.9688,89.2813 L594.9688,92 Q594.3438,91.4219 593.75,91.1563 Q593.1563,90.875 592.5313,90.875 Q591.1875,90.875 590.5,91.9531 Q589.8125,93.0156 589.8125,95.1094 Q589.8125,97.2031 590.5,98.2813 Q591.1875,99.3438 592.5313,99.3438 Q593.1563,99.3438 593.75,99.0781 Q594.3438,98.7969 594.9688,98.2188 L594.9688,100.9375 Z " fill="#000000"/><text fill="#000000" font-family="sans-serif" font-size="14" lengthAdjust="spacing" textLength="94.2402" x="606" y="100.1436">SessionsView</text><line style="stroke:#181818;stroke-width:0.5;" x1="578" x2="702.2402" y1="111.2969" y2="111.2969"/><line style="stroke:#181818;stroke-width:0.5;" x1="578" x2="702.2402" y1="119.2969" y2="119.2969"/></g><!--class DocumentationView--><g class="entity" data-entity="DocumentationView" data-source-line="11" data-uid="ent0005" id="entity_DocumentationView"><rect fill="#F1F1F1" height="48" rx="2.5" ry="2.5" style="stroke:#181818;stroke-width:0.5;" width="173.4561" x="738.5" y="79.2969"/><ellipse cx="753.5" cy="95.2969" fill="#ADD1B2" rx="11" ry="11" style="stroke:#181818;stroke-width:1;"/><path d="M756.4688,100.9375 Q755.8906,101.2344 755.25,101.375 Q754.6094,101.5313 753.9063,101.5313 Q751.4063,101.5313 750.0781,99.8906 Q748.7656,98.2344 748.7656,95.1094 Q748.7656,91.9844 750.0781,90.3281 Q751.4063,88.6719 753.9063,88.6719 Q754.6094,88.6719 755.25,88.8281 Q755.9063,88.9844 756.4688,89.2813 L756.4688,92 Q755.8438,91.4219 755.25,91.1563 Q754.6563,90.875 754.0313,90.875 Q752.6875,90.875 752,91.9531 Q751.3125,93.0156 751.3125,95.1094 Q751.3125,97.2031 752,98.2813 Q752.6875,99.3438 754.0313,99.3438 Q754.6563,99.3438 755.25,99.0781 Q755.8438,98.7969 756.4688,98.2188 L756.4688,100.9375 Z " fill="#000000"/><text fill="#000000" font-family="sans-serif" font-size="14" lengthAdjust="spacing" textLength="141.4561" x="767.5" y="100.1436">DocumentationView</text><line style="stroke:#181818;stroke-width:0.5;" x1="739.5" x2="910.9561" y1="111.2969" y2="111.2969"/><line style="stroke:#181818;stroke-width:0.5;" x1="739.5" x2="910.9561" y1="119.2969" y2="119.2969"/></g><!--class WorkflowModeView--><g class="entity" data-entity="WorkflowModeView" data-source-line="12" data-uid="ent0006" id="entity_WorkflowModeView"><rect fill="#F1F1F1" height="48" rx="2.5" ry="2.5" style="stroke:#181818;stroke-width:0.5;" width="168.7803" x="162.5" y="79.2969"/><ellipse cx="177.5" cy="95.2969" fill="#ADD1B2" rx="11" ry="11" style="stroke:#181818;stroke-width:1;"/><path d="M180.4688,100.9375 Q179.8906,101.2344 179.25,101.375 Q178.6094,101.5313 177.9063,101.5313 Q175.4063,101.5313 174.0781,99.8906 Q172.7656,98.2344 172.7656,95.1094 Q172.7656,91.9844 174.0781,90.3281 Q175.4063,88.6719 177.9063,88.6719 Q178.6094,88.6719 179.25,88.8281 Q179.9063,88.9844 180.4688,89.2813 L180.4688,92 Q179.8438,91.4219 179.25,91.1563 Q178.6563,90.875 178.0313,90.875 Q176.6875,90.875 176,91.9531 Q175.3125,93.0156 175.3125,95.1094 Q175.3125,97.2031 176,98.2813 Q176.6875,99.3438 178.0313,99.3438 Q178.6563,99.3438 179.25,99.0781 Q179.8438,98.7969 180.4688,98.2188 L180.4688,100.9375 Z " fill="#000000"/><text fill="#000000" font-family="sans-serif" font-size="14" lengthAdjust="spacing" textLength="136.7803" x="191.5" y="100.1436">WorkflowModeView</text><line style="stroke:#181818;stroke-width:0.5;" x1="163.5" x2="330.2803" y1="111.2969" y2="111.2969"/><line style="stroke:#181818;stroke-width:0.5;" x1="163.5" x2="330.2803" y1="119.2969" y2="119.2969"/></g><!--class UseCasesRequirementsView--><g class="entity" data-entity="UseCasesRequirementsView" data-source-line="13" data-uid="ent0007" id="entity_UseCasesRequirementsView"><rect fill="#F1F1F1" height="48" rx="2.5" ry="2.5" style="stroke:#181818;stroke-width:0.5;" width="231.5068" x="947" y="79.2969"/><ellipse cx="962" cy="95.2969" fill="#ADD1B2" rx="11" ry="11" style="stroke:#181818;stroke-width:1;"/><path d="M964.9688,100.9375 Q964.3906,101.2344 963.75,101.375 Q963.1094,101.5313 962.4063,101.5313 Q959.9063,101.5313 958.5781,99.8906 Q957.2656,98.2344 957.2656,95.1094 Q957.2656,91.9844 958.5781,90.3281 Q959.9063,88.6719 962.4063,88.6719 Q963.1094,88.6719 963.75,88.8281 Q964.4063,88.9844 964.9688,89.2813 L964.9688,92 Q964.3438,91.4219 963.75,91.1563 Q963.1563,90.875 962.5313,90.875 Q961.1875,90.875 960.5,91.9531 Q959.8125,93.0156 959.8125,95.1094 Q959.8125,97.2031 960.5,98.2813 Q961.1875,99.3438 962.5313,99.3438 Q963.1563,99.3438 963.75,99.0781 Q964.3438,98.7969 964.9688,98.2188 L964.9688,100.9375 Z " fill="#000000"/><text fill="#000000" font-family="sans-serif" font-size="14" lengthAdjust="spacing" textLength="199.5068" x="976" y="100.1436">UseCasesRequirementsView</text><line style="stroke:#181818;stroke-width:0.5;" x1="948" x2="1177.5068" y1="111.2969" y2="111.2969"/><line style="stroke:#181818;stroke-width:0.5;" x1="948" x2="1177.5068" y1="119.2969" y2="119.2969"/></g><!--class GherkinScenariosView--><g class="entity" data-entity="GherkinScenariosView" data-source-line="14" data-uid="ent0008" id="entity_GherkinScenariosView"><rect fill="#F1F1F1" height="48" rx="2.5" ry="2.5" style="stroke:#181818;stroke-width:0.5;" width="188.6455" x="1214.5" y="79.2969"/><ellipse cx="1229.5" cy="95.2969" fill="#ADD1B2" rx="11" ry="11" style="stroke:#181818;stroke-width:1;"/><path d="M1232.4688,100.9375 Q1231.8906,101.2344 1231.25,101.375 Q1230.6094,101.5313 1229.9063,101.5313 Q1227.4063,101.5313 1226.0781,99.8906 Q1224.7656,98.2344 1224.7656,95.1094 Q1224.7656,91.9844 1226.0781,90.3281 Q1227.4063,88.6719 1229.9063,88.6719 Q1230.6094,88.6719 1231.25,88.8281 Q1231.9063,88.9844 1232.4688,89.2813 L1232.4688,92 Q1231.8438,91.4219 1231.25,91.1563 Q1230.6563,90.875 1230.0313,90.875 Q1228.6875,90.875 1228,91.9531 Q1227.3125,93.0156 1227.3125,95.1094 Q1227.3125,97.2031 1228,98.2813 Q1228.6875,99.3438 1230.0313,99.3438 Q1230.6563,99.3438 1231.25,99.0781 Q1231.8438,98.7969 1232.4688,98.2188 L1232.4688,100.9375 Z " fill="#000000"/><text fill="#000000" font-family="sans-serif" font-size="14" lengthAdjust="spacing" textLength="156.6455" x="1243.5" y="100.1436">GherkinScenariosView</text><line style="stroke:#181818;stroke-width:0.5;" x1="1215.5" x2="1402.1455" y1="111.2969" y2="111.2969"/><line style="stroke:#181818;stroke-width:0.5;" x1="1215.5" x2="1402.1455" y1="119.2969" y2="119.2969"/></g><!--class DraftsView--><g class="entity" data-entity="DraftsView" data-source-line="15" data-uid="ent0009" id="entity_DraftsView"><rect fill="#F1F1F1" height="48" rx="2.5" ry="2.5" style="stroke:#181818;stroke-width:0.5;" width="108.3574" x="1439" y="79.2969"/><ellipse cx="1454" cy="95.2969" fill="#ADD1B2" rx="11" ry="11" style="stroke:#181818;stroke-width:1;"/><path d="M1456.9688,100.9375 Q1456.3906,101.2344 1455.75,101.375 Q1455.1094,101.5313 1454.4063,101.5313 Q1451.9063,101.5313 1450.5781,99.8906 Q1449.2656,98.2344 1449.2656,95.1094 Q1449.2656,91.9844 1450.5781,90.3281 Q1451.9063,88.6719 1454.4063,88.6719 Q1455.1094,88.6719 1455.75,88.8281 Q1456.4063,88.9844 1456.9688,89.2813 L1456.9688,92 Q1456.3438,91.4219 1455.75,91.1563 Q1455.1563,90.875 1454.5313,90.875 Q1453.1875,90.875 1452.5,91.9531 Q1451.8125,93.0156 1451.8125,95.1094 Q1451.8125,97.2031 1452.5,98.2813 Q1453.1875,99.3438 1454.5313,99.3438 Q1455.1563,99.3438 1455.75,99.0781 Q1456.3438,98.7969 1456.9688,98.2188 L1456.9688,100.9375 Z " fill="#000000"/><text fill="#000000" font-family="sans-serif" font-size="14" lengthAdjust="spacing" textLength="76.3574" x="1468" y="100.1436">DraftsView</text><line style="stroke:#181818;stroke-width:0.5;" x1="1440" x2="1546.3574" y1="111.2969" y2="111.2969"/><line style="stroke:#181818;stroke-width:0.5;" x1="1440" x2="1546.3574" y1="119.2969" y2="119.2969"/></g><!--class AutomaticModeView--><g class="entity" data-entity="AutomaticModeView" data-source-line="16" data-uid="ent0010" id="entity_AutomaticModeView"><rect fill="#F1F1F1" height="48" rx="2.5" ry="2.5" style="stroke:#181818;stroke-width:0.5;" width="175.4727" x="366.5" y="79.2969"/><ellipse cx="381.5" cy="95.2969" fill="#ADD1B2" rx="11" ry="11" style="stroke:#181818;stroke-width:1;"/><path d="M384.4688,100.9375 Q383.8906,101.2344 383.25,101.375 Q382.6094,101.5313 381.9063,101.5313 Q379.4063,101.5313 378.0781,99.8906 Q376.7656,98.2344 376.7656,95.1094 Q376.7656,91.9844 378.0781,90.3281 Q379.4063,88.6719 381.9063,88.6719 Q382.6094,88.6719 383.25,88.8281 Q383.9063,88.9844 384.4688,89.2813 L384.4688,92 Q383.8438,91.4219 383.25,91.1563 Q382.6563,90.875 382.0313,90.875 Q380.6875,90.875 380,91.9531 Q379.3125,93.0156 379.3125,95.1094 Q379.3125,97.2031 380,98.2813 Q380.6875,99.3438 382.0313,99.3438 Q382.6563,99.3438 383.25,99.0781 Q383.8438,98.7969 384.4688,98.2188 L384.4688,100.9375 Z " fill="#000000"/><text fill="#000000" font-family="sans-serif" font-size="14" lengthAdjust="spacing" textLength="143.4727" x="395.5" y="100.1436">AutomaticModeView</text><line style="stroke:#181818;stroke-width:0.5;" x1="367.5" x2="540.9727" y1="111.2969" y2="111.2969"/><line style="stroke:#181818;stroke-width:0.5;" x1="367.5" x2="540.9727" y1="119.2969" y2="119.2969"/></g><!--class AuthController--><g class="entity" data-entity="AuthController" data-source-line="21" data-uid="ent0012" id="entity_AuthController"><rect fill="#F1F1F1" height="48" rx="2.5" ry="2.5" style="stroke:#181818;stroke-width:0.5;" width="133.9854" x="444" y="227.2969"/><ellipse cx="459" cy="243.2969" fill="#ADD1B2" rx="11" ry="11" style="stroke:#181818;stroke-width:1;"/><path d="M461.9688,248.9375 Q461.3906,249.2344 460.75,249.375 Q460.1094,249.5313 459.4063,249.5313 Q456.9063,249.5313 455.5781,247.8906 Q454.2656,246.2344 454.2656,243.1094 Q454.2656,239.9844 455.5781,238.3281 Q456.9063,236.6719 459.4063,236.6719 Q460.1094,236.6719 460.75,236.8281 Q461.4063,236.9844 461.9688,237.2813 L461.9688,240 Q461.3438,239.4219 460.75,239.1563 Q460.1563,238.875 459.5313,238.875 Q458.1875,238.875 457.5,239.9531 Q456.8125,241.0156 456.8125,243.1094 Q456.8125,245.2031 457.5,246.2813 Q458.1875,247.3438 459.5313,247.3438 Q460.1563,247.3438 460.75,247.0781 Q461.3438,246.7969 461.9688,246.2188 L461.9688,248.9375 Z " fill="#000000"/><text fill="#000000" font-family="sans-serif" font-size="14" lengthAdjust="spacing" textLength="101.9854" x="473" y="248.1436">AuthController</text><line style="stroke:#181818;stroke-width:0.5;" x1="445" x2="576.9854" y1="259.2969" y2="259.2969"/><line style="stroke:#181818;stroke-width:0.5;" x1="445" x2="576.9854" y1="267.2969" y2="267.2969"/></g><!--class SessionController--><g class="entity" data-entity="SessionController" data-source-line="22" data-uid="ent0013" id="entity_SessionController"><rect fill="#F1F1F1" height="48" rx="2.5" ry="2.5" style="stroke:#181818;stroke-width:0.5;" width="154.5889" x="613.5" y="227.2969"/><ellipse cx="628.5" cy="243.2969" fill="#ADD1B2" rx="11" ry="11" style="stroke:#181818;stroke-width:1;"/><path d="M631.4688,248.9375 Q630.8906,249.2344 630.25,249.375 Q629.6094,249.5313 628.9063,249.5313 Q626.4063,249.5313 625.0781,247.8906 Q623.7656,246.2344 623.7656,243.1094 Q623.7656,239.9844 625.0781,238.3281 Q626.4063,236.6719 628.9063,236.6719 Q629.6094,236.6719 630.25,236.8281 Q630.9063,236.9844 631.4688,237.2813 L631.4688,240 Q630.8438,239.4219 630.25,239.1563 Q629.6563,238.875 629.0313,238.875 Q627.6875,238.875 627,239.9531 Q626.3125,241.0156 626.3125,243.1094 Q626.3125,245.2031 627,246.2813 Q627.6875,247.3438 629.0313,247.3438 Q629.6563,247.3438 630.25,247.0781 Q630.8438,246.7969 631.4688,246.2188 L631.4688,248.9375 Z " fill="#000000"/><text fill="#000000" font-family="sans-serif" font-size="14" lengthAdjust="spacing" textLength="122.5889" x="642.5" y="248.1436">SessionController</text><line style="stroke:#181818;stroke-width:0.5;" x1="614.5" x2="767.0889" y1="259.2969" y2="259.2969"/><line style="stroke:#181818;stroke-width:0.5;" x1="614.5" x2="767.0889" y1="267.2969" y2="267.2969"/></g><!--class DocumentationController--><g class="entity" data-entity="DocumentationController" data-source-line="23" data-uid="ent0014" id="entity_DocumentationController"><rect fill="#F1F1F1" height="48" rx="2.5" ry="2.5" style="stroke:#181818;stroke-width:0.5;" width="209.0986" x="803.5" y="227.2969"/><ellipse cx="818.5" cy="243.2969" fill="#ADD1B2" rx="11" ry="11" style="stroke:#181818;stroke-width:1;"/><path d="M821.4688,248.9375 Q820.8906,249.2344 820.25,249.375 Q819.6094,249.5313 818.9063,249.5313 Q816.4063,249.5313 815.0781,247.8906 Q813.7656,246.2344 813.7656,243.1094 Q813.7656,239.9844 815.0781,238.3281 Q816.4063,236.6719 818.9063,236.6719 Q819.6094,236.6719 820.25,236.8281 Q820.9063,236.9844 821.4688,237.2813 L821.4688,240 Q820.8438,239.4219 820.25,239.1563 Q819.6563,238.875 819.0313,238.875 Q817.6875,238.875 817,239.9531 Q816.3125,241.0156 816.3125,243.1094 Q816.3125,245.2031 817,246.2813 Q817.6875,247.3438 819.0313,247.3438 Q819.6563,247.3438 820.25,247.0781 Q820.8438,246.7969 821.4688,246.2188 L821.4688,248.9375 Z " fill="#000000"/><text fill="#000000" font-family="sans-serif" font-size="14" lengthAdjust="spacing" textLength="177.0986" x="832.5" y="248.1436">DocumentationController</text><line style="stroke:#181818;stroke-width:0.5;" x1="804.5" x2="1011.5986" y1="259.2969" y2="259.2969"/><line style="stroke:#181818;stroke-width:0.5;" x1="804.5" x2="1011.5986" y1="267.2969" y2="267.2969"/></g><!--class UseCaseController--><g class="entity" data-entity="UseCaseController" data-source-line="24" data-uid="ent0015" id="entity_UseCaseController"><rect fill="#F1F1F1" height="48" rx="2.5" ry="2.5" style="stroke:#181818;stroke-width:0.5;" width="161.5889" x="1275" y="227.2969"/><ellipse cx="1290" cy="243.2969" fill="#ADD1B2" rx="11" ry="11" style="stroke:#181818;stroke-width:1;"/><path d="M1292.9688,248.9375 Q1292.3906,249.2344 1291.75,249.375 Q1291.1094,249.5313 1290.4063,249.5313 Q1287.9063,249.5313 1286.5781,247.8906 Q1285.2656,246.2344 1285.2656,243.1094 Q1285.2656,239.9844 1286.5781,238.3281 Q1287.9063,236.6719 1290.4063,236.6719 Q1291.1094,236.6719 1291.75,236.8281 Q1292.4063,236.9844 1292.9688,237.2813 L1292.9688,240 Q1292.3438,239.4219 1291.75,239.1563 Q1291.1563,238.875 1290.5313,238.875 Q1289.1875,238.875 1288.5,239.9531 Q1287.8125,241.0156 1287.8125,243.1094 Q1287.8125,245.2031 1288.5,246.2813 Q1289.1875,247.3438 1290.5313,247.3438 Q1291.1563,247.3438 1291.75,247.0781 Q1292.3438,246.7969 1292.9688,246.2188 L1292.9688,248.9375 Z " fill="#000000"/><text fill="#000000" font-family="sans-serif" font-size="14" lengthAdjust="spacing" textLength="129.5889" x="1304" y="248.1436">UseCaseController</text><line style="stroke:#181818;stroke-width:0.5;" x1="1276" x2="1435.5889" y1="259.2969" y2="259.2969"/><line style="stroke:#181818;stroke-width:0.5;" x1="1276" x2="1435.5889" y1="267.2969" y2="267.2969"/></g><!--class RequirementController--><g class="entity" data-entity="RequirementController" data-source-line="25" data-uid="ent0016" id="entity_RequirementController"><rect fill="#F1F1F1" height="48" rx="2.5" ry="2.5" style="stroke:#181818;stroke-width:0.5;" width="192.1455" x="1048" y="227.2969"/><ellipse cx="1063" cy="243.2969" fill="#ADD1B2" rx="11" ry="11" style="stroke:#181818;stroke-width:1;"/><path d="M1065.9688,248.9375 Q1065.3906,249.2344 1064.75,249.375 Q1064.1094,249.5313 1063.4063,249.5313 Q1060.9063,249.5313 1059.5781,247.8906 Q1058.2656,246.2344 1058.2656,243.1094 Q1058.2656,239.9844 1059.5781,238.3281 Q1060.9063,236.6719 1063.4063,236.6719 Q1064.1094,236.6719 1064.75,236.8281 Q1065.4063,236.9844 1065.9688,237.2813 L1065.9688,240 Q1065.3438,239.4219 1064.75,239.1563 Q1064.1563,238.875 1063.5313,238.875 Q1062.1875,238.875 1061.5,239.9531 Q1060.8125,241.0156 1060.8125,243.1094 Q1060.8125,245.2031 1061.5,246.2813 Q1062.1875,247.3438 1063.5313,247.3438 Q1064.1563,247.3438 1064.75,247.0781 Q1065.3438,246.7969 1065.9688,246.2188 L1065.9688,248.9375 Z " fill="#000000"/><text fill="#000000" font-family="sans-serif" font-size="14" lengthAdjust="spacing" textLength="160.1455" x="1077" y="248.1436">RequirementController</text><line style="stroke:#181818;stroke-width:0.5;" x1="1049" x2="1239.1455" y1="259.2969" y2="259.2969"/><line style="stroke:#181818;stroke-width:0.5;" x1="1049" x2="1239.1455" y1="267.2969" y2="267.2969"/></g><!--class GherkinController--><g class="entity" data-entity="GherkinController" data-source-line="26" data-uid="ent0017" id="entity_GherkinController"><rect fill="#F1F1F1" height="48" rx="2.5" ry="2.5" style="stroke:#181818;stroke-width:0.5;" width="156.1338" x="1472" y="227.2969"/><ellipse cx="1487" cy="243.2969" fill="#ADD1B2" rx="11" ry="11" style="stroke:#181818;stroke-width:1;"/><path d="M1489.9688,248.9375 Q1489.3906,249.2344 1488.75,249.375 Q1488.1094,249.5313 1487.4063,249.5313 Q1484.9063,249.5313 1483.5781,247.8906 Q1482.2656,246.2344 1482.2656,243.1094 Q1482.2656,239.9844 1483.5781,238.3281 Q1484.9063,236.6719 1487.4063,236.6719 Q1488.1094,236.6719 1488.75,236.8281 Q1489.4063,236.9844 1489.9688,237.2813 L1489.9688,240 Q1489.3438,239.4219 1488.75,239.1563 Q1488.1563,238.875 1487.5313,238.875 Q1486.1875,238.875 1485.5,239.9531 Q1484.8125,241.0156 1484.8125,243.1094 Q1484.8125,245.2031 1485.5,246.2813 Q1486.1875,247.3438 1487.5313,247.3438 Q1488.1563,247.3438 1488.75,247.0781 Q1489.3438,246.7969 1489.9688,246.2188 L1489.9688,248.9375 Z " fill="#000000"/><text fill="#000000" font-family="sans-serif" font-size="14" lengthAdjust="spacing" textLength="124.1338" x="1501" y="248.1436">GherkinController</text><line style="stroke:#181818;stroke-width:0.5;" x1="1473" x2="1627.1338" y1="259.2969" y2="259.2969"/><line style="stroke:#181818;stroke-width:0.5;" x1="1473" x2="1627.1338" y1="267.2969" y2="267.2969"/></g><!--class DraftController--><g class="entity" data-entity="DraftController" data-source-line="27" data-uid="ent0018" id="entity_DraftController"><rect fill="#F1F1F1" height="48" rx="2.5" ry="2.5" style="stroke:#181818;stroke-width:0.5;" width="136.7061" x="1663.5" y="227.2969"/><ellipse cx="1678.5" cy="243.2969" fill="#ADD1B2" rx="11" ry="11" style="stroke:#181818;stroke-width:1;"/><path d="M1681.4688,248.9375 Q1680.8906,249.2344 1680.25,249.375 Q1679.6094,249.5313 1678.9063,249.5313 Q1676.4063,249.5313 1675.0781,247.8906 Q1673.7656,246.2344 1673.7656,243.1094 Q1673.7656,239.9844 1675.0781,238.3281 Q1676.4063,236.6719 1678.9063,236.6719 Q1679.6094,236.6719 1680.25,236.8281 Q1680.9063,236.9844 1681.4688,237.2813 L1681.4688,240 Q1680.8438,239.4219 1680.25,239.1563 Q1679.6563,238.875 1679.0313,238.875 Q1677.6875,238.875 1677,239.9531 Q1676.3125,241.0156 1676.3125,243.1094 Q1676.3125,245.2031 1677,246.2813 Q1677.6875,247.3438 1679.0313,247.3438 Q1679.6563,247.3438 1680.25,247.0781 Q1680.8438,246.7969 1681.4688,246.2188 L1681.4688,248.9375 Z " fill="#000000"/><text fill="#000000" font-family="sans-serif" font-size="14" lengthAdjust="spacing" textLength="104.7061" x="1692.5" y="248.1436">DraftController</text><line style="stroke:#181818;stroke-width:0.5;" x1="1664.5" x2="1799.2061" y1="259.2969" y2="259.2969"/><line style="stroke:#181818;stroke-width:0.5;" x1="1664.5" x2="1799.2061" y1="267.2969" y2="267.2969"/></g><!--link LoginView to AuthController--><g class="link" data-entity-1="LoginView" data-entity-2="AuthController" data-source-line="30" data-uid="lnk19" id="link_LoginView_AuthController"><path codeLine="30" d="M70.64,127.3169 C69.06,143.0869 70.04,163.4169 82,176.2969 C129.96,227.9369 329.7357,243.3459 437.9257,248.0559" fill="none" id="LoginView-to-AuthController" style="stroke:#181818;stroke-width:1;stroke-dasharray:7,7;"/><polygon fill="#181818" points="443.92,248.3169,435.1025,243.9292,438.9247,248.0994,434.7545,251.9216,443.92,248.3169" style="stroke:#181818;stroke-width:1;"/><text fill="#000000" font-family="sans-serif" font-size="13" lengthAdjust="spacing" textLength="29.542" x="83" y="172.3638">auth</text></g><!--link SessionsView to SessionController--><g class="link" data-entity-1="SessionsView" data-entity-2="SessionController" data-source-line="32" data-uid="lnk20" id="link_SessionsView_SessionController"><path codeLine="32" d="M606.65,127.2969 C592.52,136.0569 575.52,145.3469 559,151.2969 C538.65,158.6169 524.98,142.7969 511,159.2969 C506.12,165.0669 505.91,170.7069 511,176.2969 C523.77,190.3269 578.18,177.7869 596,184.2969 C622.03,193.8169 642.9829,208.4151 661.0329,223.3951" fill="none" id="SessionsView-to-SessionController" style="stroke:#181818;stroke-width:1;"/><polygon fill="#181818" points="665.65,227.2269,661.2789,218.4011,661.8024,224.0337,656.1699,224.5572,665.65,227.2269" style="stroke:#181818;stroke-width:1;"/><text fill="#000000" font-family="sans-serif" font-size="13" lengthAdjust="spacing" textLength="56.1196" x="512" y="172.3638">sesiones</text></g><!--link DocumentationView to DocumentationController--><g class="link" data-entity-1="DocumentationView" data-entity-2="DocumentationController" data-source-line="34" data-uid="lnk21" id="link_DocumentationView_DocumentationController"><path codeLine="34" d="M777.75,127.4369 C756.59,140.9369 739.18,158.7169 753,176.2969 C762.33,188.1569 771.91,178.8869 786,184.2969 C815.9,195.7869 842.5024,210.0811 866.1224,224.1211" fill="none" id="DocumentationView-to-DocumentationController" style="stroke:#181818;stroke-width:1;"/><polygon fill="#181818" points="871.28,227.1869,865.5874,219.1498,866.982,224.6321,861.4997,226.0267,871.28,227.1869" style="stroke:#181818;stroke-width:1;"/><text fill="#000000" font-family="sans-serif" font-size="13" lengthAdjust="spacing" textLength="100.5088" x="754" y="172.3638">documentaci&#243;n</text></g><!--link DocumentationView to SessionController--><g class="link" data-entity-1="DocumentationView" data-entity-2="SessionController" data-source-line="35" data-uid="lnk22" id="link_DocumentationView_SessionController"><path codeLine="35" d="M782.41,127.3969 C764.03,136.3369 741.97,145.7369 721,151.2969 C702.66,156.1569 648.77,145.2669 636,159.2969 C617.36,179.7769 635.0024,203.4696 656.4824,222.9196" fill="none" id="DocumentationView-to-SessionController" style="stroke:#181818;stroke-width:1;"/><polygon fill="#181818" points="660.93,226.9469,656.9435,217.9409,657.2237,223.5908,651.5738,223.871,660.93,226.9469" style="stroke:#181818;stroke-width:1;"/><text fill="#000000" font-family="sans-serif" font-size="13" lengthAdjust="spacing" textLength="102.6606" x="637" y="172.3638">contexto sesi&#243;n</text></g><!--link WorkflowModeView to SessionController--><g class="link" data-entity-1="WorkflowModeView" data-entity-2="SessionController" data-source-line="37" data-uid="lnk23" id="link_WorkflowModeView_SessionController"><path codeLine="37" d="M221.22,127.5369 C207.29,142.8169 195.45,162.4669 209,176.2969 C224.05,191.6569 575.55,177.6569 596,184.2969 C622.74,192.9769 644.088,208.0097 662.068,223.3697" fill="none" id="WorkflowModeView-to-SessionController" style="stroke:#181818;stroke-width:1;"/><polygon fill="#181818" points="666.63,227.2669,662.3852,218.3797,662.8283,224.0192,657.1889,224.4624,666.63,227.2669" style="stroke:#181818;stroke-width:1;"/><text fill="#000000" font-family="sans-serif" font-size="13" lengthAdjust="spacing" textLength="175.9824" x="210" y="172.3638">modo manual / autom&#225;tico</text></g><!--link UseCasesRequirementsView to UseCaseController--><g class="link" data-entity-1="UseCasesRequirementsView" data-entity-2="UseCaseController" data-source-line="39" data-uid="lnk24" id="link_UseCasesRequirementsView_UseCaseController"><path codeLine="39" d="M1117.78,127.3569 C1141.68,136.4069 1170.3,145.8969 1197,151.2969 C1211.19,154.1669 1315.58,150.4069 1327,159.2969 C1347.54,175.2969 1353.2927,199.9175 1355.0627,221.1975" fill="none" id="UseCasesRequirementsView-to-UseCaseController" style="stroke:#181818;stroke-width:1;"/><polygon fill="#181818" points="1355.56,227.1769,1358.8002,217.8763,1355.1455,222.1941,1350.8278,218.5394,1355.56,227.1769" style="stroke:#181818;stroke-width:1;"/><text fill="#000000" font-family="sans-serif" font-size="13" lengthAdjust="spacing" textLength="84.0938" x="1341" y="172.3638">casos de uso</text></g><!--link UseCasesRequirementsView to RequirementController--><g class="link" data-entity-1="UseCasesRequirementsView" data-entity-2="RequirementController" data-source-line="40" data-uid="lnk25" id="link_UseCasesRequirementsView_RequirementController"><path codeLine="40" d="M1054.91,127.3769 C1051.15,142.0269 1048.9,161.0369 1056,176.2969 C1065.86,197.4669 1080.167,211.317 1098.137,223.837" fill="none" id="UseCasesRequirementsView-to-RequirementController" style="stroke:#181818;stroke-width:1;"/><polygon fill="#181818" points="1103.06,227.2669,1097.9622,218.84,1098.9575,224.4086,1093.3889,225.404,1103.06,227.2669" style="stroke:#181818;stroke-width:1;"/><text fill="#000000" font-family="sans-serif" font-size="13" lengthAdjust="spacing" textLength="142.1431" x="1057" y="172.3638">requisitos funcionales</text></g><!--link UseCasesRequirementsView to DocumentationController--><g class="link" data-entity-1="UseCasesRequirementsView" data-entity-2="DocumentationController" data-source-line="41" data-uid="lnk26" id="link_UseCasesRequirementsView_DocumentationController"><path codeLine="41" d="M964.28,127.3369 C948.14,135.0969 933.09,145.4569 922,159.2969 C906.7,178.3769 904.4331,201.1624 905.2931,221.2324" fill="none" id="UseCasesRequirementsView-to-DocumentationController" style="stroke:#181818;stroke-width:1;"/><polygon fill="#181818" points="905.55,227.2269,909.161,218.0639,905.3359,222.2315,901.1684,218.4064,905.55,227.2269" style="stroke:#181818;stroke-width:1;"/><text fill="#000000" font-family="sans-serif" font-size="13" lengthAdjust="spacing" textLength="119.8247" x="923" y="172.3638">documento fuente</text></g><!--link GherkinScenariosView to GherkinController--><g class="link" data-entity-1="GherkinScenariosView" data-entity-2="GherkinController" data-source-line="43" data-uid="lnk27" id="link_GherkinScenariosView_GherkinController"><path codeLine="43" d="M1353.68,127.3169 C1373.98,136.5969 1398.63,146.2769 1422,151.2969 C1437.16,154.5469 1690.19,148.1769 1701,159.2969 C1738.62,198.0169 1688.19,167.7669 1646,184.2969 C1620.39,194.3269 1599.5795,208.5715 1581.2995,223.2415" fill="none" id="GherkinScenariosView-to-GherkinController" style="stroke:#181818;stroke-width:1;"/><polygon fill="#181818" points="1576.62,226.9969,1586.1428,224.4835,1580.5196,223.8674,1581.1356,218.2442,1576.62,226.9969" style="stroke:#181818;stroke-width:1;"/><text fill="#000000" font-family="sans-serif" font-size="13" lengthAdjust="spacing" textLength="69.8052" x="1715" y="172.3638">escenarios</text></g><!--link GherkinScenariosView to UseCaseController--><g class="link" data-entity-1="GherkinScenariosView" data-entity-2="UseCaseController" data-source-line="44" data-uid="lnk28" id="link_GherkinScenariosView_UseCaseController"><path codeLine="44" d="M1360.17,127.3869 C1379.34,135.5469 1401.45,144.4069 1422,151.2969 C1435.49,155.8169 1444.29,148.0469 1453,159.2969 C1457.63,165.2669 1456.35,169.5269 1453,176.2969 C1442.29,197.9369 1426.9488,211.7663 1407.6088,224.0163" fill="none" id="GherkinScenariosView-to-UseCaseController" style="stroke:#181818;stroke-width:1;"/><polygon fill="#181818" points="1402.54,227.2269,1412.2835,225.7902,1406.764,224.5514,1408.0028,219.0319,1402.54,227.2269" style="stroke:#181818;stroke-width:1;"/><text fill="#000000" font-family="sans-serif" font-size="13" lengthAdjust="spacing" textLength="83.0972" x="1457" y="172.3638">consultar UC</text></g><!--link GherkinScenariosView to RequirementController--><g class="link" data-entity-1="GherkinScenariosView" data-entity-2="RequirementController" data-source-line="45" data-uid="lnk29" id="link_GherkinScenariosView_RequirementController"><path codeLine="45" d="M1279,127.3069 C1266.72,136.9569 1252.48,148.4369 1240,159.2969 C1214.35,181.5969 1190.5639,204.3259 1171.4339,223.0859" fill="none" id="GherkinScenariosView-to-RequirementController" style="stroke:#181818;stroke-width:1;"/><polygon fill="#181818" points="1167.15,227.2869,1176.3765,223.8413,1170.7199,223.786,1170.7751,218.1294,1167.15,227.2869" style="stroke:#181818;stroke-width:1;"/><text fill="#000000" font-family="sans-serif" font-size="13" lengthAdjust="spacing" textLength="81.0151" x="1241" y="172.3638">consultar RF</text></g><!--link DraftsView to DraftController--><g class="link" data-entity-1="DraftsView" data-entity-2="DraftController" data-source-line="47" data-uid="lnk30" id="link_DraftsView_DraftController"><path codeLine="47" d="M1547.23,105.2669 C1686.48,108.3369 2048.21,120.0269 2084,159.2969 C2124.07,203.2669 1920.2467,231.1955 1806.8367,243.1955" fill="none" id="DraftsView-to-DraftController" style="stroke:#181818;stroke-width:1;"/><polygon fill="#181818" points="1800.87,243.8269,1810.2409,246.8577,1805.8422,243.3008,1809.3991,238.9021,1800.87,243.8269" style="stroke:#181818;stroke-width:1;"/><text fill="#000000" font-family="sans-serif" font-size="13" lengthAdjust="spacing" textLength="71.1826" x="2090" y="172.3638">borradores</text></g><!--link DraftsView to UseCaseController--><g class="link" data-entity-1="DraftsView" data-entity-2="UseCaseController" data-source-line="48" data-uid="lnk31" id="link_DraftsView_UseCaseController"><path codeLine="48" d="M1547.23,108.0269 C1647.98,115.9269 1850.45,136.9769 1812,176.2969 C1798.13,190.4769 1473.92,178.3369 1455,184.2969 C1427.42,192.9869 1405.0372,208.1116 1386.2172,223.4816" fill="none" id="DraftsView-to-UseCaseController" style="stroke:#181818;stroke-width:1;"/><polygon fill="#181818" points="1381.57,227.2769,1391.0709,224.6821,1385.4426,224.1142,1386.0106,218.4859,1381.57,227.2769" style="stroke:#181818;stroke-width:1;"/><text fill="#000000" font-family="sans-serif" font-size="13" lengthAdjust="spacing" textLength="83.0972" x="1817" y="172.3638">consultar UC</text></g><!--link DraftsView to RequirementController--><g class="link" data-entity-1="DraftsView" data-entity-2="RequirementController" data-source-line="49" data-uid="lnk32" id="link_DraftsView_RequirementController"><path codeLine="49" d="M1529.11,127.4069 C1547.76,142.0769 1563.8,161.0869 1549,176.2969 C1537.72,187.8869 1273.56,179.8869 1258,184.2969 C1227.42,192.9669 1201.3618,208.2453 1179.4318,223.5353" fill="none" id="DraftsView-to-RequirementController" style="stroke:#181818;stroke-width:1;"/><polygon fill="#181818" points="1174.51,226.9669,1184.1804,225.1007,1178.6115,224.1072,1179.605,218.5383,1174.51,226.9669" style="stroke:#181818;stroke-width:1;"/><text fill="#000000" font-family="sans-serif" font-size="13" lengthAdjust="spacing" textLength="81.0151" x="1555" y="172.3638">consultar RF</text></g><!--link DraftsView to GherkinController--><g class="link" data-entity-1="DraftsView" data-entity-2="GherkinController" data-source-line="50" data-uid="lnk33" id="link_DraftsView_GherkinController"><path codeLine="50" d="M1547.12,107.0469 C1659.86,113.3369 1911.54,130.4869 1937,159.2969 C1942,164.9569 1942.27,170.8769 1937,176.2969 C1925.72,187.8869 1661.38,179.2869 1646,184.2969 C1619.27,193.0069 1597.8531,207.8564 1579.6731,223.1364" fill="none" id="DraftsView-to-GherkinController" style="stroke:#181818;stroke-width:1;"/><polygon fill="#181818" points="1575.08,226.9969,1584.5433,224.2683,1578.9076,223.7798,1579.3961,218.1441,1575.08,226.9969" style="stroke:#181818;stroke-width:1;"/><text fill="#000000" font-family="sans-serif" font-size="13" lengthAdjust="spacing" textLength="134.3101" x="1941" y="172.3638">consultar escenarios</text></g><!--link AutomaticModeView to SessionController--><g class="link" data-entity-1="AutomaticModeView" data-entity-2="SessionController" data-source-line="52" data-uid="lnk34" id="link_AutomaticModeView_SessionController"><path codeLine="52" d="M418.49,127.4069 C400.15,142.0769 384.4,161.0969 399,176.2969 C414.17,192.0969 575.23,177.3269 596,184.2969 C622.46,193.1769 643.6206,208.0001 661.6106,223.2301" fill="none" id="AutomaticModeView-to-SessionController" style="stroke:#181818;stroke-width:1;"/><polygon fill="#181818" points="666.19,227.1069,661.9055,218.2388,662.3739,223.8762,656.7364,224.3446,666.19,227.1069" style="stroke:#181818;stroke-width:1;"/><text fill="#000000" font-family="sans-serif" font-size="13" lengthAdjust="spacing" textLength="99.4868" x="400" y="172.3638">handoff agente</text></g><!--SRC=[ZLHBJkH03DtNAIps3RDcWOHw11e9DhI0jQautQMkb9joXUQZESoSOOx0nN2Q9kHJ0LQH_FoU_ModPEt21YDMi46xnYKjqfCdY6GJXgKd8ss2hB3WhGjBAD5B5x4UHKvJYkwkJlJ7SbYuPu9VnYINLEt6IKA16U1cOyo-41myEDhA0RmO0-yISC5B5suqt4OM9E8uI2_ucsrTKKYO5EeXjnpNfUVj9HVK0ww5vYWaLtHVkqWDkwzvlgAeXXQM0aR7Wu8Hoq7-QPsuqWPiM-flnvgE84NsdcBVeB9MynORkimWFQiPVEyhWtISPj2ztLp5ncidhhRQjS3XuSd00nm3Qi2OxgPWDZiPcz9KtO26I8mPxN37cR2hpE83iUxrVvYWvqesgw37nBlQ3TKCZsIIMd71K66eqSDHOvEhrt-wSZPcwfvsMgEbD6sWi411K0j_pSukJXLY4nUNLAQiWzLcqUialzJwVfwiOleXOt9_m4vaT2jA9_b8c-Pbnw0NKlk44Qxdqyof4NoohyxqXDg_yjrh_t0r_OvZr3ShwfG6kT-sDiZ_KKC3Jcvid_cT0PhHMp9vaIiC1PSbw2EZEti3]--></g></svg>