<svg xmlns="http://www.w3.org/2000/svg" xmlns:xlink="http://www.w3.org/1999/xlink" contentStyleType="text/css" data-diagram-type="DESCRIPTION" height="270px" preserveAspectRatio="none" style="width:406px;height:270px;background:#FFFFFF;" version="1.1" viewBox="0 0 406 270" width="406px" zoomAndPan="magnify"><defs/><g><!--cluster Testing--><g class="cluster" data-entity="Testing" data-source-line="5" data-uid="ent0003" id="cluster_Testing"><rect fill="none" height="257" rx="2.5" ry="2.5" style="stroke:#181818;stroke-width:1;" width="236" x="164" y="7"/><text fill="#000000" font-family="sans-serif" font-size="14" font-weight="bold" lengthAdjust="spacing" textLength="58.8574" x="252.5713" y="21.9951">Testing</text></g><!--entity UC1--><g class="entity" data-entity="UC1" data-source-line="6" data-uid="ent0004" id="entity_UC1"><ellipse cx="282.0651" cy="64.813" fill="#F1F1F1" rx="102.0651" ry="22.813" style="stroke:#181818;stroke-width:0.5;"/><text fill="#000000" font-family="sans-serif" font-size="14" lengthAdjust="spacing" textLength="180.5986" x="191.7658" y="69.4615">Gestionar documentaci&#243;n</text></g><!--entity UC2--><g class="entity" data-entity="UC2" data-source-line="7" data-uid="ent0005" id="entity_UC2"><ellipse cx="282.0809" cy="144.2162" fill="#F1F1F1" rx="94.0809" ry="21.2162" style="stroke:#181818;stroke-width:0.5;"/><text fill="#000000" font-family="sans-serif" font-size="14" lengthAdjust="spacing" textLength="162.9209" x="200.6205" y="148.8646">Gestionar casos de uso</text></g><!--entity UC3--><g class="entity" data-entity="UC3" data-source-line="8" data-uid="ent0006" id="entity_UC3"><ellipse cx="282.0943" cy="224.1867" fill="#F1F1F1" rx="94.5943" ry="24.1867" style="stroke:#181818;stroke-width:0.5;"/><text fill="#000000" font-family="sans-serif" font-size="14" lengthAdjust="spacing" textLength="140.9092" x="211.6397" y="223.4452">Gestionar requisitos</text><text fill="#000000" font-family="sans-serif" font-size="14" lengthAdjust="spacing" textLength="80.0762" x="242.0562" y="239.7421">funcionales</text></g><!--entity PM--><g class="entity" data-entity="PM" data-source-line="3" data-uid="ent0002" id="entity_PM"><ellipse cx="63.1348" cy="114.5" fill="#F1F1F1" rx="8" ry="8" style="stroke:#181818;stroke-width:0.5;"/><path d="M63.1348,122.5 L63.1348,149.5 M50.1348,130.5 L76.1348,130.5 M63.1348,149.5 L50.1348,164.5 M63.1348,149.5 L76.1348,164.5" fill="none" style="stroke:#181818;stroke-width:0.5;"/><text fill="#000000" font-family="sans-serif" font-size="14" lengthAdjust="spacing" textLength="114.2695" x="6" y="178.9951">Project Manager</text></g><!--link PM to UC1--><g class="link" data-entity-1="PM" data-entity-2="UC1" data-source-line="11" data-uid="lnk7" id="link_PM_UC1"><path d="M120.11,119.25 C131.89,114.33 144.29,109.35 156,105 C176.61,97.35 193.7279,91.5848 214.1779,85.1348" fill="none" id="PM-to-UC1" style="stroke:#181818;stroke-width:1;"/><polygon fill="#181818" points="219.9,83.33,210.1136,82.2224,215.1316,84.834,212.52,89.8519,219.9,83.33" style="stroke:#181818;stroke-width:1;"/></g><!--link PM to UC2--><g class="link" data-entity-1="PM" data-entity-2="UC2" data-source-line="12" data-uid="lnk8" id="link_PM_UC2"><path d="M120.17,144 C140.76,144 158.66,144 181.64,144" fill="none" id="PM-to-UC2" style="stroke:#181818;stroke-width:1;"/><polygon fill="#181818" points="187.64,144,178.64,140,182.64,144,178.64,148,187.64,144" style="stroke:#181818;stroke-width:1;"/></g><!--link PM to UC3--><g class="link" data-entity-1="PM" data-entity-2="UC3" data-source-line="13" data-uid="lnk9" id="link_PM_UC3"><path d="M120.2,167.92 C131.97,172.73 144.35,177.64 156,182 C177.55,190.06 195.7449,196.3816 216.8249,203.3716" fill="none" id="PM-to-UC3" style="stroke:#181818;stroke-width:1;"/><polygon fill="#181818" points="222.52,205.26,215.2364,198.6306,217.7741,203.6863,212.7184,206.224,222.52,205.26" style="stroke:#181818;stroke-width:1;"/></g><!--SRC=[ROqn3i8m34LtdyBAte5sPs5WgjG1DfOeTKjGiKNiJ8XJSGGkHbfLi7JxVl_PdcWmDC4KnwjX7nC5Yy80FfWaT5sIMq7OUlOZ9OTUiMi1Pi_pE16w4wb57Xq-0J4h1Q-57cSgx1Fs4lATs7o8dpSl5yw7tRPRPb7igNIoclMscUYHeqOJlV2GESnq8bsN6dW1T2rMrNvvzelrFpPV]--></g></svg>