<?xml version="1.0" encoding="us-ascii" standalone="no"?><svg xmlns="http://www.w3.org/2000/svg" xmlns:xlink="http://www.w3.org/1999/xlink" contentStyleType="text/css" height="752px" preserveAspectRatio="none" style="width:456px;height:752px;background:#FFFFFF;" version="1.1" viewBox="0 0 456 752" width="456px" zoomAndPan="magnify"><defs/><g><path d="M123,7 L317,7 A12.5,12.5 0 0 1 329.5,19.5 L329.5,34.6094 L110.5,34.6094 L110.5,19.5 A12.5,12.5 0 0 1 123,7 " fill="#F1F1F1" style="stroke:#F1F1F1;stroke-width:1.0;"/><rect fill="none" height="592.6094" rx="12.5" ry="12.5" style="stroke:#181818;stroke-width:0.5;" width="219" x="110.5" y="7"/><line style="stroke:#181818;stroke-width:0.5;" x1="110.5" x2="329.5" y1="34.6094" y2="34.6094"/><text fill="#000000" font-family="sans-serif" font-size="14" lengthAdjust="spacing" textLength="126" x="157" y="26.5332">crearNuevaSesion()</text><g id="crearNuevaSesion.SolicitandoDatos"><rect fill="#F1F1F1" height="50" rx="12.5" ry="12.5" style="stroke:#181818;stroke-width:0.5;" width="50" x="122.5" y="153.6094"/><line style="stroke:#181818;stroke-width:0.5;" x1="122.5" x2="172.5" y1="181.2188" y2="181.2188"/><text fill="#000000" font-family="sans-serif" font-size="14" lengthAdjust="spacing" textLength="4" x="145.5" y="173.1426">&#160;</text></g><g id="crearNuevaSesion.ValidandoSesion"><rect fill="#F1F1F1" height="50" rx="12.5" ry="12.5" style="stroke:#181818;stroke-width:0.5;" width="50" x="122.5" y="291.6094"/><line style="stroke:#181818;stroke-width:0.5;" x1="122.5" x2="172.5" y1="319.2188" y2="319.2188"/><text fill="#000000" font-family="sans-serif" font-size="14" lengthAdjust="spacing" textLength="4" x="145.5" y="311.1426">&#160;</text></g><g id="crearNuevaSesion.ActivandoSesion"><rect fill="#F1F1F1" height="50" rx="12.5" ry="12.5" style="stroke:#181818;stroke-width:0.5;" width="50" x="122.5" y="429.6094"/><line style="stroke:#181818;stroke-width:0.5;" x1="122.5" x2="172.5" y1="457.2188" y2="457.2188"/><text fill="#000000" font-family="sans-serif" font-size="14" lengthAdjust="spacing" textLength="4" x="145.5" y="449.1426">&#160;</text></g><ellipse cx="147.5" cy="55.6094" fill="#222222" rx="10" ry="10" style="stroke:#222222;stroke-width:1.0;"/><ellipse cx="147.5" cy="578.6094" fill="none" rx="11" ry="11" style="stroke:#222222;stroke-width:1.0;"/><ellipse cx="147.5" cy="578.6094" fill="#222222" rx="6" ry="6" style="stroke:#222222;stroke-width:1.0;"/><!--link *start*crearNuevaSesion to SolicitandoDatos--><g id="link_*start*crearNuevaSesion_SolicitandoDatos"><path d="M147.5,65.6994 C147.5,84.1694 147.5,120.5894 147.5,147.5794 " fill="none" id="*start*crearNuevaSesion-to-SolicitandoDatos" style="stroke:#008000;stroke-width:1.0;"/><polygon fill="#008000" points="147.5,153.5794,151.5,144.5794,147.5,148.5794,143.5,144.5794,147.5,153.5794" style="stroke:#008000;stroke-width:1.0;"/><path d="M152.5,88.6094 L152.5,130.6094 L273.5,130.6094 L273.5,98.6094 L263.5,88.6094 L152.5,88.6094 " fill="#FEFFDD" style="stroke:#181818;stroke-width:0.5;"/><path d="M263.5,88.6094 L263.5,98.6094 L273.5,98.6094 L263.5,88.6094 " fill="#FEFFDD" style="stroke:#181818;stroke-width:0.5;"/><text fill="#000000" font-family="sans-serif" font-size="13" lengthAdjust="spacing" textLength="94" x="158.5" y="107.1045">Se solicita crear</text><text fill="#000000" font-family="sans-serif" font-size="13" lengthAdjust="spacing" textLength="100" x="158.5" y="123.4561">una nueva sesion</text></g><!--link SolicitandoDatos to ValidandoSesion--><g id="link_SolicitandoDatos_ValidandoSesion"><path d="M147.5,203.6094 C147.5,228.3194 147.5,260.6094 147.5,285.3894 " fill="none" id="SolicitandoDatos-to-ValidandoSesion" style="stroke:#008000;stroke-width:1.0;"/><polygon fill="#008000" points="147.5,291.3894,151.5,282.3894,147.5,286.3894,143.5,282.3894,147.5,291.3894" style="stroke:#008000;stroke-width:1.0;"/><path d="M152.5,226.6094 L152.5,268.6094 L320.5,268.6094 L320.5,236.6094 L310.5,226.6094 L152.5,226.6094 " fill="#FEFFDD" style="stroke:#181818;stroke-width:0.5;"/><path d="M310.5,226.6094 L310.5,236.6094 L320.5,236.6094 L310.5,226.6094 " fill="#FEFFDD" style="stroke:#181818;stroke-width:0.5;"/><text fill="#000000" font-family="sans-serif" font-size="13" font-weight="bold" lengthAdjust="spacing" textLength="51" x="158.5" y="245.1045">Sistema</text><text fill="#000000" font-family="sans-serif" font-size="13" lengthAdjust="spacing" textLength="92" x="213.5" y="245.1045">recibe los datos</text><text fill="#000000" font-family="sans-serif" font-size="13" lengthAdjust="spacing" textLength="119" x="158.5" y="261.4561">basicos de la sesion</text></g><!--link ValidandoSesion to ActivandoSesion--><g id="link_ValidandoSesion_ActivandoSesion"><path d="M147.5,341.6094 C147.5,366.3194 147.5,398.6094 147.5,423.3894 " fill="none" id="ValidandoSesion-to-ActivandoSesion" style="stroke:#008000;stroke-width:1.0;"/><polygon fill="#008000" points="147.5,429.3894,151.5,420.3894,147.5,424.3894,143.5,420.3894,147.5,429.3894" style="stroke:#008000;stroke-width:1.0;"/><path d="M152.5,364.6094 L152.5,406.6094 L318.5,406.6094 L318.5,374.6094 L308.5,364.6094 L152.5,364.6094 " fill="#FEFFDD" style="stroke:#181818;stroke-width:0.5;"/><path d="M308.5,364.6094 L308.5,374.6094 L318.5,374.6094 L308.5,364.6094 " fill="#FEFFDD" style="stroke:#181818;stroke-width:0.5;"/><text fill="#000000" font-family="sans-serif" font-size="13" font-weight="bold" lengthAdjust="spacing" textLength="51" x="158.5" y="383.1045">Sistema</text><text fill="#000000" font-family="sans-serif" font-size="13" lengthAdjust="spacing" textLength="90" x="213.5" y="383.1045">valida y registra</text><text fill="#000000" font-family="sans-serif" font-size="13" lengthAdjust="spacing" textLength="89" x="158.5" y="399.4561">la nueva sesion</text></g><!--link ActivandoSesion to *end*crearNuevaSesion--><g id="link_ActivandoSesion_*end*crearNuevaSesion"><path d="M147.5,479.7094 C147.5,506.3794 147.5,542.1094 147.5,561.3094 " fill="none" id="ActivandoSesion-to-*end*crearNuevaSesion" style="stroke:#008000;stroke-width:1.0;"/><polygon fill="#008000" points="147.5,567.3094,151.5,558.3094,147.5,562.3094,143.5,558.3094,147.5,567.3094" style="stroke:#008000;stroke-width:1.0;"/><path d="M152.5,502.6094 L152.5,544.6094 L317.5,544.6094 L317.5,512.6094 L307.5,502.6094 L152.5,502.6094 " fill="#FEFFDD" style="stroke:#181818;stroke-width:0.5;"/><path d="M307.5,502.6094 L307.5,512.6094 L317.5,512.6094 L307.5,502.6094 " fill="#FEFFDD" style="stroke:#181818;stroke-width:0.5;"/><text fill="#000000" font-family="sans-serif" font-size="13" font-weight="bold" lengthAdjust="spacing" textLength="51" x="158.5" y="521.1045">Sistema</text><text fill="#000000" font-family="sans-serif" font-size="13" lengthAdjust="spacing" textLength="89" x="213.5" y="521.1045">activa la sesion</text><text fill="#000000" font-family="sans-serif" font-size="13" lengthAdjust="spacing" textLength="78" x="158.5" y="537.4561">recien creada</text></g><g id="DOCUMENTACION_ABIERTA"><rect fill="#F1F1F1" height="50" rx="12.5" ry="12.5" style="stroke:#181818;stroke-width:0.5;" width="206" x="7" y="696"/><line style="stroke:#181818;stroke-width:0.5;" x1="7" x2="213" y1="723.6094" y2="723.6094"/><text fill="#000000" font-family="sans-serif" font-size="14" lengthAdjust="spacing" textLength="186" x="17" y="715.5332">DOCUMENTACION_ABIERTA</text></g><g id="SESIONES_ABIERTAS"><rect fill="#F1F1F1" height="50" rx="12.5" ry="12.5" style="stroke:#181818;stroke-width:0.5;" width="163" x="248.5" y="696"/><line style="stroke:#181818;stroke-width:0.5;" x1="248.5" x2="411.5" y1="723.6094" y2="723.6094"/><text fill="#000000" font-family="sans-serif" font-size="14" lengthAdjust="spacing" textLength="143" x="258.5" y="715.5332">SESIONES_ABIERTAS</text></g><!--link crearNuevaSesion to DOCUMENTACION_ABIERTA--><g id="link_crearNuevaSesion_DOCUMENTACION_ABIERTA"><path d="M141.74,600.1 C131.27,639.68 123.7063,668.24 117.9663,689.91 " fill="none" id="crearNuevaSesion-to-DOCUMENTACION_ABIERTA" style="stroke:#008000;stroke-width:1.0;"/><polygon fill="#008000" points="116.43,695.71,122.6011,688.0342,117.7103,690.8767,114.8678,685.9858,116.43,695.71" style="stroke:#008000;stroke-width:1.0;"/><path d="M139,635 L139,661 L276,661 L276,645 L266,635 L139,635 " fill="#FEFFDD" style="stroke:#181818;stroke-width:0.5;"/><path d="M266,635 L266,645 L276,645 L266,635 " fill="#FEFFDD" style="stroke:#181818;stroke-width:0.5;"/><text fill="#000000" font-family="sans-serif" font-size="13" lengthAdjust="spacing" textLength="116" x="145" y="653.4951">completarCreacion()</text></g><!--link crearNuevaSesion to SESIONES_ABIERTAS--><g id="link_crearNuevaSesion_SESIONES_ABIERTAS"><path d="M298.26,600.1 C308.73,639.68 316.2937,668.24 322.0337,689.91 " fill="none" id="crearNuevaSesion-to-SESIONES_ABIERTAS" style="stroke:#FF0000;stroke-width:1.0;"/><polygon fill="#FF0000" points="323.57,695.71,325.1322,685.9858,322.2897,690.8767,317.3989,688.0342,323.57,695.71" style="stroke:#FF0000;stroke-width:1.0;"/><path d="M319,635 L319,661 L449,661 L449,645 L439,635 L319,635 " fill="#FEFFDD" style="stroke:#181818;stroke-width:0.5;"/><path d="M439,635 L439,645 L449,645 L439,635 " fill="#FEFFDD" style="stroke:#181818;stroke-width:0.5;"/><text fill="#000000" font-family="sans-serif" font-size="13" lengthAdjust="spacing" textLength="109" x="325" y="653.4951">rechazarCreacion()</text></g><!--SRC=[ZPBFJW8n4CRlVOe9NjI4-0A4P8KzS10IYru8CRFT2JOixQOj96XyTsUxAkoV8DlJJh_-lc-czLjjIdIuWq8R2iUIeBJ5iVeHmWSC1CeHklcU3YZ9Qsi0FGpQnTkx0NmA0VpLfmQyM2XjePKEQ78xnM1zL_6AXSwh_HhK5IGgwCEP82fMzsiOhcusZiYiX-D-7sEPme6vcsqiI0B_8wpRYjMzGJ1LA-1F4SZayNnjryOtlFiww5YFih7KFj0EHm_P61mfdH4KZCh_ycRejQegl74XJCklaQKzh6ko728FZXngmsM7KLJyEvIMLoC7tyzLtXWPhNQhuP29DvHZq_XBYCvxFFUTBYOlJ-bycKncY_bRyZXBdvU9QAHGTbSM5D1D6AJYsnMdnlheZlBunbB9q5J-OcMJowdVyQCV-mq0]--></g></svg>