<svg xmlns="http://www.w3.org/2000/svg" xmlns:xlink="http://www.w3.org/1999/xlink" contentStyleType="text/css" data-diagram-type="STATE" height="1118px" preserveAspectRatio="none" style="width:924px;height:1118px;background:#FFFFFF;" version="1.1" viewBox="0 0 924 1118" width="924px" zoomAndPan="magnify"><?plantuml 1.2026.7beta1?><defs/><g><g class="title" data-source-line="1"><text fill="#000000" font-family="sans-serif" font-size="14" font-weight="700" lengthAdjust="spacing" textLength="213.6504" x="351.9691" y="22.9951">CU-14 - Enviar ticket a caja</text></g><g class="entity" data-qualified-name="EnviarTicket" data-source-line="16" id="ent0001"><path d="M51.96,44.2969 L569.4415,44.2969 A12.5,12.5 0 0 1 581.9415,56.7969 L581.9415,70.5938 L39.46,70.5938 L39.46,56.7969 A12.5,12.5 0 0 1 51.96,44.2969" fill="#F5F5F5"/><path d="M39.46,70.5938 L581.9415,70.5938 L581.9415,943.2238 A12.5,12.5 0 0 1 569.4415,955.7238 L51.96,955.7238 A12.5,12.5 0 0 1 39.46,943.2238 L39.46,70.5938" fill="#F5F5F5"/><rect fill="none" height="911.4269" rx="12.5" ry="12.5" style="stroke:#777777;stroke-width:0.5;" width="542.4815" x="39.46" y="44.2969"/><line style="stroke:#777777;stroke-width:0.5;" x1="39.46" x2="581.9415" y1="70.5938" y2="70.5938"/><text fill="#111111" font-family="sans-serif" font-size="14" lengthAdjust="spacing" textLength="137.6689" x="241.8663" y="62.292">enviarTicketACaja()</text><g class="entity" data-qualified-name="EnviarTicket.RevisarComanda" data-source-line="19" id="ent0002"><rect fill="#F5F5F5" height="68.8906" rx="12.5" ry="12.5" style="stroke:#777777;stroke-width:0.5;" width="230.0479" x="60.25" y="137.5938"/><line style="stroke:#777777;stroke-width:0.5;" x1="60.25" x2="290.2979" y1="163.8906" y2="163.8906"/><text fill="#111111" font-family="sans-serif" font-size="14" lengthAdjust="spacing" textLength="119.041" x="115.7534" y="155.5889">RevisarComanda</text><text fill="#111111" font-family="sans-serif" font-size="14" lengthAdjust="spacing" textLength="199.917" x="65.25" y="181.8857">El camarero o administrador</text><text fill="#111111" font-family="sans-serif" font-size="14" lengthAdjust="spacing" textLength="210.0479" x="65.25" y="198.1826">revisa la comanda de la mesa</text></g><g class="entity" data-qualified-name="EnviarTicket.SolicitarTicket" data-source-line="28" id="ent0003"><rect fill="#F5F5F5" height="68.8906" rx="12.5" ry="12.5" style="stroke:#777777;stroke-width:0.5;" width="183.0234" x="83.76" y="242.4937"/><line style="stroke:#777777;stroke-width:0.5;" x1="83.76" x2="266.7834" y1="268.7906" y2="268.7906"/><text fill="#111111" font-family="sans-serif" font-size="14" lengthAdjust="spacing" textLength="98.9912" x="125.7761" y="260.4889">SolicitarTicket</text><text fill="#111111" font-family="sans-serif" font-size="14" lengthAdjust="spacing" textLength="163.0234" x="88.76" y="286.7857">Usuario pulsa la opci&#243;n</text><text fill="#111111" font-family="sans-serif" font-size="14" lengthAdjust="spacing" textLength="133.957" x="88.76" y="303.0826">enviar ticket a caja</text></g><g class="entity" data-qualified-name="EnviarTicket.ValidarComanda" data-source-line="32" id="ent0004"><rect fill="#F5F5F5" height="85.1875" rx="12.5" ry="12.5" style="stroke:#777777;stroke-width:0.5;" width="239.96" x="55.29" y="347.3837"/><line style="stroke:#777777;stroke-width:0.5;" x1="55.29" x2="295.25" y1="373.6806" y2="373.6806"/><text fill="#111111" font-family="sans-serif" font-size="14" lengthAdjust="spacing" textLength="116.0537" x="117.2431" y="365.3789">ValidarComanda</text><text fill="#111111" font-family="sans-serif" font-size="14" lengthAdjust="spacing" textLength="219.96" x="60.29" y="391.6757">Sistema valida que la comanda</text><text fill="#111111" font-family="sans-serif" font-size="14" lengthAdjust="spacing" textLength="190.6953" x="60.29" y="407.9726">puede generar ticket y que</text><text fill="#111111" font-family="sans-serif" font-size="14" lengthAdjust="spacing" textLength="178.418" x="60.29" y="424.2695">no exista un ticket previo</text></g><g class="entity" data-qualified-name="EnviarTicket.CalcularTotal" data-source-line="36" id="ent0005"><rect fill="#F5F5F5" height="85.1875" rx="12.5" ry="12.5" style="stroke:#777777;stroke-width:0.5;" width="224.8867" x="62.83" y="468.5637"/><line style="stroke:#777777;stroke-width:0.5;" x1="62.83" x2="287.7167" y1="494.8606" y2="494.8606"/><text fill="#111111" font-family="sans-serif" font-size="14" lengthAdjust="spacing" textLength="92.1143" x="129.2162" y="486.5589">CalcularTotal</text><text fill="#111111" font-family="sans-serif" font-size="14" lengthAdjust="spacing" textLength="163.4609" x="67.83" y="512.8557">Sistema calcula el total</text><text fill="#111111" font-family="sans-serif" font-size="14" lengthAdjust="spacing" textLength="137.6758" x="67.83" y="529.1526">con l&#237;neas de carta,</text><text fill="#111111" font-family="sans-serif" font-size="14" lengthAdjust="spacing" textLength="204.8867" x="67.83" y="545.4495">tarifas de men&#250; y cantidades</text></g><g class="entity" data-qualified-name="EnviarTicket.GenerarTicket" data-source-line="40" id="ent0006"><rect fill="#F5F5F5" height="85.1875" rx="12.5" ry="12.5" style="stroke:#777777;stroke-width:0.5;" width="190.8506" x="79.85" y="589.7538"/><line style="stroke:#777777;stroke-width:0.5;" x1="79.85" x2="270.7006" y1="616.0506" y2="616.0506"/><text fill="#111111" font-family="sans-serif" font-size="14" lengthAdjust="spacing" textLength="99.3877" x="125.5814" y="607.7489">GenerarTicket</text><text fill="#111111" font-family="sans-serif" font-size="14" lengthAdjust="spacing" textLength="170.8506" x="84.85" y="634.0457">Sistema genera el ticket</text><text fill="#111111" font-family="sans-serif" font-size="14" lengthAdjust="spacing" textLength="161.4238" x="84.85" y="650.3426">con desglose completo</text><text fill="#111111" font-family="sans-serif" font-size="14" lengthAdjust="spacing" textLength="153.2002" x="84.85" y="666.6395">en estado PENDIENTE</text></g><g class="entity" data-qualified-name="EnviarTicket.RegistrarAuditoria" data-source-line="44" id="ent0007"><rect fill="#F5F5F5" height="68.8906" rx="12.5" ry="12.5" style="stroke:#777777;stroke-width:0.5;" width="234.8193" x="57.86" y="710.9438"/><line style="stroke:#777777;stroke-width:0.5;" x1="57.86" x2="292.6793" y1="737.2406" y2="737.2406"/><text fill="#111111" font-family="sans-serif" font-size="14" lengthAdjust="spacing" textLength="127.4971" x="111.5211" y="728.9389">RegistrarAuditoria</text><text fill="#111111" font-family="sans-serif" font-size="14" lengthAdjust="spacing" textLength="214.8193" x="62.86" y="755.2357">Sistema registra la generaci&#243;n</text><text fill="#111111" font-family="sans-serif" font-size="14" lengthAdjust="spacing" textLength="154.0205" x="62.86" y="771.5326">del ticket en auditor&#237;a</text></g><g class="entity" data-qualified-name="EnviarTicket.EnviarCaja" data-source-line="48" id="ent0008"><rect fill="#F5F5F5" height="68.8906" rx="12.5" ry="12.5" style="stroke:#777777;stroke-width:0.5;" width="247.623" x="51.46" y="815.8338"/><line style="stroke:#777777;stroke-width:0.5;" x1="51.46" x2="299.083" y1="842.1306" y2="842.1306"/><text fill="#111111" font-family="sans-serif" font-size="14" lengthAdjust="spacing" textLength="75.0518" x="137.7456" y="833.8289">EnviarCaja</text><text fill="#111111" font-family="sans-serif" font-size="14" lengthAdjust="spacing" textLength="227.623" x="56.46" y="860.1257">Sistema deja el ticket disponible</text><text fill="#111111" font-family="sans-serif" font-size="14" lengthAdjust="spacing" textLength="187.0791" x="56.46" y="876.4226">en CajaView para su cobro</text></g><g class="start_entity" data-qualified-name="EnviarTicket..start.EnviarTicket" data-source-line="17" id="ent0011"><ellipse cx="175.27" cy="91.5938" fill="#222222" rx="10" ry="10" style="stroke:#222222;stroke-width:1;"/></g><g class="end_entity" data-qualified-name="EnviarTicket..end.EnviarTicket" data-source-line="50" id="ent0019"><ellipse cx="175.27" cy="931.7238" fill="none" rx="11" ry="11" style="stroke:#222222;stroke-width:1;"/><ellipse cx="175.27" cy="931.7238" fill="#222222" rx="6" ry="6" style="stroke:#222222;stroke-width:1;"/></g><g class="entity" data-qualified-name="EnviarTicket.GMN23" data-source-line="21" id="ent0024"><path d="M308.61,144.3438 L308.61,168.0438 L290.67,172.0438 L308.61,176.0438 L308.61,199.7422 A0,0 0 0 0 308.61,199.7422 L557.9415,199.7422 A0,0 0 0 0 557.9415,199.7422 L557.9415,154.3438 L547.9415,144.3438 L308.61,144.3438 A0,0 0 0 0 308.61,144.3438" fill="#FFF8D6" style="stroke:#C8B45D;stroke-width:0.5;"/><path d="M547.9415,144.3438 L547.9415,154.3438 L557.9415,154.3438 L547.9415,144.3438" fill="#FFF8D6" style="stroke:#C8B45D;stroke-width:0.5;"/><text fill="#000000" font-family="sans-serif" font-size="13" lengthAdjust="spacing" textLength="87.7183" x="314.61" y="161.4106">Precondici&#243;n:</text><text fill="#000000" font-family="sans-serif" font-size="13" lengthAdjust="spacing" textLength="228.3315" x="314.61" y="176.5435">La mesa tiene una comanda activa</text><text fill="#000000" font-family="sans-serif" font-size="13" lengthAdjust="spacing" textLength="145.9199" x="314.61" y="191.6763">preparada para cobro.</text></g><!--link *start*EnviarTicket to RevisarComanda--><g class="link" data-entity-1="ent0011" data-entity-2="ent0002" data-link-type="dependency" data-source-line="17" id="lnk12"><path d="M175.27,101.9037 C175.27,110.6738 175.27,119.3438 175.27,132.2238" fill="none" id="*start*EnviarTicket-to-RevisarComanda" style="stroke:#3F8F3F;stroke-width:1;"/><polygon fill="#3F8F3F" points="175.27,137.2238,179.27,128.2238,175.27,132.2238,171.27,128.2238,175.27,137.2238" style="stroke:#3F8F3F;stroke-width:1;stroke-linejoin:miter;stroke-miterlimit:10;"/></g><!--link RevisarComanda to SolicitarTicket--><g class="link" data-entity-1="ent0002" data-entity-2="ent0003" data-link-type="dependency" data-source-line="26" id="lnk13"><path d="M175.27,206.7338 C175.27,218.1038 175.27,225.7938 175.27,237.1638" fill="none" id="RevisarComanda-to-SolicitarTicket" style="stroke:#3F8F3F;stroke-width:1;"/><polygon fill="#3F8F3F" points="175.27,242.1638,179.27,233.1638,175.27,237.1638,171.27,233.1638,175.27,242.1638" style="stroke:#3F8F3F;stroke-width:1;stroke-linejoin:miter;stroke-miterlimit:10;"/></g><!--link SolicitarTicket to ValidarComanda--><g class="link" data-entity-1="ent0003" data-entity-2="ent0004" data-link-type="dependency" data-source-line="30" id="lnk14"><path d="M175.27,311.8538 C175.27,322.9538 175.27,330.4138 175.27,342.0337" fill="none" id="SolicitarTicket-to-ValidarComanda" style="stroke:#3F8F3F;stroke-width:1;"/><polygon fill="#3F8F3F" points="175.27,347.0337,179.27,338.0337,175.27,342.0337,171.27,338.0337,175.27,347.0337" style="stroke:#3F8F3F;stroke-width:1;stroke-linejoin:miter;stroke-miterlimit:10;"/></g><!--link ValidarComanda to CalcularTotal--><g class="link" data-entity-1="ent0004" data-entity-2="ent0005" data-link-type="dependency" data-source-line="34" id="lnk15"><path d="M175.27,432.9938 C175.27,444.3838 175.27,451.7238 175.27,463.1138" fill="none" id="ValidarComanda-to-CalcularTotal" style="stroke:#3F8F3F;stroke-width:1;"/><polygon fill="#3F8F3F" points="175.27,468.1138,179.27,459.1138,175.27,463.1138,171.27,459.1138,175.27,468.1138" style="stroke:#3F8F3F;stroke-width:1;stroke-linejoin:miter;stroke-miterlimit:10;"/></g><!--link CalcularTotal to GenerarTicket--><g class="link" data-entity-1="ent0005" data-entity-2="ent0006" data-link-type="dependency" data-source-line="38" id="lnk16"><path d="M175.27,554.1837 C175.27,565.5738 175.27,572.9137 175.27,584.3037" fill="none" id="CalcularTotal-to-GenerarTicket" style="stroke:#3F8F3F;stroke-width:1;"/><polygon fill="#3F8F3F" points="175.27,589.3037,179.27,580.3037,175.27,584.3037,171.27,580.3037,175.27,589.3037" style="stroke:#3F8F3F;stroke-width:1;stroke-linejoin:miter;stroke-miterlimit:10;"/></g><!--link GenerarTicket to RegistrarAuditoria--><g class="link" data-entity-1="ent0006" data-entity-2="ent0007" data-link-type="dependency" data-source-line="42" id="lnk17"><path d="M175.27,675.3238 C175.27,686.9938 175.27,694.5138 175.27,705.6438" fill="none" id="GenerarTicket-to-RegistrarAuditoria" style="stroke:#3F8F3F;stroke-width:1;"/><polygon fill="#3F8F3F" points="175.27,710.6438,179.27,701.6438,175.27,705.6438,171.27,701.6438,175.27,710.6438" style="stroke:#3F8F3F;stroke-width:1;stroke-linejoin:miter;stroke-miterlimit:10;"/></g><!--link RegistrarAuditoria to EnviarCaja--><g class="link" data-entity-1="ent0007" data-entity-2="ent0008" data-link-type="dependency" data-source-line="46" id="lnk18"><path d="M175.27,780.0738 C175.27,791.4438 175.27,799.1338 175.27,810.5138" fill="none" id="RegistrarAuditoria-to-EnviarCaja" style="stroke:#3F8F3F;stroke-width:1;"/><polygon fill="#3F8F3F" points="175.27,815.5138,179.27,806.5138,175.27,810.5138,171.27,806.5138,175.27,815.5138" style="stroke:#3F8F3F;stroke-width:1;stroke-linejoin:miter;stroke-miterlimit:10;"/></g><!--link EnviarCaja to *end*EnviarTicket--><g class="link" data-entity-1="ent0008" data-entity-2="ent0019" data-link-type="dependency" data-source-line="50" id="lnk20"><path d="M175.27,884.9738 C175.27,897.8238 175.27,906.5438 175.27,915.5738" fill="none" id="EnviarCaja-to-*end*EnviarTicket" style="stroke:#3F8F3F;stroke-width:1;"/><polygon fill="#3F8F3F" points="175.27,920.5738,179.27,911.5738,175.27,915.5738,171.27,911.5738,175.27,920.5738" style="stroke:#3F8F3F;stroke-width:1;stroke-linejoin:miter;stroke-miterlimit:10;"/></g></g><g class="entity" data-qualified-name="TICKET_EN_CAJA" data-source-line="56" id="ent0009"><rect fill="#F5F5F5" height="50" rx="12.5" ry="12.5" style="stroke:#777777;stroke-width:0.5;" width="135.4111" x="7" y="1042.9869"/><line style="stroke:#777777;stroke-width:0.5;" x1="7" x2="142.4111" y1="1069.2838" y2="1069.2838"/><text fill="#111111" font-family="sans-serif" font-size="14" lengthAdjust="spacing" textLength="115.4111" x="17" y="1060.982">TICKET_EN_CAJA</text></g><g class="entity" data-qualified-name="OPERACION_RECHAZADA" data-source-line="57" id="ent0010"><rect fill="#F5F5F5" height="50" rx="12.5" ry="12.5" style="stroke:#777777;stroke-width:0.5;" width="197.9873" x="448.71" y="1042.9869"/><line style="stroke:#777777;stroke-width:0.5;" x1="448.71" x2="646.6973" y1="1069.2838" y2="1069.2838"/><text fill="#111111" font-family="sans-serif" font-size="14" lengthAdjust="spacing" textLength="177.9873" x="458.71" y="1060.982">OPERACION_RECHAZADA</text></g><g class="entity" data-qualified-name="GMN26" data-source-line="60" id="ent0027"><path d="M177.9,1040.2969 L177.9,1063.9869 L142.9,1067.9869 L177.9,1071.9869 L177.9,1095.6953 A0,0 0 0 0 177.9,1095.6953 L413.5079,1095.6953 A0,0 0 0 0 413.5079,1095.6953 L413.5079,1050.2969 L403.5079,1040.2969 L177.9,1040.2969 A0,0 0 0 0 177.9,1040.2969" fill="#FFF8D6" style="stroke:#C8B45D;stroke-width:0.5;"/><path d="M403.5079,1040.2969 L403.5079,1050.2969 L413.5079,1050.2969 L403.5079,1040.2969" fill="#FFF8D6" style="stroke:#C8B45D;stroke-width:0.5;"/><text fill="#000000" font-family="sans-serif" font-size="13" lengthAdjust="spacing" textLength="94.1992" x="183.9" y="1057.3638">Postcondici&#243;n:</text><text fill="#000000" font-family="sans-serif" font-size="13" lengthAdjust="spacing" textLength="214.6079" x="183.9" y="1072.4966">El ticket queda generado en caja</text><text fill="#000000" font-family="sans-serif" font-size="13" lengthAdjust="spacing" textLength="169.7681" x="183.9" y="1087.6294">con el desglose completo.</text></g><g class="entity" data-qualified-name="GMN29" data-source-line="66" id="ent0030"><path d="M681.82,1032.7269 L681.82,1063.9869 L647,1067.9869 L681.82,1071.9869 L681.82,1103.2581 A0,0 0 0 0 681.82,1103.2581 L909.5886,1103.2581 A0,0 0 0 0 909.5886,1103.2581 L909.5886,1042.7269 L899.5886,1032.7269 L681.82,1032.7269 A0,0 0 0 0 681.82,1032.7269" fill="#FFF8D6" style="stroke:#C8B45D;stroke-width:0.5;"/><path d="M899.5886,1032.7269 L899.5886,1042.7269 L909.5886,1042.7269 L899.5886,1032.7269" fill="#FFF8D6" style="stroke:#C8B45D;stroke-width:0.5;"/><text fill="#000000" font-family="sans-serif" font-size="13" lengthAdjust="spacing" textLength="53.9297" x="687.82" y="1049.7938">CU-N06:</text><text fill="#000000" font-family="sans-serif" font-size="13" lengthAdjust="spacing" textLength="206.7686" x="687.82" y="1064.9266">El sistema rechaza la operaci&#243;n</text><text fill="#000000" font-family="sans-serif" font-size="13" lengthAdjust="spacing" textLength="129.835" x="687.82" y="1080.0594">si el ticket ya existe</text><text fill="#000000" font-family="sans-serif" font-size="13" lengthAdjust="spacing" textLength="176.103" x="687.82" y="1095.1922">o la mesa ya est&#225; cobrada.</text></g><!--link EnviarTicket to TICKET_EN_CAJA--><g class="link" data-entity-1="ent0001" data-entity-2="ent0009" data-link-type="dependency" data-source-line="53" id="lnk21"><path d="M120.91,956.1869 C105.71,992.6369 94.9936,1018.3217 86.8036,1037.9717" fill="none" id="EnviarTicket-to-TICKET_EN_CAJA" style="stroke:#3F8F3F;stroke-width:1;"/><polygon fill="#3F8F3F" points="84.88,1042.5869,92.0346,1035.8184,86.8036,1037.9717,84.6503,1032.7407,84.88,1042.5869" style="stroke:#3F8F3F;stroke-width:1;stroke-linejoin:miter;stroke-miterlimit:10;"/><text fill="#000000" font-family="sans-serif" font-size="13" lengthAdjust="spacing" textLength="110.4492" x="105.71" y="998.7938">ticketGenerado()</text></g><!--link EnviarTicket to OPERACION_RECHAZADA--><g class="link" data-entity-1="ent0001" data-entity-2="ent0010" data-link-type="dependency" data-source-line="54" id="lnk22"><path d="M501.31,956.1869 C516.57,992.6369 527.3284,1018.325 535.5584,1037.975" fill="none" id="EnviarTicket-to-OPERACION_RECHAZADA" style="stroke:#3F8F3F;stroke-width:1;"/><polygon fill="#3F8F3F" points="537.49,1042.5869,537.7026,1032.7403,535.5584,1037.975,530.3237,1035.8308,537.49,1042.5869" style="stroke:#3F8F3F;stroke-width:1;stroke-linejoin:miter;stroke-miterlimit:10;"/><text fill="#000000" font-family="sans-serif" font-size="13" lengthAdjust="spacing" textLength="128.1274" x="518.71" y="998.7938">ticketNoGenerado()</text></g><?plantuml-src TLNDJjj04BxxAKPmWQf1HVmKSQXa7AUbhGA2mA5DXHRla2muk-xkEYcj-Z1z04wzzPeNw-okGsmdE8V8t_nyCz_EZgsmEK9orTdTXmwaSYgO1Yko1xJ086FtB8hCWv05qsm2PioucWavWZkM6wnPRbdsCDAgb3nHkT8m6mjRjyTQgramRUxrZdfxlNfQoop2hmZWf9LcitVWViwYD4TTeM_zGsXFILjXk_w9VjVoIlLYsbxlg7lOJfiSdUmVT2b552hQGA_7mCiH9oJ6rlO6C5Ff571FyFNLD-Xqti45JeLXb6_292Vfe8N0CQGvoJfX6hK21OnFX1J6QX9M3wNstf2Jz5K0H_SsGSCecMz8Yz7OWhfham4zvnep9Rd8nFolFFRGvn1DXueIePJBr2opOXhY2erECWBT7tdSQhL35fJSawxfnBLxgNAYiWifd5SBeeQlJCcqK52KUMXD5RwyeSIruxQQmr5TirpmXh9DX8WkIKUSC9Xw0tmliIRaK1ObafWZKa4lIH-Tsr1A1VY3mXa9j30LxZ3K6YPNJiBohCofGcLPxdmQGAsOBE20ELXd6aew8CZdJn9faAYWZ6dBNWybjIlk0ZH1EVz7fMLCMYBcQ5OPN17lGozByHj0hOZGjA_1cq8Hb7UKAuDEeY97gzo9098ANC5vsk-Uflr1kfet3Fh8JwsEIowiqg8QzZPQAq9NHdSeeQ1g3FXpNJHlm4Be_EcbZ8u-NC2acfVbMusEutsjO-3254gAsnnzbyxvMk0ipBifmyYtaZackjbk8JHklCC7fycdT72Jzc-I-6DCl84dACNLrlPgoDbvUX4dfsVzcuiq-H1_YRlBkBwgHIxMJvF3Rvucj71Sazbxhy6ZgBb4MWbfXIXZcpiaVHQHxWfV71xD2Edehoo06oVIUcMYTgBb1cdohYiDt8Ue_-Qm8ZNFWvEDsSzgTIp6XboCg9tl8mit6CcW5YlJeyRE__ZZfVMshES_?></g></svg>