<svg xmlns="http://www.w3.org/2000/svg" xmlns:xlink="http://www.w3.org/1999/xlink" contentStyleType="text/css" data-diagram-type="STATE" height="1393px" preserveAspectRatio="none" style="width:871px;height:1393px;background:#FFFFFF;" version="1.1" viewBox="0 0 871 1393" width="871px" zoomAndPan="magnify"><?plantuml 1.2026.7beta1?><defs/><g><g class="title" data-source-line="1"><text fill="#000000" font-family="sans-serif" font-size="14" font-weight="700" lengthAdjust="spacing" textLength="261.3447" x="301.4906" y="22.9951">Diagrama de Estados  - Comanda</text></g><g class="entity" data-qualified-name="EnServicio" data-source-line="24" id="ent0001"><path d="M19.5,287.6969 L485.5899,287.6969 A12.5,12.5 0 0 1 498.0899,300.1969 L498.0899,313.9938 L7,313.9938 L7,300.1969 A12.5,12.5 0 0 1 19.5,287.6969" fill="#F5F5F5"/><path d="M7,313.9938 L498.0899,313.9938 L498.0899,772.4938 A12.5,12.5 0 0 1 485.5899,784.9938 L19.5,784.9938 A12.5,12.5 0 0 1 7,772.4938 L7,313.9938" fill="#F5F5F5"/><rect fill="none" height="497.2969" rx="12.5" ry="12.5" style="stroke:#B5B5B5;stroke-width:0.5;" width="491.0899" x="7" y="287.6969"/><line style="stroke:#B5B5B5;stroke-width:0.5;" x1="7" x2="498.0899" y1="313.9938" y2="313.9938"/><text fill="#111111" font-family="sans-serif" font-size="14" lengthAdjust="spacing" textLength="200.7236" x="152.1832" y="305.692">En Servicio (Ciclo de Cocina)</text><g class="entity" data-qualified-name="EnServicio.ConLineasEnCocina" data-source-line="26" id="ent0002"><rect fill="#FFF2CC" height="50" rx="12.5" ry="12.5" style="stroke:#D6A84F;stroke-width:0.5;" width="138.8154" x="101.5" y="397.9938"/><line style="stroke:#D6A84F;stroke-width:0.5;" x1="101.5" x2="240.3154" y1="424.2906" y2="424.2906"/><text fill="#111111" font-family="sans-serif" font-size="14" lengthAdjust="spacing" textLength="118.8154" x="111.5" y="415.9889">L&#237;neas en Cocina</text></g><g class="entity" data-qualified-name="EnServicio.EnPreparacion" data-source-line="27" id="ent0003"><rect fill="#FFF2CC" height="50" rx="12.5" ry="12.5" style="stroke:#D6A84F;stroke-width:0.5;" width="125.8066" x="19" y="500.9938"/><line style="stroke:#D6A84F;stroke-width:0.5;" x1="19" x2="144.8066" y1="527.2906" y2="527.2906"/><text fill="#111111" font-family="sans-serif" font-size="14" lengthAdjust="spacing" textLength="105.8066" x="29" y="518.9889">En Preparaci&#243;n</text></g><g class="entity" data-qualified-name="EnServicio.ListaParaServir" data-source-line="28" id="ent0004"><rect fill="#FFF2CC" height="50" rx="12.5" ry="12.5" style="stroke:#D6A84F;stroke-width:0.5;" width="134.9395" x="23.43" y="618.9938"/><line style="stroke:#D6A84F;stroke-width:0.5;" x1="23.43" x2="158.3695" y1="645.2906" y2="645.2906"/><text fill="#111111" font-family="sans-serif" font-size="14" lengthAdjust="spacing" textLength="114.9395" x="33.43" y="636.9889">Lista para Servir</text></g><g class="entity" data-qualified-name="EnServicio.Servida" data-source-line="29" id="ent0005"><rect fill="#FFF2CC" height="50" rx="12.5" ry="12.5" style="stroke:#D6A84F;stroke-width:0.5;" width="72.8965" x="139.46" y="721.9938"/><line style="stroke:#D6A84F;stroke-width:0.5;" x1="139.46" x2="212.3565" y1="748.2906" y2="748.2906"/><text fill="#111111" font-family="sans-serif" font-size="14" lengthAdjust="spacing" textLength="52.8965" x="149.46" y="739.9889">Servida</text></g><g class="start_entity" data-qualified-name="EnServicio..start.EnServicio" data-source-line="31" id="ent0013"><ellipse cx="170.9" cy="334.9938" fill="#222222" rx="10" ry="10" style="stroke:#222222;stroke-width:1;"/></g><!--link *start*EnServicio to ConLineasEnCocina--><g class="link" data-entity-1="ent0013" data-entity-2="ent0002" data-link-type="dependency" data-source-line="31" id="lnk14"><path d="M170.9,345.1938 C170.9,357.5938 170.9,375.1038 170.9,392.5538" fill="none" id="*start*EnServicio-to-ConLineasEnCocina" style="stroke:#6B7F7F;stroke-width:1.2;"/><polygon fill="#6B7F7F" points="170.9,397.5538,174.9,388.5538,170.9,392.5538,166.9,388.5538,170.9,397.5538" style="stroke:#6B7F7F;stroke-width:1.2;stroke-linejoin:miter;stroke-miterlimit:10;"/><text fill="#000000" font-family="sans-serif" font-size="13" lengthAdjust="spacing" textLength="123.5825" x="171.9" y="376.0606">Env&#237;o a KDS (Pase)</text></g><!--link ConLineasEnCocina to EnPreparacion--><g class="link" data-entity-1="ent0002" data-entity-2="ent0003" data-link-type="dependency" data-source-line="32" id="lnk15"><path d="M101.34,446.6238 C93.66,451.8238 86.84,458.2038 81.9,465.9938 C75.49,476.1138 74.3749,484.3458 75.6649,495.6858" fill="none" id="ConLineasEnCocina-to-EnPreparacion" style="stroke:#6B7F7F;stroke-width:1.2;"/><polygon fill="#6B7F7F" points="76.23,500.6538,79.1871,491.2593,75.6649,495.6858,71.2384,492.1635,76.23,500.6538" style="stroke:#6B7F7F;stroke-width:1.2;stroke-linejoin:miter;stroke-miterlimit:10;"/><text fill="#000000" font-family="sans-serif" font-size="13" lengthAdjust="spacing" textLength="164.5249" x="82.9" y="479.0606">Cocina inicia preparaci&#243;n</text></g><!--link EnPreparacion to ListaParaServir--><g class="link" data-entity-1="ent0003" data-entity-2="ent0004" data-link-type="dependency" data-source-line="33" id="lnk16"><path d="M83.79,551.3138 C85.33,571.1138 87.0919,593.9388 88.6319,613.7188" fill="none" id="EnPreparacion-to-ListaParaServir" style="stroke:#6B7F7F;stroke-width:1.2;"/><polygon fill="#6B7F7F" points="89.02,618.7038,92.3093,609.4204,88.6319,613.7188,84.3335,610.0414,89.02,618.7038" style="stroke:#6B7F7F;stroke-width:1.2;stroke-linejoin:miter;stroke-miterlimit:10;"/><text fill="#000000" font-family="sans-serif" font-size="13" lengthAdjust="spacing" textLength="135.9858" x="88.9" y="589.5606">Cocina marca "Listo"</text></g><!--link ListaParaServir to Servida--><g class="link" data-entity-1="ent0004" data-entity-2="ent0005" data-link-type="dependency" data-source-line="34" id="lnk17"><path d="M86.83,669.3738 C86.2,680.7238 87.39,693.9138 93.9,703.9938 C104.15,719.8438 117.7079,728.223 134.3679,734.573" fill="none" id="ListaParaServir-to-Servida" style="stroke:#6B7F7F;stroke-width:1.2;"/><polygon fill="#6B7F7F" points="139.04,736.3538,132.0548,729.4106,134.3679,734.573,129.2055,736.886,139.04,736.3538" style="stroke:#6B7F7F;stroke-width:1.2;stroke-linejoin:miter;stroke-miterlimit:10;"/><text fill="#000000" font-family="sans-serif" font-size="13" lengthAdjust="spacing" textLength="152.623" x="94.9" y="700.0606">Camarero sirve el plato</text></g><!--link Servida to ConLineasEnCocina--><g class="link" data-entity-1="ent0005" data-entity-2="ent0002" data-link-type="dependency" data-source-line="36" id="lnk18"><path d="M212.85,733.5138 C226.35,726.9638 240.19,717.4238 247.9,703.9938 C300.59,612.2738 301.9,556.9538 247.9,465.9938 C243.78,459.0538 242.0441,456.218 235.5741,451.278" fill="none" id="Servida-to-ConLineasEnCocina" style="stroke:#6B7F7F;stroke-width:1.2;"/><polygon fill="#6B7F7F" points="231.6,448.2438,236.3259,456.8847,235.5741,451.278,241.1807,450.5262,231.6,448.2438" style="stroke:#6B7F7F;stroke-width:1.2;stroke-linejoin:miter;stroke-miterlimit:10;"/><text fill="#000000" font-family="sans-serif" font-size="13" lengthAdjust="spacing" textLength="184.1899" x="288.9" y="582.0606">Camarero a&#241;ade m&#225;s platos</text><text fill="#000000" font-family="sans-serif" font-size="13" lengthAdjust="spacing" textLength="134.5259" x="313.732" y="597.1935">(Segundos / Postres)</text></g></g><g class="entity" data-qualified-name="TicketEnCaja" data-source-line="43" id="ent0006"><rect fill="#FFF2CC" height="50" rx="12.5" ry="12.5" style="stroke:#D6A84F;stroke-width:0.5;" width="119.5586" x="290.77" y="864.6969"/><line style="stroke:#D6A84F;stroke-width:0.5;" x1="290.77" x2="410.3286" y1="890.9938" y2="890.9938"/><text fill="#111111" font-family="sans-serif" font-size="14" lengthAdjust="spacing" textLength="99.5586" x="300.77" y="882.692">Ticket en Caja</text></g><g class="entity" data-qualified-name="Cobrada" data-source-line="53" id="ent0007"><path d="M272,994.3969 L435.0908,994.3969 A12.5,12.5 0 0 1 447.5908,1006.8969 L447.5908,1020.6938 L259.5,1020.6938 L259.5,1006.8969 A12.5,12.5 0 0 1 272,994.3969" fill="#FFF2CC"/><path d="M259.5,1020.6938 L447.5908,1020.6938 L447.5908,1138.1938 A12.5,12.5 0 0 1 435.0908,1150.6938 L272,1150.6938 A12.5,12.5 0 0 1 259.5,1138.1938 L259.5,1020.6938" fill="#FFF2CC"/><rect fill="none" height="156.2969" rx="12.5" ry="12.5" style="stroke:#D6A84F;stroke-width:0.5;" width="188.0908" x="259.5" y="994.3969"/><line style="stroke:#D6A84F;stroke-width:0.5;" x1="259.5" x2="447.5908" y1="1020.6938" y2="1020.6938"/><text fill="#111111" font-family="sans-serif" font-size="14" lengthAdjust="spacing" textLength="59.0283" x="324.0313" y="1012.392">Cobrada</text><g class="start_entity" data-qualified-name="Cobrada..start.Cobrada" data-source-line="54" id="ent0022"><ellipse cx="347.55" cy="1041.6938" fill="#222222" rx="10" ry="10" style="stroke:#222222;stroke-width:1;"/></g><g class="entity" data-qualified-name="Cobrada.PendienteDeCierre" data-source-line="54" id="ent0023"><rect fill="#FFF2CC" height="50" rx="12.5" ry="12.5" style="stroke:#D6A84F;stroke-width:0.5;" width="152.0908" x="271.5" y="1087.6938"/><line style="stroke:#D6A84F;stroke-width:0.5;" x1="271.5" x2="423.5908" y1="1113.9906" y2="1113.9906"/><text fill="#111111" font-family="sans-serif" font-size="14" lengthAdjust="spacing" textLength="132.0908" x="281.5" y="1105.6889">PendienteDeCierre</text></g><!--link *start*Cobrada to PendienteDeCierre--><g class="link" data-entity-1="ent0022" data-entity-2="ent0023" data-link-type="dependency" data-source-line="54" id="lnk24"><path d="M347.55,1052.0038 C347.55,1061.0438 347.55,1070.1838 347.55,1082.4238" fill="none" id="*start*Cobrada-to-PendienteDeCierre" style="stroke:#6B7F7F;stroke-width:1.2;"/><polygon fill="#6B7F7F" points="347.55,1087.4238,351.55,1078.4238,347.55,1082.4238,343.55,1078.4238,347.55,1087.4238" style="stroke:#6B7F7F;stroke-width:1.2;stroke-linejoin:miter;stroke-miterlimit:10;"/></g></g><g class="entity" data-qualified-name="Cerrada" data-source-line="64" id="ent0008"><rect fill="#FFF2CC" height="50" rx="12.5" ry="12.5" style="stroke:#D6A84F;stroke-width:0.5;" width="75.9453" x="315.57" y="1227.6869"/><line style="stroke:#D6A84F;stroke-width:0.5;" x1="315.57" x2="391.5153" y1="1253.9838" y2="1253.9838"/><text fill="#111111" font-family="sans-serif" font-size="14" lengthAdjust="spacing" textLength="55.9453" x="325.57" y="1245.682">Cerrada</text></g><g class="entity" data-qualified-name="Cancelada" data-source-line="77" id="ent0009"><rect fill="#FFF2CC" height="50" rx="12.5" ry="12.5" style="stroke:#D6A84F;stroke-width:0.5;" width="93.4727" x="84.81" y="1047.5469"/><line style="stroke:#D6A84F;stroke-width:0.5;" x1="84.81" x2="178.2827" y1="1073.8438" y2="1073.8438"/><text fill="#111111" font-family="sans-serif" font-size="14" lengthAdjust="spacing" textLength="73.4727" x="94.81" y="1065.542">Cancelada</text></g><g class="start_entity" data-qualified-name=".start." data-source-line="15" id="ent0010"><ellipse cx="402.54" cy="53.2969" fill="#222222" rx="10" ry="10" style="stroke:#222222;stroke-width:1;"/></g><g class="entity" data-qualified-name="Abierta" data-source-line="15" id="ent0011"><rect fill="#FFF2CC" height="50" rx="12.5" ry="12.5" style="stroke:#D6A84F;stroke-width:0.5;" width="70.791" x="367.15" y="157.9969"/><line style="stroke:#D6A84F;stroke-width:0.5;" x1="367.15" x2="437.941" y1="184.2938" y2="184.2938"/><text fill="#111111" font-family="sans-serif" font-size="14" lengthAdjust="spacing" textLength="50.791" x="377.15" y="175.992">Abierta</text></g><g class="end_entity" data-qualified-name=".end." data-source-line="70" id="ent0026"><ellipse cx="69.54" cy="1358.8269" fill="none" rx="11" ry="11" style="stroke:#222222;stroke-width:1;"/><ellipse cx="69.54" cy="1358.8269" fill="#222222" rx="6" ry="6" style="stroke:#222222;stroke-width:1;"/></g><g class="entity" data-qualified-name="GMN32" data-source-line="18" id="ent0033"><path d="M472.79,155.2969 L472.79,178.9969 L438.34,182.9969 L472.79,186.9969 L472.79,210.6953 A0,0 0 0 0 472.79,210.6953 L706.3032,210.6953 A0,0 0 0 0 706.3032,210.6953 L706.3032,165.2969 L696.3032,155.2969 L472.79,155.2969 A0,0 0 0 0 472.79,155.2969" fill="#FEFFDD" style="stroke:#181818;stroke-width:0.5;"/><path d="M696.3032,155.2969 L696.3032,165.2969 L706.3032,165.2969 L696.3032,155.2969" fill="#FEFFDD" style="stroke:#181818;stroke-width:0.5;"/><text fill="#000000" font-family="sans-serif" font-size="13" font-weight="700" lengthAdjust="spacing" textLength="132.939" x="478.79" y="172.3638">Estado persistido:</text><text fill="#000000" font-family="sans-serif" font-size="13" lengthAdjust="spacing" textLength="55.7261" x="615.8613" y="172.3638">ABIERTA</text><text fill="#000000" font-family="sans-serif" font-size="13" lengthAdjust="spacing" textLength="212.5132" x="478.79" y="187.4966">El camarero puede a&#241;adir platos</text><text fill="#000000" font-family="sans-serif" font-size="13" lengthAdjust="spacing" textLength="173.4116" x="478.79" y="202.6294">o editar l&#237;neas pendientes.</text></g><g class="entity" data-qualified-name="GMN35" data-source-line="45" id="ent0036"><path d="M604.76,861.9969 L604.76,885.6969 L410.66,889.6969 L604.76,893.6969 L604.76,917.3953 A0,0 0 0 0 604.76,917.3953 L856.3259,917.3953 A0,0 0 0 0 856.3259,917.3953 L856.3259,871.9969 L846.3259,861.9969 L604.76,861.9969 A0,0 0 0 0 604.76,861.9969" fill="#FEFFDD" style="stroke:#181818;stroke-width:0.5;"/><path d="M846.3259,861.9969 L846.3259,871.9969 L856.3259,871.9969 L846.3259,861.9969" fill="#FEFFDD" style="stroke:#181818;stroke-width:0.5;"/><text fill="#000000" font-family="sans-serif" font-size="13" lengthAdjust="spacing" textLength="230.5659" x="610.76" y="879.0638">Generar el ticket no cierra la mesa.</text><text fill="#000000" font-family="sans-serif" font-size="13" lengthAdjust="spacing" textLength="225.5703" x="610.76" y="894.1966">La comanda sigue vinculada hasta</text><text fill="#000000" font-family="sans-serif" font-size="13" lengthAdjust="spacing" textLength="174.7065" x="610.76" y="909.3294">el cobro y cierre definitivo.</text></g><g class="entity" data-qualified-name="GMN38" data-source-line="57" id="ent0039"><path d="M482.42,1044.8469 L482.42,1068.5469 L447.84,1072.5469 L482.42,1076.5469 L482.42,1100.2453 A0,0 0 0 0 482.42,1100.2453 L702.6729,1100.2453 A0,0 0 0 0 702.6729,1100.2453 L702.6729,1054.8469 L692.6729,1044.8469 L482.42,1044.8469 A0,0 0 0 0 482.42,1044.8469" fill="#FEFFDD" style="stroke:#181818;stroke-width:0.5;"/><path d="M692.6729,1044.8469 L692.6729,1054.8469 L702.6729,1054.8469 L692.6729,1044.8469" fill="#FEFFDD" style="stroke:#181818;stroke-width:0.5;"/><text fill="#000000" font-family="sans-serif" font-size="13" font-weight="700" lengthAdjust="spacing" textLength="128.7241" x="488.42" y="1061.9138">Estado del ticket:</text><text fill="#000000" font-family="sans-serif" font-size="13" lengthAdjust="spacing" textLength="66.3965" x="621.2764" y="1061.9138">COBRADO</text><text fill="#000000" font-family="sans-serif" font-size="13" lengthAdjust="spacing" textLength="169.0952" x="488.42" y="1077.0466">El cobro no libera la mesa</text><text fill="#000000" font-family="sans-serif" font-size="13" lengthAdjust="spacing" textLength="119.8374" x="488.42" y="1092.1794">autom&#225;ticamente.</text></g><g class="entity" data-qualified-name="GMN41" data-source-line="66" id="ent0042"><path d="M195.28,1338.6869 L195.28,1378.9525 A0,0 0 0 0 195.28,1378.9525 L511.8015,1378.9525 A0,0 0 0 0 511.8015,1378.9525 L511.8015,1348.6869 L501.8015,1338.6869 L357.54,1338.6869 L353.54,1278.1069 L349.54,1338.6869 L195.28,1338.6869 A0,0 0 0 0 195.28,1338.6869" fill="#FEFFDD" style="stroke:#181818;stroke-width:0.5;"/><path d="M501.8015,1338.6869 L501.8015,1348.6869 L511.8015,1348.6869 L501.8015,1338.6869" fill="#FEFFDD" style="stroke:#181818;stroke-width:0.5;"/><text fill="#000000" font-family="sans-serif" font-size="13" font-weight="700" lengthAdjust="spacing" textLength="228.2363" x="201.28" y="1355.7538">Estado persistido de Comanda:</text><text fill="#000000" font-family="sans-serif" font-size="13" lengthAdjust="spacing" textLength="63.1528" x="433.6487" y="1355.7538">CERRADA</text><text fill="#000000" font-family="sans-serif" font-size="13" lengthAdjust="spacing" textLength="95.2212" x="201.28" y="1370.8866">Mesa liberada.</text></g><g class="entity" data-qualified-name="GMN44" data-source-line="79" id="ent0045"><path d="M42.5,1240.1269 L42.5,1265.2597 A0,0 0 0 0 42.5,1265.2597 L280.5962,1265.2597 A0,0 0 0 0 280.5962,1265.2597 L280.5962,1250.1269 L270.5962,1240.1269 L163.58,1240.1269 L135.65,1097.9369 L155.58,1240.1269 L42.5,1240.1269 A0,0 0 0 0 42.5,1240.1269" fill="#FEFFDD" style="stroke:#181818;stroke-width:0.5;"/><path d="M270.5962,1240.1269 L270.5962,1250.1269 L280.5962,1250.1269 L270.5962,1240.1269" fill="#FEFFDD" style="stroke:#181818;stroke-width:0.5;"/><text fill="#000000" font-family="sans-serif" font-size="13" font-weight="700" lengthAdjust="spacing" textLength="132.939" x="48.5" y="1257.1938">Estado persistido:</text><text fill="#000000" font-family="sans-serif" font-size="13" lengthAdjust="spacing" textLength="80.0249" x="185.5713" y="1257.1938">CANCELADA</text></g><!--link *start* to Abierta--><g class="link" data-entity-1="ent0010" data-entity-2="ent0011" data-link-type="dependency" data-source-line="15" id="lnk12"><path d="M402.54,63.4869 C402.54,82.9869 402.54,124.0769 402.54,152.6969" fill="none" id="*start*-to-Abierta" style="stroke:#6B7F7F;stroke-width:1.2;"/><polygon fill="#6B7F7F" points="402.54,157.6969,406.54,148.6969,402.54,152.6969,398.54,148.6969,402.54,157.6969" style="stroke:#6B7F7F;stroke-width:1.2;stroke-linejoin:miter;stroke-miterlimit:10;"/><text fill="#000000" font-family="sans-serif" font-size="13" lengthAdjust="spacing" textLength="137.541" x="408.0373" y="106.3638">Camarero abre mesa</text><text fill="#000000" font-family="sans-serif" font-size="13" lengthAdjust="spacing" textLength="146.5356" x="403.54" y="121.4966">(crea comanda activa)</text></g><!--link Abierta to EnServicio--><g class="link" data-entity-1="ent0011" data-entity-2="ent0001" data-link-type="dependency" data-source-line="39" id="lnk19"><path d="M390.06,208.3869 C385.08,218.3369 379.4,229.9969 374.54,240.6969 C367.69,255.8269 362.7562,266.8726 355.8762,282.6726" fill="none" id="Abierta-to-EnServicio" style="stroke:#6B7F7F;stroke-width:1.2;"/><polygon fill="#6B7F7F" points="353.88,287.2569,361.1405,280.6022,355.8762,282.6726,353.8057,277.4083,353.88,287.2569" style="stroke:#6B7F7F;stroke-width:1.2;stroke-linejoin:miter;stroke-miterlimit:10;"/><text fill="#000000" font-family="sans-serif" font-size="13" lengthAdjust="spacing" textLength="149.8745" x="375.54" y="253.7638">Registra primer pedido</text></g><!--link EnServicio to TicketEnCaja--><g class="link" data-entity-1="ent0001" data-entity-2="ent0006" data-link-type="dependency" data-source-line="50" id="lnk20"><path d="M303.61,785.2269 C308.53,801.1969 313.83,816.9069 319.54,831.9969 C323.72,843.0169 327.195,850.1881 332.785,859.9481" fill="none" id="EnServicio-to-TicketEnCaja" style="stroke:#6B7F7F;stroke-width:1.2;"/><polygon fill="#6B7F7F" points="335.27,864.2869,334.268,854.4891,332.785,859.9481,327.326,858.4651,335.27,864.2869" style="stroke:#6B7F7F;stroke-width:1.2;stroke-linejoin:miter;stroke-miterlimit:10;"/><text fill="#000000" font-family="sans-serif" font-size="13" lengthAdjust="spacing" textLength="187.3638" x="320.54" y="828.0638">Solicita cuenta / Env&#237;a a caja</text></g><!--link TicketEnCaja to Cobrada--><g class="link" data-entity-1="ent0006" data-entity-2="ent0007" data-link-type="dependency" data-source-line="51" id="lnk21"><path d="M350.95,915.0869 C351.29,935.4269 351.7073,960.5776 352.1773,988.9976" fill="none" id="TicketEnCaja-to-Cobrada" style="stroke:#6B7F7F;stroke-width:1.2;"/><polygon fill="#6B7F7F" points="352.26,993.9969,356.1106,984.932,352.1773,988.9976,348.1117,985.0642,352.26,993.9969" style="stroke:#6B7F7F;stroke-width:1.2;stroke-linejoin:miter;stroke-miterlimit:10;"/><text fill="#000000" font-family="sans-serif" font-size="13" lengthAdjust="spacing" textLength="173.4116" x="353.54" y="960.4638">Administrador cobra ticket</text></g><!--link Cobrada to Cerrada--><g class="link" data-entity-1="ent0007" data-entity-2="ent0008" data-link-type="dependency" data-source-line="62" id="lnk25"><path d="M353.54,1151.1669 C353.54,1178.7269 353.54,1202.7869 353.54,1222.5269" fill="none" id="Cobrada-to-Cerrada" style="stroke:#6B7F7F;stroke-width:1.2;"/><polygon fill="#6B7F7F" points="353.54,1227.5269,357.54,1218.5269,353.54,1222.5269,349.54,1218.5269,353.54,1227.5269" style="stroke:#6B7F7F;stroke-width:1.2;stroke-linejoin:miter;stroke-miterlimit:10;"/><text fill="#000000" font-family="sans-serif" font-size="13" lengthAdjust="spacing" textLength="173.0815" x="354.54" y="1193.7538">Administrador cierra mesa</text></g><!--link Cerrada to *end*--><g class="link" data-entity-1="ent0008" data-entity-2="ent0026" data-link-type="dependency" data-source-line="70" id="lnk27"><path d="M315.23,1270.8469 C309.66,1273.2169 303.98,1275.5569 298.54,1277.6869 C215.42,1310.3169 117.6887,1342.3224 84.9087,1352.8924" fill="none" id="Cerrada-to-*end*" style="stroke:#6B7F7F;stroke-width:1.2;"/><polygon fill="#6B7F7F" points="80.15,1354.4269,89.9433,1355.4718,84.9087,1352.8924,87.4881,1347.8579,80.15,1354.4269" style="stroke:#6B7F7F;stroke-width:1.2;stroke-linejoin:miter;stroke-miterlimit:10;"/></g><!--link Abierta to Cancelada--><g class="link" data-entity-1="ent0011" data-entity-2="ent0009" data-link-type="dependency" data-source-line="73" id="lnk28"><path d="M438.28,202.4969 C444.01,205.3169 449.92,208.1469 455.54,210.6969 C487.86,225.3569 509.72,211.2669 529.54,240.6969 C619.4,374.0769 637.21,844.9269 529.54,964.3969 C486.47,1012.1969 301.82,971.8669 241.54,994.3969 C209.86,1006.2369 182.5879,1026.1765 161.5879,1044.0465" fill="none" id="Abierta-to-Cancelada" style="stroke:#6B7F7F;stroke-width:1.2;"/><polygon fill="#6B7F7F" points="157.78,1047.2869,167.2265,1044.5006,161.5879,1044.0465,162.042,1038.4079,157.78,1047.2869" style="stroke:#6B7F7F;stroke-width:1.2;stroke-linejoin:miter;stroke-miterlimit:10;"/><text fill="#000000" font-family="sans-serif" font-size="13" lengthAdjust="spacing" textLength="184.5137" x="588.54" y="828.0638">Incidencia antes del servicio</text></g><!--link EnServicio to Cancelada--><g class="link" data-entity-1="ent0001" data-entity-2="ent0009" data-link-type="dependency" data-source-line="74" id="lnk29"><path d="M118.98,785.3669 C109.49,810.7169 101.38,836.5169 95.54,861.9969 C80.34,928.3769 103.9258,1003.2615 119.3058,1042.5115" fill="none" id="EnServicio-to-Cancelada" style="stroke:#6B7F7F;stroke-width:1.2;"/><polygon fill="#6B7F7F" points="121.13,1047.1669,121.5707,1037.3279,119.3058,1042.5115,114.1222,1040.2466,121.13,1047.1669" style="stroke:#6B7F7F;stroke-width:1.2;stroke-linejoin:miter;stroke-miterlimit:10;"/><text fill="#000000" font-family="sans-serif" font-size="13" lengthAdjust="spacing" textLength="176.4521" x="96.54" y="894.2638">Incidencia / Anulaci&#243;n total</text></g><!--link TicketEnCaja to Cancelada--><g class="link" data-entity-1="ent0006" data-entity-2="ent0009" data-link-type="dependency" data-source-line="75" id="lnk30"><path d="M290.47,908.3369 C235.57,924.5169 162.72,946.1569 161.54,947.3969 C135.93,974.4369 131.0731,1014.4573 130.7231,1042.2073" fill="none" id="TicketEnCaja-to-Cancelada" style="stroke:#6B7F7F;stroke-width:1.2;"/><polygon fill="#6B7F7F" points="130.66,1047.2069,134.7732,1038.258,130.7231,1042.2073,126.7738,1038.1571,130.66,1047.2069" style="stroke:#6B7F7F;stroke-width:1.2;stroke-linejoin:miter;stroke-miterlimit:10;"/><text fill="#000000" font-family="sans-serif" font-size="13" lengthAdjust="spacing" textLength="180.2861" x="162.54" y="960.4638">Ticket cancelado por admin</text></g><!--link Cancelada to *end*--><g class="link" data-entity-1="ent0009" data-entity-2="ent0026" data-link-type="dependency" data-source-line="82" id="lnk31"><path d="M107.4,1097.9069 C81.14,1126.2869 40.75,1175.9269 24.54,1227.6869 C17.91,1248.8969 18.92,1256.1969 24.54,1277.6869 C32.06,1306.4069 49.3794,1331.72 59.9494,1345.59" fill="none" id="Cancelada-to-*end*" style="stroke:#6B7F7F;stroke-width:1.2;"/><polygon fill="#6B7F7F" points="62.98,1349.5669,60.7063,1339.9841,59.9494,1345.59,54.3434,1344.8331,62.98,1349.5669" style="stroke:#6B7F7F;stroke-width:1.2;stroke-linejoin:miter;stroke-miterlimit:10;"/></g><?plantuml-src TLLBRXj74DtFAGhA8X81oR0Hsu5W21WEXm8JMHH8sa2GP56SQP4T3Rk5xgQ4mCWfSe8Sm0l3H-35ylepv92IH2se-lMhLwzAJhf6q43oml2AgHPKMiUrjaIdLEWLgvgppDv9TS-88Bk4yr6g1TroOqN7C-VgRc7qMjM5RhIXnwLqNJ_AEa5VCgB-GUGFm-7mJL5uZpQrCCawU9V__DCGrg5MBjbUXv-dDJvyk3JhUtrnWM9l_MU_MCVTV-i_sJyTPBan-Z4zyAx_VlX-UEYSBMLrfuIrzFhiJPRztlkJJaylA9zBOHpJEHKWpmYZYUT6q4fO_aCTLqOmLP53uih91px9CgL1Wv6BfIDzsvO0t5ulCa_tmbXfdQprUQz7UNzKJcOv0ig6glQP-xN0g7ZpZMjfwBvXfor2D8bQEZRKRBugmHQrL2s5SiAUPVXA_l4i-n7eJ-bZNap6vNIM3yRdD2qddqV5Q4nvCHjz7lk0B4xig5Gq5UP1LbBJSI6hHdkP5BgIYa-E2A-KQXkmOzfF6h-fo5K295JA38c5LbVIsqiLhRi4l7fZX9z19JVVLNfdQzAgKnjiCNbx16f2SB3Um1Xjk_3mTnq1fEyPlErGds32U4lriFcAuTAlWoaTtx0L9yXu6kdpzq1wQKINLE07A3iz-Pdk1Vlq0zYx0fXynR5PVOJKmq2VdDhf2j9Ayo18D54aSIPjs4ljxjJi1GOzR_wpIMIGzLGii7Qu4A_eHbjdX3t1EcNjCaGEje8ufubO0AhnlSkLW5gXqLgtAXnUVVfbJ8EI2kXyKj9lD8G4FqtoOhJvzphei1NY34ieN90G_nNd5qs03iF1PksvY2w54WQR0IPShACqLO0CO0s7bJtphEusrih5Mj23LDMwOVozP1iM5HKgFGSxVyTyWNMunNYntxgxPHqIF2TTF61bgXkum5Urnduoo0mYmw70bWFnNdWSrDnmc6rUh_2SfxJ6oV9OEFNKKjN6Vkde-gOz1GDH1DWOsZvZAQjxY-ejNVuM5UF-1DSYtQB00KXiv5piI8IJrqv3CiZZbN-mIqgBB7JaoN-kepYLKArjA8P6m7Fjy410dCpFNizufS8i0tZ8An_uG_eHXHFgclV09K0U76Xh9Ng98nd4w5MQNnVb5SGvlYwdGPrTtHUiAj74daQgahLGVkdP7-30fKsAE1J72uclA5SGNxWMvBJZvXbTT5BJXbJ913P09tjojqIsqK-et3fU_5UKUWU77SgshoVI_WS0?></g></svg>