<svg xmlns="http://www.w3.org/2000/svg" xmlns:xlink="http://www.w3.org/1999/xlink" contentStyleType="text/css" data-diagram-type="STATE" height="1971px" preserveAspectRatio="none" style="width:2063px;height:1971px;background:#FFFFFF;" version="1.1" viewBox="0 0 2063 1971" width="2063px" zoomAndPan="magnify"><?plantuml 1.2026.7beta1?><defs/><g><g class="title" data-source-line="1"><text fill="#000000" font-family="Arial" font-size="14" font-weight="700" lengthAdjust="spacing" textLength="421.2168" x="817.6096" y="22.9951">Diagrama de Contexto Global - Casos de Uso del MVP</text></g><g class="entity" data-qualified-name="SistemaNoAutenticado" data-source-line="12" id="ent0001"><rect fill="#F1F1F1" height="50" rx="6" ry="6" style="stroke:#181818;stroke-width:0.5;" width="212.876" x="1316.56" y="124.2969"/><line style="stroke:#181818;stroke-width:0.5;" x1="1316.56" x2="1529.436" y1="150.5938" y2="150.5938"/><text fill="#000000" font-family="Arial" font-size="14" lengthAdjust="spacing" textLength="192.876" x="1326.56" y="142.292">SISTEMA NO AUTENTICADO</text></g><g class="entity" data-qualified-name="UsuarioAutenticado" data-source-line="13" id="ent0002"><rect fill="#F1F1F1" height="50" rx="6" ry="6" style="stroke:#181818;stroke-width:0.5;" width="189.8115" x="1328.09" y="251.2969"/><line style="stroke:#181818;stroke-width:0.5;" x1="1328.09" x2="1517.9015" y1="277.5938" y2="277.5938"/><text fill="#000000" font-family="Arial" font-size="14" lengthAdjust="spacing" textLength="169.8115" x="1338.09" y="269.292">USUARIO AUTENTICADO</text></g><g class="entity" data-qualified-name="PlanoMesas" data-source-line="14" id="ent0003"><rect fill="#F1F1F1" height="50" rx="6" ry="6" style="stroke:#181818;stroke-width:0.5;" width="246.6934" x="1161.65" y="759.2969"/><line style="stroke:#181818;stroke-width:0.5;" x1="1161.65" x2="1408.3434" y1="785.5938" y2="785.5938"/><text fill="#000000" font-family="Arial" font-size="14" lengthAdjust="spacing" textLength="226.6934" x="1171.65" y="777.292">PLANO DE MESAS CONSULTADO</text></g><g class="entity" data-qualified-name="MesaOcupada" data-source-line="15" id="ent0004"><rect fill="#F1F1F1" height="52.5938" rx="6" ry="6" style="stroke:#181818;stroke-width:0.5;" width="157.7441" x="886.13" y="886.2969"/><line style="stroke:#181818;stroke-width:0.5;" x1="886.13" x2="1043.8741" y1="928.8906" y2="928.8906"/><text fill="#000000" font-family="Arial" font-size="14" lengthAdjust="spacing" textLength="113.2578" x="896.13" y="904.292">MESA OCUPADA</text><text fill="#000000" font-family="Arial" font-size="14" lengthAdjust="spacing" textLength="137.7441" x="896.13" y="920.5889">COMANDA ABIERTA</text></g><g class="entity" data-qualified-name="ComandaRegistrada" data-source-line="16" id="ent0005"><rect fill="#F1F1F1" height="50" rx="6" ry="6" style="stroke:#181818;stroke-width:0.5;" width="188.3828" x="530.81" y="1015.8969"/><line style="stroke:#181818;stroke-width:0.5;" x1="530.81" x2="719.1928" y1="1042.1938" y2="1042.1938"/><text fill="#000000" font-family="Arial" font-size="14" lengthAdjust="spacing" textLength="168.3828" x="540.81" y="1033.892">COMANDA REGISTRADA</text></g><g class="entity" data-qualified-name="ComandaActualizada" data-source-line="17" id="ent0006"><rect fill="#F1F1F1" height="50" rx="6" ry="6" style="stroke:#181818;stroke-width:0.5;" width="196.9141" x="795.54" y="1777.8969"/><line style="stroke:#181818;stroke-width:0.5;" x1="795.54" x2="992.4541" y1="1804.1938" y2="1804.1938"/><text fill="#000000" font-family="Arial" font-size="14" lengthAdjust="spacing" textLength="176.9141" x="805.54" y="1795.892">COMANDA ACTUALIZADA</text></g><g class="entity" data-qualified-name="PaseMenu" data-source-line="18" id="ent0007"><rect fill="#F1F1F1" height="50" rx="6" ry="6" style="stroke:#181818;stroke-width:0.5;" width="216.041" x="333.98" y="1142.8969"/><line style="stroke:#181818;stroke-width:0.5;" x1="333.98" x2="550.021" y1="1169.1938" y2="1169.1938"/><text fill="#000000" font-family="Arial" font-size="14" lengthAdjust="spacing" textLength="196.041" x="343.98" y="1160.892">PASE DE MEN&#218; SOLICITADO</text></g><g class="entity" data-qualified-name="KdsPendiente" data-source-line="19" id="ent0008"><rect fill="#F1F1F1" height="50" rx="6" ry="6" style="stroke:#181818;stroke-width:0.5;" width="231.4492" x="512.28" y="1269.8969"/><line style="stroke:#181818;stroke-width:0.5;" x1="512.28" x2="743.7292" y1="1296.1938" y2="1296.1938"/><text fill="#000000" font-family="Arial" font-size="14" lengthAdjust="spacing" textLength="211.4492" x="522.28" y="1287.892">KDS CON L&#205;NEAS PENDIENTES</text></g><g class="entity" data-qualified-name="PlatoPreparacion" data-source-line="20" id="ent0009"><rect fill="#F1F1F1" height="50" rx="6" ry="6" style="stroke:#181818;stroke-width:0.5;" width="193.3457" x="531.33" y="1396.8969"/><line style="stroke:#181818;stroke-width:0.5;" x1="531.33" x2="724.6757" y1="1423.1938" y2="1423.1938"/><text fill="#000000" font-family="Arial" font-size="14" lengthAdjust="spacing" textLength="173.3457" x="541.33" y="1414.892">PLATO EN PREPARACI&#211;N</text></g><g class="entity" data-qualified-name="PlatoListo" data-source-line="21" id="ent0010"><rect fill="#F1F1F1" height="50" rx="6" ry="6" style="stroke:#181818;stroke-width:0.5;" width="110.2275" x="572.89" y="1523.8969"/><line style="stroke:#181818;stroke-width:0.5;" x1="572.89" x2="683.1175" y1="1550.1938" y2="1550.1938"/><text fill="#000000" font-family="Arial" font-size="14" lengthAdjust="spacing" textLength="90.2275" x="582.89" y="1541.892">PLATO LISTO</text></g><g class="entity" data-qualified-name="TicketCaja" data-source-line="22" id="ent0011"><rect fill="#F1F1F1" height="50" rx="6" ry="6" style="stroke:#181818;stroke-width:0.5;" width="130.3115" x="561.84" y="1650.8969"/><line style="stroke:#181818;stroke-width:0.5;" x1="561.84" x2="692.1515" y1="1677.1938" y2="1677.1938"/><text fill="#000000" font-family="Arial" font-size="14" lengthAdjust="spacing" textLength="110.3115" x="571.84" y="1668.892">TICKET EN CAJA</text></g><g class="entity" data-qualified-name="TicketCobrado" data-source-line="23" id="ent0012"><rect fill="#F1F1F1" height="50" rx="6" ry="6" style="stroke:#181818;stroke-width:0.5;" width="144.9883" x="573.51" y="1777.8969"/><line style="stroke:#181818;stroke-width:0.5;" x1="573.51" x2="718.4983" y1="1804.1938" y2="1804.1938"/><text fill="#000000" font-family="Arial" font-size="14" lengthAdjust="spacing" textLength="124.9883" x="583.51" y="1795.892">TICKET COBRADO</text></g><g class="entity" data-qualified-name="MesaLiberada" data-source-line="24" id="ent0013"><rect fill="#F1F1F1" height="52.5938" rx="6" ry="6" style="stroke:#181818;stroke-width:0.5;" width="159.9932" x="1401" y="1904.8969"/><line style="stroke:#181818;stroke-width:0.5;" x1="1401" x2="1560.9932" y1="1947.4906" y2="1947.4906"/><text fill="#000000" font-family="Arial" font-size="14" lengthAdjust="spacing" textLength="113.8799" x="1411" y="1922.892">MESA LIBERADA</text><text fill="#000000" font-family="Arial" font-size="14" lengthAdjust="spacing" textLength="139.9932" x="1411" y="1939.1889">SERVICIO CERRADO</text></g><g class="entity" data-qualified-name="ReservasConsultadas" data-source-line="26" id="ent0014"><rect fill="#F1F1F1" height="50" rx="6" ry="6" style="stroke:#181818;stroke-width:0.5;" width="204.0986" x="969.95" y="378.2969"/><line style="stroke:#181818;stroke-width:0.5;" x1="969.95" x2="1174.0486" y1="404.5938" y2="404.5938"/><text fill="#000000" font-family="Arial" font-size="14" lengthAdjust="spacing" textLength="184.0986" x="979.95" y="396.292">RESERVAS CONSULTADAS</text></g><g class="entity" data-qualified-name="ReservaGestionada" data-source-line="27" id="ent0015"><rect fill="#F1F1F1" height="50" rx="6" ry="6" style="stroke:#181818;stroke-width:0.5;" width="230.082" x="947.96" y="505.2969"/><line style="stroke:#181818;stroke-width:0.5;" x1="947.96" x2="1178.042" y1="531.5938" y2="531.5938"/><text fill="#000000" font-family="Arial" font-size="14" lengthAdjust="spacing" textLength="210.082" x="957.96" y="523.292">RESERVA CREADA O EDITADA</text></g><g class="entity" data-qualified-name="ReservaAsignada" data-source-line="28" id="ent0016"><rect fill="#F1F1F1" height="50" rx="6" ry="6" style="stroke:#181818;stroke-width:0.5;" width="221.3525" x="955.32" y="632.2969"/><line style="stroke:#181818;stroke-width:0.5;" x1="955.32" x2="1176.6725" y1="658.5938" y2="658.5938"/><text fill="#000000" font-family="Arial" font-size="14" lengthAdjust="spacing" textLength="201.3525" x="965.32" y="650.292">RESERVA ASIGNADA A MESA</text></g><g class="entity" data-qualified-name="CartaActualizada" data-source-line="30" id="ent0017"><rect fill="#F1F1F1" height="50" rx="6" ry="6" style="stroke:#181818;stroke-width:0.5;" width="170.8418" x="1337.58" y="378.2969"/><line style="stroke:#181818;stroke-width:0.5;" x1="1337.58" x2="1508.4218" y1="404.5938" y2="404.5938"/><text fill="#000000" font-family="Arial" font-size="14" lengthAdjust="spacing" textLength="150.8418" x="1347.58" y="396.292">CARTA ACTUALIZADA</text></g><g class="entity" data-qualified-name="UsuariosActualizados" data-source-line="31" id="ent0018"><rect fill="#F1F1F1" height="50" rx="6" ry="6" style="stroke:#181818;stroke-width:0.5;" width="270.4141" x="1543.79" y="378.2969"/><line style="stroke:#181818;stroke-width:0.5;" x1="1543.79" x2="1814.2041" y1="404.5938" y2="404.5938"/><text fill="#000000" font-family="Arial" font-size="14" lengthAdjust="spacing" textLength="250.4141" x="1553.79" y="396.292">USUARIOS Y ROLES ACTUALIZADOS</text></g><g class="entity" data-qualified-name="AuditoriaConsultada" data-source-line="32" id="ent0019"><rect fill="#F1F1F1" height="50" rx="6" ry="6" style="stroke:#181818;stroke-width:0.5;" width="198.876" x="1849.56" y="378.2969"/><line style="stroke:#181818;stroke-width:0.5;" x1="1849.56" x2="2048.436" y1="404.5938" y2="404.5938"/><text fill="#000000" font-family="Arial" font-size="14" lengthAdjust="spacing" textLength="178.876" x="1859.56" y="396.292">AUDITOR&#205;A CONSULTADA</text></g><g class="entity" data-qualified-name="OfflinePendiente" data-source-line="34" id="ent0020"><rect fill="#F1F1F1" height="50" rx="6" ry="6" style="stroke:#181818;stroke-width:0.5;" width="251.3965" x="169.3" y="1777.8969"/><line style="stroke:#181818;stroke-width:0.5;" x1="169.3" x2="420.6965" y1="1804.1938" y2="1804.1938"/><text fill="#000000" font-family="Arial" font-size="14" lengthAdjust="spacing" textLength="231.3965" x="179.3" y="1795.892">OPERACI&#211;N OFFLINE GUARDADA</text></g><g class="entity" data-qualified-name="OfflineSincronizada" data-source-line="35" id="ent0021"><rect fill="#F1F1F1" height="50" rx="6" ry="6" style="stroke:#181818;stroke-width:0.5;" width="215.5967" x="1147.2" y="1906.1869"/><line style="stroke:#181818;stroke-width:0.5;" x1="1147.2" x2="1362.7967" y1="1932.4838" y2="1932.4838"/><text fill="#000000" font-family="Arial" font-size="14" lengthAdjust="spacing" textLength="195.5967" x="1157.2" y="1924.182">OPERACI&#211;N SINCRONIZADA</text></g><g class="entity" data-qualified-name="NotificacionEmitida" data-source-line="36" id="ent0022"><rect fill="#F1F1F1" height="50" rx="6" ry="6" style="stroke:#181818;stroke-width:0.5;" width="183.6455" x="319.18" y="1650.8969"/><line style="stroke:#181818;stroke-width:0.5;" x1="319.18" x2="502.8255" y1="1677.1938" y2="1677.1938"/><text fill="#000000" font-family="Arial" font-size="14" lengthAdjust="spacing" textLength="163.6455" x="329.18" y="1668.892">NOTIFICACI&#211;N EMITIDA</text></g><g class="start_entity" data-qualified-name=".start." data-source-line="10" id="ent0023"><ellipse cx="1423" cy="53.2969" fill="#222222" rx="10" ry="10" style="stroke:#222222;stroke-width:1;"/></g><!--link *start* to SistemaNoAutenticado--><g class="link" data-entity-1="ent0023" data-entity-2="ent0001" data-link-type="dependency" data-source-line="10" id="lnk24"><path d="M1423,63.6569 C1423,77.5869 1423,99.2569 1423,118.9469" fill="none" id="*start*-to-SistemaNoAutenticado" style="stroke:#181818;stroke-width:1;"/><polygon fill="#181818" points="1423,123.9469,1427,114.9469,1423,118.9469,1419,114.9469,1423,123.9469" style="stroke:#181818;stroke-width:1;stroke-linejoin:miter;stroke-miterlimit:10;"/></g><!--link SistemaNoAutenticado to UsuarioAutenticado--><g class="link" data-entity-1="ent0001" data-entity-2="ent0002" data-link-type="dependency" data-source-line="38" id="lnk25"><path d="M1364.43,174.6169 C1352.66,182.3169 1341.83,192.0969 1335,204.2969 C1324.41,223.2269 1335.0264,236.5357 1355.4464,248.3957" fill="none" id="SistemaNoAutenticado-to-UsuarioAutenticado" style="stroke:#181818;stroke-width:1;"/><polygon fill="#181818" points="1359.77,250.9069,1353.9964,242.9278,1355.4464,248.3957,1349.9785,249.8457,1359.77,250.9069" style="stroke:#181818;stroke-width:1;stroke-linejoin:miter;stroke-miterlimit:10;"/><text fill="#000000" font-family="Arial" font-size="13" lengthAdjust="spacing" textLength="129.1938" x="1336" y="217.3638">CU-01 Iniciar sesi&#243;n</text></g><!--link UsuarioAutenticado to SistemaNoAutenticado--><g class="link" data-entity-1="ent0002" data-entity-2="ent0001" data-link-type="dependency" data-source-line="39" id="lnk26"><path d="M1453.66,250.8669 C1466.11,237.8269 1476.27,221.0469 1470,204.2969 C1465.91,193.3569 1461.849,186.8615 1454.089,178.3515" fill="none" id="UsuarioAutenticado-to-SistemaNoAutenticado" style="stroke:#181818;stroke-width:1;"/><polygon fill="#181818" points="1450.72,174.6569,1453.8285,184.0023,1454.089,178.3515,1459.7398,178.612,1450.72,174.6569" style="stroke:#181818;stroke-width:1;stroke-linejoin:miter;stroke-miterlimit:10;"/><text fill="#000000" font-family="Arial" font-size="13" lengthAdjust="spacing" textLength="130.5142" x="1473" y="217.3638">CU-02 Cerrar sesi&#243;n</text></g><!--link UsuarioAutenticado to PlanoMesas--><g class="link" data-entity-1="ent0002" data-entity-2="ent0003" data-link-type="dependency" data-source-line="41" id="lnk27"><path d="M1366.47,301.6269 C1328.36,322.2569 1285,355.9169 1285,402.2969 C1285,402.2969 1285,402.2969 1285,658.2969 C1285,693.2369 1285,728.6669 1285,753.8669" fill="none" id="UsuarioAutenticado-to-PlanoMesas" style="stroke:#181818;stroke-width:1;"/><polygon fill="#181818" points="1285,758.8669,1289,749.8669,1285,753.8669,1281,749.8669,1285,758.8669" style="stroke:#181818;stroke-width:1;stroke-linejoin:miter;stroke-miterlimit:10;"/><text fill="#000000" font-family="Arial" font-size="13" lengthAdjust="spacing" textLength="241.8521" x="1286" y="534.8638">CU-03 Ver estado de mesas por zona</text></g><!--link PlanoMesas to MesaOcupada--><g class="link" data-entity-1="ent0003" data-entity-2="ent0004" data-link-type="dependency" data-source-line="42" id="lnk28"><path d="M1223.3,809.6469 C1167.91,831.5169 1091.501,861.6717 1035.011,883.9617" fill="none" id="PlanoMesas-to-MesaOcupada" style="stroke:#181818;stroke-width:1;"/><polygon fill="#181818" points="1030.36,885.7969,1040.2,886.2143,1035.011,883.9617,1037.2637,878.7727,1030.36,885.7969" style="stroke:#181818;stroke-width:1;stroke-linejoin:miter;stroke-miterlimit:10;"/><text fill="#000000" font-family="Arial" font-size="13" lengthAdjust="spacing" textLength="114.937" x="1146" y="852.3638">CU-04 Abrir mesa</text></g><!--link MesaOcupada to ComandaRegistrada--><g class="link" data-entity-1="ent0004" data-entity-2="ent0005" data-link-type="dependency" data-source-line="43" id="lnk29"><path d="M895.79,939.3069 C835.89,961.5569 754.5472,991.7763 695.6272,1013.6563" fill="none" id="MesaOcupada-to-ComandaRegistrada" style="stroke:#181818;stroke-width:1;"/><polygon fill="#181818" points="690.94,1015.3969,700.7695,1016.0136,695.6272,1013.6563,697.9846,1008.514,690.94,1015.3969" style="stroke:#181818;stroke-width:1;stroke-linejoin:miter;stroke-miterlimit:10;"/><text fill="#000000" font-family="Arial" font-size="13" lengthAdjust="spacing" textLength="150.1475" x="817" y="981.9638">CU-06 Tomar comanda</text></g><!--link ComandaRegistrada to ComandaActualizada--><g class="link" data-entity-1="ent0005" data-entity-2="ent0006" data-link-type="dependency" data-source-line="44" id="lnk30"><path d="M719.25,1058.4269 C817.4,1078.3869 957,1115.7769 957,1166.8969 C957,1166.8969 957,1166.8969 957,1359.3969 C957,1533.1169 1090.77,1599.7769 1000,1747.8969 C992.39,1760.3069 985.2265,1767.4195 972.6265,1774.9195" fill="none" id="ComandaRegistrada-to-ComandaActualizada" style="stroke:#181818;stroke-width:1;"/><polygon fill="#181818" points="968.33,1777.4769,978.1096,1776.3107,972.6265,1774.9195,974.0177,1769.4363,968.33,1777.4769" style="stroke:#181818;stroke-width:1;stroke-linejoin:miter;stroke-miterlimit:10;"/><text fill="#000000" font-family="Arial" font-size="13" lengthAdjust="spacing" textLength="146.7642" x="970" y="1426.4638">CU-08 Editar comanda</text></g><!--link ComandaActualizada to ComandaRegistrada--><g class="link" data-entity-1="ent0006" data-entity-2="ent0005" data-link-type="dependency" data-source-line="45" id="lnk31"><path d="M992.67,1797.2869 C1073.64,1787.5569 1175,1758.9869 1175,1676.8969 C1175,1166.8969 1175,1166.8969 1175,1166.8969 C1175,1074.6069 881.796,1050.6577 724.546,1044.3377" fill="none" id="ComandaActualizada-to-ComandaRegistrada" style="stroke:#181818;stroke-width:1;"/><polygon fill="#181818" points="719.55,1044.1369,728.3821,1048.4951,724.546,1044.3377,728.7034,1040.5015,719.55,1044.1369" style="stroke:#181818;stroke-width:1;stroke-linejoin:miter;stroke-miterlimit:10;"/><text fill="#000000" font-family="Arial" font-size="13" lengthAdjust="spacing" textLength="109.8652" x="1176" y="1426.4638">guardar cambios</text></g><!--link ComandaRegistrada to PaseMenu--><g class="link" data-entity-1="ent0005" data-entity-2="ent0007" data-link-type="dependency" data-source-line="47" id="lnk32"><path d="M530.41,1050.4969 C469.44,1058.2269 398.11,1072.1269 379,1095.8969 C366.19,1111.8169 376.5458,1126.0095 394.7858,1139.4595" fill="none" id="ComandaRegistrada-to-PaseMenu" style="stroke:#181818;stroke-width:1;"/><polygon fill="#181818" points="398.81,1142.4269,393.9403,1133.8661,394.7858,1139.4595,389.1925,1140.3049,398.81,1142.4269" style="stroke:#181818;stroke-width:1;stroke-linejoin:miter;stroke-miterlimit:10;"/><text fill="#000000" font-family="Arial" font-size="13" lengthAdjust="spacing" textLength="224.0024" x="380" y="1108.9638">CU-09 Solicitar segundos / postres</text></g><!--link PaseMenu to KdsPendiente--><g class="link" data-entity-1="ent0007" data-entity-2="ent0008" data-link-type="dependency" data-source-line="48" id="lnk33"><path d="M460.83,1193.2369 C473.29,1208.1369 490.66,1226.7969 509,1239.8969 C525.15,1251.4269 539.6101,1259.3358 557.6401,1267.4458" fill="none" id="PaseMenu-to-KdsPendiente" style="stroke:#181818;stroke-width:1;"/><polygon fill="#181818" points="562.2,1269.4969,555.633,1262.157,557.6401,1267.4458,552.3512,1269.4529,562.2,1269.4969" style="stroke:#181818;stroke-width:1;stroke-linejoin:miter;stroke-miterlimit:10;"/><text fill="#000000" font-family="Arial" font-size="13" lengthAdjust="spacing" textLength="94.6943" x="510" y="1235.9638">actualizar KDS</text></g><!--link ComandaRegistrada to KdsPendiente--><g class="link" data-entity-1="ent0005" data-entity-2="ent0008" data-link-type="dependency" data-source-line="50" id="lnk34"><path d="M625.29,1066.0569 C625.86,1114.0969 627.07,1216.1472 627.65,1264.4372" fill="none" id="ComandaRegistrada-to-KdsPendiente" style="stroke:#181818;stroke-width:1;"/><polygon fill="#181818" points="627.71,1269.4369,631.6016,1260.3895,627.65,1264.4372,623.6022,1260.4856,627.71,1269.4369" style="stroke:#181818;stroke-width:1;stroke-linejoin:miter;stroke-miterlimit:10;"/><text fill="#000000" font-family="Arial" font-size="13" lengthAdjust="spacing" textLength="265.167" x="628" y="1172.4638">CU-10 Ver comandas pendientes en KDS</text></g><!--link KdsPendiente to PlatoPreparacion--><g class="link" data-entity-1="ent0008" data-entity-2="ent0009" data-link-type="dependency" data-source-line="51" id="lnk35"><path d="M628,1320.2869 C628,1342.3169 628,1369.5469 628,1391.5569" fill="none" id="KdsPendiente-to-PlatoPreparacion" style="stroke:#181818;stroke-width:1;"/><polygon fill="#181818" points="628,1396.5569,632,1387.5569,628,1391.5569,624,1387.5569,628,1396.5569" style="stroke:#181818;stroke-width:1;stroke-linejoin:miter;stroke-miterlimit:10;"/><text fill="#000000" font-family="Arial" font-size="13" lengthAdjust="spacing" textLength="191.5215" x="629" y="1362.9638">CU-11 Marcar en preparaci&#243;n</text></g><!--link PlatoPreparacion to PlatoListo--><g class="link" data-entity-1="ent0009" data-entity-2="ent0010" data-link-type="dependency" data-source-line="52" id="lnk36"><path d="M628,1447.2869 C628,1469.3169 628,1496.5469 628,1518.5569" fill="none" id="PlatoPreparacion-to-PlatoListo" style="stroke:#181818;stroke-width:1;"/><polygon fill="#181818" points="628,1523.5569,632,1514.5569,628,1518.5569,624,1514.5569,628,1523.5569" style="stroke:#181818;stroke-width:1;stroke-linejoin:miter;stroke-miterlimit:10;"/><text fill="#000000" font-family="Arial" font-size="13" lengthAdjust="spacing" textLength="196.9868" x="629" y="1489.9638">CU-12 Marcar plato como listo</text></g><!--link PlatoListo to NotificacionEmitida--><g class="link" data-entity-1="ent0010" data-entity-2="ent0022" data-link-type="dependency" data-source-line="53" id="lnk37"><path d="M572.54,1557.2069 C517.95,1565.6069 439.96,1581.2069 420,1603.8969 C409,1616.3969 406.839,1630.2613 407.479,1645.4113" fill="none" id="PlatoListo-to-NotificacionEmitida" style="stroke:#181818;stroke-width:1;"/><polygon fill="#181818" points="407.69,1650.4069,411.3066,1641.2461,407.479,1645.4113,403.3137,1641.5837,407.69,1650.4069" style="stroke:#181818;stroke-width:1;stroke-linejoin:miter;stroke-miterlimit:10;"/><text fill="#000000" font-family="Arial" font-size="13" lengthAdjust="spacing" textLength="198.4404" x="421" y="1616.9638">CU-27 Notificaci&#243;n autom&#225;tica</text></g><!--link ComandaRegistrada to ComandaRegistrada--><g class="link" data-entity-1="ent0005" data-entity-2="ent0005" data-link-type="dependency" data-source-line="54" id="lnk38"><path d="M719.64,1035.1369 C739.7,1035.7169 754.19,1037.6369 754.19,1040.8969 C754.19,1044.1469 744.6978,1045.9199 724.6378,1046.5099" fill="none" id="ComandaRegistrada-to-ComandaRegistrada" style="stroke:#181818;stroke-width:1;"/><polygon fill="#181818" points="719.64,1046.6569,728.7537,1050.3906,724.6378,1046.5099,728.5185,1042.394,719.64,1046.6569" style="stroke:#181818;stroke-width:1;stroke-linejoin:miter;stroke-miterlimit:10;"/><text fill="#000000" font-family="Arial" font-size="13" lengthAdjust="spacing" textLength="244.1245" x="760.19" y="1045.4638">CU-13 Ver al&#233;rgenos y observaciones</text></g><!--link ComandaRegistrada to ComandaRegistrada--><g class="link" data-entity-1="ent0005" data-entity-2="ent0005" data-link-type="dependency" data-source-line="77" id="lnk56"><path d="M719.35,1031.4269 C835.74,1026.2069 1010.19,1029.3569 1010.19,1040.8969 C1010.19,1052.4269 840.735,1055.8009 724.345,1050.5809" fill="none" id="ComandaRegistrada-to-ComandaRegistrada-1" style="stroke:#181818;stroke-width:1;"/><polygon fill="#181818" points="719.35,1050.3569,728.1617,1054.7561,724.345,1050.5809,728.5202,1046.7641,719.35,1050.3569" style="stroke:#181818;stroke-width:1;stroke-linejoin:miter;stroke-miterlimit:10;"/><text fill="#000000" font-family="Arial" font-size="13" lengthAdjust="spacing" textLength="263.0024" x="1016.19" y="1045.4638">CU-N03 bloquear al&#233;rgenos incompletos</text></g><!--link PlatoListo to TicketCaja--><g class="link" data-entity-1="ent0010" data-entity-2="ent0011" data-link-type="dependency" data-source-line="56" id="lnk39"><path d="M627.8,1574.2869 C627.63,1596.3169 627.4109,1623.547 627.2309,1645.557" fill="none" id="PlatoListo-to-TicketCaja" style="stroke:#181818;stroke-width:1;"/><polygon fill="#181818" points="627.19,1650.5569,631.2635,1641.5899,627.2309,1645.557,623.2637,1641.5245,627.19,1650.5569" style="stroke:#181818;stroke-width:1;stroke-linejoin:miter;stroke-miterlimit:10;"/><text fill="#000000" font-family="Arial" font-size="13" lengthAdjust="spacing" textLength="168.562" x="629" y="1616.9638">CU-14 Enviar ticket a caja</text></g><!--link TicketCaja to ComandaActualizada--><g class="link" data-entity-1="ent0011" data-entity-2="ent0006" data-link-type="dependency" data-source-line="57" id="lnk40"><path d="M685.99,1701.2869 C707.24,1710.3069 731.32,1720.7969 753,1730.8969 C784.8,1745.6969 815.6042,1761.1588 842.9042,1775.2088" fill="none" id="TicketCaja-to-ComandaActualizada" style="stroke:#181818;stroke-width:1;"/><polygon fill="#181818" points="847.35,1777.4969,841.178,1769.8218,842.9042,1775.2088,837.5172,1776.935,847.35,1777.4969" style="stroke:#181818;stroke-width:1;stroke-linejoin:miter;stroke-miterlimit:10;"/><text fill="#000000" font-family="Arial" font-size="13" lengthAdjust="spacing" textLength="205.3848" x="790" y="1743.9638">reclamar ticket antes de cobrar</text></g><!--link TicketCaja to TicketCobrado--><g class="link" data-entity-1="ent0011" data-entity-2="ent0012" data-link-type="dependency" data-source-line="58" id="lnk41"><path d="M587.18,1701.2969 C571.48,1714.1969 559.07,1730.8569 568,1747.8969 C574.27,1759.8569 580.4439,1766.8012 591.4939,1774.6512" fill="none" id="TicketCaja-to-TicketCobrado" style="stroke:#181818;stroke-width:1;"/><polygon fill="#181818" points="595.57,1777.5469,590.5495,1769.0737,591.4939,1774.6512,585.9164,1775.5955,595.57,1777.5469" style="stroke:#181818;stroke-width:1;stroke-linejoin:miter;stroke-miterlimit:10;"/><text fill="#000000" font-family="Arial" font-size="13" lengthAdjust="spacing" textLength="179.7021" x="569" y="1743.9638">CU-17 Cobrar ticket en caja</text></g><!--link TicketCobrado to MesaLiberada--><g class="link" data-entity-1="ent0012" data-entity-2="ent0013" data-link-type="dependency" data-source-line="59" id="lnk42"><path d="M718.85,1817.8469 C738.05,1821.3269 758.78,1824.9169 778,1827.8969 C1044.56,1869.1469 1114.93,1854.9269 1380,1904.8969 C1386.75,1906.1669 1388.8389,1906.533 1395.8189,1908.083" fill="none" id="TicketCobrado-to-MesaLiberada" style="stroke:#181818;stroke-width:1;"/><polygon fill="#181818" points="1400.7,1909.1669,1392.7811,1903.311,1395.8189,1908.083,1391.0469,1911.1207,1400.7,1909.1669" style="stroke:#181818;stroke-width:1;stroke-linejoin:miter;stroke-miterlimit:10;"/><text fill="#000000" font-family="Arial" font-size="13" lengthAdjust="spacing" textLength="124.5664" x="1185" y="1870.9638">CU-05 Cerrar mesa</text></g><!--link MesaLiberada to PlanoMesas--><g class="link" data-entity-1="ent0013" data-entity-2="ent0003" data-link-type="dependency" data-source-line="60" id="lnk43"><path d="M1511.69,1904.4869 C1536.03,1881.0569 1566,1844.0669 1566,1803.8969 C1566,911.5969 1566,911.5969 1566,911.5969 C1566,837.6569 1488.9796,807.5732 1413.5896,794.7832" fill="none" id="MesaLiberada-to-PlanoMesas" style="stroke:#181818;stroke-width:1;"/><polygon fill="#181818" points="1408.66,793.9469,1416.8642,799.3959,1413.5896,794.7832,1418.2023,791.5086,1408.66,793.9469" style="stroke:#181818;stroke-width:1;stroke-linejoin:miter;stroke-miterlimit:10;"/><text fill="#000000" font-family="Arial" font-size="13" lengthAdjust="spacing" textLength="238.272" x="1567" y="1362.9638">mesa disponible para nuevo servicio</text></g><!--link UsuarioAutenticado to ReservasConsultadas--><g class="link" data-entity-1="ent0002" data-entity-2="ent0014" data-link-type="dependency" data-source-line="62" id="lnk44"><path d="M1327.99,280.1869 C1239.57,284.9569 1116.53,297.6369 1083,331.2969 C1071.03,343.3169 1068.534,357.6087 1068.954,373.0487" fill="none" id="UsuarioAutenticado-to-ReservasConsultadas" style="stroke:#181818;stroke-width:1;"/><polygon fill="#181818" points="1069.09,378.0469,1072.8438,368.9414,1068.954,373.0487,1064.8468,369.159,1069.09,378.0469" style="stroke:#181818;stroke-width:1;stroke-linejoin:miter;stroke-miterlimit:10;"/><text fill="#000000" font-family="Arial" font-size="13" lengthAdjust="spacing" textLength="174.1733" x="1084" y="344.3638">CU-18 Ver reservas del d&#237;a</text></g><!--link ReservasConsultadas to ReservaGestionada--><g class="link" data-entity-1="ent0014" data-entity-2="ent0015" data-link-type="dependency" data-source-line="63" id="lnk45"><path d="M1070.24,428.6969 C1068.66,450.7269 1066.7003,477.9699 1065.1103,499.9799" fill="none" id="ReservasConsultadas-to-ReservaGestionada" style="stroke:#181818;stroke-width:1;"/><polygon fill="#181818" points="1064.75,504.9669,1069.3881,496.2785,1065.1103,499.9799,1061.4089,495.7021,1064.75,504.9669" style="stroke:#181818;stroke-width:1;stroke-linejoin:miter;stroke-miterlimit:10;"/><text fill="#000000" font-family="Arial" font-size="13" lengthAdjust="spacing" textLength="167.0386" x="1070" y="471.3638">CU-19 Gestionar reservas</text></g><!--link ReservaGestionada to ReservaAsignada--><g class="link" data-entity-1="ent0015" data-entity-2="ent0016" data-link-type="dependency" data-source-line="64" id="lnk46"><path d="M1060.8,555.6269 C1059.85,569.3369 1059.14,586.7769 1060,602.2969 C1060.54,611.9969 1061.0196,617.6719 1062.1196,626.9219" fill="none" id="ReservaGestionada-to-ReservaAsignada" style="stroke:#181818;stroke-width:1;"/><polygon fill="#181818" points="1062.71,631.8869,1065.6192,622.4775,1062.1196,626.9219,1057.6752,623.4222,1062.71,631.8869" style="stroke:#181818;stroke-width:1;stroke-linejoin:miter;stroke-miterlimit:10;"/><text fill="#000000" font-family="Arial" font-size="13" lengthAdjust="spacing" textLength="197.9199" x="1061" y="598.3638">CU-20 Asignar mesa a reserva</text></g><!--link ReservaAsignada to PlanoMesas--><g class="link" data-entity-1="ent0016" data-entity-2="ent0003" data-link-type="dependency" data-source-line="65" id="lnk47"><path d="M1059,682.7869 C1056.28,697.7369 1055.89,716.3969 1066,729.2969 C1078.86,745.7169 1114.0184,756.8298 1156.4284,765.3698" fill="none" id="ReservaAsignada-to-PlanoMesas" style="stroke:#181818;stroke-width:1;"/><polygon fill="#181818" points="1161.33,766.3569,1153.2967,760.6589,1156.4284,765.3698,1151.7175,768.5015,1161.33,766.3569" style="stroke:#181818;stroke-width:1;stroke-linejoin:miter;stroke-miterlimit:10;"/><text fill="#000000" font-family="Arial" font-size="13" lengthAdjust="spacing" textLength="191.2866" x="1067" y="725.3638">actualizar ocupaci&#243;n prevista</text></g><!--link UsuarioAutenticado to UsuariosActualizados--><g class="link" data-entity-1="ent0002" data-entity-2="ent0018" data-link-type="dependency" data-source-line="67" id="lnk48"><path d="M1505.84,301.7369 C1529.38,309.9069 1554.68,319.8869 1577,331.2969 C1602.55,344.3669 1625.1006,359.9897 1644.7006,374.8997" fill="none" id="UsuarioAutenticado-to-UsuariosActualizados" style="stroke:#181818;stroke-width:1;"/><polygon fill="#181818" points="1648.68,377.9269,1643.9388,369.2943,1644.7006,374.8997,1639.0952,375.6614,1648.68,377.9269" style="stroke:#181818;stroke-width:1;stroke-linejoin:miter;stroke-miterlimit:10;"/><text fill="#000000" font-family="Arial" font-size="13" lengthAdjust="spacing" textLength="213.6875" x="1605" y="344.3638">CU-21 Gestionar usuarios y roles</text></g><!--link UsuarioAutenticado to CartaActualizada--><g class="link" data-entity-1="ent0002" data-entity-2="ent0017" data-link-type="dependency" data-source-line="68" id="lnk49"><path d="M1423,301.6969 C1423,323.7269 1423,350.9569 1423,372.9669" fill="none" id="UsuarioAutenticado-to-CartaActualizada" style="stroke:#181818;stroke-width:1;"/><polygon fill="#181818" points="1423,377.9669,1427,368.9669,1423,372.9669,1419,368.9669,1423,377.9669" style="stroke:#181818;stroke-width:1;stroke-linejoin:miter;stroke-miterlimit:10;"/><text fill="#000000" font-family="Arial" font-size="13" lengthAdjust="spacing" textLength="144.6694" x="1424" y="344.3638">CU-25 Gestionar carta</text></g><!--link UsuarioAutenticado to AuditoriaConsultada--><g class="link" data-entity-1="ent0002" data-entity-2="ent0019" data-link-type="dependency" data-source-line="69" id="lnk50"><path d="M1518.06,279.5169 C1601.49,283.9069 1725.08,296.3969 1827,331.2969 C1858.99,342.2569 1887.8044,359.2415 1911.3844,375.1415" fill="none" id="UsuarioAutenticado-to-AuditoriaConsultada" style="stroke:#181818;stroke-width:1;"/><polygon fill="#181818" points="1915.53,377.9369,1910.3042,369.5887,1911.3844,375.1415,1905.8316,376.2217,1915.53,377.9369" style="stroke:#181818;stroke-width:1;stroke-linejoin:miter;stroke-miterlimit:10;"/><text fill="#000000" font-family="Arial" font-size="13" lengthAdjust="spacing" textLength="141.2607" x="1867" y="344.3638">consultar trazabilidad</text></g><!--link ComandaRegistrada to OfflinePendiente--><g class="link" data-entity-1="ent0005" data-entity-2="ent0020" data-link-type="dependency" data-source-line="71" id="lnk51"><path d="M530.68,1055.7469 C424.31,1074.0769 266,1110.7969 266,1166.8969 C266,1166.8969 266,1166.8969 266,1676.8969 C266,1712.7569 275.8524,1748.2258 284.3624,1773.1158" fill="none" id="ComandaRegistrada-to-OfflinePendiente" style="stroke:#181818;stroke-width:1;"/><polygon fill="#181818" points="285.98,1777.8469,286.8532,1768.0368,284.3624,1773.1158,279.2835,1770.6249,285.98,1777.8469" style="stroke:#181818;stroke-width:1;stroke-linejoin:miter;stroke-miterlimit:10;"/><text fill="#000000" font-family="Arial" font-size="13" lengthAdjust="spacing" textLength="205.6895" x="267" y="1426.4638">guardar operaci&#243;n sin conexi&#243;n</text></g><!--link TicketCaja to OfflinePendiente--><g class="link" data-entity-1="ent0011" data-entity-2="ent0020" data-link-type="dependency" data-source-line="72" id="lnk52"><path d="M561.46,1692.0869 C547.78,1695.1169 533.44,1698.1969 520,1700.8969 C445.21,1715.9069 416.46,1691.7169 351,1730.8969 C332.41,1742.0169 320.2007,1757.5126 310.4907,1773.3726" fill="none" id="TicketCaja-to-OfflinePendiente" style="stroke:#181818;stroke-width:1;"/><polygon fill="#181818" points="307.88,1777.6369,315.9907,1772.0498,310.4907,1773.3726,309.1679,1767.8726,307.88,1777.6369" style="stroke:#181818;stroke-width:1;stroke-linejoin:miter;stroke-miterlimit:10;"/><text fill="#000000" font-family="Arial" font-size="13" lengthAdjust="spacing" textLength="205.6895" x="352" y="1743.9638">guardar operaci&#243;n sin conexi&#243;n</text></g><!--link ReservaGestionada to OfflinePendiente--><g class="link" data-entity-1="ent0015" data-entity-2="ent0020" data-link-type="dependency" data-source-line="73" id="lnk53"><path d="M947.62,533.0569 C673.51,538.7669 6,562.3169 6,656.2969 C6,656.2969 6,656.2969 6,1676.8969 C6,1752.8769 86.2569,1782.4447 164.1369,1794.2947" fill="none" id="ReservaGestionada-to-OfflinePendiente" style="stroke:#181818;stroke-width:1;"/><polygon fill="#181818" points="169.08,1795.0469,160.7841,1789.7386,164.1369,1794.2947,159.5807,1797.6475,169.08,1795.0469" style="stroke:#181818;stroke-width:1;stroke-linejoin:miter;stroke-miterlimit:10;"/><text fill="#000000" font-family="Arial" font-size="13" lengthAdjust="spacing" textLength="205.6895" x="7" y="1172.4638">guardar operaci&#243;n sin conexi&#243;n</text></g><!--link OfflinePendiente to OfflineSincronizada--><g class="link" data-entity-1="ent0020" data-entity-2="ent0021" data-link-type="dependency" data-source-line="74" id="lnk54"><path d="M421,1820.4669 C611.12,1845.4769 963.1327,1891.7949 1142.0427,1915.3249" fill="none" id="OfflinePendiente-to-OfflineSincronizada" style="stroke:#181818;stroke-width:1;"/><polygon fill="#181818" points="1147,1915.9769,1138.5984,1910.8375,1142.0427,1915.3249,1137.5553,1918.7692,1147,1915.9769" style="stroke:#181818;stroke-width:1;stroke-linejoin:miter;stroke-miterlimit:10;"/><text fill="#000000" font-family="Arial" font-size="13" lengthAdjust="spacing" textLength="126.604" x="834" y="1870.9638">recuperar conexi&#243;n</text></g><!--link OfflineSincronizada to PlanoMesas--><g class="link" data-entity-1="ent0021" data-entity-2="ent0003" data-link-type="dependency" data-source-line="75" id="lnk55"><path d="M1283.91,1905.7869 C1308.21,1882.3969 1339,1844.7069 1339,1803.8969 C1339,911.5969 1339,911.5969 1339,911.5969 C1339,873.6769 1320.8771,838.3506 1305.0871,813.8306" fill="none" id="OfflineSincronizada-to-PlanoMesas" style="stroke:#181818;stroke-width:1;"/><polygon fill="#181818" points="1302.38,809.6269,1303.8897,819.3593,1305.0871,813.8306,1310.6158,815.028,1302.38,809.6269" style="stroke:#181818;stroke-width:1;stroke-linejoin:miter;stroke-miterlimit:10;"/><text fill="#000000" font-family="Arial" font-size="13" lengthAdjust="spacing" textLength="185.6753" x="1340" y="1362.9638">refrescar estado del sistema</text></g><!--link ComandaActualizada to ComandaActualizada--><g class="link" data-entity-1="ent0006" data-entity-2="ent0006" data-link-type="dependency" data-source-line="78" id="lnk57"><path d="M992.94,1791.4369 C1013.05,1792.6869 1027.46,1796.5069 1027.46,1802.8969 C1027.46,1809.2769 1018.0404,1812.7867 997.9304,1814.0367" fill="none" id="ComandaActualizada-to-ComandaActualizada" style="stroke:#181818;stroke-width:1;"/><polygon fill="#181818" points="992.94,1814.3469,1002.1708,1817.7808,997.9304,1814.0367,1001.6745,1809.7962,992.94,1814.3469" style="stroke:#181818;stroke-width:1;stroke-linejoin:miter;stroke-miterlimit:10;"/><text fill="#000000" font-family="Arial" font-size="13" lengthAdjust="spacing" textLength="264.8242" x="1033.46" y="1807.4638">CU-N05 bloquear edici&#243;n en preparaci&#243;n</text></g><!--link TicketCaja to TicketCaja--><g class="link" data-entity-1="ent0011" data-entity-2="ent0011" data-link-type="dependency" data-source-line="79" id="lnk58"><path d="M692.5,1664.0169 C711.99,1664.3669 727.16,1668.3269 727.16,1675.8969 C727.16,1683.4569 716.9891,1687.3245 697.4991,1687.6845" fill="none" id="TicketCaja-to-TicketCaja" style="stroke:#181818;stroke-width:1;"/><polygon fill="#181818" points="692.5,1687.7769,701.5723,1691.61,697.4991,1687.6845,701.4246,1683.6113,692.5,1687.7769" style="stroke:#181818;stroke-width:1;stroke-linejoin:miter;stroke-miterlimit:10;"/><text fill="#000000" font-family="Arial" font-size="13" lengthAdjust="spacing" textLength="218.5435" x="733.16" y="1680.4638">CU-N06 rechazar ticket duplicado</text></g><!--link UsuarioAutenticado to UsuarioAutenticado--><g class="link" data-entity-1="ent0002" data-entity-2="ent0002" data-link-type="dependency" data-source-line="80" id="lnk59"><path d="M1518.16,264.7769 C1538.34,265.9469 1552.91,269.7869 1552.91,276.2969 C1552.91,282.8069 1543.3316,286.3575 1523.1516,287.5275" fill="none" id="UsuarioAutenticado-to-UsuarioAutenticado" style="stroke:#181818;stroke-width:1;"/><polygon fill="#181818" points="1518.16,287.8169,1527.3764,291.2892,1523.1516,287.5275,1526.9134,283.3027,1518.16,287.8169" style="stroke:#181818;stroke-width:1;stroke-linejoin:miter;stroke-miterlimit:10;"/><text fill="#000000" font-family="Arial" font-size="13" lengthAdjust="spacing" textLength="226.624" x="1558.91" y="280.8638">CU-N02 bloquear operaci&#243;n por rol</text></g><!--link SistemaNoAutenticado to SistemaNoAutenticado--><g class="link" data-entity-1="ent0001" data-entity-2="ent0001" data-link-type="dependency" data-source-line="81" id="lnk60"><path d="M1529.7,139.3869 C1550.05,140.5769 1564.44,143.8769 1564.44,149.2969 C1564.44,154.7169 1555.0416,157.7374 1534.6916,158.9174" fill="none" id="SistemaNoAutenticado-to-SistemaNoAutenticado" style="stroke:#181818;stroke-width:1;"/><polygon fill="#181818" points="1529.7,159.2069,1538.9165,162.6792,1534.6916,158.9174,1538.4534,154.6926,1529.7,159.2069" style="stroke:#181818;stroke-width:1;stroke-linejoin:miter;stroke-miterlimit:10;"/><text fill="#000000" font-family="Arial" font-size="13" lengthAdjust="spacing" textLength="212.5259" x="1570.44" y="153.8638">CU-N01 credenciales incorrectas</text></g><?plantuml-src dLTDZzis4BthLmnoBB1eTfiqIGy565cxK6DBXcG7wDU1bhWE6vbqIMgRxd_8gRVUUkoXf_u4_x4EASgcBIb0Sp9ilZSaPzwyeGqt3OCPfrj5TnHg1h4KXdqm4kuQkQ4DN45CjTHsQQqbVZImUBkC8lsUYpr55koaaDKx9NSCZ6fPiABVqLh-niKMxccZmnKbMr5NKWccuFecMAZPFMqRSukdo2X698hJ9egCt0EUQIEDaGZYYbM6In55FtxnCrnTVGibruRjQ2P9QvWmlCATyP266WPFohHS9Gi2MGvalKgoLHgJMVu4g1xdUTgwN9CY7NBMkgMAZp6MSu9xp19O92Kf8SwpSZrVzRnbGuLSC4rrZxSmoEFraip8JoBE5oIR4I2lqwHO4SUnyBngzxIcFQc75SaTtgj0gaF6SaT5JGksnIkf4Jo9LsioJt-u893AjBJXZm5ZISgakqLs-1FAV9x6wUaMLBC54sqFVZDp5uNvuMEMuAMNIJPBCLz9wU1lQhraekQOAXQaQPL3ai6oI9Qa875w-2FhKsJaKZ4hXieM-8mnn_lc9zmSBtfCFTRdJRAoGMFoNNV15Q_UCnFJN-W5ACvV5_rrF4XkL517LvTv-ZefN67Af7YBASWXJeeZqLPcpZVCfRed5ed5XgKdNHeAffbwe1hRIwE-aQClE10N2S814pEpsIOXxuvfg_UWHZsBbEbTPdd4YIua4Sst8ZnTJ51MGnrGPSPKuELVmlTGvFEa38Xv6JQ2Ff7byLPaZRV8YyD74kJ2iKXRSoEnhq-vE9umNoPU3f3VtixJB84xFCMiv-RtzmqNRA2eW5UcMLpasUb-dbDoKIafpgwOvQlq5XkxOoQBT9LwKYODlyVUjY9CTjnmUyWnit3kCtG4-0RYzTNJQqW5hpXLe9dcXtz5D0ATyYyVumPYfbGGOYh6oLyyyojuY_wAqh48DF2TMzjB1O-efIZ0MtfWDPx_3CX6SULuKRXiuGE_yQIlOOKh2gfkFHhY0dOWEqz_2GdAOyWFaLFRRp4jjQNItGPb6KtitJkOt_4LbBB18XcNuYqE9XntNsAQaC9qT4HRQkXcIAVzeHIW3KxjTq72FQ-VkihuAs99-cKDJBXGPnnVt3Ddz86kOK5LXViZRz-lMf4CyCSWpZOz_QQdx-sAFP24njbg0BNCaNxeGjoy2DPmOw0jZkZ3NrQNdwxzfNAkExdIvl2tsZA1HVWTvCOvcTqLIt5vg9F1-mZF814FjjkCMm6AKa3t3t2JsiCNHKDt0TLL0vkcigD1NSOu6nj-znVWlXz3O4d2xJssRxL-TdWLFk-x_DXiHy2Wjoq47q5wZtQsmVURhJ68bZr8iEb2BSj9anWPHFxuBrtwbLztBxtwy0-DnXX1fDDeyd5UGV_JALeq10SX-a7b5VKKkX-wN60HVPJe4Zv8JD2FqbfLfqZiYmVK39tCoTWSysUv3YxJUXZgKia6zJWHxdAW-b3FWr2LXKpnHmOaXgZy5vINeezqmnlimNhASou7PU2ESi-yIO3cmiPb7vnbN4ZySqACb_bp8WquGQ1mb7UjszemQaW_GmxaejWzIikvPpyZ6po6cyJH_pEl38Vjff6_jeoUMHZkBtVxXXaSHv-UP0F1PEW9nv2ivbsMBdr-t9UEbfZXFCRylAEF9r-gsttJ_MtvT3yCdY8PlaME9megPryKs17JxwFfrqs6JwHAiPe9V2LXJxc4AVltZkh_0000?></g></svg>