<svg xmlns="http://www.w3.org/2000/svg" xmlns:xlink="http://www.w3.org/1999/xlink" contentStyleType="text/css" data-diagram-type="STATE" height="1170px" preserveAspectRatio="none" style="width:1052px;height:1170px;background:#FFFFFF;" version="1.1" viewBox="0 0 1052 1170" width="1052px" zoomAndPan="magnify"><?plantuml 1.2026.7beta1?><defs/><g><g class="title" data-source-line="1"><text fill="#000000" font-family="sans-serif" font-size="14" font-weight="700" lengthAdjust="spacing" textLength="227.0283" x="409.2514" y="22.9951">CU-17 - Cobrar ticket en caja</text></g><g class="entity" data-qualified-name="CobrarTicket" data-source-line="16" id="ent0001"><path d="M151.06,44.2969 L621.7881,44.2969 A12.5,12.5 0 0 1 634.2881,56.7969 L634.2881,70.5938 L138.56,70.5938 L138.56,56.7969 A12.5,12.5 0 0 1 151.06,44.2969" fill="#F5F5F5"/><path d="M138.56,70.5938 L634.2881,70.5938 L634.2881,894.3238 A12.5,12.5 0 0 1 621.7881,906.8238 L151.06,906.8238 A12.5,12.5 0 0 1 138.56,894.3238 L138.56,70.5938" fill="#F5F5F5"/><rect fill="none" height="862.5269" rx="12.5" ry="12.5" style="stroke:#777777;stroke-width:0.5;" width="495.7281" x="138.56" y="44.2969"/><line style="stroke:#777777;stroke-width:0.5;" x1="138.56" x2="634.2881" y1="70.5938" y2="70.5938"/><text fill="#111111" font-family="sans-serif" font-size="14" lengthAdjust="spacing" textLength="147.0547" x="312.8967" y="62.292">cobrarTicketEnCaja()</text><g class="entity" data-qualified-name="CobrarTicket.AccederCaja" data-source-line="19" id="ent0002"><rect fill="#F5F5F5" height="68.8906" rx="12.5" ry="12.5" style="stroke:#777777;stroke-width:0.5;" width="189.8047" x="178.75" y="137.5938"/><line style="stroke:#777777;stroke-width:0.5;" x1="178.75" x2="368.5547" y1="163.8906" y2="163.8906"/><text fill="#111111" font-family="sans-serif" font-size="14" lengthAdjust="spacing" textLength="87.6641" x="229.8203" y="155.5889">AccederCaja</text><text fill="#111111" font-family="sans-serif" font-size="14" lengthAdjust="spacing" textLength="169.8047" x="183.75" y="181.8857">El administrador accede</text><text fill="#111111" font-family="sans-serif" font-size="14" lengthAdjust="spacing" textLength="118.6309" x="183.75" y="198.1826">a la vista de caja</text></g><g class="entity" data-qualified-name="CobrarTicket.MostrarTickets" data-source-line="28" id="ent0003"><rect fill="#F5F5F5" height="68.8906" rx="12.5" ry="12.5" style="stroke:#777777;stroke-width:0.5;" width="214.3115" x="166.5" y="242.4838"/><line style="stroke:#777777;stroke-width:0.5;" x1="166.5" x2="380.8115" y1="268.7806" y2="268.7806"/><text fill="#111111" font-family="sans-serif" font-size="14" lengthAdjust="spacing" textLength="103.1611" x="222.0752" y="260.4789">MostrarTickets</text><text fill="#111111" font-family="sans-serif" font-size="14" lengthAdjust="spacing" textLength="194.3115" x="171.5" y="286.7757">Sistema muestra los tickets</text><text fill="#111111" font-family="sans-serif" font-size="14" lengthAdjust="spacing" textLength="143.9033" x="171.5" y="303.0726">pendientes de cobro</text></g><g class="entity" data-qualified-name="CobrarTicket.SeleccionarTicket" data-source-line="32" id="ent0004"><rect fill="#F5F5F5" height="68.8906" rx="12.5" ry="12.5" style="stroke:#777777;stroke-width:0.5;" width="221.4688" x="162.92" y="347.3738"/><line style="stroke:#777777;stroke-width:0.5;" x1="162.92" x2="384.3888" y1="373.6706" y2="373.6706"/><text fill="#111111" font-family="sans-serif" font-size="14" lengthAdjust="spacing" textLength="123.4092" x="211.9498" y="365.3689">SeleccionarTicket</text><text fill="#111111" font-family="sans-serif" font-size="14" lengthAdjust="spacing" textLength="177.2422" x="167.92" y="391.6657">Administrador selecciona</text><text fill="#111111" font-family="sans-serif" font-size="14" lengthAdjust="spacing" textLength="201.4688" x="167.92" y="407.9626">un ticket y confirma el cobro</text></g><g class="entity" data-qualified-name="CobrarTicket.ValidarTicket" data-source-line="36" id="ent0005"><rect fill="#F5F5F5" height="68.8906" rx="12.5" ry="12.5" style="stroke:#777777;stroke-width:0.5;" width="214.4619" x="166.42" y="452.2638"/><line style="stroke:#777777;stroke-width:0.5;" x1="166.42" x2="380.8819" y1="478.5606" y2="478.5606"/><text fill="#111111" font-family="sans-serif" font-size="14" lengthAdjust="spacing" textLength="91.5059" x="227.898" y="470.2589">ValidarTicket</text><text fill="#111111" font-family="sans-serif" font-size="14" lengthAdjust="spacing" textLength="194.4619" x="171.42" y="496.5557">Sistema valida que el ticket</text><text fill="#111111" font-family="sans-serif" font-size="14" lengthAdjust="spacing" textLength="187.6602" x="171.42" y="512.8526">est&#233; en estado PENDIENTE</text></g><g class="entity" data-qualified-name="CobrarTicket.MarcarCobrado" data-source-line="40" id="ent0006"><rect fill="#F5F5F5" height="68.8906" rx="12.5" ry="12.5" style="stroke:#777777;stroke-width:0.5;" width="185.7783" x="180.76" y="557.1538"/><line style="stroke:#777777;stroke-width:0.5;" x1="180.76" x2="366.5383" y1="583.4506" y2="583.4506"/><text fill="#111111" font-family="sans-serif" font-size="14" lengthAdjust="spacing" textLength="107.4609" x="219.9187" y="575.1489">MarcarCobrado</text><text fill="#111111" font-family="sans-serif" font-size="14" lengthAdjust="spacing" textLength="165.7783" x="185.76" y="601.4457">Sistema marca el ticket</text><text fill="#111111" font-family="sans-serif" font-size="14" lengthAdjust="spacing" textLength="114.4199" x="185.76" y="617.7426">como COBRADO</text></g><g class="entity" data-qualified-name="CobrarTicket.RegistrarCobro" data-source-line="44" id="ent0007"><rect fill="#F5F5F5" height="68.8906" rx="12.5" ry="12.5" style="stroke:#777777;stroke-width:0.5;" width="246.1875" x="150.56" y="662.0438"/><line style="stroke:#777777;stroke-width:0.5;" x1="150.56" x2="396.7475" y1="688.3406" y2="688.3406"/><text fill="#111111" font-family="sans-serif" font-size="14" lengthAdjust="spacing" textLength="105.54" x="220.8837" y="680.0389">RegistrarCobro</text><text fill="#111111" font-family="sans-serif" font-size="14" lengthAdjust="spacing" textLength="175.9775" x="155.56" y="706.3357">Sistema registra el cobro</text><text fill="#111111" font-family="sans-serif" font-size="14" lengthAdjust="spacing" textLength="226.1875" x="155.56" y="722.6326">en auditor&#237;a con usuario y fecha</text></g><g class="entity" data-qualified-name="CobrarTicket.ActualizarCaja" data-source-line="48" id="ent0008"><rect fill="#F5F5F5" height="68.8906" rx="12.5" ry="12.5" style="stroke:#777777;stroke-width:0.5;" width="224.1143" x="161.6" y="766.9338"/><line style="stroke:#777777;stroke-width:0.5;" x1="161.6" x2="385.7143" y1="793.2306" y2="793.2306"/><text fill="#111111" font-family="sans-serif" font-size="14" lengthAdjust="spacing" textLength="100.502" x="223.4062" y="784.9289">ActualizarCaja</text><text fill="#111111" font-family="sans-serif" font-size="14" lengthAdjust="spacing" textLength="204.1143" x="166.6" y="811.2257">Sistema actualiza caja y deja</text><text fill="#111111" font-family="sans-serif" font-size="14" lengthAdjust="spacing" textLength="196.957" x="166.6" y="827.5226">la mesa pendiente de cierre</text></g><g class="start_entity" data-qualified-name="CobrarTicket..start.CobrarTicket" data-source-line="17" id="ent0011"><ellipse cx="273.65" cy="91.5938" fill="#222222" rx="10" ry="10" style="stroke:#222222;stroke-width:1;"/></g><g class="end_entity" data-qualified-name="CobrarTicket..end.CobrarTicket" data-source-line="50" id="ent0019"><ellipse cx="273.65" cy="882.8238" fill="none" rx="11" ry="11" style="stroke:#222222;stroke-width:1;"/><ellipse cx="273.65" cy="882.8238" fill="#222222" rx="6" ry="6" style="stroke:#222222;stroke-width:1;"/></g><g class="entity" data-qualified-name="CobrarTicket.GMN23" data-source-line="21" id="ent0024"><path d="M387.02,144.3338 L387.02,168.0338 L369.02,172.0338 L387.02,176.0338 L387.02,199.7322 A0,0 0 0 0 387.02,199.7322 L610.2881,199.7322 A0,0 0 0 0 610.2881,199.7322 L610.2881,154.3338 L600.2881,144.3338 L387.02,144.3338 A0,0 0 0 0 387.02,144.3338" fill="#FFF8D6" style="stroke:#C8B45D;stroke-width:0.5;"/><path d="M600.2881,144.3338 L600.2881,154.3338 L610.2881,154.3338 L600.2881,144.3338" fill="#FFF8D6" style="stroke:#C8B45D;stroke-width:0.5;"/><text fill="#000000" font-family="sans-serif" font-size="13" lengthAdjust="spacing" textLength="87.7183" x="393.02" y="161.4006">Precondici&#243;n:</text><text fill="#000000" font-family="sans-serif" font-size="13" lengthAdjust="spacing" textLength="202.2681" x="393.02" y="176.5335">El ticket ha sido enviado a caja</text><text fill="#000000" font-family="sans-serif" font-size="13" lengthAdjust="spacing" textLength="182.8062" x="393.02" y="191.6663">y est&#225; PENDIENTE de cobro.</text></g><!--link *start*CobrarTicket to AccederCaja--><g class="link" data-entity-1="ent0011" data-entity-2="ent0002" data-link-type="dependency" data-source-line="17" id="lnk12"><path d="M273.65,101.8938 C273.65,110.6638 273.65,119.3338 273.65,132.2238" fill="none" id="*start*CobrarTicket-to-AccederCaja" style="stroke:#3F8F3F;stroke-width:1;"/><polygon fill="#3F8F3F" points="273.65,137.2238,277.65,128.2238,273.65,132.2238,269.65,128.2238,273.65,137.2238" style="stroke:#3F8F3F;stroke-width:1;stroke-linejoin:miter;stroke-miterlimit:10;"/></g><!--link AccederCaja to MostrarTickets--><g class="link" data-entity-1="ent0002" data-entity-2="ent0003" data-link-type="dependency" data-source-line="26" id="lnk13"><path d="M273.65,206.7238 C273.65,218.0938 273.65,225.7838 273.65,237.1638" fill="none" id="AccederCaja-to-MostrarTickets" style="stroke:#3F8F3F;stroke-width:1;"/><polygon fill="#3F8F3F" points="273.65,242.1638,277.65,233.1638,273.65,237.1638,269.65,233.1638,273.65,242.1638" style="stroke:#3F8F3F;stroke-width:1;stroke-linejoin:miter;stroke-miterlimit:10;"/></g><!--link MostrarTickets to SeleccionarTicket--><g class="link" data-entity-1="ent0003" data-entity-2="ent0004" data-link-type="dependency" data-source-line="30" id="lnk14"><path d="M273.65,311.6138 C273.65,322.9838 273.65,330.6738 273.65,342.0538" fill="none" id="MostrarTickets-to-SeleccionarTicket" style="stroke:#3F8F3F;stroke-width:1;"/><polygon fill="#3F8F3F" points="273.65,347.0538,277.65,338.0538,273.65,342.0538,269.65,338.0538,273.65,347.0538" style="stroke:#3F8F3F;stroke-width:1;stroke-linejoin:miter;stroke-miterlimit:10;"/></g><!--link SeleccionarTicket to ValidarTicket--><g class="link" data-entity-1="ent0004" data-entity-2="ent0005" data-link-type="dependency" data-source-line="34" id="lnk15"><path d="M273.65,416.5038 C273.65,427.8738 273.65,435.5638 273.65,446.9438" fill="none" id="SeleccionarTicket-to-ValidarTicket" style="stroke:#3F8F3F;stroke-width:1;"/><polygon fill="#3F8F3F" points="273.65,451.9438,277.65,442.9438,273.65,446.9438,269.65,442.9438,273.65,451.9438" style="stroke:#3F8F3F;stroke-width:1;stroke-linejoin:miter;stroke-miterlimit:10;"/></g><!--link ValidarTicket to MarcarCobrado--><g class="link" data-entity-1="ent0005" data-entity-2="ent0006" data-link-type="dependency" data-source-line="38" id="lnk16"><path d="M273.65,521.3938 C273.65,532.7638 273.65,540.4538 273.65,551.8338" fill="none" id="ValidarTicket-to-MarcarCobrado" style="stroke:#3F8F3F;stroke-width:1;"/><polygon fill="#3F8F3F" points="273.65,556.8338,277.65,547.8338,273.65,551.8338,269.65,547.8338,273.65,556.8338" style="stroke:#3F8F3F;stroke-width:1;stroke-linejoin:miter;stroke-miterlimit:10;"/></g><!--link MarcarCobrado to RegistrarCobro--><g class="link" data-entity-1="ent0006" data-entity-2="ent0007" data-link-type="dependency" data-source-line="42" id="lnk17"><path d="M273.65,626.2838 C273.65,637.6538 273.65,645.3438 273.65,656.7238" fill="none" id="MarcarCobrado-to-RegistrarCobro" style="stroke:#3F8F3F;stroke-width:1;"/><polygon fill="#3F8F3F" points="273.65,661.7238,277.65,652.7238,273.65,656.7238,269.65,652.7238,273.65,661.7238" style="stroke:#3F8F3F;stroke-width:1;stroke-linejoin:miter;stroke-miterlimit:10;"/></g><!--link RegistrarCobro to ActualizarCaja--><g class="link" data-entity-1="ent0007" data-entity-2="ent0008" data-link-type="dependency" data-source-line="46" id="lnk18"><path d="M273.65,731.1738 C273.65,742.5438 273.65,750.2338 273.65,761.6138" fill="none" id="RegistrarCobro-to-ActualizarCaja" style="stroke:#3F8F3F;stroke-width:1;"/><polygon fill="#3F8F3F" points="273.65,766.6138,277.65,757.6138,273.65,761.6138,269.65,757.6138,273.65,766.6138" style="stroke:#3F8F3F;stroke-width:1;stroke-linejoin:miter;stroke-miterlimit:10;"/></g><!--link ActualizarCaja to *end*CobrarTicket--><g class="link" data-entity-1="ent0008" data-entity-2="ent0019" data-link-type="dependency" data-source-line="50" id="lnk20"><path d="M273.65,836.0738 C273.65,848.9238 273.65,857.6438 273.65,866.6738" fill="none" id="ActualizarCaja-to-*end*CobrarTicket" style="stroke:#3F8F3F;stroke-width:1;"/><polygon fill="#3F8F3F" points="273.65,871.6738,277.65,862.6738,273.65,866.6738,269.65,862.6738,273.65,871.6738" style="stroke:#3F8F3F;stroke-width:1;stroke-linejoin:miter;stroke-miterlimit:10;"/></g></g><g class="entity" data-qualified-name="TICKET_COBRADO" data-source-line="56" id="ent0009"><rect fill="#F5F5F5" height="50" rx="12.5" ry="12.5" style="stroke:#777777;stroke-width:0.5;" width="147.5381" x="46.66" y="986.5169"/><line style="stroke:#777777;stroke-width:0.5;" x1="46.66" x2="194.1981" y1="1012.8137" y2="1012.8137"/><text fill="#111111" font-family="sans-serif" font-size="14" lengthAdjust="spacing" textLength="127.5381" x="56.66" y="1004.512">TICKET_COBRADO</text></g><g class="entity" data-qualified-name="OPERACION_RECHAZADA" data-source-line="57" id="ent0010"><rect fill="#F5F5F5" height="50" rx="12.5" ry="12.5" style="stroke:#777777;stroke-width:0.5;" width="197.9873" x="554.43" y="986.5169"/><line style="stroke:#777777;stroke-width:0.5;" x1="554.43" x2="752.4173" y1="1012.8137" y2="1012.8137"/><text fill="#111111" font-family="sans-serif" font-size="14" lengthAdjust="spacing" textLength="177.9873" x="564.43" y="1004.512">OPERACION_RECHAZADA</text></g><g class="entity" data-qualified-name="GMN26" data-source-line="60" id="ent0027"><path d="M229.39,983.8169 L229.39,1007.5169 L194.34,1011.5169 L229.39,1015.5169 L229.39,1039.2153 A0,0 0 0 0 229.39,1039.2153 L519.4735,1039.2153 A0,0 0 0 0 519.4735,1039.2153 L519.4735,993.8169 L509.4735,983.8169 L229.39,983.8169 A0,0 0 0 0 229.39,983.8169" fill="#FFF8D6" style="stroke:#C8B45D;stroke-width:0.5;"/><path d="M509.4735,983.8169 L509.4735,993.8169 L519.4735,993.8169 L509.4735,983.8169" fill="#FFF8D6" style="stroke:#C8B45D;stroke-width:0.5;"/><text fill="#000000" font-family="sans-serif" font-size="13" lengthAdjust="spacing" textLength="94.1992" x="235.39" y="1000.8838">Postcondici&#243;n:</text><text fill="#000000" font-family="sans-serif" font-size="13" lengthAdjust="spacing" textLength="269.0835" x="235.39" y="1016.0166">El ticket queda marcado como COBRADO</text><text fill="#000000" font-family="sans-serif" font-size="13" lengthAdjust="spacing" textLength="243.6865" x="235.39" y="1031.1494">y la mesa queda pendiente de cierre.</text></g><g class="entity" data-qualified-name="GMN29" data-source-line="66" id="ent0030"><path d="M787.33,983.8169 L787.33,1007.5169 L752.83,1011.5169 L787.33,1015.5169 L787.33,1039.2153 A0,0 0 0 0 787.33,1039.2153 L1037.5312,1039.2153 A0,0 0 0 0 1037.5312,1039.2153 L1037.5312,993.8169 L1027.5312,983.8169 L787.33,983.8169 A0,0 0 0 0 787.33,983.8169" fill="#FFF8D6" style="stroke:#C8B45D;stroke-width:0.5;"/><path d="M1027.5312,983.8169 L1027.5312,993.8169 L1037.5312,993.8169 L1027.5312,983.8169" fill="#FFF8D6" style="stroke:#C8B45D;stroke-width:0.5;"/><text fill="#000000" font-family="sans-serif" font-size="13" lengthAdjust="spacing" textLength="229.2012" x="793.33" y="1000.8838">La operaci&#243;n se rechaza si el ticket</text><text fill="#000000" font-family="sans-serif" font-size="13" lengthAdjust="spacing" textLength="172.3896" x="793.33" y="1016.0166">no existe, ya est&#225; cobrado</text><text fill="#000000" font-family="sans-serif" font-size="13" lengthAdjust="spacing" textLength="195.3618" x="793.33" y="1031.1494">o no est&#225; pendiente de cobro.</text></g><g class="entity" data-qualified-name="GMN32" data-source-line="72" id="ent0033"><path d="M6,1100.2169 L6,1155.6153 A0,0 0 0 0 6,1155.6153 L234.854,1155.6153 A0,0 0 0 0 234.854,1155.6153 L234.854,1110.2169 L224.854,1100.2169 L124.43,1100.2169 L120.43,1036.7769 L116.43,1100.2169 L6,1100.2169 A0,0 0 0 0 6,1100.2169" fill="#FFF8D6" style="stroke:#C8B45D;stroke-width:0.5;"/><path d="M224.854,1100.2169 L224.854,1110.2169 L234.854,1110.2169 L224.854,1100.2169" fill="#FFF8D6" style="stroke:#C8B45D;stroke-width:0.5;"/><text fill="#000000" font-family="sans-serif" font-size="13" lengthAdjust="spacing" textLength="173.2275" x="12" y="1117.2838">El cobro no libera la mesa.</text><text fill="#000000" font-family="sans-serif" font-size="13" lengthAdjust="spacing" textLength="207.854" x="12" y="1132.4166">La liberaci&#243;n se realiza despu&#233;s</text><text fill="#000000" font-family="sans-serif" font-size="13" lengthAdjust="spacing" textLength="194.6572" x="12" y="1147.5494">mediante CU-05 Cerrar mesa.</text></g><!--link CobrarTicket to TICKET_COBRADO--><g class="link" data-entity-1="ent0001" data-entity-2="ent0009" data-link-type="dependency" data-source-line="53" id="lnk21"><path d="M171.87,907.2469 C155.4,940.3069 143.8802,963.4418 134.7502,981.7618" fill="none" id="CobrarTicket-to-TICKET_COBRADO" style="stroke:#3F8F3F;stroke-width:1;"/><polygon fill="#3F8F3F" points="132.52,986.2369,140.1144,979.9659,134.7502,981.7618,132.9543,976.3976,132.52,986.2369" style="stroke:#3F8F3F;stroke-width:1;stroke-linejoin:miter;stroke-miterlimit:10;"/><text fill="#000000" font-family="sans-serif" font-size="13" lengthAdjust="spacing" textLength="122.4336" x="154.43" y="949.8838">cobroConfirmado()</text></g><!--link CobrarTicket to OPERACION_RECHAZADA--><g class="link" data-entity-1="ent0001" data-entity-2="ent0010" data-link-type="dependency" data-source-line="54" id="lnk22"><path d="M601.79,907.2469 C618.32,940.3069 629.882,963.4457 639.052,981.7657" fill="none" id="CobrarTicket-to-OPERACION_RECHAZADA" style="stroke:#3F8F3F;stroke-width:1;"/><polygon fill="#3F8F3F" points="641.29,986.2369,640.8385,976.3984,639.052,981.7657,633.6846,979.9792,641.29,986.2369" style="stroke:#3F8F3F;stroke-width:1;stroke-linejoin:miter;stroke-miterlimit:10;"/><text fill="#000000" font-family="sans-serif" font-size="13" lengthAdjust="spacing" textLength="104.7617" x="620.43" y="949.8838">cobroNoValido()</text></g><?plantuml-src TLN1SjCm4BtxAtRQIykG3frIskc16TTnXWwGTDB00S9qDfQIgBMb8CafBSF7SEo14v-G7sCbsucT6ESIlvNUsttQbQsmAOVeK-Vu33eGgOb63LOazzm2bv3W7GQ1kHToWHepC7Dawa786KmnDRmMcM1oFzCgbonIgTBmC1Us7W-rLWz5QF-aTzuxwTLfBLeEFmE0oosQ_Twf-xc8qeph4Ztp3w4z9Ms97Vid-5NZbUg_jBtUUVVDDcrqVldwj4iKGP7HNk8D6Na_OXcH6mU7Uu2cTAe8U8MlBxv1f_CMmYJXZj0R1_LNk80u1MIPaC9OJKPgG1yUIuGKOKam0kE5wr1ahyLiRa5D6yH0pxNcYP9C96BrLrvuYEZBeviZ6C4K7U5Ia11WnGdm2DpOrM-uZllTgxW_YhqYbQEEACubyxhRkRlIFYgNTbcqSIkQ21LuGoNm327BkOj0gaoPaXdB1P4BBYqtQyaM4gTqmrEU94B92dRhTa3I2njkclMAiSnbvSKZIScfq9GMJpUoktHE-JEcWjLL6q2jmgN7uNlE7MiXDPREscStEFJ7-RusUPVAEuewGUrxYHLUr86wdmwl2oKgKn0DBeTXTx2xqN4F-SmRuq5FtaHgxBeChFsXGYHWpeHLUlK7dO6GcnorK6Jdb2TpR24isj_cLEOJrYQWZjHKiGhutYHUnk_eu6WGCcuGrjtYcqLmhNaBdTEaqNCZsnX9Xu-kelVnwBPqYPHzRL7P34mT7Exk6Lp7mp2w6lHlXt7qBlmITiDgOr_v0tJRgkkXgU0lXYPKBMoXzQjRy21eplqM8Gq-pKjpyZTpJ-t8ocwXDcWqYPlyojjYMOl3Hy7c0cYcqPOfm0S4jU0QVIeqVzHAr1jFxlRPTAk_oe3_SEV-4Xwnl82Iikq1b8zxi9bJSIjjfJHHrggirPgux5_7bue9rrYLV5GaMu2rR8i6PDmiyjMpeKKPPmATFdqJNvr2HAxG5x6Wg1Bv1m00?></g></svg>