<svg xmlns="http://www.w3.org/2000/svg" xmlns:xlink="http://www.w3.org/1999/xlink" contentStyleType="text/css" data-diagram-type="STATE" height="997px" preserveAspectRatio="none" style="width:891px;height:997px;background:#FFFFFF;" version="1.1" viewBox="0 0 891 997" width="891px" zoomAndPan="magnify"><?plantuml 1.2026.7beta1?><defs/><g><g class="title" data-source-line="1"><text fill="#000000" font-family="sans-serif" font-size="14" font-weight="700" lengthAdjust="spacing" textLength="248.9922" x="317.9773" y="22.9951">CU-12 - Marcar plato como listo</text></g><g class="entity" data-qualified-name="MarcarListo" data-source-line="16" id="ent0001"><path d="M54.63,44.2969 L504.1551,44.2969 A12.5,12.5 0 0 1 516.6551,56.7969 L516.6551,70.5938 L42.13,70.5938 L42.13,56.7969 A12.5,12.5 0 0 1 54.63,44.2969" fill="#F5F5F5"/><path d="M42.13,70.5938 L516.6551,70.5938 L516.6551,822.0338 A12.5,12.5 0 0 1 504.1551,834.5338 L54.63,834.5338 A12.5,12.5 0 0 1 42.13,822.0338 L42.13,70.5938" fill="#F5F5F5"/><rect fill="none" height="790.2369" rx="12.5" ry="12.5" style="stroke:#777777;stroke-width:0.5;" width="474.5251" x="42.13" y="44.2969"/><line style="stroke:#777777;stroke-width:0.5;" x1="42.13" x2="516.6551" y1="70.5938" y2="70.5938"/><text fill="#111111" font-family="sans-serif" font-size="14" lengthAdjust="spacing" textLength="169.4766" x="194.6543" y="62.292">marcarPlatoComoListo()</text><g class="entity" data-qualified-name="MarcarListo.SeleccionarLinea" data-source-line="19" id="ent0002"><rect fill="#F5F5F5" height="85.1875" rx="12.5" ry="12.5" style="stroke:#777777;stroke-width:0.5;" width="175.0049" x="88.79" y="137.5938"/><line style="stroke:#777777;stroke-width:0.5;" x1="88.79" x2="263.7949" y1="163.8906" y2="163.8906"/><text fill="#111111" font-family="sans-serif" font-size="14" lengthAdjust="spacing" textLength="118.8154" x="116.8847" y="155.5889">SeleccionarLinea</text><text fill="#111111" font-family="sans-serif" font-size="14" lengthAdjust="spacing" textLength="155.0049" x="93.79" y="181.8857">El cocinero selecciona</text><text fill="#111111" font-family="sans-serif" font-size="14" lengthAdjust="spacing" textLength="136.8076" x="93.79" y="198.1826">en el KDS una l&#237;nea</text><text fill="#111111" font-family="sans-serif" font-size="14" lengthAdjust="spacing" textLength="106.0186" x="93.79" y="214.4795">en preparaci&#243;n</text></g><g class="entity" data-qualified-name="MarcarListo.MarcarAccion" data-source-line="28" id="ent0003"><rect fill="#F5F5F5" height="68.8906" rx="12.5" ry="12.5" style="stroke:#777777;stroke-width:0.5;" width="205.4863" x="73.55" y="258.7838"/><line style="stroke:#777777;stroke-width:0.5;" x1="73.55" x2="279.0363" y1="285.0806" y2="285.0806"/><text fill="#111111" font-family="sans-serif" font-size="14" lengthAdjust="spacing" textLength="94.7461" x="128.9201" y="276.7789">MarcarAccion</text><text fill="#111111" font-family="sans-serif" font-size="14" lengthAdjust="spacing" textLength="185.4863" x="78.55" y="303.0757">El cocinero pulsa la acci&#243;n</text><text fill="#111111" font-family="sans-serif" font-size="14" lengthAdjust="spacing" textLength="126.499" x="78.55" y="319.3726">marcar como listo</text></g><g class="entity" data-qualified-name="MarcarListo.ValidarEstado" data-source-line="32" id="ent0004"><rect fill="#F5F5F5" height="68.8906" rx="12.5" ry="12.5" style="stroke:#777777;stroke-width:0.5;" width="217.1621" x="67.71" y="363.6738"/><line style="stroke:#777777;stroke-width:0.5;" x1="67.71" x2="284.8721" y1="389.9706" y2="389.9706"/><text fill="#111111" font-family="sans-serif" font-size="14" lengthAdjust="spacing" textLength="96.8174" x="127.8824" y="381.6689">ValidarEstado</text><text fill="#111111" font-family="sans-serif" font-size="14" lengthAdjust="spacing" textLength="188.9863" x="72.71" y="407.9657">Sistema valida que la l&#237;nea</text><text fill="#111111" font-family="sans-serif" font-size="14" lengthAdjust="spacing" textLength="197.1621" x="72.71" y="424.2626">puede pasar a estado LISTO</text></g><g class="entity" data-qualified-name="MarcarListo.ActualizarLinea" data-source-line="36" id="ent0005"><rect fill="#F5F5F5" height="68.8906" rx="12.5" ry="12.5" style="stroke:#777777;stroke-width:0.5;" width="216.5127" x="68.04" y="468.5638"/><line style="stroke:#777777;stroke-width:0.5;" x1="68.04" x2="284.5527" y1="494.8606" y2="494.8606"/><text fill="#111111" font-family="sans-serif" font-size="14" lengthAdjust="spacing" textLength="107.4336" x="122.5796" y="486.5589">ActualizarLinea</text><text fill="#111111" font-family="sans-serif" font-size="14" lengthAdjust="spacing" textLength="178.9785" x="73.04" y="512.8557">Sistema actualiza la l&#237;nea</text><text fill="#111111" font-family="sans-serif" font-size="14" lengthAdjust="spacing" textLength="196.5127" x="73.04" y="529.1526">de comanda a estado LISTO</text></g><g class="entity" data-qualified-name="MarcarListo.RegistrarAuditoria" data-source-line="40" id="ent0006"><rect fill="#F5F5F5" height="68.8906" rx="12.5" ry="12.5" style="stroke:#777777;stroke-width:0.5;" width="207.7627" x="72.41" y="573.4538"/><line style="stroke:#777777;stroke-width:0.5;" x1="72.41" x2="280.1727" y1="599.7506" y2="599.7506"/><text fill="#111111" font-family="sans-serif" font-size="14" lengthAdjust="spacing" textLength="127.4971" x="112.5428" y="591.4489">RegistrarAuditoria</text><text fill="#111111" font-family="sans-serif" font-size="14" lengthAdjust="spacing" textLength="187.7627" x="77.41" y="617.7457">Sistema registra el cambio</text><text fill="#111111" font-family="sans-serif" font-size="14" lengthAdjust="spacing" textLength="158.2725" x="77.41" y="634.0426">de estado en auditor&#237;a</text></g><g class="entity" data-qualified-name="MarcarListo.EmitirNotificacion" data-source-line="44" id="ent0007"><rect fill="#F5F5F5" height="85.1875" rx="12.5" ry="12.5" style="stroke:#777777;stroke-width:0.5;" width="244.3281" x="54.13" y="678.3438"/><line style="stroke:#777777;stroke-width:0.5;" x1="54.13" x2="298.4581" y1="704.6406" y2="704.6406"/><text fill="#111111" font-family="sans-serif" font-size="14" lengthAdjust="spacing" textLength="124.0449" x="114.2716" y="696.3389">EmitirNotificacion</text><text fill="#111111" font-family="sans-serif" font-size="14" lengthAdjust="spacing" textLength="224.3281" x="59.13" y="722.6357">Sistema de notificaciones emite</text><text fill="#111111" font-family="sans-serif" font-size="14" lengthAdjust="spacing" textLength="170.0029" x="59.13" y="738.9326">\"Platos listos - Mesa X\"</text><text fill="#111111" font-family="sans-serif" font-size="14" lengthAdjust="spacing" textLength="195.5557" x="59.13" y="755.2295">a sala mediante WebSocket</text></g><g class="start_entity" data-qualified-name="MarcarListo..start.MarcarListo" data-source-line="17" id="ent0010"><ellipse cx="176.29" cy="91.5938" fill="#222222" rx="10" ry="10" style="stroke:#222222;stroke-width:1;"/></g><g class="end_entity" data-qualified-name="MarcarListo..end.MarcarListo" data-source-line="46" id="ent0017"><ellipse cx="176.29" cy="810.5338" fill="none" rx="11" ry="11" style="stroke:#222222;stroke-width:1;"/><ellipse cx="176.29" cy="810.5338" fill="#222222" rx="6" ry="6" style="stroke:#222222;stroke-width:1;"/></g><g class="entity" data-qualified-name="MarcarListo.GMN21" data-source-line="21" id="ent0022"><path d="M281.93,152.4938 L281.93,176.1938 L264.07,180.1938 L281.93,184.1938 L281.93,207.8922 A0,0 0 0 0 281.93,207.8922 L492.6551,207.8922 A0,0 0 0 0 492.6551,207.8922 L492.6551,162.4938 L482.6551,152.4938 L281.93,152.4938 A0,0 0 0 0 281.93,152.4938" fill="#FFF8D6" style="stroke:#C8B45D;stroke-width:0.5;"/><path d="M482.6551,152.4938 L482.6551,162.4938 L492.6551,162.4938 L482.6551,152.4938" fill="#FFF8D6" style="stroke:#C8B45D;stroke-width:0.5;"/><text fill="#000000" font-family="sans-serif" font-size="13" lengthAdjust="spacing" textLength="87.7183" x="287.93" y="169.5606">Precondici&#243;n:</text><text fill="#000000" font-family="sans-serif" font-size="13" lengthAdjust="spacing" textLength="167.4385" x="287.93" y="184.6935">La l&#237;nea de comanda est&#225;</text><text fill="#000000" font-family="sans-serif" font-size="13" lengthAdjust="spacing" textLength="189.7251" x="287.93" y="199.8263">en estado EN_PREPARACION.</text></g><!--link *start*MarcarListo to SeleccionarLinea--><g class="link" data-entity-1="ent0010" data-entity-2="ent0002" data-link-type="dependency" data-source-line="17" id="lnk11"><path d="M176.29,101.8638 C176.29,110.5038 176.29,119.0238 176.29,132.3638" fill="none" id="*start*MarcarListo-to-SeleccionarLinea" style="stroke:#3F8F3F;stroke-width:1;"/><polygon fill="#3F8F3F" points="176.29,137.3638,180.29,128.3638,176.29,132.3638,172.29,128.3638,176.29,137.3638" style="stroke:#3F8F3F;stroke-width:1;stroke-linejoin:miter;stroke-miterlimit:10;"/></g><!--link SeleccionarLinea to MarcarAccion--><g class="link" data-entity-1="ent0002" data-entity-2="ent0003" data-link-type="dependency" data-source-line="26" id="lnk12"><path d="M176.29,223.1738 C176.29,234.8338 176.29,242.3538 176.29,253.4838" fill="none" id="SeleccionarLinea-to-MarcarAccion" style="stroke:#3F8F3F;stroke-width:1;"/><polygon fill="#3F8F3F" points="176.29,258.4838,180.29,249.4838,176.29,253.4838,172.29,249.4838,176.29,258.4838" style="stroke:#3F8F3F;stroke-width:1;stroke-linejoin:miter;stroke-miterlimit:10;"/></g><!--link MarcarAccion to ValidarEstado--><g class="link" data-entity-1="ent0003" data-entity-2="ent0004" data-link-type="dependency" data-source-line="30" id="lnk13"><path d="M176.29,327.9238 C176.29,339.2938 176.29,346.9738 176.29,358.3538" fill="none" id="MarcarAccion-to-ValidarEstado" style="stroke:#3F8F3F;stroke-width:1;"/><polygon fill="#3F8F3F" points="176.29,363.3538,180.29,354.3538,176.29,358.3538,172.29,354.3538,176.29,363.3538" style="stroke:#3F8F3F;stroke-width:1;stroke-linejoin:miter;stroke-miterlimit:10;"/></g><!--link ValidarEstado to ActualizarLinea--><g class="link" data-entity-1="ent0004" data-entity-2="ent0005" data-link-type="dependency" data-source-line="34" id="lnk14"><path d="M176.29,432.8138 C176.29,444.1838 176.29,451.8638 176.29,463.2438" fill="none" id="ValidarEstado-to-ActualizarLinea" style="stroke:#3F8F3F;stroke-width:1;"/><polygon fill="#3F8F3F" points="176.29,468.2438,180.29,459.2438,176.29,463.2438,172.29,459.2438,176.29,468.2438" style="stroke:#3F8F3F;stroke-width:1;stroke-linejoin:miter;stroke-miterlimit:10;"/></g><!--link ActualizarLinea to RegistrarAuditoria--><g class="link" data-entity-1="ent0005" data-entity-2="ent0006" data-link-type="dependency" data-source-line="38" id="lnk15"><path d="M176.29,537.7038 C176.29,549.0738 176.29,556.7638 176.29,568.1338" fill="none" id="ActualizarLinea-to-RegistrarAuditoria" style="stroke:#3F8F3F;stroke-width:1;"/><polygon fill="#3F8F3F" points="176.29,573.1338,180.29,564.1338,176.29,568.1338,172.29,564.1338,176.29,573.1338" style="stroke:#3F8F3F;stroke-width:1;stroke-linejoin:miter;stroke-miterlimit:10;"/></g><!--link RegistrarAuditoria to EmitirNotificacion--><g class="link" data-entity-1="ent0006" data-entity-2="ent0007" data-link-type="dependency" data-source-line="42" id="lnk16"><path d="M176.29,642.8238 C176.29,653.9138 176.29,661.3738 176.29,672.9938" fill="none" id="RegistrarAuditoria-to-EmitirNotificacion" style="stroke:#3F8F3F;stroke-width:1;"/><polygon fill="#3F8F3F" points="176.29,677.9938,180.29,668.9938,176.29,672.9938,172.29,668.9938,176.29,677.9938" style="stroke:#3F8F3F;stroke-width:1;stroke-linejoin:miter;stroke-miterlimit:10;"/></g><!--link EmitirNotificacion to *end*MarcarListo--><g class="link" data-entity-1="ent0007" data-entity-2="ent0017" data-link-type="dependency" data-source-line="46" id="lnk18"><path d="M176.29,763.9438 C176.29,777.1138 176.29,785.5038 176.29,794.3338" fill="none" id="EmitirNotificacion-to-*end*MarcarListo" style="stroke:#3F8F3F;stroke-width:1;"/><polygon fill="#3F8F3F" points="176.29,799.3338,180.29,790.3338,176.29,794.3338,172.29,790.3338,176.29,799.3338" style="stroke:#3F8F3F;stroke-width:1;stroke-linejoin:miter;stroke-miterlimit:10;"/></g></g><g class="entity" data-qualified-name="PLATO_LISTO" data-source-line="52" id="ent0008"><rect fill="#F5F5F5" height="50" rx="12.5" ry="12.5" style="stroke:#777777;stroke-width:0.5;" width="112.7773" x="7" y="921.7969"/><line style="stroke:#777777;stroke-width:0.5;" x1="7" x2="119.7773" y1="948.0938" y2="948.0938"/><text fill="#111111" font-family="sans-serif" font-size="14" lengthAdjust="spacing" textLength="92.7773" x="17" y="939.792">PLATO_LISTO</text></g><g class="entity" data-qualified-name="OPERACION_RECHAZADA" data-source-line="53" id="ent0009"><rect fill="#F5F5F5" height="50" rx="12.5" ry="12.5" style="stroke:#777777;stroke-width:0.5;" width="197.9873" x="398.4" y="921.7969"/><line style="stroke:#777777;stroke-width:0.5;" x1="398.4" x2="596.3873" y1="948.0938" y2="948.0938"/><text fill="#111111" font-family="sans-serif" font-size="14" lengthAdjust="spacing" textLength="177.9873" x="408.4" y="939.792">OPERACION_RECHAZADA</text></g><g class="entity" data-qualified-name="GMN24" data-source-line="56" id="ent0025"><path d="M155.01,911.5369 L155.01,942.7969 L120.04,946.7969 L155.01,950.7969 L155.01,982.0681 A0,0 0 0 0 155.01,982.0681 L363.7737,982.0681 A0,0 0 0 0 363.7737,982.0681 L363.7737,921.5369 L353.7737,911.5369 L155.01,911.5369 A0,0 0 0 0 155.01,911.5369" fill="#FFF8D6" style="stroke:#C8B45D;stroke-width:0.5;"/><path d="M353.7737,911.5369 L353.7737,921.5369 L363.7737,921.5369 L353.7737,911.5369" fill="#FFF8D6" style="stroke:#C8B45D;stroke-width:0.5;"/><text fill="#000000" font-family="sans-serif" font-size="13" lengthAdjust="spacing" textLength="94.1992" x="161.01" y="928.6038">Postcondici&#243;n:</text><text fill="#000000" font-family="sans-serif" font-size="13" lengthAdjust="spacing" textLength="187.7637" x="161.01" y="943.7366">La l&#237;nea pasa a estado LISTO</text><text fill="#000000" font-family="sans-serif" font-size="13" lengthAdjust="spacing" textLength="136.5" x="161.01" y="958.8694">y sala recibe el aviso</text><text fill="#000000" font-family="sans-serif" font-size="13" lengthAdjust="spacing" textLength="110.335" x="161.01" y="974.0022">correspondiente.</text></g><g class="entity" data-qualified-name="GMN27" data-source-line="63" id="ent0028"><path d="M631.83,919.1069 L631.83,942.7969 L596.78,946.7969 L631.83,950.7969 L631.83,974.5053 A0,0 0 0 0 631.83,974.5053 L876.9467,974.5053 A0,0 0 0 0 876.9467,974.5053 L876.9467,929.1069 L866.9467,919.1069 L631.83,919.1069 A0,0 0 0 0 631.83,919.1069" fill="#FFF8D6" style="stroke:#C8B45D;stroke-width:0.5;"/><path d="M866.9467,919.1069 L866.9467,929.1069 L876.9467,929.1069 L866.9467,919.1069" fill="#FFF8D6" style="stroke:#C8B45D;stroke-width:0.5;"/><text fill="#000000" font-family="sans-serif" font-size="13" lengthAdjust="spacing" textLength="224.1167" x="637.83" y="936.1738">La operaci&#243;n se rechaza si la l&#237;nea</text><text fill="#000000" font-family="sans-serif" font-size="13" lengthAdjust="spacing" textLength="189.7124" x="637.83" y="951.3066">no est&#225; en EN_PREPARACION</text><text fill="#000000" font-family="sans-serif" font-size="13" lengthAdjust="spacing" textLength="193.7876" x="637.83" y="966.4394">o si ya fue servida/cancelada.</text></g><!--link MarcarListo to PLATO_LISTO--><g class="link" data-entity-1="ent0001" data-entity-2="ent0008" data-link-type="dependency" data-source-line="49" id="lnk19"><path d="M110.79,834.8969 C95.26,871.2269 84.1762,897.1797 75.7162,916.9597" fill="none" id="MarcarListo-to-PLATO_LISTO" style="stroke:#3F8F3F;stroke-width:1;"/><polygon fill="#3F8F3F" points="73.75,921.5569,80.9669,914.855,75.7162,916.9597,73.6115,911.709,73.75,921.5569" style="stroke:#3F8F3F;stroke-width:1;stroke-linejoin:miter;stroke-miterlimit:10;"/><text fill="#000000" font-family="sans-serif" font-size="13" lengthAdjust="spacing" textLength="73.7026" x="96.39" y="877.6038">platoListo()</text></g><!--link MarcarListo to OPERACION_RECHAZADA--><g class="link" data-entity-1="ent0001" data-entity-2="ent0009" data-link-type="dependency" data-source-line="50" id="lnk20"><path d="M449.55,834.8969 C465.22,871.2269 476.42,897.1856 484.95,916.9656" fill="none" id="MarcarListo-to-OPERACION_RECHAZADA" style="stroke:#3F8F3F;stroke-width:1;"/><polygon fill="#3F8F3F" points="486.93,921.5569,487.0391,911.7086,484.95,916.9656,479.6931,914.8766,486.93,921.5569" style="stroke:#3F8F3F;stroke-width:1;stroke-linejoin:miter;stroke-miterlimit:10;"/><text fill="#000000" font-family="sans-serif" font-size="13" lengthAdjust="spacing" textLength="112.1504" x="466.39" y="877.6038">estadoNoValido()</text></g><?plantuml-src TLJRRXCn47tVhnYbBu2Keb8kLH-Gjhc8Yf14IRa8Wgg9Tv9OtTYBxRGgY8_X0_h49-J767itnDcatgSzCpvdhdRIvGIjZysJ5z243sW46YXoT1g4Nch8fNKwIUoDL0KQN89TOARlf9h337DBaMMAucPkz4fbBPrh0tSBwM9xQeo-Aqr7fzspxcatfdNe27ub01SrcgFkA_zvYpOPcGfz4mwZNQrSXPs4a_oEU9L-bBRRFMk_hjEspYvUlcepHL96r5Y6aWnzHLfSa9wlnvEd3K1RLIiWGUBRi-_GRBw5CUKaXDJA6nLXmhOw1kVGoRd4Wd-C1llVF56aW79utnx3IY7awmTs3sXXo2SbvFglOigGcf7pXGCzsnS5FaD3GgjCXYld0UfjA24Zts9K6G9Pj_uJp5wSCyyqTFhNmr5dc8xIrkMWVvnuMnP43-RZ4oyBaWRSEyN_jOIBLMuv4WGK8RY9AWkzCtKr1Y_n2NEPeUc46Bt73i0YOxvAIuJRWCEF5NcLJHMB5N7Q1LfMmasclSlnrM2VoykbmgqO_1briWP5ahYnn8fHbVS5wrnUSaHpvZESzIgJJXiPLFVHIDXKHZyt0fTJgODkfSOjnVBI-k4nBY_SMKedJLyxEPC2DptSHoDX5b6HXImGkzD4JHfXOspPIUkV5k9-Vvaq9ZpJ5hb0IyeaAXxXppGTQt53xX4v7nklbj_9UECyFEobLuFhK4wEAZnRrOBkkGw6dNAIhqUTrhlqQzfE-KfPehuEdVVNDciVCOTTZ_utBWSOW-i1F4bsbpLcuotLrkskwNP9_QZM1mVWlYmXRxUSakywtaghsI2qCMGBJqPSs-DakxEx4HmACkZgWgedXXybhx107cWhjpCTdfxooV2pjVjEi55xxtk46Q-U9NFBA_LSe1AKOuRRYFu1?></g></svg>