<svg xmlns="http://www.w3.org/2000/svg" xmlns:xlink="http://www.w3.org/1999/xlink" contentStyleType="text/css" data-diagram-type="STATE" height="1072px" preserveAspectRatio="none" style="width:926px;height:1072px;background:#FFFFFF;" version="1.1" viewBox="0 0 926 1072" width="926px" zoomAndPan="magnify"><?plantuml 1.2026.7beta1?><defs/><g><g class="title" data-source-line="1"><text fill="#000000" font-family="sans-serif" font-size="14" font-weight="700" lengthAdjust="spacing" textLength="159.1611" x="379.9243" y="22.9951">CU-05 - Cerrar mesa</text></g><g class="entity" data-qualified-name="CerrarMesa" data-source-line="16" id="ent0001"><path d="M59.71,44.2969 L506.7818,44.2969 A12.5,12.5 0 0 1 519.2818,56.7969 L519.2818,70.5938 L47.21,70.5938 L47.21,56.7969 A12.5,12.5 0 0 1 59.71,44.2969" fill="#F5F5F5"/><path d="M47.21,70.5938 L519.2818,70.5938 L519.2818,912.2638 A12.5,12.5 0 0 1 506.7818,924.7638 L59.71,924.7638 A12.5,12.5 0 0 1 47.21,912.2638 L47.21,70.5938" fill="#F5F5F5"/><rect fill="none" height="880.4669" rx="12.5" ry="12.5" style="stroke:#777777;stroke-width:0.5;" width="472.0718" x="47.21" y="44.2969"/><line style="stroke:#777777;stroke-width:0.5;" x1="47.21" x2="519.2818" y1="70.5938" y2="70.5938"/><text fill="#111111" font-family="sans-serif" font-size="14" lengthAdjust="spacing" textLength="89.6465" x="238.4226" y="62.292">cerrarMesa()</text><g class="entity" data-qualified-name="CerrarMesa.SeleccionarMesa" data-source-line="19" id="ent0002"><rect fill="#F5F5F5" height="68.8906" rx="12.5" ry="12.5" style="stroke:#777777;stroke-width:0.5;" width="230.8135" x="69.73" y="138.4137"/><line style="stroke:#777777;stroke-width:0.5;" x1="69.73" x2="300.5435" y1="164.7106" y2="164.7106"/><text fill="#111111" font-family="sans-serif" font-size="14" lengthAdjust="spacing" textLength="117.626" x="126.3238" y="156.4089">SeleccionarMesa</text><text fill="#111111" font-family="sans-serif" font-size="14" lengthAdjust="spacing" textLength="193.4297" x="74.73" y="182.7057">El administrador selecciona</text><text fill="#111111" font-family="sans-serif" font-size="14" lengthAdjust="spacing" textLength="210.8135" x="74.73" y="199.0026">una mesa pendiente de cierre</text></g><g class="entity" data-qualified-name="CerrarMesa.VerificarComanda" data-source-line="29" id="ent0003"><rect fill="#F5F5F5" height="85.1875" rx="12.5" ry="12.5" style="stroke:#777777;stroke-width:0.5;" width="229.084" x="70.59" y="244.1237"/><line style="stroke:#777777;stroke-width:0.5;" x1="70.59" x2="299.674" y1="270.4206" y2="270.4206"/><text fill="#111111" font-family="sans-serif" font-size="14" lengthAdjust="spacing" textLength="125.583" x="122.3405" y="262.1189">VerificarComanda</text><text fill="#111111" font-family="sans-serif" font-size="14" lengthAdjust="spacing" textLength="189.9365" x="75.59" y="288.4157">Sistema verifica que existe</text><text fill="#111111" font-family="sans-serif" font-size="14" lengthAdjust="spacing" textLength="209.084" x="75.59" y="304.7126">una comanda activa asociada</text><text fill="#111111" font-family="sans-serif" font-size="14" lengthAdjust="spacing" textLength="68.0723" x="75.59" y="321.0095">a la mesa</text></g><g class="entity" data-qualified-name="CerrarMesa.ComprobarTicket" data-source-line="33" id="ent0004"><rect fill="#F5F5F5" height="68.8906" rx="12.5" ry="12.5" style="stroke:#777777;stroke-width:0.5;" width="251.8477" x="59.21" y="365.3137"/><line style="stroke:#777777;stroke-width:0.5;" x1="59.21" x2="311.0577" y1="391.6106" y2="391.6106"/><text fill="#111111" font-family="sans-serif" font-size="14" lengthAdjust="spacing" textLength="120.7568" x="124.7554" y="383.3089">ComprobarTicket</text><text fill="#111111" font-family="sans-serif" font-size="14" lengthAdjust="spacing" textLength="231.8477" x="64.21" y="409.6057">Sistema comprueba que el ticket</text><text fill="#111111" font-family="sans-serif" font-size="14" lengthAdjust="spacing" textLength="224.752" x="64.21" y="425.9026">correspondiente est&#225; COBRADO</text></g><g class="entity" data-qualified-name="CerrarMesa.CerrarComanda" data-source-line="37" id="ent0005"><rect fill="#F5F5F5" height="68.8906" rx="12.5" ry="12.5" style="stroke:#777777;stroke-width:0.5;" width="207.3184" x="81.47" y="470.2037"/><line style="stroke:#777777;stroke-width:0.5;" x1="81.47" x2="288.7884" y1="496.5006" y2="496.5006"/><text fill="#111111" font-family="sans-serif" font-size="14" lengthAdjust="spacing" textLength="111.1318" x="129.5633" y="488.1989">CerrarComanda</text><text fill="#111111" font-family="sans-serif" font-size="14" lengthAdjust="spacing" textLength="187.3184" x="86.47" y="514.4957">Sistema cierra la comanda</text><text fill="#111111" font-family="sans-serif" font-size="14" lengthAdjust="spacing" textLength="137.4297" x="86.47" y="530.7926">asociada al servicio</text></g><g class="entity" data-qualified-name="CerrarMesa.LiberarMesa" data-source-line="41" id="ent0006"><rect fill="#F5F5F5" height="68.8906" rx="12.5" ry="12.5" style="stroke:#777777;stroke-width:0.5;" width="203.2578" x="83.5" y="575.0938"/><line style="stroke:#777777;stroke-width:0.5;" x1="83.5" x2="286.7578" y1="601.3906" y2="601.3906"/><text fill="#111111" font-family="sans-serif" font-size="14" lengthAdjust="spacing" textLength="85.8457" x="142.2061" y="593.0889">LiberarMesa</text><text fill="#111111" font-family="sans-serif" font-size="14" lengthAdjust="spacing" textLength="183.2578" x="88.5" y="619.3857">Sistema actualiza la mesa</text><text fill="#111111" font-family="sans-serif" font-size="14" lengthAdjust="spacing" textLength="105.0137" x="88.5" y="635.6826">a estado LIBRE</text></g><g class="entity" data-qualified-name="CerrarMesa.RegistrarAuditoria" data-source-line="45" id="ent0007"><rect fill="#F5F5F5" height="68.8906" rx="12.5" ry="12.5" style="stroke:#777777;stroke-width:0.5;" width="196.832" x="86.72" y="679.9838"/><line style="stroke:#777777;stroke-width:0.5;" x1="86.72" x2="283.552" y1="706.2806" y2="706.2806"/><text fill="#111111" font-family="sans-serif" font-size="14" lengthAdjust="spacing" textLength="127.4971" x="121.3875" y="697.9789">RegistrarAuditoria</text><text fill="#111111" font-family="sans-serif" font-size="14" lengthAdjust="spacing" textLength="176.832" x="91.72" y="724.2757">Sistema registra el cierre</text><text fill="#111111" font-family="sans-serif" font-size="14" lengthAdjust="spacing" textLength="148.9688" x="91.72" y="740.5726">de mesa en auditor&#237;a</text></g><g class="entity" data-qualified-name="CerrarMesa.ActualizarPlano" data-source-line="49" id="ent0008"><rect fill="#F5F5F5" height="68.8906" rx="12.5" ry="12.5" style="stroke:#777777;stroke-width:0.5;" width="203.9619" x="83.15" y="784.8738"/><line style="stroke:#777777;stroke-width:0.5;" x1="83.15" x2="287.1119" y1="811.1706" y2="811.1706"/><text fill="#111111" font-family="sans-serif" font-size="14" lengthAdjust="spacing" textLength="108.0283" x="131.1168" y="802.8689">ActualizarPlano</text><text fill="#111111" font-family="sans-serif" font-size="14" lengthAdjust="spacing" textLength="183.9619" x="88.15" y="829.1657">Sistema actualiza el plano</text><text fill="#111111" font-family="sans-serif" font-size="14" lengthAdjust="spacing" textLength="174.125" x="88.15" y="845.4626">de mesas en tiempo real</text></g><g class="start_entity" data-qualified-name="CerrarMesa..start.CerrarMesa" data-source-line="17" id="ent0011"><ellipse cx="185.13" cy="91.5938" fill="#222222" rx="10" ry="10" style="stroke:#222222;stroke-width:1;"/></g><g class="end_entity" data-qualified-name="CerrarMesa..end.CerrarMesa" data-source-line="51" id="ent0019"><ellipse cx="185.13" cy="900.7638" fill="none" rx="11" ry="11" style="stroke:#222222;stroke-width:1;"/><ellipse cx="185.13" cy="900.7638" fill="#222222" rx="6" ry="6" style="stroke:#222222;stroke-width:1;"/></g><g class="entity" data-qualified-name="CerrarMesa.GMN23" data-source-line="21" id="ent0024"><path d="M318.98,137.5938 L318.98,168.8538 L300.9,172.8538 L318.98,176.8538 L318.98,208.125 A0,0 0 0 0 318.98,208.125 L495.2818,208.125 A0,0 0 0 0 495.2818,208.125 L495.2818,147.5938 L485.2818,137.5938 L318.98,137.5938 A0,0 0 0 0 318.98,137.5938" fill="#FFF8D6" style="stroke:#C8B45D;stroke-width:0.5;"/><path d="M485.2818,137.5938 L485.2818,147.5938 L495.2818,147.5938 L485.2818,137.5938" fill="#FFF8D6" style="stroke:#C8B45D;stroke-width:0.5;"/><text fill="#000000" font-family="sans-serif" font-size="13" lengthAdjust="spacing" textLength="87.7183" x="324.98" y="154.6606">Precondici&#243;n:</text><text fill="#000000" font-family="sans-serif" font-size="13" lengthAdjust="spacing" textLength="155.3018" x="324.98" y="169.7935">La mesa est&#225; OCUPADA</text><text fill="#000000" font-family="sans-serif" font-size="13" lengthAdjust="spacing" textLength="125.8042" x="324.98" y="184.9263">y el ticket asociado</text><text fill="#000000" font-family="sans-serif" font-size="13" lengthAdjust="spacing" textLength="121.5894" x="324.98" y="200.0591">ha sido COBRADO.</text></g><!--link *start*CerrarMesa to SeleccionarMesa--><g class="link" data-entity-1="ent0011" data-entity-2="ent0002" data-link-type="dependency" data-source-line="17" id="lnk12"><path d="M185.13,101.9937 C185.13,110.9337 185.13,119.9237 185.13,133.0537" fill="none" id="*start*CerrarMesa-to-SeleccionarMesa" style="stroke:#3F8F3F;stroke-width:1;"/><polygon fill="#3F8F3F" points="185.13,138.0537,189.13,129.0537,185.13,133.0537,181.13,129.0537,185.13,138.0537" style="stroke:#3F8F3F;stroke-width:1;stroke-linejoin:miter;stroke-miterlimit:10;"/></g><!--link SeleccionarMesa to VerificarComanda--><g class="link" data-entity-1="ent0002" data-entity-2="ent0003" data-link-type="dependency" data-source-line="27" id="lnk13"><path d="M185.13,207.7238 C185.13,219.0437 185.13,226.7937 185.13,238.6537" fill="none" id="SeleccionarMesa-to-VerificarComanda" style="stroke:#3F8F3F;stroke-width:1;"/><polygon fill="#3F8F3F" points="185.13,243.6537,189.13,234.6537,185.13,238.6537,181.13,234.6537,185.13,243.6537" style="stroke:#3F8F3F;stroke-width:1;stroke-linejoin:miter;stroke-miterlimit:10;"/></g><!--link VerificarComanda to ComprobarTicket--><g class="link" data-entity-1="ent0003" data-entity-2="ent0004" data-link-type="dependency" data-source-line="31" id="lnk14"><path d="M185.13,329.6937 C185.13,341.3638 185.13,348.8837 185.13,360.0137" fill="none" id="VerificarComanda-to-ComprobarTicket" style="stroke:#3F8F3F;stroke-width:1;"/><polygon fill="#3F8F3F" points="185.13,365.0137,189.13,356.0137,185.13,360.0137,181.13,356.0137,185.13,365.0137" style="stroke:#3F8F3F;stroke-width:1;stroke-linejoin:miter;stroke-miterlimit:10;"/></g><!--link ComprobarTicket to CerrarComanda--><g class="link" data-entity-1="ent0004" data-entity-2="ent0005" data-link-type="dependency" data-source-line="35" id="lnk15"><path d="M185.13,434.4437 C185.13,445.8137 185.13,453.5037 185.13,464.8837" fill="none" id="ComprobarTicket-to-CerrarComanda" style="stroke:#3F8F3F;stroke-width:1;"/><polygon fill="#3F8F3F" points="185.13,469.8837,189.13,460.8837,185.13,464.8837,181.13,460.8837,185.13,469.8837" style="stroke:#3F8F3F;stroke-width:1;stroke-linejoin:miter;stroke-miterlimit:10;"/></g><!--link CerrarComanda to LiberarMesa--><g class="link" data-entity-1="ent0005" data-entity-2="ent0006" data-link-type="dependency" data-source-line="39" id="lnk16"><path d="M185.13,539.3338 C185.13,550.7037 185.13,558.3938 185.13,569.7738" fill="none" id="CerrarComanda-to-LiberarMesa" style="stroke:#3F8F3F;stroke-width:1;"/><polygon fill="#3F8F3F" points="185.13,574.7738,189.13,565.7738,185.13,569.7738,181.13,565.7738,185.13,574.7738" style="stroke:#3F8F3F;stroke-width:1;stroke-linejoin:miter;stroke-miterlimit:10;"/></g><!--link LiberarMesa to RegistrarAuditoria--><g class="link" data-entity-1="ent0006" data-entity-2="ent0007" data-link-type="dependency" data-source-line="43" id="lnk17"><path d="M185.13,644.2238 C185.13,655.5937 185.13,663.2837 185.13,674.6637" fill="none" id="LiberarMesa-to-RegistrarAuditoria" style="stroke:#3F8F3F;stroke-width:1;"/><polygon fill="#3F8F3F" points="185.13,679.6637,189.13,670.6637,185.13,674.6637,181.13,670.6637,185.13,679.6637" style="stroke:#3F8F3F;stroke-width:1;stroke-linejoin:miter;stroke-miterlimit:10;"/></g><!--link RegistrarAuditoria to ActualizarPlano--><g class="link" data-entity-1="ent0007" data-entity-2="ent0008" data-link-type="dependency" data-source-line="47" id="lnk18"><path d="M185.13,749.1138 C185.13,760.4838 185.13,768.1737 185.13,779.5537" fill="none" id="RegistrarAuditoria-to-ActualizarPlano" style="stroke:#3F8F3F;stroke-width:1;"/><polygon fill="#3F8F3F" points="185.13,784.5537,189.13,775.5537,185.13,779.5537,181.13,775.5537,185.13,784.5537" style="stroke:#3F8F3F;stroke-width:1;stroke-linejoin:miter;stroke-miterlimit:10;"/></g><!--link ActualizarPlano to *end*CerrarMesa--><g class="link" data-entity-1="ent0008" data-entity-2="ent0019" data-link-type="dependency" data-source-line="51" id="lnk20"><path d="M185.13,854.0138 C185.13,866.8638 185.13,875.5838 185.13,884.6138" fill="none" id="ActualizarPlano-to-*end*CerrarMesa" style="stroke:#3F8F3F;stroke-width:1;"/><polygon fill="#3F8F3F" points="185.13,889.6138,189.13,880.6138,185.13,884.6138,181.13,880.6138,185.13,889.6138" style="stroke:#3F8F3F;stroke-width:1;stroke-linejoin:miter;stroke-miterlimit:10;"/></g></g><g class="entity" data-qualified-name="MESA_LIBRE" data-source-line="57" id="ent0009"><rect fill="#F5F5F5" height="50" rx="12.5" ry="12.5" style="stroke:#777777;stroke-width:0.5;" width="106.4951" x="7" y="1004.4669"/><line style="stroke:#777777;stroke-width:0.5;" x1="7" x2="113.4951" y1="1030.7638" y2="1030.7638"/><text fill="#111111" font-family="sans-serif" font-size="14" lengthAdjust="spacing" textLength="86.4951" x="17" y="1022.462">MESA_LIBRE</text></g><g class="entity" data-qualified-name="OPERACION_RECHAZADA" data-source-line="58" id="ent0010"><rect fill="#F5F5F5" height="50" rx="12.5" ry="12.5" style="stroke:#777777;stroke-width:0.5;" width="197.9873" x="408.25" y="1004.4669"/><line style="stroke:#777777;stroke-width:0.5;" x1="408.25" x2="606.2373" y1="1030.7638" y2="1030.7638"/><text fill="#111111" font-family="sans-serif" font-size="14" lengthAdjust="spacing" textLength="177.9873" x="418.25" y="1022.462">OPERACION_RECHAZADA</text></g><g class="entity" data-qualified-name="GMN26" data-source-line="61" id="ent0027"><path d="M148.85,1001.7669 L148.85,1025.4669 L113.64,1029.4669 L148.85,1033.4669 L148.85,1057.1653 A0,0 0 0 0 148.85,1057.1653 L373.6542,1057.1653 A0,0 0 0 0 373.6542,1057.1653 L373.6542,1011.7669 L363.6542,1001.7669 L148.85,1001.7669 A0,0 0 0 0 148.85,1001.7669" fill="#FFF8D6" style="stroke:#C8B45D;stroke-width:0.5;"/><path d="M363.6542,1001.7669 L363.6542,1011.7669 L373.6542,1011.7669 L363.6542,1001.7669" fill="#FFF8D6" style="stroke:#C8B45D;stroke-width:0.5;"/><text fill="#000000" font-family="sans-serif" font-size="13" lengthAdjust="spacing" textLength="94.1992" x="154.85" y="1018.8338">Postcondici&#243;n:</text><text fill="#000000" font-family="sans-serif" font-size="13" lengthAdjust="spacing" textLength="178.5215" x="154.85" y="1033.9666">La comanda queda cerrada</text><text fill="#000000" font-family="sans-serif" font-size="13" lengthAdjust="spacing" textLength="203.8042" x="154.85" y="1049.0994">y la mesa pasa a estado LIBRE.</text></g><g class="entity" data-qualified-name="GMN29" data-source-line="67" id="ent0030"><path d="M641.48,1001.7669 L641.48,1025.4669 L606.55,1029.4669 L641.48,1033.4669 L641.48,1057.1653 A0,0 0 0 0 641.48,1057.1653 L911.0098,1057.1653 A0,0 0 0 0 911.0098,1057.1653 L911.0098,1011.7669 L901.0098,1001.7669 L641.48,1001.7669 A0,0 0 0 0 641.48,1001.7669" fill="#FFF8D6" style="stroke:#C8B45D;stroke-width:0.5;"/><path d="M901.0098,1001.7669 L901.0098,1011.7669 L911.0098,1011.7669 L901.0098,1001.7669" fill="#FFF8D6" style="stroke:#C8B45D;stroke-width:0.5;"/><text fill="#000000" font-family="sans-serif" font-size="13" lengthAdjust="spacing" textLength="236.4756" x="647.48" y="1018.8338">La operaci&#243;n se rechaza si no existe</text><text fill="#000000" font-family="sans-serif" font-size="13" lengthAdjust="spacing" textLength="248.5298" x="647.48" y="1033.9666">comanda activa asociada o si el ticket</text><text fill="#000000" font-family="sans-serif" font-size="13" lengthAdjust="spacing" textLength="175.4937" x="647.48" y="1049.0994">todav&#237;a no est&#225; COBRADO.</text></g><!--link CerrarMesa to MESA_LIBRE--><g class="link" data-entity-1="ent0001" data-entity-2="ent0009" data-link-type="dependency" data-source-line="54" id="lnk21"><path d="M102.72,925.0669 C89.1,958.2169 79.6491,981.2216 72.1191,999.5616" fill="none" id="CerrarMesa-to-MESA_LIBRE" style="stroke:#3F8F3F;stroke-width:1;"/><polygon fill="#3F8F3F" points="70.22,1004.1869,77.3386,997.3805,72.1191,999.5616,69.938,994.3421,70.22,1004.1869" style="stroke:#3F8F3F;stroke-width:1;stroke-linejoin:miter;stroke-miterlimit:10;"/><text fill="#000000" font-family="sans-serif" font-size="13" lengthAdjust="spacing" textLength="103.5049" x="89.25" y="967.8338">cierreCorrecto()</text></g><!--link CerrarMesa to OPERACION_RECHAZADA--><g class="link" data-entity-1="ent0001" data-entity-2="ent0010" data-link-type="dependency" data-source-line="55" id="lnk22"><path d="M464.59,925.0669 C478.26,958.2169 487.7523,981.2251 495.3223,999.5651" fill="none" id="CerrarMesa-to-OPERACION_RECHAZADA" style="stroke:#3F8F3F;stroke-width:1;"/><polygon fill="#3F8F3F" points="497.23,1004.1869,497.4936,994.3415,495.3223,999.5651,490.0988,997.3938,497.23,1004.1869" style="stroke:#3F8F3F;stroke-width:1;stroke-linejoin:miter;stroke-miterlimit:10;"/><text fill="#000000" font-family="sans-serif" font-size="13" lengthAdjust="spacing" textLength="105.5552" x="480.25" y="967.8338">cierreNoValido()</text></g><?plantuml-src TLJ1Rjf04BtxAqR99Qb4r2fD6-LGoHYiHY81aIQ7bYeQrXjOnUowwmMQLFsOVa1F_GH-hBFhDIoEOoG4CxFlpNkUMIDCpY6vxRmzWmuaN6lKiE0bHb7vA6I16XTGpZ5JQo5dy81voOFC5DdZJAkbp1ALAmthkJ1XFjPQhQlKuMbwdfwc8Qn1m-5N1D1jm1ocP_PZCqfdNFleH_TGD5NI-DWxzqI_0rofNeLDq_FUXoPiSjvzVzOZYAZgw80v6wx8XQFZ0y3I-s833lVRc-_GwNo26vvpneIILIwYL2C45z3F0RE5aA8qccpKK6vB9d8fqRaD1PUPu9BOCmvC41ydDAT4YzdSW7fuGGVqZ3HdYeuoiVadBrneu25vQJP_O9ZSZk9Ux39Fm7CmWZroGweK4zIFIymHIf4fI8RTSTmRdb2G-d7qRQAizZkknODWI2OkK6PEV3D6wcz8DbyWh7mAVYmvy9ysMgbdlXIP4Ikiso9h47BqazY2R5kWtuLMKzHVd2HRrmW53J2RMVAfxw3sOIAP8g_BGjN-LxPv9zem7RKRY43wNY2ajQ_IIV52IPYN29ZJBEWLlJlr4iAo3CIKwzri1Ny31Z9kYRbutlfbhICHz6vXSDaTzvj7BVAOpzmywdYP2QEqS0Glem6FzadhNJMW4qcpMesQ1AoERFw-XcHfuxfNFSfHEjMDKAimOYniSajOMaOZ-A9Gr1VcRK2MZnRLhdMmlZPwrR-9xvqrn5P9IUmGCAEEZfl5mr5_72UNm-lxSJ_v77-bNTgUkbPtn9ZPK_NLiSDs5yVkRrtGWkSgM-9HjB__0HWjlYhD_kOFTij48qxVxXhBx3tnLCy654XV-_Dn4krsVP-mhIV7emgQ9aTC4qnlWCtnsLuXXEANc-fUsMnGjd2xW5HeL8Oh6XntEjo-NMV_0G00?></g></svg>