<svg xmlns="http://www.w3.org/2000/svg" xmlns:xlink="http://www.w3.org/1999/xlink" contentStyleType="text/css" data-diagram-type="STATE" height="1163px" preserveAspectRatio="none" style="width:1428px;height:1163px;background:#FFFFFF;" version="1.1" viewBox="0 0 1428 1163" width="1428px" zoomAndPan="magnify"><?plantuml 1.2026.7beta1?><defs/><g><g class="title" data-source-line="1"><text fill="#000000" font-family="sans-serif" font-size="14" font-weight="700" lengthAdjust="spacing" textLength="188.8633" x="616.1408" y="22.9951">CU-06 - Tomar comanda</text></g><g class="entity" data-qualified-name="TomarComanda" data-source-line="16" id="ent0001"><path d="M311.03,44.2969 L795.215,44.2969 A12.5,12.5 0 0 1 807.715,56.7969 L807.715,70.5938 L298.53,70.5938 L298.53,56.7969 A12.5,12.5 0 0 1 311.03,44.2969" fill="#F5F5F5"/><path d="M298.53,70.5938 L807.715,70.5938 L807.715,943.2238 A12.5,12.5 0 0 1 795.215,955.7238 L311.03,955.7238 A12.5,12.5 0 0 1 298.53,943.2238 L298.53,70.5938" fill="#F5F5F5"/><rect fill="none" height="911.4269" rx="12.5" ry="12.5" style="stroke:#777777;stroke-width:0.5;" width="509.185" x="298.53" y="44.2969"/><line style="stroke:#777777;stroke-width:0.5;" x1="298.53" x2="807.715" y1="70.5938" y2="70.5938"/><text fill="#111111" font-family="sans-serif" font-size="14" lengthAdjust="spacing" textLength="119.8477" x="493.1987" y="62.292">tomarComanda()</text><g class="entity" data-qualified-name="TomarComanda.SeleccionMesa" data-source-line="19" id="ent0002"><rect fill="#F5F5F5" height="68.8906" rx="12.5" ry="12.5" style="stroke:#777777;stroke-width:0.5;" width="231.5791" x="327.72" y="137.5938"/><line style="stroke:#777777;stroke-width:0.5;" x1="327.72" x2="559.2991" y1="163.8906" y2="163.8906"/><text fill="#111111" font-family="sans-serif" font-size="14" lengthAdjust="spacing" textLength="103.291" x="391.864" y="155.5889">SeleccionMesa</text><text fill="#111111" font-family="sans-serif" font-size="14" lengthAdjust="spacing" textLength="199.917" x="332.72" y="181.8857">El camarero o administrador</text><text fill="#111111" font-family="sans-serif" font-size="14" lengthAdjust="spacing" textLength="211.5791" x="332.72" y="198.1826">selecciona una mesa ocupada</text></g><g class="entity" data-qualified-name="TomarComanda.MostrarCarta" data-source-line="28" id="ent0003"><rect fill="#F5F5F5" height="85.1875" rx="12.5" ry="12.5" style="stroke:#777777;stroke-width:0.5;" width="207.8242" x="339.6" y="242.4937"/><line style="stroke:#777777;stroke-width:0.5;" x1="339.6" x2="547.4242" y1="268.7906" y2="268.7906"/><text fill="#111111" font-family="sans-serif" font-size="14" lengthAdjust="spacing" textLength="91.6973" x="397.6635" y="260.4889">MostrarCarta</text><text fill="#111111" font-family="sans-serif" font-size="14" lengthAdjust="spacing" textLength="181.002" x="344.6" y="286.7857">Sistema muestra la carta,</text><text fill="#111111" font-family="sans-serif" font-size="14" lengthAdjust="spacing" textLength="187.8242" x="344.6" y="303.0826">platos disponibles y tarifas</text><text fill="#111111" font-family="sans-serif" font-size="14" lengthAdjust="spacing" textLength="126.3418" x="344.6" y="319.3795">de men&#250; vigentes</text></g><g class="entity" data-qualified-name="TomarComanda.AnadirLinea" data-source-line="32" id="ent0004"><rect fill="#F5F5F5" height="85.1875" rx="12.5" ry="12.5" style="stroke:#777777;stroke-width:0.5;" width="263.2842" x="311.87" y="363.6738"/><line style="stroke:#777777;stroke-width:0.5;" x1="311.87" x2="575.1542" y1="389.9706" y2="389.9706"/><text fill="#111111" font-family="sans-serif" font-size="14" lengthAdjust="spacing" textLength="83.3164" x="401.8539" y="381.6689">AnadirLinea</text><text fill="#111111" font-family="sans-serif" font-size="14" lengthAdjust="spacing" textLength="237.959" x="316.87" y="407.9657">Usuario a&#241;ade platos l&#237;nea a l&#237;nea</text><text fill="#111111" font-family="sans-serif" font-size="14" lengthAdjust="spacing" textLength="243.2842" x="316.87" y="424.2626">indicando cantidad, observaciones</text><text fill="#111111" font-family="sans-serif" font-size="14" lengthAdjust="spacing" textLength="172.9287" x="316.87" y="440.5595">y al&#233;rgenos confirmados</text></g><g class="entity" data-qualified-name="TomarComanda.ValidarDatos" data-source-line="36" id="ent0005"><rect fill="#F5F5F5" height="85.1875" rx="12.5" ry="12.5" style="stroke:#777777;stroke-width:0.5;" width="265.957" x="310.53" y="484.8638"/><line style="stroke:#777777;stroke-width:0.5;" x1="310.53" x2="576.487" y1="511.1606" y2="511.1606"/><text fill="#111111" font-family="sans-serif" font-size="14" lengthAdjust="spacing" textLength="89.8652" x="398.5759" y="502.8589">ValidarDatos</text><text fill="#111111" font-family="sans-serif" font-size="14" lengthAdjust="spacing" textLength="230.9111" x="315.53" y="529.1557">Sistema valida comanda abierta,</text><text fill="#111111" font-family="sans-serif" font-size="14" lengthAdjust="spacing" textLength="245.957" x="315.53" y="545.4526">plato disponible, datos obligatorios</text><text fill="#111111" font-family="sans-serif" font-size="14" lengthAdjust="spacing" textLength="172.9287" x="315.53" y="561.7495">y al&#233;rgenos confirmados</text></g><g class="entity" data-qualified-name="TomarComanda.GuardarLinea" data-source-line="40" id="ent0006"><rect fill="#F5F5F5" height="68.8906" rx="12.5" ry="12.5" style="stroke:#777777;stroke-width:0.5;" width="264.4189" x="311.3" y="606.0537"/><line style="stroke:#777777;stroke-width:0.5;" x1="311.3" x2="575.7189" y1="632.3506" y2="632.3506"/><text fill="#111111" font-family="sans-serif" font-size="14" lengthAdjust="spacing" textLength="95.0332" x="395.9929" y="624.0489">GuardarLinea</text><text fill="#111111" font-family="sans-serif" font-size="14" lengthAdjust="spacing" textLength="165.6143" x="316.3" y="650.3457">Sistema guarda la l&#237;nea</text><text fill="#111111" font-family="sans-serif" font-size="14" lengthAdjust="spacing" textLength="244.4189" x="316.3" y="666.6426">de comanda en estado PENDIENTE</text></g><g class="entity" data-qualified-name="TomarComanda.EvaluarKDS" data-source-line="44" id="ent0007"><rect fill="#F5F5F5" height="68.8906" rx="12.5" ry="12.5" style="stroke:#777777;stroke-width:0.5;" width="231.1826" x="327.92" y="710.9438"/><line style="stroke:#777777;stroke-width:0.5;" x1="327.92" x2="559.1026" y1="737.2406" y2="737.2406"/><text fill="#111111" font-family="sans-serif" font-size="14" lengthAdjust="spacing" textLength="81.6553" x="402.6837" y="728.9389">EvaluarKDS</text><text fill="#111111" font-family="sans-serif" font-size="14" lengthAdjust="spacing" textLength="211.1826" x="332.92" y="755.2357">Sistema comprueba si la l&#237;nea</text><text fill="#111111" font-family="sans-serif" font-size="14" lengthAdjust="spacing" textLength="182.123" x="332.92" y="771.5326">debe mostrarse en cocina</text></g><g class="entity" data-qualified-name="TomarComanda.ActualizarKDS" data-source-line="48" id="ent0008"><rect fill="#F5F5F5" height="68.8906" rx="12.5" ry="12.5" style="stroke:#777777;stroke-width:0.5;" width="253.5225" x="316.75" y="815.8338"/><line style="stroke:#777777;stroke-width:0.5;" x1="316.75" x2="570.2725" y1="842.1306" y2="842.1306"/><text fill="#111111" font-family="sans-serif" font-size="14" lengthAdjust="spacing" textLength="98.5264" x="394.248" y="833.8289">ActualizarKDS</text><text fill="#111111" font-family="sans-serif" font-size="14" lengthAdjust="spacing" textLength="174.0156" x="321.75" y="860.1257">Sistema actualiza el KDS</text><text fill="#111111" font-family="sans-serif" font-size="14" lengthAdjust="spacing" textLength="233.5225" x="321.75" y="876.4226">mediante eventos en tiempo real</text></g><g class="start_entity" data-qualified-name="TomarComanda..start.TomarComanda" data-source-line="17" id="ent0012"><ellipse cx="443.51" cy="91.5938" fill="#222222" rx="10" ry="10" style="stroke:#222222;stroke-width:1;"/></g><g class="end_entity" data-qualified-name="TomarComanda..end.TomarComanda" data-source-line="50" id="ent0020"><ellipse cx="443.51" cy="931.7238" fill="none" rx="11" ry="11" style="stroke:#222222;stroke-width:1;"/><ellipse cx="443.51" cy="931.7238" fill="#222222" rx="6" ry="6" style="stroke:#222222;stroke-width:1;"/></g><g class="entity" data-qualified-name="TomarComanda.GMN25" data-source-line="21" id="ent0026"><path d="M577.3,144.3438 L577.3,168.0438 L559.69,172.0438 L577.3,176.0438 L577.3,199.7422 A0,0 0 0 0 577.3,199.7422 L783.715,199.7422 A0,0 0 0 0 783.715,199.7422 L783.715,154.3438 L773.715,144.3438 L577.3,144.3438 A0,0 0 0 0 577.3,144.3438" fill="#FFF8D6" style="stroke:#C8B45D;stroke-width:0.5;"/><path d="M773.715,144.3438 L773.715,154.3438 L783.715,154.3438 L773.715,144.3438" fill="#FFF8D6" style="stroke:#C8B45D;stroke-width:0.5;"/><text fill="#000000" font-family="sans-serif" font-size="13" lengthAdjust="spacing" textLength="87.7183" x="583.3" y="161.4106">Precondici&#243;n:</text><text fill="#000000" font-family="sans-serif" font-size="13" lengthAdjust="spacing" textLength="155.3018" x="583.3" y="176.5435">La mesa est&#225; OCUPADA</text><text fill="#000000" font-family="sans-serif" font-size="13" lengthAdjust="spacing" textLength="185.415" x="583.3" y="191.6763">y tiene una comanda activa.</text></g><!--link *start*TomarComanda to SeleccionMesa--><g class="link" data-entity-1="ent0012" data-entity-2="ent0002" data-link-type="dependency" data-source-line="17" id="lnk13"><path d="M443.51,101.9037 C443.51,110.6738 443.51,119.3438 443.51,132.2238" fill="none" id="*start*TomarComanda-to-SeleccionMesa" style="stroke:#3F8F3F;stroke-width:1;"/><polygon fill="#3F8F3F" points="443.51,137.2238,447.51,128.2238,443.51,132.2238,439.51,128.2238,443.51,137.2238" style="stroke:#3F8F3F;stroke-width:1;stroke-linejoin:miter;stroke-miterlimit:10;"/></g><!--link SeleccionMesa to MostrarCarta--><g class="link" data-entity-1="ent0002" data-entity-2="ent0003" data-link-type="dependency" data-source-line="26" id="lnk14"><path d="M443.51,206.9638 C443.51,218.0638 443.51,225.5237 443.51,237.1337" fill="none" id="SeleccionMesa-to-MostrarCarta" style="stroke:#3F8F3F;stroke-width:1;"/><polygon fill="#3F8F3F" points="443.51,242.1337,447.51,233.1337,443.51,237.1337,439.51,233.1337,443.51,242.1337" style="stroke:#3F8F3F;stroke-width:1;stroke-linejoin:miter;stroke-miterlimit:10;"/></g><!--link MostrarCarta to AnadirLinea--><g class="link" data-entity-1="ent0003" data-entity-2="ent0004" data-link-type="dependency" data-source-line="30" id="lnk15"><path d="M443.51,328.1038 C443.51,339.4938 443.51,346.8338 443.51,358.2238" fill="none" id="MostrarCarta-to-AnadirLinea" style="stroke:#3F8F3F;stroke-width:1;"/><polygon fill="#3F8F3F" points="443.51,363.2238,447.51,354.2238,443.51,358.2238,439.51,354.2238,443.51,363.2238" style="stroke:#3F8F3F;stroke-width:1;stroke-linejoin:miter;stroke-miterlimit:10;"/></g><!--link AnadirLinea to ValidarDatos--><g class="link" data-entity-1="ent0004" data-entity-2="ent0005" data-link-type="dependency" data-source-line="34" id="lnk16"><path d="M443.51,449.2938 C443.51,460.6838 443.51,468.0238 443.51,479.4138" fill="none" id="AnadirLinea-to-ValidarDatos" style="stroke:#3F8F3F;stroke-width:1;"/><polygon fill="#3F8F3F" points="443.51,484.4138,447.51,475.4138,443.51,479.4138,439.51,475.4138,443.51,484.4138" style="stroke:#3F8F3F;stroke-width:1;stroke-linejoin:miter;stroke-miterlimit:10;"/></g><!--link ValidarDatos to GuardarLinea--><g class="link" data-entity-1="ent0005" data-entity-2="ent0006" data-link-type="dependency" data-source-line="38" id="lnk17"><path d="M443.51,570.4337 C443.51,582.1038 443.51,589.6238 443.51,600.7538" fill="none" id="ValidarDatos-to-GuardarLinea" style="stroke:#3F8F3F;stroke-width:1;"/><polygon fill="#3F8F3F" points="443.51,605.7538,447.51,596.7538,443.51,600.7538,439.51,596.7538,443.51,605.7538" style="stroke:#3F8F3F;stroke-width:1;stroke-linejoin:miter;stroke-miterlimit:10;"/></g><!--link GuardarLinea to EvaluarKDS--><g class="link" data-entity-1="ent0006" data-entity-2="ent0007" data-link-type="dependency" data-source-line="42" id="lnk18"><path d="M443.51,675.1838 C443.51,686.5537 443.51,694.2438 443.51,705.6238" fill="none" id="GuardarLinea-to-EvaluarKDS" style="stroke:#3F8F3F;stroke-width:1;"/><polygon fill="#3F8F3F" points="443.51,710.6238,447.51,701.6238,443.51,705.6238,439.51,701.6238,443.51,710.6238" style="stroke:#3F8F3F;stroke-width:1;stroke-linejoin:miter;stroke-miterlimit:10;"/></g><!--link EvaluarKDS to ActualizarKDS--><g class="link" data-entity-1="ent0007" data-entity-2="ent0008" data-link-type="dependency" data-source-line="46" id="lnk19"><path d="M443.51,780.0738 C443.51,791.4438 443.51,799.1338 443.51,810.5138" fill="none" id="EvaluarKDS-to-ActualizarKDS" style="stroke:#3F8F3F;stroke-width:1;"/><polygon fill="#3F8F3F" points="443.51,815.5138,447.51,806.5138,443.51,810.5138,439.51,806.5138,443.51,815.5138" style="stroke:#3F8F3F;stroke-width:1;stroke-linejoin:miter;stroke-miterlimit:10;"/></g><!--link ActualizarKDS to *end*TomarComanda--><g class="link" data-entity-1="ent0008" data-entity-2="ent0020" data-link-type="dependency" data-source-line="50" id="lnk21"><path d="M443.51,884.9738 C443.51,897.8238 443.51,906.5438 443.51,915.5738" fill="none" id="ActualizarKDS-to-*end*TomarComanda" style="stroke:#3F8F3F;stroke-width:1;"/><polygon fill="#3F8F3F" points="443.51,920.5738,447.51,911.5738,443.51,915.5738,439.51,911.5738,443.51,920.5738" style="stroke:#3F8F3F;stroke-width:1;stroke-linejoin:miter;stroke-miterlimit:10;"/></g></g><g class="entity" data-qualified-name="LINEAS_REGISTRADAS" data-source-line="57" id="ent0009"><rect fill="#F5F5F5" height="50" rx="12.5" ry="12.5" style="stroke:#777777;stroke-width:0.5;" width="176.249" x="7" y="1065.6969"/><line style="stroke:#777777;stroke-width:0.5;" x1="7" x2="183.249" y1="1091.9937" y2="1091.9937"/><text fill="#111111" font-family="sans-serif" font-size="14" lengthAdjust="spacing" textLength="156.249" x="17" y="1083.692">LINEAS_REGISTRADAS</text></g><g class="entity" data-qualified-name="OPERACION_OFFLINE" data-source-line="58" id="ent0010"><rect fill="#F5F5F5" height="50" rx="12.5" ry="12.5" style="stroke:#777777;stroke-width:0.5;" width="168.3809" x="468.93" y="1065.6969"/><line style="stroke:#777777;stroke-width:0.5;" x1="468.93" x2="637.3109" y1="1091.9937" y2="1091.9937"/><text fill="#111111" font-family="sans-serif" font-size="14" lengthAdjust="spacing" textLength="148.3809" x="478.93" y="1083.692">OPERACION_OFFLINE</text></g><g class="entity" data-qualified-name="OPERACION_RECHAZADA" data-source-line="59" id="ent0011"><rect fill="#F5F5F5" height="50" rx="12.5" ry="12.5" style="stroke:#777777;stroke-width:0.5;" width="197.9873" x="940.13" y="1065.6969"/><line style="stroke:#777777;stroke-width:0.5;" x1="940.13" x2="1138.1173" y1="1091.9937" y2="1091.9937"/><text fill="#111111" font-family="sans-serif" font-size="14" lengthAdjust="spacing" textLength="177.9873" x="950.13" y="1083.692">OPERACION_RECHAZADA</text></g><g class="entity" data-qualified-name="GMN28" data-source-line="62" id="ent0029"><path d="M218.17,1055.4269 L218.17,1086.6969 L183.55,1090.6969 L218.17,1094.6969 L218.17,1125.9581 A0,0 0 0 0 218.17,1125.9581 L434.0748,1125.9581 A0,0 0 0 0 434.0748,1125.9581 L434.0748,1065.4269 L424.0748,1055.4269 L218.17,1055.4269 A0,0 0 0 0 218.17,1055.4269" fill="#FFF8D6" style="stroke:#C8B45D;stroke-width:0.5;"/><path d="M424.0748,1055.4269 L424.0748,1065.4269 L434.0748,1065.4269 L424.0748,1055.4269" fill="#FFF8D6" style="stroke:#C8B45D;stroke-width:0.5;"/><text fill="#000000" font-family="sans-serif" font-size="13" lengthAdjust="spacing" textLength="94.1992" x="224.17" y="1072.4938">Postcondici&#243;n:</text><text fill="#000000" font-family="sans-serif" font-size="13" lengthAdjust="spacing" textLength="194.9048" x="224.17" y="1087.6266">Las l&#237;neas quedan registradas</text><text fill="#000000" font-family="sans-serif" font-size="13" lengthAdjust="spacing" textLength="165.0137" x="224.17" y="1102.7594">y disponibles para cocina</text><text fill="#000000" font-family="sans-serif" font-size="13" lengthAdjust="spacing" textLength="137.2871" x="224.17" y="1117.8922">cuando corresponda.</text></g><g class="entity" data-qualified-name="GMN31" data-source-line="69" id="ent0032"><path d="M672.81,1062.9969 L672.81,1086.6969 L637.48,1090.6969 L672.81,1094.6969 L672.81,1118.3953 A0,0 0 0 0 672.81,1118.3953 L905.4409,1118.3953 A0,0 0 0 0 905.4409,1118.3953 L905.4409,1072.9969 L895.4409,1062.9969 L672.81,1062.9969 A0,0 0 0 0 672.81,1062.9969" fill="#FFF8D6" style="stroke:#C8B45D;stroke-width:0.5;"/><path d="M895.4409,1062.9969 L895.4409,1072.9969 L905.4409,1072.9969 L895.4409,1062.9969" fill="#FFF8D6" style="stroke:#C8B45D;stroke-width:0.5;"/><text fill="#000000" font-family="sans-serif" font-size="13" lengthAdjust="spacing" textLength="211.6309" x="678.81" y="1080.0638">Si no hay conexi&#243;n, la operaci&#243;n</text><text fill="#000000" font-family="sans-serif" font-size="13" lengthAdjust="spacing" textLength="191.3501" x="678.81" y="1095.1966">se guarda en IndexedDB y se</text><text fill="#000000" font-family="sans-serif" font-size="13" lengthAdjust="spacing" textLength="194.7588" x="678.81" y="1110.3294">sincroniza al recuperar la red.</text></g><g class="entity" data-qualified-name="GMN34" data-source-line="75" id="ent0035"><path d="M1173.1,1032.7269 L1173.1,1086.6969 L1138.34,1090.6969 L1173.1,1094.6969 L1173.1,1148.6566 A0,0 0 0 0 1173.1,1148.6566 L1413.1449,1148.6566 A0,0 0 0 0 1413.1449,1148.6566 L1413.1449,1042.7269 L1403.1449,1032.7269 L1173.1,1032.7269 A0,0 0 0 0 1173.1,1032.7269" fill="#FFF8D6" style="stroke:#C8B45D;stroke-width:0.5;"/><path d="M1403.1449,1032.7269 L1403.1449,1042.7269 L1413.1449,1042.7269 L1403.1449,1032.7269" fill="#FFF8D6" style="stroke:#C8B45D;stroke-width:0.5;"/><text fill="#000000" font-family="sans-serif" font-size="13" lengthAdjust="spacing" textLength="53.9297" x="1179.1" y="1049.7938">CU-N03:</text><text fill="#000000" font-family="sans-serif" font-size="13" lengthAdjust="spacing" textLength="177.125" x="1179.1" y="1064.9266">Se rechaza si los al&#233;rgenos</text><text fill="#000000" font-family="sans-serif" font-size="13" lengthAdjust="spacing" textLength="219.0449" x="1179.1" y="1080.0594">requeridos no est&#225;n confirmados.</text><text fill="#000000" font-family="sans-serif" font-size="13" lengthAdjust="spacing" textLength="4.1323" x="1179.1" y="1095.1922">&#160;</text><text fill="#000000" font-family="sans-serif" font-size="13" lengthAdjust="spacing" textLength="53.9297" x="1179.1" y="1110.325">CU-N07:</text><text fill="#000000" font-family="sans-serif" font-size="13" lengthAdjust="spacing" textLength="191.4326" x="1179.1" y="1125.4578">Se rechaza si el plato no est&#225;</text><text fill="#000000" font-family="sans-serif" font-size="13" lengthAdjust="spacing" textLength="70.6875" x="1179.1" y="1140.5906">disponible.</text></g><!--link TomarComanda to LINEAS_REGISTRADAS--><g class="link" data-entity-1="ent0001" data-entity-2="ent0009" data-link-type="dependency" data-source-line="53" id="lnk22"><path d="M298.34,828.4869 C221.02,927.8769 150.7403,1018.2106 117.2303,1061.2806" fill="none" id="TomarComanda-to-LINEAS_REGISTRADAS" style="stroke:#3F8F3F;stroke-width:1;"/><polygon fill="#3F8F3F" points="114.16,1065.2269,122.8436,1060.5799,117.2303,1061.2806,116.5296,1055.6673,114.16,1065.2269" style="stroke:#3F8F3F;stroke-width:1;stroke-linejoin:miter;stroke-miterlimit:10;"/><text fill="#000000" font-family="sans-serif" font-size="13" lengthAdjust="spacing" textLength="140.626" x="173.12" y="998.7938">comandaRegistrada()</text></g><!--link TomarComanda to OPERACION_OFFLINE--><g class="link" data-entity-1="ent0001" data-entity-2="ent0010" data-link-type="dependency" data-source-line="54" id="lnk23"><path d="M553.12,956.1069 C553.12,1003.0469 553.12,1037.1169 553.12,1060.6369" fill="none" id="TomarComanda-to-OPERACION_OFFLINE" style="stroke:#3F8F3F;stroke-width:1;"/><polygon fill="#3F8F3F" points="553.12,1065.6369,557.12,1056.6369,553.12,1060.6369,549.12,1056.6369,553.12,1065.6369" style="stroke:#3F8F3F;stroke-width:1;stroke-linejoin:miter;stroke-miterlimit:10;"/><text fill="#000000" font-family="sans-serif" font-size="13" lengthAdjust="spacing" textLength="89.5337" x="554.12" y="998.7938">sinConexion()</text></g><!--link TomarComanda to OPERACION_RECHAZADA--><g class="link" data-entity-1="ent0001" data-entity-2="ent0011" data-link-type="dependency" data-source-line="55" id="lnk24"><path d="M807.87,809.5769 C895.5,915.7269 977.9167,1015.5511 1015.7367,1061.3611" fill="none" id="TomarComanda-to-OPERACION_RECHAZADA" style="stroke:#3F8F3F;stroke-width:1;"/><polygon fill="#3F8F3F" points="1018.92,1065.2169,1016.2748,1055.7299,1015.7367,1061.3611,1010.1055,1060.8231,1018.92,1065.2169" style="stroke:#3F8F3F;stroke-width:1;stroke-linejoin:miter;stroke-miterlimit:10;"/><text fill="#000000" font-family="sans-serif" font-size="13" lengthAdjust="spacing" textLength="104.1206" x="958.12" y="998.7938">datosInvalidos()</text></g><?plantuml-src ZLLDRzj64BtpLmoIIrlOGGetYU530PaYKw6ER4Xs3gc2O4IkfKMeNNMNbEC4_J4zvf13qLkl-cDzioGjIam_Q5WGPtRUU_EnerANXQBuvlZfSpgcQxjYHna-JSvHvDzhisR7A_9BpksTDWkwvSAhZcVEsVk5ivN9OrjOHtTBNNRz0-ViNUrwV9AUfYTf5xRaKj6dYEZy0EPn-ap-n6DThbnZVH4UM5DhoiRsVNYYtpgunluZR9gU3fyVmiQdvpyy6m8YgXKzAgKGSLs7RxvzHEphsZIcWFtBTs_f-FX7cgf2PPcsvfNoA1hj6-YCae8oHh1obYnnlj96-zAXecvcV7kOgSB_Ia9iLgqP3Q0w4QSNovBixG4JuRboAhCcrvdU_cdEWkcY0L6-tFvEb_7DrM0u29vxAhKoAl0qFIREIhtX9_0hamUwVWQIv2ihYbtChWmvTj-HuXG9gHMOAoLsAi0WhgEPMHTSMa-vzcjhzBnGNeImqxViPoPNK6ksVz56BvGfbU-12_l0SAxTXJOga7TUmNtZAw2XiDi_670DNx7z8cvklioCbZ8XPmjbfjGvvqTavrwv3Kkc2cBkYOljPmSX041TRxLReKl-a5CalUO266uePEBlldSAiWdcNRddMdNAqgdA4UKXrCuBlS0tPFGVYlOOHT9Br066Xp9rtpkI5i4iBMfBWwgr0fMHmG45NINZuIWPNoSzAE5Aa1XiFm-dujwzTNW0kNQLcZDvlSysHzFh5dibZ9dDjE43eD3thAoGvSS7eZr3XujREwc2u9gPbSer-Wpy3UOA5G8Fnd-rjkGK5tqmuSELbYMmTzN5VZ4Q9uFfkqdoSZIzdk0-2NTJiebQrBSPYw8VUNcLJ0Rnw7ByxZ9D1GQ1NfiO0_S1K_Vl8PCa_cdm1dG82jCnCc6Uh4TSkwhwsiAwwflRW9waSBvdxHz_a7CGy62FelrzzHKDM5de_FxEkk3skdhwjL8v6xIeBQgFP75rjuUi-7PaYBAgljFMEILdSYoptIhRrzFF4QjEuoWj-Lwk5te2JKSohNQj70U9E8GnRMuDfcY42VwWyk4vTE6daAIVcOCwJ1yNa8xjZLWdA4xb_qVEhe8alyNZfoTdOGiBs98_rZS8CxnR1d0xXM8vcGR98AnxqzqHJw8MxKKV3TUata1jA4xiYhpJ_3S0?></g></svg>