<svg xmlns="http://www.w3.org/2000/svg" xmlns:xlink="http://www.w3.org/1999/xlink" contentStyleType="text/css" data-diagram-type="STATE" height="981px" preserveAspectRatio="none" style="width:928px;height:981px;background:#FFFFFF;" version="1.1" viewBox="0 0 928 981" width="928px" zoomAndPan="magnify"><?plantuml 1.2026.7beta1?><defs/><g><g class="title" data-source-line="1"><text fill="#000000" font-family="sans-serif" font-size="14" font-weight="700" lengthAdjust="spacing" textLength="148.6953" x="386.4975" y="22.9951">CU-04 - Abrir mesa</text></g><g class="entity" data-qualified-name="AbrirMesa" data-source-line="16" id="ent0001"><path d="M70.57,44.2969 L545.7205,44.2969 A12.5,12.5 0 0 1 558.2205,56.7969 L558.2205,70.5938 L58.07,70.5938 L58.07,56.7969 A12.5,12.5 0 0 1 70.57,44.2969" fill="#F5F5F5"/><path d="M58.07,70.5938 L558.2205,70.5938 L558.2205,822.0338 A12.5,12.5 0 0 1 545.7205,834.5338 L70.57,834.5338 A12.5,12.5 0 0 1 58.07,822.0338 L58.07,70.5938" fill="#F5F5F5"/><rect fill="none" height="790.2369" rx="12.5" ry="12.5" style="stroke:#777777;stroke-width:0.5;" width="500.1505" x="58.07" y="44.2969"/><line style="stroke:#777777;stroke-width:0.5;" x1="58.07" x2="558.2205" y1="70.5938" y2="70.5938"/><text fill="#111111" font-family="sans-serif" font-size="14" lengthAdjust="spacing" textLength="80.3564" x="267.967" y="62.292">abrirMesa()</text><g class="entity" data-qualified-name="AbrirMesa.Solicitud" data-source-line="19" id="ent0002"><rect fill="#F5F5F5" height="68.8906" rx="12.5" ry="12.5" style="stroke:#777777;stroke-width:0.5;" width="243.1865" x="80.63" y="137.5938"/><line style="stroke:#777777;stroke-width:0.5;" x1="80.63" x2="323.8165" y1="163.8906" y2="163.8906"/><text fill="#111111" font-family="sans-serif" font-size="14" lengthAdjust="spacing" textLength="60.0674" x="172.1896" y="155.5889">Solicitud</text><text fill="#111111" font-family="sans-serif" font-size="14" lengthAdjust="spacing" textLength="199.917" x="85.63" y="181.8857">El camarero o administrador</text><text fill="#111111" font-family="sans-serif" font-size="14" lengthAdjust="spacing" textLength="223.1865" x="85.63" y="198.1826">selecciona una mesa disponible</text></g><g class="entity" data-qualified-name="AbrirMesa.Validacion" data-source-line="28" id="ent0003"><rect fill="#F5F5F5" height="85.1875" rx="12.5" ry="12.5" style="stroke:#777777;stroke-width:0.5;" width="264.3164" x="70.07" y="242.4838"/><line style="stroke:#777777;stroke-width:0.5;" x1="70.07" x2="334.3864" y1="268.7806" y2="268.7806"/><text fill="#111111" font-family="sans-serif" font-size="14" lengthAdjust="spacing" textLength="72.4268" x="166.0148" y="260.4789">Validacion</text><text fill="#111111" font-family="sans-serif" font-size="14" lengthAdjust="spacing" textLength="244.3164" x="75.07" y="286.7757">Sistema valida que la mesa exista,</text><text fill="#111111" font-family="sans-serif" font-size="14" lengthAdjust="spacing" textLength="185.6504" x="75.07" y="303.0726">est&#233; disponible y no tenga</text><text fill="#111111" font-family="sans-serif" font-size="14" lengthAdjust="spacing" textLength="111.7881" x="75.07" y="319.3695">comanda activa</text></g><g class="entity" data-qualified-name="AbrirMesa.CrearComanda" data-source-line="32" id="ent0004"><rect fill="#F5F5F5" height="68.8906" rx="12.5" ry="12.5" style="stroke:#777777;stroke-width:0.5;" width="211.5293" x="96.46" y="363.6738"/><line style="stroke:#777777;stroke-width:0.5;" x1="96.46" x2="307.9893" y1="389.9706" y2="389.9706"/><text fill="#111111" font-family="sans-serif" font-size="14" lengthAdjust="spacing" textLength="105.376" x="149.5367" y="381.6689">CrearComanda</text><text fill="#111111" font-family="sans-serif" font-size="14" lengthAdjust="spacing" textLength="191.5293" x="101.46" y="407.9657">Sistema crea una comanda</text><text fill="#111111" font-family="sans-serif" font-size="14" lengthAdjust="spacing" textLength="133.8271" x="101.46" y="424.2626">en estado ABIERTA</text></g><g class="entity" data-qualified-name="AbrirMesa.AsociarMesa" data-source-line="36" id="ent0005"><rect fill="#F5F5F5" height="68.8906" rx="12.5" ry="12.5" style="stroke:#777777;stroke-width:0.5;" width="211.6318" x="96.41" y="468.5638"/><line style="stroke:#777777;stroke-width:0.5;" x1="96.41" x2="308.0418" y1="494.8606" y2="494.8606"/><text fill="#111111" font-family="sans-serif" font-size="14" lengthAdjust="spacing" textLength="87.9238" x="158.264" y="486.5589">AsociarMesa</text><text fill="#111111" font-family="sans-serif" font-size="14" lengthAdjust="spacing" textLength="191.6318" x="101.41" y="512.8557">Sistema asocia la comanda</text><text fill="#111111" font-family="sans-serif" font-size="14" lengthAdjust="spacing" textLength="163.7002" x="101.41" y="529.1526">a la mesa seleccionada</text></g><g class="entity" data-qualified-name="AbrirMesa.ActualizarMesa" data-source-line="40" id="ent0006"><rect fill="#F5F5F5" height="68.8906" rx="12.5" ry="12.5" style="stroke:#777777;stroke-width:0.5;" width="203.2578" x="100.6" y="573.4538"/><line style="stroke:#777777;stroke-width:0.5;" x1="100.6" x2="303.8578" y1="599.7506" y2="599.7506"/><text fill="#111111" font-family="sans-serif" font-size="14" lengthAdjust="spacing" textLength="106.2441" x="149.1068" y="591.4489">ActualizarMesa</text><text fill="#111111" font-family="sans-serif" font-size="14" lengthAdjust="spacing" textLength="183.2578" x="105.6" y="617.7457">Sistema actualiza la mesa</text><text fill="#111111" font-family="sans-serif" font-size="14" lengthAdjust="spacing" textLength="134.3262" x="105.6" y="634.0426">a estado OCUPADA</text></g><g class="entity" data-qualified-name="AbrirMesa.Registrar" data-source-line="44" id="ent0007"><rect fill="#F5F5F5" height="85.1875" rx="12.5" ry="12.5" style="stroke:#777777;stroke-width:0.5;" width="217.0049" x="93.73" y="678.3438"/><line style="stroke:#777777;stroke-width:0.5;" x1="93.73" x2="310.7349" y1="704.6406" y2="704.6406"/><text fill="#111111" font-family="sans-serif" font-size="14" lengthAdjust="spacing" textLength="63.9912" x="170.2368" y="696.3389">Registrar</text><text fill="#111111" font-family="sans-serif" font-size="14" lengthAdjust="spacing" textLength="197.0049" x="98.73" y="722.6357">Sistema registra la apertura</text><text fill="#111111" font-family="sans-serif" font-size="14" lengthAdjust="spacing" textLength="164.5547" x="98.73" y="738.9326">en auditor&#237;a y actualiza</text><text fill="#111111" font-family="sans-serif" font-size="14" lengthAdjust="spacing" textLength="162.5039" x="98.73" y="755.2295">el plano en tiempo real</text></g><g class="start_entity" data-qualified-name="AbrirMesa..start.AbrirMesa" data-source-line="17" id="ent0010"><ellipse cx="202.23" cy="91.5938" fill="#222222" rx="10" ry="10" style="stroke:#222222;stroke-width:1;"/></g><g class="end_entity" data-qualified-name="AbrirMesa..end.AbrirMesa" data-source-line="46" id="ent0017"><ellipse cx="202.23" cy="810.5338" fill="none" rx="11" ry="11" style="stroke:#222222;stroke-width:1;"/><ellipse cx="202.23" cy="810.5338" fill="#222222" rx="6" ry="6" style="stroke:#222222;stroke-width:1;"/></g><g class="entity" data-qualified-name="AbrirMesa.GMN21" data-source-line="21" id="ent0022"><path d="M342.24,144.3438 L342.24,168.0438 L323.92,172.0438 L342.24,176.0438 L342.24,199.7422 A0,0 0 0 0 342.24,199.7422 L534.2205,199.7422 A0,0 0 0 0 534.2205,199.7422 L534.2205,154.3438 L524.2205,144.3438 L342.24,144.3438 A0,0 0 0 0 342.24,144.3438" fill="#FFF8D6" style="stroke:#C8B45D;stroke-width:0.5;"/><path d="M524.2205,144.3438 L524.2205,154.3438 L534.2205,154.3438 L524.2205,144.3438" fill="#FFF8D6" style="stroke:#C8B45D;stroke-width:0.5;"/><text fill="#000000" font-family="sans-serif" font-size="13" lengthAdjust="spacing" textLength="87.7183" x="348.24" y="161.4106">Precondici&#243;n:</text><text fill="#000000" font-family="sans-serif" font-size="13" lengthAdjust="spacing" textLength="170.9805" x="348.24" y="176.5435">Mesa LIBRE o RESERVADA</text><text fill="#000000" font-family="sans-serif" font-size="13" lengthAdjust="spacing" textLength="142.5176" x="348.24" y="191.6763">y sin comanda activa.</text></g><!--link *start*AbrirMesa to Solicitud--><g class="link" data-entity-1="ent0010" data-entity-2="ent0002" data-link-type="dependency" data-source-line="17" id="lnk11"><path d="M202.23,101.9038 C202.23,110.6738 202.23,119.3438 202.23,132.2238" fill="none" id="*start*AbrirMesa-to-Solicitud" style="stroke:#3F8F3F;stroke-width:1;"/><polygon fill="#3F8F3F" points="202.23,137.2238,206.23,128.2238,202.23,132.2238,198.23,128.2238,202.23,137.2238" style="stroke:#3F8F3F;stroke-width:1;stroke-linejoin:miter;stroke-miterlimit:10;"/></g><!--link Solicitud to Validacion--><g class="link" data-entity-1="ent0002" data-entity-2="ent0003" data-link-type="dependency" data-source-line="26" id="lnk12"><path d="M202.23,206.9638 C202.23,218.0538 202.23,225.5238 202.23,237.1338" fill="none" id="Solicitud-to-Validacion" style="stroke:#3F8F3F;stroke-width:1;"/><polygon fill="#3F8F3F" points="202.23,242.1338,206.23,233.1338,202.23,237.1338,198.23,233.1338,202.23,242.1338" style="stroke:#3F8F3F;stroke-width:1;stroke-linejoin:miter;stroke-miterlimit:10;"/></g><!--link Validacion to CrearComanda--><g class="link" data-entity-1="ent0003" data-entity-2="ent0004" data-link-type="dependency" data-source-line="30" id="lnk13"><path d="M202.23,328.0638 C202.23,339.7238 202.23,347.2438 202.23,358.3738" fill="none" id="Validacion-to-CrearComanda" style="stroke:#3F8F3F;stroke-width:1;"/><polygon fill="#3F8F3F" points="202.23,363.3738,206.23,354.3738,202.23,358.3738,198.23,354.3738,202.23,363.3738" style="stroke:#3F8F3F;stroke-width:1;stroke-linejoin:miter;stroke-miterlimit:10;"/></g><!--link CrearComanda to AsociarMesa--><g class="link" data-entity-1="ent0004" data-entity-2="ent0005" data-link-type="dependency" data-source-line="34" id="lnk14"><path d="M202.23,432.8138 C202.23,444.1838 202.23,451.8638 202.23,463.2438" fill="none" id="CrearComanda-to-AsociarMesa" style="stroke:#3F8F3F;stroke-width:1;"/><polygon fill="#3F8F3F" points="202.23,468.2438,206.23,459.2438,202.23,463.2438,198.23,459.2438,202.23,468.2438" style="stroke:#3F8F3F;stroke-width:1;stroke-linejoin:miter;stroke-miterlimit:10;"/></g><!--link AsociarMesa to ActualizarMesa--><g class="link" data-entity-1="ent0005" data-entity-2="ent0006" data-link-type="dependency" data-source-line="38" id="lnk15"><path d="M202.23,537.7038 C202.23,549.0738 202.23,556.7638 202.23,568.1338" fill="none" id="AsociarMesa-to-ActualizarMesa" style="stroke:#3F8F3F;stroke-width:1;"/><polygon fill="#3F8F3F" points="202.23,573.1338,206.23,564.1338,202.23,568.1338,198.23,564.1338,202.23,573.1338" style="stroke:#3F8F3F;stroke-width:1;stroke-linejoin:miter;stroke-miterlimit:10;"/></g><!--link ActualizarMesa to Registrar--><g class="link" data-entity-1="ent0006" data-entity-2="ent0007" data-link-type="dependency" data-source-line="42" id="lnk16"><path d="M202.23,642.8238 C202.23,653.9138 202.23,661.3738 202.23,672.9938" fill="none" id="ActualizarMesa-to-Registrar" style="stroke:#3F8F3F;stroke-width:1;"/><polygon fill="#3F8F3F" points="202.23,677.9938,206.23,668.9938,202.23,672.9938,198.23,668.9938,202.23,677.9938" style="stroke:#3F8F3F;stroke-width:1;stroke-linejoin:miter;stroke-miterlimit:10;"/></g><!--link Registrar to *end*AbrirMesa--><g class="link" data-entity-1="ent0007" data-entity-2="ent0017" data-link-type="dependency" data-source-line="46" id="lnk18"><path d="M202.23,763.9438 C202.23,777.1138 202.23,785.5038 202.23,794.3338" fill="none" id="Registrar-to-*end*AbrirMesa" style="stroke:#3F8F3F;stroke-width:1;"/><polygon fill="#3F8F3F" points="202.23,799.3338,206.23,790.3338,202.23,794.3338,198.23,790.3338,202.23,799.3338" style="stroke:#3F8F3F;stroke-width:1;stroke-linejoin:miter;stroke-miterlimit:10;"/></g></g><g class="entity" data-qualified-name="COMANDA_ABIERTA" data-source-line="52" id="ent0008"><rect fill="#F5F5F5" height="50" rx="12.5" ry="12.5" style="stroke:#777777;stroke-width:0.5;" width="160.2939" x="7" y="914.2369"/><line style="stroke:#777777;stroke-width:0.5;" x1="7" x2="167.2939" y1="940.5337" y2="940.5337"/><text fill="#111111" font-family="sans-serif" font-size="14" lengthAdjust="spacing" textLength="140.2939" x="17" y="932.232">COMANDA_ABIERTA</text></g><g class="entity" data-qualified-name="OPERACION_RECHAZADA" data-source-line="53" id="ent0009"><rect fill="#F5F5F5" height="50" rx="12.5" ry="12.5" style="stroke:#777777;stroke-width:0.5;" width="197.9873" x="431.15" y="914.2369"/><line style="stroke:#777777;stroke-width:0.5;" x1="431.15" x2="629.1373" y1="940.5337" y2="940.5337"/><text fill="#111111" font-family="sans-serif" font-size="14" lengthAdjust="spacing" textLength="177.9873" x="441.15" y="932.232">OPERACION_RECHAZADA</text></g><g class="entity" data-qualified-name="GMN24" data-source-line="56" id="ent0025"><path d="M202.37,911.5369 L202.37,935.2369 L167.48,939.2369 L202.37,943.2369 L202.37,966.9353 A0,0 0 0 0 202.37,966.9353 L395.9183,966.9353 A0,0 0 0 0 395.9183,966.9353 L395.9183,921.5369 L385.9183,911.5369 L202.37,911.5369 A0,0 0 0 0 202.37,911.5369" fill="#FFF8D6" style="stroke:#C8B45D;stroke-width:0.5;"/><path d="M385.9183,911.5369 L385.9183,921.5369 L395.9183,921.5369 L385.9183,911.5369" fill="#FFF8D6" style="stroke:#C8B45D;stroke-width:0.5;"/><text fill="#000000" font-family="sans-serif" font-size="13" lengthAdjust="spacing" textLength="94.1992" x="208.37" y="928.6038">Postcondici&#243;n:</text><text fill="#000000" font-family="sans-serif" font-size="13" lengthAdjust="spacing" textLength="172.5483" x="208.37" y="943.7366">Mesa ocupada y vinculada</text><text fill="#000000" font-family="sans-serif" font-size="13" lengthAdjust="spacing" textLength="148.6113" x="208.37" y="958.8694">a una comanda activa.</text></g><g class="entity" data-qualified-name="GMN27" data-source-line="62" id="ent0028"><path d="M664.6,911.5369 L664.6,935.2369 L629.55,939.2369 L664.6,943.2369 L664.6,966.9353 A0,0 0 0 0 664.6,966.9353 L913.6903,966.9353 A0,0 0 0 0 913.6903,966.9353 L913.6903,921.5369 L903.6903,911.5369 L664.6,911.5369 A0,0 0 0 0 664.6,911.5369" fill="#FFF8D6" style="stroke:#C8B45D;stroke-width:0.5;"/><path d="M903.6903,911.5369 L903.6903,921.5369 L913.6903,921.5369 L903.6903,911.5369" fill="#FFF8D6" style="stroke:#C8B45D;stroke-width:0.5;"/><text fill="#000000" font-family="sans-serif" font-size="13" lengthAdjust="spacing" textLength="228.0903" x="670.6" y="928.6038">La operaci&#243;n se rechaza si la mesa</text><text fill="#000000" font-family="sans-serif" font-size="13" lengthAdjust="spacing" textLength="186.6084" x="670.6" y="943.7366">no existe, no est&#225; disponible</text><text fill="#000000" font-family="sans-serif" font-size="13" lengthAdjust="spacing" textLength="176.8901" x="670.6" y="958.8694">o ya tiene comanda activa.</text></g><!--link AbrirMesa to COMANDA_ABIERTA--><g class="link" data-entity-1="ent0001" data-entity-2="ent0008" data-link-type="dependency" data-source-line="49" id="lnk19"><path d="M133.07,834.7869 C118.47,867.6769 108.2193,890.7872 100.0393,909.2072" fill="none" id="AbrirMesa-to-COMANDA_ABIERTA" style="stroke:#3F8F3F;stroke-width:1;"/><polygon fill="#3F8F3F" points="98.01,913.7769,105.3185,907.1749,100.0393,909.2072,98.007,903.928,98.01,913.7769" style="stroke:#3F8F3F;stroke-width:1;stroke-linejoin:miter;stroke-miterlimit:10;"/><text fill="#000000" font-family="sans-serif" font-size="13" lengthAdjust="spacing" textLength="122.2813" x="121.15" y="877.6038">aperturaCorrecta()</text></g><!--link AbrirMesa to OPERACION_RECHAZADA--><g class="link" data-entity-1="ent0001" data-entity-2="ent0009" data-link-type="dependency" data-source-line="50" id="lnk20"><path d="M484.01,834.7869 C498.68,867.6769 508.9824,890.7909 517.2024,909.2109" fill="none" id="AbrirMesa-to-OPERACION_RECHAZADA" style="stroke:#3F8F3F;stroke-width:1;"/><polygon fill="#3F8F3F" points="519.24,913.7769,519.2251,903.928,517.2024,909.2109,511.9195,907.1882,519.24,913.7769" style="stroke:#3F8F3F;stroke-width:1;stroke-linejoin:miter;stroke-miterlimit:10;"/><text fill="#000000" font-family="sans-serif" font-size="13" lengthAdjust="spacing" textLength="137.7441" x="503.15" y="877.6038">aperturaRechazada()</text></g><?plantuml-src TLJDJjj04BxxAKPmQIjIjG9QnA6IuzXg923850uj5PgibsJ5UZTThnEWwiFqs4DFVGHUhBCR9rcRu2YIPsRt-xxvinLMSaWkU-yEe0Vns0W39QymYgexeMPei8HgYeLU23M1MvGL3o9ZP7SJesjL95fg0ukfi64yDaOlbg7T_Umesyz2M8kMmyy8eD-1sSqEtSz5j2cuQRmV_KFUJ2lR-Dxx9_eLu2hz8coM7Gq-T66Je_x1uO0WegMY7NHLEAKYl7gz0rWjg-9iZ_hjpNVezJx1XPQ22LiN4JdN1Xn3Ae5XYOOR3HgmA8KIbJLKGtEjAYuvOq8hX9h-hjHGY6gcbHXBJaXUlH6JgGLz6v00FUU6CwqAyZpzKyVUvMMT3FjvIbnvUf7cL_4Wzg47g8G2fajK1G8oA-RubY9S5PwbhTkbT8LI5EZKkTZ6egGkA0LU8ioz4txK76GZdzzJ3FUk5Q_iqvyW6rAWD5Yk9dYjsZew-8uyCHof9VwK2uTs882HsvUk0IHQ1SHCvOMuFqppB_6psmu-hZGJwDleue4PWAFtkipMwBZESzEwuXc4Ps2sffGU0vAM9-HP1LRWZgT9OfHSdhiMFh_lI78-ySDaN7nj1D2cyJbad75ZQxEi4TQ5iDey_KNgore0XIJC95AZw8mLl9nfma3PndVKDFXkIJRRuBisEetF1l5DKteIiY9DjA5njRH4dIkZypIFa-7ex2PFay_nLqesk9PpDiL7AZ7TMoraXyGlPSUtEhe5t1_Vue-Yzgvr4MdVT6NR2-UJqAoUaK0gurmeLait3m2jgLolssRPscJRz02S43ZL0JqV3HnrmbU3DdarAVuJiTmvlkTVQUj-jxyX6XxGzLBn5_Ny1m00?></g></svg>