<svg xmlns="http://www.w3.org/2000/svg" xmlns:xlink="http://www.w3.org/1999/xlink" contentStyleType="text/css" data-diagram-type="STATE" height="1190px" preserveAspectRatio="none" style="width:1048px;height:1190px;background:#FFFFFF;" version="1.1" viewBox="0 0 1048 1190" width="1048px" zoomAndPan="magnify"><?plantuml 1.2026.7beta1?><defs/><g><g class="title" data-source-line="8"><text fill="#000000" font-family="sans-serif" font-size="14" font-weight="700" lengthAdjust="spacing" textLength="469.2734" x="286.3581" y="22.9951">Diagrama de Contexto Global - Casos de Uso Seleccionados</text></g><g class="entity" data-qualified-name="MesaDisponible" data-source-line="13" id="ent0001"><rect fill="#FFFFFF" height="50" rx="12.5" ry="12.5" style="stroke:#333333;stroke-width:0.5;" width="147.9482" x="581.63" y="124.2969"/><line style="stroke:#333333;stroke-width:0.5;" x1="581.63" x2="729.5782" y1="150.5938" y2="150.5938"/><text fill="#000000" font-family="sans-serif" font-size="14" lengthAdjust="spacing" textLength="127.9482" x="591.63" y="142.292">MESA DISPONIBLE</text></g><g class="entity" data-qualified-name="MesaOcupadaComandaAbierta" data-source-line="14" id="ent0002"><rect fill="#FFFFFF" height="52.5938" rx="12.5" ry="12.5" style="stroke:#333333;stroke-width:0.5;" width="157.7441" x="406.73" y="266.2969"/><line style="stroke:#333333;stroke-width:0.5;" x1="406.73" x2="564.4741" y1="308.8906" y2="308.8906"/><text fill="#000000" font-family="sans-serif" font-size="14" lengthAdjust="spacing" textLength="113.2578" x="416.73" y="284.292">MESA OCUPADA</text><text fill="#000000" font-family="sans-serif" font-size="14" lengthAdjust="spacing" textLength="137.7441" x="416.73" y="300.5889">COMANDA ABIERTA</text></g><g class="entity" data-qualified-name="ComandaRegistrada" data-source-line="15" id="ent0003"><rect fill="#FFFFFF" height="50" rx="12.5" ry="12.5" style="stroke:#333333;stroke-width:0.5;" width="188.3828" x="391.41" y="410.8869"/><line style="stroke:#333333;stroke-width:0.5;" x1="391.41" x2="579.7928" y1="437.1837" y2="437.1837"/><text fill="#000000" font-family="sans-serif" font-size="14" lengthAdjust="spacing" textLength="168.3828" x="401.41" y="428.882">COMANDA REGISTRADA</text></g><g class="entity" data-qualified-name="PlatosEnCocina" data-source-line="16" id="ent0004"><rect fill="#FFFFFF" height="50" rx="12.5" ry="12.5" style="stroke:#333333;stroke-width:0.5;" width="157.2451" x="198.98" y="552.8869"/><line style="stroke:#333333;stroke-width:0.5;" x1="198.98" x2="356.2251" y1="579.1837" y2="579.1837"/><text fill="#000000" font-family="sans-serif" font-size="14" lengthAdjust="spacing" textLength="137.2451" x="208.98" y="570.882">PLATOS EN COCINA</text></g><g class="entity" data-qualified-name="PlatosListosParaServir" data-source-line="17" id="ent0005"><rect fill="#FFFFFF" height="52.5938" rx="12.5" ry="12.5" style="stroke:#333333;stroke-width:0.5;" width="128.001" x="49.6" y="694.8869"/><line style="stroke:#333333;stroke-width:0.5;" x1="49.6" x2="177.601" y1="737.4806" y2="737.4806"/><text fill="#000000" font-family="sans-serif" font-size="14" lengthAdjust="spacing" textLength="108.001" x="59.6" y="712.882">PLATOS LISTOS</text><text fill="#000000" font-family="sans-serif" font-size="14" lengthAdjust="spacing" textLength="92.668" x="59.6" y="729.1789">PARA SERVIR</text></g><g class="entity" data-qualified-name="TicketEnCaja" data-source-line="18" id="ent0006"><rect fill="#FFFFFF" height="50" rx="12.5" ry="12.5" style="stroke:#333333;stroke-width:0.5;" width="130.3115" x="48.45" y="839.4869"/><line style="stroke:#333333;stroke-width:0.5;" x1="48.45" x2="178.7615" y1="865.7838" y2="865.7838"/><text fill="#000000" font-family="sans-serif" font-size="14" lengthAdjust="spacing" textLength="110.3115" x="58.45" y="857.482">TICKET EN CAJA</text></g><g class="entity" data-qualified-name="TicketCobrado" data-source-line="19" id="ent0007"><rect fill="#FFFFFF" height="50" rx="12.5" ry="12.5" style="stroke:#333333;stroke-width:0.5;" width="144.9883" x="55.11" y="981.4869"/><line style="stroke:#333333;stroke-width:0.5;" x1="55.11" x2="200.0983" y1="1007.7837" y2="1007.7837"/><text fill="#000000" font-family="sans-serif" font-size="14" lengthAdjust="spacing" textLength="124.9883" x="65.11" y="999.482">TICKET COBRADO</text></g><g class="entity" data-qualified-name="ComandaActualizada" data-source-line="20" id="ent0008"><rect fill="#FFFFFF" height="50" rx="12.5" ry="12.5" style="stroke:#333333;stroke-width:0.5;" width="196.9141" x="345.15" y="981.4869"/><line style="stroke:#333333;stroke-width:0.5;" x1="345.15" x2="542.0641" y1="1007.7837" y2="1007.7837"/><text fill="#000000" font-family="sans-serif" font-size="14" lengthAdjust="spacing" textLength="176.9141" x="355.15" y="999.482">COMANDA ACTUALIZADA</text></g><g class="entity" data-qualified-name="ServicioCerradoMesaLiberada" data-source-line="21" id="ent0009"><rect fill="#FFFFFF" height="52.5938" rx="12.5" ry="12.5" style="stroke:#333333;stroke-width:0.5;" width="159.9932" x="507.61" y="1123.4869"/><line style="stroke:#333333;stroke-width:0.5;" x1="507.61" x2="667.6032" y1="1166.0806" y2="1166.0806"/><text fill="#000000" font-family="sans-serif" font-size="14" lengthAdjust="spacing" textLength="139.9932" x="517.61" y="1141.482">SERVICIO CERRADO</text><text fill="#000000" font-family="sans-serif" font-size="14" lengthAdjust="spacing" textLength="113.8799" x="517.61" y="1157.7789">MESA LIBERADA</text></g><g class="start_entity" data-qualified-name=".start." data-source-line="27" id="ent0010"><ellipse cx="655.6" cy="53.2969" fill="#222222" rx="10" ry="10" style="stroke:#222222;stroke-width:1;"/></g><!--link *start* to MesaDisponible--><g class="link" data-entity-1="ent0010" data-entity-2="ent0001" data-link-type="dependency" data-source-line="27" id="lnk11"><path d="M655.6,63.6569 C655.6,77.5869 655.6,99.2469 655.6,118.9469" fill="none" id="*start*-to-MesaDisponible" style="stroke:#333333;stroke-width:1;"/><polygon fill="#333333" points="655.6,123.9469,659.6,114.9469,655.6,118.9469,651.6,114.9469,655.6,123.9469" style="stroke:#333333;stroke-width:1;stroke-linejoin:miter;stroke-miterlimit:10;"/></g><!--link MesaDisponible to MesaOcupadaComandaAbierta--><g class="link" data-entity-1="ent0001" data-entity-2="ent0002" data-link-type="dependency" data-source-line="29" id="lnk12"><path d="M581.38,158.1469 C522.97,166.0369 448.38,180.5069 429.6,204.2969 C414.1,223.9469 428.2504,244.6124 447.8004,262.4924" fill="none" id="MesaDisponible-to-MesaOcupadaComandaAbierta" style="stroke:#333333;stroke-width:1;"/><polygon fill="#333333" points="451.49,265.8669,447.5483,256.8412,447.8004,262.4924,442.1492,262.7446,451.49,265.8669" style="stroke:#333333;stroke-width:1;stroke-linejoin:miter;stroke-miterlimit:10;"/><text fill="#000000" font-family="sans-serif" font-size="13" lengthAdjust="spacing" textLength="114.937" x="430.6" y="217.3638">CU-04 Abrir mesa</text><text fill="#000000" font-family="sans-serif" font-size="13" lengthAdjust="spacing" textLength="102.7813" x="436.6779" y="232.4966">abrirComanda()</text></g><!--link MesaOcupadaComandaAbierta to MesaDisponible--><g class="link" data-entity-1="ent0002" data-entity-2="ent0001" data-link-type="dependency" data-source-line="31" id="lnk13"><path d="M515.63,265.7969 C526.38,256.5269 538.56,245.9769 549.6,236.2969 C565.7,222.1869 569.12,217.9569 585.6,204.2969 C597.66,194.3069 607.2485,186.7445 619.1985,177.6045" fill="none" id="MesaOcupadaComandaAbierta-to-MesaDisponible" style="stroke:#333333;stroke-width:1;"/><polygon fill="#333333" points="623.17,174.5669,613.5912,176.8574,619.1985,177.6045,618.4514,183.2118,623.17,174.5669" style="stroke:#333333;stroke-width:1;stroke-linejoin:miter;stroke-miterlimit:10;"/><text fill="#000000" font-family="sans-serif" font-size="13" lengthAdjust="spacing" textLength="109.6875" x="586.6" y="217.3638">cancelar servicio</text><text fill="#000000" font-family="sans-serif" font-size="13" lengthAdjust="spacing" textLength="81.7261" x="600.5807" y="232.4966">sin consumo</text></g><!--link MesaOcupadaComandaAbierta to ComandaRegistrada--><g class="link" data-entity-1="ent0002" data-entity-2="ent0003" data-link-type="dependency" data-source-line="33" id="lnk14"><path d="M485.6,319.1769 C485.6,345.1069 485.6,379.9269 485.6,405.4369" fill="none" id="MesaOcupadaComandaAbierta-to-ComandaRegistrada" style="stroke:#333333;stroke-width:1;"/><polygon fill="#333333" points="485.6,410.4369,489.6,401.4369,485.6,405.4369,481.6,401.4369,485.6,410.4369" style="stroke:#333333;stroke-width:1;stroke-linejoin:miter;stroke-miterlimit:10;"/><text fill="#000000" font-family="sans-serif" font-size="13" lengthAdjust="spacing" textLength="150.1475" x="490.7482" y="361.9538">CU-06 Tomar comanda</text><text fill="#000000" font-family="sans-serif" font-size="13" lengthAdjust="spacing" textLength="158.4438" x="486.6" y="377.0866">agregarLineaComanda()</text></g><!--link ComandaRegistrada to MesaDisponible--><g class="link" data-entity-1="ent0003" data-entity-2="ent0001" data-link-type="dependency" data-source-line="35" id="lnk15"><path d="M579.97,421.1669 C606.63,413.2169 633.75,400.6769 653.6,380.8869 C688.78,345.8269 722.12,263.7369 700.6,204.2969 C696.66,193.3969 692.7331,186.9092 685.2231,178.3292" fill="none" id="ComandaRegistrada-to-MesaDisponible" style="stroke:#333333;stroke-width:1;"/><polygon fill="#333333" points="681.93,174.5669,684.8478,183.9736,685.2231,178.3292,690.8675,178.7046,681.93,174.5669" style="stroke:#333333;stroke-width:1;stroke-linejoin:miter;stroke-miterlimit:10;"/><text fill="#000000" font-family="sans-serif" font-size="13" lengthAdjust="spacing" textLength="119.7422" x="707.6" y="289.6638">cancelar comanda</text><text fill="#000000" font-family="sans-serif" font-size="13" lengthAdjust="spacing" textLength="65.8252" x="734.5585" y="304.7966">incidencia</text></g><!--link ComandaRegistrada to ComandaRegistrada--><g class="link" data-entity-1="ent0003" data-entity-2="ent0003" data-link-type="dependency" data-source-line="37" id="lnk16"><path d="M580.24,423.0069 C600.31,424.3169 614.8,428.6069 614.8,435.8869 C614.8,443.1669 605.2994,447.1412 585.2294,448.4512" fill="none" id="ComandaRegistrada-to-ComandaRegistrada" style="stroke:#333333;stroke-width:1;"/><polygon fill="#333333" points="580.24,448.7769,589.4814,452.1822,585.2294,448.4512,588.9604,444.1992,580.24,448.7769" style="stroke:#333333;stroke-width:1;stroke-linejoin:miter;stroke-miterlimit:10;"/><text fill="#000000" font-family="sans-serif" font-size="13" lengthAdjust="spacing" textLength="127.5308" x="620.8" y="432.9538">solicitarPaseMenu()</text><text fill="#000000" font-family="sans-serif" font-size="13" lengthAdjust="spacing" textLength="123.3159" x="622.9074" y="448.0866">segundos / postres</text></g><!--link ComandaRegistrada to PlatosEnCocina--><g class="link" data-entity-1="ent0003" data-entity-2="ent0004" data-link-type="dependency" data-source-line="39" id="lnk17"><path d="M390.95,449.6069 C341.99,458.3269 289.41,471.8069 274.6,490.8869 C261.23,508.1169 262.8229,528.8301 267.7429,547.6101" fill="none" id="ComandaRegistrada-to-PlatosEnCocina" style="stroke:#333333;stroke-width:1;"/><polygon fill="#333333" points="269.01,552.4469,270.5986,542.727,267.7429,547.6101,262.8597,544.7544,269.01,552.4469" style="stroke:#333333;stroke-width:1;stroke-linejoin:miter;stroke-miterlimit:10;"/><text fill="#000000" font-family="sans-serif" font-size="13" lengthAdjust="spacing" textLength="141.4829" x="275.6" y="503.9538">enviar l&#237;neas a cocina</text><text fill="#000000" font-family="sans-serif" font-size="13" lengthAdjust="spacing" textLength="108.2593" x="292.2118" y="519.0866">kdsActualizado()</text></g><!--link PlatosEnCocina to PlatosListosParaServir--><g class="link" data-entity-1="ent0004" data-entity-2="ent0005" data-link-type="dependency" data-source-line="41" id="lnk18"><path d="M198.51,586.0469 C136.25,593.5169 56.74,607.7469 36.6,632.8869 C19.49,654.2669 37.9312,674.6468 62.9812,691.7568" fill="none" id="PlatosEnCocina-to-PlatosListosParaServir" style="stroke:#333333;stroke-width:1;"/><polygon fill="#333333" points="67.11,694.5769,61.9342,686.1976,62.9812,691.7568,57.4221,692.8037,67.11,694.5769" style="stroke:#333333;stroke-width:1;stroke-linejoin:miter;stroke-miterlimit:10;"/><text fill="#000000" font-family="sans-serif" font-size="13" lengthAdjust="spacing" textLength="196.9868" x="37.6" y="645.9538">CU-12 Marcar plato como listo</text><text fill="#000000" font-family="sans-serif" font-size="13" lengthAdjust="spacing" textLength="165.9595" x="53.1137" y="661.0866">cambiarEstadoLineaKds()</text></g><!--link PlatosListosParaServir to PlatosEnCocina--><g class="link" data-entity-1="ent0005" data-entity-2="ent0004" data-link-type="dependency" data-source-line="43" id="lnk19"><path d="M177.83,702.0869 C199.21,693.5569 221.83,681.5069 238.6,664.8869 C255.72,647.9269 264.603,626.8759 270.283,607.9459" fill="none" id="PlatosListosParaServir-to-PlatosEnCocina" style="stroke:#333333;stroke-width:1;"/><polygon fill="#333333" points="271.72,603.1569,265.3022,610.6276,270.283,607.9459,272.9647,612.9268,271.72,603.1569" style="stroke:#333333;stroke-width:1;stroke-linejoin:miter;stroke-miterlimit:10;"/><text fill="#000000" font-family="sans-serif" font-size="13" lengthAdjust="spacing" textLength="141.356" x="261.6" y="645.9538">nuevo pase solicitado</text><text fill="#000000" font-family="sans-serif" font-size="13" lengthAdjust="spacing" textLength="94.6943" x="284.9308" y="661.0866">actualizar KDS</text></g><!--link PlatosListosParaServir to TicketEnCaja--><g class="link" data-entity-1="ent0005" data-entity-2="ent0006" data-link-type="dependency" data-source-line="45" id="lnk20"><path d="M113.6,747.7769 C113.6,773.6969 113.6,808.5169 113.6,834.0269" fill="none" id="PlatosListosParaServir-to-TicketEnCaja" style="stroke:#333333;stroke-width:1;"/><polygon fill="#333333" points="113.6,839.0269,117.6,830.0269,113.6,834.0269,109.6,830.0269,113.6,839.0269" style="stroke:#333333;stroke-width:1;stroke-linejoin:miter;stroke-miterlimit:10;"/><text fill="#000000" font-family="sans-serif" font-size="13" lengthAdjust="spacing" textLength="168.562" x="114.6" y="790.5538">CU-14 Enviar ticket a caja</text><text fill="#000000" font-family="sans-serif" font-size="13" lengthAdjust="spacing" textLength="100.6104" x="148.5758" y="805.6866">generarTicket()</text></g><!--link TicketEnCaja to TicketCobrado--><g class="link" data-entity-1="ent0006" data-entity-2="ent0007" data-link-type="dependency" data-source-line="47" id="lnk21"><path d="M48,887.8869 C34.33,895.6969 21.64,906.0069 13.6,919.4869 C6.32,931.6969 6,939.4669 13.6,951.4869 C23.27,966.7469 34.0471,975.5929 50.3071,983.5329" fill="none" id="TicketEnCaja-to-TicketCobrado" style="stroke:#333333;stroke-width:1;"/><polygon fill="#333333" points="54.8,985.7269,48.4679,978.1834,50.3071,983.5329,44.9575,985.3721,54.8,985.7269" style="stroke:#333333;stroke-width:1;stroke-linejoin:miter;stroke-miterlimit:10;"/><text fill="#000000" font-family="sans-serif" font-size="13" lengthAdjust="spacing" textLength="128.5083" x="14.6" y="932.5538">CU-17 Cobrar ticket</text><text fill="#000000" font-family="sans-serif" font-size="13" lengthAdjust="spacing" textLength="91.4761" x="33.1161" y="947.6866">cobrarTicket()</text></g><!--link TicketEnCaja to ComandaActualizada--><g class="link" data-entity-1="ent0006" data-entity-2="ent0008" data-link-type="dependency" data-source-line="49" id="lnk22"><path d="M126.98,889.7869 C139.14,909.5369 158.93,936.4869 183.6,951.4869 C231.96,980.8769 288.7565,993.8938 339.9465,1000.1138" fill="none" id="TicketEnCaja-to-ComandaActualizada" style="stroke:#333333;stroke-width:1;"/><polygon fill="#333333" points="344.91,1000.7169,336.4582,995.6605,339.9465,1000.1138,335.4932,1003.6021,344.91,1000.7169" style="stroke:#333333;stroke-width:1;stroke-linejoin:miter;stroke-miterlimit:10;"/><text fill="#000000" font-family="sans-serif" font-size="13" lengthAdjust="spacing" textLength="107.5103" x="246.934" y="932.5538">reclamarTicket()</text><text fill="#000000" font-family="sans-serif" font-size="13" lengthAdjust="spacing" textLength="232.1782" x="184.6" y="947.6866">modificar comanda antes de cobrar</text></g><!--link ComandaRegistrada to ComandaActualizada--><g class="link" data-entity-1="ent0003" data-entity-2="ent0008" data-link-type="dependency" data-source-line="51" id="lnk23"><path d="M473.68,461.0169 C461.26,488.4069 443.6,534.7669 443.6,576.8869 C443.6,576.8869 443.6,576.8869 443.6,865.4869 C443.6,906.0769 443.6,948.2869 443.6,976.2069" fill="none" id="ComandaRegistrada-to-ComandaActualizada" style="stroke:#333333;stroke-width:1;"/><polygon fill="#333333" points="443.6,981.2069,447.6,972.2069,443.6,976.2069,439.6,972.2069,443.6,981.2069" style="stroke:#333333;stroke-width:1;stroke-linejoin:miter;stroke-miterlimit:10;"/><text fill="#000000" font-family="sans-serif" font-size="13" lengthAdjust="spacing" textLength="146.7642" x="482.34" y="718.2538">CU-08 Editar comanda</text><text fill="#000000" font-family="sans-serif" font-size="13" lengthAdjust="spacing" textLength="222.2441" x="444.6" y="733.3866">actualizarLinea() / cancelarLinea()</text></g><!--link ComandaActualizada to ComandaRegistrada--><g class="link" data-entity-1="ent0008" data-entity-2="ent0003" data-link-type="dependency" data-source-line="53" id="lnk24"><path d="M542.32,998.5769 C627.73,986.5769 737.6,953.9569 737.6,865.4869 C737.6,576.8869 737.6,576.8869 737.6,576.8869 C737.6,502.0669 656.5346,467.9995 585.0346,451.6795" fill="none" id="ComandaActualizada-to-ComandaRegistrada" style="stroke:#333333;stroke-width:1;"/><polygon fill="#333333" points="580.16,450.5669,588.0442,456.4693,585.0346,451.6795,589.8244,448.6699,580.16,450.5669" style="stroke:#333333;stroke-width:1;stroke-linejoin:miter;stroke-miterlimit:10;"/><text fill="#000000" font-family="sans-serif" font-size="13" lengthAdjust="spacing" textLength="109.8652" x="756.621" y="718.2538">guardar cambios</text><text fill="#000000" font-family="sans-serif" font-size="13" lengthAdjust="spacing" textLength="145.9072" x="738.6" y="733.3866">comandaActualizada()</text></g><!--link TicketCobrado to ServicioCerradoMesaLiberada--><g class="link" data-entity-1="ent0007" data-entity-2="ent0009" data-link-type="dependency" data-source-line="55" id="lnk25"><path d="M200.49,1029.8769 C284.09,1055.5469 415.9603,1096.0591 502.5503,1122.6491" fill="none" id="TicketCobrado-to-ServicioCerradoMesaLiberada" style="stroke:#333333;stroke-width:1;"/><polygon fill="#333333" points="507.33,1124.1169,499.9007,1117.6511,502.5503,1122.6491,497.5523,1125.2987,507.33,1124.1169" style="stroke:#333333;stroke-width:1;stroke-linejoin:miter;stroke-miterlimit:10;"/><text fill="#000000" font-family="sans-serif" font-size="13" lengthAdjust="spacing" textLength="124.5664" x="400.6" y="1074.5538">CU-05 Cerrar mesa</text><text fill="#000000" font-family="sans-serif" font-size="13" lengthAdjust="spacing" textLength="83.2432" x="421.2616" y="1089.6866">cerrarMesa()</text></g><!--link ServicioCerradoMesaLiberada to MesaDisponible--><g class="link" data-entity-1="ent0009" data-entity-2="ent0001" data-link-type="dependency" data-source-line="57" id="lnk26"><path d="M667.9,1133.0969 C771.23,1110.5669 937.6,1065.3169 937.6,1007.4869 C937.6,291.5969 937.6,291.5969 937.6,291.5969 C937.6,198.6369 818.5681,167.4726 735.0281,156.5926" fill="none" id="ServicioCerradoMesaLiberada-to-MesaDisponible" style="stroke:#333333;stroke-width:1;"/><polygon fill="#333333" points="730.07,155.9469,738.478,161.0757,735.0281,156.5926,739.5112,153.1427,730.07,155.9469" style="stroke:#333333;stroke-width:1;stroke-linejoin:miter;stroke-miterlimit:10;"/><text fill="#000000" font-family="sans-serif" font-size="13" lengthAdjust="spacing" textLength="68.3516" x="951.619" y="645.9538">mesa libre</text><text fill="#000000" font-family="sans-serif" font-size="13" lengthAdjust="spacing" textLength="94.3896" x="938.6" y="661.0866">nuevo servicio</text></g><?plantuml-src xLRRZjis47tNLmpIX-uMs3IxpQKeaA8qhGsKbIt3aWiqLHz64gEoAvC6AM-A5lcAV4KV-XNxOntguliwtSSMveDXSMREd3aQScHlfLgWmJdO6ci1Vtf0Qu3vRMdqKXLSLzh05zVDQctQ5C9q-zyqgzbdnkWFsziVFRk6_nKB_K6g4jvZPONdrRAk10mbbcH6A0HmhMhnUwtXJQKphE02E5fjdMbcDSIY4dakjI8WwtbVmkj_lSXvw5y7uu07zv_6z1_yE673A7uSIYlHav4VCnW6yIGQ1uFGVm9eOIGi3gLTQ2MpIcnvHdmsOKEMAXwDs7Z8W0q2VvgmLLoKBnTO8DTpL0MoJ0fJOm_H1qtzDq6SJ0ceYUkSfwAKjZOKtVjFGfP4CVXZu14FngttfC9QMrzndKkrwneIRXIdQiAc369_-cCmtGWA2L_R2Rt3M9WxQVhW9E0tVjBaOM_RB8dCRqLDMV0tt77ZqO2eHnjkN6T4M--MoNWoOs7mRgTEbjTBhEGV6uKsJ7aG0VUd3ZjLZTfXCF1NAZMKgMMuC2wP4pkKcMZqUcm3aVRZs2KS-p7y1DVXx2s9TvOO95OQP77_bwfbhiyV1-pz_DKlS77n_Mu7UTlFAvU3pGBV0PzTF7iEB3FIm9pyKeNkV-TtTju27exUJq-0EQfSL6Z0TYAcoae5kLPsETUVWzlhpuxYIqZ8OWYciHFBqeWIJIYLm0so-_77IQxmfCfb8UW77m8vHCtgYagiqKpGYf5GoxDpAbUKT0FI1VGrB3Iv2liGvFRv8ZoXxYIngkx_fh8i8F5pbbJT5dRTozfLkXExXjizUQs2brSmGfCJ-C9vkS8rLCurLJdECqhhqmafTAFeJM7NEVO03r9NIt6dOK4wh5Gf21jxrWPkXl5HoCrxe2Fz7FnMaRgnEK78cAfIA3gDfermJBTYrs3TRT6XlOBckKUZmfl78oZxrmX16P5ND7fMSQcQwqA-b_cwdm1f93KJg4tncPxQndVz_YtuXUkhZOPV2TcyeRDpQg--ZRkTLPPDl8TQjroYALm2z_ArTMBingubwNLqO4Sknuxy2sXi_OMIDm_Epm4U2pzuLXq8TMfcHAhQ9kjl5i_xGQXYEVSslnV-OvyZfs-3_zEtmMagdwRoQIgVfl9fAhkfVFdqwjdLowUlCb7ZvJy0?></g></svg>