<svg xmlns="http://www.w3.org/2000/svg" xmlns:xlink="http://www.w3.org/1999/xlink" contentStyleType="text/css" data-diagram-type="STATE" height="1029px" preserveAspectRatio="none" style="width:988px;height:1029px;background:#FFFFFF;" version="1.1" viewBox="0 0 988 1029" width="988px" zoomAndPan="magnify"><?plantuml 1.2026.7beta1?><defs/><g><g class="title" data-source-line="1"><text fill="#000000" font-family="sans-serif" font-size="14" font-weight="700" lengthAdjust="spacing" textLength="186.1836" x="397.7567" y="22.9951">CU-08 - Editar comanda</text></g><g class="entity" data-qualified-name="EditarComanda" data-source-line="16" id="ent0001"><path d="M89.93,44.2969 L615.5415,44.2969 A12.5,12.5 0 0 1 628.0415,56.7969 L628.0415,70.5938 L77.43,70.5938 L77.43,56.7969 A12.5,12.5 0 0 1 89.93,44.2969" fill="#F5F5F5"/><path d="M77.43,70.5938 L628.0415,70.5938 L628.0415,854.6238 A12.5,12.5 0 0 1 615.5415,867.1238 L89.93,867.1238 A12.5,12.5 0 0 1 77.43,854.6238 L77.43,70.5938" fill="#F5F5F5"/><rect fill="none" height="822.8269" rx="12.5" ry="12.5" style="stroke:#777777;stroke-width:0.5;" width="550.6115" x="77.43" y="44.2969"/><line style="stroke:#777777;stroke-width:0.5;" x1="77.43" x2="628.0415" y1="70.5938" y2="70.5938"/><text fill="#111111" font-family="sans-serif" font-size="14" lengthAdjust="spacing" textLength="119.0342" x="293.2187" y="62.292">editarComanda()</text><g class="entity" data-qualified-name="EditarComanda.AccederComanda" data-source-line="19" id="ent0002"><rect fill="#F5F5F5" height="85.1875" rx="12.5" ry="12.5" style="stroke:#777777;stroke-width:0.5;" width="219.917" x="116.42" y="137.5938"/><line style="stroke:#777777;stroke-width:0.5;" x1="116.42" x2="336.337" y1="163.8906" y2="163.8906"/><text fill="#111111" font-family="sans-serif" font-size="14" lengthAdjust="spacing" textLength="123.7373" x="164.5098" y="155.5889">AccederComanda</text><text fill="#111111" font-family="sans-serif" font-size="14" lengthAdjust="spacing" textLength="199.917" x="121.42" y="181.8857">El camarero o administrador</text><text fill="#111111" font-family="sans-serif" font-size="14" lengthAdjust="spacing" textLength="196.2734" x="121.42" y="198.1826">accede a la comanda activa</text><text fill="#111111" font-family="sans-serif" font-size="14" lengthAdjust="spacing" textLength="90.8496" x="121.42" y="214.4795">de una mesa</text></g><g class="entity" data-qualified-name="EditarComanda.ModificarLineas" data-source-line="28" id="ent0003"><rect fill="#F5F5F5" height="85.1875" rx="12.5" ry="12.5" style="stroke:#777777;stroke-width:0.5;" width="273.9004" x="89.43" y="258.7837"/><line style="stroke:#777777;stroke-width:0.5;" x1="89.43" x2="363.3304" y1="285.0806" y2="285.0806"/><text fill="#111111" font-family="sans-serif" font-size="14" lengthAdjust="spacing" textLength="109.3203" x="171.72" y="276.7789">ModificarLineas</text><text fill="#111111" font-family="sans-serif" font-size="14" lengthAdjust="spacing" textLength="203.417" x="94.43" y="303.0757">Usuario modifica cantidades,</text><text fill="#111111" font-family="sans-serif" font-size="14" lengthAdjust="spacing" textLength="253.9004" x="94.43" y="319.3726">observaciones, a&#241;ade nuevas l&#237;neas</text><text fill="#111111" font-family="sans-serif" font-size="14" lengthAdjust="spacing" textLength="195.0156" x="94.43" y="335.6695">o cancela l&#237;neas pendientes</text></g><g class="entity" data-qualified-name="EditarComanda.ValidarEstado" data-source-line="32" id="ent0004"><rect fill="#F5F5F5" height="85.1875" rx="12.5" ry="12.5" style="stroke:#777777;stroke-width:0.5;" width="239.96" x="106.4" y="379.9637"/><line style="stroke:#777777;stroke-width:0.5;" x1="106.4" x2="346.36" y1="406.2606" y2="406.2606"/><text fill="#111111" font-family="sans-serif" font-size="14" lengthAdjust="spacing" textLength="96.8174" x="177.9713" y="397.9589">ValidarEstado</text><text fill="#111111" font-family="sans-serif" font-size="14" lengthAdjust="spacing" textLength="219.96" x="111.4" y="424.2557">Sistema valida que la comanda</text><text fill="#111111" font-family="sans-serif" font-size="14" lengthAdjust="spacing" textLength="181.665" x="111.4" y="440.5526">siga abierta y que la l&#237;nea</text><text fill="#111111" font-family="sans-serif" font-size="14" lengthAdjust="spacing" textLength="187.6602" x="111.4" y="456.8495">est&#233; en estado PENDIENTE</text></g><g class="entity" data-qualified-name="EditarComanda.GuardarCambios" data-source-line="36" id="ent0005"><rect fill="#F5F5F5" height="68.8906" rx="12.5" ry="12.5" style="stroke:#777777;stroke-width:0.5;" width="217.5996" x="117.58" y="501.1537"/><line style="stroke:#777777;stroke-width:0.5;" x1="117.58" x2="335.1796" y1="527.4506" y2="527.4506"/><text fill="#111111" font-family="sans-serif" font-size="14" lengthAdjust="spacing" textLength="117.9063" x="167.4267" y="519.1489">GuardarCambios</text><text fill="#111111" font-family="sans-serif" font-size="14" lengthAdjust="spacing" textLength="197.5996" x="122.58" y="545.4457">Sistema guarda los cambios</text><text fill="#111111" font-family="sans-serif" font-size="14" lengthAdjust="spacing" textLength="163.9189" x="122.58" y="561.7426">en la l&#237;nea de comanda</text></g><g class="entity" data-qualified-name="EditarComanda.ActualizarSistema" data-source-line="40" id="ent0006"><rect fill="#F5F5F5" height="85.1875" rx="12.5" ry="12.5" style="stroke:#777777;stroke-width:0.5;" width="219.5615" x="116.6" y="606.0437"/><line style="stroke:#777777;stroke-width:0.5;" x1="116.6" x2="336.1615" y1="632.3406" y2="632.3406"/><text fill="#111111" font-family="sans-serif" font-size="14" lengthAdjust="spacing" textLength="126.0684" x="163.3466" y="624.0389">ActualizarSistema</text><text fill="#111111" font-family="sans-serif" font-size="14" lengthAdjust="spacing" textLength="199.5615" x="121.6" y="650.3357">Sistema actualiza Comanda,</text><text fill="#111111" font-family="sans-serif" font-size="14" lengthAdjust="spacing" textLength="151.3887" x="121.6" y="666.6326">KDS y vista de mesas</text><text fill="#111111" font-family="sans-serif" font-size="14" lengthAdjust="spacing" textLength="102.3066" x="121.6" y="682.9295">en tiempo real</text></g><g class="entity" data-qualified-name="EditarComanda.RegistrarAuditoria" data-source-line="44" id="ent0007"><rect fill="#F5F5F5" height="68.8906" rx="12.5" ry="12.5" style="stroke:#777777;stroke-width:0.5;" width="206.8877" x="122.94" y="727.2338"/><line style="stroke:#777777;stroke-width:0.5;" x1="122.94" x2="329.8277" y1="753.5306" y2="753.5306"/><text fill="#111111" font-family="sans-serif" font-size="14" lengthAdjust="spacing" textLength="127.4971" x="162.6353" y="745.2289">RegistrarAuditoria</text><text fill="#111111" font-family="sans-serif" font-size="14" lengthAdjust="spacing" textLength="186.8877" x="127.94" y="771.5257">Sistema registra la edici&#243;n</text><text fill="#111111" font-family="sans-serif" font-size="14" lengthAdjust="spacing" textLength="84.4443" x="127.94" y="787.8226">en auditor&#237;a</text></g><g class="start_entity" data-qualified-name="EditarComanda..start.EditarComanda" data-source-line="17" id="ent0010"><ellipse cx="226.38" cy="91.5938" fill="#222222" rx="10" ry="10" style="stroke:#222222;stroke-width:1;"/></g><g class="end_entity" data-qualified-name="EditarComanda..end.EditarComanda" data-source-line="46" id="ent0017"><ellipse cx="226.38" cy="843.1238" fill="none" rx="11" ry="11" style="stroke:#222222;stroke-width:1;"/><ellipse cx="226.38" cy="843.1238" fill="#222222" rx="6" ry="6" style="stroke:#222222;stroke-width:1;"/></g><g class="entity" data-qualified-name="EditarComanda.GMN21" data-source-line="21" id="ent0022"><path d="M354.71,152.4838 L354.71,176.1837 L336.57,180.1837 L354.71,184.1837 L354.71,207.8822 A0,0 0 0 0 354.71,207.8822 L604.0415,207.8822 A0,0 0 0 0 604.0415,207.8822 L604.0415,162.4838 L594.0415,152.4838 L354.71,152.4838 A0,0 0 0 0 354.71,152.4838" fill="#FFF8D6" style="stroke:#C8B45D;stroke-width:0.5;"/><path d="M594.0415,152.4838 L594.0415,162.4838 L604.0415,162.4838 L594.0415,152.4838" fill="#FFF8D6" style="stroke:#C8B45D;stroke-width:0.5;"/><text fill="#000000" font-family="sans-serif" font-size="13" lengthAdjust="spacing" textLength="87.7183" x="360.71" y="169.5506">Precondici&#243;n:</text><text fill="#000000" font-family="sans-serif" font-size="13" lengthAdjust="spacing" textLength="228.3315" x="360.71" y="184.6835">La mesa tiene una comanda activa</text><text fill="#000000" font-family="sans-serif" font-size="13" lengthAdjust="spacing" textLength="216.1948" x="360.71" y="199.8163">con l&#237;neas en estado PENDIENTE.</text></g><!--link *start*EditarComanda to AccederComanda--><g class="link" data-entity-1="ent0010" data-entity-2="ent0002" data-link-type="dependency" data-source-line="17" id="lnk11"><path d="M226.38,101.8637 C226.38,110.4937 226.38,119.0237 226.38,132.3538" fill="none" id="*start*EditarComanda-to-AccederComanda" style="stroke:#3F8F3F;stroke-width:1;"/><polygon fill="#3F8F3F" points="226.38,137.3538,230.38,128.3538,226.38,132.3538,222.38,128.3538,226.38,137.3538" style="stroke:#3F8F3F;stroke-width:1;stroke-linejoin:miter;stroke-miterlimit:10;"/></g><!--link AccederComanda to ModificarLineas--><g class="link" data-entity-1="ent0002" data-entity-2="ent0003" data-link-type="dependency" data-source-line="26" id="lnk12"><path d="M226.38,223.2038 C226.38,234.6038 226.38,241.9337 226.38,253.3338" fill="none" id="AccederComanda-to-ModificarLineas" style="stroke:#3F8F3F;stroke-width:1;"/><polygon fill="#3F8F3F" points="226.38,258.3338,230.38,249.3338,226.38,253.3338,222.38,249.3338,226.38,258.3338" style="stroke:#3F8F3F;stroke-width:1;stroke-linejoin:miter;stroke-miterlimit:10;"/></g><!--link ModificarLineas to ValidarEstado--><g class="link" data-entity-1="ent0003" data-entity-2="ent0004" data-link-type="dependency" data-source-line="30" id="lnk13"><path d="M226.38,344.3937 C226.38,355.7838 226.38,363.1238 226.38,374.5137" fill="none" id="ModificarLineas-to-ValidarEstado" style="stroke:#3F8F3F;stroke-width:1;"/><polygon fill="#3F8F3F" points="226.38,379.5137,230.38,370.5137,226.38,374.5137,222.38,370.5137,226.38,379.5137" style="stroke:#3F8F3F;stroke-width:1;stroke-linejoin:miter;stroke-miterlimit:10;"/></g><!--link ValidarEstado to GuardarCambios--><g class="link" data-entity-1="ent0004" data-entity-2="ent0005" data-link-type="dependency" data-source-line="34" id="lnk14"><path d="M226.38,465.5438 C226.38,477.2137 226.38,484.7238 226.38,495.8538" fill="none" id="ValidarEstado-to-GuardarCambios" style="stroke:#3F8F3F;stroke-width:1;"/><polygon fill="#3F8F3F" points="226.38,500.8538,230.38,491.8538,226.38,495.8538,222.38,491.8538,226.38,500.8538" style="stroke:#3F8F3F;stroke-width:1;stroke-linejoin:miter;stroke-miterlimit:10;"/></g><!--link GuardarCambios to ActualizarSistema--><g class="link" data-entity-1="ent0005" data-entity-2="ent0006" data-link-type="dependency" data-source-line="38" id="lnk15"><path d="M226.38,570.5238 C226.38,581.6138 226.38,589.0738 226.38,600.6937" fill="none" id="GuardarCambios-to-ActualizarSistema" style="stroke:#3F8F3F;stroke-width:1;"/><polygon fill="#3F8F3F" points="226.38,605.6937,230.38,596.6937,226.38,600.6937,222.38,596.6937,226.38,605.6937" style="stroke:#3F8F3F;stroke-width:1;stroke-linejoin:miter;stroke-miterlimit:10;"/></g><!--link ActualizarSistema to RegistrarAuditoria--><g class="link" data-entity-1="ent0006" data-entity-2="ent0007" data-link-type="dependency" data-source-line="42" id="lnk16"><path d="M226.38,691.6138 C226.38,703.2837 226.38,710.8038 226.38,721.9337" fill="none" id="ActualizarSistema-to-RegistrarAuditoria" style="stroke:#3F8F3F;stroke-width:1;"/><polygon fill="#3F8F3F" points="226.38,726.9337,230.38,717.9337,226.38,721.9337,222.38,717.9337,226.38,726.9337" style="stroke:#3F8F3F;stroke-width:1;stroke-linejoin:miter;stroke-miterlimit:10;"/></g><!--link RegistrarAuditoria to *end*EditarComanda--><g class="link" data-entity-1="ent0007" data-entity-2="ent0017" data-link-type="dependency" data-source-line="46" id="lnk18"><path d="M226.38,796.3738 C226.38,809.2238 226.38,817.9438 226.38,826.9738" fill="none" id="RegistrarAuditoria-to-*end*EditarComanda" style="stroke:#3F8F3F;stroke-width:1;"/><polygon fill="#3F8F3F" points="226.38,831.9738,230.38,822.9738,226.38,826.9738,222.38,822.9738,226.38,831.9738" style="stroke:#3F8F3F;stroke-width:1;stroke-linejoin:miter;stroke-miterlimit:10;"/></g></g><g class="entity" data-qualified-name="COMANDA_ACTUALIZADA" data-source-line="52" id="ent0008"><rect fill="#F5F5F5" height="50" rx="12.5" ry="12.5" style="stroke:#777777;stroke-width:0.5;" width="199.4639" x="7" y="954.3869"/><line style="stroke:#777777;stroke-width:0.5;" x1="7" x2="206.4639" y1="980.6838" y2="980.6838"/><text fill="#111111" font-family="sans-serif" font-size="14" lengthAdjust="spacing" textLength="179.4639" x="17" y="972.382">COMANDA_ACTUALIZADA</text></g><g class="entity" data-qualified-name="OPERACION_RECHAZADA" data-source-line="53" id="ent0009"><rect fill="#F5F5F5" height="50" rx="12.5" ry="12.5" style="stroke:#777777;stroke-width:0.5;" width="197.9873" x="500.74" y="954.3869"/><line style="stroke:#777777;stroke-width:0.5;" x1="500.74" x2="698.7273" y1="980.6838" y2="980.6838"/><text fill="#111111" font-family="sans-serif" font-size="14" lengthAdjust="spacing" textLength="177.9873" x="510.74" y="972.382">OPERACION_RECHAZADA</text></g><g class="entity" data-qualified-name="GMN24" data-source-line="56" id="ent0025"><path d="M241.66,944.1269 L241.66,975.3869 L206.59,979.3869 L241.66,983.3869 L241.66,1014.6581 A0,0 0 0 0 241.66,1014.6581 L465.8104,1014.6581 A0,0 0 0 0 465.8104,1014.6581 L465.8104,954.1269 L455.8104,944.1269 L241.66,944.1269 A0,0 0 0 0 241.66,944.1269" fill="#FFF8D6" style="stroke:#C8B45D;stroke-width:0.5;"/><path d="M455.8104,944.1269 L455.8104,954.1269 L465.8104,954.1269 L455.8104,944.1269" fill="#FFF8D6" style="stroke:#C8B45D;stroke-width:0.5;"/><text fill="#000000" font-family="sans-serif" font-size="13" lengthAdjust="spacing" textLength="94.1992" x="247.66" y="961.1938">Postcondici&#243;n:</text><text fill="#000000" font-family="sans-serif" font-size="13" lengthAdjust="spacing" textLength="203.1504" x="247.66" y="976.3266">La comanda queda actualizada</text><text fill="#000000" font-family="sans-serif" font-size="13" lengthAdjust="spacing" textLength="161.0464" x="247.66" y="991.4594">y los cambios se reflejan</text><text fill="#000000" font-family="sans-serif" font-size="13" lengthAdjust="spacing" textLength="91.127" x="247.66" y="1006.5922">en el sistema.</text></g><g class="entity" data-qualified-name="GMN27" data-source-line="63" id="ent0028"><path d="M733.76,944.1269 L733.76,975.3869 L698.95,979.3869 L733.76,983.3869 L733.76,1014.6581 A0,0 0 0 0 733.76,1014.6581 L973.697,1014.6581 A0,0 0 0 0 973.697,1014.6581 L973.697,954.1269 L963.697,944.1269 L733.76,944.1269 A0,0 0 0 0 733.76,944.1269" fill="#FFF8D6" style="stroke:#C8B45D;stroke-width:0.5;"/><path d="M963.697,944.1269 L963.697,954.1269 L973.697,954.1269 L963.697,944.1269" fill="#FFF8D6" style="stroke:#C8B45D;stroke-width:0.5;"/><text fill="#000000" font-family="sans-serif" font-size="13" lengthAdjust="spacing" textLength="53.9297" x="739.76" y="961.1938">CU-N05:</text><text fill="#000000" font-family="sans-serif" font-size="13" lengthAdjust="spacing" textLength="185.1548" x="739.76" y="976.3266">El sistema bloquea la acci&#243;n</text><text fill="#000000" font-family="sans-serif" font-size="13" lengthAdjust="spacing" textLength="218.937" x="739.76" y="991.4594">si la l&#237;nea est&#225; EN_PREPARACION,</text><text fill="#000000" font-family="sans-serif" font-size="13" lengthAdjust="spacing" textLength="116.3208" x="739.76" y="1006.5922">LISTO o SERVIDO.</text></g><!--link EditarComanda to COMANDA_ACTUALIZADA--><g class="link" data-entity-1="ent0001" data-entity-2="ent0008" data-link-type="dependency" data-source-line="49" id="lnk19"><path d="M159.05,867.4369 C141.86,903.8969 129.582,929.9242 120.272,949.6742" fill="none" id="EditarComanda-to-COMANDA_ACTUALIZADA" style="stroke:#3F8F3F;stroke-width:1;"/><polygon fill="#3F8F3F" points="118.14,954.1969,125.5957,947.7616,120.272,949.6742,118.3594,944.3505,118.14,954.1969" style="stroke:#3F8F3F;stroke-width:1;stroke-linejoin:miter;stroke-miterlimit:10;"/><text fill="#000000" font-family="sans-serif" font-size="13" lengthAdjust="spacing" textLength="112.8867" x="143.73" y="910.1938">edicionCorrecta()</text></g><!--link EditarComanda to OPERACION_RECHAZADA--><g class="link" data-entity-1="ent0001" data-entity-2="ent0009" data-link-type="dependency" data-source-line="50" id="lnk20"><path d="M547.2,867.4369 C564.46,903.8969 576.7906,929.9277 586.1406,949.6777" fill="none" id="EditarComanda-to-OPERACION_RECHAZADA" style="stroke:#3F8F3F;stroke-width:1;"/><polygon fill="#3F8F3F" points="588.28,954.1969,588.0443,944.3508,586.1406,949.6777,580.8137,947.774,588.28,954.1969" style="stroke:#3F8F3F;stroke-width:1;stroke-linejoin:miter;stroke-miterlimit:10;"/><text fill="#000000" font-family="sans-serif" font-size="13" lengthAdjust="spacing" textLength="112.252" x="569.73" y="910.1938">lineaNoEditable()</text></g><?plantuml-src TLNDRjD04BxxAKRq0gYfYaeXwW79jHs8I9CeQNk0e6fYJzAbzcvPRr8LnCDmvD03uX7oOiok7MAxhdlg_7pVDxCp4oDCIX1ST0wxq84e4GOrn2f3cQ3dvJT2tgB63F9hJDITa4jOO9fJnJF7-6QfrKecWKgLXhjhOQf-NsjrLxZsZdhTtb6l2clG4Fpm04uRC7kzO_jdFKedf4lhM_UnjQUaAMsltEVzhE1AzIHihzSDtpHXW-xfw-EG8Rn2qJDodGYAHZn_yGmmBxjJsXpwvvTVeDDv1tuSamCh-mOD2vn0b4AC6MhI2XHWaWafSgEvgtecqKK3GehRvWF6Hgnn9jc-aWWPvSYuhZ0jbjS6rAB92_oDDSLA9Y8Mcx_on9a6HJOOGR80gtEu84w2TFCWYGib2SHzI1ICes7OZuRdqG47aKmSVqjzjWbdAX4B4QCU28jYenecRiD5la8j56IbXviYZKWmeNn_9jKy9xt6M2Z9_mDk_h03v8hMd5oguoYR51FtQYlubgLnSOPQMQsuIqoPHKUkB1jKCx2mARy6PGXhPuTlAweynapcOidjcWlI1k5-woxuPopMR7wtjUqnanNpddl0bW2pkL1ESjrIaRDq3aZP61TEPfCxRk3-nBknQ-0KisbMhE0xwXApUBw6iKA9Mn-KhyiFyp6SSjLhZd2CTfmA8JnJsQq2JPYsure94rgwMTV-YbT8QU4qFBPMHEZIQIkbSfeT8HR1cuUdC2mXxwNTvVh2MaSmElE7eN_b1-SN_g3_oGzz9dK4IWPAy_8ONlUMpD4uclX1VpIycaJ11x_CJEs43PKBdwV4cTi3qiBaZaYBVPlIGk5IMkoULpy4RQXy2rHkwiTWiDjz7k6ayjZkVDnN1mro9g15IbzHkkq7IY4ltkV0sns3kf8siM1_O8Q7nrP1z1y3vgbY4Uw9-G1QYUpFHMMuxLxzWcXuDPv4Ox_0tRTbzAVd8pwZqsXosGz7EpN_0000?></g></svg>