<svg xmlns="http://www.w3.org/2000/svg" xmlns:xlink="http://www.w3.org/1999/xlink" contentStyleType="text/css" data-diagram-type="STATE" height="862px" preserveAspectRatio="none" style="width:934px;height:862px;background:#FFFFFF;" version="1.1" viewBox="0 0 934 862" width="934px" zoomAndPan="magnify"><?plantuml 1.2026.3beta5?><defs/><g><g class="title" data-source-line="8"><text fill="#000000" font-family="sans-serif" font-size="14" font-weight="700" lengthAdjust="spacing" textLength="156.3037" x="385.3625" y="22.9951">Estado de Comanda</text></g><rect fill="#FFFFE0" height="40" rx="12.5" ry="12.5" style="stroke:#FF8C00;stroke-width:0.5;" width="71.4688" x="691.97" y="140.2969"/><text fill="#000000" font-family="sans-serif" font-size="14" lengthAdjust="spacing" textLength="61.4688" x="696.97" y="165.1436">Borrador</text><rect fill="#FFFFE0" height="40" rx="12.5" ry="12.5" style="stroke:#FF8C00;stroke-width:0.5;" width="154.0605" x="393.67" y="257.2969"/><text fill="#000000" font-family="sans-serif" font-size="14" lengthAdjust="spacing" textLength="144.0605" x="398.67" y="282.1436">Pendiente en Cocina</text><rect fill="#FFFFE0" height="40" rx="12.5" ry="12.5" style="stroke:#FF8C00;stroke-width:0.5;" width="115.8066" x="412.8" y="374.2969"/><text fill="#000000" font-family="sans-serif" font-size="14" lengthAdjust="spacing" textLength="105.8066" x="417.8" y="399.1436">En Preparaci&#243;n</text><rect fill="#FFFFE0" height="40" rx="12.5" ry="12.5" style="stroke:#FF8C00;stroke-width:0.5;" width="124.9395" x="287.23" y="491.2969"/><text fill="#000000" font-family="sans-serif" font-size="14" lengthAdjust="spacing" textLength="114.9395" x="292.23" y="516.1436">Lista para Servir</text><rect fill="#FFFFE0" height="40" rx="12.5" ry="12.5" style="stroke:#FF8C00;stroke-width:0.5;" width="62.8965" x="167.25" y="608.2969"/><text fill="#000000" font-family="sans-serif" font-size="14" lengthAdjust="spacing" textLength="52.8965" x="172.25" y="633.1436">Servida</text><rect fill="#FFFFE0" height="40" rx="12.5" ry="12.5" style="stroke:#FF8C00;stroke-width:0.5;" width="65.9453" x="411.73" y="725.2969"/><text fill="#000000" font-family="sans-serif" font-size="14" lengthAdjust="spacing" textLength="55.9453" x="416.73" y="750.1436">Cerrada</text><rect fill="#FFFFE0" height="40" rx="12.5" ry="12.5" style="stroke:#FF8C00;stroke-width:0.5;" width="83.4727" x="625.96" y="491.2969"/><text fill="#000000" font-family="sans-serif" font-size="14" lengthAdjust="spacing" textLength="73.4727" x="630.96" y="516.1436">Cancelada</text><g class="start_entity" data-qualified-name=".start." data-source-line="18" id="ent0002"><ellipse cx="727.7" cy="53.2969" fill="#222222" rx="10" ry="10" style="stroke:#222222;stroke-width:1;"/></g><g class="end_entity" data-qualified-name=".end." data-source-line="38" id="ent0015"><ellipse cx="497.7" cy="837.2969" fill="none" rx="11" ry="11" style="stroke:#222222;stroke-width:1;"/><ellipse cx="497.7" cy="837.2969" fill="#222222" rx="6" ry="6" style="stroke:#222222;stroke-width:1;"/></g><!--link *start* to Borrador--><g class="link" data-entity-1="ent0002" data-entity-2="ent0002" data-link-type="dependency" data-source-line="18" id="lnk3"><path d="M727.7,63.6169 C727.7,80.6769 727.7,111.2769 727.7,133.9369" fill="none" id="*start*-to-Borrador" style="stroke:#2F4F4F;stroke-width:1;"/><polygon fill="#2F4F4F" points="727.7,139.9369,731.7,130.9369,727.7,134.9369,723.7,130.9369,727.7,139.9369" style="stroke:#2F4F4F;stroke-width:1;"/><text fill="#000000" font-family="sans-serif" font-size="13" lengthAdjust="spacing" textLength="162.3286" x="728.7" y="106.3638">Camarero abre comanda</text></g><!--link Borrador to Pendiente--><g class="link" data-entity-1="ent0002" data-entity-2="ent0003" data-link-type="dependency" data-source-line="20" id="lnk4"><path d="M721.11,180.7469 C715.03,195.7269 704.52,215.7869 688.7,227.2969 C648.08,256.8569 598.7353,268.4029 553.9953,273.2329" fill="none" id="Borrador-to-Pendiente" style="stroke:#2F4F4F;stroke-width:1;"/><polygon fill="#2F4F4F" points="548.03,273.8769,557.4073,276.8878,553.0011,273.3402,556.5487,268.934,548.03,273.8769" style="stroke:#2F4F4F;stroke-width:1;"/><text fill="#000000" font-family="sans-serif" font-size="13" lengthAdjust="spacing" textLength="84.0874" x="705.7" y="223.3638">Enviar a KDS</text></g><!--link Pendiente to Borrador--><g class="link" data-entity-1="ent0003" data-entity-2="ent0002" data-link-type="dependency" data-source-line="21" id="lnk5"><path d="M461.87,257.0769 C456.68,242.6069 453.02,223.1469 463.7,210.2969 C492.27,175.9269 620.1665,165.8355 685.5665,162.7955" fill="none" id="Pendiente-to-Borrador" style="stroke:#2F4F4F;stroke-width:1;"/><polygon fill="#2F4F4F" points="691.56,162.5169,682.384,158.9391,686.5654,162.749,682.7554,166.9305,691.56,162.5169" style="stroke:#2F4F4F;stroke-width:1;"/><text fill="#000000" font-family="sans-serif" font-size="13" lengthAdjust="spacing" textLength="215.8647" x="464.7" y="223.3638">Camarero edita antes de aceptar</text></g><!--link Pendiente to Preparando--><g class="link" data-entity-1="ent0003" data-entity-2="ent0004" data-link-type="dependency" data-source-line="22" id="lnk6"><path d="M470.7,297.5469 C470.7,318.7769 470.7,346.7369 470.7,367.9869" fill="none" id="Pendiente-to-Preparando" style="stroke:#2F4F4F;stroke-width:1;"/><polygon fill="#2F4F4F" points="470.7,373.9869,474.7,364.9869,470.7,368.9869,466.7,364.9869,470.7,373.9869" style="stroke:#2F4F4F;stroke-width:1;"/><text fill="#000000" font-family="sans-serif" font-size="13" lengthAdjust="spacing" textLength="105.8853" x="471.7" y="340.3638">Cocinero acepta</text></g><!--link Preparando to Lista--><g class="link" data-entity-1="ent0004" data-entity-2="ent0005" data-link-type="dependency" data-source-line="23" id="lnk7"><path d="M446.01,414.6669 C435.21,423.4269 422.56,434.0769 411.7,444.2969 C395.78,459.2669 382.8818,472.9753 370.7518,486.4653" fill="none" id="Preparando-to-Lista" style="stroke:#2F4F4F;stroke-width:1;"/><polygon fill="#2F4F4F" points="366.74,490.9269,375.732,486.909,370.0831,487.2089,369.7833,481.56,366.74,490.9269" style="stroke:#2F4F4F;stroke-width:1;"/><text fill="#000000" font-family="sans-serif" font-size="13" lengthAdjust="spacing" textLength="133.7261" x="412.7" y="457.3638">Cocinero marca listo</text></g><!--link Lista to Servida--><g class="link" data-entity-1="ent0005" data-entity-2="ent0006" data-link-type="dependency" data-source-line="24" id="lnk8"><path d="M324.43,531.5469 C296.55,552.7769 256.7332,583.1014 228.8332,604.3514" fill="none" id="Lista-to-Servida" style="stroke:#2F4F4F;stroke-width:1;"/><polygon fill="#2F4F4F" points="224.06,607.9869,233.6434,605.7158,228.0376,604.9573,228.7961,599.3515,224.06,607.9869" style="stroke:#2F4F4F;stroke-width:1;"/><text fill="#000000" font-family="sans-serif" font-size="13" lengthAdjust="spacing" textLength="179.2451" x="284.7" y="574.3638">Camarero entrega en mesa</text></g><!--link Servida to Pendiente--><g class="link" data-entity-1="ent0006" data-entity-2="ent0003" data-link-type="dependency" data-source-line="27" id="lnk9"><path d="M190.3,607.8169 C176.48,572.5469 153.36,496.8969 183.7,444.2969 C229.36,365.1469 323.0494,322.1984 391.9794,299.5684" fill="none" id="Servida-to-Pendiente" style="stroke:#2F4F4F;stroke-width:1;"/><polygon fill="#2F4F4F" points="397.68,297.6969,387.8813,296.7038,392.9295,299.2565,390.3767,304.3046,397.68,297.6969" style="stroke:#2F4F4F;stroke-width:1;"/><text fill="#000000" font-family="sans-serif" font-size="13" lengthAdjust="spacing" textLength="203.6836" x="184.7" y="457.3638">Camarero a&#241;ade nuevos platos</text></g><!--link Servida to Pendiente--><g class="link" data-entity-1="ent0006" data-entity-2="ent0003" data-link-type="dependency" data-source-line="28" id="lnk10"><path d="M166.83,611.0469 C111.19,580.4369 6,511.2569 47.7,444.2969 C120.89,326.7669 286.5594,292.9603 387.2694,282.9503" fill="none" id="Servida-to-Pendiente-1" style="stroke:#2F4F4F;stroke-width:1;"/><polygon fill="#2F4F4F" points="393.24,282.3569,383.8885,279.2667,388.2645,282.8514,384.6798,287.2274,393.24,282.3569" style="stroke:#2F4F4F;stroke-width:1;"/><text fill="#000000" font-family="sans-serif" font-size="13" lengthAdjust="spacing" textLength="119.209" x="48.7" y="457.3638">Solicitar segundos</text></g><!--link Servida to Cerrada--><g class="link" data-entity-1="ent0006" data-entity-2="ent0007" data-link-type="dependency" data-source-line="31" id="lnk11"><path d="M230.61,644.2169 C277.28,666.0269 358.3244,703.9164 405.8444,726.1264" fill="none" id="Servida-to-Cerrada" style="stroke:#2F4F4F;stroke-width:1;"/><polygon fill="#2F4F4F" points="411.28,728.6669,404.8203,721.2324,406.7503,726.5498,401.4329,728.4799,411.28,728.6669" style="stroke:#2F4F4F;stroke-width:1;"/><text fill="#000000" font-family="sans-serif" font-size="13" lengthAdjust="spacing" textLength="82.2021" x="337.7" y="691.3638">Cliente paga</text></g><!--link Borrador to Cancelada--><g class="link" data-entity-1="ent0002" data-entity-2="ent0008" data-link-type="dependency" data-source-line="34" id="lnk12"><path d="M763.57,177.3169 C776.97,185.2369 790.84,196.1669 798.7,210.2969 C842.82,289.5869 844.68,331.8869 806.7,414.2969 C788.23,454.3869 748.9299,478.1186 715.1499,492.8486" fill="none" id="Borrador-to-Cancelada" style="stroke:#2F4F4F;stroke-width:1;"/><polygon fill="#2F4F4F" points="709.65,495.2469,719.4986,495.3161,714.2332,493.2483,716.3009,487.9829,709.65,495.2469" style="stroke:#2F4F4F;stroke-width:1;"/><text fill="#000000" font-family="sans-serif" font-size="13" lengthAdjust="spacing" textLength="84.3286" x="833.7" y="340.3638">Cliente se va</text></g><!--link Pendiente to Cancelada--><g class="link" data-entity-1="ent0003" data-entity-2="ent0008" data-link-type="dependency" data-source-line="35" id="lnk13"><path d="M533.51,297.7669 C596.12,321.1069 687.93,367.0769 723.7,444.2969 C731.91,462.0269 722.1481,475.1777 705.8181,487.3677" fill="none" id="Pendiente-to-Cancelada" style="stroke:#2F4F4F;stroke-width:1;"/><polygon fill="#2F4F4F" points="701.01,490.9569,710.6149,488.7786,705.0168,487.9659,705.8294,482.3677,701.01,490.9569" style="stroke:#2F4F4F;stroke-width:1;"/><text fill="#000000" font-family="sans-serif" font-size="13" lengthAdjust="spacing" textLength="91.1333" x="706.7" y="398.8638">Falta de stock</text></g><!--link Preparando to Cancelada--><g class="link" data-entity-1="ent0004" data-entity-2="ent0008" data-link-type="dependency" data-source-line="36" id="lnk14"><path d="M503.67,414.5469 C540.04,435.7769 593.028,466.7125 629.438,487.9625" fill="none" id="Preparando-to-Cancelada" style="stroke:#2F4F4F;stroke-width:1;"/><polygon fill="#2F4F4F" points="634.62,490.9869,628.8632,482.9956,630.3017,488.4666,624.8307,489.905,634.62,490.9869" style="stroke:#2F4F4F;stroke-width:1;"/><text fill="#000000" font-family="sans-serif" font-size="13" lengthAdjust="spacing" textLength="132.6152" x="582.7" y="457.3638">Incidencia en cocina</text></g><!--link Cerrada to *end*--><g class="link" data-entity-1="ent0007" data-entity-2="ent0015" data-link-type="dependency" data-source-line="38" id="lnk16"><path d="M455.94,765.3869 C467.24,784.5769 481.1252,808.1469 489.5352,822.4269" fill="none" id="Cerrada-to-*end*" style="stroke:#2F4F4F;stroke-width:1;"/><polygon fill="#2F4F4F" points="492.58,827.5969,491.4595,817.812,490.0427,823.2885,484.5661,821.8717,492.58,827.5969" style="stroke:#2F4F4F;stroke-width:1;"/></g><!--link Cancelada to *end*--><g class="link" data-entity-1="ent0008" data-entity-2="ent0015" data-link-type="dependency" data-source-line="39" id="lnk17"><path d="M657.58,531.5969 C625.34,593.0369 528.6278,777.3439 505.3778,821.6539" fill="none" id="Cancelada-to-*end*" style="stroke:#2F4F4F;stroke-width:1;"/><polygon fill="#2F4F4F" points="502.59,826.9669,510.3137,820.8559,504.9132,822.5394,503.2297,817.1388,502.59,826.9669" style="stroke:#2F4F4F;stroke-width:1;"/></g><?plantuml-src TPJ1IYGn48RlUOfYBiA2UFSWhECeeg0mfqNsK9iKRPXqqbHwnXNneMGVmHVRIhhJdMbn3aDJzVrLbR_I_MmD0RLT_mg6ecRRzJPu5NVMTyZOGkon9tXJ09UeTms7lJVhu0B3lMsU-r_aN7X9sS26UCXS8UyU67r3alZ975xc-DP9lHl6L_MkL6zxHx2H7YP8VrY75hr1fOQkAodAak8LL3-CKEA5UoHlB7bv92z5jFMuIjmKB-36moDJEfcsd__yQgeuHhq91RstyW0f25lYWyr329dZ1SePWqVp9MYC5snDQTwls1YVCFIQt09CM8ahzVJZDvoUNamE9E9SW1QPE03-OG9TNAoWf9bT4id67omo8DnTRLMLMHIlQfEnOWWA5TEkK5FN8o-riv59crQHvygmgfA97Io6yGo5bNOQmKakg8f8Wj7MnQ6bELE3QVSjHJdt2LpkjLoiI8tSrX3X33gvTlBWztG8KPKwnwxKFdv-e9nnm4VnjwfjS5QBDpmrJ2EihIoNZaJZkeVftI3liCaJR_wAHLhUFOhBlKthhsIHu81Bxslm6fqu9sSG6_LkwNnDtdej7m7vomxg_FOeDS-Q1NBlr2mgeVy0?></g></svg>