<svg xmlns="http://www.w3.org/2000/svg" xmlns:xlink="http://www.w3.org/1999/xlink" contentStyleType="text/css" data-diagram-type="DESCRIPTION" height="931px" preserveAspectRatio="none" style="width:979px;height:931px;background:#FFFFFF;" version="1.1" viewBox="0 0 979 931" width="979px" zoomAndPan="magnify"><title>Arquitectura de agentes - Agent</title><defs/><g><g class="title" data-source-line="4"><text fill="#000000" font-family="sans-serif" font-size="14" font-weight="bold" lengthAdjust="spacing" textLength="255.3086" x="355.0999" y="22.9951">Arquitectura de agentes - Agent</text></g><!--cluster Agent--><g class="cluster" data-entity="Agent" data-source-line="6" data-uid="ent0002" id="cluster_Agent"><rect fill="none" height="761" rx="2.5" ry="2.5" style="stroke:#181818;stroke-width:1;" width="807" x="7.48" y="44.2969"/><path d="M64.4907,44.2969 L64.4907,53.5938 L54.4907,63.5938 L7.48,63.5938" fill="none" style="stroke:#181818;stroke-width:1;"/><text fill="#000000" font-family="sans-serif" font-size="14" font-weight="bold" lengthAdjust="spacing" textLength="47.0107" x="10.48" y="58.292">Agent</text></g><!--cluster my_agent--><g class="cluster" data-entity="my_agent" data-source-line="10" data-uid="ent0005" id="cluster_my_agent"><rect fill="none" height="502" rx="2.5" ry="2.5" style="stroke:#181818;stroke-width:1;" width="759" x="31.48" y="279.2969"/><path d="M117.8169,279.2969 L117.8169,288.5938 L107.8169,298.5938 L31.48,298.5938" fill="none" style="stroke:#181818;stroke-width:1;"/><text fill="#000000" font-family="sans-serif" font-size="14" font-weight="bold" lengthAdjust="spacing" textLength="76.3369" x="34.48" y="293.292">my_agent</text></g><!--cluster agents--><g class="cluster" data-entity="agents" data-source-line="13" data-uid="ent0007" id="cluster_agents"><rect fill="none" height="204" rx="2.5" ry="2.5" style="stroke:#181818;stroke-width:1;" width="698" x="68.48" y="407.2969"/><path d="M132.4361,407.2969 L132.4361,416.5938 L122.4361,426.5938 L68.48,426.5938" fill="none" style="stroke:#181818;stroke-width:1;"/><text fill="#000000" font-family="sans-serif" font-size="14" font-weight="bold" lengthAdjust="spacing" textLength="53.9561" x="71.48" y="421.292">agents</text></g><!--cluster tools--><g class="cluster" data-entity="tools" data-source-line="21" data-uid="ent0013" id="cluster_tools"><rect fill="none" height="97" rx="2.5" ry="2.5" style="stroke:#181818;stroke-width:1;" width="510" x="55.48" y="660.2969"/><path d="M104.5405,660.2969 L104.5405,669.5938 L94.5405,679.5938 L55.48,679.5938" fill="none" style="stroke:#181818;stroke-width:1;"/><text fill="#000000" font-family="sans-serif" font-size="14" font-weight="bold" lengthAdjust="spacing" textLength="39.0605" x="58.48" y="674.292">tools</text></g><!--entity FastAPIApp--><g class="entity" data-entity="FastAPIApp" data-source-line="7" data-uid="ent0003" id="entity_FastAPIApp"><rect fill="#F1F1F1" height="46.2969" rx="2.5" ry="2.5" style="stroke:#181818;stroke-width:0.5;" width="118.9141" x="335.98" y="79.2969"/><rect fill="#F1F1F1" height="10" style="stroke:#181818;stroke-width:0.5;" width="15" x="434.8941" y="84.2969"/><rect fill="#F1F1F1" height="2" style="stroke:#181818;stroke-width:0.5;" width="4" x="432.8941" y="86.2969"/><rect fill="#F1F1F1" height="2" style="stroke:#181818;stroke-width:0.5;" width="4" x="432.8941" y="90.2969"/><text fill="#000000" font-family="sans-serif" font-size="14" lengthAdjust="spacing" textLength="78.9141" x="350.98" y="112.292">FastAPIApp</text></g><!--entity HandoffEndpoint--><g class="entity" data-entity="HandoffEndpoint" data-source-line="8" data-uid="ent0004" id="entity_HandoffEndpoint"><rect fill="#F1F1F1" height="46.2969" rx="2.5" ry="2.5" style="stroke:#181818;stroke-width:0.5;" width="157.5986" x="316.48" y="186.2969"/><rect fill="#F1F1F1" height="10" style="stroke:#181818;stroke-width:0.5;" width="15" x="454.0786" y="191.2969"/><rect fill="#F1F1F1" height="2" style="stroke:#181818;stroke-width:0.5;" width="4" x="452.0786" y="193.2969"/><rect fill="#F1F1F1" height="2" style="stroke:#181818;stroke-width:0.5;" width="4" x="452.0786" y="197.2969"/><text fill="#000000" font-family="sans-serif" font-size="14" lengthAdjust="spacing" textLength="117.5986" x="331.48" y="219.292">HandoffEndpoint</text></g><!--entity KiwiOrchestrator--><g class="entity" data-entity="KiwiOrchestrator" data-source-line="11" data-uid="ent0006" id="entity_KiwiOrchestrator"><rect fill="#F1F1F1" height="46.2969" rx="2.5" ry="2.5" style="stroke:#181818;stroke-width:0.5;" width="157.2979" x="316.98" y="314.2969"/><rect fill="#F1F1F1" height="10" style="stroke:#181818;stroke-width:0.5;" width="15" x="454.2779" y="319.2969"/><rect fill="#F1F1F1" height="2" style="stroke:#181818;stroke-width:0.5;" width="4" x="452.2779" y="321.2969"/><rect fill="#F1F1F1" height="2" style="stroke:#181818;stroke-width:0.5;" width="4" x="452.2779" y="325.2969"/><text fill="#000000" font-family="sans-serif" font-size="14" lengthAdjust="spacing" textLength="117.2979" x="331.98" y="347.292">KiwiOrchestrator</text></g><!--entity DraftPipelineAgent--><g class="entity" data-entity="DraftPipelineAgent" data-source-line="14" data-uid="ent0008" id="entity_DraftPipelineAgent"><rect fill="#F1F1F1" height="46.2969" rx="2.5" ry="2.5" style="stroke:#181818;stroke-width:0.5;" width="172.0703" x="578.48" y="442.2969"/><rect fill="#F1F1F1" height="10" style="stroke:#181818;stroke-width:0.5;" width="15" x="730.5503" y="447.2969"/><rect fill="#F1F1F1" height="2" style="stroke:#181818;stroke-width:0.5;" width="4" x="728.5503" y="449.2969"/><rect fill="#F1F1F1" height="2" style="stroke:#181818;stroke-width:0.5;" width="4" x="728.5503" y="453.2969"/><text fill="#000000" font-family="sans-serif" font-size="14" lengthAdjust="spacing" textLength="132.0703" x="593.48" y="475.292">DraftPipelineAgent</text></g><!--entity ExtractUcRfAgent--><g class="entity" data-entity="ExtractUcRfAgent" data-source-line="15" data-uid="ent0009" id="entity_ExtractUcRfAgent"><rect fill="#F1F1F1" height="46.2969" rx="2.5" ry="2.5" style="stroke:#181818;stroke-width:0.5;" width="164.1816" x="586.48" y="549.2969"/><rect fill="#F1F1F1" height="10" style="stroke:#181818;stroke-width:0.5;" width="15" x="730.6616" y="554.2969"/><rect fill="#F1F1F1" height="2" style="stroke:#181818;stroke-width:0.5;" width="4" x="728.6616" y="556.2969"/><rect fill="#F1F1F1" height="2" style="stroke:#181818;stroke-width:0.5;" width="4" x="728.6616" y="560.2969"/><text fill="#000000" font-family="sans-serif" font-size="14" lengthAdjust="spacing" textLength="124.1816" x="601.48" y="582.292">ExtractUcRfAgent</text></g><!--entity KiwiGherkinAgent--><g class="entity" data-entity="KiwiGherkinAgent" data-source-line="16" data-uid="ent0010" id="entity_KiwiGherkinAgent"><rect fill="#F1F1F1" height="46.2969" rx="2.5" ry="2.5" style="stroke:#181818;stroke-width:0.5;" width="164.8105" x="385.98" y="549.2969"/><rect fill="#F1F1F1" height="10" style="stroke:#181818;stroke-width:0.5;" width="15" x="530.7905" y="554.2969"/><rect fill="#F1F1F1" height="2" style="stroke:#181818;stroke-width:0.5;" width="4" x="528.7905" y="556.2969"/><rect fill="#F1F1F1" height="2" style="stroke:#181818;stroke-width:0.5;" width="4" x="528.7905" y="560.2969"/><text fill="#000000" font-family="sans-serif" font-size="14" lengthAdjust="spacing" textLength="124.8105" x="400.98" y="582.292">KiwiGherkinAgent</text></g><!--entity ReviewPublishAgent--><g class="entity" data-entity="ReviewPublishAgent" data-source-line="17" data-uid="ent0011" id="entity_ReviewPublishAgent"><rect fill="#F1F1F1" height="46.2969" rx="2.5" ry="2.5" style="stroke:#181818;stroke-width:0.5;" width="182.167" x="84.48" y="442.2969"/><rect fill="#F1F1F1" height="10" style="stroke:#181818;stroke-width:0.5;" width="15" x="246.647" y="447.2969"/><rect fill="#F1F1F1" height="2" style="stroke:#181818;stroke-width:0.5;" width="4" x="244.647" y="449.2969"/><rect fill="#F1F1F1" height="2" style="stroke:#181818;stroke-width:0.5;" width="4" x="244.647" y="453.2969"/><text fill="#000000" font-family="sans-serif" font-size="14" lengthAdjust="spacing" textLength="142.167" x="99.48" y="475.292">ReviewPublishAgent</text></g><!--entity RequirementsManagerAgent--><g class="entity" data-entity="RequirementsManagerAgent" data-source-line="18" data-uid="ent0012" id="entity_RequirementsManagerAgent"><rect fill="#F1F1F1" height="46.2969" rx="2.5" ry="2.5" style="stroke:#181818;stroke-width:0.5;" width="241.0723" x="301.98" y="442.2969"/><rect fill="#F1F1F1" height="10" style="stroke:#181818;stroke-width:0.5;" width="15" x="523.0523" y="447.2969"/><rect fill="#F1F1F1" height="2" style="stroke:#181818;stroke-width:0.5;" width="4" x="521.0523" y="449.2969"/><rect fill="#F1F1F1" height="2" style="stroke:#181818;stroke-width:0.5;" width="4" x="521.0523" y="453.2969"/><text fill="#000000" font-family="sans-serif" font-size="14" lengthAdjust="spacing" textLength="201.0723" x="316.98" y="475.292">RequirementsManagerAgent</text></g><!--entity KiwiMvcDbTool--><g class="entity" data-entity="KiwiMvcDbTool" data-source-line="22" data-uid="ent0014" id="entity_KiwiMvcDbTool"><rect fill="#F1F1F1" height="46.2969" rx="2.5" ry="2.5" style="stroke:#181818;stroke-width:0.5;" width="145.7109" x="71.48" y="695.2969"/><rect fill="#F1F1F1" height="10" style="stroke:#181818;stroke-width:0.5;" width="15" x="197.1909" y="700.2969"/><rect fill="#F1F1F1" height="2" style="stroke:#181818;stroke-width:0.5;" width="4" x="195.1909" y="702.2969"/><rect fill="#F1F1F1" height="2" style="stroke:#181818;stroke-width:0.5;" width="4" x="195.1909" y="706.2969"/><text fill="#000000" font-family="sans-serif" font-size="14" lengthAdjust="spacing" textLength="105.7109" x="86.48" y="728.292">KiwiMvcDbTool</text></g><!--entity DraftStoreTool--><g class="entity" data-entity="DraftStoreTool" data-source-line="23" data-uid="ent0015" id="entity_DraftStoreTool"><rect fill="#F1F1F1" height="46.2969" rx="2.5" ry="2.5" style="stroke:#181818;stroke-width:0.5;" width="142.416" x="407.48" y="695.2969"/><rect fill="#F1F1F1" height="10" style="stroke:#181818;stroke-width:0.5;" width="15" x="529.896" y="700.2969"/><rect fill="#F1F1F1" height="2" style="stroke:#181818;stroke-width:0.5;" width="4" x="527.896" y="702.2969"/><rect fill="#F1F1F1" height="2" style="stroke:#181818;stroke-width:0.5;" width="4" x="527.896" y="706.2969"/><text fill="#000000" font-family="sans-serif" font-size="14" lengthAdjust="spacing" textLength="102.416" x="422.48" y="728.292">DraftStoreTool</text></g><!--entity KiwiApiTool--><g class="entity" data-entity="KiwiApiTool" data-source-line="24" data-uid="ent0016" id="entity_KiwiApiTool"><rect fill="#F1F1F1" height="46.2969" rx="2.5" ry="2.5" style="stroke:#181818;stroke-width:0.5;" width="120.3359" x="252.48" y="695.2969"/><rect fill="#F1F1F1" height="10" style="stroke:#181818;stroke-width:0.5;" width="15" x="352.8159" y="700.2969"/><rect fill="#F1F1F1" height="2" style="stroke:#181818;stroke-width:0.5;" width="4" x="350.8159" y="702.2969"/><rect fill="#F1F1F1" height="2" style="stroke:#181818;stroke-width:0.5;" width="4" x="350.8159" y="706.2969"/><text fill="#000000" font-family="sans-serif" font-size="14" lengthAdjust="spacing" textLength="80.3359" x="267.48" y="728.292">KiwiApiTool</text></g><!--entity MongoDB--><g class="entity" data-entity="MongoDB" data-source-line="29" data-uid="ent0017" id="entity_MongoDB"><path d="M74.48,878.7969 C74.48,868.7969 133.5586,868.7969 133.5586,868.7969 C133.5586,868.7969 192.6372,868.7969 192.6372,878.7969 L192.6372,904.0938 C192.6372,914.0938 133.5586,914.0938 133.5586,914.0938 C133.5586,914.0938 74.48,914.0938 74.48,904.0938 L74.48,878.7969" fill="#F1F1F1" style="stroke:#181818;stroke-width:0.5;"/><path d="M74.48,878.7969 C74.48,888.7969 133.5586,888.7969 133.5586,888.7969 C133.5586,888.7969 192.6372,888.7969 192.6372,878.7969" fill="none" style="stroke:#181818;stroke-width:0.5;"/><text fill="#000000" font-family="sans-serif" font-size="14" lengthAdjust="spacing" textLength="98.1572" x="84.48" y="905.792">MongoDB app</text></g><!--entity DraftJson--><g class="entity" data-entity="DraftJson" data-source-line="30" data-uid="ent0018" id="entity_DraftJson"><path d="M432.48,875.7969 L432.48,907.0938 A2.5,2.5 0 0 0 434.98,909.5938 L558.3228,909.5938 A2.5,2.5 0 0 0 560.8228,907.0938 L560.8228,883.2969 L550.8228,873.2969 L434.98,873.2969 A2.5,2.5 0 0 0 432.48,875.7969" fill="#F1F1F1" style="stroke:#181818;stroke-width:0.5;"/><path d="M550.8228,873.2969 L550.8228,880.7969 A2.5,2.5 0 0 0 553.3228,883.2969 L560.8228,883.2969" fill="#F1F1F1" style="stroke:#181818;stroke-width:0.5;"/><text fill="#000000" font-family="sans-serif" font-size="14" lengthAdjust="spacing" textLength="108.3428" x="442.48" y="896.292">kiwi_drafts.json</text></g><!--entity LLM--><g class="entity" data-entity="LLM" data-source-line="31" data-uid="ent0019" id="entity_LLM"><path d="M839.4497,703.7985 C842.8559,697.5723 848.7967,695.8245 853.0192,702.9701 C857.487,697.3229 861.4128,696.5551 865.7459,703.1108 C868.7875,696.6907 874.089,697.2392 877.9366,702.2513 C881.6506,696.0892 885.5857,694.8218 890.3528,701.2094 C894.4015,695.3631 898.3706,695.4238 902.7022,700.9008 C906.7211,695.115 911.3658,695.5005 914.6034,701.6781 C917.5236,696.1493 922.7212,696.0182 925.6834,701.6363 C929.5046,695.9968 934.8059,695.8551 938.0361,702.2433 C942.5751,697.8855 948.203,698.4758 950.478,704.8645 C954.7488,699.2818 959.7798,699.3017 964.1464,704.7458 C971.5241,707.7371 972.5084,715.0327 965.7724,719.572 C971.4174,725.8261 970.5924,730.6647 962.9562,734.3957 C960.6831,740.3517 955.7948,741.7174 951.178,736.9763 C947.7248,743.3906 943.5617,743.5414 938.986,738.1341 C936.0085,745.3951 929.8983,744.9467 925.8649,739.1991 C921.9237,744.6524 917.6619,744.2271 914.0382,738.8523 C911.7754,744.5159 906.4888,746.9436 901.9322,741.3105 C897.6109,745.9162 893.5007,745.3409 890.4519,739.862 C885.7717,745.4725 881.6597,745.0623 877.9006,738.8815 C873.0205,744.8977 868.4581,742.7766 865.4963,736.8835 C861.7944,743.2837 856.527,743.2356 852.7267,736.9828 C847.4712,742.7485 842.5303,742.2148 839.7153,734.6083 C830.7605,733.978 827.5833,726.1961 832.5419,719.1213 C827.1873,710.5479 829.2502,705.3598 839.4497,703.7985" fill="#F1F1F1" style="stroke:#181818;stroke-width:0.5;"/><text fill="#000000" font-family="sans-serif" font-size="14" lengthAdjust="spacing" textLength="109.2861" x="845.98" y="723.292">OpenAI/LiteLLM</text></g><!--entity Kiwi--><g class="entity" data-entity="Kiwi" data-source-line="32" data-uid="ent0020" id="entity_Kiwi"><path d="M236.4603,876.428 C241.9534,869.9724 246.5062,871.2041 250.6127,877.9182 C253.3459,872.4365 257.6855,872.1596 261.9136,876.131 C265.4911,870.615 271.3193,869.8139 274.7762,876.2608 C277.46,868.7966 284.3732,868.126 288.9703,874.2642 C292.806,869.1762 297.5707,867.7396 301.2163,874.4613 C304.2983,867.4973 310.3506,868.6836 313.8446,874.039 C317.5098,867.2535 323.6108,868.7204 327.0133,874.3182 C331.9515,869.1144 336.0524,869.1587 340.0642,875.3767 C343.1638,869.5063 348.454,868.7703 352.2173,874.6927 C355.9545,868.7183 361.2247,870.7678 363.7761,875.9241 C367.7409,869.7736 374.3056,868.1754 378.4119,875.7735 C383.8861,871.1051 387.8047,872.0443 391.0971,878.3057 C401.0088,879.147 401.9836,885.1011 397.9798,892.6291 C402.5015,900.1104 399.4957,908.6079 389.6783,908.6672 C385.3605,914.8851 380.9309,914.9717 376.6607,908.618 C373.1826,914.4057 369.0093,915.8582 364.0539,910.2526 C361.3596,917.1546 355.7169,916.7557 351.4066,912.0066 C348.4116,917.9229 343.0414,918.544 339.3121,912.766 C335.6764,920.2012 331.5112,921.0443 326.0964,914.4409 C321.8303,920.7644 316.6644,921.1576 312.9487,913.9078 C309.3999,919.312 304.2784,918.9455 300.83,913.7925 C296.5406,919.3672 291.4503,917.3117 288.8104,911.9753 C285.0139,918.6502 279.2493,917.9606 276.0727,911.3796 C272.334,917.5302 266.7952,916.7338 263.3575,911.056 C258.2446,917.5134 253.3589,916.1676 250.088,909.2311 C245.3108,915.4515 238.5939,913.5285 236.2301,906.6733 C228.5577,904.6276 227.5972,899.4224 231.5361,893.3009 C225.9745,885.3025 227.8872,880.3013 236.4603,876.428" fill="#F1F1F1" style="stroke:#181818;stroke-width:0.5;"/><text fill="#000000" font-family="sans-serif" font-size="14" lengthAdjust="spacing" textLength="139.0703" x="242.98" y="896.292">Kiwi TCMS XML-RPC</text></g><!--link FastAPIApp to HandoffEndpoint--><g class="link" data-entity-1="FastAPIApp" data-entity-2="HandoffEndpoint" data-source-line="34" data-uid="lnk21" id="link_FastAPIApp_HandoffEndpoint"><path d="M395.48,125.3069 C395.48,143.1069 395.48,162.0669 395.48,179.9569" fill="none" id="FastAPIApp-to-HandoffEndpoint" style="stroke:#181818;stroke-width:1;"/><polygon fill="#181818" points="395.48,185.9569,399.48,176.9569,395.48,180.9569,391.48,176.9569,395.48,185.9569" style="stroke:#181818;stroke-width:1;"/></g><!--link HandoffEndpoint to KiwiOrchestrator--><g class="link" data-entity-1="HandoffEndpoint" data-entity-2="KiwiOrchestrator" data-source-line="35" data-uid="lnk22" id="link_HandoffEndpoint_KiwiOrchestrator"><path d="M395.48,232.5369 C395.48,255.5669 395.48,285.3369 395.48,308.2869" fill="none" id="HandoffEndpoint-to-KiwiOrchestrator" style="stroke:#181818;stroke-width:1;"/><polygon fill="#181818" points="395.48,314.2869,399.48,305.2869,395.48,309.2869,391.48,305.2869,395.48,314.2869" style="stroke:#181818;stroke-width:1;"/></g><!--link KiwiOrchestrator to KiwiMvcDbTool--><g class="link" data-entity-1="KiwiOrchestrator" data-entity-2="KiwiMvcDbTool" data-source-line="37" data-uid="lnk23" id="link_KiwiOrchestrator_KiwiMvcDbTool"><path d="M316.73,341.7669 C230.23,347.4169 99.43,362.0369 68.48,399.2969 C6,474.5069 36.81,526.7869 68.48,619.2969 C78.66,649.0369 97.7284,672.4633 115.8584,690.7733" fill="none" id="KiwiOrchestrator-to-KiwiMvcDbTool" style="stroke:#181818;stroke-width:1;"/><polygon fill="#181818" points="120.08,695.0369,116.5899,685.8271,116.562,691.4839,110.9052,691.456,120.08,695.0369" style="stroke:#181818;stroke-width:1;"/></g><!--link KiwiMvcDbTool to MongoDB--><g class="link" data-entity-1="KiwiMvcDbTool" data-entity-2="MongoDB" data-source-line="38" data-uid="lnk24" id="link_KiwiMvcDbTool_MongoDB"><path d="M143.06,741.3069 C140.95,774.2269 137.3661,829.9393 135.2561,862.6593" fill="none" id="KiwiMvcDbTool-to-MongoDB" style="stroke:#181818;stroke-width:1;"/><polygon fill="#181818" points="134.87,868.6469,139.4409,859.9229,135.1918,863.6572,131.4575,859.4081,134.87,868.6469" style="stroke:#181818;stroke-width:1;"/><text fill="#000000" font-family="sans-serif" font-size="13" lengthAdjust="spacing" textLength="134.3164" x="138.48" y="834.3638">leer documentations</text></g><!--link KiwiOrchestrator to DraftPipelineAgent--><g class="link" data-entity-1="KiwiOrchestrator" data-entity-2="DraftPipelineAgent" data-source-line="40" data-uid="lnk25" id="link_KiwiOrchestrator_DraftPipelineAgent"><path d="M464.63,360.3169 C494.67,370.7869 529.91,384.2869 560.48,399.2969 C585.71,411.6869 607.5846,425.2384 627.6846,438.6984" fill="none" id="KiwiOrchestrator-to-DraftPipelineAgent" style="stroke:#181818;stroke-width:1;"/><polygon fill="#181818" points="632.67,442.0369,627.4175,433.7055,628.5155,439.2548,622.9662,440.3527,632.67,442.0369" style="stroke:#181818;stroke-width:1;"/></g><!--link DraftPipelineAgent to ExtractUcRfAgent--><g class="link" data-entity-1="DraftPipelineAgent" data-entity-2="ExtractUcRfAgent" data-source-line="41" data-uid="lnk26" id="link_DraftPipelineAgent_ExtractUcRfAgent"><path d="M665.32,488.3069 C666,506.1069 666.7221,525.0712 667.4021,542.9612" fill="none" id="DraftPipelineAgent-to-ExtractUcRfAgent" style="stroke:#181818;stroke-width:1;"/><polygon fill="#181818" points="667.63,548.9569,671.2853,539.8114,667.4401,543.9605,663.291,540.1153,667.63,548.9569" style="stroke:#181818;stroke-width:1;"/></g><!--link DraftPipelineAgent to KiwiGherkinAgent--><g class="link" data-entity-1="DraftPipelineAgent" data-entity-2="KiwiGherkinAgent" data-source-line="42" data-uid="lnk27" id="link_DraftPipelineAgent_KiwiGherkinAgent"><path d="M623.39,488.3069 C590.05,506.1669 548.5591,528.404 515.1391,546.304" fill="none" id="DraftPipelineAgent-to-KiwiGherkinAgent" style="stroke:#181818;stroke-width:1;"/><polygon fill="#181818" points="509.85,549.1369,519.6723,548.4136,514.2576,546.7761,515.8951,541.3615,509.85,549.1369" style="stroke:#181818;stroke-width:1;"/></g><!--link ExtractUcRfAgent to LLM--><g class="link" data-entity-1="ExtractUcRfAgent" data-entity-2="LLM" data-source-line="44" data-uid="lnk28" id="link_ExtractUcRfAgent_LLM"><path d="M703.97,595.3269 C747.63,622.4269 816.2324,665.0023 859.9024,692.1123" fill="none" id="ExtractUcRfAgent-to-LLM" style="stroke:#181818;stroke-width:1;"/><polygon fill="#181818" points="865,695.2769,859.4633,687.1316,860.752,692.6397,855.2439,693.9284,865,695.2769" style="stroke:#181818;stroke-width:1;"/><text fill="#000000" font-family="sans-serif" font-size="13" lengthAdjust="spacing" textLength="91.0571" x="778.48" y="640.3638">extraer UC/RF</text></g><!--link KiwiGherkinAgent to LLM--><g class="link" data-entity-1="KiwiGherkinAgent" data-entity-2="LLM" data-source-line="45" data-uid="lnk29" id="link_KiwiGherkinAgent_LLM"><path d="M514.62,595.3569 C531.71,603.2469 551.34,611.9869 569.48,619.2969 C657.31,654.6769 756.9907,682.2556 824.8907,699.3056" fill="none" id="KiwiGherkinAgent-to-LLM" style="stroke:#181818;stroke-width:1;"/><polygon fill="#181818" points="830.71,700.7669,822.9552,694.6954,825.8606,699.5492,821.0068,702.4545,830.71,700.7669" style="stroke:#181818;stroke-width:1;"/><text fill="#000000" font-family="sans-serif" font-size="13" lengthAdjust="spacing" textLength="106.3105" x="631.48" y="640.3638">generar Gherkin</text></g><!--link KiwiGherkinAgent to DraftStoreTool--><g class="link" data-entity-1="KiwiGherkinAgent" data-entity-2="DraftStoreTool" data-source-line="47" data-uid="lnk30" id="link_KiwiGherkinAgent_DraftStoreTool"><path d="M470.02,595.4769 C471.89,622.4669 474.6248,661.7613 476.5048,688.8613" fill="none" id="KiwiGherkinAgent-to-DraftStoreTool" style="stroke:#181818;stroke-width:1;"/><polygon fill="#181818" points="476.92,694.8469,480.2876,685.5916,476.574,689.8589,472.3067,686.1453,476.92,694.8469" style="stroke:#181818;stroke-width:1;"/></g><!--link ReviewPublishAgent to DraftStoreTool--><g class="link" data-entity-1="ReviewPublishAgent" data-entity-2="DraftStoreTool" data-source-line="48" data-uid="lnk31" id="link_ReviewPublishAgent_DraftStoreTool"><path d="M193.32,488.4869 C224.45,525.8369 292.41,601.3569 365.48,644.2969 C375.54,650.2069 380.09,646.9869 390.48,652.2969 C413.31,663.9769 431.8975,677.6037 448.7475,691.4737" fill="none" id="ReviewPublishAgent-to-DraftStoreTool" style="stroke:#181818;stroke-width:1;"/><polygon fill="#181818" points="453.38,695.2869,448.9734,686.4788,449.5196,692.1092,443.8892,692.6554,453.38,695.2869" style="stroke:#181818;stroke-width:1;"/></g><!--link RequirementsManagerAgent to DraftStoreTool--><g class="link" data-entity-1="RequirementsManagerAgent" data-entity-2="DraftStoreTool" data-source-line="49" data-uid="lnk32" id="link_RequirementsManagerAgent_DraftStoreTool"><path d="M402.94,488.4469 C390.39,504.2069 375.23,526.5569 368.48,549.2969 C359.63,579.1269 355.75,590.9069 368.48,619.2969 C376.98,638.2569 414.2413,668.9955 443.8113,691.5755" fill="none" id="RequirementsManagerAgent-to-DraftStoreTool" style="stroke:#181818;stroke-width:1;"/><polygon fill="#181818" points="448.58,695.2169,443.8546,686.5757,444.6061,692.1824,438.9994,692.9339,448.58,695.2169" style="stroke:#181818;stroke-width:1;"/></g><!--link DraftStoreTool to DraftJson--><g class="link" data-entity-1="DraftStoreTool" data-entity-2="DraftJson" data-source-line="51" data-uid="lnk33" id="link_DraftStoreTool_DraftJson"><path d="M480.8,741.3069 C484.42,775.7569 490.7426,835.7698 494.0326,867.0598" fill="none" id="DraftStoreTool-to-DraftJson" style="stroke:#181818;stroke-width:1;"/><polygon fill="#181818" points="494.66,873.0269,497.6969,863.6579,494.1372,868.0543,489.7408,864.4945,494.66,873.0269" style="stroke:#181818;stroke-width:1;"/></g><!--link ReviewPublishAgent to KiwiApiTool--><g class="link" data-entity-1="ReviewPublishAgent" data-entity-2="KiwiApiTool" data-source-line="52" data-uid="lnk34" id="link_ReviewPublishAgent_KiwiApiTool"><path d="M184.38,488.5969 C201.01,529.8869 236.61,616.5469 253.48,644.2969 C264.57,662.5369 275.8039,676.7158 287.9939,690.6158" fill="none" id="ReviewPublishAgent-to-KiwiApiTool" style="stroke:#181818;stroke-width:1;"/><polygon fill="#181818" points="291.95,695.1269,289.0232,685.7229,288.6533,691.3677,283.0085,690.9977,291.95,695.1269" style="stroke:#181818;stroke-width:1;"/></g><!--link KiwiApiTool to Kiwi--><g class="link" data-entity-1="KiwiApiTool" data-entity-2="Kiwi" data-source-line="53" data-uid="lnk35" id="link_KiwiApiTool_Kiwi"><path d="M312.48,741.3069 C312.48,774.0469 312.48,829.2569 312.48,862.1069" fill="none" id="KiwiApiTool-to-Kiwi" style="stroke:#181818;stroke-width:1;"/><polygon fill="#181818" points="312.48,868.1069,316.48,859.1069,312.48,863.1069,308.48,859.1069,312.48,868.1069" style="stroke:#181818;stroke-width:1;"/></g><!--SRC=[TPB1Rjim38RlUWh2zwpt7GPuIRjsZT4WQO7T2iQc4pMEf4boisBeku_IajYnbODXK_n-ag9_jvFAeCKz62ntkA6L_sW8B9KUrQOXuSw0ssAb3r9jeCR6aH1UUaPp-xkLdldM8bG4N4DvSZ21F7m9KREO88jH1dy5GAdtHYiEuGwTpnSFkJ4Nn_UeAbtNjweoMeOQ0CSg-uzNx0hrDO_o89zikINdBNfjHSmVPL7ZJgA-R6QnzWjfg96A_ayyH6x_SCNIlvJBEWs4rZ-sP7bLQM19xv8EYtRTIBUzXl0QBUt3d0Kg7jXsuEV5PRpMJV8kOOxYlPojdvb8ttJ5cw5aEeXp8y-vJn4UxboXnpKwRbnejT6pxu36P80EZh6e9ViWst61roeqSL_Ud5OHYKr_SYJAHhSLP4-6LFvmCsVBpET5PFXzoeOXu7bQhE1NCPyi5zC8X5CXEg_0PF9jv95179cn9uOdPwpRsqKKywTxVuM6o4AbopRy9_HIAtUbPi9NuwD8ZknrXHkvJ0oL4UDjyg0KKZpho_HcUIU6qXx88LcqS4oBD3lmpjZFQIfjwHGhBkCEYTwvqgzlsTxtEVSF]--></g></svg>