<svg xmlns="http://www.w3.org/2000/svg" xmlns:xlink="http://www.w3.org/1999/xlink" contentStyleType="text/css" data-diagram-type="STATE" height="756px" preserveAspectRatio="none" style="width:632px;height:756px;background:#FFFFFF;" version="1.1" viewBox="0 0 632 756" width="632px" zoomAndPan="magnify"><defs/><g><path d="M19.5,7 L606.5,7 A12.5,12.5 0 0 1 619,19.5 L619,33.2969 L7,33.2969 L7,19.5 A12.5,12.5 0 0 1 19.5,7" fill="#F1F1F1"/><rect fill="none" height="598.2969" rx="12.5" ry="12.5" style="stroke:#181818;stroke-width:0.5;" width="612" x="7" y="7"/><line style="stroke:#181818;stroke-width:0.5;" x1="7" x2="619" y1="33.2969" y2="33.2969"/><text fill="#000000" font-family="sans-serif" font-size="14" lengthAdjust="spacing" textLength="330.0732" x="147.9634" y="24.9951">consultarReferenciasDocumentacionProyecto()</text><g id="consultarReferenciasDocumentacionProyecto.SolicitandoProyecto"><rect fill="#F1F1F1" height="50" rx="12.5" ry="12.5" style="stroke:#181818;stroke-width:0.5;" width="50" x="19" y="150.2969"/><line style="stroke:#181818;stroke-width:0.5;" x1="19" x2="69" y1="176.5938" y2="176.5938"/><text fill="#000000" font-family="sans-serif" font-size="14" lengthAdjust="spacing" textLength="4.4502" x="41.7749" y="168.292">&#160;</text></g><g id="consultarReferenciasDocumentacionProyecto.RecuperandoReferencias"><rect fill="#F1F1F1" height="50" rx="12.5" ry="12.5" style="stroke:#181818;stroke-width:0.5;" width="50" x="19" y="286.2969"/><line style="stroke:#181818;stroke-width:0.5;" x1="19" x2="69" y1="312.5938" y2="312.5938"/><text fill="#000000" font-family="sans-serif" font-size="14" lengthAdjust="spacing" textLength="4.4502" x="41.7749" y="304.292">&#160;</text></g><g id="consultarReferenciasDocumentacionProyecto.MostrandoReferencias"><rect fill="#F1F1F1" height="50" rx="12.5" ry="12.5" style="stroke:#181818;stroke-width:0.5;" width="50" x="19" y="437.2969"/><line style="stroke:#181818;stroke-width:0.5;" x1="19" x2="69" y1="463.5938" y2="463.5938"/><text fill="#000000" font-family="sans-serif" font-size="14" lengthAdjust="spacing" textLength="4.4502" x="41.7749" y="455.292">&#160;</text></g><ellipse cx="44" cy="54.2969" fill="#222222" rx="10" ry="10" style="stroke:#222222;stroke-width:1;"/><ellipse cx="44" cy="584.2969" fill="none" rx="11" ry="11" style="stroke:#222222;stroke-width:1;"/><ellipse cx="44" cy="584.2969" fill="#222222" rx="6" ry="6" style="stroke:#222222;stroke-width:1;"/><!--link *start*consultarReferenciasDocumentacionProyecto to SolicitandoProyecto--><g class="link" data-entity-1=".start.consultarReferenciasDocumentacionProyecto" data-entity-2="SolicitandoProyecto" data-source-line="9" data-uid="lnk3" id="link_.start.consultarReferenciasDocumentacionProyecto_SolicitandoProyecto"><path d="M44,64.6369 C44,82.8269 44,117.5369 44,143.9069" fill="none" id="*start*consultarReferenciasDocumentacionProyecto-to-SolicitandoProyecto" style="stroke:#008000;stroke-width:1;"/><polygon fill="#008000" points="44,149.9069,48,140.9069,44,144.9069,40,140.9069,44,149.9069" style="stroke:#008000;stroke-width:1;"/><path d="M49,87.2969 L49,127.2969 L277,127.2969 L277,97.2969 L267,87.2969 L49,87.2969" fill="#FEFFDD" style="stroke:#181818;stroke-width:0.5;"/><path d="M267,87.2969 L267,97.2969 L277,97.2969 L267,87.2969" fill="#FEFFDD" style="stroke:#181818;stroke-width:0.5;"/><text fill="#000000" font-family="sans-serif" font-size="13" lengthAdjust="spacing" textLength="207.7905" x="55" y="104.3638">Se solicita consultar referencias</text><text fill="#000000" font-family="sans-serif" font-size="13" lengthAdjust="spacing" textLength="202.8457" x="55" y="119.4966">de documentacion de proyecto</text></g><!--link SolicitandoProyecto to RecuperandoReferencias--><g class="link" data-entity-1="SolicitandoProyecto" data-entity-2="RecuperandoReferencias" data-source-line="15" data-uid="lnk4" id="link_SolicitandoProyecto_RecuperandoReferencias"><path d="M44,200.5669 C44,224.8469 44,255.9869 44,280.2069" fill="none" id="SolicitandoProyecto-to-RecuperandoReferencias" style="stroke:#008000;stroke-width:1;"/><polygon fill="#008000" points="44,286.2069,48,277.2069,44,281.2069,40,277.2069,44,286.2069" style="stroke:#008000;stroke-width:1;"/><path d="M49,223.2969 L49,263.2969 L329,263.2969 L329,233.2969 L319,223.2969 L49,223.2969" fill="#FEFFDD" style="stroke:#181818;stroke-width:0.5;"/><path d="M319,223.2969 L319,233.2969 L329,233.2969 L319,223.2969" fill="#FEFFDD" style="stroke:#181818;stroke-width:0.5;"/><text fill="#000000" font-family="sans-serif" font-size="13" font-weight="bold" lengthAdjust="spacing" textLength="58.9063" x="55" y="240.3638">Sistema</text><text fill="#000000" font-family="sans-serif" font-size="13" lengthAdjust="spacing" textLength="196.2441" x="118.0386" y="240.3638">recibe el nombre del proyecto</text><text fill="#000000" font-family="sans-serif" font-size="13" lengthAdjust="spacing" textLength="238.272" x="55" y="255.4966">y recupera las referencias asociadas</text></g><!--link RecuperandoReferencias to MostrandoReferencias--><g class="link" data-entity-1="RecuperandoReferencias" data-entity-2="MostrandoReferencias" data-source-line="21" data-uid="lnk5" id="link_RecuperandoReferencias_MostrandoReferencias"><path d="M44,336.5669 C44,364.2769 44,403.3369 44,431.0369" fill="none" id="RecuperandoReferencias-to-MostrandoReferencias" style="stroke:#008000;stroke-width:1;"/><polygon fill="#008000" points="44,437.0369,48,428.0369,44,432.0369,40,428.0369,44,437.0369" style="stroke:#008000;stroke-width:1;"/><path d="M49,359.2969 L49,414.2969 L610,414.2969 L610,369.2969 L600,359.2969 L49,359.2969" fill="#FEFFDD" style="stroke:#181818;stroke-width:0.5;"/><path d="M600,359.2969 L600,369.2969 L610,369.2969 L600,359.2969" fill="#FEFFDD" style="stroke:#181818;stroke-width:0.5;"/><text fill="#000000" font-family="sans-serif" font-size="13" lengthAdjust="spacing" textLength="168.6572" x="55" y="376.3638">Se prepara la informacion</text><text fill="#000000" font-family="sans-serif" font-size="13" lengthAdjust="spacing" textLength="136.0557" x="55" y="391.4966">para su visualizacion</text><text fill="#000000" font-family="sans-serif" font-size="13" lengthAdjust="spacing" textLength="540.3188" x="55" y="406.6294">Identificador de documentacion/ Tipo de entrada / Referencia u origen documental</text></g><!--link MostrandoReferencias to *end*consultarReferenciasDocumentacionProyecto--><g class="link" data-entity-1="MostrandoReferencias" data-entity-2=".end.consultarReferenciasDocumentacionProyecto" data-source-line="28" data-uid="lnk7" id="link_MostrandoReferencias_.end.consultarReferenciasDocumentacionProyecto"><path d="M44,487.5769 C44,513.8769 44,548.5669 44,567.2769" fill="none" id="MostrandoReferencias-to-*end*consultarReferenciasDocumentacionProyecto" style="stroke:#008000;stroke-width:1;"/><polygon fill="#008000" points="44,573.2769,48,564.2769,44,568.2769,40,564.2769,44,573.2769" style="stroke:#008000;stroke-width:1;"/><path d="M49,510.2969 L49,550.2969 L286,550.2969 L286,520.2969 L276,510.2969 L49,510.2969" fill="#FEFFDD" style="stroke:#181818;stroke-width:0.5;"/><path d="M276,510.2969 L276,520.2969 L286,520.2969 L276,510.2969" fill="#FEFFDD" style="stroke:#181818;stroke-width:0.5;"/><text fill="#000000" font-family="sans-serif" font-size="13" font-weight="bold" lengthAdjust="spacing" textLength="58.9063" x="55" y="527.3638">Sistema</text><text fill="#000000" font-family="sans-serif" font-size="13" lengthAdjust="spacing" textLength="153.6958" x="118.0386" y="527.3638">muestra las referencias</text><text fill="#000000" font-family="sans-serif" font-size="13" lengthAdjust="spacing" textLength="206.4575" x="55" y="542.4966">de documentacion del proyecto</text></g><g id="DOCUMENTACION_ABIERTA"><rect fill="#F1F1F1" height="50" rx="12.5" ry="12.5" style="stroke:#181818;stroke-width:0.5;" width="213.7578" x="206" y="700"/><line style="stroke:#181818;stroke-width:0.5;" x1="206" x2="419.7578" y1="726.2969" y2="726.2969"/><text fill="#000000" font-family="sans-serif" font-size="14" lengthAdjust="spacing" textLength="193.7578" x="216" y="717.9951">DOCUMENTACION_ABIERTA</text></g><!--link consultarReferenciasDocumentacionProyecto to DOCUMENTACION_ABIERTA--><g class="link" data-entity-1="consultarReferenciasDocumentacionProyecto" data-entity-2="DOCUMENTACION_ABIERTA" data-source-line="35" data-uid="lnk9" id="link_consultarReferenciasDocumentacionProyecto_DOCUMENTACION_ABIERTA"><path d="M217.6,605.02 C211.65,623.59 208,635 208,635 C208,635 208,670 208,670 C208,670 232.7335,682.7273 260.6935,697.0973" fill="none" id="consultarReferenciasDocumentacionProyecto-to-DOCUMENTACION_ABIERTA" style="stroke:#008000;stroke-width:1;"/><polygon fill="#008000" points="266.03,699.84,259.8538,692.1684,261.583,697.5544,256.1969,699.2836,266.03,699.84" style="stroke:#008000;stroke-width:1;"/><path d="M213,640 L213,665 L367,665 L367,650 L357,640 L213,640" fill="#FEFFDD" style="stroke:#181818;stroke-width:0.5;"/><path d="M357,640 L357,650 L367,650 L357,640" fill="#FEFFDD" style="stroke:#181818;stroke-width:0.5;"/><text fill="#000000" font-family="sans-serif" font-size="13" lengthAdjust="spacing" textLength="133.1357" x="219" y="657.0669">completarConsulta()</text></g><!--link consultarReferenciasDocumentacionProyecto to DOCUMENTACION_ABIERTA--><g class="link" data-entity-1="consultarReferenciasDocumentacionProyecto" data-entity-2="DOCUMENTACION_ABIERTA" data-source-line="40" data-uid="lnk10" id="link_consultarReferenciasDocumentacionProyecto_DOCUMENTACION_ABIERTA"><path d="M370.24,605.02 C373.81,623.59 376,635 376,635 C376,635 376,670 376,670 C376,670 362.5173,681.5673 345.7373,695.9373" fill="none" id="consultarReferenciasDocumentacionProyecto-to-DOCUMENTACION_ABIERTA-1" style="stroke:#FF0000;stroke-width:1;"/><polygon fill="#FF0000" points="341.18,699.84,350.6177,697.0241,344.9777,696.5877,345.4141,690.9477,341.18,699.84" style="stroke:#FF0000;stroke-width:1;"/><path d="M381,640 L381,665 L525,665 L525,650 L515,640 L381,640" fill="#FEFFDD" style="stroke:#181818;stroke-width:0.5;"/><path d="M515,640 L515,650 L525,650 L515,640" fill="#FEFFDD" style="stroke:#181818;stroke-width:0.5;"/><text fill="#000000" font-family="sans-serif" font-size="13" lengthAdjust="spacing" textLength="123.9316" x="387" y="657.0669">rechazarConsulta()</text></g><!--SRC=[bLFDRe904Bxp51DxqIR65p0cLZruK1kr9sEQPHdjncM7x2vDjEcxTq0RGB2XS026p- -FqPsKIOGLCMXbq9yJX8JqENi80kU5Hv1aNAgzi6iye4KZbN1JaccCnWkfoBnQEgFq1C91fpMws-l0Ln007rUT3f_Ci26jfFB2HFGBhOFMADC4RGOgwTHn2tA-XifXk-Szz7TFHujezltHGrb3p4Ocg-UK3pO8xeOjgW5xvo92YCgfiq5IvaKJvTnNDmtg5NT_vAqP78QZZN8UOp4SX2Ds9bM8W9gHSMZP5zzMh9mpJ4uFcZihHU4AYQ_HJQhgkTbJnNPZ_OzQJInccyWUG9a3sJWlBd-RprqAdygbGgjByMOUSSFgeAI8oDPQ7y1M9PIDUM8v1moWi08fa5L7DCMFT4FEfX2LbBnAhRv4d6B6T5_oettH3nRcEmZQ_oNBFgUhoTjYjjoE9_FLydtyCf-jj-EWubfId6XauibDeTiBYZR-9MinQYdAs_SXBesQFm00]--></g></svg>