<svg xmlns="http://www.w3.org/2000/svg" xmlns:xlink="http://www.w3.org/1999/xlink" contentStyleType="text/css" data-diagram-type="DESCRIPTION" height="197px" preserveAspectRatio="none" style="width:278px;height:197px;background:#FFFFFF;" version="1.1" viewBox="0 0 278 197" width="278px" zoomAndPan="magnify"><defs/><g><!--entity KIWI--><g class="entity" data-entity="KIWI" data-source-line="3" data-uid="ent0002" id="entity_KIWI"><ellipse cx="63.0767" cy="14" fill="#F1F1F1" rx="8" ry="8" style="stroke:#181818;stroke-width:0.5;"/><path d="M63.0767,22 L63.0767,49 M50.0767,30 L76.0767,30 M63.0767,49 L50.0767,64 M63.0767,49 L76.0767,64" fill="none" style="stroke:#181818;stroke-width:0.5;"/><text fill="#000000" font-family="sans-serif" font-size="14" lengthAdjust="spacing" textLength="72.1533" x="27" y="78.4951">Kiwi TCMS</text></g><!--entity PM--><g class="entity" data-entity="PM" data-source-line="4" data-uid="ent0003" id="entity_PM"><ellipse cx="63.1348" cy="125" fill="#F1F1F1" rx="8" ry="8" style="stroke:#181818;stroke-width:0.5;"/><path d="M63.1348,133 L63.1348,160 M50.1348,141 L76.1348,141 M63.1348,160 L50.1348,175 M63.1348,160 L76.1348,175" fill="none" style="stroke:#181818;stroke-width:0.5;"/><text fill="#000000" font-family="sans-serif" font-size="14" lengthAdjust="spacing" textLength="114.2695" x="6" y="189.4951">Project Manager</text></g><!--entity QA--><g class="entity" data-entity="QA" data-source-line="5" data-uid="ent0004" id="entity_QA"><ellipse cx="225.623" cy="14" fill="#F1F1F1" rx="8" ry="8" style="stroke:#181818;stroke-width:0.5;"/><path d="M225.623,22 L225.623,49 M212.623,30 L238.623,30 M225.623,49 L212.623,64 M225.623,49 L238.623,64" fill="none" style="stroke:#181818;stroke-width:0.5;"/><text fill="#000000" font-family="sans-serif" font-size="14" lengthAdjust="spacing" textLength="91.2461" x="180" y="78.4951">Ingeniero QA</text></g><!--SRC=[DSen2e0m30NGtLDyl8aubLAeA3YN6cj46eW1hwy8dT-xQ3UOGBaSXesLih7KhalPHD5xVXZB6EOUwOPtgsiILSul8wIQ2kdlCJHrjL1bKi4q_3GDBm00]--></g></svg>